<svg xmlns="http://www.w3.org/2000/svg" viewBox="0 0 801.17 907.97"><g><path d="M795.34,455.59c-10.94-17.24-24.47-24.99-43.84-29.71-42.82-10.43-90.8,1.22-128.06,23.45-6.98,4.16-14.09,9.45-21.18,13.29-31.45,17.08-57.08,30.47-93.05,33.54-2.65-11.93,3.95-41.69,5.98-54.91,7.22-46.84,12.82-94.01,2.71-140.89-5.19-24.05-13.14-33.24-33.8-46.13-2.5-1.56-5.96-3.73-8.71-4.75-23.29-9.99-48.98-8.67-63.53,14.52-4.74-14.31-12.16-20.71-25.9-26.98-28.87-13.18-56.78-17.11-76.58,13.27-4.07-6.15-8.22-11.7-14.74-15.49-20.47-11.82-50.04-13.7-70.39-.69-8.8,5.62-15.78,16.76-20.07,26.03-4.45,9.63-5.19,20.35-6.35,30.74-7.76-2.21-9.37-3.02-17.02-.63,5.88,2.24,10.01,4.12,15.73,6.63,2.09,9.38-1.39,29.08-2.44,38.93-.91,9.37-1.71,18.75-2.39,28.13-.73,11.44-.19,27.9-1.56,38.61-16.02-3.16-20.65-6.4-35.17-11.76-10.16-3.75-20.57-6.81-31.14-9.15-9.9-2.18-14.85-3.89-24.54.46,11.16.9,13.92,2.34,24.47,5.47,9.49,2.73,18.92,5.68,28.27,8.85,16.71,5.55,20.01,8.06,37.8,9.98-.38,22.35-4.92,64.25,1.51,85,1.71,5.68,4.75,10.87,8.85,15.15,6.9,7.18,21.39,14.37,31.38,14.43,12.06.07,22.96-5.24,31.44-13.49,1.1-1.08,2.19-2.16,3.28-3.26,12.14,21.4,33.19,32.17,56.48,19.02,11.53-6.51,16.59-15.53,20.83-27.7,4.87,18.75,29.16,22.56,45.45,18.64,18.58-4.48,28.49-19.87,37.72-35.16,9.41-16.17,17.51-33.59,25.27-50.57,9.99,7.02,20.37,10.77,32.58,8.39,2.17-.42,3.76-.7,5.71-1.81l.41-.9c-2.36-2.79-12.33-1.47-16.01-2.18-7.21-1.4-13.96-4.67-20.29-8.17,3.1-7.34,6.01-14.33,9.92-21.3l.53-.24c14.59-6.33,31.52-8.74,42.54-22.96,2.88-3.72,5.61-9.45,8.16-13.57-1.56,28.41-3.62,54.49-8.68,82.52-2.68,14.83-6.82,33.06-5.52,47.98-11.9.12-49.83-5.47-57.35-2.82l-.38.83c2.49,3.06,56.73,8.91,63.86,8.71,38.47-1.07,74.6-20,106.79-39.52,2.31,14.1,7.46,20.16,14.14,32.58,1.85,3.45,2.52,6.77,4.88,10.09l1.02.5c6.1-5.89-11.33-31.2-13.73-37.89-1.02-2.83-1.68-5.16-2.38-8.12,7.58-4.53,15.82-10.19,24-13.69,34.32-14.72,71.86-22.87,108.86-14.06,18.59,4.43,28.14,11.41,38.36,27.55,3.97,6.27,5.17,13.11,3.83,20.42-1.82,2.16-3.89,5.29-6.7,5.56-1.06-.89-.7-.35-1.11-1.7l1.65-1.38c.24-2.78-5.07-3.51-6.92-3.24-19.57,2.93-37.34,8.34-54.2,18.73-2.35,1.49-12.86,10.34-12.79,10.32-19.03,7.38-36.78,32.18-54.63,37.85,1.93-2.58,10.21-12.07,6.48-14.31-6.62,1.14-12.83,11-12.08,17.65-28.3,13.61-53.02,29.1-76.15,50.63-14.65,13.63-28.67,31.35-46.39,41.21-16.06,8.94-35.01,15.8-51.94,23.99-31.36,15.18-61.92,32.36-93.42,47-7.41,3.45-14.94,6.64-22.57,9.57-10.95,4.31-23.84,8.14-32.36,16.4-14.82,14.42-22.26,36.05-29.7,54.88-9.86,24.98-18.74,50.42-27.93,75.66-2.35,6.47-13.13,32.55-10.46,38.14,2.5.84,4.66-1.19,5.52-3.4,3.51-9.07,6.19-18.47,9.58-27.59,15.77-40.17,27.24-82.84,48.54-120.56,3.92-6.95,14.31-17.07,21.77-19.73,46.44-16.65,88.52-41.09,132.65-62.68,17.11-8.37,35.32-15.27,52.2-24.15,23.75-12.71,39.75-36.47,60.73-53.07,17.79-14.07,35.79-26.47,56.11-36.74,7.13-3.95,15.55-6.78,22.46-11.03,7.29-4.49,14.68-11.25,20.97-17.06,20.2-18.68,46.42-23.53,72.38-29.22,14.61-3.2,30.31-6.12,35.42-22.65,2.35-7.31-.96-17.86-5.05-24.31ZM265.15,500.78c-21.53,13.94-36.74,20.08-58.67,2.14-10.41-11.33-9.83-20.03-11.07-34.81-1.21-14.39-.07-27.7.48-42.01.56-16.54,1.34-33.06,2.35-49.58,1.89-27.3,4.71-54.84,6.57-82.18.66-9.65,1.65-19.2,4.87-28.36,11.48-32.63,44.36-40.7,74.48-28.86,10.5,3.83,17.98,11.74,20.69,22.56-1.19,4.67-4.85,11.31-5.92,16.09-5.06,22.61-9.06,46.3-13.89,68.91l-11.95,58.7c-5.31,25.49-16.86,72.64-7.94,97.4ZM278.48,499.31c-7.2-14.29,3.36-33.43,16.91-39.72,7.84-3.64,12.76-.55,19.98,2.31,11.94,5.11,12,13.87,11.22,25.4-.63,9.55-1.85,15.57-5.55,24.42-12.05.74-13.88,5.03-26.75,1.18-6.83-3.46-12.17-6.38-15.81-13.6ZM339.13,485.32c-2.82,17.94-10.38,30.97-28.82,36.24-9.17,2.62-17.18-1.03-24.93-5.63,7.41,1.61,11.67,4.7,20.28,3.59,6.36-.82,17.09-3.95,20.86-9.21,5.71-7.98,7.32-23.96,6.42-33.38-2-14.16-10.54-20.38-23.72-23.59-21.66-5.28-35.01,14.36-39.28,32.54-2.68-21.02,4.16-50.3,8.2-71.15l14.35-71.79c4.19-20.7,7.04-41.95,13.02-62.32,1.79-6.07,2.86-11.55,5.57-17.41,16.02-34.66,41.77-33.52,72.54-19.75,1.9.88,3.75,1.84,5.56,2.89,10,5.72,18.29,16.25,16.88,28.81-.99,8.84-7.18,20.09-10.29,28.52-2.18,5.92-4.5,11.92-6.68,17.91-5.01,14.04-10.29,27.98-15.83,41.82-3.78,9.2-8.99,20.43-12.05,29.71-4.58,14.48-7.4,29.19-10.73,43.96-3.32,15.8-8.86,32.3-11.36,48.23ZM515.14,363.47c-5.67,1.46-4.65,2.04-6.8,6.67-1.42,3.07-5.6,6.51-8.23,8.8-9.66,8.42-21.65,12.01-33.4,16.61,4.53-9.92,8.57-15.34,13.84-23.89,4.79-7.77,21.22-40.24,19.36-47.92l-.84-.32c-3.65,2.31-9.64,17.35-11.9,22.34-7.06,15.61-19.31,30.9-26.33,46.02-13.98,30.12-25.4,59.35-42.55,88-13.83,23.1-32.28,37.31-59.48,25.31-5.45-2.43-7.46-12.57-8.37-17.73-.1-.02,4.23,7.45,5.55,8.66,7.73,7.09,16.18,9.25,26.13,9.46.76-.04,1.52-.09,2.28-.17,1.5-.16,3.43-.43,4.39-1.65-2.64-4.06-16.3-3.21-21.19-6.13-13.64-8.12-15.36-24.02-7.44-36.84,4.17-6.75,8.84-11.99,16.96-14.18,4.79-1.29,8.73,2.09,12.68,4.25,8.19,4.87,10.54,14.19,8.98,23.19-1.25,7.17-4.75,14.75-6.1,22.02-.37,2.02-2.06,6.29.15,7.55.94-.66.96-.7,1.54-1.71,6.45-11.35,13.76-27.9,10.51-41.03-2.93-11.87-19.94-23.51-32.2-19.19-13.82,4.86-17.35,17.1-23.36,28.81,3.06-13.21,6.22-26.4,9.48-39.57,3.46-14.43,5.42-24.86,10.52-39.33,4.02-11.42,8.67-20.35,13.17-31.26,3.63-8.82,6.78-19.38,10.42-28.59,5.44-13.76,9.75-27.82,15.77-41.48,2.42-5.56,3.89-11.86,6.7-17.24,12.92-24.73,37.32-25.99,59.8-15.54,7.07,3.89,24.42,14.52,27.72,21.83,9.17,20.33,12.44,48.86,13.02,71.11.1,4.04.34,9.57-.76,13.14ZM779.38,491.33c-3.44,1.77-9.25,2.69-13.23,3.76-11.24,3.05-23.9,5.13-34.86,8.81l-.81-.02.1-.68c11.39-7.39,34.12-13.99,47.93-13.7l1.07,1.1-.2.72Z" fill="#282726"/><path d="M388.53,385.78c-.29,1.98-.38,1.94-1.45,3.71,8.17,4.05,17.41,3.63,25.4,7.58,2.03,1,4.66,2.83,6.97,2.97,2.43.15,6.16.98,8.08-.42l-.38-1.06c-6.89-6.93-28.67-11.7-38.62-12.77Z" fill="#282726"/><path d="M384.06,386.32l-.36.9c1.15,1.64,1.24,1.28,3.38,2.26,1.07-1.77,1.15-1.73,1.45-3.71-1.93-.11-2.75-.34-4.47.54Z" fill="#141413"/><path d="M237.82,448.32c-17.01-7.01-32.17,11.35-37.05,25.45-5.84,16.89,6.29,30.92,20.77,36.81,9.61,3.65,14.51,1.33,23.62-2.21,8.8-21.84,19.87-46.31-7.34-60.05ZM249.05,475.71c-.21,5.48-2.53,11.05-3.81,16.38-.75,3.26-.64,12.08-3.85,13.95-3.61,2.11-10.8,1.52-14.84.36-17.16-5.61-26.89-21.8-16.64-38.22,6.21-9.95,12.82-16.26,25.28-15.96,1.88,1.27,7.59,5.84,9.06,7.31,3.85,3.86,5.01,10.83,4.8,16.17Z" fill="#282726"/><path d="M219.49,392.35c5.85.85,30.27,1.97,34.98-.86l.4-.89c-.78-1.33-1.75-1.57-3.18-2.24-2.01-.47-33.73-.37-34.53,0-.23,1.65-.23,1.53.41,3.08,1.06.67.77.64,1.92.91Z" fill="#282726"/><path d="M338.42,399.07c-8.05-2.67-18.42-4.3-26.8-6.32-3.3-.79-12.56-2.96-15.48-3.08l-.68.7c.58,1.76.82,1.51,2.47,2.95,6.12,3.31,35.97,12.53,41.48,8.3.37-1.37.38-1.66-.99-2.54Z" fill="#282726"/><path d="M730.59,503.21l-.1.68.81.02c10.96-3.69,23.62-5.77,34.86-8.81,3.97-1.08,9.78-1.99,13.23-3.76l.2-.72-1.07-1.1c-13.81-.29-36.54,6.31-47.93,13.7Z" fill="#fbfbf8"/><path d="M96.63,669.97c-26.71-9.37-39.57-17.13-40.83-47.55-.62-14.79,1-30.86.78-45.37,1.52-47.68,4.82-91.14,16.49-137.59,9.73-38.73,24.78-75.53,35.42-113.79,5.97-21.48,4.89-48.66,3.87-70.6-.84-18.75-.3-38.5-1.45-57.37-2.68-25.5-2.75-49.14-1.81-74.76.29-7.83-1-17.72-1.32-25.8-.61-13.42-.03-26.88,1.74-40.2,1.97-14.61,6.04-32.42,16.67-43.23,11.3-11,26.24-7.16,35.94,3.63,10.21,11.34,11.75,23.17,14.67,37.19,3.92,18.85,1.53,33.4.97,51.75-.55,17.87,2.19,38.74,3.57,56.63,1.04,8.46,2.77,16.86,3.03,25.36.73,23.99,1.6,47.19,5.24,70.97,1.36,8.92.91,19.63,3.66,28.26,7.21-16.47,1.65-39.81-.31-57.3-1.7-15.15-.58-30.01-1.76-44.86-2.05-25.82-6.37-51.54-5.76-77.59.16-13.38,1.92-27.4.28-40.71-3.01-24.39-6.79-52.27-31.45-64.04-7.95-3.28-15.62-4.19-23.95-1.15-10.18,3.72-16.44,15.2-20.41,24.82-8.16,19.81-10.1,44.66-9.53,66,.28,10.67,1.65,21.84,1.9,32.62.39,17.25-1.37,34.89-.38,52.03.97,16.66,2.53,32.59,2.93,49.37.27,11.31-.61,21.93-.38,33,.29,13.92,1.93,26.75.79,40.89-2.24,27.43-13.16,53.96-21.76,79.92-5.4,16.29-10.89,32.86-15.37,49.42-5.85,21.64-10.8,45.09-13.61,67.34-3.35,26.52-3.87,53.87-4.99,80.55-.75,21.02-4.49,44.7,2.05,65.16.12.37.8,1.53.97,1.83-2.33,13.86-6.62,25.3-11.36,38.42-11.28,31.22-26.23,61.04-39.23,91.55-.99,2.31-2.16,6.18-1.93,8.64,1.87,1.46,3.94,0,5.92-.94,3.93-7.33,12.01-26.9,15.48-35.07,11-25.91,31.6-68.54,35.12-96.03,4.72,7.06,10.43,12.45,18.11,16.22,13.24,6.5,66.74,24.34,78.76,19.62l.2-.69c-2.83-2.71-13.03-3.93-17.44-5.01-13.81-3.38-26.26-6.88-39.55-11.55Z" fill="#282726"/><path d="M204.96,601.65c12.62-27.03,33.45-51.9,56.87-70.27,2.8-2.2,11.83-8.4,13.01-11.23-.27-1.13-.05-.81-.7-1.66-26.68,10.09-56.29,48.45-70.94,73.16-2.55,4.3-7.09,19.06-7.37,24.1l.61,1.05c3.5-.06,7.05-12.01,8.52-15.16Z" fill="#282726"/><path d="M296.75,731.92c-1.29-1.39-4.48-1.84-6.45-2.68-26.8-11.4-53.01-31.33-72.36-53-4.07-4.55-7.21-15.3-11.8-17.94-2.83,3.79.37,7.03,2.14,10.93,8.15,18,24.69,29.8,39.98,41.38,9.91,7.18,34.39,23.46,46.47,23.21,1.95-1.08,1.56-.36,2.01-1.89Z" fill="#282726"/><path d="M150.91,731.42c-6.64,8.24-36,91.4-36.17,102.65.51,1.16.23.79,1.11,1.68,3.01-2.83,6.04-12.21,7.43-16.46,9.32-28.64,21.05-56.65,29.83-85.37.29-.94-1.6-2.13-2.19-2.5Z" fill="#282726"/><path d="M241.26,738.63c-12.8-6.39-24.57-15.13-37.53-21.18-7.02-3.54-33.92-18.8-40.02-13.8l-.07.91c1.42,1.14,11.7,5.08,14.25,6.31,10.15,4.92,20.12,9.35,29.95,14.96,6.59,3.72,34.48,22.11,39.89,16.73-.63-1.33-4.94-3.17-6.46-3.93Z" fill="#282726"/><path d="M521.39,503.16c-8.26,6.59-6.83,59.99-1.29,68.45,2.28-2.46,1.69-6.75,1.47-9.98-1.22-18.66,1.04-37.28,1.18-55.93,0-1.37-.52-1.69-1.37-2.53Z" fill="#282726"/><path d="M119.12,205.53c6.42-.11,60.47,6.72,54.39-8.31-2.68.02-11.9,3.56-17.24,4.25-7.07.91-32.96-1.07-36.96.48-.76,1.59-.43,1.48-.19,3.57Z" fill="#282726"/><path d="M139.28,310.88c7.99-.52,41.14-6.15,46.66-8.68,1.08-1.39.88-.65.86-2.22l-.93-.72c-13.86-.13-32.73,6.25-47.01,6.92-3.27.15-12.9.34-15.02,2.11.03,1.2,0,1.12.59,2.16,3.11.16,12.28.6,14.85.44Z" fill="#282726"/><path d="M162.28,126.08c3.2-.99,6.4-.91,9.32-2.99l.32-.98c-.8-1.39-1.36-1.48-2.81-2.16-12.92-.79-26.31,5.74-39.76,3.69-2.83-.43-9.39-.82-9.54,3.02l.78,1.17c.29.05,1.28.25,1.53.24,13.94-.03,26.18,2.32,40.16-1.99Z" fill="#282726"/><path d="M176.2,493.89l-.41-.92c-6.96.91-40.63,17.17-41.71,24.26l.47.64c6.06-2.41,39.44-19.77,41.65-23.98Z" fill="#282726"/><path d="M152.38,216.29c-4.37.46-21.51,1.78-23.48,6.22l.36,1.61c5.26-.74,29.8-2.28,32.74-5.45.07-1.08.2-.69-.04-1.24-3.08-.93-6.35-1.48-9.58-1.14Z" fill="#282726"/><path d="M474.22,478.64c-.51-1.47-1.33-1.84-2.61-2.76-6.22-1.9-11.79-4.02-17.53-7.09-2.36-1.26-4.9-2.37-7.61-2.32l-.6.32c-.48,1.97,1.46,3.85,2.82,5.17,3.76,2.19,22.65,11.59,25.55,6.67Z" fill="#282726"/></g></svg>
