<svg version="1.1" xmlns="http://www.w3.org/2000/svg" style="display: block;" viewBox="0 0 2048 2048" width="1024" height="1024" preserveAspectRatio="none">
<path transform="translate(0,0)" fill="rgb(0,0,0)" d="M 1045.09 56.2371 C 1048.35 55.978 1051.61 55.8494 1054.88 55.8517 C 1095.27 55.848 1122.55 100.641 1105.11 136.578 C 1102.07 142.841 1098.11 147.269 1094.48 153.001 C 1063.37 202.081 1109.67 262.536 1109.8 314.074 C 1109.74 338.61 1089.47 348.026 1080.04 367.388 C 1072.73 382.389 1070.73 401.362 1070.31 418.058 C 1069.32 458.364 1070.31 499.022 1071.41 539.332 L 1073.73 656.115 L 1080.05 1041.4 C 1081.42 1117.52 1084.17 1193.02 1084.07 1269.38 C 1093.94 1286.48 1109.91 1299.69 1130.91 1297.79 C 1186.1 1292.79 1185.35 1228.66 1211.84 1194.19 C 1216.94 1187.96 1228.62 1181.64 1236.82 1182.43 C 1264.73 1185.09 1277.54 1219.49 1281.32 1242.34 C 1287.46 1279.54 1284.01 1314.74 1272.24 1349.87 C 1259.25 1388.69 1234.14 1426.62 1241.47 1468.88 C 1246.92 1500.48 1261.3 1522.15 1276.83 1549.22 C 1309.05 1605.38 1330.62 1663.47 1329.78 1729.17 C 1329.05 1786.28 1310.65 1838.34 1269.57 1879.2 C 1213.25 1935.24 1113.74 1957.19 1035.83 1955.97 C 1036.1 1965.15 1037.17 1982.61 1025.44 1984.03 C 1011.51 1985.72 1012.9 1962.58 1013.17 1956.1 C 948.01 1956.34 870.056 1942.91 812.95 1910.22 C 801.833 1903.85 791.452 1895.8 781.457 1887.8 C 742.181 1855.94 719.019 1814.36 711.551 1765.1 C 698.866 1681.44 719.404 1606.9 764.19 1536.53 C 785.268 1503.41 806.546 1463.72 809.661 1424 C 812.77 1371.07 789.142 1321.87 772.778 1272.22 C 751.126 1206.53 738.954 1122.79 781.424 1062.59 C 787.482 1054 804.791 1040.86 815.043 1041.82 C 891.714 1048.95 847.37 1151.74 895.598 1189.43 C 906.605 1197.99 919.504 1202.47 930.849 1200.76 C 965.515 1195.51 962.271 1170.42 962.261 1144.02 L 962.145 1094.35 C 962.119 1070.01 964.139 1046.33 964.033 1022.02 C 963.763 960.756 966.755 899.241 967.964 838.033 L 971.911 654.348 C 972.308 634.583 972.035 614.968 972.619 595.127 L 976.348 481.025 C 977.321 457.513 979.556 432.289 977.676 408.674 C 976.563 394.696 962.411 390.821 953.202 383.799 C 943.013 375.811 935.834 364.973 933.134 352.236 C 932.134 347.516 933.369 333.476 930.087 331.132 C 910.273 357.16 861.359 338.472 872.437 300.864 C 874.821 292.506 880.656 285.56 888.478 281.769 C 909.033 271.656 927.36 281.17 936.767 300.684 C 939.871 283.363 946.376 261.285 950.486 243.167 C 924.204 261.918 889.124 243.399 895.444 211.649 C 897.3 202.297 902.954 194.136 911.057 189.112 C 930.741 177.046 948.748 187.593 959.334 205.518 C 966.26 187.069 968.25 165.914 974.904 148.431 C 964.556 158.083 952.206 164.205 937.72 160.306 C 928.675 157.782 921.112 151.564 916.885 143.179 C 896.633 103.896 958.441 65.7058 981.221 120.589 C 991.892 89.5727 1010.7 62.0469 1045.09 56.2371 z M 1082.03 1282.37 C 1082.26 1290.3 1082.73 1299.08 1082.76 1306.96 C 1140.41 1344.47 1191.97 1315.57 1215.52 1256.32 C 1228.9 1222.65 1247.3 1194.67 1260.74 1249.19 C 1272.46 1304.8 1248.36 1351.24 1227.52 1399.7 C 1200.86 1459.9 1225.58 1505.13 1256.03 1557.3 C 1269.65 1580.66 1281.19 1607.52 1290.9 1634.65 C 1324.58 1728.68 1303.12 1855.72 1198.14 1891.9 C 1191.86 1894.06 1175.22 1892.74 1170.03 1888.51 C 1154.49 1876.97 1174.81 1852.31 1180.26 1839.53 C 1183.06 1832.96 1186.68 1826.06 1189.59 1819.18 C 1221.35 1744.33 1204.33 1625.89 1097.56 1638.94 L 1057.9 1644.11 C 1056.74 1654.6 1057.53 1662.03 1057.01 1671.87 C 1061.73 1671.82 1070.7 1672.24 1075.29 1671.76 C 1101.31 1669.02 1117.07 1697.98 1097.64 1716.65 C 1088.29 1725.62 1069.83 1724.25 1056.64 1724.01 C 1055.56 1743.67 1056.01 1766.25 1056.03 1786.14 C 1064.55 1785.89 1081.79 1784.63 1089.08 1787.42 C 1093.42 1793.09 1092.49 1870.65 1091.89 1882.87 C 1089.87 1886.27 1088 1887.64 1084.12 1888.55 C 1068.1 1892.29 956.048 1894.54 944.077 1885.53 C 941.639 1883.69 941.868 1875.74 941.814 1872.73 C 941.502 1855.12 941.959 1837.44 942.031 1819.83 C 942.062 1812.29 941.064 1803.93 941.875 1796.5 C 942.153 1793.95 943.097 1791.16 944.811 1789.21 C 948.407 1785.13 954.886 1785.25 959.84 1785.46 C 965.945 1785.73 971.961 1785.97 978.078 1785.94 L 978.243 1724.12 C 958.344 1724.06 931.125 1724.24 931.183 1697.44 C 931.241 1671.07 960.288 1672.07 978.093 1671.33 C 978.569 1661.1 978.542 1654.17 978.057 1643.96 C 919.167 1643.78 866.353 1618.95 867.936 1552.94 C 867.708 1521.32 880.238 1493.24 891.214 1464.42 C 910.948 1412.6 932.849 1348.55 922.512 1292.7 C 912.169 1236.82 896.378 1236.87 962.029 1227.64 L 962.151 1195.51 C 949.794 1206.32 939.146 1211.4 922.364 1210.28 C 886.867 1207.91 868.344 1176.65 862.155 1144.96 C 856.819 1117.63 859.88 1052.62 818.408 1051.31 C 805.712 1052.56 797.419 1058.07 789.333 1067.78 C 763.44 1098.88 759.174 1150.34 762.949 1188.94 C 765.986 1220 774.208 1249.29 784.171 1278.75 C 799.714 1324.7 821.713 1372.37 818.384 1422.02 C 814.937 1473.42 790.066 1509.48 765.303 1552.01 C 735.455 1603.28 718.03 1655.88 717.756 1715.63 C 717.683 1731.43 717.99 1746.7 720.569 1762.33 C 728.6 1811.02 751.954 1851.23 790.356 1882.39 C 862.739 1941.1 986.224 1954.14 1075.72 1944.48 C 1150.51 1936.41 1229.22 1916.35 1278.48 1854.87 C 1315.76 1808.33 1325.25 1746.54 1318.49 1688.61 C 1313.42 1645.14 1294.88 1600.92 1273.98 1562.9 C 1258.71 1535.1 1239.73 1507.7 1233.88 1475.94 C 1218.87 1394.32 1295.46 1342.53 1271.56 1238.62 C 1268.09 1223.52 1262.87 1207.63 1250.15 1197.68 C 1245.25 1193.85 1238.88 1190.02 1232.38 1191.23 C 1224.41 1192.71 1217.83 1200.92 1213.82 1207.42 C 1206.02 1220.07 1201.75 1235.29 1196.33 1249.06 C 1185.99 1275.28 1168.74 1299.11 1140.1 1306.21 C 1126.75 1309.52 1113.27 1307.28 1101.51 1300.18 C 1093.66 1295.43 1087.99 1289.24 1082.03 1282.37 z M 1081.69 1316.37 C 1081.93 1339.25 1084.17 1349.03 1058.02 1350.44 L 1057.88 1552.74 C 1071.61 1552.86 1099.33 1549.96 1109.99 1559.3 C 1115.5 1564.12 1112.18 1571.16 1110.12 1576.34 C 1117.59 1589.6 1119.88 1594.29 1107.24 1605.47 C 1092.64 1608.92 1073.17 1607.66 1057.91 1607.04 L 1057.91 1634.53 C 1098.75 1629.32 1135.48 1619.36 1171.22 1646.72 C 1216.08 1681.06 1219 1738.25 1208.33 1789.5 C 1201.62 1814.97 1193.28 1837.1 1180.37 1860.06 C 1178.05 1864.19 1172.52 1875.93 1174.31 1880.22 C 1179.73 1884.78 1187.58 1884.46 1194.34 1883.89 C 1220.6 1881.69 1242.76 1864.01 1259.11 1844.57 C 1294.5 1802.49 1305.16 1750.53 1299.7 1696.83 C 1295.33 1653.91 1279.29 1613.31 1259.85 1575.13 C 1239.17 1533.18 1207.58 1493.45 1212.19 1443.96 C 1218.44 1377.03 1275.59 1320.12 1255.44 1249.65 C 1253.21 1241.86 1249.63 1229.23 1240.5 1227.56 C 1232.89 1236.71 1225.88 1255.35 1220.59 1266.76 C 1206.41 1297.37 1182.36 1327.49 1146.67 1331.84 C 1125.54 1334.05 1099.11 1329.62 1081.69 1316.37 z M 1002.11 412.902 C 1006.84 413.205 1012.38 413.707 1017.05 413.717 C 1018.62 365.589 1016.48 313.869 1017.27 265.294 L 1015.91 265.483 C 995.108 268.227 991.039 245.778 1001.53 234.97 C 1004.54 231.838 1008.76 230.16 1013.1 230.368 C 1017.2 230.561 1019.82 231.629 1023.06 233.917 C 1026.24 239.61 1026.28 252.846 1026.05 259.46 C 1024.38 305.903 1027.95 355.036 1025.53 401.25 L 1024.9 413.355 L 1044.03 413.265 L 1044.08 281.86 C 1044.06 243.812 1044.33 209.086 1041.88 171.131 C 1028.87 177.882 1015.96 179.336 1009.12 163.307 C 1006.87 157.921 1007 151.837 1009.48 146.553 C 1012.06 140.89 1016.91 136.584 1022.84 134.702 C 1045.13 127.757 1050.51 151.85 1051.11 168.166 C 1052.08 194.617 1051.99 220.612 1051.99 247.055 L 1051.92 418.996 C 1051.92 430.533 1051.03 473.128 1052.88 482.326 C 1055.84 483.766 1054.23 483.307 1058.05 482.986 C 1059.66 481.88 1062.14 480.186 1062.17 477.928 C 1062.56 439.035 1055.53 392.196 1074.59 356.607 C 1081.45 343.788 1101.56 331.635 1100.73 315.553 C 1098.22 267.468 1067.91 221.387 1075.85 171.843 C 1079.98 146.071 1104.61 138.151 1100.61 107.867 C 1099.55 100.061 1096.73 92.597 1092.36 86.0404 C 1081.04 69.3251 1063.01 63.6278 1043.67 66.1907 C 994.472 81.6056 988.262 130.247 977.858 174.365 C 973.35 193.535 968.681 212.666 963.852 231.757 L 949.796 287.423 C 944.023 310.34 937.012 331.537 943.511 355.132 C 950.29 379.746 982.332 380.549 987.13 405.24 C 989.162 425.201 985.222 460.202 985.558 481.723 C 986.046 482.104 986.534 482.486 987.022 482.867 C 991.206 483.205 990.419 483.803 993.279 481.995 C 994.989 475.302 995.101 359.394 993.294 349.327 C 991.988 348.252 990.44 347.446 988.749 347.259 C 971.915 345.399 969.315 318.263 984.025 312.396 C 987.874 310.851 992.181 310.914 995.983 312.571 C 998.69 313.745 1000.26 315.502 1001.2 318.299 C 1005.44 330.854 1001.94 394.195 1002.11 412.902 z M 950.556 1632.28 C 960.189 1634.02 968.415 1634.47 978.127 1635.13 C 979.081 1625.26 978.404 1612.4 978.342 1602.16 C 978.372 1588.76 978.574 1575.35 978.948 1561.94 C 959.892 1561.7 935.021 1565.71 933.409 1544.8 C 932.504 1533.05 941.3 1532.55 941.229 1524.14 C 926.145 1494.18 964.295 1497.31 979.996 1498.03 L 980.097 1399.64 C 980.14 1384.82 979.67 1365.24 980.386 1350.75 C 973.653 1349.68 970.024 1349.56 965.106 1344.82 C 960.606 1333.27 962.122 1255.54 962.083 1237.5 L 951.584 1238.26 C 917.507 1244.32 918.718 1241.07 927.63 1274.55 C 932.281 1292.03 934.344 1316.74 933.178 1334.98 C 931.504 1361.14 926.753 1387.01 919.022 1412.05 C 914.479 1426.86 908.294 1448.12 902.229 1462 C 872.986 1528.92 850.707 1615.95 950.556 1632.28 z M 1023.28 1350.98 C 1023.25 1364.95 1022.21 1495.55 1023.96 1497.85 L 1027.75 1498.06 L 1052.02 1498.07 L 1052.07 1379.61 C 1052.06 1375.01 1052.77 1353.64 1051.19 1350.75 L 1047.88 1350.48 C 1038.95 1351.15 1032.27 1351.12 1023.28 1350.98 z M 987.432 1497.99 C 996.792 1497.97 1006.85 1498.15 1016.15 1497.9 L 1016.09 1404.41 C 1016.09 1387.99 1015.52 1367.18 1016.55 1351.06 C 1009.91 1351.08 993.774 1351.55 988.014 1350.1 L 987.918 1442.31 C 987.924 1459.69 988.438 1480.99 987.432 1497.99 z M 986.795 1881.99 C 991.407 1882.13 1002.39 1883.18 1005.77 1881.41 C 1005.38 1880.22 1004.93 1880.03 1003.98 1878.97 L 1003.7 1875.42 C 1003.36 1867.97 1004.1 1787.79 1004.91 1786.01 C 1007.78 1784.43 1009.35 1785.11 1012.62 1785.54 L 1014.2 1785.74 C 1014.51 1785.78 1014.82 1785.83 1015.14 1785.87 C 1015.02 1765.58 1014.62 1744.12 1015.97 1723.96 C 1006.07 1724.02 995.893 1724.21 986.025 1723.97 C 985.781 1753.77 986.046 1783.56 986.819 1813.35 C 987.377 1830.84 989.565 1865.52 986.795 1881.99 z M 1039.93 1868.4 L 1042.43 1866.33 L 1042.55 1864.28 C 1041.11 1862.93 1041.69 1863.41 1040.18 1862.23 L 1039.14 1861.42 C 1041.29 1860.17 1041.01 1860.36 1042.84 1858.86 C 1043.32 1853.34 1041.79 1848.42 1040.56 1842.96 C 1042.81 1839 1042.64 1837.45 1043.17 1832.78 L 1041.32 1832.54 C 1042.56 1829.39 1043.57 1804.76 1043.01 1802.48 L 1038.65 1802.04 L 1038.27 1800.39 L 1038.78 1799.66 C 1040.85 1796.7 1041.14 1796.36 1043.79 1794 C 1043.46 1791.3 1043.24 1790.08 1043.33 1787.35 C 1045.26 1786.42 1046.03 1786.08 1047.73 1784.76 C 1048.62 1778.5 1048.92 1730.97 1048.42 1724.05 L 1022.13 1724.06 C 1021.62 1777.35 1024.96 1827.83 1023.79 1881.7 C 1028.1 1884.88 1037.26 1882.46 1041.71 1880.2 C 1043.98 1876.11 1043.14 1871.78 1039.93 1868.4 z M 921.717 128.369 C 926.34 146.338 934.665 152.091 953.214 150.402 C 985.096 137.236 973.847 101.761 940.578 104.073 C 926.631 109.552 924.95 114.56 921.717 128.369 z M 932.82 240.774 C 940.46 237.494 948.208 234.149 950.823 225.587 C 956.706 206.332 941.296 193.543 923.431 195.146 C 891.951 204.518 900.04 242.002 932.82 240.774 z M 879.458 311.708 C 883.544 328.572 893.172 335.447 910.78 332.239 C 923.126 329.735 930.795 318.179 927.141 305.814 C 925.127 299.177 920.547 293.62 914.417 290.376 C 909.445 287.78 905.657 287.757 900.226 288.106 C 885.168 292.52 883.418 297.285 879.458 311.708 z M 1058.02 1598.18 C 1070.19 1598.15 1097.4 1601.47 1105.83 1593.65 C 1106.84 1585.44 1104.94 1585.13 1099.64 1579.09 C 1102.32 1572.16 1105.73 1563.02 1093.89 1561.85 C 1082.09 1560.68 1070.17 1562.68 1057.96 1561.65 C 1057.96 1573.63 1057.77 1586.25 1058.02 1598.18 z M 953.24 1527.19 C 935.481 1545.48 939.047 1552.55 963.812 1552.33 L 979.503 1552.03 C 979.82 1536.79 980.014 1521.55 980.086 1506.31 C 971.076 1506.11 962.296 1505.83 953.278 1506.19 C 950.393 1508.2 948.683 1508.91 947.428 1512.16 C 947.099 1517.96 950.256 1521.87 953.24 1527.19 z M 1023.39 870.863 L 1048.56 870.615 L 1048.05 816.013 L 1023.28 815.903 C 1024.41 824.893 1024.29 861.896 1023.39 870.863 z M 987.128 1552.53 C 995.862 1552.4 1005.87 1552.74 1014.3 1552.45 L 1015.73 1551.41 C 1016.83 1540.15 1016.18 1519.06 1016.09 1507 C 1005.71 1506.27 997.389 1506.04 987.063 1505.97 C 987.652 1520.95 987.35 1537.46 987.128 1552.53 z M 1022.86 1552.95 L 1050.95 1552.47 C 1051.06 1537.64 1052.08 1521.71 1051.6 1507.18 C 1041.59 1505.87 1032.96 1506.04 1022.91 1506.02 C 1023.11 1521.66 1023.09 1537.31 1022.86 1552.95 z M 1023.92 807.104 L 1048.05 806.953 C 1048.11 787.23 1047.44 771.511 1046.82 752.012 L 1023.96 751.928 L 1023.92 807.104 z M 1023.98 743.904 L 1047.16 743.717 L 1046.11 687.928 C 1039.62 687.865 1030.23 688.072 1023.97 687.617 L 1023.98 743.904 z M 1056.88 1716.17 C 1068.84 1714.98 1081.55 1716.19 1090.97 1709.71 C 1096.83 1702.99 1100.8 1692.81 1092.45 1686.38 C 1082.31 1678.57 1068.82 1679.85 1056.85 1680.08 L 1056.88 1716.17 z M 1023.93 623.895 C 1023.93 635.846 1023.14 667.795 1024.4 678.171 C 1028.45 679.277 1029.96 679.006 1034.25 678.895 L 1046.25 678.541 C 1046.25 671.213 1046.62 628.591 1045.38 624.615 C 1042.27 623.563 1042.18 623.662 1038.86 623.491 L 1023.93 623.895 z M 1023.99 550.848 C 1030.85 550.7 1037.72 550.592 1044.58 550.526 C 1045.06 531.412 1044.36 511.147 1044 491.947 L 1024 492.059 L 1023.99 550.848 z M 1024 482.991 C 1030.61 482.869 1037.59 482.576 1044.16 483.006 L 1044.08 422.239 L 1024.15 422.176 L 1024 482.991 z M 1023.97 615.03 L 1046.05 614.699 C 1045.69 596.956 1044.71 577.566 1045.03 560.038 C 1038.94 559.771 1029.5 559.981 1024.16 559.538 C 1023.93 578.034 1023.87 596.532 1023.97 615.03 z M 964.783 1714.87 C 968.88 1715.03 974.09 1715.08 978.074 1715.42 C 978.803 1703.74 978.381 1691.65 978.241 1679.92 L 956.709 1680.17 C 929.665 1689.33 936.983 1713.37 964.783 1714.87 z M 1023.62 923.813 C 1032.08 923.859 1041.64 924.134 1050.01 923.828 C 1049.73 909.359 1048.95 894.073 1048.86 879.781 C 1042.26 879.819 1029.69 880.256 1023.64 879.291 C 1023.67 892.869 1024.31 910.664 1023.62 923.813 z M 995.377 870.831 C 1001.91 870.769 1010.12 870.457 1016.51 870.683 C 1016.15 852.42 1016.05 834.153 1016.2 815.887 L 996.113 815.843 C 995.999 834.174 995.753 852.504 995.377 870.831 z M 1023.03 973.743 C 1033.14 973.908 1039.73 974.032 1049.86 972.979 C 1050.76 962.659 1050.1 943.97 1050.08 932.961 C 1041.45 932.616 1031.63 931.989 1023.09 932.33 C 1023.12 945.935 1023.35 960.195 1023.03 973.743 z M 996.061 807.063 L 1016.33 807.029 L 1016.1 752.172 L 996.981 751.835 C 996.927 770.396 996.133 788.758 996.061 807.063 z M 986.998 1597.97 L 1016.09 1598.15 C 1016.1 1586.22 1015.92 1573.71 1016.17 1561.83 L 986.727 1561.9 C 987.153 1573.92 987.243 1585.95 986.998 1597.97 z M 986.025 1715.97 C 992.628 1715.94 1009.91 1716.22 1015.66 1715.52 C 1014.52 1706.2 1015.08 1689.68 1015.41 1680.07 L 986.022 1679.97 L 986.025 1715.97 z M 1050.89 1881.64 L 1051.44 1882.25 C 1055.21 1882.2 1055.91 1882.22 1059.54 1881.51 C 1056.74 1876.05 1057.05 1823.99 1061.32 1818.75 C 1063.91 1818.33 1065.18 1817.91 1067.75 1818.39 L 1067.09 1820.58 C 1069.45 1825.2 1065.52 1830.02 1070 1834.11 C 1072.38 1832.23 1069.83 1820.96 1072.54 1814.81 C 1077.74 1813.65 1072.08 1817.44 1082.48 1818.21 L 1080.38 1820.64 C 1079.46 1825.3 1078.57 1829.33 1080.61 1833.82 L 1084.12 1834.96 C 1080.85 1828.97 1085.71 1824.25 1082.48 1818.21 C 1084.6 1812.83 1084.29 1801.44 1076.92 1799.4 C 1073.62 1800.22 1074.98 1799.39 1072.75 1802.03 C 1072.77 1803.98 1072.75 1805.29 1072.61 1807.23 C 1068.79 1805.58 1072.06 1803.51 1066.32 1799.82 C 1059.7 1799.9 1056.41 1804.41 1051.65 1809.02 C 1049.4 1826.35 1051.23 1862.15 1050.89 1881.64 z M 996.871 743.978 C 1003.08 743.902 1009.61 743.714 1015.78 743.903 C 1017.17 731.542 1016.22 701.148 1016.13 687.948 L 997.937 687.33 C 997.984 702.784 998.759 729.568 996.871 743.978 z M 1023.14 1019.9 C 1031.91 1019.92 1041.5 1020.13 1050.2 1019.63 C 1050.21 1007.2 1050.1 994.574 1050.26 982.172 C 1041.49 982.086 1031.7 982.22 1023.03 981.892 C 1023.12 994.067 1023.51 1007.84 1023.14 1019.9 z M 1022.22 1598.21 C 1029.66 1598.14 1043.25 1598.46 1050.18 1597.84 C 1050.22 1585.46 1050.39 1574.29 1051.03 1561.94 C 1042.38 1561.98 1030.43 1562.37 1022.05 1561.68 C 1022.27 1573.85 1021.97 1586.29 1022.22 1598.21 z M 976.722 815.495 C 975.42 821.61 975.369 861.334 974.865 871.029 C 979.18 870.937 983.728 870.761 988.023 870.819 L 988.185 815.377 C 984.627 815.562 980.169 815.989 976.722 815.495 z M 979.116 687.887 C 977.741 707.133 978.779 725.87 977.62 744.118 L 989.664 743.811 C 989.548 725.104 990.197 706.353 990.05 687.772 L 979.116 687.887 z M 971.161 1062.38 L 984.62 1062.74 C 984.167 1050.44 984.955 1039.95 984.852 1028.04 C 980.793 1027.96 975.955 1027.99 971.975 1027.75 C 972 1039.15 972.319 1051.08 971.161 1062.38 z M 1053.07 559.293 C 1051.05 563.75 1052.6 605.548 1052.82 613.234 C 1056.43 614.672 1059.29 614.338 1063.19 614.35 C 1065.3 611.846 1063.85 566.869 1063.63 559.762 C 1060.17 559.654 1056.48 559.636 1053.07 559.293 z M 986.212 933.005 L 974.938 932.031 C 973.342 937.742 972.751 965.251 973.174 971.968 C 975.191 973.415 980.311 973.046 983.25 973.027 L 985.518 972.64 C 987.141 966.534 986.348 940.652 986.212 933.005 z M 988.561 807.051 C 988.145 788.333 989.202 770.243 988.975 751.868 L 977.896 751.872 C 977.926 760.418 975.117 803.981 977.572 806.483 C 982.222 807.264 983.765 807.159 988.561 807.051 z M 1050.06 1028.28 C 1041.43 1028.18 1031.58 1028.3 1023.06 1027.89 C 1023.01 1039.44 1023.11 1051.38 1022.86 1062.9 C 1029.94 1062.8 1044.23 1062.17 1050.76 1062.72 C 1049.69 1054.65 1050.15 1037.17 1050.06 1028.28 z M 1052.47 550.1 L 1063.04 549.743 C 1062.45 530.521 1062.13 511.291 1062.07 492.059 C 1059.18 491.854 1054.74 491.681 1052.08 491.046 C 1051.92 509.174 1051.58 532.013 1052.47 550.1 z M 1070.04 923.784 C 1070.07 908.534 1069.32 894.918 1068.99 879.914 C 1065.49 879.802 1060.04 879.811 1056.73 879.498 C 1055.03 886.177 1056.26 915.329 1056.16 923.89 L 1070.04 923.784 z M 1050.24 1071.89 C 1041.11 1071.78 1031.99 1071.76 1022.86 1071.82 C 1022.9 1081.21 1023.41 1099.55 1021.95 1108.2 C 1031.57 1108.11 1041.2 1108.09 1050.82 1108.12 C 1050.07 1095.84 1050.19 1084.19 1050.24 1071.89 z M 990.314 678.752 C 990.35 666.436 991.731 634.357 990.68 624.707 C 987.116 623.39 984.317 623.746 980.507 623.785 C 979.601 641.296 979.557 660.17 979.492 677.775 C 981.913 679.478 987.094 678.865 990.314 678.752 z M 1057.97 973.619 L 1070.32 973.465 C 1072.73 969.762 1069.93 940.312 1070.03 932.266 L 1057.03 932.089 C 1057.17 944.722 1056.93 961.358 1057.97 973.619 z M 986.704 924.054 C 986.821 909.328 987.163 894.605 987.73 879.89 C 983.79 879.714 979.166 879.633 975.3 879.292 C 972.879 885.992 973.906 915.035 974.041 923.344 C 978.288 923.652 982.444 924.016 986.704 924.054 z M 1073.98 1107.9 C 1073.79 1102.72 1073.53 1074.04 1071.5 1071.6 L 1071.24 1071.52 L 1057.79 1071.78 C 1057.81 1076.87 1057.08 1105.71 1058.53 1107.86 L 1059.76 1108.05 C 1064.35 1108.02 1069.43 1108.1 1073.98 1107.9 z M 992.896 491.602 C 989.348 491.803 987.047 491.388 984.333 493.064 C 983.961 510.316 982.417 533.909 982.486 550.091 L 984 551.194 C 988.439 550.861 989.374 551.551 992.413 549.389 C 994.252 536.492 993.331 507.172 993.878 492.5 L 992.896 491.602 z M 1056.06 870.883 C 1058.32 870.89 1066.83 871.121 1068.44 870.62 L 1068.02 815.705 C 1064.48 815.67 1058.65 815.8 1055.35 815.223 C 1055.72 833.774 1055.95 852.328 1056.06 870.883 z M 1053.22 623.792 C 1052.87 642.707 1053.89 659.738 1054.01 678.202 L 1065.57 678.127 C 1065.95 671.791 1065.34 630.311 1064.18 624.911 C 1060.55 623.215 1057.31 623.715 1053.22 623.792 z M 992.936 1019.14 C 1000.25 1019.47 1009.62 1020.17 1016.78 1019.94 C 1015.53 1010.82 1016.1 991.917 1016.25 982.263 L 993.939 981.909 C 993.893 994.325 993.558 1006.74 992.936 1019.14 z M 1073.54 1116.03 L 1057.93 1115.92 L 1057.97 1145.93 L 1073.96 1145.52 C 1074.03 1135.69 1074.25 1125.82 1073.54 1116.03 z M 999.091 623.738 C 998.595 641.904 997.799 660.92 997.973 679.022 L 1015.93 678.105 C 1017.09 663.088 1016.25 639.216 1016.11 623.807 L 999.091 623.738 z M 1058.12 1223.85 C 1063.07 1223.59 1069.99 1223.41 1074.81 1222.86 C 1076.44 1213.51 1074.86 1201.91 1074.81 1192.15 L 1058.02 1191.76 L 1058.12 1223.85 z M 1057.9 1028.08 L 1057.89 1063.08 L 1072.3 1063.02 L 1072.04 1028.42 L 1057.9 1028.08 z M 1057.61 1020.05 L 1070.75 1019.82 C 1073.31 1016.87 1071.85 998.942 1071.54 994.476 C 1071.23 990.299 1070.89 986.126 1070.53 981.955 C 1066.6 981.904 1061.07 982.009 1057.32 981.469 C 1057.71 994.325 1057.81 1007.19 1057.61 1020.05 z M 1053.97 687.152 C 1053.87 705.801 1053.92 724.451 1054.12 743.1 L 1066.45 743.146 C 1066.92 724.854 1066.07 706.368 1066.01 688.008 C 1062.18 687.694 1057.77 687.22 1053.97 687.152 z M 986.257 982.092 L 972.531 981.971 C 972.188 990.696 971.057 1010.78 972.484 1018.14 C 975.695 1020.22 981.733 1020.02 985.63 1020 L 986.257 982.092 z M 970.03 1182.07 C 974.587 1182.59 978.179 1183.11 982.799 1183.05 C 982.838 1173.37 982.979 1163.58 982.654 1153.91 C 978.148 1153.56 974.673 1153.25 970.221 1152.51 C 969.912 1162.36 969.848 1172.21 970.03 1182.07 z M 984.116 1116.17 L 970.802 1115.62 C 970.782 1124.69 970.069 1136.15 970.341 1144.69 L 983.67 1145.81 C 984.167 1135.72 983.789 1126.11 984.116 1116.17 z M 1058.13 1262.01 C 1062.69 1261.98 1071.55 1262.24 1075.62 1261.22 C 1074.96 1251.62 1075.05 1241.56 1074.96 1231.91 L 1058.16 1231.79 C 1058.07 1241.87 1058.06 1251.94 1058.13 1262.01 z M 982.245 559.04 C 981.836 577.352 981.877 595.494 981.26 613.817 C 983.094 615.421 985.194 615.143 987.929 614.967 C 989.157 614.877 990.384 614.771 991.61 614.648 C 993.005 601.166 992.199 573.889 992.13 559.886 L 982.245 559.04 z M 993.967 923.661 L 1015.87 924.062 C 1016.97 915.328 1016.26 889.678 1016.19 879.819 C 1009.83 879.718 1001.85 879.825 995.625 879.476 C 994.096 887.857 994.064 914.013 993.967 923.661 z M 1073.99 1301.29 C 1074.23 1291.21 1074.72 1279.99 1074.68 1270.01 L 1058.04 1269.96 C 1058.14 1277.41 1058.87 1295.91 1058.12 1302.07 C 1062.66 1301.91 1069.68 1301.88 1073.99 1301.29 z M 1049.9 1643.98 C 1040.79 1644.01 1031.14 1644.2 1022.07 1644.01 C 1022.06 1653.26 1021.95 1662.65 1022.07 1671.89 C 1028.47 1671.88 1043.31 1672.3 1049.01 1671.76 C 1049.32 1662.66 1049.82 1653.03 1049.9 1643.98 z M 1074.03 1153.85 L 1057.89 1153.99 L 1058.1 1183.95 C 1062.66 1183.76 1070.68 1183.65 1074.91 1182.91 C 1074.39 1173.23 1074.09 1163.54 1074.03 1153.85 z M 970.946 1071.73 C 970.838 1083.45 971.043 1096.5 969.858 1108.06 L 983.797 1107.91 C 984.69 1100.02 984.085 1080.45 984.155 1071.53 C 980.008 1071.6 975.012 1071.82 970.946 1071.73 z M 981.819 1231.85 L 970.003 1231.9 C 969.926 1240.31 967.94 1254.53 971.994 1260.49 C 975.068 1262.57 977.78 1261.96 981.621 1261.83 C 981.856 1251.84 981.922 1241.85 981.819 1231.85 z M 1016.18 559.1 C 1009.95 559.373 1006.24 559.497 999.981 559.071 C 999.941 577.76 999.572 596.446 998.874 615.121 C 1006.28 614.38 1009.06 614.363 1016.51 614.811 L 1016.18 559.1 z M 1022.84 1301.8 L 1052 1301.44 L 1051.94 1270.12 C 1043.12 1270.12 1031.61 1270.45 1023 1269.96 C 1023.03 1279.39 1023.47 1292.68 1022.84 1301.8 z M 981.204 1269.92 L 969.947 1269.9 C 969.943 1276.61 969.497 1295.74 970.65 1301.35 C 974.556 1302.52 977.026 1301.65 981.203 1300.96 C 980.834 1290.11 980.952 1280.72 981.204 1269.92 z M 1033.49 164.206 C 1044.19 152.684 1041.47 142.948 1024.44 143.941 C 1018.72 148.632 1014.05 157.221 1020.66 163.322 C 1022.64 165.129 1025.27 166.048 1027.94 165.863 C 1028.93 165.803 1031.52 164.88 1032.55 164.524 L 1033.49 164.206 z M 1009.02 239.601 C 1006.05 245.389 1003.64 249.946 1008.78 255.247 C 1011.36 256.237 1011.31 256.244 1014.05 256.48 C 1017.27 250.772 1019.27 246.054 1014.1 240.681 C 1011.84 240.016 1011.33 239.809 1009.02 239.601 z M 970.008 1190.85 L 969.99 1222.93 L 982.051 1223.83 C 982.089 1213.19 981.978 1202.19 982.285 1191.57 C 977.243 1191.63 974.989 1191.8 970.008 1190.85 z M 1051.92 1309.99 C 1042.65 1309.94 1032.19 1310.14 1023.03 1309.77 C 1023.07 1320.33 1023.3 1331.54 1023.04 1342.05 C 1032.49 1341.97 1042.57 1342.07 1051.96 1341.48 L 1051.92 1309.99 z M 986.098 1635.3 C 995.334 1635.59 1005.59 1635.98 1014.8 1635.93 C 1016.93 1633.26 1016.14 1612.26 1016.12 1607.18 C 1008.73 1607.14 992.623 1607.49 986.346 1605.73 C 986.667 1616.03 987.272 1625.02 986.098 1635.3 z M 970.939 1309.95 C 970.643 1319.77 968.496 1331.02 973.277 1338.7 C 976.027 1340.85 977.683 1340.91 981.068 1341.66 C 980.889 1336.72 981.077 1313.4 980.396 1310.63 C 976.186 1309.91 975.242 1309.88 970.939 1309.95 z M 1016.81 1834.91 C 1016.59 1832.06 1016.8 1829.96 1015.57 1827.6 L 1014.71 1829.38 C 1012.65 1830.42 1013.6 1830.1 1011.93 1830.52 L 1009.55 1826.28 L 1009.76 1834.76 C 1011.77 1835.33 1013.7 1835.98 1015.64 1836.77 L 1016.81 1834.91 z M 1015.19 1797.63 C 1013.96 1802.1 1012.76 1811.48 1015.12 1815.56 C 1016.17 1810.73 1016.91 1802.35 1015.19 1797.63 z M 1058.52 1341.98 L 1071.53 1339.63 C 1074.49 1328.79 1074.11 1321.42 1074.04 1310.11 L 1058.71 1309.88 C 1057.6 1320.85 1058.32 1331.01 1058.52 1341.98 z M 1016.55 1270.17 C 1007.75 1270.13 996.581 1270.4 987.972 1269.86 L 987.896 1301.9 L 1016.28 1301.8 C 1016.18 1291.3 1015.91 1280.63 1016.55 1270.17 z M 1068.92 1865.72 C 1066.95 1870.73 1070.48 1874.82 1067.17 1879.67 C 1064.55 1879.28 1065.8 1879.59 1063.38 1876.53 L 1063.29 1878.94 L 1062.69 1881.54 C 1065.51 1881.62 1067.16 1881.46 1069.76 1880.35 C 1072.75 1875.39 1071.55 1871.25 1070.75 1865.44 L 1068.92 1865.72 z M 987.723 320.229 C 983.941 326.265 981.487 329.94 987.065 335.568 C 988.406 335.922 990.125 336.431 991.451 336.687 C 995.907 330.158 995.977 323.471 987.723 320.229 z M 1022.84 1153.91 L 1022.89 1183.93 L 1050.95 1183.91 C 1050.72 1174.6 1050.13 1163.31 1050.33 1154.16 L 1022.84 1153.91 z M 1020.02 1956.87 C 1021.07 1962.66 1020.86 1969.34 1022.82 1973.82 L 1024.97 1974.87 L 1027.68 1973.86 C 1028.19 1968.79 1029.72 1961.95 1027.44 1957.84 C 1024.96 1956.38 1022.96 1956.79 1020.02 1956.87 z M 990.053 1191.65 C 989.438 1202.6 988.768 1212.89 988.924 1223.87 L 1016.14 1223.49 L 1016.04 1191.91 C 1007.92 1191.87 998.027 1192.09 990.053 1191.65 z M 993.94 973.643 L 1016.19 973.83 L 1016.24 932.522 C 1008.82 932.246 1001.39 932.08 993.968 932.027 L 993.94 973.643 z M 1022.11 1715.9 L 1048.91 1715.86 L 1048.94 1680.1 L 1022.1 1679.97 L 1022.11 1715.9 z M 956.699 1879.72 C 959.953 1880.25 964.863 1881.5 967.63 1880.08 C 969.076 1866.76 967.525 1836.58 968.348 1819.49 C 970.444 1817.39 970.607 1818.09 974.492 1817.79 L 975.782 1816.14 C 976.223 1810.86 975.264 1805.55 973.002 1800.75 C 966.348 1800.58 959.694 1800.44 953.039 1800.36 L 951.973 1801.54 C 951.416 1807.67 953.559 1831.27 952.83 1833.45 C 956.214 1847.18 944.29 1849.75 958.365 1855.66 C 959.366 1858.78 959.065 1857.18 958.09 1860.93 C 955.592 1863.06 955.759 1862.93 952.627 1863.95 C 950.698 1867.35 952.164 1875.41 952.763 1879.43 L 953.994 1880.35 L 956.699 1879.72 z M 1016.09 1183.54 L 1016.04 1154.14 L 989.989 1153.86 L 989.883 1183.83 C 998.194 1183.83 1007.91 1184.07 1016.09 1183.54 z M 1016.25 1309.86 C 1007.41 1309.88 996.637 1310.21 987.948 1309.85 L 987.958 1341.48 C 993.766 1341.75 1011.35 1342.48 1016.6 1341.56 C 1015.75 1331.35 1016.14 1320.17 1016.25 1309.86 z M 988.12 1262 L 1016.6 1261.92 C 1015.98 1251.78 1016.11 1241.99 1016.16 1231.85 L 988.059 1231.86 C 988.051 1241.63 987.821 1252.32 988.12 1262 z M 1054.07 751.943 C 1054.3 770.311 1055.11 788.533 1055.31 807.032 C 1059.25 807.071 1064.24 806.976 1068.08 807.31 C 1068.09 787.42 1067.4 771.569 1066.68 751.981 L 1054.07 751.943 z M 1016.56 482.924 C 1016.87 462.818 1016.65 442.726 1017.15 422.639 C 1011.65 422.531 1007.33 422.526 1001.84 421.725 C 1000.57 440.409 1001.56 463.604 1001.21 482.895 C 1006.33 482.849 1011.44 482.859 1016.56 482.924 z M 990.068 1116.08 C 990.023 1125.79 989.779 1136.23 990.065 1145.88 L 1016.23 1145.94 L 1016.15 1116.04 L 990.068 1116.08 z M 1022.07 1606.89 L 1022.02 1635.73 L 1049.75 1635.5 C 1050.37 1626.16 1050.2 1616.49 1050.19 1607.1 C 1041.29 1607.07 1030.84 1607.29 1022.07 1606.89 z M 1022.9 1116.08 C 1022.86 1125.91 1022.97 1136.15 1022.65 1145.94 L 1050.55 1145.89 C 1050.34 1136.04 1050.29 1126.19 1050.38 1116.35 C 1041.52 1116.29 1031.68 1116.44 1022.9 1116.08 z M 986.074 1643.96 L 986.039 1671.73 L 1015.84 1671.82 C 1015.83 1662.65 1015.95 1653.17 1015.79 1644.03 L 986.074 1643.96 z M 992.062 1028.03 C 991.968 1037.7 992.279 1053.82 991.533 1062.96 L 1015.79 1062.86 C 1016.81 1055.98 1016.12 1035.93 1016.05 1028.17 L 992.062 1028.03 z M 991.301 1071.68 C 991.149 1082.43 991.317 1097.55 990.46 1107.92 L 1016.78 1108.19 C 1015.66 1097.24 1016.08 1082.96 1016.1 1071.71 C 1008.61 1071.75 998.594 1072.09 991.301 1071.68 z M 1022.88 1231.89 L 1023.1 1262.12 C 1030.81 1262.05 1044.32 1262.37 1051.57 1261.72 C 1051.51 1251.81 1051.31 1241.91 1050.97 1232.01 L 1022.88 1231.89 z M 1022.95 1191.76 L 1022.9 1223.77 L 1051.04 1223.57 C 1050.65 1212.63 1050.68 1202.9 1050.83 1191.98 C 1042.51 1191.95 1031.01 1192.26 1022.95 1191.76 z M 1000.95 491.764 C 1000.91 511.373 999.688 531.471 1000.09 550.795 C 1006.34 550.207 1010.51 550.124 1016.74 550.113 C 1015.96 530.463 1016.81 511.235 1016.21 492.003 L 1000.95 491.764 z"/>
<path transform="translate(0,0)" fill="rgb(0,0,0)" d="M 821.267 1062.15 C 825.267 1062.01 828.372 1061.98 831.565 1064.87 C 825.904 1066.61 822.796 1065.22 815.886 1068.29 C 801.862 1074.53 790.92 1097.59 786.365 1111.57 C 747.188 1231.81 855.372 1326.55 832.364 1445.02 C 821.476 1507.8 777.008 1554.39 755.01 1613.05 C 711.112 1730.09 736.847 1848.97 862.747 1896.29 C 864.668 1898.15 864.071 1897.47 865.362 1899.9 L 864.529 1900.46 C 850.731 1897.99 832.644 1888.71 820.865 1881.62 C 752.063 1840.17 724.041 1769.07 732.235 1690.7 C 736.3 1651.83 747.206 1613.28 765.398 1578.32 C 792.303 1526.62 828.747 1480.59 831.332 1419.67 C 833.748 1349.01 795.803 1285.57 779.569 1217.66 C 770.147 1178.24 770.166 1073.56 821.267 1062.15 z"/>
<path transform="translate(0,0)" fill="rgb(0,0,0)" d="M 1233.01 1636.18 C 1254.51 1634.69 1263.19 1651.05 1259.02 1671.48 C 1257.43 1679.28 1251.43 1684.52 1244.51 1688.17 C 1217.33 1694.74 1205.74 1651.73 1233.01 1636.18 z M 1225.7 1662.05 C 1227.9 1671.9 1228.17 1676.06 1237.91 1680.68 C 1243.89 1678.04 1245.73 1676.18 1249.98 1671.21 C 1250.46 1660.17 1252.28 1647.07 1238.59 1643.82 C 1230.69 1648.32 1228.93 1650.03 1226.5 1658.95 C 1226.23 1659.98 1225.96 1661.02 1225.7 1662.05 z"/>
<path transform="translate(0,0)" fill="rgb(0,0,0)" d="M 1245.92 1726 C 1264.2 1724.85 1270.43 1738 1268.57 1755.13 C 1267.47 1765.19 1264.01 1770.03 1255.95 1775.91 C 1226.09 1777.39 1226.43 1737 1245.92 1726 z M 1252.9 1766.5 C 1262.84 1757.21 1264.81 1736.12 1247.93 1734.59 C 1239.75 1743.09 1236.36 1766.7 1252.9 1766.5 z"/>
<path transform="translate(0,0)" fill="rgb(0,0,0)" d="M 1219.41 1810.15 C 1243.51 1808.78 1247.82 1840.66 1225.55 1851.96 C 1208.46 1851.77 1201.28 1839.09 1206.23 1822.77 C 1208.39 1815.64 1212.88 1813.12 1219.41 1810.15 z M 1224.56 1842.94 C 1228.79 1838.59 1231.25 1835.51 1231.23 1829 C 1231.24 1826.2 1230.19 1823.5 1228.29 1821.44 C 1226.27 1819.24 1224.01 1818.96 1221.27 1818.4 C 1216.95 1821.7 1214.37 1824.89 1213.72 1830.58 C 1213.34 1833.99 1214.52 1837.39 1216.94 1839.82 C 1219.01 1841.87 1221.77 1842.41 1224.56 1842.94 z"/>
<path transform="translate(0,0)" fill="rgb(0,0,0)" d="M 993.194 1817.48 C 997.29 1818.31 996.175 1817.25 998.156 1819.64 C 997.35 1826.99 996.158 1863.77 999.002 1868.85 C 997.801 1871.33 998.132 1870.04 998.455 1872.85 C 998.293 1875.69 998.363 1876.97 997.422 1879.72 L 995.387 1880.4 C 993.035 1877.06 995.241 1828.39 993.194 1817.48 z"/>
<path transform="translate(0,0)" fill="rgb(0,0,0)" fill-opacity="0.984314" d="M 952.83 1833.45 C 960.774 1831.43 953.451 1823.64 956.798 1818.2 C 959.682 1817.33 959.733 1817.68 962.718 1818.57 C 962.87 1818.9 963.903 1873.66 963.565 1876.72 L 962.28 1877.97 L 959.364 1877.47 L 956.699 1879.72 L 953.994 1880.35 L 952.763 1879.43 C 952.164 1875.41 950.698 1867.35 952.627 1863.95 C 955.759 1862.93 955.592 1863.06 958.09 1860.93 C 959.065 1857.18 959.366 1858.78 958.365 1855.66 C 944.29 1849.75 956.214 1847.18 952.83 1833.45 z"/>
<path transform="translate(0,0)" fill="rgb(0,0,0)" fill-opacity="0.980392" d="M 1038.27 1800.39 L 1038.65 1802.04 C 1033.88 1807.6 1035.9 1812.68 1040.18 1817.45 L 1039.71 1818.73 C 1037.69 1824.31 1037.38 1824.72 1038.62 1830.46 L 1038.91 1831.87 L 1041.32 1832.54 L 1043.17 1832.78 C 1042.64 1837.45 1042.81 1839 1040.56 1842.96 C 1041.79 1848.42 1043.32 1853.34 1042.84 1858.86 C 1041.01 1860.36 1041.29 1860.17 1039.14 1861.42 L 1040.18 1862.23 C 1041.69 1863.41 1041.11 1862.93 1042.55 1864.28 L 1042.43 1866.33 L 1039.93 1868.4 C 1036.13 1870.8 1040.56 1876.41 1037.11 1880.93 L 1035.09 1880.95 L 1034.14 1879.39 C 1034.16 1858.34 1032.47 1824.93 1035.4 1803.4 C 1036.53 1802.22 1037.48 1801.22 1038.27 1800.39 z"/>
<path transform="translate(0,0)" fill="rgb(0,0,0)" fill-opacity="0.00784314" d="M 1038.65 1802.04 L 1043.01 1802.48 C 1043.57 1804.76 1042.56 1829.39 1041.32 1832.54 L 1038.91 1831.87 L 1038.62 1830.46 C 1037.38 1824.72 1037.69 1824.31 1039.71 1818.73 L 1040.18 1817.45 C 1035.9 1812.68 1033.88 1807.6 1038.65 1802.04 z"/>
<path transform="translate(0,0)" fill="rgb(0,0,0)" fill-opacity="0.054902" d="M 1068.92 1865.72 L 1070.75 1865.44 C 1071.55 1871.25 1072.75 1875.39 1069.76 1880.35 C 1067.16 1881.46 1065.51 1881.62 1062.69 1881.54 L 1063.29 1878.94 L 1063.38 1876.53 C 1065.8 1879.59 1064.55 1879.28 1067.17 1879.67 C 1070.48 1874.82 1066.95 1870.73 1068.92 1865.72 z"/>
<path transform="translate(0,0)" fill="rgb(0,0,0)" fill-opacity="0.00784314" d="M 1082.48 1818.21 C 1085.71 1824.25 1080.85 1828.97 1084.12 1834.96 L 1080.61 1833.82 C 1078.57 1829.33 1079.46 1825.3 1080.38 1820.64 L 1082.48 1818.21 z"/>
<path transform="translate(0,0)" fill="rgb(0,0,0)" fill-opacity="0.941176" d="M 1009.55 1826.28 L 1011.93 1830.52 C 1013.6 1830.1 1012.65 1830.42 1014.71 1829.38 L 1015.57 1827.6 C 1016.8 1829.96 1016.59 1832.06 1016.81 1834.91 L 1015.64 1836.77 C 1013.7 1835.98 1011.77 1835.33 1009.76 1834.76 L 1009.55 1826.28 z"/>
<path transform="translate(0,0)" fill="rgb(0,0,0)" fill-opacity="0.129412" d="M 1015.19 1797.63 C 1016.91 1802.35 1016.17 1810.73 1015.12 1815.56 C 1012.76 1811.48 1013.96 1802.1 1015.19 1797.63 z"/>
</svg>