<svg version="1.1" xmlns="http://www.w3.org/2000/svg" style="display: block;" viewBox="0 0 1365 2048" width="1024" height="1536" preserveAspectRatio="none">
<path transform="translate(0,0)" fill="rgb(0,0,0)" d="M 665.714 263.003 C 669.86 262.553 676.062 263.132 680.417 263.396 C 683.107 265.119 685.925 268.277 688.446 269.53 C 703.101 276.813 701.443 284.172 701.681 298.802 C 729.913 308.053 731.784 334.445 701.671 343.455 C 700.701 354.625 701.355 355.644 693.605 363.973 C 700.363 372.297 702.41 371.167 713.363 370.5 C 718.991 370.158 725.092 369.805 730.762 369.539 C 738.633 343.697 770.451 344.341 776.145 366.655 C 777.667 372.507 776.706 378.728 773.49 383.848 C 763.676 399.541 745.799 393.829 733.309 385.72 C 722.045 386.979 714.496 386.917 703.125 386.845 C 703.536 394.685 703.738 402.764 704.026 410.63 C 713.135 410.851 723.04 410.578 732.214 410.487 C 740.189 403.171 748.926 397.338 760.339 400.079 C 766.052 401.487 770.934 405.182 773.841 410.297 C 776.729 415.234 777.455 421.142 775.85 426.631 C 770.099 446.569 742.509 446.032 732.478 426.768 L 704.048 427.006 L 705.748 462.499 C 706.128 471.561 707.802 477.168 700.39 483.635 C 697.45 486.199 699.397 512.283 699.56 517.234 L 701.472 575.356 L 707.496 753.026 C 723.472 753.973 739.324 756.409 754.847 760.304 C 802.984 772.126 838.376 795.722 864.291 838.659 C 886.683 875.757 889.687 917.559 879.018 959.091 C 875.478 972.868 869.969 986.321 867.158 1000.94 C 864.892 1012.71 877.36 1026.21 874.723 1031.47 C 866.938 1046.99 857.582 1029.58 844.629 1036.47 C 832.215 1043.07 825.09 1054.15 821.06 1066.86 C 811.697 1096.4 814.221 1138.12 827.963 1165.96 C 838.883 1188.09 858.04 1203.01 883.397 1198.28 C 889.833 1197.57 902.796 1191.87 908.837 1194.54 C 917.802 1198.5 907.117 1217.24 906.466 1222.39 C 903.056 1249.34 917.254 1276.17 926.76 1300.66 C 945.023 1347.71 948.888 1399.61 929.736 1447.02 C 899.512 1522.88 824.724 1556.87 747.564 1563.39 C 739.64 1564.12 696.992 1565.96 692.954 1567.67 C 691.406 1573.53 707.438 1588.69 683.838 1596.26 C 683.807 1629.33 685.059 1678.82 682.729 1712.74 C 682.513 1715.88 677.293 1718.27 674.428 1719.6 C 668.81 1717.85 665.937 1716.23 665.468 1709.78 C 664.549 1697.13 665.048 1684.25 665.024 1671.55 L 664.773 1597.05 C 643.864 1587.33 652.453 1581.71 658.727 1568.4 L 658.331 1567.55 C 657.248 1565.22 636.36 1565.7 632.445 1565.55 C 578.191 1563.54 524.31 1554.84 479.161 1522.35 C 412.961 1475.51 394.758 1391.34 416.132 1316.47 C 427.806 1275.57 453.291 1244.93 435.997 1204.47 C 435.298 1202.79 436.91 1196.05 438.665 1195.42 C 451.228 1191.33 464.657 1200.89 479.054 1198.88 C 537.16 1190.78 548.533 1072.58 507.968 1040.04 C 491.409 1026.76 488.451 1044.06 475.134 1036.03 C 467.279 1031.29 478.798 1017.2 478.774 1010.33 C 480.789 991.432 471.426 972.572 466.855 954.275 C 464.298 943.864 462.749 933.232 462.228 922.525 C 460.086 877.826 473.185 841.854 503.278 808.834 C 539.034 769.6 590.604 755.382 642.189 753.03 L 647.823 574.476 C 648.588 546.565 649.499 518.577 650.297 490.666 C 650.551 481.787 644.768 478.802 642.804 470.47 C 642.3 468.33 642.649 458.874 642.73 456.067 C 632.642 456.15 622.87 455.774 612.691 456.109 C 608.331 462.393 603.984 467.597 595.857 468.704 C 587.961 470.12 573.256 467.122 569.532 459.036 C 555.978 429.606 597.775 407.238 614.29 440.013 L 642.933 440.008 C 643.712 428.028 643.238 412.353 645.19 401.074 L 618.045 400.1 C 615.589 403.52 614.307 406.654 610.864 409.392 C 600.514 417.624 583.84 416.703 575.684 405.801 C 570.182 398.448 571.097 393.422 572.334 384.882 C 585.145 366.834 604.716 363.984 617.345 383.988 C 626.254 383.826 635.335 384.444 644.247 384.899 C 646.256 378.141 647.019 375.995 652.325 371.206 C 652.74 371.138 653.922 368.735 653.749 368.457 C 647.644 358.602 647.474 354.809 646.951 343.379 C 643.156 342.731 637.892 342.14 634.54 340.234 C 620.345 332.161 619.603 313.363 632.813 303.889 C 637.351 300.635 641.611 299.908 646.98 298.604 L 646.944 295.442 C 646.766 273.402 650.504 278.479 665.714 263.003 z M 497.071 1016.96 C 515.191 1022.02 526.381 1029.22 535.847 1045.85 C 552.501 1075.1 552.998 1118.83 543.851 1150.75 C 531.803 1192.8 506.054 1222.28 459.687 1216.37 C 464.753 1259.45 447.71 1277.1 436.775 1315.19 C 416.254 1386.69 428.152 1455.76 488.145 1503.18 C 489.615 1504.32 491.059 1505.49 492.477 1506.7 C 532.877 1533.14 571.373 1539.18 619.136 1542.46 C 632.086 1543.35 645.269 1543.01 658.24 1543.95 C 658.412 1510 660.296 1475.7 656.912 1441.87 C 655.842 1431.17 653.967 1420.75 651.573 1410.28 C 647.773 1393.64 625.063 1316.46 637.083 1304.11 C 641.158 1299.93 648.922 1298.86 654.417 1297.74 C 654.393 1264.07 655.487 1227.02 654.568 1193.77 C 645.262 1193.74 632.16 1195.42 624.676 1191.3 C 609.289 1174.88 645.184 1169.41 654.394 1168.55 C 654.557 1129.88 654.485 1091.2 654.178 1052.53 C 647.446 1052.28 639.847 1052.99 634.855 1048.67 C 633.191 1045.84 633.187 1041.94 633.284 1038.7 C 634.908 984.701 636.8 930.458 638.551 876.493 L 640.484 805.9 C 640.781 796.327 640.867 781.068 641.84 771.901 C 638.271 772.042 632.412 772.079 629.045 772.427 C 582.877 776.839 541.809 788.619 510.703 825.681 C 486.096 854.998 476.846 891.307 480.549 929.059 C 483.914 963.362 497.982 981.2 497.071 1016.96 z M 707.87 771.254 C 712.614 857.454 712.243 944.704 716.974 1030.98 C 717.207 1035.24 718.104 1046.31 715.895 1049.55 C 710.967 1052.97 704.358 1052.15 698.346 1052.04 C 699.239 1090.55 699.759 1129.08 699.908 1167.6 C 706.881 1168.2 748.781 1172.58 733.398 1191.17 C 729.04 1196.43 708.623 1193.01 700.431 1193.07 C 701.079 1228.21 700.973 1263.36 700.113 1298.49 C 703.753 1299.36 715.002 1302.4 715.64 1306.64 C 720.367 1338.05 707.216 1375.52 698.79 1406.35 C 685.56 1454.76 691.155 1495.23 689.855 1543.8 C 750.598 1541.55 812.646 1540.08 863.55 1501.82 C 922.386 1453.42 934.798 1386.01 911.244 1314.85 C 898.456 1276.21 884.701 1259.19 888.34 1216.37 C 823.891 1225.03 798.519 1162.11 798.154 1108.6 C 797.875 1067.77 807.007 1030.99 849.906 1017.29 C 849.789 990.113 857.003 975.528 863.554 950.181 C 886.392 861.826 821.196 784.967 734.472 774.02 C 727.22 773.104 714.419 772.458 707.87 771.254 z"/>
<path transform="translate(0,0)" fill="rgb(0,0,0)" d="M 592.148 1103.12 C 622.366 1099.32 625.966 1136.44 609.277 1136.8 C 601.759 1132.36 609.157 1121.73 601.958 1114.56 C 599.43 1113.25 597.342 1112.95 594.503 1113.5 C 570.182 1118.17 590.482 1215.05 570.034 1245.09 C 565.527 1251.72 559.172 1255.89 551.241 1257.2 C 542.775 1258.6 535.272 1256.1 528.498 1251.13 C 521.8 1242.56 518.572 1237.56 520.852 1225.57 C 523.173 1213.38 539.223 1209.93 544.897 1220.79 C 549.077 1228.79 524.461 1228.92 531.944 1241.93 C 536.951 1250.63 546.457 1253.37 555.854 1248.77 C 577.276 1231.59 568.659 1189.99 570.817 1165.43 C 571.285 1153.13 571.443 1140.48 574.512 1128.47 C 577.534 1116.63 581.615 1109.39 592.148 1103.12 z"/>
<path transform="translate(0,0)" fill="rgb(232,231,231)" d="M 530.208 1218.88 C 534.07 1218.96 535.359 1218.8 538.923 1220.58 L 539.038 1222.15 C 535.371 1226.03 532.728 1225.16 528.606 1228.44 C 527.9 1231.11 527.699 1231.88 526.529 1234.37 L 525.532 1232.94 C 525.605 1225.98 525.385 1224.18 530.208 1218.88 z"/>
<path transform="translate(0,0)" fill="rgb(232,231,231)" d="M 600.402 1108.74 C 611.166 1109.26 615.527 1118.83 612.687 1128.5 L 612.25 1128.58 C 609.272 1127.3 611.279 1122.21 609.589 1118.85 C 608.131 1115.96 602.808 1111.08 600.402 1108.74 z"/>
<path transform="translate(0,0)" fill="rgb(0,0,0)" d="M 744.31 1103.1 C 800.81 1097.55 762.826 1218.86 788.285 1245.11 C 799.678 1256.86 818.879 1250.46 820.251 1234.51 C 820.709 1229.19 807.749 1228.63 807.464 1219.65 C 812.223 1213.22 825.118 1212.12 828.149 1221.52 C 831.194 1230.96 830.469 1235.67 826.629 1244.41 C 822.202 1251.35 812.333 1258.08 803.921 1257.87 C 757.21 1256.72 770.812 1178.64 767.687 1148 C 766.449 1135.86 765.659 1110.76 748.325 1111.89 C 740.76 1116.68 745.907 1127.05 741.385 1135.05 C 738.352 1137.27 739.796 1136.71 735.716 1136.87 C 729.825 1133.58 728.576 1124.36 730.445 1118.33 C 732.943 1110.26 737.222 1107.11 744.31 1103.1 z"/>
<path transform="translate(0,0)" fill="rgb(232,231,231)" d="M 743.148 1110.04 L 743.395 1111.07 C 739.402 1117.5 739.276 1129.31 737.161 1131.54 C 732.411 1123.03 735.428 1115.28 743.148 1110.04 z"/>
<path transform="translate(0,0)" fill="rgb(232,231,231)" d="M 815.148 1218.51 C 822.83 1218.89 826.033 1225.06 824.748 1232.22 C 819.277 1223.19 813.287 1226.56 815.148 1218.51 z"/>
<path transform="translate(0,0)" fill="rgb(246,245,245)" d="M 667.192 449.887 C 668.468 447.137 670.957 446.007 673.769 445.701 L 676.97 446.664 C 679.595 446.861 680.9 446.487 682.103 449.593 L 684.192 450.568 C 687.906 454.116 691.764 457.494 692.654 462.711 L 691.947 464.447 L 688.887 464.949 L 686.299 466.211 C 691.011 467.833 690.761 466.918 693.155 470.336 C 694.815 481.515 694.923 515.831 695.304 528.784 L 699.102 644.31 L 712.962 1046.92 C 707.894 1047.13 702.206 1047.58 697.255 1046.82 L 694.656 1046.61 C 689.321 1047.46 681.794 1047.73 676.612 1046.16 C 674.219 1046.13 674.353 1045.72 672.877 1046.89 C 666.898 1047.26 660.911 1047.27 654.921 1047.34 L 653.008 1047.07 C 648.449 1047.36 642.81 1046.94 638.144 1046.73 C 636.878 1029.73 639.309 990.972 639.963 972.87 L 643.956 846.245 L 652.578 568.477 C 652.989 553.921 653.061 477.812 655.767 469.236 C 658.035 466.626 661.349 466.245 664.867 465.293 C 665.098 464.014 665.025 464.632 664.025 463.013 C 661.073 463.595 659.586 464.296 657.068 463.063 L 656.741 460.827 C 658.902 456.661 661.271 454.39 664.423 450.941 L 667.192 449.887 z"/>
<path transform="translate(0,0)" fill="rgb(246,245,245)" d="M 676.97 446.664 C 679.595 446.861 680.9 446.487 682.103 449.593 L 684.192 450.568 C 687.906 454.116 691.764 457.494 692.654 462.711 L 691.947 464.447 L 688.887 464.949 L 686.299 466.211 C 691.011 467.833 690.761 466.918 693.155 470.336 C 694.815 481.515 694.923 515.831 695.304 528.784 L 699.102 644.31 L 712.962 1046.92 C 707.894 1047.13 702.206 1047.58 697.255 1046.82 L 694.656 1046.61 C 689.321 1047.46 681.794 1047.73 676.612 1046.16 C 675.817 932.233 675.669 818.299 676.17 704.367 C 677.076 697.012 676.721 675.275 676.768 667.164 C 677.006 643.091 677.042 619.017 676.877 594.944 C 677.187 545.518 677.218 496.091 676.97 446.664 z"/>
<path transform="translate(0,0)" fill="rgb(246,245,245)" d="M 686.299 466.211 C 691.011 467.833 690.761 466.918 693.155 470.336 C 694.815 481.515 694.923 515.831 695.304 528.784 L 699.102 644.31 L 712.962 1046.92 C 707.894 1047.13 702.206 1047.58 697.255 1046.82 C 692.005 907.967 691.766 768.004 687.858 629.037 C 687.423 613.588 683.088 469.747 686.299 466.211 z"/>
<path transform="translate(0,0)" fill="rgb(18,17,18)" d="M 682.103 449.593 L 684.192 450.568 C 687.906 454.116 691.764 457.494 692.654 462.711 L 691.947 464.447 L 688.887 464.949 L 686.299 466.211 C 683.088 469.747 687.423 613.588 687.858 629.037 C 691.766 768.004 692.005 907.967 697.255 1046.82 L 694.656 1046.61 C 692.672 1033.69 693.497 997.546 693.018 982.443 L 688.988 798.501 C 686.74 717.215 685.023 635.916 683.836 554.608 C 683.28 521.371 680.786 482.406 682.103 449.593 z"/>
<path transform="translate(0,0)" fill="rgb(246,245,245)" d="M 684.192 450.568 C 687.906 454.116 691.764 457.494 692.654 462.711 L 691.947 464.447 L 688.887 464.949 L 685.566 463.178 C 683.631 459.628 684.152 454.733 684.192 450.568 z"/>
<path transform="translate(0,0)" fill="rgb(246,245,245)" d="M 664.867 465.293 C 663.617 491.729 663.741 519.539 663.2 546.145 C 661.659 613.637 660.465 681.137 659.617 748.642 L 655.323 936.172 C 654.443 972.44 652.773 1010.9 653.008 1047.07 C 648.449 1047.36 642.81 1046.94 638.144 1046.73 C 636.878 1029.73 639.309 990.972 639.963 972.87 L 643.956 846.245 L 652.578 568.477 C 652.989 553.921 653.061 477.812 655.767 469.236 C 658.035 466.626 661.349 466.245 664.867 465.293 z"/>
<path transform="translate(0,0)" fill="rgb(18,17,18)" d="M 673.769 445.701 L 676.97 446.664 C 677.218 496.091 677.187 545.518 676.877 594.944 C 677.042 619.017 677.006 643.091 676.768 667.164 C 676.721 675.275 677.076 697.012 676.17 704.367 C 675.669 818.299 675.817 932.233 676.612 1046.16 C 674.219 1046.13 674.353 1045.72 672.877 1046.89 C 673.61 1033.04 673.038 1013.33 673.037 998.967 L 673.026 908.469 L 674.128 660.707 L 674.439 534.626 C 674.85 514.384 674.99 494.137 674.857 473.892 C 674.819 467.337 675.006 451.397 673.769 445.701 z"/>
<path transform="translate(0,0)" fill="rgb(76,76,78)" d="M 676.877 594.944 C 677.042 619.017 677.006 643.091 676.768 667.164 C 676.721 675.275 677.076 697.012 676.17 704.367 C 674.909 688.797 675.877 665.657 675.58 649.338 C 675.38 638.371 674.958 604.526 676.877 594.944 z"/>
<path transform="translate(0,0)" fill="rgb(18,17,18)" d="M 664.423 450.941 L 667.192 449.887 C 666.224 576.883 662.911 706.929 660.024 834.003 L 657.185 957.293 C 656.68 985.087 656.731 1020.04 654.921 1047.34 L 653.008 1047.07 C 652.773 1010.9 654.443 972.44 655.323 936.172 L 659.617 748.642 C 660.465 681.137 661.659 613.637 663.2 546.145 C 663.741 519.539 663.617 491.729 664.867 465.293 C 665.098 464.014 665.025 464.632 664.025 463.013 C 661.073 463.595 659.586 464.296 657.068 463.063 L 656.741 460.827 C 658.902 456.661 661.271 454.39 664.423 450.941 z"/>
<path transform="translate(0,0)" fill="rgb(246,245,245)" d="M 664.423 450.941 C 664.554 453.941 664.955 460.269 664.025 463.013 C 661.073 463.595 659.586 464.296 657.068 463.063 L 656.741 460.827 C 658.902 456.661 661.271 454.39 664.423 450.941 z"/>
<path transform="translate(0,0)" fill="rgb(246,245,245)" d="M 639.301 757.44 C 640.993 757.439 640.137 757.3 641.804 758.542 C 641.858 761.477 641.721 763.774 641.519 766.705 C 601.93 768.645 562.435 776.808 530.164 801.124 C 483.354 836.394 466.916 893.201 479.065 949.377 C 484.604 974.985 496.017 992.075 491.996 1020.28 C 510.077 1024.97 520.526 1029.53 530.641 1046.27 C 564.247 1101.89 540.286 1232.08 453.294 1210.6 C 463.449 1248.33 443.766 1278.51 432.638 1313.79 C 426.886 1331.73 423.625 1350.37 422.945 1369.2 C 421.305 1412.55 434.45 1455.64 464.294 1487.75 C 516.407 1543.82 586.936 1545.66 658.127 1548.24 L 658.419 1561.26 C 649.984 1561.24 641.349 1561.02 632.897 1560.89 C 584.839 1558.13 539.468 1553.21 496.621 1528.27 C 426.37 1487.38 400.01 1409.59 416.728 1331.83 C 423.984 1294.32 449.163 1260.95 446.354 1221.68 C 445.855 1214.71 437.872 1205.49 441.472 1199.78 C 450.776 1195.89 468.386 1206.43 482.042 1203.05 C 533.8 1190.23 541.639 1119.22 533.157 1075.4 C 530.018 1059.18 521.228 1044.02 507.554 1034.7 C 492.973 1024.76 491.663 1035.9 479.267 1032.6 C 475.631 1031.54 475.73 1026.74 479.122 1023.34 C 485.124 1017.32 484.559 1007.63 483.665 999.738 C 478.843 973.317 468.425 951.764 466.497 924.4 C 463.607 884.688 476.7 845.468 502.866 815.456 C 538.328 774.72 587.118 761.077 639.301 757.44 z"/>
<path transform="translate(0,0)" fill="rgb(246,245,245)" d="M 707.113 756.885 L 728.798 759.682 C 777.627 766.454 819.341 785.12 849.899 825.144 C 879.255 863.591 886.781 906.888 875.798 953.7 C 871.781 970.821 865.527 983.498 863.019 1001.9 C 860.213 1022.49 871.851 1021.5 870.571 1030.62 C 865.261 1035.6 848.233 1028.88 840.202 1033.88 C 787.983 1066.42 806.949 1215.68 882.93 1202.67 C 889.793 1201.5 900.678 1197.36 907.007 1199.11 C 908.166 1201.6 902.73 1220.01 902.194 1224.63 C 899.144 1250.96 912.657 1277.47 922.313 1301.82 C 947.666 1365.76 943.735 1437.96 897.339 1491.34 C 849.613 1546.26 786.159 1555.9 717.595 1560.85 L 690.587 1561.78 C 690.665 1557.62 690.484 1552.91 690.42 1548.7 C 701.819 1547.29 719.203 1547.28 731.606 1546.29 C 774.456 1542.87 815.978 1537.61 853.1 1514.47 C 918.593 1473.65 938.43 1402.25 920.373 1329.63 C 909.241 1284.86 884.235 1257.47 894.876 1210.79 L 893.98 1211.05 C 877.845 1215.64 860.538 1213.46 846.038 1205.03 C 800.318 1178.59 790.37 1091.47 815.868 1047.8 C 826.265 1029.99 836.285 1025.47 855.289 1020.54 C 851.022 993.895 863.582 971.572 868.956 946.216 C 888.498 854.005 819.923 778.652 730.345 768.912 C 723.885 768.21 716.106 767.437 709.683 766.216 C 707.125 763.105 707.711 761.466 707.113 756.885 z"/>
<path transform="translate(0,0)" fill="rgb(18,17,18)" d="M 662.32 317.59 C 663.744 305.44 659.258 274.389 668.354 267.998 C 671.928 268.072 670.644 267.88 673.973 269.923 L 676.755 270.275 C 682.406 268.818 682.629 270.263 686.551 274.284 C 686.977 276.622 686.754 278.269 688.165 279.283 C 691.612 277.303 690.419 277.288 693.467 277.974 C 699.79 285.114 699.792 351.627 691.98 359.102 L 689.553 359.7 C 688.386 358.65 688.328 358.894 687.745 357.602 C 687.174 354.551 687.254 353.634 685.429 351.269 L 683.831 351.697 L 682.516 355.548 L 682.849 360.979 L 683.519 368.582 L 684.553 369.297 L 685.385 369.121 C 689.352 370.131 694.316 373.918 697.917 376.329 C 699.002 407.103 701.842 447.252 701.184 476.825 C 696.531 461.395 696.28 455.904 684.07 445.116 L 681.813 444.423 C 679.096 443.373 678.873 443.027 676.63 441.067 L 674.654 440.612 L 667.317 444.408 L 665.092 445.118 C 653.334 454.506 656.312 457.133 648.779 468.041 L 647.611 467.861 C 644.193 452.94 650.406 401.117 650.647 383.544 C 650.707 379.193 654.559 372.418 660.689 374.205 C 661.273 377.271 661.657 377.887 663.931 380.02 L 665.411 373.087 C 664.761 367.671 662.761 357.356 664.759 352.788 C 665.972 350.017 669.346 349.643 672.349 348.679 L 671.931 347.407 C 669.667 347.137 668.38 347.117 666.095 347.113 C 663.899 344.352 664.955 341.442 665.164 336.992 L 661.891 337.288 L 659.452 336.31 L 659.865 334.264 C 663.453 329.111 660.5 325.088 662.32 317.59 z"/>
<path transform="translate(0,0)" fill="rgb(246,245,245)" d="M 685.385 369.121 C 689.352 370.131 694.316 373.918 697.917 376.329 C 699.002 407.103 701.842 447.252 701.184 476.825 C 696.531 461.395 696.28 455.904 684.07 445.116 C 685.262 420.765 684.259 394.46 685.385 369.121 z"/>
<path transform="translate(0,0)" fill="rgb(246,245,245)" d="M 665.092 445.118 C 653.334 454.506 656.312 457.133 648.779 468.041 L 647.611 467.861 C 644.193 452.94 650.406 401.117 650.647 383.544 C 650.707 379.193 654.559 372.418 660.689 374.205 C 661.273 377.271 661.657 377.887 663.931 380.02 C 664.548 390.19 666.111 406.788 664.671 416.457 C 659.547 418.78 659.805 416.575 656.188 420.219 C 656.405 427.154 659.258 427.566 664.996 431.244 L 665.092 445.118 z"/>
<path transform="translate(0,0)" fill="rgb(246,245,245)" d="M 688.165 279.283 C 691.612 277.303 690.419 277.288 693.467 277.974 C 699.79 285.114 699.792 351.627 691.98 359.102 L 689.553 359.7 C 688.386 358.65 688.328 358.894 687.745 357.602 C 688.145 341.164 688.375 324.722 688.436 308.278 C 688.499 300.373 688.967 286.679 688.165 279.283 z"/>
<path transform="translate(0,0)" fill="rgb(246,245,245)" d="M 662.32 317.59 C 663.744 305.44 659.258 274.389 668.354 267.998 C 671.928 268.072 670.644 267.88 673.973 269.923 C 673.896 276.584 674.239 320.659 672.854 324.563 C 670.141 327.134 667.345 327.52 663.762 328.464 C 661.954 325.543 662.743 321.299 662.32 317.59 z"/>
<path transform="translate(0,0)" fill="rgb(246,245,245)" d="M 672.349 348.679 C 673.057 349.6 673.718 350.371 673.751 351.682 C 674.348 375.679 674.235 399.945 673.986 423.951 C 673.984 424.173 673.698 425.566 673.644 425.842 C 670.832 427.576 672.316 427.301 669.034 426.635 C 666.771 424.277 666.784 424.141 666.243 420.809 C 669.094 412.155 666.74 382.87 665.411 373.087 C 664.761 367.671 662.761 357.356 664.759 352.788 C 665.972 350.017 669.346 349.643 672.349 348.679 z"/>
<path transform="translate(0,0)" fill="rgb(246,245,245)" d="M 676.755 270.275 C 682.406 268.818 682.629 270.263 686.551 274.284 C 684.489 284.379 687.096 329.277 683.301 333.131 C 671.438 324.926 675.712 284.07 676.755 270.275 z"/>
<path transform="translate(0,0)" fill="rgb(246,245,245)" d="M 682.849 360.979 C 682.012 369.514 684.3 398.778 678.823 402.602 L 677.357 401.58 C 676.503 395.125 675.133 351.859 677.763 348.285 L 679.044 348.554 C 682.657 352.34 681.757 350.472 682.516 355.548 L 682.849 360.979 z"/>
<path transform="translate(0,0)" fill="rgb(246,245,245)" d="M 665.164 336.992 C 668.94 335.405 668.483 334.905 672.169 335.556 C 674.859 338.988 675.113 344.493 671.931 347.407 C 669.667 347.137 668.38 347.117 666.095 347.113 C 663.899 344.352 664.955 341.442 665.164 336.992 z"/>
<path transform="translate(0,0)" fill="rgb(246,245,245)" d="M 667.317 444.408 C 667.399 437.98 666.58 434.578 670.825 429.996 L 672.656 430.098 C 675.299 434.22 674.425 434.941 674.654 440.612 L 667.317 444.408 z"/>
<path transform="translate(0,0)" fill="rgb(246,245,245)" d="M 676.63 441.067 C 676.761 436.359 676.135 432.327 679.044 428.957 C 683.243 430.852 681.993 440.26 681.813 444.423 C 679.096 443.373 678.873 443.027 676.63 441.067 z"/>
<path transform="translate(0,0)" fill="rgb(246,245,245)" d="M 677.078 404.138 C 678.447 404.591 679.483 405.128 680.783 405.734 C 683.077 410.675 682.027 420.078 681.752 425.885 C 679.761 425.458 679.646 425.286 677.83 424.304 C 676.088 418.815 676.906 410.253 677.078 404.138 z"/>
<path transform="translate(0,0)" fill="rgb(246,245,245)" d="M 676.834 333.75 C 683.99 339.734 684.658 341.454 684.869 350.325 C 682.775 348.701 679.939 345.715 677.136 344.364 C 675.25 343.455 676.572 336.24 676.834 333.75 z"/>
<path transform="translate(0,0)" fill="rgb(246,245,245)" d="M 654.561 1345.47 L 656.413 1345.51 C 658.823 1347.92 658.58 1349.58 659.547 1353.31 L 661.02 1354.17 C 663.201 1351.64 662.506 1350.46 662.254 1346.53 C 665.105 1345.13 670.759 1345.37 673.657 1346.59 C 674.214 1351.59 674.639 1355.23 675.698 1360.14 L 677.094 1360.67 C 680.099 1355.83 675.18 1352.43 680.205 1346.13 C 683.301 1345.16 683.673 1345.14 686.697 1346.3 C 689.3 1348.58 689.404 1350.05 690.357 1353.42 L 690.697 1354.64 L 691.768 1352.39 L 690.708 1353.96 L 690.626 1352.12 L 692.694 1350.75 L 693.39 1345.74 L 709.533 1346.06 C 693.341 1412.05 683.153 1430.47 684.741 1500.75 C 684.715 1517.22 685 1533.69 685.598 1550.15 C 676.601 1548.63 671.931 1549.31 663.077 1550.44 C 663.798 1497.86 667.456 1445.83 652.693 1394.91 C 648.134 1379.18 644.57 1361.95 641.29 1345.86 L 654.561 1345.47 z"/>
<path transform="translate(0,0)" fill="rgb(246,245,245)" d="M 676.52 1051.93 L 693.932 1051.94 L 694.475 1165.8 C 691.914 1166.18 680.365 1165.31 677.117 1165.12 C 676.035 1129.27 676.093 1087.81 676.52 1051.93 z"/>
<path transform="translate(0,0)" fill="rgb(246,245,245)" d="M 678.121 1190.14 L 695.276 1190.98 C 696.902 1225.36 696 1263.9 695.784 1298.51 C 691.469 1297.51 687.154 1297.01 682.766 1296.42 L 679.977 1296.75 C 677.599 1294.7 678.294 1295.95 677.784 1292.89 C 680.221 1290.07 683.617 1291.93 689.689 1290.43 L 689.851 1289.22 C 687.11 1287.36 681.962 1287.67 678.341 1287.5 C 678.546 1255.05 678.473 1222.6 678.121 1190.14 z"/>
<path transform="translate(0,0)" fill="rgb(246,245,245)" d="M 658.623 1051.99 L 673.038 1051.97 C 673.019 1087.24 672.014 1130.34 673.782 1165.09 C 668.635 1165.53 664.259 1166.14 659.147 1166.91 C 658.621 1128.61 658.446 1090.3 658.623 1051.99 z"/>
<path transform="translate(0,0)" fill="rgb(246,245,245)" d="M 659.35 1190.57 C 664.235 1191.44 670.04 1190.39 675.057 1189.77 L 675.468 1287.45 C 672.729 1287.85 669.399 1288.19 667.627 1290.24 L 670.193 1289.71 C 673.499 1291.25 673.564 1291.22 674.793 1293.93 L 673.54 1295.49 C 668.989 1297.34 663.895 1297.15 658.948 1297.3 L 659.35 1190.57 z"/>
<path transform="translate(0,0)" fill="rgb(246,245,245)" d="M 585.381 429.146 C 613.702 426.509 617.981 455.982 596.75 464.136 C 569.568 465.812 559.909 441.565 585.381 429.146 z"/>
<path transform="translate(0,0)" fill="rgb(246,245,245)" d="M 593.369 375.206 C 602.578 375.124 609.862 378.115 612.505 387.856 C 613.908 393 613.006 398.5 610.034 402.926 C 606.728 407.882 602.437 409.283 597.08 410.519 C 572.439 408.731 566.385 383.164 593.369 375.206 z"/>
<path transform="translate(0,0)" fill="rgb(246,245,245)" d="M 748.439 355.392 C 757.407 352.255 767.256 356.738 770.781 365.561 C 774.305 374.385 770.256 384.419 761.595 388.325 C 755.646 391.008 748.705 390.209 743.521 386.247 C 738.336 382.284 735.744 375.796 736.771 369.352 C 737.798 362.908 742.279 357.547 748.439 355.392 z"/>
<path transform="translate(0,0)" fill="rgb(246,245,245)" d="M 751.625 404.047 C 773.755 404.413 781.891 427.186 758.961 435.744 C 745.03 436.995 732.109 429.593 738.177 413.165 C 740.21 407.659 746.357 405.843 751.625 404.047 z"/>
<path transform="translate(0,0)" fill="rgb(246,245,245)" d="M 669.135 1596 C 672.791 1596 676.581 1595.35 679.405 1597.26 C 679.529 1598.12 679.94 1601.55 679.878 1602.22 C 679.237 1609.26 680.674 1675.17 678.276 1677.64 C 674.414 1680.23 674.189 1681.41 670.482 1678.74 C 667.958 1674.15 669.106 1606.4 669.135 1596 z"/>
<path transform="translate(0,0)" fill="rgb(246,245,245)" d="M 661.891 337.288 C 662.095 340.605 659.96 359.894 658.122 362.95 L 656.311 362.388 C 652.113 356.528 649.952 346.339 651.3 339.515 C 653.504 328.366 648.108 283.418 655.731 277.992 L 657.766 278.729 C 661.059 283.943 659.87 324.945 659.865 334.264 L 659.452 336.31 L 661.891 337.288 z"/>
<path transform="translate(0,0)" fill="rgb(246,245,245)" d="M 669.032 1573.23 C 677.86 1572.66 686.967 1572.5 691.826 1581.54 C 692.348 1588.75 687.97 1590.11 681.803 1591.93 C 672.759 1592.24 661.109 1592.63 656.182 1583.06 C 655.989 1575.84 663.05 1574.1 669.032 1573.23 z"/>
<path transform="translate(0,0)" fill="rgb(246,245,245)" d="M 642.928 303.835 C 645.952 303.655 644.761 303.188 646.845 304.525 C 647.4 313.996 649.576 328.974 643.55 336.474 C 640.046 337.886 640.116 337.159 635.927 336.119 C 622.119 324.096 626.856 310.079 642.928 303.835 z"/>
<path transform="translate(0,0)" fill="rgb(246,245,245)" d="M 678.381 1308.19 C 683.061 1308.64 688.458 1308.84 693.209 1309.13 L 690.534 1341 C 687.349 1342.36 682.089 1341.92 678.401 1341.91 L 678.381 1308.19 z"/>
<path transform="translate(0,0)" fill="rgb(246,245,245)" d="M 667.476 1309.21 C 669.776 1308.98 669.988 1309.11 672.194 1309.5 C 674.476 1313.6 674.865 1339.29 671.962 1342.05 C 668.359 1342.11 665.837 1342.43 662.442 1341.24 C 660.664 1333.78 659.843 1319.72 659.879 1311.97 C 661.553 1309.62 663.849 1309.95 667.476 1309.21 z"/>
<path transform="translate(0,0)" fill="rgb(246,245,245)" d="M 646.765 1317.29 C 649.802 1316.92 653.177 1316.4 655.414 1318.09 C 656.667 1323.37 658.64 1336.43 656.614 1341.42 L 653.25 1341.81 C 649.411 1341.97 645.529 1342.39 641.852 1341.33 C 638.382 1334.48 638.01 1327.32 639.777 1319.97 C 642.187 1317.23 642.466 1317.96 646.765 1317.29 z"/>
<path transform="translate(0,0)" fill="rgb(246,245,245)" d="M 702.004 304.406 C 716.506 306.467 723.391 319.885 713.977 332.284 C 710.398 334.798 707.987 337.367 703.633 335.64 C 700.204 330.181 701.961 312.379 702.004 304.406 z"/>
<path transform="translate(0,0)" fill="rgb(246,245,245)" d="M 696.111 1316.78 C 700.629 1316.88 707.578 1317.91 712.242 1318.45 C 712.011 1326.38 711.158 1334.27 709.691 1342.06 L 693.655 1341.96 C 694.783 1333.13 695.535 1325.66 696.111 1316.78 z"/>
<path transform="translate(0,0)" fill="rgb(246,245,245)" d="M 677.397 1169.48 L 694.929 1170.13 C 695 1174.02 695.787 1183.42 694.057 1186.34 L 691.53 1186.48 C 688.588 1186.44 679.899 1186.65 677.792 1185.57 C 679.765 1184.01 681.492 1182.89 683.592 1181.5 C 681.734 1175.97 677.766 1185.15 677.397 1169.48 z"/>
<path transform="translate(0,0)" fill="rgb(246,245,245)" d="M 659.518 1170.21 L 674.795 1169.58 L 674.818 1184.49 L 673.607 1185.31 C 669.754 1184.86 663.232 1186.68 659.158 1187.58 C 659.018 1181.25 659.125 1176.53 659.518 1170.21 z"/>
<path transform="translate(0,0)" fill="rgb(246,245,245)" d="M 704.104 375.504 C 709.94 375.159 724.932 373.648 729.617 376 C 730.208 378.636 730.137 378.609 729.882 381.342 L 728.147 382.082 C 721.431 382.339 710.149 383.263 703.891 381.464 C 703.057 381.224 702.632 379.664 702.128 378.59 C 702.672 376.591 702.542 377.245 704.104 375.504 z"/>
<path transform="translate(0,0)" fill="rgb(246,245,245)" d="M 613.109 445.063 C 622.919 445.33 631.282 443.738 640.72 445.803 C 643.094 448.073 642.347 447.261 642.721 451.496 C 634.067 451.99 623.349 453.287 615.188 451.145 C 612.598 448.833 613.411 449.737 613.109 445.063 z"/>
<path transform="translate(0,0)" fill="rgb(246,245,245)" d="M 704.361 414.73 C 710.903 414.975 725.848 412.634 730.008 416.956 L 729.783 422.012 C 720.999 421.721 714.496 423.602 706.293 421.311 C 703.736 418.721 704.553 419.549 704.361 414.73 z"/>
<path transform="translate(0,0)" fill="rgb(246,245,245)" d="M 619.777 388.967 C 626.073 389.019 638.585 387.896 643.837 390.934 C 645.07 391.647 644.905 394.004 645.155 395.943 C 639.312 395.97 624.999 397.622 620.706 394.218 C 619.523 393.28 619.874 390.963 619.777 388.967 z"/>
<path transform="translate(0,0)" fill="rgb(246,245,245)" d="M 669.192 1696.19 L 679.447 1696.56 C 679.147 1703.59 679.313 1707.92 677.303 1714.75 C 666.605 1715.06 668.889 1703.59 669.192 1696.19 z"/>
<path transform="translate(0,0)" fill="rgb(246,245,245)" d="M 698.924 1183.14 C 703.471 1183.09 728.3 1183.85 731.286 1185.34 L 731.465 1186.86 C 725.324 1191.02 708.641 1189.83 701.577 1187.53 C 699.572 1186.87 699.509 1184.96 698.924 1183.14 z"/>
<path transform="translate(0,0)" fill="rgb(246,245,245)" d="M 699.465 1171.65 C 711.374 1173.78 718.459 1174.73 729.711 1179.68 C 719.75 1180 710.824 1181.91 701.61 1178.99 C 699.082 1176.3 699.82 1175.99 699.465 1171.65 z"/>
<path transform="translate(0,0)" fill="rgb(246,245,245)" d="M 650.59 1302.91 L 653.224 1303.09 C 659.707 1312.34 650.595 1313.31 644.222 1313.77 C 641.321 1314.07 641.119 1314.2 638.582 1312.99 C 636.926 1306.86 646.216 1304.25 650.59 1302.91 z"/>
<path transform="translate(0,0)" fill="rgb(246,245,245)" d="M 668.521 1563.37 C 675.381 1563.13 679.642 1562.39 686.132 1564.47 C 687.91 1566.85 687.678 1565.62 687.307 1568.19 C 685.682 1569.38 685.707 1568.96 683.25 1569 C 678.091 1568.86 664.7 1571.19 662.826 1566.2 L 663.988 1564.29 L 668.521 1563.37 z"/>
<path transform="translate(0,0)" fill="rgb(246,245,245)" d="M 645.004 1183.59 C 649.433 1183.02 652.358 1182.32 655.904 1184.92 C 652.709 1189.97 640.177 1189.26 634.752 1189.25 C 632.131 1189.2 629.087 1188.15 628.084 1185.62 C 632.078 1183.9 640.305 1183.87 645.004 1183.59 z"/>
<path transform="translate(0,0)" fill="rgb(246,245,245)" d="M 675.701 1553.44 C 680.141 1553.42 682.477 1553 685.626 1555.68 L 684.949 1557.51 C 681.39 1559.76 678.197 1559.05 673.826 1558.84 C 669.248 1559.28 666.809 1560.2 663.371 1557.52 L 663.986 1555.85 C 667.139 1553.09 671.425 1553.56 675.701 1553.44 z"/>
<path transform="translate(0,0)" fill="rgb(246,245,245)" d="M 698.435 1303.56 C 706.996 1305.09 711.241 1304.79 712.662 1314.37 C 707.57 1313.65 701.878 1314.46 698.308 1312.05 C 696.884 1308.51 697.722 1307.82 698.435 1303.56 z"/>
<path transform="translate(0,0)" fill="rgb(246,245,245)" d="M 650.99 1173.35 C 653.788 1173.06 652.455 1172.86 655.097 1174.16 L 654.747 1176.58 C 650.436 1180.72 639.706 1180.08 633.75 1180.1 C 631.442 1180.13 632.354 1180.55 630.752 1179.38 C 635.211 1175.91 645.385 1174.16 650.99 1173.35 z"/>
<path transform="translate(0,0)" fill="rgb(246,245,245)" d="M 669.069 1682.96 C 672.246 1682.92 676.327 1682.43 678.911 1683.87 C 678.827 1689.53 677.909 1686.48 677.943 1689.94 L 678.729 1690.65 L 678.07 1691.72 C 673.113 1692.65 674.546 1693.05 670.704 1691.56 C 668.33 1688.14 669.131 1687.76 669.069 1682.96 z"/>
<path transform="translate(0,0)" fill="rgb(246,245,245)" d="M 672.112 1300.5 C 673.033 1300.75 672.943 1301.01 673.814 1301.97 L 673.412 1303.95 C 669.965 1306 665.333 1306.2 661.205 1306.76 C 659.601 1306.65 660.373 1306.88 659.031 1305.6 L 659.171 1303.03 C 662.438 1301.08 668.105 1300.92 672.112 1300.5 z"/>
<path transform="translate(0,0)" fill="rgb(246,245,245)" d="M 677.972 1300.33 C 684.457 1300.48 691.917 1299.09 694.126 1305.85 C 687.329 1304.77 678.775 1307.53 677.972 1300.33 z"/>
<path transform="translate(0,0)" fill="rgb(0,0,0)" d="M 1021.72 693.887 C 1025.45 694.371 1026.61 694.3 1029.57 696.534 C 1032.51 700.791 1032.25 706.816 1032.72 712.24 C 1038.85 715.322 1051.9 717.968 1052.64 726.325 C 1053.42 734.986 1052.81 744.368 1052.61 753.112 C 1052.31 767.34 1052.12 781.57 1052.05 795.801 C 1052.14 856.238 1051.8 916.674 1051.06 977.105 C 1051.75 1130.62 1054.31 1284.12 1058.73 1437.58 L 1059.77 1526.08 C 1059.91 1536.89 1061.37 1547.83 1060.99 1558.59 C 1060.6 1569.61 1054.45 1570.74 1045.51 1571.01 C 1033.41 1565.04 1038.78 1529.07 1038.72 1515.83 C 1026.15 1516.3 1012.73 1518.98 1012.48 1501.84 C 1011.8 1454.86 1011.48 1407.75 1012.06 1360.76 C 1012.12 1356.24 1014.88 1354.42 1018.06 1351.84 C 1019.22 1340.1 1018.4 1314.8 1018.32 1302.05 C 1018.22 1268.65 1017.89 1235.25 1017.32 1201.85 L 1015.95 853.613 C 1016.02 823.88 1015.93 794.147 1015.69 764.416 C 1015.35 744.668 1014.31 724.318 1015.04 704.628 C 1015.24 699.048 1017.71 697.255 1021.72 693.887 z"/>
<path transform="translate(0,0)" fill="rgb(246,245,245)" d="M 1019.7 738.962 C 1023.36 738.479 1032.11 738.946 1035.97 739.079 C 1035.78 851.016 1033.32 962.342 1033.99 1074.59 L 1039.14 1443.78 C 1035.87 1446.63 1031.7 1446.71 1028.31 1444.01 C 1025.14 1437.89 1025.65 1393.93 1025.02 1383.68 C 1021.31 1323.68 1022.49 1263.12 1021.96 1202.99 L 1019.7 738.962 z"/>
<path transform="translate(0,0)" fill="rgb(246,245,245)" d="M 1021.63 699.384 C 1024.5 699.634 1024.48 699.469 1026.69 701.182 C 1028.55 704.762 1028.43 711.46 1028.85 716.024 C 1034.68 718.161 1048.29 721.85 1048.45 728.992 C 1048.87 748.448 1047.75 768.27 1047.75 787.78 L 1046.45 978.293 C 1046.38 1068.41 1047.54 1158.53 1049.94 1248.62 C 1051.45 1296.87 1052.49 1345.12 1053.08 1393.39 C 1037.73 1393.45 1042.44 1388.35 1042.24 1373.25 C 1041.7 1333.49 1040.55 1293.68 1040 1253.93 C 1038.02 1128.7 1037.53 1003.45 1038.53 878.216 C 1038.81 860.617 1041.87 743.431 1038.05 735.702 C 1033.34 732.899 1024.22 738.239 1019.87 732.644 C 1018.91 725.82 1018.4 705.505 1021.63 699.384 z"/>
<path transform="translate(0,0)" fill="rgb(246,245,245)" d="M 1020.04 1419.51 C 1024.01 1423.32 1022.49 1454.28 1022.64 1461.77 C 1028.31 1462.61 1033.52 1462.7 1039.21 1462.9 C 1039.63 1475.32 1040.8 1495.46 1039.33 1508.25 C 1038.54 1509.21 1037.87 1510.02 1037.32 1510.69 C 1036.67 1510.76 1036.02 1510.81 1035.37 1510.86 C 1029.18 1511.32 1022.86 1512.59 1018.14 1508.5 C 1015.52 1495.47 1016.36 1438.66 1016.16 1422.42 C 1016.14 1421.22 1018.52 1420.36 1020.04 1419.51 z"/>
<path transform="translate(0,0)" fill="rgb(246,245,245)" d="M 1054.3 1435.8 C 1054.56 1446.8 1056.15 1508.51 1054.57 1514.82 L 1052.71 1515.86 C 1049.35 1515.57 1046.95 1515.83 1044.51 1513.71 C 1043.68 1509.93 1043.67 1506.77 1043.65 1502.95 C 1043.54 1480.82 1044.33 1458.5 1043.45 1436.39 C 1046.95 1436.36 1050.93 1436.5 1054.3 1435.8 z"/>
<path transform="translate(0,0)" fill="rgb(246,245,245)" d="M 1043 1542.7 L 1055.44 1543.09 C 1056.03 1549.8 1056.36 1557.87 1055.4 1564.5 C 1051.51 1566.26 1049.39 1567.13 1045.47 1565.08 C 1041.11 1559.98 1042.74 1549.77 1043 1542.7 z"/>
<path transform="translate(0,0)" fill="rgb(246,245,245)" d="M 1017.02 1357.36 C 1018.08 1357.95 1019.46 1358.7 1019.54 1360.01 C 1020.03 1367.75 1022.96 1397.06 1019.71 1402.3 L 1016.98 1400.73 C 1014.27 1395.23 1015.06 1364.38 1017.02 1357.36 z"/>
<path transform="translate(0,0)" fill="rgb(246,245,245)" d="M 1043.13 1519.33 C 1045.98 1519.78 1051.52 1519.94 1054.63 1520.12 L 1054.93 1533.03 C 1051.24 1533.11 1047.15 1533.75 1044.26 1531.89 C 1042.33 1528.93 1043.03 1523.18 1043.13 1519.33 z"/>
<path transform="translate(0,0)" fill="rgb(246,245,245)" d="M 1028.86 1449.35 C 1035.34 1448.53 1036.15 1447.46 1040.01 1452.96 C 1040.19 1456.59 1040.52 1455.12 1038.28 1458.54 C 1034.31 1460.36 1034.03 1459.51 1028.97 1458.93 C 1026.24 1458.93 1025.57 1457.79 1024.97 1455.57 C 1028.92 1452.41 1031.4 1455.94 1035.22 1453.39 C 1032.58 1450.4 1033.12 1453.85 1028.86 1449.35 z"/>
<path transform="translate(0,0)" fill="rgb(246,245,245)" d="M 1042.95 1401.58 L 1043.06 1398.46 C 1045.61 1396.48 1044.52 1397.04 1048.2 1396.88 C 1051.7 1398.45 1053.98 1400.63 1054.49 1404.56 C 1053.02 1407.54 1053.93 1406.53 1050.97 1408.17 L 1045.18 1407.4 C 1043.86 1406.32 1043.5 1403.56 1042.95 1401.58 z"/>
<path transform="translate(0,0)" fill="rgb(246,245,245)" d="M 1050.89 1409.39 C 1052.59 1410.23 1052.48 1410.4 1053.54 1412.03 C 1054.34 1417.52 1055.06 1427.16 1052.48 1432.14 C 1051.69 1431.53 1050.81 1430.55 1050.09 1429.82 C 1049.16 1424.32 1047.92 1414.13 1050.89 1409.39 z"/>
<path transform="translate(0,0)" fill="rgb(232,231,231)" d="M 1042.95 1401.58 C 1043.5 1403.56 1043.86 1406.32 1045.18 1407.4 C 1045.53 1413.29 1046.97 1429.45 1045.14 1434.03 C 1047.62 1435.97 1050.55 1435.02 1054.3 1435.8 C 1050.93 1436.5 1046.95 1436.36 1043.45 1436.39 C 1042.93 1425.05 1043.03 1412.99 1042.95 1401.58 z"/>
<path transform="translate(0,0)" fill="rgb(246,245,245)" d="M 1015.91 1404.59 C 1018.57 1404.81 1018.51 1404.75 1020.92 1405.81 C 1023.11 1409.29 1022.46 1413.74 1022.42 1418.11 C 1020.92 1417.88 1019.32 1417.55 1017.82 1417.27 C 1015.15 1413.57 1015.9 1409.48 1015.91 1404.59 z"/>
</svg>