<svg version="1.1" xmlns="http://www.w3.org/2000/svg" style="display: block;" viewBox="0 0 2048 2048" width="1024" height="1024" preserveAspectRatio="none">
<defs>
	<linearGradient id="Gradient1" gradientUnits="userSpaceOnUse" x1="809.623" y1="814.647" x2="860.246" y2="840.216">
		<stop class="stop0" offset="0" stop-opacity="0" stop-color="rgb(0,0,0)"/>
		<stop class="stop1" offset="1" stop-opacity="0.0313725" stop-color="rgb(0,0,1)"/>
	</linearGradient>
	<linearGradient id="Gradient2" gradientUnits="userSpaceOnUse" x1="723.839" y1="1588.84" x2="700.708" y2="1575.9">
		<stop class="stop0" offset="0" stop-opacity="1" stop-color="rgb(140,140,140)"/>
		<stop class="stop1" offset="1" stop-opacity="1" stop-color="rgb(168,168,168)"/>
	</linearGradient>
	<linearGradient id="Gradient3" gradientUnits="userSpaceOnUse" x1="720.49" y1="1327.31" x2="700.713" y2="1294.36">
		<stop class="stop0" offset="0" stop-opacity="1" stop-color="rgb(185,185,189)"/>
		<stop class="stop1" offset="1" stop-opacity="1" stop-color="rgb(228,225,226)"/>
	</linearGradient>
	<linearGradient id="Gradient4" gradientUnits="userSpaceOnUse" x1="813.493" y1="1430.88" x2="807.041" y2="1421.43">
		<stop class="stop0" offset="0" stop-opacity="1" stop-color="rgb(145,146,144)"/>
		<stop class="stop1" offset="1" stop-opacity="1" stop-color="rgb(105,105,108)"/>
	</linearGradient>
	<linearGradient id="Gradient5" gradientUnits="userSpaceOnUse" x1="1029.82" y1="1402.41" x2="644.025" y2="1512.04">
		<stop class="stop0" offset="0" stop-opacity="1" stop-color="rgb(160,159,162)"/>
		<stop class="stop1" offset="1" stop-opacity="1" stop-color="rgb(230,229,229)"/>
	</linearGradient>
	<linearGradient id="Gradient6" gradientUnits="userSpaceOnUse" x1="642.231" y1="1573.14" x2="617.847" y2="1551.64">
		<stop class="stop0" offset="0" stop-opacity="1" stop-color="rgb(194,192,194)"/>
		<stop class="stop1" offset="1" stop-opacity="1" stop-color="rgb(240,240,240)"/>
	</linearGradient>
	<linearGradient id="Gradient7" gradientUnits="userSpaceOnUse" x1="687.61" y1="1071.17" x2="717.433" y2="1069.68">
		<stop class="stop0" offset="0" stop-opacity="1" stop-color="rgb(212,210,212)"/>
		<stop class="stop1" offset="1" stop-opacity="1" stop-color="rgb(162,161,163)"/>
	</linearGradient>
</defs>
<path transform="translate(0,0)" fill="rgb(1,0,1)" d="M 1762.26 242.058 C 1763.75 235.741 1765.47 227.564 1771.73 224.802 C 1789.72 216.872 1792.95 231.175 1789.2 244.568 C 1784.27 247.506 1780.68 249.888 1776.01 253.148 C 1780.8 251.227 1785.61 249.364 1790.44 247.559 L 1796.97 245.877 C 1808.08 243.079 1824.08 241.863 1835.44 243.334 C 1874.02 248.333 1903.39 290.749 1881.13 326.969 C 1857.27 365.791 1805.8 346.412 1774.95 372.309 C 1742.51 399.551 1724.67 440.778 1699.09 473.837 C 1696.47 477.251 1700.01 485.245 1693.2 488.302 C 1687.92 491.571 1686.06 492.876 1679.32 491.73 C 1665 489.295 1650.97 486.227 1636.5 484.849 C 1607.1 481.693 1576.66 491.575 1553.44 509.594 C 1543.15 517.574 1534.14 527.169 1524.44 535.891 C 1489.45 567.335 1452.63 597.026 1417.19 627.822 L 1155.06 858.637 C 1101.13 905.967 1047.15 954.315 994.5 1003.17 C 991.817 1005.66 991.907 1011.5 991.616 1015.25 C 969.838 1037.11 920.765 1075.02 908.316 1096.94 C 903.56 1105.33 901.103 1114.82 901.193 1124.46 C 901.414 1158.23 947.269 1177.64 976.066 1175.78 C 990.864 1174.82 1005.62 1169.89 1018.72 1162.57 C 1039.74 1149.62 1069.7 1122.85 1094.75 1146.28 C 1103.92 1155.02 1109.29 1167.02 1109.69 1179.69 C 1110.54 1211.39 1086.47 1240.11 1067.21 1262.64 C 1012.03 1327.18 923.677 1327.89 862.368 1378.77 C 824.315 1410.36 800.741 1469.69 777.449 1512.08 C 725.851 1608.71 651.139 1707.99 530.862 1708.27 C 420.025 1708.52 332.603 1627.55 268.502 1545.43 C 264.042 1539.72 254.451 1524.15 248.841 1521.59 C 245.952 1525.46 244.438 1528.47 239.129 1528.56 C 217.679 1528.91 214.404 1507.82 231.576 1496.58 L 231.058 1495.22 C 226.959 1484.74 220.498 1474.98 215.156 1464.81 C 181.498 1400.78 151.44 1328.97 148.595 1255.83 C 147.384 1224.68 155.921 1187.08 167.811 1158.46 C 206.747 1064.74 309.214 1023.46 402.422 1006.37 C 452.536 997.173 502.023 986.485 545.205 957.905 C 594.042 925.819 619.546 876.862 650.26 829.418 C 691.835 767.411 779.639 666.919 866.371 692.279 C 871.56 693.797 879.683 706.37 883.227 710.659 C 890.733 712.312 901.996 701.847 905.93 713.67 C 909.686 725.792 888.38 732.202 882.066 739.075 C 878.065 743.43 874.361 748.48 871.439 753.434 C 861.802 769.771 848.363 782.217 836.346 796.785 C 806.826 832.567 806.938 890.085 845.24 919.627 C 851.218 924.239 859.364 926.2 865.875 930.565 C 876.734 923.527 894.55 907.638 905.429 898.886 L 1008.72 814.187 L 1323.06 560.682 C 1355.87 533.715 1388.39 506.389 1420.6 478.709 C 1441.26 461.1 1465.35 439.396 1487.41 424.003 C 1480.02 383.876 1526.86 378.485 1528.12 369.41 C 1522.54 366.816 1519.31 367.282 1517.56 362.014 C 1516.11 357.651 1516.56 352.876 1518.82 348.866 C 1526.48 335.483 1556.88 341.756 1541.76 362.209 C 1544.67 362.773 1598.66 336.873 1606.48 333.092 C 1620.94 326.063 1639.82 319.527 1653.07 310.557 C 1660.13 307.556 1670.25 301.89 1677.47 298.221 C 1682.59 294.921 1701.28 286.943 1708.43 283.607 C 1713.65 281.619 1719.26 278.96 1724.41 276.666 L 1716.79 272.695 C 1711.35 265.834 1711.14 265.887 1711.94 257.099 C 1717.15 251.348 1719.82 250.116 1726.69 247.185 C 1738.61 251.486 1744.45 254.884 1739.18 267.985 L 1738.62 269.366 L 1739.1 270.379 C 1747.71 265.003 1764.65 258.103 1774.88 253.246 C 1768.08 249.192 1767.1 248.473 1762.26 242.058 z M 196.345 1136.89 C 201.376 1140.76 198.741 1143.25 199.189 1149.04 C 199.01 1156.51 185.816 1194.05 182.992 1208.13 C 177.912 1233.45 181.134 1249.42 178.623 1270.16 C 176.654 1293.81 168.814 1291.49 173.029 1319.46 C 173.393 1320.98 175.135 1328.7 175.55 1329.65 C 202.414 1420.45 289.28 1544.17 360.058 1606.95 C 377.052 1621.74 395.549 1634.71 415.245 1645.65 C 455.797 1667.7 491.878 1677.54 538.214 1676.34 C 581.541 1675.21 605.328 1666.25 642.124 1643 C 647.178 1636.34 662.808 1621.87 663.878 1615.61 C 661.698 1613.56 655.945 1612.12 652.366 1609.8 C 635.033 1625.95 585.225 1644.06 575.125 1610.34 C 558.003 1553.19 576.639 1486.16 552.815 1429.53 C 550.079 1423.03 539.566 1396.98 536.926 1395.16 C 524.566 1388.63 483.004 1430.18 472.768 1423.97 C 452.029 1411.37 423.929 1368.54 409.348 1349.31 C 393.649 1328.6 371.789 1300.84 372.06 1276.13 C 372.177 1265.52 401.225 1247.78 410.386 1241.7 C 405.849 1228.07 405.025 1205.31 407.361 1191.01 C 416.947 1132.3 469.933 1098.97 521.616 1080.01 C 546.484 1071.27 572.209 1064.8 597.26 1056.69 C 650.776 1039.36 696.432 1006.18 735.177 965.865 C 776.658 922.699 780.819 910.89 814.646 970.217 C 820.824 966.163 854.226 942.531 856.725 938.253 C 853.058 935.482 851.245 935.293 847.365 933.408 C 778.319 899.874 782.758 813.337 833.188 765.06 C 848.637 750.27 898.566 712.393 857.389 697.974 C 842.498 692.76 820.372 697.152 805.591 701.857 C 739.291 724.675 691.278 783.906 652.787 839.805 C 622.72 887.949 594.484 936.36 544.985 967.456 C 465.468 1017.41 367.267 1008.67 284.776 1052.28 C 250.781 1070.25 211.34 1094.92 198.818 1133.45 C 198.583 1133.83 198.349 1134.21 198.114 1134.59 L 196.345 1136.89 z M 828.735 1252.49 C 813.51 1304.17 728.558 1328.05 682.995 1341.53 C 669.384 1345.56 655.605 1348.47 642.107 1353.51 L 640.315 1354.19 C 640.834 1354.73 641.345 1355.28 641.847 1355.83 C 652.575 1367.76 653.053 1382.75 640.297 1393.63 C 629.316 1402.99 609.252 1401.02 600.795 1389.08 C 594.794 1380.62 595.671 1373.53 596.963 1363.96 C 586.368 1370.22 549.32 1382.84 546.293 1387.94 C 549.697 1391.04 549.365 1389.8 550.096 1393.53 L 549.182 1396.32 C 557.795 1414.55 568.065 1431.28 572.104 1451.28 C 581.313 1496.88 578.649 1543.31 593.413 1588.07 C 599.046 1605.15 603.81 1607.77 618.094 1617.46 C 681.435 1609.73 738.15 1460.19 765.611 1409 C 806.62 1332.57 857.611 1301.7 940.859 1280.05 C 988.711 1267.61 1049.54 1240.03 1062.56 1186.62 L 1062.12 1185.05 C 1060.65 1179.82 1060.48 1176.6 1055.75 1173.96 C 1050.37 1174.25 1019.08 1192.54 1010.14 1196.21 C 983.005 1207.47 952.475 1207.3 925.471 1195.73 C 893.103 1182.18 860.682 1151.4 847.213 1118.82 C 844.298 1119.78 840.472 1120.6 837.435 1121.35 C 832.011 1117.94 824.755 1112.18 819.145 1104.89 C 799.447 1079.29 777.64 1053.72 757.628 1028.34 C 757.502 1028.18 757.061 1019.66 757.274 1018.63 C 759.067 1009.93 770.234 1005.16 775.376 1000.78 C 782.313 994.863 805.005 982.72 806.394 974.808 L 804.056 975.324 C 803.925 969.541 796.682 962.201 793.442 957.292 C 786.591 946.911 787.766 939.556 773.985 938.256 C 766.405 942.359 734.035 977.489 724.566 986.719 C 707.142 1003.92 687.989 1019.27 667.413 1032.53 C 646.502 1045.59 624.127 1056.14 600.75 1063.97 C 539.916 1084.82 470.933 1093.53 430.48 1153.83 C 412.794 1180.2 412.005 1205.9 418.492 1235.9 C 429.207 1227.6 452.018 1210.53 462.331 1227.67 C 486.646 1268.07 512.382 1306.78 540.441 1344.69 C 545.927 1352.1 548.727 1361.51 553.322 1369.19 C 559.48 1367.96 568.206 1363.22 574.398 1360.78 C 589.162 1355 603.186 1348.8 618.087 1343.2 C 681.317 1319.47 751.475 1306.59 803.175 1259.84 C 808.466 1255.06 816.516 1242.76 822.429 1240.38 L 824.263 1241.26 C 826.963 1244.83 827.503 1248.15 828.735 1252.49 z M 1556.21 490.038 C 1587.34 474.226 1603.2 464.053 1639.29 468.648 C 1648.66 469.841 1661.77 471.673 1671.04 472.296 C 1701.89 455.31 1731.47 390.958 1763.86 365.553 C 1790.99 339.097 1832.13 351.894 1860.23 329.331 C 1894.01 302.202 1872 259.823 1832.25 256.357 C 1801.09 252.809 1790 267.433 1764.45 281.26 C 1760.63 283.327 1750.16 288.686 1747.74 291.347 C 1748.54 293.34 1748.17 292.521 1748.84 293.892 C 1747.98 295.567 1748.12 294.921 1748.1 295.942 C 1764.27 306.016 1749.17 318.3 1735.18 319.865 C 1725.38 313.337 1726.37 312.306 1724.97 300.916 L 1722.96 300.639 L 1721.31 302.154 L 1721.55 306.049 C 1720.33 306.444 1721.15 306.319 1719.13 305.531 C 1713.34 309.299 1707.91 310.503 1702.39 314.274 C 1697.88 317.354 1698.4 322.123 1693.38 324.296 C 1695.98 330.081 1698.96 333.226 1695.98 340.083 C 1679.4 357.441 1660.92 341.91 1671.57 325.523 C 1658.58 332.939 1645.78 338.627 1633.48 347.236 C 1633.57 354.145 1659.8 381.327 1662.69 401.22 C 1652.59 408.761 1649.04 409.566 1637.35 414.347 C 1632.89 418.467 1627.84 424.08 1623.8 428.702 C 1603.76 451.617 1577.72 469.034 1556.21 490.038 z M 498.62 1395.12 C 502.172 1393.87 505.323 1392.83 508.742 1391.26 C 514.215 1389.39 520.024 1387.62 525.192 1385.09 C 516.954 1378.11 508.304 1365.24 501.351 1356.45 C 485.643 1336.6 470.786 1315.86 455.718 1295.52 C 450.268 1288.16 434.955 1262.76 427.46 1261.76 C 422.173 1265.45 414.611 1269.83 412.265 1275.68 C 411.677 1302.19 479.355 1373.11 498.62 1395.12 z M 865.2 746.197 L 863.754 745.898 C 845.406 763.951 825.655 780.344 813.711 804.226 C 797.796 836.047 798.9 879.109 821.219 907.776 C 822.217 909.058 824.975 911.067 826.719 911.248 C 808.583 886.119 807.091 868.475 809.34 839.735 C 812.663 797.248 860.035 768.275 865.2 746.197 z M 788.941 939.023 C 793.014 945.572 806.21 972.568 810.539 975.319 C 807.745 966.166 796.559 944.529 788.941 939.023 z"/>
<path transform="translate(0,0)" fill="rgb(1,0,1)" d="M 591.542 1151.09 L 591.655 1152.3 C 587.728 1157.87 550.283 1186.59 542.535 1192.54 C 561.44 1227.31 578.169 1263.08 599.676 1296.65 C 600.465 1297.88 600.54 1304.35 599.78 1305.65 C 572.467 1352.58 545.502 1290.19 533.047 1268.51 C 525.377 1254.9 517.73 1239.24 509.23 1226.46 C 504.707 1232.68 489.159 1242.34 482.404 1246.32 L 481.976 1245.88 C 490.816 1237.89 499.635 1232.57 508.632 1225.12 C 496.263 1200.49 480.111 1177.24 515.344 1164.18 C 521.964 1165.72 524.026 1166.26 530.404 1168.94 C 536.378 1176.31 538.655 1182.26 541.847 1190.99 C 559.545 1174.24 573.71 1165.89 591.542 1151.09 z"/>
<path transform="translate(0,0)" fill="rgb(213,212,213)" d="M 514.485 1171.91 C 528.18 1171.88 534.325 1187.84 538.915 1199.04 C 553.39 1234.37 574.194 1265.59 592.488 1298.74 C 597.236 1307.34 585.297 1313.18 578.447 1314.95 C 575.604 1314.5 572.216 1314.18 569.553 1313.12 C 563.011 1310.53 512.126 1218.18 506.278 1205.48 C 503.935 1200.39 497.826 1187.13 500.356 1181.93 C 502.948 1176.59 509.368 1174.12 514.485 1171.91 z"/>
<path transform="translate(0,0)" fill="rgb(169,168,170)" d="M 535.455 1204.56 L 537.463 1204.76 L 537.36 1206.22 L 532.654 1210.02 C 531.522 1210.84 532.231 1210.47 530.411 1210.9 C 531.385 1207.98 533.205 1206.71 535.455 1204.56 z"/>
<path transform="translate(0,0)" fill="rgb(1,0,1)" d="M 692.677 1028.25 C 711.703 1026.96 716.05 1041 726.092 1055.27 C 734.452 1067.22 742.994 1079.04 751.714 1090.73 C 764.715 1108.23 780.111 1126.65 792.553 1144.6 C 794.255 1147.05 793.213 1156.45 791.461 1159.78 C 787.276 1167.74 781.778 1170.63 773.803 1173.68 C 768.706 1174.03 764.821 1173.48 760.517 1170.52 C 749.506 1162.95 693.502 1088.08 684.76 1074.06 C 680.78 1067.68 676.506 1059.55 675.237 1052.08 C 673.983 1044.69 678.445 1038.91 682.363 1033.18 C 685.812 1031.56 689.25 1029.92 692.677 1028.25 z"/>
<path transform="translate(0,0)" fill="rgb(213,212,213)" d="M 684.958 1040.16 C 693.704 1034.51 699.014 1031.57 707.054 1040.16 C 727.218 1066.12 744.259 1095.68 765.905 1121.05 C 771.632 1127.76 782.396 1140.63 786.104 1148.24 C 785.54 1157.69 785.138 1160.38 776.542 1164.88 C 771.112 1167.19 765.738 1167.34 761.733 1162.66 C 740.871 1138.26 719.646 1110.49 700.716 1084.78 C 693.2 1075.34 689.49 1068.94 684.75 1058.05 C 681.181 1050.2 680.83 1047.68 684.958 1040.16 z"/>
<path transform="translate(0,0)" fill="url(#Gradient7)" d="M 684.958 1040.16 C 693.704 1034.51 699.014 1031.57 707.054 1040.16 C 704.5 1044.96 700.61 1051.9 697.002 1055.93 C 699.559 1060.71 705.024 1071.83 709.602 1074.37 L 718.173 1069.78 L 718.931 1070.33 C 718.573 1075.6 718.012 1076.79 720.769 1081.26 C 718.45 1089.16 715.068 1083.07 715.842 1094.87 C 712.099 1090.72 708.441 1083.7 705.408 1081.64 C 702.006 1082.02 703.68 1081.42 700.716 1084.78 C 693.2 1075.34 689.49 1068.94 684.75 1058.05 C 681.181 1050.2 680.83 1047.68 684.958 1040.16 z"/>
<path transform="translate(0,0)" fill="rgb(235,234,234)" d="M 684.958 1040.16 C 693.704 1034.51 699.014 1031.57 707.054 1040.16 C 704.5 1044.96 700.61 1051.9 697.002 1055.93 C 695.659 1054.05 694.449 1052.6 692.987 1050.82 L 691.474 1052.47 L 690.051 1051.89 C 684.591 1057.8 688.799 1056.64 684.75 1058.05 C 681.181 1050.2 680.83 1047.68 684.958 1040.16 z"/>
<path transform="translate(0,0)" fill="rgb(213,212,213)" d="M 684.958 1040.16 C 689.092 1044.57 690.058 1045.59 692.987 1050.82 L 691.474 1052.47 L 690.051 1051.89 C 684.591 1057.8 688.799 1056.64 684.75 1058.05 C 681.181 1050.2 680.83 1047.68 684.958 1040.16 z"/>
<path transform="translate(0,0)" fill="rgb(197,196,198)" d="M 720.769 1081.26 C 721.714 1085.36 718.428 1086.76 717.246 1092.39 L 718.565 1093.47 C 721.147 1091.2 724.923 1087.2 728.032 1086.66 C 730.082 1088.38 729.516 1087.6 730.426 1090.12 L 733.402 1090.53 L 733.419 1091.49 C 728.825 1094.83 725.548 1093.72 725.297 1098.9 L 723.023 1098.42 L 722.674 1099.76 L 719.854 1100.18 C 720.475 1100.91 721.24 1100.85 722.525 1101.2 L 721.463 1101.96 C 718.701 1099.38 717.907 1097.94 715.842 1094.87 C 715.068 1083.07 718.45 1089.16 720.769 1081.26 z"/>
<path transform="translate(0,0)" fill="rgb(197,196,198)" d="M 786.104 1148.24 C 785.54 1157.69 785.138 1160.38 776.542 1164.88 C 776.023 1154.89 778.779 1153.69 786.104 1148.24 z"/>
<path transform="translate(0,0)" fill="rgb(197,196,198)" d="M 755.776 1132.61 C 760.403 1134.3 763.824 1138.1 765.465 1142.71 C 764.784 1142.61 764.102 1142.5 763.42 1142.4 C 760.015 1138.54 758.51 1136.89 755.776 1132.61 z"/>
<path transform="translate(0,0)" fill="rgb(1,0,1)" d="M 600.48 1098.13 C 624.557 1097.22 627.908 1120.36 638.676 1137.6 C 655.709 1165.29 675.392 1191.25 697.447 1215.13 C 701.198 1230.19 697.254 1237.51 682.091 1241.92 L 680.635 1242.02 C 673.745 1242.57 662.641 1241.42 657.993 1236.19 C 636.174 1211.66 585.736 1145.89 581.411 1116.68 C 582.031 1115.15 582.697 1113.65 583.406 1112.16 C 587.602 1103.3 591.614 1101.29 600.48 1098.13 z"/>
<path transform="translate(0,0)" fill="rgb(213,212,213)" d="M 594.276 1136.21 C 589.021 1127.5 584.907 1113.42 595.917 1107.17 C 600.242 1104.68 605.423 1104.16 610.154 1105.74 C 618.175 1108.39 630.095 1136.23 635.356 1144.54 C 645.404 1160.42 654.566 1175.15 666.27 1190.16 C 673.557 1199.51 683.925 1208.97 689.664 1218.96 C 693.117 1224.97 689.937 1234.41 682.451 1235.23 C 662.994 1238.23 652.014 1220.04 642.052 1206.71 C 639.725 1203.59 634.734 1197.47 633.487 1194.16 C 630.55 1191.08 596.719 1141.09 594.276 1136.21 z"/>
<path transform="translate(0,0)" fill="rgb(197,196,198)" d="M 594.276 1136.21 C 600.443 1140.86 601.055 1145.03 605.591 1148.63 L 611.557 1146.14 C 615.725 1149.92 629.143 1165.19 629.513 1170.53 C 627.935 1173.26 627.066 1173.38 624.31 1174.97 C 623.477 1181.48 632.209 1185.07 633.487 1194.16 C 630.55 1191.08 596.719 1141.09 594.276 1136.21 z"/>
<path transform="translate(0,0)" fill="rgb(197,196,198)" d="M 668.632 1201.94 L 669.919 1202.25 C 668.428 1205.63 664.774 1207.49 661.411 1210.03 L 660.145 1209.54 C 662.099 1206.23 665.471 1204.24 668.632 1201.94 z"/>
<path transform="translate(0,0)" fill="rgb(197,196,198)" d="M 598.486 1130.49 C 601.721 1132.08 605.826 1137.42 606.019 1140.99 L 603.921 1141.38 C 602.141 1137.73 600.329 1134.1 598.486 1130.49 z"/>
<path transform="translate(0,0)" fill="rgb(169,168,170)" d="M 623.797 1134.03 L 623.828 1134.79 C 622.53 1137.81 618.539 1141.01 616.006 1143.38 L 615.851 1142.45 C 617.41 1139.09 620.93 1136.55 623.797 1134.03 z"/>
<path transform="translate(0,0)" fill="rgb(197,196,198)" d="M 610.871 1118.86 L 611.694 1119.87 C 611.075 1123.14 610.459 1123.37 608.252 1125.87 C 607.277 1125.25 607.731 1125.72 607.274 1124.18 L 610.871 1118.86 z"/>
<path transform="translate(0,0)" fill="rgb(1,0,1)" d="M 622.2 1540.12 C 635.845 1539.36 648.857 1541.5 654.665 1556.01 C 656.837 1561.36 656.603 1567.39 654.023 1572.55 C 650.572 1579.35 644.043 1583.49 637.096 1585.97 C 617.801 1589.38 608.677 1583.45 603.455 1564.96 C 606.938 1550.19 608.357 1546.8 622.2 1540.12 z"/>
<path transform="translate(0,0)" fill="url(#Gradient6)" d="M 611.101 1568.2 C 608.941 1539.56 646.205 1541.19 649.311 1562.55 C 650.662 1571.85 639.379 1582.32 629.049 1581.99 C 618.863 1579.37 615.798 1577.82 611.101 1568.2 z"/>
<path transform="translate(0,0)" fill="rgb(197,196,198)" d="M 611.101 1568.2 C 614.923 1568.49 621.012 1566.61 622.676 1568.02 C 623.281 1572.38 622.616 1573.14 624.983 1575.88 C 626.869 1576.07 628.758 1576.24 630.65 1576.38 C 628.953 1578.16 629.128 1578.14 626.784 1578.81 C 627.278 1581.15 626.851 1580.01 629.049 1581.99 C 618.863 1579.37 615.798 1577.82 611.101 1568.2 z"/>
<path transform="translate(0,0)" fill="rgb(1,0,1)" d="M 641.105 1440.82 C 654.547 1439.6 666.429 1449.52 667.632 1462.97 C 668.835 1476.41 658.903 1488.28 645.458 1489.47 C 638.779 1490.06 632.152 1487.87 627.13 1483.43 C 622.109 1478.99 619.135 1472.68 618.906 1465.98 C 618.464 1453.03 628.206 1441.99 641.105 1440.82 z"/>
<path transform="translate(0,0)" fill="rgb(213,212,213)" d="M 625.307 1461.44 C 629.303 1450.04 634.453 1447.92 646.058 1448.27 C 655.023 1451.63 657.54 1452.66 659.647 1462.13 C 661.92 1479.29 628.057 1491 625.307 1461.44 z"/>
<path transform="translate(0,0)" fill="rgb(235,234,234)" d="M 646.058 1448.27 C 655.023 1451.63 657.54 1452.66 659.647 1462.13 C 651.254 1464.24 649.828 1464.7 646.914 1473.17 L 645.502 1473.25 L 642.447 1469.87 C 640.023 1470.4 639.429 1470.44 636.937 1470.57 L 636.157 1468.97 C 638.637 1464.77 644.173 1463.95 648.141 1458.42 L 648.08 1457.01 L 646.058 1448.27 z"/>
<path transform="translate(0,0)" fill="rgb(245,245,245)" d="M 625.307 1461.44 C 629.303 1450.04 634.453 1447.92 646.058 1448.27 L 648.08 1457.01 C 639.784 1463.38 636.232 1461.44 625.307 1461.44 z"/>
<path transform="translate(0,0)" fill="rgb(148,147,148)" d="M 652.489 1479.46 C 653.544 1479.3 652.867 1479.29 654.362 1480.25 C 652.665 1484.99 646.842 1487.04 642.101 1486.09 C 639.569 1485.44 639.564 1485.38 637.271 1484.08 C 644.468 1483.31 647.039 1483.76 652.489 1479.46 z"/>
<path transform="translate(0,0)" fill="rgb(1,0,1)" d="M 720.077 1355.88 C 725.504 1355.85 729.399 1356.63 734.72 1357.47 C 740.506 1368.37 740.483 1372.77 731.842 1381.86 C 726.857 1382.37 723.227 1381.71 718.276 1381.14 L 712.219 1373.88 C 713.299 1363.98 713.179 1362.46 720.077 1355.88 z"/>
<path transform="translate(0,0)" fill="rgb(235,234,234)" d="M 724.267 1362.57 C 734.786 1365.32 734.329 1370.8 728.36 1378.3 C 722.668 1376.35 718.672 1375.21 718.35 1368.6 C 720.123 1364.84 720.541 1364.81 724.267 1362.57 z"/>
<path transform="translate(0,0)" fill="rgb(1,0,1)" d="M 712.1 1402.83 C 728.819 1403.91 733.262 1421.28 714.686 1428.68 C 697.422 1426.63 694.352 1408.96 712.1 1402.83 z"/>
<path transform="translate(0,0)" fill="rgb(235,234,234)" d="M 709.448 1409.38 C 713.827 1411.48 712.936 1414.98 716.616 1415.68 C 715.544 1412.99 715.437 1413.11 714.928 1410.33 C 718.159 1412.37 718.301 1412.91 720.27 1416.05 C 719.35 1419.04 719.204 1419.23 717.634 1421.96 C 713.939 1424.16 715.871 1423.68 711.651 1423.53 C 705.28 1419.38 706.864 1415.06 709.448 1409.38 z"/>
<path transform="translate(0,0)" fill="rgb(1,0,1)" fill-opacity="0.768627" d="M 695.872 1098.03 C 694.93 1102.18 656.596 1131.59 649.967 1137.35 L 649.789 1136.45 C 651.936 1131.8 689.115 1102.46 695.872 1098.03 z"/>
<path transform="translate(0,0)" fill="rgb(1,0,1)" fill-opacity="0.917647" d="M 666.574 1088.1 L 668.402 1089.55 C 662.504 1092.41 643.823 1108.65 636.343 1113.81 L 635.419 1113.75 L 634.143 1115.08 L 634.001 1115.02 L 635.858 1113.66 L 635.759 1112.93 C 641.283 1107.72 660.668 1091.49 666.574 1088.1 z"/>
<path transform="translate(0,0)" fill="rgb(104,103,105)" fill-opacity="0.0980392" d="M 591.439 1202.86 L 592.617 1203.48 C 590.448 1206.96 583.317 1211.88 579.442 1213.53 L 578.959 1213.62 L 578.568 1212.74 C 582.715 1208.65 586.677 1206.13 591.439 1202.86 z"/>
<path transform="translate(0,0)" fill="rgb(1,0,1)" fill-opacity="0.807843" d="M 666.574 1088.1 C 669.873 1086.06 677.363 1080.79 680.472 1079.95 C 677.301 1082.95 672.252 1087.64 668.402 1089.55 L 666.574 1088.1 z"/>
<path transform="translate(0,0)" fill="rgb(1,0,1)" d="M 1790.58 278.801 C 1808.41 282.471 1808.47 300.458 1788.46 305.108 C 1785.39 304.064 1782.41 301.954 1779.64 300.207 C 1778.06 297.077 1776.44 293.969 1774.79 290.883 C 1779.9 285.123 1782.99 281.067 1790.58 278.801 z"/>
<path transform="translate(0,0)" fill="rgb(235,234,234)" d="M 1791.04 285.332 C 1794.89 285.759 1797.67 289.221 1797.25 293.073 C 1796.83 296.925 1793.38 299.713 1789.52 299.305 C 1785.66 298.895 1782.86 295.425 1783.28 291.56 C 1783.7 287.695 1787.17 284.904 1791.04 285.332 z"/>
<path transform="translate(0,0)" fill="rgb(245,245,245)" d="M 863.09 1107.72 C 869.23 1103.14 893.602 1082.11 897.95 1080.93 L 898.776 1082.09 C 896.996 1088.02 894.784 1091.11 890.402 1095.26 C 882.427 1102.81 885.98 1118.4 887.806 1128.54 C 893.287 1141.56 899.16 1150.42 909.716 1159.77 C 912.65 1162.37 916.363 1164.85 918.819 1167.67 C 928.79 1172.25 938.969 1177.58 949.583 1180.23 C 974.022 1186.24 999.842 1182.52 1021.59 1169.85 C 1043.48 1156.86 1076.96 1126.12 1096.62 1162.91 C 1102.17 1180.19 1099.61 1192.55 1090.52 1207.87 C 1080.55 1234.75 1045.82 1266.63 1021.58 1280.87 C 946.021 1325.22 878.344 1301.27 819.646 1380.81 C 811.634 1395.89 801.146 1409.55 793.053 1424 C 785.609 1437.3 778.452 1453.18 771.205 1467.08 C 766.534 1475.97 762.054 1484.53 756.976 1493.21 C 744.999 1516.26 735.685 1531.92 721.971 1554.03 L 723.605 1555.54 C 720.497 1559.69 711.245 1573.35 707.738 1574.9 C 696.557 1583.64 683.585 1603.6 672.106 1613.54 C 671.586 1613.99 671.349 1618.85 671.372 1619.92 C 665.947 1624.23 657.74 1629.76 655.023 1635.7 C 651.225 1638.6 646.796 1642.75 642.124 1643 C 647.178 1636.34 662.808 1621.87 663.878 1615.61 C 661.698 1613.56 655.945 1612.12 652.366 1609.8 C 654.772 1606.79 666.903 1595.92 671.412 1590.74 C 686.079 1573.88 697.337 1557.47 708.563 1538.35 C 755.677 1458.11 773.497 1364.03 862.375 1316.51 C 906.797 1292.76 954.886 1287.64 999.68 1265.65 C 1024.84 1253.3 1051.9 1232.04 1063.6 1205.79 C 1067.64 1196.74 1069.41 1187.91 1072.52 1178.53 C 1071.28 1176.94 1069.98 1175.4 1068.63 1173.9 C 1051.87 1155.51 1027.03 1183.24 1009.47 1189.8 C 955.812 1209.85 912.595 1189.62 875.479 1149.4 L 873.462 1146.92 L 864.921 1136.47 L 859.814 1129.47 C 856.73 1123.74 855.716 1121.56 851.269 1116.57 L 863.09 1107.72 z"/>
<path transform="translate(0,0)" fill="rgb(197,196,198)" d="M 863.09 1107.72 C 869.23 1103.14 893.602 1082.11 897.95 1080.93 L 898.776 1082.09 C 896.996 1088.02 894.784 1091.11 890.402 1095.26 C 882.427 1102.81 885.98 1118.4 887.806 1128.54 C 883.978 1128.83 884.215 1129.47 881.578 1127.81 C 880.101 1120.46 882.091 1120.74 881.071 1113.89 L 879.74 1113.42 L 877.208 1115.31 C 876.433 1118.79 876.232 1121.98 873.829 1124.39 L 872.141 1124.74 C 865.665 1128.88 866.155 1128.57 864.921 1136.47 L 859.814 1129.47 C 856.73 1123.74 855.716 1121.56 851.269 1116.57 L 863.09 1107.72 z"/>
<path transform="translate(0,0)" fill="rgb(169,168,170)" d="M 863.09 1107.72 C 866.324 1112.68 865.987 1126.39 859.814 1129.47 C 856.73 1123.74 855.716 1121.56 851.269 1116.57 L 863.09 1107.72 z"/>
<path transform="translate(0,0)" fill="rgb(213,212,213)" d="M 872.141 1124.74 L 872.455 1122.81 C 868.268 1121.83 868.262 1122.08 865.476 1119.01 L 865.565 1117.33 C 867.982 1116.06 874.082 1115.79 877.208 1115.31 C 876.433 1118.79 876.232 1121.98 873.829 1124.39 L 872.141 1124.74 z"/>
<path transform="translate(0,0)" fill="rgb(235,234,234)" d="M 877.208 1115.31 L 879.74 1113.42 L 881.071 1113.89 C 882.091 1120.74 880.101 1120.46 881.578 1127.81 C 884.215 1129.47 883.978 1128.83 887.806 1128.54 C 893.287 1141.56 899.16 1150.42 909.716 1159.77 C 912.65 1162.37 916.363 1164.85 918.819 1167.67 C 912.03 1168.83 897.942 1150.01 893.293 1145.24 C 891.114 1144.48 889.322 1143.85 887.916 1143.35 C 882.87 1145.41 880.158 1146.41 875.479 1149.4 L 873.462 1146.92 L 864.921 1136.47 C 866.155 1128.57 865.665 1128.88 872.141 1124.74 L 873.829 1124.39 C 876.232 1121.98 876.433 1118.79 877.208 1115.31 z"/>
<path transform="translate(0,0)" fill="rgb(197,196,198)" d="M 873.462 1146.92 C 876.857 1143.4 883.099 1140.03 887.87 1142.5 L 888.131 1142.36 L 887.916 1143.35 C 882.87 1145.41 880.158 1146.41 875.479 1149.4 L 873.462 1146.92 z"/>
<path transform="translate(0,0)" fill="rgb(197,196,198)" d="M 769.776 1459.73 C 777.643 1443.93 804.382 1386.16 819.646 1380.81 C 811.634 1395.89 801.146 1409.55 793.053 1424 C 785.609 1437.3 778.452 1453.18 771.205 1467.08 L 769.776 1459.73 z"/>
<path transform="translate(0,0)" fill="rgb(213,212,213)" d="M 1096.62 1162.91 C 1102.17 1180.19 1099.61 1192.55 1090.52 1207.87 L 1089.94 1204.85 C 1094.48 1195.77 1096.96 1190.58 1094.31 1180.37 C 1093.77 1177.7 1096.54 1168.8 1096.62 1162.91 z"/>
<path transform="translate(0,0)" fill="rgb(213,212,213)" d="M 756.976 1493.21 C 757.107 1482.47 764.231 1468.82 769.776 1459.73 L 771.205 1467.08 C 766.534 1475.97 762.054 1484.53 756.976 1493.21 z"/>
<path transform="translate(0,0)" fill="rgb(104,103,105)" d="M 721.971 1554.03 L 723.605 1555.54 C 720.497 1559.69 711.245 1573.35 707.738 1574.9 C 708.763 1571.09 719.01 1557.94 721.971 1554.03 z"/>
<path transform="translate(0,0)" fill="rgb(148,147,148)" d="M 1094.31 1180.37 C 1096.96 1190.58 1094.48 1195.77 1089.94 1204.85 L 1089.39 1205.44 L 1088.54 1205.09 C 1091.57 1195.85 1093.62 1190.07 1094.31 1180.37 z"/>
<path transform="translate(0,0)" fill="rgb(197,196,198)" d="M 1074.26 1183.48 L 1075.52 1184.59 C 1075.92 1187.2 1074.67 1191.31 1074.03 1194.08 L 1073.59 1194.05 C 1072.48 1191.58 1073.78 1186.71 1074.26 1183.48 z"/>
<path transform="translate(0,0)" fill="rgb(235,234,234)" d="M 171.577 1350.27 L 174.027 1351 C 190.542 1396.96 211.119 1428.17 237.628 1468.27 C 281.903 1535.25 329.989 1599.62 398.19 1644.26 C 435.92 1665.65 448.066 1670.08 489.838 1679.34 C 495.64 1680.33 501.47 1681.14 507.32 1681.78 C 574.903 1688.92 618.956 1670.3 670.761 1628.15 C 673.104 1637.51 669.004 1632.84 665.77 1638.94 L 662.899 1643.81 L 665.061 1644.04 C 663.408 1652.68 628.724 1668.77 619.723 1677.47 C 577.235 1701.01 522.584 1706.07 476.291 1694.26 C 392.993 1673.02 320.705 1603.88 270.744 1536.65 C 256.478 1517.45 246.146 1506.32 233.338 1484.9 C 227.857 1479.11 212.651 1445.75 209.429 1437.16 C 201.202 1428.37 176.18 1363.9 171.577 1350.27 z"/>
<path transform="translate(0,0)" fill="rgb(213,212,213)" d="M 670.761 1628.15 C 673.104 1637.51 669.004 1632.84 665.77 1638.94 L 662.899 1643.81 L 661.29 1644.76 C 622.205 1668.22 619.9 1677.27 570.733 1686.12 C 565.535 1688.33 559.442 1689.11 553.824 1689.63 C 535.99 1690.93 519.172 1690.84 501.69 1686.27 C 498.165 1686.69 485.605 1683.8 481.88 1682.62 L 483.778 1681.12 C 487.015 1680.71 486.875 1680.73 489.838 1679.34 C 495.64 1680.33 501.47 1681.14 507.32 1681.78 C 574.903 1688.92 618.956 1670.3 670.761 1628.15 z"/>
<path transform="translate(0,0)" fill="rgb(104,103,105)" d="M 570.733 1686.12 C 573.387 1684.15 586.532 1680.71 590.384 1679.83 C 619.126 1673.27 640.997 1655.06 665.77 1638.94 L 662.899 1643.81 L 661.29 1644.76 C 622.205 1668.22 619.9 1677.27 570.733 1686.12 z"/>
<path transform="translate(0,0)" fill="rgb(169,168,170)" d="M 501.69 1686.27 C 511.829 1685.74 524.274 1688.45 534.787 1688.2 C 538.694 1688.1 551.114 1687.75 553.824 1689.63 C 535.99 1690.93 519.172 1690.84 501.69 1686.27 z"/>
<path transform="translate(0,0)" fill="rgb(197,196,198)" d="M 398.19 1644.26 C 435.92 1665.65 448.066 1670.08 489.838 1679.34 C 486.875 1680.73 487.015 1680.71 483.778 1681.12 L 481.88 1682.62 C 466.617 1682.81 403.017 1657.95 398.19 1644.26 z"/>
<path transform="translate(0,0)" fill="rgb(197,196,198)" d="M 209.429 1437.16 C 214.035 1440.83 216.779 1449.61 219.072 1455.41 L 222.396 1453.95 C 227.896 1457.95 234.372 1468.79 234.75 1475.96 C 234.677 1479.29 234.516 1479.78 235.331 1483.08 L 233.338 1484.9 C 227.857 1479.11 212.651 1445.75 209.429 1437.16 z"/>
<path transform="translate(0,0)" fill="rgb(54,54,57)" d="M 255.6 1508.5 C 274.597 1531.32 290.912 1556.04 311.409 1577.67 C 316.313 1582.84 322.671 1589.75 326.569 1595.55 C 304.338 1577.97 273.465 1531.9 253.995 1509.05 L 255.6 1508.5 z"/>
<path transform="translate(0,0)" fill="rgb(169,168,170)" d="M 234.75 1475.96 C 242.363 1491.78 246.233 1494.96 255.6 1508.5 L 253.995 1509.05 C 247.721 1501.93 240.046 1491.3 235.331 1483.08 C 234.516 1479.78 234.677 1479.29 234.75 1475.96 z"/>
<path transform="translate(0,0)" fill="rgb(235,234,234)" d="M 1393.16 511.752 C 1394.7 512.473 1452.1 574.234 1457.51 579.926 C 1440.98 592.356 1413.77 618.376 1396.88 633.098 C 1393.19 629.826 1389.69 625.413 1386.49 621.623 C 1369.17 601.118 1350.05 581.911 1332.64 561.567 C 1349.28 549.383 1376.25 525.585 1393.16 511.752 z"/>
<path transform="translate(0,0)" fill="rgb(213,212,213)" d="M 1404.14 586.925 C 1405.38 586.371 1406.13 586.342 1406.83 585.158 C 1409.18 581.177 1426.44 570.499 1431.78 565.991 L 1433.1 566.018 C 1430.57 571.191 1412.29 585.949 1406.84 590.463 L 1404.14 586.925 z"/>
<path transform="translate(0,0)" fill="rgb(169,168,170)" d="M 1406.84 590.463 C 1411.93 595.915 1416.84 601.526 1421.58 607.29 L 1420.53 607.877 C 1417.25 604.445 1408.17 594.457 1404.17 593.056 C 1397.19 598.881 1391.48 604.861 1385.13 611.325 L 1384.18 611.172 C 1386.08 606.446 1398.56 596.693 1403.16 589.862 L 1401.42 586.579 L 1401.77 585.472 L 1404.14 586.925 L 1406.84 590.463 z"/>
<path transform="translate(0,0)" fill="rgb(197,196,198)" d="M 1392.98 545.487 C 1395.55 546.629 1405.54 560.715 1407.46 563.667 C 1404.86 562.604 1400.99 558.1 1398.73 555.821 C 1396.63 553.644 1394.74 550.865 1392.91 548.391 C 1390.24 551.352 1388 554.222 1384.67 556.381 C 1386.54 552.301 1389.97 548.921 1392.98 545.487 z"/>
<path transform="translate(0,0)" fill="rgb(197,196,198)" d="M 1373.77 554.523 C 1379.08 556.857 1393.07 575.063 1397.36 580.421 C 1390.19 577.402 1378.14 561.183 1373.77 554.523 z"/>
<path transform="translate(0,0)" fill="rgb(245,245,245)" d="M 1281.07 603.98 C 1285.46 607.703 1297.2 620.652 1301.52 625.201 C 1316.43 640.793 1331.13 656.587 1345.62 672.577 C 1332.99 689.396 1308.07 702.781 1296.15 716.301 C 1293.33 714.323 1280.5 698.434 1277.35 694.808 C 1262.25 677.43 1247.54 659.632 1231.98 642.65 C 1250.03 630.27 1263.98 616.914 1281.07 603.98 z"/>
<path transform="translate(0,0)" fill="rgb(197,196,198)" d="M 1301.81 676.346 C 1298.62 672.4 1299.62 672.325 1295.68 671.277 C 1289.28 673.465 1285.4 680.928 1276.51 685.052 L 1276.07 684.133 C 1280.59 680.412 1290.8 672.441 1294.26 668.43 C 1289.65 661.657 1276 647.761 1274.04 643.095 L 1275 642.624 C 1280.79 649.362 1290.47 659.876 1295.65 666.707 C 1301.84 661.786 1310.88 652.992 1316.28 649.387 C 1309.87 656.931 1304.86 661.539 1297.46 668.163 C 1303.3 674.771 1305.36 677.316 1309.95 684.765 L 1309.48 685.333 C 1306.8 682.478 1305.13 680.437 1302.74 677.331 L 1301.81 676.346 z"/>
<path transform="translate(0,0)" fill="rgb(169,168,170)" d="M 1269.06 636.076 C 1275.34 635.023 1281.72 624.563 1287.15 621.971 C 1283.12 627.13 1274.16 636.774 1268.78 640.202 C 1263.25 644.778 1255.54 651.559 1249.87 655.584 C 1253.37 651.556 1268.58 637.122 1269.06 636.076 z"/>
<path transform="translate(0,0)" fill="rgb(213,212,213)" d="M 1301.81 676.346 L 1302.74 677.331 C 1300.37 682.013 1299.41 683.333 1295.34 686.537 L 1294.78 684.077 L 1293.54 686.819 L 1294.69 686.885 L 1293.66 687.038 C 1294.19 683.427 1298.97 679.367 1301.81 676.346 z"/>
<path transform="translate(0,0)" fill="rgb(213,212,213)" d="M 1259.84 626.535 C 1263.58 628.523 1268.15 631.655 1269.06 636.076 C 1264.95 633.476 1261.89 631.124 1259.84 626.535 z"/>
<path transform="translate(0,0)" fill="rgb(245,245,245)" d="M 1396.8 506.924 C 1411.13 497.29 1431.27 478.506 1444.78 466.647 C 1448.51 472.546 1451.67 477.152 1456.63 482.09 L 1457.56 483.466 C 1471.75 500.017 1489.82 519.653 1504.69 535.404 C 1491.74 545.558 1471.33 563.974 1460.14 575.736 C 1439.59 552.789 1416.27 530.797 1396.8 506.924 z"/>
<path transform="translate(0,0)" fill="rgb(197,196,198)" d="M 1456.63 482.09 L 1457.56 483.466 C 1450.75 488.695 1420.09 520.931 1416.87 521.684 C 1417.67 518.429 1426.28 511.54 1429.63 507.838 C 1437.83 499.871 1447.1 488.067 1456.63 482.09 z"/>
<path transform="translate(0,0)" fill="rgb(235,234,234)" d="M 1419.37 497.296 C 1425.29 499.918 1426.43 502.106 1429.63 507.838 C 1425.13 504.299 1422.56 502.144 1419.37 497.296 z"/>
<path transform="translate(0,0)" fill="rgb(197,196,198)" d="M 1432.95 510.54 C 1439.01 512.227 1456.25 530.83 1460.64 536.385 L 1459.05 536.769 C 1450.79 529.693 1440.36 518.541 1432.95 510.54 z"/>
<path transform="translate(0,0)" fill="rgb(197,196,198)" d="M 1458.34 539.079 L 1458.57 539.831 C 1457.62 542.681 1451.56 547.238 1448.81 549.693 C 1448.63 548.43 1448.69 549.283 1449.09 547.146 C 1452.64 542.857 1453.69 542.232 1458.34 539.079 z"/>
<path transform="translate(0,0)" fill="rgb(213,212,213)" d="M 1457.64 511.005 L 1458.32 511.748 C 1456.54 515.161 1454.35 516.67 1451.46 519.214 L 1450.56 518.306 C 1451.85 515.294 1455.01 513.179 1457.64 511.005 z"/>
<path transform="translate(0,0)" fill="rgb(245,245,245)" d="M 1138.6 719.147 C 1143.32 723.736 1148.12 729.682 1152.45 734.771 L 1152.88 735.583 C 1162.77 747.233 1173.3 759.358 1182.65 771.363 C 1189.69 779.532 1196.89 788.142 1204.1 796.103 C 1191.14 806.853 1175.42 819.395 1163.25 830.948 C 1157.31 823.728 1151.26 816.602 1145.1 809.571 L 1143.77 807.89 C 1128.89 790.037 1112.03 771.37 1096.69 753.704 C 1109.49 741.953 1124.95 730.146 1138.6 719.147 z"/>
<path transform="translate(0,0)" fill="rgb(235,234,234)" d="M 1182.65 771.363 C 1189.69 779.532 1196.89 788.142 1204.1 796.103 C 1191.14 806.853 1175.42 819.395 1163.25 830.948 C 1157.31 823.728 1151.26 816.602 1145.1 809.571 L 1143.77 807.89 C 1150.32 803.642 1159.85 794.117 1166.04 790.837 C 1171.25 781.044 1179.14 780.567 1182.65 771.363 z"/>
<path transform="translate(0,0)" fill="rgb(197,196,198)" d="M 1143.77 807.89 C 1150.32 803.642 1159.85 794.117 1166.04 790.837 L 1166.14 792.842 C 1162.16 796.094 1148.73 807.484 1145.1 809.571 L 1143.77 807.89 z"/>
<path transform="translate(0,0)" fill="rgb(169,168,170)" d="M 1152.45 734.771 L 1152.88 735.583 C 1149.22 739.859 1135.44 750.312 1130.01 754.955 C 1132.82 749.722 1147.28 738.534 1152.45 734.771 z"/>
<path transform="translate(0,0)" fill="rgb(245,245,245)" d="M 1185.79 679.022 C 1199.62 668.58 1214.45 657.627 1227.48 646.261 C 1239.38 657.796 1252.63 674.075 1263.57 686.939 C 1271.66 696.459 1283.57 709.788 1290.68 719.613 C 1277.56 730.4 1262.41 743.546 1250.18 755.257 C 1243.56 745.727 1236.69 738.008 1229.15 729.24 L 1227.68 727.754 C 1213.45 710.034 1200.18 695.942 1185.79 679.022 z"/>
<path transform="translate(0,0)" fill="rgb(213,212,213)" d="M 1227.68 727.754 C 1233.1 721.578 1235.95 719.545 1242.56 714.517 L 1242.7 715.13 C 1237.95 721.267 1231.36 726.183 1229.15 729.24 L 1227.68 727.754 z"/>
<path transform="translate(0,0)" fill="rgb(197,196,198)" d="M 1233.55 673.833 L 1234.75 674.274 C 1234.17 676.963 1230.02 680.078 1227.6 682.405 C 1231.07 686.425 1242.72 700.803 1244.55 705.028 C 1239.34 703.484 1233.39 693.487 1229.98 688.614 C 1228.33 686.361 1228.3 685.945 1226 684.467 C 1219.43 686.741 1214.42 698.28 1206.98 697.791 C 1216.2 690.23 1223.87 681.706 1233.55 673.833 z"/>
<path transform="translate(0,0)" fill="rgb(197,196,198)" d="M 1253.47 716.573 L 1254.96 715.654 C 1258.83 717.794 1265.92 727.953 1267.67 732.475 C 1265.01 731.469 1255.26 719.459 1253.47 716.573 z"/>
<path transform="translate(0,0)" fill="rgb(245,245,245)" d="M 1182.51 683.248 C 1194.4 694.68 1220.68 726.362 1231.51 739.71 L 1232.37 741.431 L 1246.87 758.638 L 1208.12 793.437 C 1190 767.693 1162.23 740.995 1143.02 714.928 C 1155.92 706.647 1168.94 692.486 1182.51 683.248 z"/>
<path transform="translate(0,0)" fill="rgb(197,196,198)" d="M 1231.51 739.71 L 1232.37 741.431 C 1228.67 745.374 1200.66 769.264 1196.37 771.835 L 1195.44 771.394 C 1200.31 765.227 1223.09 747.85 1230.66 740.544 L 1231.51 739.71 z"/>
<path transform="translate(0,0)" fill="rgb(197,196,198)" d="M 1172.24 711.252 C 1176.26 713.896 1193.84 733.653 1194.47 738.513 C 1189.02 733.416 1178.11 719.103 1172.7 716.62 C 1171.46 713.905 1171.94 714.745 1172.24 711.252 z"/>
<path transform="translate(0,0)" fill="rgb(197,196,198)" d="M 1220.73 734.012 L 1221.38 734.606 C 1217.71 740.268 1210.28 744.268 1205.13 751.107 L 1204.26 750.533 C 1205.37 746.716 1217.11 737.256 1220.73 734.012 z"/>
<path transform="translate(0,0)" fill="rgb(213,212,213)" d="M 1187.48 743.729 L 1188.93 744.612 C 1187.13 747.774 1182.48 751.597 1179.64 754.208 L 1178.32 753.463 C 1179.96 750.174 1184.57 746.476 1187.48 743.729 z"/>
<path transform="translate(0,0)" fill="rgb(245,245,245)" d="M 1285.08 600.971 C 1294.61 592.921 1319.29 571.275 1328.85 565.284 C 1342.74 580.463 1356.49 595.782 1370.08 611.236 C 1374.61 616.363 1385.67 628.237 1388.93 633.645 L 1387.71 634.263 C 1375.13 646.118 1362.46 657.886 1349.72 669.566 C 1341.44 660.501 1331.63 649.166 1323.11 640.631 L 1321.74 639.546 C 1309.87 626.364 1297.64 613.501 1285.08 600.971 z"/>
<path transform="translate(0,0)" fill="rgb(148,147,148)" d="M 1342.96 619.668 C 1336.36 612.501 1323.19 598.769 1318.57 590.945 C 1326.79 599.042 1335.46 608.855 1343.73 617.388 L 1345.46 618.684 C 1348.94 622.705 1364.54 640.354 1365.77 643.464 C 1359.01 638.829 1351.01 627.202 1344.17 620.827 C 1338.33 626.716 1327.41 635.841 1323.11 640.631 L 1321.74 639.546 C 1328.86 633.004 1336.11 626.472 1342.96 619.668 z"/>
<path transform="translate(0,0)" fill="rgb(235,234,234)" d="M 1343.73 617.388 C 1346.98 614.481 1351.15 610.119 1355.08 608.833 L 1355.19 609.477 L 1353.55 611.443 L 1352.51 610.374 L 1354.04 611.012 C 1350.86 614.937 1349.61 615.703 1345.46 618.684 L 1343.73 617.388 z"/>
<path transform="translate(0,0)" fill="url(#Gradient5)" d="M 723.605 1555.54 C 741.832 1530.89 755.313 1507.9 769.482 1480.47 C 800.012 1421.38 823.619 1359.9 888.524 1330.99 C 924.519 1314.96 959.191 1313.45 996.283 1298.47 C 999.282 1299.74 1000.58 1300.68 1003.06 1302.81 C 988.267 1311.11 978.913 1313.52 963.202 1319.35 C 952.527 1323.31 944.736 1327.54 933.104 1330.52 C 924.443 1335.1 903.051 1342.35 893.01 1345.57 C 846.655 1365.71 840.995 1371.99 810.295 1413 L 813.059 1416 L 816.114 1411.11 C 816.989 1413.4 817.832 1415.71 818.641 1418.03 C 814.779 1424.34 810.839 1431 806.797 1437.16 C 797.453 1454.49 788.471 1472.03 779.858 1489.74 C 775.247 1499 767.279 1515.79 761.688 1524 L 759.586 1519.61 C 762.795 1514.3 766.282 1509.05 768.437 1503.25 C 769.567 1499.07 770.489 1498.26 767.807 1495.17 C 762.548 1505.62 750.268 1528.72 743.985 1538 C 723.304 1568.52 685.408 1614.76 655.023 1635.7 C 657.74 1629.76 665.947 1624.23 671.372 1619.92 C 671.349 1618.85 671.586 1613.99 672.106 1613.54 C 683.585 1603.6 696.557 1583.64 707.738 1574.9 C 711.245 1573.35 720.497 1559.69 723.605 1555.54 z"/>
<path transform="translate(0,0)" fill="rgb(54,54,57)" d="M 816.114 1411.11 C 816.989 1413.4 817.832 1415.71 818.641 1418.03 C 814.779 1424.34 810.839 1431 806.797 1437.16 C 797.453 1454.49 788.471 1472.03 779.858 1489.74 C 775.247 1499 767.279 1515.79 761.688 1524 L 759.586 1519.61 C 762.795 1514.3 766.282 1509.05 768.437 1503.25 C 769.567 1499.07 770.489 1498.26 767.807 1495.17 C 772.751 1481.86 802.825 1421.99 810.295 1413 L 813.059 1416 L 816.114 1411.11 z"/>
<path transform="translate(0,0)" fill="rgb(169,168,170)" d="M 803.665 1436.04 C 804.37 1436.28 806.214 1436.85 806.797 1437.16 C 797.453 1454.49 788.471 1472.03 779.858 1489.74 C 775.247 1499 767.279 1515.79 761.688 1524 L 759.586 1519.61 C 762.795 1514.3 766.282 1509.05 768.437 1503.25 C 775.175 1495.64 783.967 1471.65 789.409 1461.47 C 793.99 1452.9 798.79 1444.5 803.665 1436.04 z"/>
<path transform="translate(0,0)" fill="url(#Gradient4)" d="M 816.114 1411.11 C 816.989 1413.4 817.832 1415.71 818.641 1418.03 C 814.779 1424.34 810.839 1431 806.797 1437.16 C 806.214 1436.85 804.37 1436.28 803.665 1436.04 C 806.626 1430.14 810.699 1422.01 813.059 1416 L 816.114 1411.11 z"/>
<path transform="translate(0,0)" fill="rgb(148,147,148)" d="M 893.01 1345.57 C 900.53 1338.16 906.628 1340.93 911.438 1336.45 L 909.188 1334.56 C 906.201 1333.83 905.478 1334.3 902.559 1335.21 L 901.615 1335.51 C 904.66 1332.28 925.855 1324.65 929.149 1326.57 C 927.329 1328.35 926.272 1329.09 925.161 1331.36 C 927.413 1330.86 928.881 1330.36 930.983 1329.41 L 933.104 1330.52 C 924.443 1335.1 903.051 1342.35 893.01 1345.57 z"/>
<path transform="translate(0,0)" fill="rgb(245,245,245)" d="M 1052.42 788.872 C 1058.47 793.667 1066.05 805.081 1071.22 811.652 C 1081.64 824.858 1092.19 837.958 1102.87 850.951 L 1103.85 852.232 C 1108.49 857.849 1113.01 863.556 1117.42 869.348 C 1106.42 878.883 1092.28 890.52 1082.52 900.883 C 1061.61 874.344 1037.99 843.413 1017.71 816.49 C 1028.17 807.693 1041.61 796.987 1052.42 788.872 z"/>
<path transform="translate(0,0)" fill="rgb(169,168,170)" d="M 1102.87 850.951 L 1103.85 852.232 C 1097.36 858.179 1079.45 875.658 1073.62 879.709 L 1072.9 878.913 C 1075.34 874.296 1097.44 855.714 1102.87 850.951 z"/>
<path transform="translate(0,0)" fill="rgb(169,168,170)" d="M 1063.39 807.934 L 1063.64 809.249 C 1060.11 816.133 1042.29 828.529 1035.87 832.956 L 1035.66 832.292 C 1036.1 831.229 1059.7 811.737 1063.39 807.934 z"/>
<path transform="translate(0,0)" fill="rgb(213,212,213)" d="M 1077.37 828.586 L 1078.31 828.878 L 1078.48 830.222 C 1073.94 835.511 1066.73 842.848 1061.08 846.876 L 1060.23 845.577 C 1058.62 843.28 1057.44 842.512 1057.42 840.234 L 1060.63 842.572 C 1065.36 841.816 1073.38 832.597 1077.37 828.586 z"/>
<path transform="translate(0,0)" fill="rgb(213,212,213)" d="M 429.208 1236.66 C 444.893 1226.05 449.78 1220.93 460.815 1238.5 C 481.924 1272.09 504.269 1307.67 528.76 1338.87 L 529.88 1340.36 C 537.333 1350.35 542.073 1356.55 545.486 1368.39 C 540.631 1373.11 536.674 1376.75 530.085 1378.49 C 522.522 1377.07 506.362 1352.8 500.985 1345.59 C 487.995 1328.15 475.109 1310.64 462.327 1293.05 C 452.166 1278.92 441.618 1263.04 429.961 1250.23 C 431.09 1246.11 429.856 1241.07 429.208 1236.66 z"/>
<path transform="translate(0,0)" fill="rgb(169,168,170)" d="M 528.76 1338.87 L 529.88 1340.36 C 525.147 1344.01 515.745 1350.66 510.356 1352.74 C 517.139 1345.79 519.879 1343.01 528.76 1338.87 z"/>
<path transform="translate(0,0)" fill="rgb(169,168,170)" d="M 480.86 1290.6 C 485.133 1294.4 487.708 1295.99 485.584 1301.61 L 486.271 1301.92 L 485.763 1301.01 L 485.456 1301.64 L 485.985 1302.56 C 487.716 1302.56 489.329 1302.52 491.059 1302.45 C 489.612 1304.31 489.125 1304.75 487.378 1306.36 C 480.123 1306.33 481.729 1296.36 480.86 1290.6 z"/>
<path transform="translate(0,0)" fill="rgb(245,245,245)" d="M 1057.95 785.008 C 1069.15 774.18 1079.67 766.979 1090.9 757.159 C 1109.9 780.21 1141.31 810.722 1158.13 834.196 C 1146.47 845.074 1132.82 855.995 1121.97 867.077 C 1110.58 849.895 1086.33 819.542 1072.21 803.442 L 1071.73 801.93 C 1067.41 796.699 1061.89 790.363 1057.95 785.008 z"/>
<path transform="translate(0,0)" fill="rgb(104,103,105)" d="M 1071.73 801.93 C 1077.87 795.25 1093.8 780.997 1101.62 776.594 C 1096.33 782.993 1079.25 796.635 1072.21 803.442 L 1071.73 801.93 z"/>
<path transform="translate(0,0)" fill="rgb(197,196,198)" d="M 1108.56 813.392 L 1110.02 813.141 C 1113.88 818.432 1116.13 821.26 1120.58 826.093 C 1126.25 821.926 1128.39 819.318 1134.96 815.687 L 1133.38 816.939 L 1133.53 817.825 C 1131.02 820.501 1127.16 823.513 1124.27 825.939 C 1122.34 828.506 1113.71 835.71 1111.11 837.893 L 1110.26 836.183 L 1108.91 838.798 L 1108.9 838.792 C 1110.99 834.575 1115.73 830.522 1119.21 827.08 C 1114.97 823.276 1110.84 818.668 1108.56 813.392 z"/>
<path transform="translate(0,0)" fill="rgb(169,168,170)" d="M 1102.22 803.245 C 1103.62 803.114 1104.53 803.039 1105.95 802.997 C 1105.03 807.285 1101.58 807.586 1097.41 812.217 L 1095.07 813.883 C 1095.03 810.875 1100.52 807.799 1102.22 803.245 z"/>
<path transform="translate(0,0)" fill="rgb(213,212,213)" d="M 1092.01 793.328 C 1096.57 794.019 1101.27 798.798 1102.22 803.245 L 1100.61 803.19 C 1097.92 800.254 1094.25 796.491 1092.01 793.328 z"/>
<path transform="translate(0,0)" fill="rgb(235,234,234)" d="M 789.083 999.414 C 794.21 1004.14 799.86 1011.22 804.478 1016.69 L 805.683 1018.14 C 825.031 1042.01 849.38 1072.87 871.215 1094.29 C 861.355 1102.19 850.613 1111.27 839.309 1116.75 C 824.192 1103.29 806.579 1077.18 792.729 1060.87 C 790.143 1057.82 775.092 1039.09 773.218 1036.14 C 770.256 1034.38 764.776 1024.33 762.915 1021.05 C 769.304 1011.81 779.716 1005.86 789.083 999.414 z"/>
<path transform="translate(0,0)" fill="rgb(235,234,234)" d="M 789.083 999.414 C 794.21 1004.14 799.86 1011.22 804.478 1016.69 L 797.539 1021.21 C 784.856 1014.74 783.07 1036.96 777.815 1038.96 C 776.251 1037.92 774.913 1036.92 773.218 1036.14 C 770.256 1034.38 764.776 1024.33 762.915 1021.05 C 769.304 1011.81 779.716 1005.86 789.083 999.414 z"/>
<path transform="translate(0,0)" fill="rgb(197,196,198)" d="M 804.478 1016.69 L 805.683 1018.14 C 802.419 1020.82 799.642 1023.12 796.558 1025.99 L 795.269 1025.05 L 795.18 1023.24 L 797.539 1021.21 L 804.478 1016.69 z"/>
<path transform="translate(0,0)" fill="rgb(213,212,213)" d="M 832.105 1092.43 C 835.83 1094.03 841.38 1103.14 844.824 1107.41 L 841.432 1106.5 C 836.597 1102.15 834.82 1098.36 832.105 1092.43 z"/>
<path transform="translate(0,0)" fill="rgb(169,168,170)" d="M 805.44 1052.43 L 806.841 1052.07 C 809.758 1055.13 812.391 1058.96 814.926 1062.39 C 810.903 1060.29 807.433 1056.44 805.44 1052.43 z"/>
<path transform="translate(0,0)" fill="rgb(213,212,213)" d="M 835.257 1085.74 C 839.936 1087.9 840.722 1089.11 843.423 1093.32 C 838.477 1091.49 837.799 1090.06 835.257 1085.74 z"/>
<path transform="translate(0,0)" fill="rgb(235,234,234)" d="M 976.648 850.287 C 994.028 874.151 1012.74 896.852 1029.38 920.177 C 1033.82 925.256 1038.14 930.253 1042.81 935.133 C 1033.71 942.063 1017.61 955.976 1009.92 964.431 C 1006.22 958.175 1003.53 954.263 999.224 948.382 L 998.208 947.601 C 992.91 938.966 983.801 927.617 977.44 919.266 C 966.337 904.901 955.517 890.319 944.985 875.53 C 954.381 866.925 966.435 857.831 976.648 850.287 z"/>
<path transform="translate(0,0)" fill="rgb(245,245,245)" d="M 1027.9 922.046 L 1029.38 920.177 C 1033.82 925.256 1038.14 930.253 1042.81 935.133 C 1033.71 942.063 1017.61 955.976 1009.92 964.431 C 1006.22 958.175 1003.53 954.263 999.224 948.382 L 998.208 947.601 C 1008.79 938.536 1016.68 930.828 1027.9 922.046 z"/>
<path transform="translate(0,0)" fill="rgb(197,196,198)" d="M 998.208 947.601 C 1008.79 938.536 1016.68 930.828 1027.9 922.046 C 1025.4 928.422 1005.05 944.883 999.224 948.382 L 998.208 947.601 z"/>
<path transform="translate(0,0)" fill="rgb(245,245,245)" d="M 1012.69 820.732 C 1016.25 823.331 1072.31 896.681 1077.41 904.078 C 1067.3 911.695 1055.21 922.67 1046.78 932.006 C 1041.99 926.639 1037.26 919.855 1032.9 914.046 C 1016.04 891.543 997.391 870.095 980.999 847.276 C 991.035 838.03 1001.5 828.539 1012.69 820.732 z"/>
<path transform="translate(0,0)" fill="rgb(213,212,213)" d="M 1059.58 890.099 L 1060.48 890.225 C 1059.15 893.913 1045.48 905.224 1041.8 908.333 L 1041.1 908.617 L 1040.18 908.056 C 1041.74 904.103 1055.7 892.783 1059.58 890.099 z"/>
<path transform="translate(0,0)" fill="rgb(213,212,213)" d="M 1051.53 880.869 L 1052.66 881.057 C 1052.15 886.697 1044.8 883.404 1043.22 897.041 C 1041.54 896.035 1040.95 895.579 1039.38 894.408 L 1039.41 892.009 C 1041.59 887.938 1047.64 883.918 1051.53 880.869 z"/>
<path transform="translate(0,0)" fill="rgb(148,147,148)" d="M 1036.9 876.007 C 1037.2 876.245 1037.01 876.017 1037.27 877.182 C 1031.59 882.204 1025.83 887.136 1020 891.974 C 1019.4 891.394 1019.76 891.848 1019.64 890.278 C 1024.48 885.055 1031.16 880.351 1036.9 876.007 z"/>
<path transform="translate(0,0)" fill="rgb(235,234,234)" d="M 876.356 931.775 C 886.364 923.409 896.493 915.19 906.741 907.12 C 928.871 936.246 955.192 968.551 976.005 998.239 C 966.668 1007.07 957.442 1014.65 948.453 1023.93 C 942.595 1015.58 937.603 1008.77 931.218 1000.73 L 930.343 999.743 C 913.588 975.993 893.411 956.386 876.356 931.775 z"/>
<path transform="translate(0,0)" fill="rgb(148,147,148)" d="M 930.343 999.743 C 936.021 991.29 946.264 983.326 954.193 976.815 L 952.819 978.163 L 953.085 978.57 C 947.522 984.347 935.314 995.557 931.218 1000.73 L 930.343 999.743 z"/>
<path transform="translate(0,0)" fill="rgb(197,196,198)" d="M 940.684 961.022 C 941.342 961.481 941.019 961.135 941.308 962.297 C 934.93 968.518 928.589 974.91 921.977 980.865 L 921.518 980.497 L 921.457 979.015 C 925.763 973.665 934.848 964.416 940.684 961.022 z"/>
<path transform="translate(0,0)" fill="rgb(197,196,198)" d="M 915.496 961.35 L 916.17 961.211 C 919.103 962.325 917.854 961.388 919.572 964.663 L 918.914 964.842 C 915.972 963.842 917.271 964.708 915.496 961.35 z"/>
<path transform="translate(0,0)" fill="rgb(235,234,234)" d="M 940.742 879.223 C 943.805 883.15 946.718 887.396 949.609 891.467 C 956.208 899.145 963.401 909.125 969.001 917.73 C 980.464 935.341 994.159 950.817 1006.53 967.509 C 996.624 974.292 987.672 984.906 979.798 994.099 C 973.786 984.852 967.878 977.815 962.14 969.351 L 960.846 967.881 C 948.664 950.532 933.21 932.925 919.896 915.97 L 911.571 903.275 C 919.624 895.182 931.544 886.127 940.742 879.223 z"/>
<path transform="translate(0,0)" fill="rgb(245,245,245)" d="M 940.742 879.223 C 943.805 883.15 946.718 887.396 949.609 891.467 L 949.766 894.035 C 949.114 895.494 928.366 912.431 925.504 914.896 L 923.307 915.266 L 919.896 915.97 L 911.571 903.275 C 919.624 895.182 931.544 886.127 940.742 879.223 z"/>
<path transform="translate(0,0)" fill="rgb(197,196,198)" d="M 949.766 894.035 C 949.114 895.494 928.366 912.431 925.504 914.896 L 923.307 915.266 C 925.913 909.662 943.447 895.607 949.766 894.035 z"/>
<path transform="translate(0,0)" fill="rgb(169,168,170)" d="M 960.846 967.881 C 963.876 965.203 978.644 951.69 981.027 950.728 C 974.191 958.531 969.808 962.534 962.14 969.351 L 960.846 967.881 z"/>
<path transform="translate(0,0)" fill="rgb(169,168,170)" d="M 970.618 936.737 L 971.553 938.015 C 967.274 943.125 960.333 947.676 954.559 950.955 L 954.207 950.772 L 954.017 949.969 C 959.898 945.51 965.001 941.512 970.618 936.737 z"/>
<path transform="translate(0,0)" fill="rgb(197,196,198)" d="M 989.679 956.867 L 990.392 958.038 C 986.324 962.331 982.173 966.545 977.942 970.677 C 977.249 970.211 977.689 970.594 977.217 969.083 C 980.711 964.67 985.47 960.694 989.679 956.867 z"/>
<path transform="translate(0,0)" fill="rgb(245,245,245)" d="M 1488.98 430.83 L 1489.85 431.668 C 1493.85 452.121 1525.73 484.106 1541.51 496.852 C 1527.93 509.169 1519.48 516.411 1507.94 530.716 L 1506.31 529.968 C 1491.79 515.383 1459.93 479.116 1449.35 463.152 C 1458.02 455.145 1479.33 437.216 1488.98 430.83 z"/>
<path transform="translate(0,0)" fill="rgb(104,103,105)" d="M 1485.67 457.073 C 1480.91 461.217 1476.72 464.717 1471.74 468.585 C 1472.45 466.227 1482.01 458.931 1483.18 452.802 L 1484.3 452.751 L 1487.16 455.845 L 1485.67 457.073 z"/>
<path transform="translate(0,0)" fill="rgb(197,196,198)" d="M 1487.16 455.845 C 1491.62 461.514 1495.98 466.644 1499.38 473.013 C 1494.36 468.417 1489.58 462.654 1485.67 457.073 L 1487.16 455.845 z"/>
<path transform="translate(0,0)" fill="rgb(197,196,198)" d="M 1521.76 486.925 L 1522.49 487.917 C 1519.46 491.871 1514.41 495.822 1510.54 499.155 L 1509.64 498.028 C 1512.87 494.246 1517.9 490.242 1521.76 486.925 z"/>
<path transform="translate(0,0)" fill="rgb(235,234,234)" d="M 1618.03 335.159 C 1622.18 342.197 1626.64 349.279 1629.69 356.836 C 1636.04 367.007 1639.62 373.843 1648.75 381.895 C 1653.43 387.109 1658.01 390.909 1654.55 398.535 C 1651.05 411.522 1644.07 401.479 1637.35 414.347 L 1636.93 408.343 C 1630.25 415.076 1625.6 419.522 1617.29 424.162 C 1614.56 423.963 1614.07 423.641 1612.33 420.832 C 1605.25 411.106 1598.79 400.861 1592.25 390.758 L 1591.91 389.078 C 1584.57 378.12 1577.12 367.66 1570.34 356.327 C 1586.17 349.131 1602.07 342.075 1618.03 335.159 z"/>
<path transform="translate(0,0)" fill="rgb(235,234,234)" d="M 1618.03 335.159 C 1622.18 342.197 1626.64 349.279 1629.69 356.836 C 1625.83 361.841 1626.5 363.702 1627.28 370.195 C 1613.39 375.016 1603.31 380.015 1591.91 389.078 C 1584.57 378.12 1577.12 367.66 1570.34 356.327 C 1586.17 349.131 1602.07 342.075 1618.03 335.159 z"/>
<path transform="translate(0,0)" fill="rgb(169,168,170)" d="M 1629.69 356.836 C 1636.04 367.007 1639.62 373.843 1648.75 381.895 C 1653.43 387.109 1658.01 390.909 1654.55 398.535 C 1651.05 411.522 1644.07 401.479 1637.35 414.347 L 1636.93 408.343 L 1632.7 406.55 C 1630.99 403.76 1631.22 405.193 1631.78 402.148 C 1634.41 399.774 1634.61 399.53 1638.33 398.929 C 1640.36 397.103 1639.49 397.627 1642.16 396.894 C 1640.27 390.16 1636.84 390.743 1632.46 385.879 L 1631 386.156 L 1627.22 382.864 C 1631.34 377.751 1635.32 371.485 1631.67 364.831 L 1630.23 365.173 C 1629.4 367.426 1629.28 367.942 1628.98 370.256 L 1628.72 372.259 L 1627.28 370.195 C 1626.5 363.702 1625.83 361.841 1629.69 356.836 z"/>
<path transform="translate(0,0)" fill="rgb(148,147,148)" d="M 1648.75 381.895 C 1653.43 387.109 1658.01 390.909 1654.55 398.535 C 1651.05 411.522 1644.07 401.479 1637.35 414.347 L 1636.93 408.343 L 1632.7 406.55 C 1630.99 403.76 1631.22 405.193 1631.78 402.148 C 1634.41 399.774 1634.61 399.53 1638.33 398.929 C 1640.36 397.103 1639.49 397.627 1642.16 396.894 C 1645.22 396.578 1645.08 396.211 1647.7 397.144 C 1648.6 396.575 1648.01 397.018 1649.16 395.468 C 1645.61 393.697 1646.5 395.009 1645.35 392.132 C 1647.55 387.779 1648.23 386.68 1648.75 381.895 z"/>
<path transform="translate(0,0)" fill="rgb(197,196,198)" d="M 1648.75 381.895 C 1653.43 387.109 1658.01 390.909 1654.55 398.535 C 1651.23 400.193 1645.93 403.326 1642.49 402.873 C 1643.39 400.244 1645.49 398.988 1647.7 397.144 C 1648.6 396.575 1648.01 397.018 1649.16 395.468 C 1645.61 393.697 1646.5 395.009 1645.35 392.132 C 1647.55 387.779 1648.23 386.68 1648.75 381.895 z"/>
<path transform="translate(0,0)" fill="rgb(169,168,170)" d="M 1631 386.156 L 1632.46 385.879 C 1636.84 390.743 1640.27 390.16 1642.16 396.894 C 1639.49 397.627 1640.36 397.103 1638.33 398.929 C 1634.61 399.53 1634.41 399.774 1631.78 402.148 C 1631.22 405.193 1630.99 403.76 1632.7 406.55 L 1636.93 408.343 C 1630.25 415.076 1625.6 419.522 1617.29 424.162 C 1614.56 423.963 1614.07 423.641 1612.33 420.832 C 1615.45 415.857 1623.12 413.314 1629 404.163 C 1627.42 400.851 1626.41 393.812 1626.94 390.088 C 1627.23 388.051 1628.79 387.692 1631 386.156 z"/>
<path transform="translate(0,0)" fill="rgb(197,196,198)" d="M 1629 404.163 L 1627.73 402.982 C 1623.59 403.203 1617.75 402.464 1615.39 398.786 C 1615.96 396.142 1616.11 396.249 1617.55 393.929 C 1616.16 391.965 1616.38 392.336 1615.3 390.063 C 1618.6 382.608 1622.31 387.106 1627.22 382.864 L 1631 386.156 C 1628.79 387.692 1627.23 388.051 1626.94 390.088 C 1626.41 393.812 1627.42 400.851 1629 404.163 z"/>
<path transform="translate(0,0)" fill="rgb(54,54,57)" d="M 1627.28 370.195 L 1628.72 372.259 C 1624.66 373.69 1615.72 376.603 1612.57 379.129 C 1606.16 384.264 1598.61 386.83 1592.25 390.758 L 1591.91 389.078 C 1603.31 380.015 1613.39 375.016 1627.28 370.195 z"/>
<path transform="translate(0,0)" fill="rgb(245,245,245)" d="M 846.552 955.188 C 854.713 964.047 864.572 978.858 871.996 988.85 C 886.876 1008.87 901.333 1028.95 917.407 1048.09 C 910.276 1054 906.589 1057.66 900.249 1064.45 C 898.213 1066.2 897.369 1066.9 895.543 1068.95 C 876.449 1045.88 858.451 1021.82 838.693 999.229 C 832.52 992.171 825.281 983.608 820.377 975.728 C 827.503 969.52 838.719 961.532 846.552 955.188 z"/>
<path transform="translate(0,0)" fill="rgb(197,196,198)" d="M 846.617 979.722 L 847.566 980.673 C 846.203 983.915 839.625 988.758 836.677 991.184 L 835.734 990.319 C 836.751 987.209 843.815 982.055 846.617 979.722 z"/>
<path transform="translate(0,0)" fill="rgb(197,196,198)" d="M 885.876 1010.96 C 885.669 1014.45 877.699 1021.04 874.819 1023.79 L 874.63 1022.48 C 876.187 1018.78 882.636 1013.43 885.876 1010.96 z"/>
<path transform="translate(0,0)" fill="rgb(197,196,198)" d="M 867.706 1001.92 L 868.412 1002.85 C 866.504 1007.6 863.227 1010.43 859.677 1014.2 C 858.844 1013.7 859.271 1014.08 858.721 1012.77 C 861.834 1009.25 864.831 1005.63 867.706 1001.92 z"/>
<path transform="translate(0,0)" fill="rgb(245,245,245)" d="M 188.887 1133.15 C 191.195 1134.38 193.954 1136.01 196.345 1136.89 C 201.376 1140.76 198.741 1143.25 199.189 1149.04 C 199.01 1156.51 185.816 1194.05 182.992 1208.13 C 177.912 1233.45 181.134 1249.42 178.623 1270.16 C 176.654 1293.81 168.814 1291.49 173.029 1319.46 C 172.778 1322.7 172.85 1327.43 171.147 1329.88 C 170.791 1328.92 170.456 1327.96 170.141 1326.99 C 145.851 1252.22 154.042 1201.9 188.887 1133.15 z"/>
<path transform="translate(0,0)" fill="rgb(245,245,245)" d="M 872.452 935.903 C 876.5 939.98 886.825 954.213 891.12 959.587 C 909.012 981.641 926.392 1004.11 943.244 1026.96 C 934.99 1031.17 927.972 1038.61 921.248 1045.08 C 918.529 1042.1 915.193 1037.4 912.741 1034.02 C 892.81 1006.52 870.776 980.233 851.229 952.503 C 858.223 946.867 865.298 941.333 872.452 935.903 z"/>
<path transform="translate(0,0)" fill="rgb(213,212,213)" d="M 883.095 976.903 L 884.156 977.179 L 884.335 978.474 L 880.112 983.428 L 878.744 982.355 L 878.752 980.84 L 883.095 976.903 z"/>
<path transform="translate(0,0)" fill="rgb(54,54,57)" d="M 1651.82 319.247 C 1692.34 296.362 1729.88 281.883 1770.52 262.36 C 1770.06 267.034 1769.38 266.128 1771.47 269.051 L 1775.34 270.868 C 1761.69 280.537 1745.22 285.746 1730.17 294.763 L 1728.97 295.264 L 1725.86 298.042 L 1724.97 300.916 L 1722.96 300.639 L 1721.31 302.154 L 1721.55 306.049 C 1720.33 306.444 1721.15 306.319 1719.13 305.531 C 1713.34 309.299 1707.91 310.503 1702.39 314.274 C 1697.88 317.354 1698.4 322.123 1693.38 324.296 C 1695.98 330.081 1698.96 333.226 1695.98 340.083 C 1679.4 357.441 1660.92 341.91 1671.57 325.523 C 1658.58 332.939 1645.78 338.627 1633.48 347.236 L 1631.23 344.736 L 1630.41 344.405 C 1626.47 339.505 1625.74 338.345 1623.01 332.683 C 1633.37 328.267 1641.79 324.254 1651.82 319.247 z"/>
<path transform="translate(0,0)" fill="rgb(213,212,213)" d="M 1651.82 319.247 C 1692.34 296.362 1729.88 281.883 1770.52 262.36 C 1770.06 267.034 1769.38 266.128 1771.47 269.051 L 1775.34 270.868 C 1761.69 280.537 1745.22 285.746 1730.17 294.763 L 1728.97 295.264 L 1726.45 293.038 C 1715.12 296.467 1705.53 302.736 1695.23 306.541 C 1679.5 312.354 1669.85 317.305 1655.38 326.349 C 1653.35 324.814 1653.35 324.005 1652.27 321.598 L 1651.82 319.247 z"/>
<path transform="translate(0,0)" fill="rgb(213,212,213)" d="M 1652.27 321.598 C 1653.35 324.005 1653.35 324.814 1655.38 326.349 C 1669.85 317.305 1679.5 312.354 1695.23 306.541 C 1705.53 302.736 1715.12 296.467 1726.45 293.038 L 1728.97 295.264 L 1725.86 298.042 C 1696.86 311.426 1667.62 323.679 1639.89 339.528 C 1637.08 341.137 1634.09 343.548 1631.23 344.736 L 1630.41 344.405 C 1626.47 339.505 1625.74 338.345 1623.01 332.683 C 1633.37 328.267 1641.79 324.254 1651.82 319.247 L 1652.27 321.598 z"/>
<path transform="translate(0,0)" fill="rgb(235,234,234)" d="M 1623.01 332.683 C 1633.37 328.267 1641.79 324.254 1651.82 319.247 L 1652.27 321.598 C 1646.91 338.694 1635.53 330.436 1630.41 344.405 C 1626.47 339.505 1625.74 338.345 1623.01 332.683 z"/>
<path transform="translate(0,0)" fill="rgb(1,0,1)" d="M 1671.57 325.523 L 1672.89 326.203 C 1672.65 330.613 1672.06 328.779 1673.88 332.122 C 1677.59 329.73 1678.45 328.754 1682.66 328.395 C 1689.48 330.578 1687.82 333.315 1690.29 337.697 L 1693.03 336.739 C 1694.99 338.112 1694.95 337.948 1695.98 340.083 C 1679.4 357.441 1660.92 341.91 1671.57 325.523 z"/>
<path transform="translate(0,0)" fill="rgb(213,212,213)" d="M 1673.88 332.122 C 1677.59 329.73 1678.45 328.754 1682.66 328.395 C 1689.48 330.578 1687.82 333.315 1690.29 337.697 C 1683.83 344.65 1674.28 343.315 1673.88 332.122 z"/>
<path transform="translate(0,0)" fill="rgb(235,234,234)" d="M 823.816 1000.07 C 826.19 999.294 827.268 998.415 829.235 996.949 C 836.001 1001 882.965 1063.25 894.691 1075.39 C 887.238 1081.85 880.945 1086.5 873.039 1092.29 C 867.72 1082.78 860.003 1075.4 853.355 1067 C 838.643 1048.42 817.452 1026.97 803.955 1008.19 C 813.965 1008.77 815.95 1006.02 823.816 1000.07 z"/>
<path transform="translate(0,0)" fill="rgb(197,196,198)" d="M 845.832 1026.5 C 846.907 1026.86 846.365 1026.52 847.131 1027.92 C 845.283 1031.43 838.587 1037.15 835.394 1040.14 L 834.832 1039.35 C 835.45 1036.7 842.776 1030.51 845.832 1026.5 z"/>
<path transform="translate(0,0)" fill="rgb(213,212,213)" d="M 399.251 1323.94 L 400.855 1321.67 C 404.936 1322.36 404.011 1323.42 407.706 1326.08 L 409.423 1324.78 C 411.62 1326.73 411.683 1327.07 413.317 1329.57 C 415.29 1330.53 418.668 1335.37 420.848 1337.49 C 424.427 1336.75 423.652 1334.53 427.182 1333.26 L 432.161 1331.37 L 434.71 1330.07 C 452.882 1353.36 471.951 1375.94 491.874 1397.75 C 489.611 1399.57 487.425 1401.55 484.932 1402.96 L 483.991 1404.38 L 488.596 1404.39 C 490.385 1406.91 489.641 1405.6 489.409 1409.78 C 483.171 1413.35 476.031 1419.38 469.274 1415.2 C 467.138 1413.21 466.408 1412.2 464.607 1409.94 C 460.339 1405.88 454.979 1398.28 451.27 1393.35 L 449.015 1390.6 C 431.169 1367.28 416.227 1348.26 399.251 1323.94 z"/>
<path transform="translate(0,0)" fill="rgb(197,196,198)" d="M 449.015 1390.6 C 453.654 1385.85 460.177 1377.01 464.962 1375.75 C 468.565 1376.9 467.148 1375.89 469.449 1378.75 C 469.141 1383.53 469.249 1382.52 464.468 1384.13 C 462.252 1387.17 462.386 1389.6 461.954 1393.37 L 463.309 1394.46 L 461.743 1395.7 C 458.648 1391.86 461.094 1390.44 458.609 1388.69 C 456.141 1390.19 453.595 1391.65 451.27 1393.35 L 449.015 1390.6 z"/>
<path transform="translate(0,0)" fill="rgb(197,196,198)" d="M 483.991 1404.38 L 488.596 1404.39 C 490.385 1406.91 489.641 1405.6 489.409 1409.78 C 483.171 1413.35 476.031 1419.38 469.274 1415.2 C 472.467 1413.33 474.181 1412.04 477.145 1409.79 C 479.289 1408.29 481.899 1406.07 483.991 1404.38 z"/>
<path transform="translate(0,0)" fill="rgb(213,212,213)" d="M 463.436 1406.76 C 468.466 1403.24 467.829 1402.47 473.054 1402.32 C 474.121 1404.47 475.564 1408.42 477.145 1409.79 C 474.181 1412.04 472.467 1413.33 469.274 1415.2 C 467.138 1413.21 466.408 1412.2 464.607 1409.94 L 463.436 1406.76 z"/>
<path transform="translate(0,0)" fill="rgb(235,234,234)" d="M 468.47 1394.68 L 471.393 1394.26 C 472.601 1395.2 486.13 1404.23 484.932 1402.96 L 483.991 1404.38 C 481.899 1406.07 479.289 1408.29 477.145 1409.79 C 475.564 1408.42 474.121 1404.47 473.054 1402.32 L 468.47 1394.68 z"/>
<path transform="translate(0,0)" fill="rgb(169,168,170)" d="M 427.182 1333.26 L 432.161 1331.37 C 427.738 1336.08 426.067 1337.87 420.874 1341.82 C 422.96 1343.93 425.335 1345.69 425.86 1348.43 C 420.308 1346.08 417.78 1339.61 415.494 1334.39 C 418.715 1337.73 418.172 1338.25 421.946 1339.22 C 424.848 1337.45 425.371 1336.11 427.182 1333.26 z"/>
<path transform="translate(0,0)" fill="rgb(197,196,198)" d="M 468.47 1394.68 L 473.054 1402.32 C 467.829 1402.47 468.466 1403.24 463.436 1406.76 L 462.721 1404.81 C 463.982 1400.22 465.63 1398.55 468.47 1394.68 z"/>
<path transform="translate(0,0)" fill="rgb(197,196,198)" d="M 407.706 1326.08 L 409.423 1324.78 C 411.62 1326.73 411.683 1327.07 413.317 1329.57 L 413.753 1332.13 L 412.897 1332.38 L 407.706 1326.08 z"/>
<path transform="translate(0,0)" fill="rgb(197,196,198)" d="M 450.861 1366.98 L 451.443 1367.52 C 450.843 1370.31 447.306 1373.35 445.132 1375.6 L 444.351 1375.05 L 444.555 1372.45 C 446.52 1369.4 447.821 1368.9 450.861 1366.98 z"/>
<path transform="translate(0,0)" fill="rgb(197,196,198)" d="M 429.208 1236.66 C 429.856 1241.07 431.09 1246.11 429.961 1250.23 L 429.356 1253.62 C 421.239 1258.57 413.961 1261.09 406.014 1266.78 C 405.127 1270.17 404.17 1273.55 403.145 1276.91 C 412.677 1301.29 417.792 1309.03 434.71 1330.07 L 432.161 1331.37 L 427.182 1333.26 C 423.652 1334.53 424.427 1336.75 420.848 1337.49 C 418.668 1335.37 415.29 1330.53 413.317 1329.57 C 411.683 1327.07 411.62 1326.73 409.423 1324.78 L 407.706 1326.08 C 404.011 1323.42 404.936 1322.36 400.855 1321.67 L 399.251 1323.94 C 360.299 1271.2 382.733 1267.81 429.208 1236.66 z"/>
<path transform="translate(0,0)" fill="rgb(235,234,234)" d="M 1547.81 415.818 C 1556.92 412.442 1577.13 398.613 1586.26 393.013 C 1593.15 403.537 1600.09 414.504 1607.54 424.603 C 1609.38 426.544 1610.93 428.222 1612.69 430.263 C 1610.56 436.33 1586.51 455.63 1579.67 462.143 C 1578.23 459.762 1571.04 449.046 1570.44 447.792 L 1564.85 439.846 L 1547.81 415.818 z"/>
<path transform="translate(0,0)" fill="rgb(213,212,213)" d="M 1607.54 424.603 C 1609.38 426.544 1610.93 428.222 1612.69 430.263 C 1610.56 436.33 1586.51 455.63 1579.67 462.143 C 1578.23 459.762 1571.04 449.046 1570.44 447.792 C 1575.03 445.67 1575.84 444.763 1579.81 441.447 L 1584 438.723 C 1589.08 434.953 1593.57 431.726 1598.84 428.231 L 1599.38 427.031 L 1600.39 427.158 L 1600.76 430.841 C 1603.32 429.158 1605.38 426.806 1607.54 424.603 z"/>
<path transform="translate(0,0)" fill="rgb(148,147,148)" d="M 1584 438.723 C 1589.08 434.953 1593.57 431.726 1598.84 428.231 C 1596.08 432.103 1589.05 438.975 1584 438.723 z"/>
<path transform="translate(0,0)" fill="rgb(235,234,234)" d="M 1564.85 439.846 C 1568.09 439.39 1569.54 437.111 1571.73 434.804 L 1573.9 434.214 L 1574.83 435.605 C 1576.26 437.732 1577.71 440.218 1579.81 441.447 C 1575.84 444.763 1575.03 445.67 1570.44 447.792 L 1564.85 439.846 z"/>
<path transform="translate(0,0)" fill="rgb(213,212,213)" d="M 1573.75 410.724 C 1577.43 413.336 1578.85 418.412 1580.05 422.499 L 1579.05 422.79 C 1577.05 420.573 1574.97 413.923 1573.75 410.724 z"/>
<path transform="translate(0,0)" fill="rgb(245,245,245)" d="M 542.253 1392.02 L 545.048 1391.41 C 547.237 1393.39 547.509 1393.96 549.182 1396.32 C 557.795 1414.55 568.065 1431.28 572.104 1451.28 C 581.313 1496.88 578.649 1543.31 593.413 1588.07 C 599.046 1605.15 603.81 1607.77 618.094 1617.46 C 605.172 1622.18 586.686 1624.07 581.263 1607.51 C 573.318 1583.24 574.889 1554.25 573.764 1529 C 572.701 1505.14 572.1 1481.02 568.188 1457.43 C 563.778 1430.27 553.704 1415.42 542.253 1392.02 z"/>
<path transform="translate(0,0)" fill="rgb(245,245,245)" d="M 1544.13 419.381 C 1548.31 425.232 1552.66 431.14 1556.48 437.219 C 1561.53 443.756 1574.54 458.617 1574.77 465.54 C 1573.12 467.866 1571.34 469.222 1568.33 469.728 C 1560.25 476.479 1556.82 479.952 1550.01 488.009 L 1540.99 476.161 C 1535.78 469.84 1513.95 443.653 1511.64 438.577 C 1522.33 431.087 1532.71 425.584 1544.13 419.381 z"/>
<path transform="translate(0,0)" fill="rgb(235,234,234)" d="M 1566.72 457.685 C 1564.93 461.59 1564.06 462.223 1560.82 465.094 C 1563.29 468.278 1564.21 466.498 1568.33 469.728 C 1560.25 476.479 1556.82 479.952 1550.01 488.009 L 1540.99 476.161 C 1545.59 474.026 1562.1 461.362 1566.72 457.685 z"/>
<path transform="translate(0,0)" fill="rgb(213,212,213)" d="M 1556.48 437.219 C 1561.53 443.756 1574.54 458.617 1574.77 465.54 C 1573.12 467.866 1571.34 469.222 1568.33 469.728 C 1564.21 466.498 1563.29 468.278 1560.82 465.094 C 1564.06 462.223 1564.93 461.59 1566.72 457.685 C 1566.84 450.17 1556.89 445.544 1556.48 437.219 z"/>
<path transform="translate(0,0)" fill="rgb(245,245,245)" d="M 1523.57 381.545 C 1538.4 372.901 1552.19 365.718 1567.5 357.88 C 1571.88 368.764 1579.61 380.678 1585.73 390.893 C 1575.67 395.38 1557.64 408.206 1546.53 414.656 C 1539.85 404.398 1530.95 391.083 1523.57 381.545 z"/>
<path transform="translate(0,0)" fill="rgb(54,54,57)" d="M 1805.8 250.526 L 1806.94 251.014 C 1848.58 230.417 1906.28 288.393 1872.76 322.405 L 1873.38 321.059 C 1886.16 292.893 1878.52 269.52 1848.98 255.529 C 1844.34 253.331 1836.31 252.563 1832.25 256.357 C 1801.09 252.809 1790 267.433 1764.45 281.26 C 1760.63 283.327 1750.16 288.686 1747.74 291.347 C 1748.54 293.34 1748.17 292.521 1748.84 293.892 C 1747.98 295.567 1748.12 294.921 1748.1 295.942 C 1764.27 306.016 1749.17 318.3 1735.18 319.865 C 1725.38 313.337 1726.37 312.306 1724.97 300.916 L 1725.86 298.042 L 1728.97 295.264 L 1730.17 294.763 C 1745.22 285.746 1761.69 280.537 1775.34 270.868 L 1771.47 269.051 C 1769.38 266.128 1770.06 267.034 1770.52 262.36 C 1777.21 259.172 1799.16 250.223 1805.8 250.526 z"/>
<path transform="translate(0,0)" fill="rgb(1,0,1)" d="M 1728.97 295.264 L 1730.17 294.763 L 1735.31 295.218 L 1735.93 296.51 C 1733.25 303.611 1728.09 307.453 1735.09 313.785 C 1740.76 315.522 1745.69 313.811 1749.28 309.098 C 1749.94 303.001 1746.98 301.272 1741.65 299.066 C 1743.61 297.178 1745.5 296.821 1748.1 295.942 C 1764.27 306.016 1749.17 318.3 1735.18 319.865 C 1725.38 313.337 1726.37 312.306 1724.97 300.916 L 1725.86 298.042 L 1728.97 295.264 z"/>
<path transform="translate(0,0)" fill="rgb(197,196,198)" d="M 1770.52 262.36 C 1777.21 259.172 1799.16 250.223 1805.8 250.526 C 1799.13 256.229 1783.01 267.281 1775.34 270.868 L 1771.47 269.051 C 1769.38 266.128 1770.06 267.034 1770.52 262.36 z"/>
<path transform="translate(0,0)" fill="rgb(245,245,245)" d="M 1493.48 410.89 C 1499.44 394.294 1506.01 391.674 1521.19 382.936 C 1527.93 394.81 1535.15 406.404 1542.83 417.688 C 1528.5 424.653 1523.62 427.359 1510.66 436.952 C 1504.53 430.827 1496.38 419.401 1493.48 410.89 z"/>
<path transform="translate(0,0)" fill="url(#Gradient3)" d="M 598.058 1355.95 C 663.486 1328.04 740.219 1317 800.558 1271.36 C 807.019 1266.48 814.637 1256.93 821.348 1250.99 L 822.056 1250.38 C 809.888 1283.99 766.878 1302.19 736.223 1317.21 L 736.522 1314.41 L 740.037 1311.48 C 737.683 1311.27 717.544 1320.25 712.832 1321.82 C 674.551 1334.53 635.849 1344.74 597.956 1358.65 L 598.058 1355.95 z"/>
<path transform="translate(0,0)" fill="url(#Gradient2)" d="M 759.586 1519.61 L 761.688 1524 C 754.156 1538.02 745.82 1549.12 736.799 1563.16 C 708.109 1607.79 671.749 1652.84 623.187 1676.67 C 622.582 1676.96 620.495 1677.34 619.723 1677.47 C 628.724 1668.77 663.408 1652.68 665.061 1644.04 L 662.899 1643.81 L 665.77 1638.94 C 669.004 1632.84 673.104 1637.51 670.761 1628.15 C 673.695 1624 691.879 1608.43 696.295 1603.22 C 720.333 1574.84 740.613 1551.79 759.586 1519.61 z"/>
<path transform="translate(0,0)" fill="rgb(235,234,234)" d="M 631.546 1354.44 C 637.279 1359.49 638.704 1361.42 642.5 1367.67 C 645.345 1378.89 639.83 1389.67 628.291 1392.41 C 622.492 1393.76 616.398 1392.64 611.446 1389.34 C 607.124 1386.44 604.999 1382.81 602.965 1378.18 C 601.079 1359.7 616.898 1358.78 631.546 1354.44 z"/>
<path transform="translate(0,0)" fill="rgb(197,196,198)" d="M 642.5 1367.67 C 645.345 1378.89 639.83 1389.67 628.291 1392.41 C 622.492 1393.76 616.398 1392.64 611.446 1389.34 C 607.124 1386.44 604.999 1382.81 602.965 1378.18 C 605.787 1378.66 608.209 1378.5 611.06 1378.46 L 622.559 1386.54 C 631.762 1381.8 639.55 1378.16 642.5 1367.67 z"/>
<path transform="translate(0,0)" fill="url(#Gradient1)" d="M 863.754 745.898 L 865.2 746.197 C 860.035 768.275 812.663 797.248 809.34 839.735 C 807.091 868.475 808.583 886.119 826.719 911.248 C 824.975 911.067 822.217 909.058 821.219 907.776 C 798.9 879.109 797.796 836.047 813.711 804.226 C 825.655 780.344 845.406 763.951 863.754 745.898 z"/>
<path transform="translate(0,0)" fill="rgb(245,245,245)" d="M 815.469 979.797 C 819.769 985.04 824.145 990.219 828.597 995.334 C 826.951 996.902 825.415 998.457 823.816 1000.07 C 815.95 1006.02 813.965 1008.77 803.955 1008.19 C 800.77 1003.88 797.475 1000 794.048 995.9 C 799.529 990.627 809 983.897 815.469 979.797 z"/>
<path transform="translate(0,0)" fill="rgb(1,0,1)" fill-opacity="0.988235" d="M 199.189 1149.04 C 202.713 1141.25 204.46 1138.13 210.327 1131.42 C 194.752 1166.95 185.45 1204.9 182.835 1243.61 C 182.055 1254.08 182.222 1278.46 180.359 1286.63 C 178.927 1278.98 179.237 1277.64 178.623 1270.16 C 181.134 1249.42 177.912 1233.45 182.992 1208.13 C 185.816 1194.05 199.01 1156.51 199.189 1149.04 z"/>
<path transform="translate(0,0)" fill="rgb(197,196,198)" d="M 978.443 1001.52 L 984.622 1008.97 L 986.221 1010.8 C 983.896 1014.31 961.485 1033.73 957.462 1036.46 C 953.369 1033.36 957.586 1034.33 954.445 1032 L 952.354 1028.37 C 953.915 1022.46 972.766 1006.66 978.443 1001.52 z"/>
<path transform="translate(0,0)" fill="rgb(104,103,105)" d="M 984.622 1008.97 L 986.221 1010.8 C 983.896 1014.31 961.485 1033.73 957.462 1036.46 C 953.369 1033.36 957.586 1034.33 954.445 1032 C 964.081 1027.75 969.719 1015.81 984.622 1008.97 z"/>
<path transform="translate(0,0)" fill="rgb(104,103,105)" d="M 881.545 1354.16 C 874.236 1360.42 864.387 1367.4 857.658 1373.39 C 846.229 1383.57 826.938 1405.45 818.641 1418.03 C 817.832 1415.71 816.989 1413.4 816.114 1411.11 C 835.051 1383.64 851.694 1367.87 881.545 1354.16 z"/>
<path transform="translate(0,0)" fill="rgb(235,234,234)" d="M 1073.06 1242.62 L 1074.04 1244.16 C 1058.83 1265.16 1025.76 1289.61 1003.06 1302.81 C 1000.58 1300.68 999.282 1299.74 996.283 1298.47 C 1031.57 1280.66 1045.98 1272.75 1073.06 1242.62 z"/>
<path transform="translate(0,0)" fill="rgb(148,147,148)" d="M 900.362 1074.4 C 906.016 1069.93 918.867 1057.9 924.329 1055.62 C 925.808 1057.92 926.368 1059.11 928.395 1060.93 L 929.263 1059.7 L 928.148 1056.84 C 931.602 1055.57 929.793 1055.65 933.757 1057.41 C 925.766 1067.1 915.432 1075.26 906.858 1084.96 L 900.362 1074.4 z"/>
<path transform="translate(0,0)" fill="rgb(197,196,198)" d="M 1520.71 469.423 C 1512.33 464.514 1493.14 441.516 1493.48 430.418 C 1507.8 443.647 1513.37 451.026 1525.31 466.137 L 1520.71 469.423 z"/>
<path transform="translate(0,0)" fill="rgb(169,168,170)" d="M 1589.99 480.431 C 1596.76 479.086 1610.32 476.139 1617.09 475.938 C 1637.79 475.324 1660.1 478.693 1680.9 479.917 C 1682.39 482.49 1682.12 481.163 1681.92 483.994 C 1679.05 484.708 1668.77 482.799 1665.14 482.474 C 1639.66 480.196 1617.8 475.388 1593.03 483.69 C 1590.14 482.323 1591.11 483.385 1589.99 480.431 z"/>
<path transform="translate(0,0)" fill="rgb(148,147,148)" d="M 1043.93 939.792 C 1046.79 942.269 1045.96 940.815 1047.06 943.956 C 1044.94 949.285 1023.77 967.03 1017.62 972.64 C 1015.2 970.181 1015.13 970.237 1013.51 967.246 C 1014.92 963.117 1038.69 944.165 1043.93 939.792 z"/>
<path transform="translate(0,0)" fill="rgb(148,147,148)" d="M 948.393 1031.67 L 955.153 1039.14 C 951.715 1042.15 936.427 1056.04 933.757 1057.41 C 929.793 1055.65 931.602 1055.57 928.148 1056.84 L 926.419 1054.84 C 926.85 1050.15 944.133 1034.69 948.393 1031.67 z"/>
<path transform="translate(0,0)" fill="rgb(169,168,170)" d="M 1118.72 873.926 C 1120.21 875.753 1119.58 875.09 1120.07 877.96 C 1116.6 885.328 1093.8 903.259 1086.47 908.547 L 1085.39 905.054 C 1088.09 898.944 1112.27 879.217 1118.72 873.926 z"/>
<path transform="translate(0,0)" fill="rgb(148,147,148)" d="M 1008.9 970.984 C 1010.89 973.125 1010.29 972.348 1011.57 975.04 C 1010.4 982.071 992.49 992.692 986.919 1002.48 C 985.597 1000.69 984.506 999.029 983.277 997.18 C 984.31 991.805 1004.15 975.032 1008.9 970.984 z"/>
<path transform="translate(0,0)" fill="rgb(148,147,148)" d="M 1543.89 506.134 C 1543.08 512.047 1517.91 533.549 1511.3 534.446 C 1512.48 527.932 1536.05 507.735 1541.66 502.647 L 1543.89 506.134 z"/>
<path transform="translate(0,0)" fill="rgb(197,196,198)" d="M 1080.79 908.016 L 1081.87 910.469 C 1081.28 915.036 1058.33 934.274 1052.82 940.406 L 1051.87 941.474 C 1050.25 938.956 1049.12 937.872 1049.4 934.942 C 1058.37 925.494 1070.43 916.117 1080.79 908.016 z"/>
<path transform="translate(0,0)" fill="rgb(235,234,234)" d="M 226.259 1513.16 C 226.293 1507.68 230.016 1503.02 235.803 1503.38 C 238.54 1505.84 237.73 1505.32 239.022 1509.36 C 240.705 1512.02 240.777 1512.58 243.821 1513.87 C 244.526 1519.31 241.984 1522.04 236.279 1522.02 C 230.581 1522 228.629 1517.56 226.259 1513.16 z"/>
<path transform="translate(0,0)" fill="rgb(213,212,213)" d="M 226.259 1513.16 C 226.293 1507.68 230.016 1503.02 235.803 1503.38 C 238.54 1505.84 237.73 1505.32 239.022 1509.36 C 234.027 1511.24 231.596 1512.35 226.259 1513.16 z"/>
<path transform="translate(0,0)" fill="rgb(169,168,170)" d="M 1292.67 723.828 L 1294.16 725.511 C 1293.05 730.465 1262.56 755.531 1256.79 760.296 L 1254.27 758.51 C 1255.1 754.578 1287.34 728.194 1292.67 723.828 z"/>
<path transform="translate(0,0)" fill="rgb(235,234,234)" d="M 1529.88 346.959 C 1534.89 349.399 1539.57 350.173 1539.82 356.096 C 1537.49 360.178 1536.99 360.579 1533.63 363.991 C 1528.67 364.326 1527.42 363.918 1523.95 360.941 C 1520.72 353.455 1523.98 351.073 1529.88 346.959 z"/>
<path transform="translate(0,0)" fill="rgb(197,196,198)" d="M 1525.31 466.137 C 1530.31 471.99 1546.25 486.499 1547.06 490.988 C 1545.61 492.25 1545.16 493.26 1543.73 492.903 C 1536.4 491.081 1525.83 475.243 1520.71 469.423 L 1525.31 466.137 z"/>
<path transform="translate(0,0)" fill="rgb(235,234,234)" d="M 1775.36 229.812 C 1779.77 229.911 1780.28 229.692 1783.84 231.957 C 1787.47 238.173 1783.62 241.231 1779.03 245.264 C 1774.22 246.4 1773.59 246.056 1770.08 243.105 C 1766.9 236.398 1769.79 233.181 1775.36 229.812 z"/>
<path transform="translate(0,0)" fill="rgb(169,168,170)" d="M 1249.83 762.795 L 1249.92 765.448 C 1245.97 773.022 1217.54 795.085 1209.75 801.453 L 1209.53 799.707 C 1214.26 791.797 1241.6 769.004 1249.83 762.795 z"/>
<path transform="translate(0,0)" fill="rgb(213,212,213)" d="M 1204.37 801.756 L 1206.42 802.443 C 1204.98 807.298 1174.15 832.62 1168.74 837.298 C 1167.02 836.424 1167.72 837.07 1166.72 835.277 C 1169.74 829.216 1196.9 808.284 1204.37 801.756 z"/>
<path transform="translate(0,0)" fill="rgb(104,103,105)" d="M 1550.91 493.849 C 1559.29 493.343 1578.72 483.389 1589.99 480.431 C 1591.11 483.385 1590.14 482.323 1593.03 483.69 C 1583.14 487.458 1570.55 491.494 1561.83 497.122 C 1556.73 494.137 1557.16 494.346 1550.91 493.849 z"/>
<path transform="translate(0,0)" fill="rgb(197,196,198)" d="M 1506.99 537.791 L 1508.29 539.128 C 1506.89 543.617 1469.08 576.633 1463.56 580.436 L 1462.56 580.503 L 1462.51 579.19 C 1475.58 565.997 1493.1 550.288 1506.99 537.791 z"/>
<path transform="translate(0,0)" fill="rgb(235,234,234)" d="M 1723.99 254.995 C 1729.78 254.775 1734.56 255.048 1733.95 262.301 C 1732.48 265.268 1730.76 265.628 1727.71 267.066 C 1724.16 267.358 1722.71 267.834 1719.58 266.169 C 1715.39 260.339 1718.78 257.969 1723.99 254.995 z"/>
<path transform="translate(0,0)" fill="rgb(197,196,198)" d="M 1160.04 840.743 L 1161.44 841.379 L 1161.51 843.076 C 1154.33 850.519 1135.77 864.869 1126.81 872.288 L 1125.32 871.058 C 1126.35 866.042 1153.92 845.402 1160.04 840.743 z"/>
<path transform="translate(0,0)" fill="rgb(169,168,170)" d="M 498.533 1402.82 C 507.746 1396.93 513.584 1392.21 524.476 1390.09 L 525.737 1390.52 C 519.262 1395.31 507.252 1399.49 499.816 1403.59 C 496.621 1405.35 492.199 1408.57 489.409 1409.78 C 489.641 1405.6 490.385 1406.91 488.596 1404.39 L 483.991 1404.38 L 484.932 1402.96 C 487.425 1401.55 489.611 1399.57 491.874 1397.75 C 493.965 1399.33 496.557 1401.18 498.533 1402.82 z"/>
<path transform="translate(0,0)" fill="rgb(197,196,198)" d="M 1347.11 679.037 C 1345.83 684.311 1306.41 716.907 1299.49 722.863 L 1299.02 720.07 C 1301.8 715.904 1340.52 684.494 1347.11 679.037 z"/>
<path transform="translate(0,0)" fill="rgb(197,196,198)" d="M 1387.71 634.263 L 1388.93 633.645 L 1391.79 636.223 C 1391.42 640.875 1358.84 672.103 1353.34 674.612 L 1352.19 674.12 C 1354.14 669.234 1388.44 645.05 1387.71 634.263 z"/>
<path transform="translate(0,0)" fill="rgb(148,147,148)" d="M 1541.66 502.647 C 1547.08 499.051 1545.95 500.947 1547.34 495.685 L 1550.91 493.849 C 1557.16 494.346 1556.73 494.137 1561.83 497.122 C 1557.85 500.285 1551.41 506.051 1546.66 506.258 L 1544.54 503.87 L 1543.89 506.134 L 1541.66 502.647 z"/>
<path transform="translate(0,0)" fill="rgb(197,196,198)" d="M 208.406 1105.76 C 200.432 1119.69 198.543 1118.75 198.114 1134.59 L 196.345 1136.89 C 193.954 1136.01 191.195 1134.38 188.887 1133.15 C 194.091 1123.16 200.661 1113.94 208.406 1105.76 z"/>
<path transform="translate(0,0)" fill="rgb(169,168,170)" d="M 597.956 1358.65 C 583.173 1364.64 567.57 1370.14 553.238 1376.88 C 555.955 1371.73 590.576 1358.98 598.058 1355.95 L 597.956 1358.65 z"/>
<path transform="translate(0,0)" fill="rgb(197,196,198)" d="M 900.249 1064.45 C 906.564 1062.21 913.878 1052.38 919.254 1051.18 C 918.725 1056.3 901.847 1070.63 897.497 1071.04 L 895.543 1068.95 C 897.369 1066.9 898.213 1066.2 900.249 1064.45 z"/>
<path transform="translate(0,0)" fill="rgb(104,103,105)" d="M 863.754 745.898 C 865.65 739.378 872.542 734.085 875.079 727.62 C 875.999 725.274 876.065 722.27 876.731 719.566 C 877.866 726.569 872.934 744.136 865.2 746.197 L 863.754 745.898 z"/>
<path transform="translate(0,0)" fill="rgb(148,147,148)" d="M 1862.04 330.367 C 1862.06 330.899 1862.09 331.431 1862.11 331.963 C 1853.94 340.031 1845.68 343.339 1835.47 348.34 L 1834.65 347.684 C 1846.01 339.056 1850.59 337.946 1861.2 330.931 L 1862.04 330.367 z"/>
<path transform="translate(0,0)" fill="rgb(104,103,105)" fill-opacity="0.984314" d="M 788.941 939.023 C 796.559 944.529 807.745 966.166 810.539 975.319 C 806.21 972.568 793.014 945.572 788.941 939.023 z"/>
<path transform="translate(0,0)" fill="rgb(235,234,234)" d="M 887.403 713.843 C 892.474 713.864 892.908 713.416 893.842 717.922 L 891.77 715.786 C 892.377 717.673 893.043 719.539 893.767 721.383 L 892.483 723.238 L 883.981 729.772 C 885.371 724.115 886.399 719.612 887.403 713.843 z"/>
<path transform="translate(0,0)" fill="rgb(197,196,198)" d="M 542.253 1392.02 L 541.518 1389.27 L 539.575 1388.44 L 534.014 1390.81 C 534.137 1387.67 533.564 1388.49 534.886 1386.28 C 539.919 1384.51 540.434 1384.49 544.449 1388.08 L 546.293 1387.94 C 549.697 1391.04 549.365 1389.8 550.096 1393.53 L 549.182 1396.32 C 547.509 1393.96 547.237 1393.39 545.048 1391.41 L 542.253 1392.02 z"/>
<path transform="translate(0,0)" fill="rgb(169,168,170)" d="M 943.918 1030.25 L 944.432 1030.51 C 941.253 1035.1 929.677 1044.06 924.714 1048.37 L 923.427 1047.14 C 925.52 1041.6 938.678 1033.3 943.918 1030.25 z"/>
<path transform="translate(0,0)" fill="rgb(104,103,105)" d="M 1766.72 366.777 C 1767.09 367.133 1766.84 366.816 1767.45 368.225 C 1759.05 376.367 1754.74 380.646 1747.02 389.751 C 1746.32 389.262 1746.75 389.657 1746.3 388.156 C 1750.62 380.054 1759.67 373.037 1766.72 366.777 z"/>
<path transform="translate(0,0)" fill="rgb(197,196,198)" d="M 891.754 1114.27 C 892.112 1106.39 896.012 1096.92 901.108 1090.93 C 899.002 1098.92 896.466 1103.34 894.865 1111.78 L 894.627 1113.1 L 893.042 1114.86 L 891.754 1114.27 z"/>
<path transform="translate(0,0)" fill="rgb(197,196,198)" d="M 173.029 1319.46 C 173.393 1320.98 175.135 1328.7 175.55 1329.65 C 174.911 1336.81 176.653 1342.3 178.184 1349.35 C 175.414 1342.81 172.576 1336.84 171.147 1329.88 C 172.85 1327.43 172.778 1322.7 173.029 1319.46 z"/>
<path transform="translate(0,0)" fill="rgb(104,103,105)" d="M 736.223 1317.21 C 729.236 1320.62 724.102 1322.78 716.327 1324.22 C 719.345 1321.94 732.012 1316.59 736.522 1314.41 L 736.223 1317.21 z"/>
<path transform="translate(0,0)" fill="rgb(104,103,105)" d="M 165.48 1327.38 C 169.797 1334.79 171.803 1342.73 174.027 1351 L 171.577 1350.27 C 169.489 1342.81 167.118 1334.9 165.48 1327.38 z"/>
<path transform="translate(0,0)" fill="rgb(104,103,105)" d="M 1073.06 1242.62 C 1076.95 1237.32 1080.56 1231.81 1085.55 1227.57 C 1082.51 1232.83 1078.18 1239.75 1074.04 1244.16 L 1073.06 1242.62 z"/>
<path transform="translate(0,0)" fill="rgb(104,103,105)" d="M 1706.7 447.863 C 1706.89 452.554 1700.4 458.787 1697.32 461.972 C 1697.96 457.113 1703.38 451.709 1706.7 447.863 z"/>
<path transform="translate(0,0)" fill="rgb(104,103,105)" d="M 894.627 1113.1 C 894.98 1116.19 896.031 1121.6 895.168 1124.19 C 893.725 1120.87 892.48 1115.8 891.754 1114.27 L 893.042 1114.86 L 894.627 1113.1 z"/>
<path transform="translate(0,0)" fill="rgb(1,0,1)" d="M 1659.24 284.436 C 1662.9 269.831 1674.2 260.309 1687.56 272.04 C 1694.41 292.511 1686.37 287.807 1674.86 296.765 C 1667.25 297.619 1662.78 289.888 1659.24 284.436 z"/>
<path transform="translate(0,0)" fill="rgb(235,234,234)" d="M 1672.67 272.627 C 1678.55 274.044 1683.69 276.816 1683.73 283.338 C 1681.22 287.038 1681.66 285.96 1676.62 287.944 C 1673.35 289.52 1672.42 289.062 1669.5 287.688 C 1665.33 281.477 1668.04 277.196 1672.67 272.627 z"/>
<path transform="translate(0,0)" fill="rgb(1,0,1)" d="M 1568.58 313.984 C 1589.2 313.593 1592.8 333.446 1575.27 342.799 C 1573.34 342.188 1570.98 342.121 1568.91 341.728 C 1562.81 340.577 1554.65 332.525 1557.14 325.871 C 1559.41 319.82 1563.2 317.132 1568.58 313.984 z"/>
<path transform="translate(0,0)" fill="rgb(213,212,213)" d="M 1566.99 320.955 C 1578.04 321.213 1586.36 325.58 1577.31 336.832 L 1575.41 335.844 C 1569.9 336.53 1565.02 334.407 1563.23 328.969 C 1563.9 324.659 1564.2 324.506 1566.99 320.955 z"/>
<path transform="translate(0,0)" fill="rgb(1,0,1)" d="M 1619.39 318.197 C 1610.8 313.419 1602.14 305.184 1612.46 296.016 C 1616.35 292.539 1621.56 290.927 1626.74 291.598 C 1635.3 292.716 1639.06 301.109 1637.53 308.881 C 1633.47 311.831 1629.22 317.809 1625.51 319.321 C 1622.83 318.21 1622.26 317.759 1619.39 318.197 z"/>
<path transform="translate(0,0)" fill="rgb(197,196,198)" d="M 1620.02 296.464 C 1631.19 297.377 1633.22 303.697 1626.25 312.276 C 1620.86 310.892 1616.67 309.938 1615.28 304.181 C 1615.97 300.647 1617.68 299.223 1620.02 296.464 z"/>
<path transform="translate(0,0)" fill="rgb(148,147,148)" fill-opacity="0.0470588" d="M 1687.56 272.04 C 1690.75 272.012 1690.44 271.407 1693.35 272.726 C 1692.09 277.208 1691.85 278.097 1694.79 281.355 C 1698.13 280.5 1695.67 278.692 1699.2 274.771 L 1700.86 275.994 L 1701.85 275.491 L 1703.15 268.568 L 1704.88 267.833 L 1705.12 263.697 L 1705.7 263.403 L 1708.7 269.869 L 1710.04 269.021 L 1709.11 270.574 L 1709.81 270.704 C 1709.85 266.764 1709.43 260.157 1711.03 256.902 L 1711.94 257.099 C 1711.14 265.887 1711.35 265.834 1716.79 272.695 C 1712.24 273.781 1712.17 272.257 1706.51 274.437 C 1704.17 278.323 1706.06 280.094 1708.43 283.607 C 1701.28 286.943 1682.59 294.921 1677.47 298.221 L 1674.86 296.765 C 1686.37 287.807 1694.41 292.511 1687.56 272.04 z"/>
<path transform="translate(0,0)" fill="rgb(148,147,148)" fill-opacity="0.0745098" d="M 1776.01 253.148 C 1780.68 249.888 1784.27 247.506 1789.2 244.568 L 1790.44 247.559 C 1785.61 249.364 1780.8 251.227 1776.01 253.148 z"/>
</svg>