<svg version="1.1" xmlns="http://www.w3.org/2000/svg" style="display: block;" viewBox="0 0 2048 1365" width="1536" height="1024" preserveAspectRatio="none">
<path transform="translate(0,0)" fill="rgb(24,23,24)" d="M 650.022 475.841 C 636.102 488.285 618.892 506.603 601.713 513.513 C 591.088 517.788 573.796 510.043 570.674 497.912 C 569.519 493.531 570.2 488.868 572.561 485.001 C 578.348 475.532 588.386 474.749 597.121 474.047 C 596.047 474.134 610.882 467.615 610.135 468.11 C 606.872 467.679 603.62 467.194 600.413 466.445 C 579.611 461.586 558.636 457.684 537.67 453.594 L 472.245 440.754 C 454.401 437.358 424.04 436.536 414.866 419.822 C 406.016 403.697 406.685 386.935 420.441 373.905 C 429.888 364.955 439.259 356.873 449.064 348.422 L 498.487 305.884 C 517.446 289.562 539.202 269.589 559.27 255 C 569.89 247.28 585.981 249.058 598.834 250.765 C 621.322 253.752 644.853 258.364 667.449 262.341 C 703.826 268.738 740.238 274.934 776.684 280.929 C 915.14 303.292 1053.48 326.366 1191.7 350.151 L 1426.2 388.091 C 1462.72 393.925 1500.57 400.26 1537.14 406.425 C 1547.69 408.203 1557.35 413.129 1562.88 422.664 C 1569.5 436.921 1570.07 458.617 1564.81 473.435 C 1561.2 483.576 1555.41 490.358 1548.74 498.494 C 1547.86 507.486 1547.67 515.711 1543.61 524.007 C 1538.2 535.048 1481.75 604.081 1471.58 612.379 C 1461.03 620.983 1453.3 623.227 1439.82 621.692 C 1425.1 620.017 1410.3 616.804 1395.71 614.225 C 1365.22 608.842 1334.78 603.195 1304.39 597.285 C 1296.62 596.885 1279.23 593.026 1271.2 591.4 C 1254.63 587.995 1238.01 584.803 1221.36 581.822 C 1205.88 597.085 1178.94 631.468 1153.47 621.517 C 1143.03 617.437 1140.53 608.069 1137.05 598.517 C 1121.19 606.991 1087.9 631.205 1070.77 642.674 C 1032.58 668.25 991.639 693.595 954.272 719.778 C 970.627 734.165 990.613 755.834 1006.18 771.702 L 1081.79 848.05 C 1120.99 888.047 1163.15 927.166 1202.23 966.726 C 1211.85 956.056 1269.21 896.166 1277.89 892.976 C 1283.34 890.974 1289.08 890.723 1294.39 893.417 C 1302.05 897.308 1305.1 904.131 1307.51 911.91 C 1304.83 921.053 1303.44 922.352 1297.05 929.3 C 1283.43 944.09 1264.04 952.188 1249.93 964.573 C 1235.03 977.662 1219.96 994.168 1205.42 1008.15 C 1192.09 1020.96 1179.06 1034.55 1165.17 1047.02 C 1158.44 1053.05 1153.75 1068.12 1149.82 1071.75 C 1139.6 1081.19 1121.57 1102.66 1107.55 1104.02 C 1102.12 1104.55 1093.73 1101.17 1089.86 1097.71 C 1085.58 1093.88 1082.34 1087.53 1082.23 1081.73 C 1082.16 1078.12 1083.86 1072.34 1086.44 1069.38 C 1095.95 1058.47 1109.21 1047.18 1120.61 1038.21 C 1123.37 1036.04 1130.52 1034.82 1133.26 1032.17 C 1143.12 1022.66 1153.02 1013 1162.82 1003.5 C 1148.42 986.982 1131.86 971.165 1116.29 955.661 L 1062.2 901.122 C 1011.94 849.877 962.415 797.924 913.626 745.279 L 664.815 920.662 C 646.346 933.878 616.411 974.67 594.273 969.377 C 587.517 967.711 581.706 963.415 578.132 957.444 C 568.196 940.594 583.703 933.419 595.571 927.437 C 616.593 916.84 634.469 900.63 653.172 886.604 C 684.111 863.402 715.36 840.544 745.658 816.495 C 754.176 809.732 765.159 800.624 774.683 795.704 C 778.319 797.687 782.425 800.324 786.016 802.511 L 895.393 727.251 C 881.492 709.375 851.706 679.6 835.429 661.881 L 725.027 540.387 C 713.517 527.746 679.416 492.022 672.164 480.216 C 666.219 478.634 656.289 477.001 650.022 475.841 z M 937.544 702.281 C 950.638 692.182 964.245 684.538 977.388 675.053 C 1003.9 655.918 1034.59 639.227 1060.67 620.06 C 1087.36 602.914 1116.57 584.737 1142.7 566.954 L 842.597 511.33 C 807.269 504.844 771.532 497.691 736.226 491.521 C 755.698 510.766 775.043 532.275 794.078 552.146 C 825.281 584.176 856.219 616.462 886.89 649.002 C 896.395 659.232 906.059 669.315 915.876 679.247 C 921.862 685.297 932.859 695.703 937.544 702.281 z"/>
<path transform="translate(0,0)" fill="rgb(0,0,0)" d="M 650.022 475.841 C 636.102 488.285 618.892 506.603 601.713 513.513 C 591.088 517.788 573.796 510.043 570.674 497.912 C 569.519 493.531 570.2 488.868 572.561 485.001 C 578.348 475.532 588.386 474.749 597.121 474.047 C 596.047 474.134 610.882 467.615 610.135 468.11 C 606.872 467.679 603.62 467.194 600.413 466.445 C 579.611 461.586 558.636 457.684 537.67 453.594 L 472.245 440.754 C 454.401 437.358 424.04 436.536 414.866 419.822 C 406.016 403.697 406.685 386.935 420.441 373.905 C 429.888 364.955 439.259 356.873 449.064 348.422 L 498.487 305.884 C 517.446 289.562 539.202 269.589 559.27 255 C 569.89 247.28 585.981 249.058 598.834 250.765 C 621.322 253.752 644.853 258.364 667.449 262.341 C 703.826 268.738 740.238 274.934 776.684 280.929 C 915.14 303.292 1053.48 326.366 1191.7 350.151 L 1426.2 388.091 C 1462.72 393.925 1500.57 400.26 1537.14 406.425 C 1547.69 408.203 1557.35 413.129 1562.88 422.664 L 1559.88 422.891 C 1558.25 421.485 1557.16 420.425 1555.65 418.886 C 1550.8 415.605 1539.29 409.785 1533.61 411.501 L 1532.79 410.536 C 1525.16 408.741 1512.64 407.234 1504.47 405.884 L 1448.49 396.501 L 1265.22 366.972 L 850.994 298.085 L 671.543 267.873 C 641.448 262.684 606.459 255.064 575.743 253.443 C 563.538 252.798 542.941 272.912 532.708 281.692 L 490.909 317.621 L 444.726 357.502 C 437.015 364.22 423.766 375.45 417.083 382.809 L 415.725 385.504 C 409.217 398.876 413.817 422.468 427.456 427.016 C 443.084 432.227 468.009 435.557 484.708 438.829 C 535.478 449.083 586.316 458.996 637.219 468.568 L 1304.9 593.488 L 1304.39 597.285 C 1296.62 596.885 1279.23 593.026 1271.2 591.4 C 1254.63 587.995 1238.01 584.803 1221.36 581.822 C 1205.88 597.085 1178.94 631.468 1153.47 621.517 C 1143.03 617.437 1140.53 608.069 1137.05 598.517 C 1121.19 606.991 1087.9 631.205 1070.77 642.674 C 1032.58 668.25 991.639 693.595 954.272 719.778 C 970.627 734.165 990.613 755.834 1006.18 771.702 L 1081.79 848.05 C 1120.99 888.047 1163.15 927.166 1202.23 966.726 C 1211.85 956.056 1269.21 896.166 1277.89 892.976 C 1283.34 890.974 1289.08 890.723 1294.39 893.417 C 1302.05 897.308 1305.1 904.131 1307.51 911.91 C 1304.83 921.053 1303.44 922.352 1297.05 929.3 C 1283.43 944.09 1264.04 952.188 1249.93 964.573 C 1235.03 977.662 1219.96 994.168 1205.42 1008.15 C 1192.09 1020.96 1179.06 1034.55 1165.17 1047.02 C 1158.44 1053.05 1153.75 1068.12 1149.82 1071.75 C 1139.6 1081.19 1121.57 1102.66 1107.55 1104.02 C 1102.12 1104.55 1093.73 1101.17 1089.86 1097.71 C 1085.58 1093.88 1082.34 1087.53 1082.23 1081.73 C 1082.16 1078.12 1083.86 1072.34 1086.44 1069.38 C 1095.95 1058.47 1109.21 1047.18 1120.61 1038.21 C 1123.37 1036.04 1130.52 1034.82 1133.26 1032.17 C 1143.12 1022.66 1153.02 1013 1162.82 1003.5 C 1148.42 986.982 1131.86 971.165 1116.29 955.661 L 1062.2 901.122 C 1011.94 849.877 962.415 797.924 913.626 745.279 L 664.815 920.662 C 646.346 933.878 616.411 974.67 594.273 969.377 C 587.517 967.711 581.706 963.415 578.132 957.444 C 568.196 940.594 583.703 933.419 595.571 927.437 C 616.593 916.84 634.469 900.63 653.172 886.604 C 684.111 863.402 715.36 840.544 745.658 816.495 C 754.176 809.732 765.159 800.624 774.683 795.704 C 778.319 797.687 782.425 800.324 786.016 802.511 L 895.393 727.251 C 881.492 709.375 851.706 679.6 835.429 661.881 L 725.027 540.387 C 713.517 527.746 679.416 492.022 672.164 480.216 C 666.219 478.634 656.289 477.001 650.022 475.841 z M 937.544 702.281 C 950.638 692.182 964.245 684.538 977.388 675.053 C 1003.9 655.918 1034.59 639.227 1060.67 620.06 C 1087.36 602.914 1116.57 584.737 1142.7 566.954 L 842.597 511.33 C 807.269 504.844 771.532 497.691 736.226 491.521 C 755.698 510.766 775.043 532.275 794.078 552.146 C 825.281 584.176 856.219 616.462 886.89 649.002 C 896.395 659.232 906.059 669.315 915.876 679.247 C 921.862 685.297 932.859 695.703 937.544 702.281 z"/>
<path transform="translate(0,0)" fill="rgb(254,254,254)" d="M 704.444 485.752 C 713.924 487.695 722.176 489.475 731.504 492.003 C 770.327 536.105 816.654 580.361 857.281 623.554 C 930.545 701.388 1005.22 777.878 1081.28 852.987 C 1117.95 889.635 1160.82 934.435 1198.47 969.118 L 1190.76 977.268 L 1183.71 984.065 C 1073.58 874.663 965.274 763.438 858.841 650.436 L 776.162 563.2 C 753.922 539.979 724.702 510.145 704.444 485.752 z"/>
<path transform="translate(0,0)" fill="rgb(254,254,254)" d="M 699.836 487.315 C 857.084 656.804 1017.49 823.337 1180.96 986.827 C 1176.21 991.485 1171.01 996.394 1166.46 1001.2 C 1151.31 984.082 1132.13 965.754 1115.79 949.361 C 1086.39 920.172 1057.32 890.663 1028.57 860.84 C 914.45 741.999 802.37 621.212 692.382 498.533 C 693.08 491.096 693.878 491.406 699.836 487.315 z"/>
<path transform="translate(0,0)" fill="rgb(254,254,254)" d="M 898.379 729.475 C 901.692 732.851 907.305 738.158 908.994 742.336 C 901.305 749.938 857.97 778.416 846.601 786.323 C 801.365 817.889 756.342 849.76 711.536 881.934 C 694.979 893.816 660.54 917.108 646.224 929.762 L 642.74 921.769 C 640.881 919.522 637.396 916.43 635.179 914.335 C 644.991 908.273 660.289 896.028 670.339 888.858 L 740.407 839.817 L 834.651 773.646 C 856.262 758.759 877.432 745.411 898.379 729.475 z"/>
<path transform="translate(0,0)" fill="rgb(228,227,228)" d="M 642.74 921.769 C 649.731 918.652 684.059 893.938 692.901 887.803 L 836.689 786.573 C 847.401 779.166 899.296 739.178 908.994 742.336 C 901.305 749.938 857.97 778.416 846.601 786.323 C 801.365 817.889 756.342 849.76 711.536 881.934 C 694.979 893.816 660.54 917.108 646.224 929.762 L 642.74 921.769 z"/>
<path transform="translate(0,0)" fill="rgb(254,254,254)" d="M 1137.19 1033.65 C 1162.21 1010.66 1186.73 987.144 1210.74 963.105 C 1224.09 949.758 1237.44 935.476 1251.52 922.994 C 1259.06 916.31 1269.67 925.179 1274.07 931.697 C 1274.05 934.864 1274.19 943.335 1271.12 944.9 C 1247.97 956.691 1232.59 975.087 1214.34 993.338 L 1156.21 1051.13 C 1154.87 1048.44 1153.53 1045.44 1151.79 1043.04 C 1146.89 1038.11 1143.41 1036.47 1137.19 1033.65 z"/>
<path transform="translate(0,0)" fill="rgb(228,227,228)" d="M 1274.07 931.697 C 1274.05 934.864 1274.19 943.335 1271.12 944.9 C 1247.97 956.691 1232.59 975.087 1214.34 993.338 L 1156.21 1051.13 C 1154.87 1048.44 1153.53 1045.44 1151.79 1043.04 C 1190.96 1009.57 1223.97 970.245 1263.13 936.895 C 1266.51 934.018 1269.8 932.65 1274.07 931.697 z"/>
<path transform="translate(0,0)" fill="rgb(254,254,254)" d="M 1149.59 568.19 C 1156.13 569.028 1160.92 570.239 1167.27 571.794 C 1096.27 620.717 1026.05 666.22 954.673 714.052 C 953.373 715.183 953.402 715.056 951.678 715.347 C 947.876 713.297 943.371 708.046 940.227 704.739 C 961.843 689.666 984.961 675.021 1007.04 660.43 C 1054.22 629.174 1101.74 598.425 1149.59 568.19 z"/>
<path transform="translate(0,0)" fill="rgb(254,254,254)" d="M 773.491 800.884 C 776.572 800.657 779.163 802.502 781.362 804.368 L 781.485 805.928 C 771.831 813.803 756.985 823.692 746.462 831.101 C 723.648 847.21 700.732 863.174 677.717 878.993 C 663.916 888.612 647.181 900.169 634.746 911.191 L 633.501 912.446 L 630.805 912.38 L 629.621 910.909 C 630.909 906.807 697.786 858.105 707.097 851.348 C 727.44 836.584 752.73 815.219 773.491 800.884 z"/>
<path transform="translate(0,0)" fill="rgb(254,254,254)" d="M 1106.62 1055.87 C 1117.78 1044.25 1119.95 1041.37 1135 1035.99 C 1137.48 1037.04 1139.88 1038.25 1142.19 1039.63 C 1148.35 1043.34 1151.04 1047.31 1152.77 1054.1 C 1151.44 1070.09 1141.65 1073.82 1131.11 1084.79 C 1130.5 1079.13 1130.14 1074.49 1128.6 1068.96 C 1122.92 1059.6 1117.1 1057.36 1106.62 1055.87 z"/>
<path transform="translate(0,0)" fill="rgb(228,227,228)" d="M 1152.77 1054.1 C 1151.44 1070.09 1141.65 1073.82 1131.11 1084.79 C 1130.5 1079.13 1130.14 1074.49 1128.6 1068.96 C 1138.64 1065.87 1141.16 1057.2 1152.77 1054.1 z"/>
<path transform="translate(0,0)" fill="rgb(254,254,254)" d="M 1099.56 1065.03 C 1121.87 1068.27 1133.8 1089.69 1110.13 1099.59 C 1086.61 1099.54 1074.46 1075.76 1099.56 1065.03 z"/>
<path transform="translate(0,0)" fill="rgb(254,254,254)" d="M 1262.26 911.093 C 1274.8 898.109 1286.19 886.653 1301.57 905.211 C 1304.47 920.946 1293.53 927.454 1282.87 937.371 C 1282.61 929.949 1282.57 929.511 1280.49 922.678 C 1274.22 915.271 1271.62 914.637 1262.26 911.093 z"/>
<path transform="translate(0,0)" fill="rgb(228,227,228)" d="M 1301.57 905.211 C 1304.47 920.946 1293.53 927.454 1282.87 937.371 C 1282.61 929.949 1282.57 929.511 1280.49 922.678 C 1291.99 917.202 1293.01 914.79 1301.57 905.211 z"/>
<path transform="translate(0,0)" fill="rgb(254,254,254)" d="M 586.317 961.301 C 585.943 960.874 585.577 960.441 585.22 960.001 C 581.788 955.749 579.256 951.054 580.079 945.412 C 580.555 942.093 582.416 939.131 585.2 937.262 C 595.561 930.204 607.167 936.961 613.345 946.014 C 618.729 966.297 599.623 971.881 586.317 961.301 z"/>
<path transform="translate(0,0)" fill="rgb(228,227,228)" d="M 613.345 946.014 C 618.729 966.297 599.623 971.881 586.317 961.301 C 605.047 954.728 599.109 966.794 613.345 946.014 z"/>
<path transform="translate(0,0)" fill="rgb(254,254,254)" d="M 1150.76 589.204 C 1175.5 587.924 1183.79 614.707 1165.72 619.899 C 1148.65 619.913 1130.42 599.878 1150.76 589.204 z"/>
<path transform="translate(0,0)" fill="rgb(254,254,254)" d="M 625.584 914.329 L 626.235 914.637 C 635.426 919.095 636.358 919.414 641.869 928.267 C 644.7 939.438 630.24 947.412 622.184 953.692 C 622.538 948.042 622.416 946.466 620.422 940.882 C 614.751 932.474 611.203 930.866 601.994 927.277 C 609.289 923.826 618.377 918.4 625.584 914.329 z"/>
<path transform="translate(0,0)" fill="rgb(211,211,211)" d="M 641.869 928.267 C 644.7 939.438 630.24 947.412 622.184 953.692 C 622.538 948.042 622.416 946.466 620.422 940.882 C 626.66 939.32 636.452 932.148 641.869 928.267 z"/>
<path transform="translate(0,0)" fill="rgb(254,254,254)" d="M 583.715 507.935 C 577.938 504.541 572.215 499.11 573.437 491.728 C 573.939 488.549 575.755 485.729 578.441 483.956 C 588.474 477.321 597.179 485.758 601.913 494.099 C 605.487 510.582 597.668 513.572 583.715 507.935 z"/>
<path transform="translate(0,0)" fill="rgb(228,227,228)" d="M 601.913 494.099 C 605.487 510.582 597.668 513.572 583.715 507.935 C 590.738 502.069 592.549 504.23 601.913 494.099 z"/>
<path transform="translate(0,0)" fill="rgb(254,254,254)" d="M 1181.24 588.792 C 1187.86 584.577 1192.79 576.293 1200.39 577.522 C 1204.13 580.04 1204.68 581.363 1206.91 585.115 C 1207.4 587.909 1208.41 590.563 1206.75 592.876 C 1202.55 598.754 1191.18 607.799 1184.48 609.426 C 1183.28 607.127 1183.82 607.062 1184.14 603.913 C 1183.9 597.416 1183.09 595.117 1181.24 588.792 z"/>
<path transform="translate(0,0)" fill="rgb(211,211,211)" d="M 1206.91 585.115 C 1207.4 587.909 1208.41 590.563 1206.75 592.876 C 1202.55 598.754 1191.18 607.799 1184.48 609.426 C 1183.28 607.127 1183.82 607.062 1184.14 603.913 C 1188.49 602.468 1193.8 593.975 1197.78 590.744 C 1200.96 588.165 1203.3 587.022 1206.91 585.115 z"/>
<path transform="translate(0,0)" fill="rgb(254,254,254)" d="M 1157.71 583.312 L 1158.47 583.203 C 1180.2 580.263 1188.22 602.595 1176.8 616.379 C 1175.52 613.77 1177.95 604.272 1175.68 598.799 C 1171.69 589.159 1164.99 589.736 1156.65 585.478 L 1157.71 583.312 z"/>
<path transform="translate(0,0)" fill="rgb(211,211,211)" d="M 611.828 494.155 L 611.009 489.467 C 613.318 485.464 619.179 479.297 624.129 479.818 L 625.195 482.837 C 626.192 486.349 626.695 487.38 625.982 490.906 C 623.28 495.738 617.924 498.737 613.279 502.165 C 612.89 499.609 612.566 496.573 611.828 494.155 z"/>
<path transform="translate(0,0)" fill="rgb(254,254,254)" d="M 611.828 494.155 L 611.009 489.467 C 613.318 485.464 619.179 479.297 624.129 479.818 L 625.195 482.837 C 623.958 487.749 616.932 490.879 611.828 494.155 z"/>
<path transform="translate(0,0)" fill="rgb(254,254,254)" d="M 1102.95 1058.61 C 1122.38 1057.7 1134.57 1073.37 1125.23 1090.92 C 1125.25 1088.78 1125.33 1086.05 1125.12 1084.01 C 1123.07 1063.43 1106.53 1065.89 1101.58 1061.54 L 1102.95 1058.61 z"/>
<path transform="translate(0,0)" fill="rgb(228,227,228)" d="M 616.846 469.558 C 624.875 470.449 637.795 473.164 646.34 474.555 L 634.075 484.729 C 632.613 486.703 632 488.032 629.694 488.773 C 626.247 485.498 626.132 482.312 625.81 477.764 L 629.612 473.857 C 624.016 471.573 623.53 474.977 616.846 469.558 z"/>
<path transform="translate(0,0)" fill="rgb(228,227,228)" d="M 589.565 477.224 C 597.589 477.069 604.706 484.556 609.608 490.056 C 610.629 497.356 611.393 500.77 608.604 507.643 L 605.75 508.356 C 603.945 505.58 605.622 496.259 604.234 492.86 C 602.357 488.262 595.726 481.837 591.244 479.59 C 589.848 478.89 590.503 479.262 589.565 477.224 z"/>
<path transform="translate(0,0)" fill="rgb(211,211,211)" d="M 692.382 498.533 C 686.602 492.334 682.896 487.947 677.73 481.226 C 686.812 482.283 692.577 481.734 699.836 487.315 C 693.878 491.406 693.08 491.096 692.382 498.533 z"/>
<path transform="translate(0,0)" fill="rgb(228,227,228)" d="M 1259.5 914.059 C 1273.16 915.289 1285.57 925.8 1277.99 940.131 L 1277.24 939.519 C 1277.32 924.044 1269.45 920.719 1256.4 917.935 L 1256.02 916.881 L 1259.5 914.059 z"/>
<path transform="translate(0,0)" fill="rgb(254,254,254)" d="M 1178.27 574.59 C 1182.25 574.736 1187.95 576.68 1191.94 577.853 L 1182.65 585.079 L 1181.32 586.273 C 1177.93 586.768 1174.75 584.005 1173.16 581.272 C 1173.75 577.505 1174.81 577.7 1178.27 574.59 z"/>
<path transform="translate(0,0)" fill="rgb(254,254,254)" d="M 617.922 474.641 L 621.037 475.339 L 621.365 476.606 C 618.853 480.432 613.253 483.599 609.264 486.053 C 608.477 485.285 607.696 484.511 606.922 483.731 C 604.1 480.854 603.908 481.103 603.938 477.958 C 607.582 474.302 612.668 474.819 617.922 474.641 z"/>
<path transform="translate(0,0)" fill="rgb(228,227,228)" d="M 597.255 930.252 C 611.837 929.185 623.743 942.356 618.852 957.385 L 617.504 957.013 C 615.729 935.572 611.845 940.391 597.255 930.252 z"/>
<path transform="translate(0,0)" fill="rgb(254,254,254)" d="M 417.083 382.809 C 423.766 375.45 437.015 364.22 444.726 357.502 L 490.909 317.621 L 532.708 281.692 C 542.941 272.912 563.538 252.798 575.743 253.443 C 606.459 255.064 641.448 262.684 671.543 267.873 L 850.994 298.085 L 1265.22 366.972 L 1448.49 396.501 L 1504.47 405.884 C 1512.64 407.234 1525.16 408.741 1532.79 410.536 C 1517.95 428.481 1503.47 451.552 1490.45 471.306 C 1481.66 468.893 1451.46 464.482 1440.89 462.629 L 1332.68 443.632 L 984.846 382.664 L 674.833 328.951 L 593.758 315.202 C 575.003 311.836 548.551 306.307 529.932 304.726 C 547.736 287.317 569.415 273.107 589.138 253.72 C 569.552 264.864 553.067 279.9 536.36 294.986 C 529.082 301.559 496.734 327.236 493.993 333.008 C 496.193 332.475 509.906 320.575 512.809 318.167 C 514.307 321.849 513.857 321.653 517.864 323.146 C 516.563 325.435 454.402 376.804 446.495 385.399 C 448.426 393.135 456.503 412.575 455.015 417.397 L 453.524 419.254 C 449.31 414.379 443.995 398.016 441.505 391.097 C 433.796 388.954 423.73 387.139 415.725 385.504 L 417.083 382.809 z"/>
<path transform="translate(0,0)" fill="rgb(12,12,12)" d="M 417.083 382.809 C 425.975 384.968 435.711 386.724 444.254 388.922 C 446.425 400 451.594 409.921 453.524 419.254 C 449.31 414.379 443.995 398.016 441.505 391.097 C 433.796 388.954 423.73 387.139 415.725 385.504 L 417.083 382.809 z"/>
<path transform="translate(0,0)" fill="rgb(12,12,12)" d="M 895.499 319.997 C 903.456 319.422 927.331 323.714 936.349 325.217 C 960.073 329.158 983.767 333.286 1007.43 337.6 C 999.638 348.374 987.721 361.595 978.898 371.939 C 975.514 372.121 951.202 367.589 946.797 366.83 L 867.794 353.329 C 872.084 345.774 889.179 326.353 895.499 319.997 z"/>
<path transform="translate(0,0)" fill="rgb(254,254,254)" d="M 896.663 321.819 C 931.939 326.874 968.274 333.402 1003.45 339.428 C 995.078 349.683 986.531 359.792 977.811 369.751 C 944.594 363.049 905.112 356.53 871.713 351.424 C 879.263 340.871 887.917 331.369 896.663 321.819 z"/>
<path transform="translate(0,0)" fill="rgb(0,0,0)" d="M 1079.09 350.966 C 1092.73 350.192 1095.35 355.718 1094.89 367.679 C 1089.73 373.455 1088 374.826 1080.97 377.898 C 1076.2 379.181 1070.86 379.916 1066.7 376.743 C 1061.88 366.862 1072.64 357.209 1079.09 350.966 z"/>
<path transform="translate(0,0)" fill="rgb(254,254,254)" d="M 1080.59 353.448 C 1085.56 353.878 1086.17 353.763 1089.14 356.857 C 1092.27 365.462 1084.73 372.543 1077.74 376.149 C 1074.26 375.565 1074.03 375.623 1071.29 373.555 C 1069.8 367.363 1077.78 360.288 1080.59 353.448 z"/>
<path transform="translate(0,0)" fill="rgb(0,0,0)" d="M 1121.6 355.693 C 1123.38 354.673 1122.41 354.898 1124.63 355.24 L 1125.01 357.54 C 1123.02 363.625 1110.86 375.893 1105.63 380.367 L 1106.64 381.916 C 1118 384.602 1121.08 381.064 1124.76 371.121 C 1126.14 367.383 1127.96 365.496 1126.97 361.401 C 1129.66 360.504 1140.56 362.738 1143.91 363.344 L 1144.51 364.659 L 1142.78 366.818 C 1129.96 365.939 1127.51 366.522 1126.71 379.942 C 1126.05 391.064 1100.92 383.909 1094.17 382.508 C 1093.47 380.025 1099.77 378.611 1102.95 376.262 C 1108.4 372.238 1112.53 366.01 1115.58 360.132 L 1116.11 359.107 C 1118.89 358.319 1119.59 357.763 1121.6 355.693 z"/>
<path transform="translate(0,0)" fill="rgb(0,0,0)" d="M 1151.9 367.82 C 1160.82 370.074 1169.08 370.443 1178.96 372.985 C 1176.02 375.328 1174.01 377.451 1170.34 376.965 L 1167.34 372.989 C 1159.21 373.877 1161.95 383.856 1159.69 386.761 C 1157.21 384.873 1158.52 385.201 1155.79 385.254 C 1153.55 387.494 1152.97 387.739 1152.31 390.678 C 1155.99 394.778 1161.59 391.03 1167.13 391.957 C 1165.99 394.107 1164.38 394.638 1162.2 395.831 C 1154.21 396.583 1146.49 394.269 1138.62 392.534 C 1145.07 389.931 1157.63 379.554 1157.35 372.466 L 1155.6 371.696 C 1151.25 372.235 1140.73 377.75 1135.79 379.79 C 1141.73 374.758 1146.32 373.576 1151.17 368.576 L 1151.9 367.82 z"/>
<path transform="translate(0,0)" fill="rgb(0,0,0)" d="M 818.831 312.647 L 821.415 313.109 L 821.942 314.413 C 820.644 315.848 819.773 316.509 819.382 318.402 L 820.954 318.715 C 823.008 316.949 825.074 315.197 827.152 313.459 L 828.119 313.989 L 827.276 316.992 C 829.605 316.431 830.855 315.644 832.948 314.553 C 835.166 316.617 834.695 317.288 835.407 320.696 L 837.157 320.158 C 838.956 317.141 839.274 315.525 842.908 316.162 C 843.275 317.871 843.254 317.96 844.035 319.509 C 846.587 317.164 845.506 317.526 848.573 316.954 C 853.448 319.977 853.66 318.651 859.36 319.496 L 858.798 320.957 C 853.729 322.942 853.7 323.498 849.698 326.634 C 847.015 325.194 850.796 323.774 848.976 319.424 C 845.334 319.873 847.142 324.117 842.103 324.989 C 837.49 319.141 823.075 323.971 816.157 318.956 C 815.796 315.707 816.535 315.909 818.831 312.647 z"/>
<path transform="translate(0,0)" fill="rgb(12,12,12)" d="M 1251.7 405.905 C 1254.27 407.334 1262.1 410.576 1265.13 411.969 C 1268.37 409.524 1277.11 410.773 1279.54 413.07 L 1278.65 414.956 C 1272.28 420.749 1254.26 413.856 1245.18 412.191 L 1251.7 405.905 z"/>
<path transform="translate(0,0)" fill="rgb(12,12,12)" d="M 830.596 332.656 C 836.875 337.837 837.918 334.003 844.094 337.296 L 844.188 338.704 L 839.69 342.815 L 838.887 340.907 C 835.426 340.831 828.733 340.864 826.325 338.795 C 826.78 335.777 828.164 335.226 830.596 332.656 z"/>
<path transform="translate(0,0)" fill="rgb(0,0,0)" d="M 1261.21 387.657 L 1263.39 388.298 C 1264.32 389.638 1264.53 389.996 1265.14 391.46 L 1265.66 392.697 C 1266.86 392.173 1267.96 391.526 1269.07 390.821 L 1269.65 391.862 C 1267.9 395.246 1267.65 395.939 1264.63 398.202 L 1263.46 397.29 C 1261.23 396.33 1257.9 396.582 1254.26 395.313 C 1254.86 392.575 1258.88 389.703 1261.21 387.657 z"/>
<path transform="translate(0,0)" fill="rgb(0,0,0)" d="M 1205.11 387.9 L 1202.87 387.367 C 1199.17 380.004 1200.88 385.777 1194.68 385.977 C 1196.55 378.765 1203.11 376.873 1209.47 380.17 C 1206.68 383.293 1206.5 383.919 1205.11 387.9 z"/>
<path transform="translate(0,0)" fill="rgb(0,0,0)" d="M 1209.47 380.17 L 1213.74 380.907 C 1216.44 379.805 1215.26 379.68 1217.42 380.587 C 1215.8 383.731 1215.16 384.416 1212.81 387.089 C 1214.24 388.226 1216.31 387.907 1218.29 387.921 L 1217.6 389.608 C 1214.73 390.525 1210.03 389.777 1207.53 388.28 L 1205.11 387.9 C 1206.5 383.919 1206.68 383.293 1209.47 380.17 z"/>
<path transform="translate(0,0)" fill="rgb(228,227,228)" d="M 1209.47 380.17 L 1213.74 380.907 L 1207.53 388.28 L 1205.11 387.9 C 1206.5 383.919 1206.68 383.293 1209.47 380.17 z"/>
<path transform="translate(0,0)" fill="rgb(12,12,12)" d="M 765.955 309.462 L 763.469 310.482 L 762.764 309.517 C 766.002 301.441 772.568 303.79 778.841 306.248 C 775.893 308.287 773.347 310.573 769.922 310.929 C 770.184 308.71 770.33 308.58 771.153 306.589 C 768.418 307.559 768.278 307.674 765.955 309.462 z"/>
<path transform="translate(0,0)" fill="rgb(12,12,12)" d="M 807.967 311.114 C 811.343 310.687 812.663 310.212 815.735 311.502 L 815.643 313.294 L 811.682 316.82 L 811.596 318.448 C 807.606 319.304 808.635 319.705 805.508 318.363 C 804.52 314.977 805.902 314.062 807.967 311.114 z"/>
<path transform="translate(0,0)" fill="rgb(0,0,0)" d="M 1227.99 392.034 L 1227.36 391.111 L 1227.78 389 L 1226.99 388.321 C 1225.28 389.669 1224.08 390.841 1222 391.518 L 1221.74 390.771 C 1222.55 386.742 1222.7 386.206 1224.87 382.734 C 1228.03 381.944 1231.9 383.445 1235.24 384.335 C 1232.25 384.677 1231.12 385.16 1228.52 385.672 L 1230.49 386.414 L 1230.85 388.35 C 1229.9 389.623 1229.04 390.854 1227.99 392.034 z"/>
<path transform="translate(0,0)" fill="rgb(0,0,0)" d="M 1272.16 390.219 C 1275.75 390.941 1276.18 391.09 1278.63 394.363 C 1277.88 393.356 1282.85 392.368 1284.04 392.453 L 1284.59 393.747 L 1282.54 395.422 C 1279.36 397.008 1277.4 399.762 1274.64 400.014 C 1274.38 395.571 1274.02 394.266 1272.16 390.219 z"/>
<path transform="translate(0,0)" fill="rgb(0,0,0)" d="M 778.841 306.248 L 781.164 305.118 C 782.091 307.216 780.344 311.706 779.471 314.218 L 776.276 313.448 L 775.781 312.03 L 778.841 306.248 z"/>
<path transform="translate(0,0)" fill="rgb(12,12,12)" d="M 796.572 315.9 C 799.496 313.159 801.658 310.39 805.424 309.801 L 807.967 311.114 L 807.116 311.524 C 803.304 313.408 802.653 313.95 799.446 316.802 C 798.266 316.507 797.602 316.462 796.572 315.9 z"/>
<path transform="translate(0,0)" fill="rgb(254,254,254)" d="M 415.725 385.504 C 423.73 387.139 433.796 388.954 441.505 391.097 C 443.995 398.016 449.31 414.379 453.524 419.254 L 442.204 431.857 C 450.203 427.485 455.744 421.718 460.399 413.878 L 1101.52 534.837 L 1327.09 576.398 C 1353.99 581.405 1383.22 586.142 1409.9 591.506 C 1412.37 598.862 1414.77 606.238 1417.11 613.634 L 1349.54 601.512 C 1335.62 598.911 1318.69 594.775 1304.9 593.488 L 637.219 468.568 C 586.316 458.996 535.478 449.083 484.708 438.829 C 468.009 435.557 443.084 432.227 427.456 427.016 C 413.817 422.468 409.217 398.876 415.725 385.504 z"/>
<path transform="translate(0,0)" fill="rgb(254,254,254)" d="M 527.324 306.883 C 534.247 309.116 547.016 311.009 554.58 312.353 L 600.251 320.381 L 760.321 347.651 L 1261.99 435.526 C 1316.58 444.662 1371.09 454.18 1425.55 464.08 C 1444.39 467.458 1470.15 470.819 1488.09 474.931 C 1486.6 477.727 1484.26 481.787 1483.06 484.589 C 1465.61 480.209 1438.25 477.147 1419.38 473.952 L 1301.05 452.979 L 872.645 379.152 C 836.144 372.745 800.693 365.221 764.442 358.507 C 703.251 347.52 641.975 337.01 580.62 326.979 C 570.526 325.37 525.326 316.19 518.013 316.589 L 517.642 314.267 L 527.324 306.883 z"/>
<path transform="translate(0,0)" fill="rgb(254,254,254)" d="M 512.809 318.167 L 517.642 314.267 L 518.013 316.589 C 518.561 317.194 519.11 317.799 519.659 318.404 C 558.805 325.998 598.937 331.791 638.074 339.261 C 643.93 340.378 657.204 342.342 659.336 343.63 L 659.163 345.115 C 654.076 344.356 642.999 343.753 637.972 344.483 C 622.259 351.077 593.332 368.023 580.657 381.781 C 580.077 382.411 580.655 384.565 580.835 385.695 C 574.408 391.93 571.333 395.899 565.856 402.941 L 513.386 393.569 C 518.588 388.896 524.217 383.101 529.269 378.138 L 527.38 377.139 C 522.544 381.949 515.597 388.302 512.098 393.899 C 501.81 391.691 493.161 390.169 482.748 388.619 C 488.332 382.931 494.577 377.102 500.349 371.54 L 499.39 369.45 C 518.751 350.422 531.087 343.915 553.115 330.362 L 554.232 328.857 C 548.048 325.756 522.986 321.599 517.864 323.146 C 513.857 321.653 514.307 321.849 512.809 318.167 z"/>
<path transform="translate(0,0)" fill="rgb(254,254,254)" d="M 554.232 328.857 L 555.56 329.985 L 555.683 334.522 C 562.681 331.702 570.724 332.88 577.742 335.261 C 557.605 344.614 540.249 359.046 527.38 377.139 C 522.544 381.949 515.597 388.302 512.098 393.899 C 501.81 391.691 493.161 390.169 482.748 388.619 C 488.332 382.931 494.577 377.102 500.349 371.54 L 499.39 369.45 C 518.751 350.422 531.087 343.915 553.115 330.362 L 554.232 328.857 z"/>
<path transform="translate(0,0)" fill="rgb(0,0,0)" d="M 554.232 328.857 L 555.56 329.985 L 555.683 334.522 C 549.109 339.189 542.574 342.575 535.858 346.859 C 533.306 348.487 533.322 353.264 529.57 356.002 L 528.94 352.696 C 523.986 354.513 525.83 364.588 520.458 368.648 L 518.563 368.534 C 516.352 364.065 521.224 358.442 523.798 354.292 C 515.472 359.956 508.043 365.011 500.349 371.54 L 499.39 369.45 C 518.751 350.422 531.087 343.915 553.115 330.362 L 554.232 328.857 z"/>
<path transform="translate(0,0)" fill="rgb(80,79,81)" d="M 512.809 318.167 L 517.642 314.267 L 518.013 316.589 C 518.561 317.194 519.11 317.799 519.659 318.404 C 558.805 325.998 598.937 331.791 638.074 339.261 C 643.93 340.378 657.204 342.342 659.336 343.63 L 659.163 345.115 C 654.076 344.356 642.999 343.753 637.972 344.483 C 636.039 343.62 625.259 341.223 622.508 340.539 C 616.012 345.92 599.874 363.094 594.989 365.894 C 597.349 360.078 612.102 346.67 617.571 341.438 L 602.947 337.862 C 583.103 350.697 570.085 364.845 553.998 381.902 C 551.798 384.236 543.977 393.348 541.463 393.641 C 551.183 379.207 572.428 357.795 586.513 346.782 C 590.18 343.915 595.501 340.719 596.446 336.947 C 592.985 336.316 584.388 336.201 581.291 337.576 C 579.498 335.392 580.598 336.202 577.742 335.261 C 570.724 332.88 562.681 331.702 555.683 334.522 L 555.56 329.985 L 554.232 328.857 C 548.048 325.756 522.986 321.599 517.864 323.146 C 513.857 321.653 514.307 321.849 512.809 318.167 z"/>
<path transform="translate(0,0)" fill="rgb(24,23,24)" d="M 555.56 329.985 C 565.053 330.748 589.708 331.535 596.446 336.947 C 592.985 336.316 584.388 336.201 581.291 337.576 C 579.498 335.392 580.598 336.202 577.742 335.261 C 570.724 332.88 562.681 331.702 555.683 334.522 L 555.56 329.985 z"/>
<path transform="translate(0,0)" fill="rgb(0,0,0)" d="M 577.742 335.261 C 580.598 336.202 579.498 335.392 581.291 337.576 C 571.901 343.197 559.947 349.795 552.707 357.94 C 551.985 361.498 551.691 365.989 549.183 368.119 C 537.378 369.015 538.093 369.916 529.269 378.138 L 527.38 377.139 C 540.249 359.046 557.605 344.614 577.742 335.261 z"/>
<path transform="translate(0,0)" fill="rgb(254,254,254)" d="M 1533.61 411.501 C 1539.29 409.785 1550.8 415.605 1555.65 418.886 C 1538 442.353 1519.41 473.536 1502.29 498.681 C 1489.5 517.472 1461.52 555.458 1452.4 573.803 C 1445.88 571.847 1438.04 570.22 1431.32 568.652 C 1454.51 534.033 1478.17 499.872 1499.14 463.802 C 1508.88 447.043 1525.3 428.483 1533.61 411.501 z"/>
<path transform="translate(0,0)" fill="rgb(254,254,254)" d="M 637.972 344.483 C 642.999 343.753 654.076 344.356 659.163 345.115 L 659.883 347.396 L 663.204 349.318 C 638.061 361.47 632.349 366.096 613.144 386.898 C 605.989 394.438 600.973 400.171 594.48 408.284 C 586.754 406.455 575.465 404.885 567.244 403.366 C 571.704 398.074 577.256 392.19 581.958 386.986 L 580.835 385.695 C 580.655 384.565 580.077 382.411 580.657 381.781 C 593.332 368.023 622.259 351.077 637.972 344.483 z"/>
<path transform="translate(0,0)" fill="rgb(0,0,0)" d="M 637.972 344.483 C 642.999 343.753 654.076 344.356 659.163 345.115 L 659.883 347.396 C 638.375 342.22 624.128 355.562 609.245 369.616 C 606.496 372.212 606.151 377.252 602.443 379.191 L 601.161 378.713 C 601.345 376.068 601.448 374.119 601.416 371.471 C 595.596 372.61 586.031 382.57 581.958 386.986 L 580.835 385.695 C 580.655 384.565 580.077 382.411 580.657 381.781 C 593.332 368.023 622.259 351.077 637.972 344.483 z"/>
<path transform="translate(0,0)" fill="rgb(254,254,254)" d="M 451.876 383.381 C 468.605 366.784 500.244 342.12 519.675 327.452 C 526.38 322.391 544.565 328.053 553.115 330.362 C 531.087 343.915 518.751 350.422 499.39 369.45 C 494.083 373.875 485.259 383.255 480.079 388.465 C 470.669 386.823 461.268 385.129 451.876 383.381 z"/>
<path transform="translate(0,0)" fill="rgb(254,254,254)" d="M 663.204 349.318 C 663.762 348.727 664.187 348.244 664.557 347.515 C 666.739 347.34 667.841 348.293 669.771 349.404 C 673.652 351.573 679.772 352.203 684.321 352.95 C 664.914 365.13 636.648 394.981 622.938 413.389 L 595.277 408.149 L 615.164 388.126 L 613.144 386.898 C 632.349 366.096 638.061 361.47 663.204 349.318 z"/>
<path transform="translate(0,0)" fill="rgb(0,0,0)" d="M 663.204 349.318 C 663.762 348.727 664.187 348.244 664.557 347.515 C 666.739 347.34 667.841 348.293 669.771 349.404 C 661.392 354.204 655.538 357.899 648.397 364.46 C 642.19 370.163 639.16 381.972 633.473 383.394 C 632.21 379.26 634.852 373.921 636.74 370.299 C 628.749 376.319 622.684 381.493 615.164 388.126 L 613.144 386.898 C 632.349 366.096 638.061 361.47 663.204 349.318 z"/>
<path transform="translate(0,0)" fill="rgb(254,254,254)" d="M 1092.35 424.792 L 1103.91 427.721 C 1106.57 425.559 1109.51 426.433 1112.64 427.036 C 1141.57 431.547 1170.82 437.282 1199.7 442.274 C 1203.03 442.849 1207.09 443.651 1210.33 444.532 C 1213.71 444.83 1212.27 444.232 1214.86 446.27 C 1219.15 447.087 1232.55 448.781 1235.14 450.337 C 1237.91 448.781 1243.17 449.041 1245.92 450.535 L 1244.89 450.631 C 1248.29 452.573 1253.79 453.978 1257.66 454.588 C 1256.38 457.117 1245.83 467.662 1242.23 472.731 C 1230.63 489.104 1218.94 505.625 1208.34 522.682 C 1202.45 521.82 1188.44 520.252 1183.86 517.733 C 1183.27 515.243 1183.22 516.51 1184.53 513.872 L 1183.97 512.924 C 1182.99 514.141 1181.74 516.197 1180.53 516.407 C 1174.41 517.47 1157.48 514.327 1152.2 511.908 C 1149.31 512.816 1127.3 509.193 1124.57 506.984 L 1123.91 506.807 C 1119.77 508.337 1078.06 500.146 1071.72 498.302 L 1071.68 496.227 L 1070.92 495.184 C 1066.3 500.338 1048.13 494.89 1041.36 493.549 C 1049.01 483.628 1056.98 473.055 1065.25 463.649 C 1065.53 460.491 1066.8 459.161 1068.68 456.685 C 1069.12 449.676 1086.62 430.458 1092.35 424.792 z"/>
<path transform="translate(0,0)" fill="rgb(254,254,254)" d="M 1210.33 444.532 C 1213.71 444.83 1212.27 444.232 1214.86 446.27 C 1219.15 447.087 1232.55 448.781 1235.14 450.337 C 1237.91 448.781 1243.17 449.041 1245.92 450.535 L 1244.89 450.631 C 1248.29 452.573 1253.79 453.978 1257.66 454.588 C 1256.38 457.117 1245.83 467.662 1242.23 472.731 C 1230.63 489.104 1218.94 505.625 1208.34 522.682 C 1202.45 521.82 1188.44 520.252 1183.86 517.733 C 1183.27 515.243 1183.22 516.51 1184.53 513.872 L 1183.97 512.924 C 1182.99 514.141 1181.74 516.197 1180.53 516.407 C 1174.41 517.47 1157.48 514.327 1152.2 511.908 C 1154.14 507.511 1160.46 498.108 1163.38 493.718 C 1177.94 471.834 1184.71 458.113 1209.04 446.337 L 1210.33 444.532 z"/>
<path transform="translate(0,0)" fill="rgb(254,254,254)" d="M 1235.14 450.337 C 1237.91 448.781 1243.17 449.041 1245.92 450.535 L 1244.89 450.631 C 1248.29 452.573 1253.79 453.978 1257.66 454.588 C 1256.38 457.117 1245.83 467.662 1242.23 472.731 C 1230.63 489.104 1218.94 505.625 1208.34 522.682 C 1202.45 521.82 1188.44 520.252 1183.86 517.733 C 1183.27 515.243 1183.22 516.51 1184.53 513.872 L 1183.97 512.924 C 1198.57 490.96 1210.42 461.468 1235.14 450.337 z"/>
<path transform="translate(0,0)" fill="rgb(0,0,0)" d="M 1235.14 450.337 C 1237.91 448.781 1243.17 449.041 1245.92 450.535 L 1244.89 450.631 C 1237.48 453.146 1230.29 459.953 1224.37 465.227 C 1222.65 472.147 1222.64 481.662 1218.36 484.308 C 1215.16 481.167 1218.24 477.087 1214.89 475.025 C 1210.67 478.73 1190.14 507.414 1184.53 513.872 L 1183.97 512.924 C 1198.57 490.96 1210.42 461.468 1235.14 450.337 z"/>
<path transform="translate(0,0)" fill="rgb(0,0,0)" d="M 1210.33 444.532 C 1213.71 444.83 1212.27 444.232 1214.86 446.27 C 1205.45 454.161 1190.77 465.025 1187.58 477.398 C 1185.56 485.194 1182.94 483.954 1175.88 482.086 C 1168.1 488.275 1160.26 504.71 1152.2 511.908 C 1154.14 507.511 1160.46 498.108 1163.38 493.718 C 1177.94 471.834 1184.71 458.113 1209.04 446.337 L 1210.33 444.532 z"/>
<path transform="translate(0,0)" fill="rgb(254,254,254)" d="M 1092.35 424.792 L 1103.91 427.721 C 1106.57 425.559 1109.51 426.433 1112.64 427.036 L 1112.63 427.86 C 1116.05 428.942 1128.95 431.73 1129.7 432.139 C 1108.35 439.667 1079.95 475.152 1070.92 495.184 C 1066.3 500.338 1048.13 494.89 1041.36 493.549 C 1049.01 483.628 1056.98 473.055 1065.25 463.649 C 1065.53 460.491 1066.8 459.161 1068.68 456.685 C 1069.12 449.676 1086.62 430.458 1092.35 424.792 z"/>
<path transform="translate(0,0)" fill="rgb(0,0,0)" d="M 1092.35 424.792 L 1103.91 427.721 C 1106.57 425.559 1109.51 426.433 1112.64 427.036 L 1112.63 427.86 C 1104.55 430.324 1086.75 448.527 1079.92 453.951 C 1078.79 458.099 1078.04 462.545 1075.44 465.795 L 1073.97 466.188 C 1071.3 463.053 1074.66 458.783 1072.26 457.017 L 1065.25 463.649 C 1065.53 460.491 1066.8 459.161 1068.68 456.685 C 1069.12 449.676 1086.62 430.458 1092.35 424.792 z"/>
<path transform="translate(0,0)" fill="rgb(254,254,254)" d="M 1092.35 424.792 L 1103.91 427.721 C 1089.43 433.576 1078.07 444.542 1068.68 456.685 C 1069.12 449.676 1086.62 430.458 1092.35 424.792 z"/>
<path transform="translate(0,0)" fill="rgb(254,254,254)" d="M 1178.11 445.665 C 1188.02 438.214 1197.13 444.471 1209.04 446.337 C 1184.71 458.113 1177.94 471.834 1163.38 493.718 C 1160.46 498.108 1154.14 507.511 1152.2 511.908 C 1149.31 512.816 1127.3 509.193 1124.57 506.984 C 1129.28 500.52 1151.97 470.687 1156.61 466.837 L 1155.33 471.057 L 1157.13 470.408 C 1157.91 470.867 1158.68 471.326 1159.45 471.785 C 1162.31 468.495 1163.94 457.371 1164.79 456.914 C 1169.74 454.254 1173.43 450.985 1178.11 445.665 z"/>
<path transform="translate(0,0)" fill="rgb(0,0,0)" d="M 1176.2 439.58 L 1179.19 439.349 L 1179.96 440.403 L 1177.03 443.859 L 1178.11 445.665 C 1173.43 450.985 1169.74 454.254 1164.79 456.914 C 1163.94 457.371 1162.31 468.495 1159.45 471.785 C 1158.68 471.326 1157.91 470.867 1157.13 470.408 L 1155.33 471.057 L 1156.61 466.837 C 1151.97 470.687 1129.28 500.52 1124.57 506.984 L 1123.91 506.807 C 1125.65 499.968 1148.3 470.288 1151.56 460.199 C 1153.34 454.687 1170.5 443.919 1176.2 439.58 z"/>
<path transform="translate(0,0)" fill="rgb(0,0,0)" d="M 1070.92 495.184 C 1079.95 475.152 1108.35 439.667 1129.7 432.139 L 1132.21 434.526 C 1125.66 439.422 1118.95 443.977 1113.62 450.195 C 1109.91 454.513 1110.15 461.105 1109.23 466.459 C 1107.68 466.696 1106.22 466.919 1104.87 467.127 L 1103.03 466.336 C 1102.18 462.84 1103.66 458.585 1104.53 454.889 C 1091.55 469.74 1082.71 480.117 1071.68 496.227 L 1070.92 495.184 z"/>
<path transform="translate(0,0)" fill="rgb(12,12,12)" d="M 1112.64 427.036 C 1141.57 431.547 1170.82 437.282 1199.7 442.274 C 1203.03 442.849 1207.09 443.651 1210.33 444.532 L 1209.04 446.337 C 1197.13 444.471 1188.02 438.214 1178.11 445.665 L 1177.03 443.859 L 1179.96 440.403 L 1179.19 439.349 L 1176.2 439.58 C 1168.38 438.726 1157.46 436.358 1149.49 434.842 C 1127.41 457.236 1115.78 477.108 1096.52 500.149 C 1099.32 487.997 1136.3 445.389 1146.81 434.829 C 1142.22 434.063 1136.35 432.708 1132.21 434.526 L 1129.7 432.139 C 1128.95 431.73 1116.05 428.942 1112.63 427.86 L 1112.64 427.036 z"/>
<path transform="translate(0,0)" fill="rgb(254,254,254)" d="M 959.243 401.439 C 968.541 403.572 980.924 405.485 989.474 408.47 C 990.283 408.478 993.481 407.948 994.477 407.805 C 1000.5 406.485 1011.23 409.574 1017.71 411.052 C 1024.44 412.44 1060.87 418.097 1063.69 419.808 C 1059.14 426.612 1048.95 434.747 1045.15 440.096 C 1036.21 452.664 1019.1 474.996 1012.26 488.02 C 1007.55 487.205 992.647 484.965 989.117 483.254 L 988.619 482.403 L 988.025 481.48 C 984.466 484.42 962.885 479.958 959.581 476.977 L 958.976 476.824 C 954.748 478.137 936.866 475.346 933.815 472.204 L 933 471.397 C 929.093 474.369 909.988 469.626 904.588 468.608 C 911.423 455.646 948.29 412.073 959.243 401.439 z"/>
<path transform="translate(0,0)" fill="rgb(254,254,254)" d="M 959.243 401.439 C 968.541 403.572 980.924 405.485 989.474 408.47 C 990.283 408.478 993.481 407.948 994.477 407.805 C 1000.5 406.485 1011.23 409.574 1017.71 411.052 L 1015.98 413.089 C 992.116 425.607 983.543 439.67 968.792 461.237 C 966.696 464.302 960.056 473.759 958.976 476.824 C 954.748 478.137 936.866 475.346 933.815 472.204 L 933 471.397 C 929.093 474.369 909.988 469.626 904.588 468.608 C 911.423 455.646 948.29 412.073 959.243 401.439 z"/>
<path transform="translate(0,0)" fill="rgb(254,254,254)" d="M 959.243 401.439 C 968.541 403.572 980.924 405.485 989.474 408.47 C 965.22 418.768 955.346 434.554 942.893 456.147 C 940.603 460.119 934.598 467.935 933 471.397 C 929.093 474.369 909.988 469.626 904.588 468.608 C 911.423 455.646 948.29 412.073 959.243 401.439 z"/>
<path transform="translate(0,0)" fill="rgb(0,0,0)" d="M 994.477 407.805 L 999.401 410.205 C 990.317 410.925 981.151 418.525 975.013 424.985 C 968.807 431.518 968.7 440.908 966.165 442.889 C 964.807 439.561 964.781 438.983 964.58 435.376 C 952.026 448.601 944.691 457.559 933.815 472.204 L 933 471.397 C 934.598 467.935 940.603 460.119 942.893 456.147 C 955.346 434.554 965.22 418.768 989.474 408.47 C 990.283 408.478 993.481 407.948 994.477 407.805 z"/>
<path transform="translate(0,0)" fill="rgb(12,12,12)" d="M 994.477 407.805 C 1000.5 406.485 1011.23 409.574 1017.71 411.052 L 1015.98 413.089 C 1012.79 411.624 1002.56 408.881 999.401 410.205 L 994.477 407.805 z"/>
<path transform="translate(0,0)" fill="rgb(254,254,254)" d="M 1049.33 419.577 C 1054.17 419.584 1058.64 419.886 1063.69 419.808 C 1059.14 426.612 1048.95 434.747 1045.15 440.096 C 1036.21 452.664 1019.1 474.996 1012.26 488.02 C 1007.55 487.205 992.647 484.965 989.117 483.254 L 988.619 482.403 C 993.786 475.608 1007.85 456.891 1013.3 451.742 C 1013.96 455.218 1011.49 456.083 1012.54 459.717 C 1020.08 456.989 1018.24 448.113 1026.49 439.191 C 1036.22 428.666 1037.63 427.541 1049.33 419.577 z"/>
<path transform="translate(0,0)" fill="rgb(0,0,0)" d="M 1017.71 411.052 C 1024.44 412.44 1060.87 418.097 1063.69 419.808 C 1058.64 419.886 1054.17 419.584 1049.33 419.577 C 1037.63 427.541 1036.22 428.666 1026.49 439.191 C 1018.24 448.113 1020.08 456.989 1012.54 459.717 C 1011.49 456.083 1013.96 455.218 1013.3 451.742 C 1007.85 456.891 993.786 475.608 988.619 482.403 L 988.025 481.48 C 1005.84 454.165 1014.53 433.639 1044.9 417.727 L 1024.38 414.302 C 1011.89 421.043 997.667 430.634 991.271 443.565 L 991.291 444.329 C 991.397 449.398 991.588 449.541 988.621 452.63 L 986.742 452.419 L 983.928 447.82 C 979.254 449.377 963.194 472.182 959.581 476.977 L 958.976 476.824 C 960.056 473.759 966.696 464.302 968.792 461.237 C 983.543 439.67 992.116 425.607 1015.98 413.089 L 1017.71 411.052 z"/>
<path transform="translate(0,0)" fill="rgb(254,254,254)" d="M 1263.6 453.463 C 1274.32 458.962 1282.96 455.981 1290.35 459.756 C 1299.06 456.885 1317.71 462.532 1326.57 465.219 C 1333.08 467.699 1337.26 468.07 1344.07 469.025 C 1321.94 492.888 1311.7 517.562 1293.63 539.671 C 1285.49 538.008 1277.36 536.256 1269.26 534.415 C 1269 533.81 1268.58 532.996 1268.5 532.404 L 1267.94 531.443 C 1264.43 535.523 1244.68 530.367 1239.84 528.47 L 1239.45 526.357 L 1239.23 525.243 C 1234.13 530.052 1216.46 524.427 1209.57 522.954 C 1224.7 501.711 1244.94 470.251 1263.6 453.463 z"/>
<path transform="translate(0,0)" fill="rgb(254,254,254)" d="M 1263.6 453.463 C 1274.32 458.962 1282.96 455.981 1290.35 459.756 C 1270.29 469.401 1259.99 490.512 1249.37 508.838 C 1246.85 513.189 1240.92 521.165 1239.23 525.243 C 1234.13 530.052 1216.46 524.427 1209.57 522.954 C 1224.7 501.711 1244.94 470.251 1263.6 453.463 z"/>
<path transform="translate(0,0)" fill="rgb(254,254,254)" d="M 1326.57 465.219 C 1333.08 467.699 1337.26 468.07 1344.07 469.025 C 1321.94 492.888 1311.7 517.562 1293.63 539.671 C 1285.49 538.008 1277.36 536.256 1269.26 534.415 C 1269 533.81 1268.58 532.996 1268.5 532.404 C 1273.08 526.161 1288.18 504.727 1293.17 500.975 C 1293.92 501.954 1294.47 502.965 1295 504.08 C 1299.38 499.741 1295.3 493.221 1301.52 489.541 L 1304.54 491.305 C 1304.85 490.911 1304.92 490.909 1305 490.355 C 1306.39 480.498 1318.36 472.033 1326.57 465.219 z"/>
<path transform="translate(0,0)" fill="rgb(0,0,0)" d="M 1290.35 459.756 C 1299.06 456.885 1317.71 462.532 1326.57 465.219 C 1318.36 472.033 1306.39 480.498 1305 490.355 C 1304.92 490.909 1304.85 490.911 1304.54 491.305 L 1301.52 489.541 C 1295.3 493.221 1299.38 499.741 1295 504.08 C 1294.47 502.965 1293.92 501.954 1293.17 500.975 C 1288.18 504.727 1273.08 526.161 1268.5 532.404 L 1267.94 531.443 C 1268.72 529.783 1268.17 530.813 1268.89 529.639 C 1287.27 499.528 1286.81 485.346 1319.33 464.627 C 1293.98 459.782 1293.09 456.687 1279.94 479.547 C 1279.16 479.103 1278.67 478.745 1277.84 478.47 C 1270.26 480.732 1267.11 496.044 1263 499.593 C 1252.88 508.327 1247.4 515.572 1239.45 526.357 L 1239.23 525.243 C 1240.92 521.165 1246.85 513.189 1249.37 508.838 C 1259.99 490.512 1270.29 469.401 1290.35 459.756 z"/>
<path transform="translate(0,0)" fill="rgb(254,254,254)" d="M 745.938 362.651 L 746.658 361.519 L 751.456 361.232 L 760.415 362.918 L 761.028 363.826 L 759.198 364.913 L 759.19 366.116 C 767.389 363.298 797.868 369.812 806.778 372.899 C 816.238 374.149 825.208 377.037 834.69 378.699 L 832.29 380.67 C 821.11 385.618 810.783 389.643 802.434 399.116 C 799.07 402.933 797.118 407.362 793.443 410.893 C 782.414 420.622 776.476 432.11 767.291 442.749 C 763.098 441.844 741.967 437.639 739.303 435.827 C 739.615 433.586 741.471 431.795 742.968 429.966 L 741.918 428.935 L 735.653 436.193 C 717.361 432.053 699.275 427.85 680.829 424.436 C 686.514 418.976 705.211 394.902 710.094 394.163 C 710.575 393.591 711.375 392.216 711.811 391.521 L 708.164 389.59 C 717.234 379.561 734.148 369.418 745.938 362.651 z"/>
<path transform="translate(0,0)" fill="rgb(254,254,254)" d="M 806.778 372.899 C 816.238 374.149 825.208 377.037 834.69 378.699 L 832.29 380.67 C 821.11 385.618 810.783 389.643 802.434 399.116 C 799.07 402.933 797.118 407.362 793.443 410.893 C 782.414 420.622 776.476 432.11 767.291 442.749 C 763.098 441.844 741.967 437.639 739.303 435.827 C 739.615 433.586 741.471 431.795 742.968 429.966 C 754.647 416.266 761.53 409.274 774.924 396.937 C 772.762 400.96 769.873 405.624 769.17 410.025 L 769.987 411.082 C 775.793 410.577 775.777 405.32 778.706 400.481 C 784.831 390.363 800.398 383.627 808.908 376.7 L 806.778 372.899 z"/>
<path transform="translate(0,0)" fill="rgb(12,12,12)" d="M 806.778 372.899 C 816.238 374.149 825.208 377.037 834.69 378.699 L 832.29 380.67 C 827.534 379.094 813.443 375.193 808.908 376.7 L 806.778 372.899 z"/>
<path transform="translate(0,0)" fill="rgb(0,0,0)" d="M 759.19 366.116 C 767.389 363.298 797.868 369.812 806.778 372.899 L 808.908 376.7 C 800.398 383.627 784.831 390.363 778.706 400.481 C 775.777 405.32 775.793 410.577 769.987 411.082 L 769.17 410.025 C 769.873 405.624 772.762 400.96 774.924 396.937 C 761.53 409.274 754.647 416.266 742.968 429.966 L 741.918 428.935 C 764.981 398.738 769.235 391.554 804.124 374.273 C 797.785 372.961 793.057 371.938 786.807 370.049 L 776.207 379.139 L 775.356 377.31 L 784.337 369.632 C 778.541 369.05 772.202 368.02 766.388 367.2 C 747.745 378.082 746.133 382.312 732.591 399.086 C 729.478 402.941 722.199 408.907 718.832 412.83 C 715.035 417.253 711.196 422.341 707.514 426.937 L 707.452 425.391 C 721.032 405.087 738.323 377.866 759.19 366.116 z"/>
<path transform="translate(0,0)" fill="rgb(0,0,0)" d="M 745.938 362.651 L 746.658 361.519 L 751.456 361.232 L 749.112 363.736 C 738.348 372.426 728.194 380.483 718.994 390.847 C 717.011 393.081 713.04 398.012 710.607 398.433 L 709.088 396.187 L 710.094 394.163 C 710.575 393.591 711.375 392.216 711.811 391.521 L 708.164 389.59 C 717.234 379.561 734.148 369.418 745.938 362.651 z"/>
<path transform="translate(0,0)" fill="rgb(12,12,12)" d="M 775.356 377.31 L 776.207 379.139 C 762.61 391.652 761.4 395.995 751.106 411.016 C 755.999 395.164 763.074 387.536 775.356 377.31 z"/>
<path transform="translate(0,0)" fill="rgb(12,12,12)" d="M 751.456 361.232 L 760.415 362.918 L 761.028 363.826 L 759.198 364.913 C 755.287 365.06 752.402 365.63 749.112 363.736 L 751.456 361.232 z"/>
<path transform="translate(0,0)" fill="rgb(254,254,254)" d="M 822.565 453.79 C 830 442.257 868.269 391.984 880.201 388.552 C 883.948 389.383 886.018 390.024 889.899 389.177 C 892.112 392.362 902.046 392.888 906.128 393.357 L 908.74 391.52 C 914.306 392.613 926.001 393.816 929.79 397.231 C 932.44 397.788 933.33 397.88 935.745 399.028 L 936.064 399.568 L 939.563 401.223 C 945.836 397.743 948.324 400.291 955.807 401.829 C 942.094 415.011 912.352 451.581 902.511 468.363 C 896.697 467.338 881.969 466.022 879.087 462.332 C 880.03 460.126 880.017 460.168 881.537 458.307 L 881.199 456.879 L 875.759 463.438 C 868.732 462.099 853.178 460.811 849.383 456.991 L 850.745 453.828 L 849.93 453.066 C 844.798 461.161 831.131 455.588 822.565 453.79 z"/>
<path transform="translate(0,0)" fill="rgb(254,254,254)" d="M 939.563 401.223 C 945.836 397.743 948.324 400.291 955.807 401.829 C 942.094 415.011 912.352 451.581 902.511 468.363 C 896.697 467.338 881.969 466.022 879.087 462.332 C 880.03 460.126 880.017 460.168 881.537 458.307 L 881.199 456.879 C 899.769 432.226 905.082 411.255 936.064 399.568 L 939.563 401.223 z"/>
<path transform="translate(0,0)" fill="rgb(0,0,0)" d="M 881.199 456.879 C 899.769 432.226 905.082 411.255 936.064 399.568 L 939.563 401.223 C 930.201 408.474 917.281 415.687 918.025 428.444 C 916.852 431.235 915.978 431.435 913.263 433.154 L 911.821 432.747 C 910.958 429.011 912.025 425.822 912.822 421.987 C 908.724 424.763 886.375 452.576 881.537 458.307 L 881.199 456.879 z"/>
<path transform="translate(0,0)" fill="rgb(254,254,254)" d="M 822.565 453.79 C 830 442.257 868.269 391.984 880.201 388.552 C 883.948 389.383 886.018 390.024 889.899 389.177 C 892.112 392.362 902.046 392.888 906.128 393.357 C 876.06 408.404 868.308 426.398 849.93 453.066 C 844.798 461.161 831.131 455.588 822.565 453.79 z"/>
<path transform="translate(0,0)" fill="rgb(0,0,0)" d="M 906.128 393.357 L 908.74 391.52 C 914.306 392.613 926.001 393.816 929.79 397.231 C 924.572 396.437 919.388 395.436 914.25 394.229 C 909.578 397.163 901.841 401.71 897.975 405.378 C 892.213 410.846 886.085 425.468 879.312 429.13 C 878.33 426.947 879.486 423.734 880.005 420.891 L 878.988 420.611 C 869.17 430.119 857.006 448.094 850.745 453.828 L 849.93 453.066 C 868.308 426.398 876.06 408.404 906.128 393.357 z"/>
<path transform="translate(0,0)" fill="rgb(254,254,254)" d="M 1559.53 426.75 C 1565.82 434.18 1565.22 468.967 1560.18 475.546 C 1530.47 514.348 1504.3 555.588 1476.2 595.6 C 1471.3 602.573 1466.67 609.7 1460.24 615.121 C 1457.76 610.78 1457.31 579.142 1456.78 571.442 C 1483.35 534.536 1507.18 492.899 1534.64 456.261 C 1541.67 446.868 1551.7 435.78 1559.53 426.75 z"/>
<path transform="translate(0,0)" fill="rgb(254,254,254)" d="M 1400.87 478.827 L 1400.06 477.609 C 1402.55 477.984 1405.49 478.257 1407.05 480.484 C 1414.48 482.093 1422.9 482.768 1428.73 484.066 C 1430.97 481.334 1433.86 481.904 1437.01 483.042 L 1437.63 484.851 C 1442.48 486.886 1449.43 487.255 1454.71 487.587 C 1439.98 503.271 1413.43 541.228 1403.25 561.064 C 1398.53 561.647 1383.36 558.926 1380.34 555.02 L 1381.61 551.824 L 1380.78 550.704 L 1377.97 554.475 C 1371.62 557.089 1357.33 552.511 1350.74 550.282 C 1355.65 543.34 1375.1 515.508 1380.58 511.455 C 1381.7 508.724 1381.79 508.601 1381.83 505.69 C 1379.82 503.933 1380.44 504.483 1377.25 504.138 C 1382.14 496.095 1385.32 491.722 1392.61 485.572 C 1395.79 482.894 1398.42 482.023 1400.87 478.827 z"/>
<path transform="translate(0,0)" fill="rgb(254,254,254)" d="M 1400.87 478.827 L 1400.06 477.609 C 1402.55 477.984 1405.49 478.257 1407.05 480.484 C 1414.48 482.093 1422.9 482.768 1428.73 484.066 C 1397.29 504.943 1400.52 520.955 1380.78 550.704 L 1377.97 554.475 C 1371.62 557.089 1357.33 552.511 1350.74 550.282 C 1355.65 543.34 1375.1 515.508 1380.58 511.455 C 1381.7 508.724 1381.79 508.601 1381.83 505.69 C 1379.82 503.933 1380.44 504.483 1377.25 504.138 C 1382.14 496.095 1385.32 491.722 1392.61 485.572 C 1395.79 482.894 1398.42 482.023 1400.87 478.827 z"/>
<path transform="translate(0,0)" fill="rgb(0,0,0)" d="M 1400.87 478.827 L 1400.06 477.609 C 1402.55 477.984 1405.49 478.257 1407.05 480.484 C 1400.82 485.429 1388.49 497.869 1385.78 505.964 C 1384.86 508.736 1386.68 511.011 1383.97 514.086 C 1381.41 513.127 1382.6 513.824 1380.58 511.455 C 1381.7 508.724 1381.79 508.601 1381.83 505.69 C 1379.82 503.933 1380.44 504.483 1377.25 504.138 C 1382.14 496.095 1385.32 491.722 1392.61 485.572 C 1395.79 482.894 1398.42 482.023 1400.87 478.827 z"/>
<path transform="translate(0,0)" fill="rgb(0,0,0)" d="M 1428.73 484.066 C 1430.97 481.334 1433.86 481.904 1437.01 483.042 L 1437.63 484.851 C 1422.46 493.275 1420.87 498.965 1413.44 513.58 C 1412.4 515.632 1411.61 517.297 1409.79 516.838 L 1407.89 513.916 C 1402.62 516.027 1389.49 544.002 1381.61 551.824 L 1380.78 550.704 C 1400.52 520.955 1397.29 504.943 1428.73 484.066 z"/>
<path transform="translate(0,0)" fill="rgb(254,254,254)" d="M 1346.56 468.796 C 1355.98 471.44 1363.46 472.502 1372.73 474.755 C 1376.15 473.725 1376.23 473.011 1378.68 474.095 L 1379.39 475.395 C 1386.76 476.746 1393.4 477.969 1400.87 478.827 C 1398.42 482.023 1395.79 482.894 1392.61 485.572 C 1385.32 491.722 1382.14 496.095 1377.25 504.138 C 1367.17 519.407 1359.58 534.352 1348.67 550.622 C 1341.13 549.078 1331.53 547.764 1324.69 545.043 L 1323.68 543.46 L 1325.44 540.142 L 1325.1 538.745 C 1323.99 539.963 1321.82 543.351 1320.78 544.868 C 1312.38 543.174 1303.78 541.649 1295.34 540.068 C 1313.24 517.438 1327.99 491.488 1346.56 468.796 z"/>
<path transform="translate(0,0)" fill="rgb(254,254,254)" d="M 1346.56 468.796 C 1355.98 471.44 1363.46 472.502 1372.73 474.755 C 1348.33 486.3 1339.36 516.772 1325.1 538.745 C 1323.99 539.963 1321.82 543.351 1320.78 544.868 C 1312.38 543.174 1303.78 541.649 1295.34 540.068 C 1313.24 517.438 1327.99 491.488 1346.56 468.796 z"/>
<path transform="translate(0,0)" fill="rgb(0,0,0)" d="M 1372.73 474.755 C 1376.15 473.725 1376.23 473.011 1378.68 474.095 L 1379.39 475.395 C 1372.92 480.904 1368.28 484.959 1362.34 491.046 C 1362.09 495.8 1362.14 502.542 1360.36 506.721 L 1359.25 506.837 C 1358.17 503.974 1357.87 501.638 1355.74 500.104 C 1354.63 500.803 1328.1 536.381 1325.44 540.142 L 1325.1 538.745 C 1339.36 516.772 1348.33 486.3 1372.73 474.755 z"/>
<path transform="translate(0,0)" fill="rgb(254,254,254)" d="M 834.69 378.699 C 839.532 379.513 859.117 382.26 861.898 385.154 C 867.018 386.737 869.426 387.256 874.728 388.111 C 853.559 407.53 836.854 429.533 821.159 453.541 C 814.161 452.257 805.271 450.851 798.533 449.2 L 798.133 448.257 C 798.984 447.124 799.933 446.161 800.27 444.884 C 799.409 445.28 798.005 446.867 797.264 447.223 C 791.914 449.795 774.68 444.656 768.418 443.309 C 774.694 436.719 785.523 421.212 792.306 416.542 L 794.078 414.447 L 793.443 410.893 C 797.118 407.362 799.07 402.933 802.434 399.116 C 810.783 389.643 821.11 385.618 832.29 380.67 L 834.69 378.699 z"/>
<path transform="translate(0,0)" fill="rgb(254,254,254)" d="M 861.898 385.154 C 867.018 386.737 869.426 387.256 874.728 388.111 C 853.559 407.53 836.854 429.533 821.159 453.541 C 814.161 452.257 805.271 450.851 798.533 449.2 L 798.133 448.257 C 798.984 447.124 799.933 446.161 800.27 444.884 C 806.5 439.657 822.483 416.737 826.945 415.317 C 827.914 418.092 828.32 419.842 828.971 422.721 L 830.458 423.564 C 832.34 422.839 832.761 422.009 834.021 420.445 C 833.192 404.668 850.475 393.185 861.898 385.154 z"/>
<path transform="translate(0,0)" fill="rgb(0,0,0)" d="M 834.69 378.699 C 839.532 379.513 859.117 382.26 861.898 385.154 C 850.475 393.185 833.192 404.668 834.021 420.445 C 832.761 422.009 832.34 422.839 830.458 423.564 L 828.971 422.721 C 828.32 419.842 827.914 418.092 826.945 415.317 C 822.483 416.737 806.5 439.657 800.27 444.884 C 802.451 440.618 805.898 436.211 808.692 432.237 C 822.658 412.374 833.74 396.03 855.852 384.477 C 850.288 383.556 844.756 382.455 839.263 381.176 C 831.244 386.212 823.686 391.001 816.064 396.384 C 808.821 401.5 799.179 419.953 795.242 421.536 C 792.8 419.756 793.511 420.029 792.306 416.542 L 794.078 414.447 L 793.443 410.893 C 797.118 407.362 799.07 402.933 802.434 399.116 C 810.783 389.643 821.11 385.618 832.29 380.67 L 834.69 378.699 z"/>
<path transform="translate(0,0)" fill="rgb(254,254,254)" d="M 688.988 380.689 C 692.635 373.559 703.105 362.761 709.213 357.205 C 714.956 357.801 718.614 358.281 724.239 359.49 C 726.178 359.593 728.217 359.453 729.819 360.402 C 734.272 360.261 740.703 362.156 745.938 362.651 C 734.148 369.418 717.234 379.561 708.164 389.59 C 699.994 397.988 687.356 414.542 679.273 424.14 C 671.237 422.375 661.545 420.87 653.336 419.382 C 664.524 408.403 673.658 396.363 685.529 385.638 L 687.404 386.151 C 687.182 383.908 688.015 382.739 688.988 380.689 z"/>
<path transform="translate(0,0)" fill="rgb(0,0,0)" d="M 688.988 380.689 C 692.635 373.559 703.105 362.761 709.213 357.205 C 714.956 357.801 718.614 358.281 724.239 359.49 C 726.178 359.593 728.217 359.453 729.819 360.402 C 720.734 366.351 703.378 377.042 694.712 384.241 C 692.399 386.163 692.268 394.162 686.192 394.21 C 684.761 391.514 685.559 388.426 687.404 386.151 C 687.182 383.908 688.015 382.739 688.988 380.689 z"/>
<path transform="translate(0,0)" fill="rgb(254,254,254)" d="M 688.988 380.689 C 692.635 373.559 703.105 362.761 709.213 357.205 C 714.956 357.801 718.614 358.281 724.239 359.49 C 709.499 366.664 702.304 371.14 688.988 380.689 z"/>
<path transform="translate(0,0)" fill="rgb(254,254,254)" d="M 1066.68 420.89 C 1074.28 422.383 1081.9 423.811 1089.52 425.174 C 1083.62 430.756 1074.19 439.517 1069.5 446.046 C 1064.46 453.055 1045.3 490.459 1038.79 493.008 C 1030.86 491.294 1021.26 489.839 1013.16 488.397 C 1031.46 464.759 1044.57 441.417 1066.68 420.89 z"/>
<path transform="translate(0,0)" fill="rgb(254,254,254)" d="M 689.581 353.147 C 694.613 354.923 700.934 355.53 706.304 356.263 C 685.856 375.247 671.863 397.913 652.346 417.279 C 650.666 418.946 645.53 417.629 643.223 417.226 C 637.614 415.829 630.159 414.603 624.358 413.473 C 639.468 397.36 670.395 361.043 689.581 353.147 z"/>
<path transform="translate(0,0)" fill="rgb(254,254,254)" d="M 1403.25 561.064 C 1416.94 548.69 1446.76 491.06 1459.4 488.845 C 1468.69 490.902 1467.59 493.923 1474.84 492.446 C 1472.53 496.711 1456.41 516.829 1452.59 522.036 C 1441.98 536.487 1432.47 550.628 1422.46 565.496 C 1418.27 565.155 1406.64 563.271 1403.25 561.064 z"/>
<path transform="translate(0,0)" fill="rgb(254,254,254)" d="M 1423.64 569.418 C 1433.99 571.693 1444.28 574.249 1454.5 577.082 C 1454.66 589.908 1454.4 605.04 1457.33 617.34 C 1441.47 619.145 1431.68 620.579 1429.05 601.282 C 1427.66 591.008 1426.2 579.391 1423.64 569.418 z"/>
<path transform="translate(0,0)" fill="rgb(254,254,254)" d="M 448.027 385.739 C 455.085 386.09 471.756 389.272 479.42 390.524 C 480.228 397.314 483.232 408.076 484.995 415.107 C 475.975 413.369 466.263 411.282 457.202 410.38 C 454.552 401.931 451.283 393.966 448.027 385.739 z"/>
<path transform="translate(0,0)" fill="rgb(254,254,254)" d="M 1238.35 531.411 C 1247.4 533.394 1257.09 534.96 1266.25 536.584 C 1267.78 545.53 1269.57 552.759 1271.81 561.568 C 1262.56 559.609 1253.1 558.091 1243.78 556.496 C 1241.87 548.155 1240.07 539.793 1238.35 531.411 z"/>
<path transform="translate(0,0)" fill="rgb(254,254,254)" d="M 569.117 406.727 C 577.587 407.495 586.934 409.24 595.423 410.635 C 597.319 420.248 599.22 427.812 601.826 437.273 C 592.759 435.392 584.945 433.856 575.786 432.569 C 573.453 423.984 571.23 415.369 569.117 406.727 z"/>
<path transform="translate(0,0)" fill="rgb(254,254,254)" d="M 1208.92 525.656 C 1217.19 527.519 1227.48 529.115 1235.95 530.657 C 1237.49 539.246 1239.48 547.634 1241.44 556.134 L 1214.41 550.644 C 1212.24 542.06 1210.62 534.347 1208.92 525.656 z"/>
<path transform="translate(0,0)" fill="rgb(254,254,254)" d="M 539.7 400.881 C 548.623 402.602 557.53 404.405 566.42 406.29 C 568.629 415.002 570.714 423.089 573.351 431.682 C 564.782 429.802 555.328 428.209 546.659 426.63 C 544.021 419.147 541.692 408.816 539.7 400.881 z"/>
<path transform="translate(0,0)" fill="rgb(254,254,254)" d="M 481.189 390.687 C 490.46 392.143 499.709 393.732 508.934 395.454 C 510.539 404.195 512.588 411.892 514.839 420.489 C 507.463 419.576 495.355 416.775 487.718 415.246 C 485.41 407.297 483.306 398.732 481.189 390.687 z"/>
<path transform="translate(0,0)" fill="rgb(254,254,254)" d="M 1126.44 511.394 C 1135.34 512.559 1143.86 514.038 1152.69 515.568 C 1154.51 524.105 1156.49 532.605 1158.64 541.064 C 1149.69 539.441 1140.75 537.731 1131.83 535.934 C 1130.16 529.305 1127.03 517.752 1126.44 511.394 z"/>
<path transform="translate(0,0)" fill="rgb(254,254,254)" d="M 738.345 439.506 C 747.75 441.174 757.129 442.99 766.477 444.951 C 767.379 453.172 769.697 461.447 771.827 469.428 C 764.55 467.522 752.293 465.672 744.54 464.276 C 741.817 455.91 740.223 448.083 738.345 439.506 z"/>
<path transform="translate(0,0)" fill="rgb(254,254,254)" d="M 511.341 395.617 C 519.99 397.419 528.672 399.054 537.384 400.52 C 539.293 409.215 541.464 417.85 543.892 426.414 C 534.168 424.913 526.579 423.253 516.981 420.984 C 515.395 412.807 513.179 403.815 511.341 395.617 z"/>
<path transform="translate(0,0)" fill="rgb(254,254,254)" d="M 625.479 416.52 C 633.235 417.48 643.664 419.895 651.554 421.518 C 653.037 430.402 655.524 439 657.849 447.704 C 649.314 446.2 640.805 444.55 632.326 442.754 C 629.918 434.899 627.573 424.637 625.479 416.52 z"/>
<path transform="translate(0,0)" fill="rgb(254,254,254)" d="M 597.505 411.645 C 603.254 411.919 616.781 414.577 623.349 415.528 C 624.884 424.589 627.463 433.645 629.986 442.467 C 621.778 441.133 612.38 439.061 604.116 437.455 L 597.505 411.645 z"/>
<path transform="translate(0,0)" fill="rgb(254,254,254)" d="M 681.671 427.61 C 688.94 428.363 699.939 431 707.39 432.595 C 709.41 441.954 710.966 449.355 713.92 458.448 C 705.73 456.539 696.093 454.956 687.727 453.393 C 685.907 444.753 683.887 436.157 681.671 427.61 z"/>
<path transform="translate(0,0)" fill="rgb(254,254,254)" d="M 653.756 421.836 C 660.417 423.689 672.27 425.482 679.438 426.762 C 681.298 435.979 683.053 443.704 685.484 452.783 L 660.244 448.21 C 657.804 439.533 655.819 430.619 653.756 421.836 z"/>
<path transform="translate(0,0)" fill="rgb(254,254,254)" d="M 710.713 433.372 C 718.881 435.404 727.184 436.938 735.446 438.56 C 737.437 447.244 739.13 455.628 742.227 463.989 C 733.397 462.382 725.196 460.818 716.449 458.817 C 714.337 452.096 710.733 440.239 710.713 433.372 z"/>
<path transform="translate(0,0)" fill="rgb(254,254,254)" d="M 1097.2 506.547 L 1123.29 510.92 C 1125.29 519.525 1127.1 527.431 1129.66 535.89 L 1103.37 531.274 C 1101 523.172 1099.14 514.776 1097.2 506.547 z"/>
<path transform="translate(0,0)" fill="rgb(254,254,254)" d="M 933.328 476.71 C 941.927 477.686 950.427 479.507 958.923 481.174 C 960.829 489.29 962.907 497.365 965.157 505.393 L 938.519 500.591 C 936.587 492.676 934.857 484.713 933.328 476.71 z"/>
<path transform="translate(0,0)" fill="rgb(254,254,254)" d="M 1324.41 548.335 C 1332.93 549.902 1341.39 551.317 1349.77 553.546 C 1351.2 561.838 1352.8 569.252 1354.67 577.46 C 1346.48 575.437 1336.91 574.029 1328.49 572.599 C 1327.24 566.487 1324.45 553.993 1324.41 548.335 z"/>
<path transform="translate(0,0)" fill="rgb(254,254,254)" d="M 1042.25 496.598 C 1050.99 497.982 1059.69 499.546 1068.36 501.29 C 1069.59 508.753 1072.23 518.113 1074.14 525.626 C 1065.53 524.041 1056.94 522.342 1048.38 520.531 C 1046.23 513.678 1044.04 503.761 1042.25 496.598 z"/>
<path transform="translate(0,0)" fill="rgb(254,254,254)" d="M 1268.28 537.388 C 1276.83 539.088 1285.38 540.851 1293.91 542.679 C 1295.57 551.671 1296.89 558.48 1299.37 567.267 L 1274.17 562.295 C 1272.71 554.58 1270.17 545.166 1268.28 537.388 z"/>
<path transform="translate(0,0)" fill="rgb(228,227,228)" d="M 1544.5 503.795 C 1542.29 518.726 1539.59 527.581 1528.23 538.779 L 1528.36 537.874 C 1513.73 555.265 1497.68 577.12 1483.26 595.319 L 1480.35 595.362 L 1516.22 543.247 C 1523.04 533.164 1536.5 511.6 1544.5 503.795 z"/>
<path transform="translate(0,0)" fill="rgb(254,254,254)" d="M 1181.54 520.835 C 1189.84 522.249 1198.13 523.765 1206.4 525.383 C 1207.24 531.887 1210.28 543.478 1211.88 550.22 C 1204.41 549.363 1195.17 547.465 1187.6 546.098 L 1181.54 520.835 z"/>
<path transform="translate(0,0)" fill="rgb(254,254,254)" d="M 768.713 445.848 C 776.87 447.936 786.118 449.661 794.444 451.371 C 795.309 457.415 798.24 468.505 799.732 474.805 C 791.088 473.255 782.476 471.532 773.902 469.637 C 772.012 461.743 770.282 453.812 768.713 445.848 z"/>
<path transform="translate(0,0)" fill="rgb(254,254,254)" d="M 961.185 481.565 L 986.076 485.894 L 991.761 510.296 L 967.562 506.176 L 961.185 481.565 z"/>
<path transform="translate(0,0)" fill="rgb(254,254,254)" d="M 1296.32 542.905 C 1304.17 544.644 1313.5 546.141 1321.51 547.633 C 1323 555.868 1324.55 564.09 1326.18 572.298 C 1318.01 570.418 1309.78 568.831 1301.51 567.54 L 1296.32 542.905 z"/>
<path transform="translate(0,0)" fill="rgb(254,254,254)" d="M 1070.31 501.241 L 1094.95 505.662 C 1096.73 514.86 1098.09 521.489 1100.76 530.432 C 1093.98 529.897 1083.6 527.559 1076.59 526.181 C 1074.38 518.059 1072.36 509.443 1070.31 501.241 z"/>
<path transform="translate(0,0)" fill="rgb(254,254,254)" d="M 1155.41 515.906 L 1179.29 520.488 C 1181.12 529.271 1183.04 536.902 1185.38 545.572 L 1160.47 541.191 C 1159.58 534.555 1156.75 523.34 1155.41 515.906 z"/>
<path transform="translate(0,0)" fill="rgb(254,254,254)" d="M 905.233 471.424 L 930.419 476.055 L 936.302 500.267 C 928.519 498.553 919.443 497.098 911.492 495.58 C 909.269 487.75 907.258 479.349 905.233 471.424 z"/>
<path transform="translate(0,0)" fill="rgb(254,254,254)" d="M 988.323 486.423 C 995.95 487.536 1005.42 489.664 1013.12 491.19 C 1014.8 499.361 1016.84 507.336 1018.86 515.427 L 994.171 510.823 C 992.334 502.394 990.582 494.746 988.323 486.423 z"/>
<path transform="translate(0,0)" fill="rgb(254,254,254)" d="M 878.267 466.477 C 886.677 468.265 894.837 469.548 903.319 470.913 C 904.883 480.621 906.188 485.884 909.031 495.218 C 900.789 493.539 892.525 491.964 884.243 490.495 C 881.932 483.019 880.078 474.177 878.267 466.477 z"/>
<path transform="translate(0,0)" fill="rgb(254,254,254)" d="M 1352.25 554.232 C 1360.7 555.815 1369.13 557.508 1377.54 559.313 C 1378.84 567.11 1380.73 574.913 1381.72 582.737 L 1357.52 577.911 C 1355.23 570.314 1353.8 562.045 1352.25 554.232 z"/>
<path transform="translate(0,0)" fill="rgb(254,254,254)" d="M 1015.63 491.697 L 1039.57 495.721 C 1041.66 504.321 1043.57 511.872 1046.18 520.321 C 1037.33 518.93 1029.61 517.365 1020.85 515.469 C 1019.44 507.86 1017.34 499.332 1015.63 491.697 z"/>
<path transform="translate(0,0)" fill="rgb(254,254,254)" d="M 796.809 452.085 L 822.156 456.606 C 823.472 463.929 825.732 472.741 827.445 480.131 C 821.486 478.578 809.563 476.866 802.933 475.613 C 800.261 467.269 798.732 460.633 796.809 452.085 z"/>
<path transform="translate(0,0)" fill="rgb(254,254,254)" d="M 851.388 461.771 L 875.655 466.045 C 877.61 474.235 879.665 482.401 881.82 490.541 C 873.428 488.597 865.226 487.114 856.76 485.554 L 851.388 461.771 z"/>
<path transform="translate(0,0)" fill="rgb(254,254,254)" d="M 824.29 456.834 L 848.889 461.376 C 850.468 469.455 852.333 477.475 854.481 485.422 C 846.494 483.645 837.827 482.093 829.756 480.529 C 828.216 472.753 826.131 464.588 824.29 456.834 z"/>
<path transform="translate(0,0)" fill="rgb(254,254,254)" d="M 1379.93 559.621 C 1386.94 561.063 1393.9 562.672 1400.82 564.446 L 1404.76 586.809 C 1398.03 585.637 1391.3 584.522 1384.56 583.463 L 1379.93 559.621 z"/>
<path transform="translate(0,0)" fill="rgb(254,254,254)" d="M 1403.43 564.573 L 1421.67 568.508 C 1423 576.799 1423.83 582.698 1424.39 591.096 C 1418.7 590.05 1413.02 588.939 1407.35 587.765 L 1403.43 564.573 z"/>
<path transform="translate(0,0)" fill="rgb(254,254,254)" d="M 1412.13 591.713 L 1426 594.49 C 1427.28 602.302 1428.53 608.071 1430.41 615.731 L 1419.62 614.258 C 1417.35 606.218 1414.96 599.55 1412.13 591.713 z"/>
<path transform="translate(0,0)" fill="rgb(254,254,254)" d="M 1469.6 503.038 C 1469.56 503.602 1469.54 504.673 1469.21 505.061 C 1461.62 514.003 1434.05 564.345 1427.05 567.976 L 1425.28 566.242 C 1425.5 561.123 1464.09 510.222 1469.6 503.038 z"/>
<path transform="translate(0,0)" fill="rgb(211,211,211)" d="M 1468.83 611.023 C 1472.95 604.84 1475.71 601.131 1480.35 595.362 L 1483.26 595.319 C 1478.05 601.758 1475.16 605.587 1468.83 611.023 z"/>
</svg>