<?xml version="1.0" encoding="UTF-8"?><svg id="Layer_2" xmlns="http://www.w3.org/2000/svg" viewBox="0 0 310.98 964.13"><g id="Layer_1-2"><path d="M168.62.19C170.25.06,171.88,0,173.51,0c20.2,0,33.84,22.39,25.11,40.36-1.52,3.13-3.5,5.35-5.32,8.21-15.55,24.54,7.6,54.77,7.66,80.54-.03,12.27-10.17,16.98-14.88,26.66-3.66,7.5-4.66,16.99-4.86,25.34-.5,20.15,0,40.48.55,60.64l1.16,58.39,3.16,192.64c.68,38.06,2.06,75.81,2.01,113.99,4.93,8.55,12.92,15.15,23.42,14.21,27.59-2.5,27.22-34.57,40.46-51.8,2.55-3.11,8.39-6.27,12.49-5.88,13.96,1.33,20.36,18.53,22.25,29.95,3.07,18.6,1.35,36.2-4.54,53.77-6.49,19.41-19.05,38.38-15.39,59.51,2.73,15.8,9.92,26.64,17.68,40.17,16.11,28.08,26.9,57.12,26.48,89.98-.36,28.55-9.57,54.58-30.11,75.01-28.16,28.02-77.91,38.99-116.87,38.39.14,4.59.67,13.32-5.2,14.03-6.96.84-6.27-10.73-6.13-13.97-32.58.12-71.56-6.59-100.11-22.94-5.56-3.18-10.75-7.21-15.75-11.21-19.64-15.93-31.22-36.72-34.95-61.35-6.34-41.83,3.93-79.1,26.32-114.28,10.54-16.56,21.18-36.41,22.74-56.27,1.55-26.47-10.26-51.07-18.44-75.89-10.83-32.84-16.91-74.71,4.32-104.82,3.03-4.29,11.68-10.86,16.81-10.39,38.34,3.57,16.16,54.96,40.28,73.81,5.5,4.28,11.95,6.52,17.63,5.66,17.33-2.62,15.71-15.17,15.71-28.37l-.06-24.84c-.01-12.17,1-24.01.94-36.16-.14-30.63,1.36-61.39,1.97-91.99l1.97-91.84c.2-9.88.06-19.69.35-29.61l1.86-57.05c.49-11.76,1.6-24.37.66-36.18-.56-6.99-7.63-8.93-12.24-12.44-5.09-3.99-8.68-9.41-10.03-15.78-.5-2.36.12-9.38-1.52-10.55-9.91,13.01-34.36,3.67-28.82-15.13,1.19-4.18,4.11-7.65,8.02-9.55,10.28-5.06,19.44-.3,24.14,9.46,1.55-8.66,4.8-19.7,6.86-28.76-13.14,9.38-30.68.12-27.52-15.76.93-4.68,3.76-8.76,7.81-11.27,9.84-6.03,18.85-.76,24.14,8.2,3.46-9.22,4.46-19.8,7.79-28.54-5.17,4.83-11.35,7.89-18.59,5.94-4.52-1.26-8.3-4.37-10.42-8.56-10.13-19.64,20.78-38.74,32.17-11.3,5.34-15.51,14.74-29.27,31.93-32.18ZM187.09,613.26c.11,3.97.35,8.35.36,12.29,28.83,18.76,54.6,4.3,66.38-25.32,6.69-16.83,15.89-30.82,22.61-3.57,5.86,27.81-6.19,51.03-16.61,75.26-13.33,30.1-.97,52.72,14.26,78.8,6.81,11.68,12.58,25.11,17.43,38.67,16.84,47.02,6.11,110.53-46.38,128.62-3.14,1.08-11.46.42-14.05-1.7-7.77-5.77,2.39-18.1,5.11-24.49,1.4-3.29,3.21-6.73,4.66-10.17,15.88-37.43,7.37-96.65-46.01-90.12l-19.83,2.59c-.58,5.24-.18,8.96-.45,13.88,2.36-.03,6.84.18,9.14-.05,13.01-1.37,20.89,13.11,11.17,22.45-4.67,4.48-13.91,3.8-20.5,3.68-.54,9.83-.32,21.12-.3,31.07,4.26-.12,12.88-.76,16.52.64,2.17,2.83,1.71,41.61,1.41,47.72-1.01,1.7-1.95,2.39-3.89,2.84-8.01,1.87-64.04,2.99-70.02-1.51-1.22-.92-1.1-4.9-1.13-6.4-.16-8.8.07-17.65.11-26.45.02-3.77-.48-7.95-.08-11.66.14-1.28.61-2.67,1.47-3.65,1.8-2.04,5.04-1.98,7.51-1.88,3.05.14,6.06.26,9.12.24l.08-30.91c-9.95-.03-23.56.06-23.53-13.34.03-13.18,14.55-12.68,23.46-13.05.24-5.11.22-8.58-.02-13.68-29.45-.09-55.85-12.51-55.06-45.51-.11-15.81,6.15-29.85,11.64-44.26,9.87-25.91,20.82-57.93,15.65-85.86-5.17-27.94-13.07-27.91,19.76-32.53l.06-16.07c-6.18,5.4-11.5,7.95-19.89,7.39-17.75-1.18-27.01-16.82-30.1-32.66-2.67-13.66-1.14-46.17-21.87-46.82-6.35.62-10.49,3.38-14.54,8.23-12.95,15.55-15.08,41.28-13.19,60.58,1.52,15.53,5.63,30.18,10.61,44.91,7.77,22.97,18.77,46.81,17.11,71.64-1.72,25.7-14.16,43.73-26.54,64.99-14.92,25.64-23.64,51.93-23.77,81.81-.04,7.9.12,15.53,1.41,23.35,4.02,24.35,15.69,44.45,34.89,60.03,36.19,29.35,97.93,35.88,142.68,31.04,37.4-4.03,76.75-14.07,101.38-44.8,18.64-23.27,23.39-54.16,20.01-83.13-2.53-21.73-11.8-43.84-22.26-62.85-7.64-13.9-17.12-27.6-20.05-43.48-7.51-40.81,30.79-66.7,18.84-118.66-1.74-7.55-4.35-15.49-10.71-20.47-2.45-1.92-5.64-3.83-8.89-3.23-3.98.74-7.28,4.85-9.28,8.1-3.9,6.32-6.03,13.93-8.74,20.82-5.17,13.11-13.79,25.02-28.11,28.57-6.67,1.66-13.41.54-19.29-3.01-3.92-2.38-6.76-5.47-9.74-8.91ZM186.92,630.26c.12,11.44,1.24,16.33-11.83,17.03l-.07,101.15c6.86.06,20.72-1.39,26.05,3.28,2.76,2.41,1.1,5.93.07,8.52,3.73,6.63,4.88,8.98-1.44,14.57-7.3,1.73-17.03,1.1-24.66.79v13.74c20.42-2.61,38.78-7.59,56.65,6.09,22.43,17.17,23.89,45.77,18.55,71.39-3.35,12.73-7.52,23.8-13.98,35.28-1.16,2.06-3.92,7.93-3.03,10.08,2.71,2.28,6.63,2.12,10.01,1.84,13.13-1.1,24.21-9.94,32.39-19.66,17.7-21.04,23.03-47.02,20.29-73.87-2.18-21.46-10.2-41.76-19.92-60.85-10.34-20.97-26.14-40.84-23.83-65.59,3.12-33.46,31.7-61.92,21.62-97.15-1.11-3.9-2.9-10.21-7.47-11.04-3.8,4.57-7.31,13.89-9.96,19.6-7.09,15.3-19.11,30.36-36.96,32.54-10.57,1.11-23.78-1.11-32.49-7.73ZM147.13,178.53c2.37.15,5.14.4,7.47.41.79-24.06-.29-49.92.11-74.21l-.68.09c-10.4,1.37-12.44-9.85-7.19-15.26,1.5-1.57,3.61-2.4,5.78-2.3,2.05.1,3.36.63,4.98,1.77,1.59,2.85,1.61,9.46,1.5,12.77-.84,23.22.95,47.79-.26,70.9l-.32,6.05,9.57-.04.02-65.7c0-19.02.12-36.39-1.1-55.36-6.51,3.38-12.96,4.1-16.38-3.91-1.12-2.69-1.06-5.74.18-8.38,1.29-2.83,3.71-4.98,6.68-5.93,11.14-3.47,13.83,8.57,14.13,16.73.48,13.23.44,26.22.44,39.44l-.03,85.97c0,5.77-.45,27.07.48,31.66,1.48.72.67.49,2.59.33.8-.55,2.04-1.4,2.06-2.53.2-19.45-3.32-42.87,6.21-60.66,3.43-6.41,13.49-12.49,13.07-20.53-1.26-24.04-16.41-47.08-12.44-71.86,2.07-12.89,14.38-16.85,12.38-31.99-.53-3.9-1.94-7.63-4.12-10.91-5.66-8.36-14.67-11.21-24.34-9.92-24.6,7.71-27.7,32.03-32.91,54.09-2.25,9.58-4.59,19.15-7,28.7l-7.03,27.83c-2.89,11.46-6.39,22.06-3.14,33.85,3.39,12.31,19.41,12.71,21.81,25.05,1.02,9.98-.95,27.48-.79,38.24.24.19.49.38.73.57,2.09.17,1.7.47,3.13-.44.86-3.35.91-61.3,0-66.33-.65-.54-1.43-.94-2.27-1.03-8.42-.93-9.72-14.5-2.36-17.43,1.92-.77,4.08-.74,5.98.09,1.35.59,2.14,1.47,2.61,2.86,2.12,6.28.37,37.95.45,47.3ZM121.35,788.21c4.82.87,8.93,1.09,13.79,1.42.48-4.93.14-11.36.11-16.48.02-6.7.12-13.41.3-20.11-9.53-.12-21.96,1.89-22.77-8.57-.45-5.88,3.95-6.12,3.91-10.33-7.54-14.98,11.53-13.41,19.38-13.05l.05-49.2c.02-7.41-.21-17.2.14-24.45-3.37-.53-5.18-.59-7.64-2.97-2.25-5.77-1.49-44.64-1.51-53.66l-5.25.38c-17.04,3.03-16.43,1.4-11.98,18.15,2.33,8.74,3.36,21.09,2.77,30.21-.84,13.08-3.21,26.02-7.08,38.54-2.27,7.4-5.36,18.03-8.4,24.97-14.62,33.46-25.76,76.97,24.16,85.14ZM157.71,647.56c-.02,6.98-.54,72.29.34,73.43l1.89.11h12.14s.02-59.23.02-59.23c0-2.3.35-12.98-.44-14.43l-1.65-.14c-4.47.34-7.8.32-12.3.25ZM139.79,721.07c4.68-.01,9.71.08,14.36-.04l-.03-46.74c0-8.21-.29-18.61.23-26.67-3.32,0-11.39.24-14.27-.48l-.05,46.11c0,8.69.26,19.34-.24,27.84ZM139.47,913.07c2.31.07,7.8.6,9.49-.29-.2-.6-.42-.69-.9-1.22l-.14-1.77c-.17-3.73.2-43.82.6-44.71,1.44-.79,2.22-.45,3.86-.23l.79.1c.15.02.31.04.47.07-.06-10.15-.26-20.88.41-30.96-4.95.03-10.04.12-14.97,0-.12,14.9.01,29.8.4,44.69.28,8.74,1.37,26.09-.01,34.32ZM166.04,906.27l1.25-1.04.06-1.02c-.72-.67-.43-.43-1.18-1.03l-.52-.4c1.08-.62.93-.53,1.85-1.28.24-2.76-.52-5.22-1.14-7.95,1.12-1.98,1.04-2.76,1.3-5.09l-.93-.12c.62-1.58,1.12-13.89.85-15.03l-2.18-.22-.19-.83.26-.36c1.03-1.48,1.18-1.65,2.51-2.83-.17-1.35-.28-1.96-.23-3.33.97-.46,1.35-.64,2.2-1.29.45-3.13.6-26.9.35-30.35h-13.15c-.26,26.65,1.41,51.89.83,78.82,2.15,1.59,6.74.38,8.96-.75,1.14-2.04.72-4.21-.89-5.9ZM106.93,36.26c2.31,8.98,6.47,11.86,15.75,11.02,15.94-6.58,10.32-24.32-6.32-23.16-6.97,2.74-7.81,5.24-9.43,12.15ZM112.48,92.46c3.82-1.64,7.69-3.31,9-7.59,2.94-9.63-4.76-16.02-13.7-15.22-15.74,4.69-11.7,23.43,4.69,22.81ZM85.8,127.93c2.04,8.43,6.86,11.87,15.66,10.27,6.17-1.25,10.01-7.03,8.18-13.21-1.01-3.32-3.3-6.1-6.36-7.72-2.49-1.3-4.38-1.31-7.1-1.14-7.53,2.21-8.4,4.59-10.38,11.8ZM175.08,771.16c6.08-.02,19.69,1.64,23.9-2.27.51-4.11-.45-4.26-3.09-7.28,1.34-3.46,3.04-8.03-2.88-8.62-5.9-.58-11.86.42-17.97-.1,0,5.99-.09,12.3.03,18.27ZM122.69,735.67c-8.88,9.15-7.1,12.68,5.29,12.57l7.85-.15c.16-7.62.26-15.24.29-22.86-4.51-.1-8.89-.24-13.4-.06-1.44,1.01-2.3,1.36-2.93,2.99-.16,2.9,1.41,4.85,2.91,7.51ZM157.77,407.51l12.59-.12-.26-27.3-12.39-.05c.57,4.49.51,23,.05,27.48ZM139.64,748.34c4.37-.07,9.37.1,13.59-.04l.71-.52c.55-5.63.23-16.17.18-22.21-5.19-.36-9.35-.48-14.51-.52.29,7.49.14,15.74.03,23.28ZM157.5,748.55l14.04-.24c.06-7.41.57-15.38.33-22.64-5.01-.66-9.32-.57-14.35-.58.1,7.82.09,15.65-.02,23.46ZM158.03,375.63l12.07-.08c.03-9.86-.31-17.72-.62-27.47l-11.43-.04-.02,27.59ZM158.06,344.03l11.59-.09-.53-27.89c-3.24-.03-7.94.07-11.07-.16v28.14ZM174.51,830.16c5.98-.6,12.34,0,17.04-3.23,2.93-3.36,4.92-8.45.74-11.66-5.07-3.91-11.82-3.27-17.8-3.15l.02,18.05ZM158.04,284.02c0,5.98-.39,21.95.24,27.14,2.02.55,2.78.42,4.92.36l6-.18c0-3.66.18-24.98-.43-26.96-1.55-.53-1.6-.48-3.26-.56l-7.46.2ZM158.07,247.5c3.43-.07,6.86-.13,10.29-.16.24-9.56-.11-19.69-.29-29.29l-10,.06v29.39ZM158.07,213.57c3.3-.06,6.79-.21,10.08,0l-.04-30.38-9.96-.03-.08,30.41ZM158.06,279.59l11.04-.17c-.18-8.87-.67-18.57-.51-27.33-3.05-.13-7.77-.03-10.43-.25-.12,9.25-.15,18.5-.1,27.75ZM128.46,829.51c2.05.08,4.65.1,6.65.28.36-5.84.15-11.89.08-17.75l-10.77.12c-13.52,4.58-9.86,16.6,4.04,17.35ZM157.88,433.98c4.23.02,9.01.16,13.2,0-.14-7.23-.53-14.88-.58-22.02-3.3.02-9.59.24-12.61-.24.01,6.79.34,15.69-.01,22.26ZM143.76,407.49c3.27-.03,7.37-.19,10.57-.07-.18-9.13-.23-18.26-.15-27.4l-10.04-.02c-.06,9.17-.18,18.33-.37,27.49ZM157.59,458.95c5.05.08,8.35.14,13.41-.38.45-5.16.12-14.5.11-20.01-4.32-.17-9.22-.49-13.49-.32.01,6.8.13,13.93-.03,20.71ZM144.1,375.61l10.13-.02-.12-27.43-9.56-.17c-.03,9.28-.42,18.46-.46,27.61ZM139.57,771.06l14.55.09c0-5.97-.09-12.22.04-18.16l-14.72.04c.21,6.01.26,12.02.14,18.03ZM139.09,830.06c3.3-.02,11.94.12,14.82-.22-.57-4.66-.29-12.92-.12-17.73l-14.69-.05v18ZM171.52,912.89l.27.3c1.89-.03,2.24-.02,4.05-.37-1.4-2.73-1.24-28.76.89-31.38,1.3-.21,1.93-.42,3.22-.18l-.33,1.09c1.18,2.31-.78,4.72,1.46,6.77,1.19-.94-.09-6.58,1.27-9.65,2.6-.58-.23,1.31,4.97,1.7l-1.05,1.22c-.46,2.33-.91,4.34.11,6.59l1.76.57c-1.64-2.99.79-5.35-.82-8.38,1.06-2.69.91-8.39-2.78-9.4-1.65.41-.97,0-2.09,1.32.01.97,0,1.63-.07,2.6-1.91-.83-.27-1.86-3.15-3.71-3.31.04-4.95,2.3-7.33,4.6-1.12,8.66-.21,26.57-.38,36.31ZM144.51,344.06c3.1-.04,6.37-.13,9.45-.04.69-6.18.22-21.38.17-27.98l-9.1-.31c.02,7.73.41,21.12-.53,28.32ZM157.64,482.02c4.39,0,9.18.11,13.53-.14,0-6.21-.05-12.53.03-18.73-4.39-.04-9.28.02-13.61-.14.04,6.09.24,12.97.05,19ZM157.18,771.18c3.72-.03,10.52.12,13.98-.18.02-6.19.1-11.77.42-17.95-4.33.02-10.3.22-14.49-.13.11,6.08-.04,12.3.08,18.26ZM134.43,379.82c-.65,3.06-.68,22.92-.93,27.77,2.16-.05,4.43-.13,6.58-.11l.08-27.72c-1.78.09-4.01.31-5.73.06ZM135.63,316.02c-.69,9.62-.17,18.99-.75,28.12l6.02-.15c-.06-9.35.27-18.73.19-28.02l-5.47.06ZM131.65,503.26l6.73.18c-.23-6.15.17-11.4.12-17.35-2.03-.04-4.45-.03-6.44-.15.01,5.7.17,11.66-.41,17.32ZM172.61,251.72c-1.01,2.23-.23,23.13-.12,26.97,1.81.72,3.24.55,5.18.56,1.06-1.25.33-23.74.22-27.29-1.73-.05-3.58-.06-5.28-.23ZM139.18,438.58l-5.64-.49c-.8,2.86-1.09,16.61-.88,19.97,1.01.72,3.57.54,5.04.53l1.13-.19c.81-3.05.42-15.99.35-19.82ZM140.35,375.6c-.21-9.36.32-18.4.21-27.59h-5.54c.02,4.28-1.39,26.06-.16,27.31,2.32.39,3.1.34,5.49.28ZM171.1,486.21c-4.32-.05-9.24.01-13.5-.2-.02,5.77.02,11.74-.1,17.51,3.54-.05,10.68-.36,13.95-.09-.54-4.03-.3-12.77-.35-17.22ZM172.31,247.12l5.29-.18c-.3-9.61-.46-19.23-.49-28.84-1.44-.1-3.66-.19-4.99-.51-.08,9.06-.25,20.48.2,29.53ZM181.09,433.97c.01-7.62-.36-14.43-.53-21.93-1.75-.06-4.47-.05-6.13-.21-.85,3.34-.23,17.92-.28,22.2l6.94-.05ZM171.19,508.02c-4.57-.05-9.12-.07-13.69-.04.02,4.7.27,13.87-.45,18.19,4.81-.04,9.62-.05,14.43-.04-.38-6.14-.32-11.97-.29-18.11ZM141.23,311.45c.02-6.16.71-22.2.18-27.02-1.78-.66-3.18-.48-5.09-.46-.45,8.76-.48,18.19-.51,27,1.21.85,3.8.54,5.41.49ZM175.06,458.88l6.17-.08c1.21-1.85-.19-16.58-.14-20.6l-6.5-.09c.07,6.32-.05,14.63.47,20.77ZM139.43,434.1c.06-7.36.23-14.72.51-22.08-1.97-.09-4.28-.13-6.21-.3-1.21,3.35-.7,17.87-.63,22.03,2.12.15,4.2.34,6.33.36ZM183.06,526.02c-.09-2.59-.22-16.93-1.24-18.15l-.13-.04-6.72.13c.01,2.54-.36,16.96.37,18.04l.61.1c2.29-.02,4.84.02,7.11-.08ZM142.52,217.88c-1.77.1-2.92-.11-4.28.73-.19,8.63-.96,20.42-.92,28.51l.76.55c2.22-.17,2.69.18,4.21-.9.92-6.45.46-21.11.73-28.44l-.49-.45ZM174.1,407.52c1.13,0,5.38.12,6.19-.13l-.21-27.46c-1.77-.02-4.68.05-6.34-.24.18,9.28.3,18.55.36,27.83ZM172.68,283.97c-.17,9.46.34,17.97.4,27.21l5.78-.04c.19-3.17-.11-23.91-.69-26.61-1.82-.85-3.43-.6-5.48-.56ZM142.54,481.64c3.66.16,8.34.51,11.92.4-.62-4.56-.34-14.01-.27-18.84l-11.16-.18c-.02,6.21-.19,12.42-.5,18.62ZM182.84,530.09l-7.8-.05.02,15.01,7.99-.21c.04-4.92.15-9.85-.21-14.74ZM145.62,283.94c-.25,9.08-.65,18.59-.56,27.64l8.98-.46c.58-7.51.16-19.44.09-27.15l-8.51-.03ZM175.13,584c2.47-.13,5.93-.22,8.35-.49.81-4.67.02-10.47,0-15.35l-8.4-.2.05,16.04ZM175.02,486.11v17.5s7.2-.03,7.2-.03l-.13-17.3-7.07-.17ZM174.88,482.1l6.57-.11c1.28-1.48.55-10.44.4-12.67-.16-2.09-.33-4.18-.51-6.26-1.97-.03-4.73.03-6.61-.24.2,6.43.25,12.86.15,19.29ZM173.06,315.65c-.05,9.32-.02,18.65.08,27.97l6.16.02c.24-9.15-.19-18.39-.22-27.57-1.91-.16-4.12-.39-6.02-.43ZM139.2,463.12l-6.86-.06c-.17,4.36-.74,14.4-.02,18.08,1.61,1.04,4.62.94,6.57.93l.31-18.95ZM131.09,563.11c2.28.26,4.07.52,6.38.49.02-4.84.09-9.74-.07-14.57-2.25-.17-3.99-.33-6.22-.7-.15,4.92-.19,9.85-.1,14.78ZM138.13,530.16l-6.66-.28c-.01,4.53-.37,10.27-.23,14.53l6.66.56c.25-5.05.06-9.85.22-14.82ZM175.14,603.08c2.28-.02,6.71.11,8.74-.4-.33-4.8-.28-9.83-.33-14.65l-8.4-.06c-.05,5.04-.05,10.07-.02,15.11ZM137.2,251.59c-.2,9.16-.18,18.23-.49,27.39.92.8,1.97.66,3.33.57.61-.04,1.23-.1,1.84-.16.7-6.74.29-20.38.26-27.38l-4.94-.42ZM143.06,433.9l10.95.2c.55-4.37.2-17.19.16-22.12-3.18-.05-7.17,0-10.28-.17-.76,4.19-.78,17.27-.83,22.09ZM183.07,622.72c.12-5.04.36-10.65.35-15.64l-8.32-.03c.05,3.73.41,12.98.04,16.05,2.27-.08,5.78-.09,7.93-.39ZM171.02,794.06c-4.55.02-9.38.11-13.92.02,0,4.62-.06,9.32,0,13.94,3.2,0,10.62.21,13.47-.07.15-4.55.4-9.36.45-13.89ZM183.09,549l-8.07.07.1,14.98c2.28-.09,6.29-.15,8.41-.52-.26-4.84-.41-9.68-.44-14.53ZM131.55,507.94c-.05,5.86.05,12.39-.54,18.17l6.97-.08c.45-3.95.14-13.73.18-18.19-2.07.03-4.57.14-6.6.1ZM136.98,588l-5.91.03c-.04,4.21-1.03,11.32,1,14.29,1.54,1.04,2.89.73,4.81.67.12-4.99.15-9.99.1-14.99ZM154.16,251.62c-3.11.14-4.97.2-8.1-.01-.02,9.34-.2,18.69-.55,28.02,3.7-.37,5.09-.38,8.82-.15l-.17-27.86ZM157.49,622.97l14.58-.18-.03-15.66c-4.41,0-10.16.16-14.47-.08.02,4.72.23,11.36-.08,15.92ZM136.68,607.03h-5.63c0,3.34-.23,12.91.35,15.71,1.95.59,3.19.15,5.28-.2-.18-5.42-.13-10.12,0-15.52ZM162.82,54.18c5.35-5.76,3.99-10.63-4.53-10.13-2.86,2.35-5.19,6.64-1.89,9.69.99.9,2.31,1.36,3.64,1.27.5-.03,1.79-.49,2.31-.67l.47-.16ZM150.58,91.87c-1.49,2.89-2.69,5.17-.12,7.82,1.29.5,1.26.5,2.63.62,1.61-2.85,2.61-5.21.02-7.9-1.13-.33-1.38-.44-2.54-.54ZM131.08,567.5v16.04s6.02.45,6.02.45c.02-5.32-.04-10.82.12-16.13-2.52.03-3.65.12-6.14-.36ZM172.03,627.07c-4.64-.03-9.87.08-14.45-.11.02,5.28.13,10.89,0,16.14,4.73-.04,9.76,0,14.46-.29l-.02-15.74ZM139.12,789.72c4.62.14,9.75.34,14.35.32,1.07-1.34.67-11.84.66-14.38-3.7-.02-11.75.15-14.89-.73.16,5.15.46,9.65-.12,14.79ZM131.54,627.05c-.15,4.91-1.22,10.54,1.17,14.38,1.38,1.08,2.2,1.11,3.9,1.48-.09-2.47,0-14.13-.34-15.52-2.11-.36-2.58-.38-4.73-.34ZM154.48,889.53c-.11-1.42,0-2.48-.62-3.66l-.43.89c-1.03.52-.56.36-1.39.57l-1.19-2.12.11,4.24c1.01.28,1.97.61,2.94,1.01l.58-.93ZM153.67,870.89c-.61,2.23-1.21,6.92-.04,8.97.52-2.42.89-6.61.04-8.97ZM175.33,643.06l6.51-1.17c1.48-5.42,1.29-9.1,1.26-14.76l-7.67-.11c-.55,5.48-.2,10.57-.09,16.05ZM154.35,607.16c-4.4-.02-9.98.11-14.29-.16l-.04,16.02,14.19-.05c-.05-5.25-.19-10.59.13-15.82ZM180.53,904.93c-.99,2.51.78,4.55-.88,6.98-1.31-.2-.68-.04-1.9-1.57l-.04,1.2-.3,1.3c1.41.04,2.24-.04,3.54-.6,1.49-2.48.9-4.55.49-7.46l-.91.14ZM139.93,132.19c-1.89,3.02-3.12,4.86-.33,7.67.67.18,1.53.43,2.19.56,2.23-3.26,2.26-6.61-1.86-8.23ZM157.49,549.03l.02,15.01h14.03c-.11-4.67-.41-10.31-.31-14.89l-13.74-.12ZM156.08,950.51c.52,2.9.42,6.23,1.4,8.47l1.07.53,1.36-.51c.25-2.53,1.02-5.96-.12-8.01-1.24-.73-2.24-.52-3.71-.48ZM141.1,567.9c-.31,5.47-.64,10.62-.56,16.11l13.61-.19-.05-15.79c-4.06-.02-9.01.09-12.99-.13ZM143.04,458.9l11.12.09.02-20.65c-3.71-.14-7.42-.22-11.14-.25v20.81ZM157.13,830.02l13.4-.02v-17.88s-13.41-.07-13.41-.07v17.97ZM124.42,911.93c1.63.27,4.08.89,5.47.18.72-6.66-.05-21.75.36-30.29,1.05-1.05,1.13-.7,3.07-.85l.64-.83c.22-2.64-.26-5.29-1.39-7.7-3.33-.09-6.65-.16-9.98-.2l-.53.59c-.28,3.07.79,14.86.43,15.95,1.69,6.87-4.27,8.15,2.77,11.11.5,1.56.35.76-.14,2.64-1.25,1.07-1.17,1-2.73,1.51-.96,1.7-.23,5.73.07,7.74l.62.46,1.35-.32ZM154.12,563.84l-.03-14.7-13.03-.14-.05,14.98c4.16,0,9.01.12,13.1-.14ZM154.2,627c-4.42.01-9.81.17-14.15,0v15.82c2.91.14,11.7.5,14.33.04-.42-5.11-.23-10.7-.17-15.85ZM140.13,603.07l14.24-.04c-.31-5.07-.24-9.97-.22-15.04h-14.05c0,4.89-.12,10.23.03,15.08ZM173.11,348.05c.12,9.18.52,18.3.62,27.54,1.97.02,4.46-.03,6.38.14,0-9.95-.34-17.87-.7-27.66l-6.31-.02ZM154.35,213.54c.15-10.05.05-20.1.3-30.14-2.75-.05-4.91-.06-7.65-.46-.64,9.34-.14,20.94-.32,30.58,2.56-.02,5.11-.02,7.67.01ZM141.11,530.11c-.02,4.86-.14,10.08,0,14.9l13.08.03-.04-14.95-13.04.02ZM157.11,775.52l-.02,14.42,13.86-.11c.31-4.67.22-9.51.22-14.2-4.45-.02-9.67.1-14.06-.1ZM157.52,530.11c-.02,4.92.03,10.04-.12,14.93l13.95-.02c-.11-4.92-.13-9.85-.09-14.77-4.43-.03-9.35.04-13.74-.14ZM139.11,794.05l-.02,13.89,14.9.04c0-4.58.05-9.32-.03-13.89l-14.86-.04ZM142.1,486.09c-.05,4.83.11,12.89-.26,17.46l12.13-.05c.51-3.44.17-13.46.13-17.34l-11.99-.07ZM141.72,507.91c-.08,5.38,0,12.93-.42,18.12l13.16.13c-.56-5.47-.35-12.61-.34-18.24-3.74.02-8.75.19-12.4-.01ZM157.51,588.02l.11,15.11c3.86-.03,10.61.12,14.23-.2-.03-4.95-.13-9.9-.3-14.85l-14.04-.06ZM157.55,567.95l-.02,16.01,14.07-.1c-.2-5.47-.18-10.33-.11-15.79-4.16-.02-9.91.14-13.94-.11ZM146.55,217.96c-.02,9.8-.63,19.85-.43,29.52,3.12-.29,5.21-.34,8.32-.34-.39-9.82.04-19.44-.26-29.05l-7.63-.12Z"/><path d="M56.71,503.15c2-.07,3.55-.09,5.15,1.36-2.83.87-4.38.17-7.84,1.71-7.01,3.12-12.48,14.65-14.76,21.64-19.59,60.12,34.5,107.49,23,166.73-5.44,31.39-27.68,54.68-38.68,84.02-21.95,58.52-9.08,117.96,53.87,141.62.96.93.66.59,1.31,1.8l-.42.28c-6.9-1.23-15.94-5.88-21.83-9.42-34.4-20.72-48.41-56.28-44.32-95.46,2.03-19.43,7.49-38.71,16.58-56.19,13.45-25.85,31.67-48.86,32.97-79.32,1.21-35.33-17.76-67.05-25.88-101.01-4.71-19.71-4.7-72.05,20.85-77.76Z"/><path d="M262.58,790.16c10.75-.75,15.09,7.43,13.01,17.65-.79,3.9-3.79,6.52-7.26,8.35-13.59,3.28-19.39-18.22-5.75-25.99ZM258.92,803.1c1.1,4.92,1.24,7.01,6.11,9.32,2.99-1.32,3.91-2.25,6.03-4.74.24-5.52,1.15-12.07-5.7-13.7-3.95,2.25-4.83,3.11-6.04,7.57-.14.52-.27,1.04-.4,1.55Z"/><path d="M269.03,835.07c9.14-.58,12.26,6,11.32,14.57-.55,5.03-2.28,7.45-6.31,10.39-14.93.74-14.76-19.46-5.01-24.96ZM272.52,855.32c4.97-4.65,5.96-15.19-2.48-15.96-4.09,4.25-5.79,16.05,2.48,15.96Z"/><path d="M255.78,877.15c12.05-.68,14.2,15.26,3.07,20.9-8.55-.09-12.14-6.43-9.66-14.59,1.08-3.57,3.33-4.83,6.59-6.31ZM258.35,893.54c2.11-2.17,3.34-3.71,3.33-6.97,0-1.4-.52-2.75-1.47-3.78-1.01-1.1-2.14-1.24-3.51-1.52-2.16,1.65-3.45,3.24-3.78,6.09-.19,1.71.4,3.41,1.61,4.62,1.04,1.03,2.42,1.3,3.81,1.56Z"/><path d="M142.67,880.81c2.05.42,1.49-.11,2.48,1.08-.4,3.67-1,22.07.42,24.6-.6,1.24-.43.6-.27,2-.08,1.42-.05,2.06-.52,3.43l-1.02.34c-1.18-1.67-.07-26.01-1.1-31.46Z"/><path d="M122.49,888.8c3.97-1.01.31-4.9,1.98-7.62,1.44-.43,1.47-.26,2.96.18.08.17.59,27.55.42,29.08l-.64.62-1.46-.25-1.33,1.12-1.35.32-.62-.46c-.3-2.01-1.03-6.04-.07-7.74,1.57-.51,1.48-.44,2.73-1.51.49-1.88.64-1.08.14-2.64-7.04-2.96-1.08-4.24-2.77-11.11Z"/><path d="M165.21,872.27l.19.83c-2.39,2.78-1.38,5.32.77,7.7l-.24.64c-1.01,2.79-1.16,2.99-.54,5.86l.15.71,1.2.34.93.12c-.27,2.33-.18,3.11-1.3,5.09.61,2.73,1.38,5.19,1.14,7.95-.91.75-.77.66-1.85,1.28l.52.4c.75.59.46.35,1.18,1.03l-.06,1.02-1.25,1.04c-1.9,1.2.32,4.01-1.41,6.27h-1.01s-.47-.77-.47-.77c.01-10.53-.84-27.23.63-37.99.57-.59,1.04-1.09,1.43-1.51Z"/><path d="M165.4,873.09l2.18.22c.28,1.14-.22,13.46-.85,15.03l-1.2-.34-.15-.71c-.62-2.87-.47-3.07.54-5.86l.24-.64c-2.14-2.38-3.15-4.92-.77-7.7Z"/><path d="M180.53,904.93l.91-.14c.4,2.91,1,4.98-.49,7.46-1.3.55-2.12.64-3.54.6l.3-1.3.04-1.2c1.21,1.53.59,1.38,1.9,1.57,1.65-2.43-.11-4.47.88-6.98Z"/><path d="M187.31,881.18c1.61,3.02-.82,5.38.82,8.38l-1.76-.57c-1.02-2.24-.58-4.26-.11-6.59l1.05-1.22Z"/><path d="M150.85,885.21l1.19,2.12c.83-.21.36-.05,1.39-.57l.43-.89c.61,1.18.51,2.23.62,3.66l-.58.93c-.97-.4-1.93-.72-2.94-1.01l-.11-4.24Z"/><path d="M153.67,870.89c.86,2.36.49,6.55-.04,8.97-1.18-2.04-.58-6.73.04-8.97Z"/></g></svg>