<?xml version="1.0" encoding="UTF-8"?><svg id="Layer_2" xmlns="http://www.w3.org/2000/svg" viewBox="0 0 440.89 1092.57"><g id="Layer_1-2"><path d="M193.61.12c3.11-.34,7.76.1,11.03.29,2.02,1.29,4.13,3.66,6.02,4.6,10.99,5.46,9.75,10.98,9.93,21.95,21.18,6.94,22.58,26.73,0,33.49-.73,8.38-.24,9.14-6.05,15.39,5.07,6.24,6.61,5.4,14.82,4.9,4.22-.26,8.8-.52,13.05-.72,5.9-19.38,29.77-18.9,34.05-2.16,1.14,4.39.42,9.05-1.99,12.89-7.36,11.77-20.77,7.49-30.14,1.4-8.45.94-14.11.9-22.64.84.31,5.88.46,11.94.68,17.84,6.83.17,14.26-.04,21.15-.11,5.98-5.49,12.54-9.86,21.1-7.81,4.29,1.06,7.95,3.83,10.13,7.66,2.17,3.7,2.71,8.13,1.51,12.25-4.31,14.95-25.01,14.55-32.54.1l-21.33.18,1.28,26.62c.29,6.8,1.54,11-4.02,15.85-2.21,1.92-.74,21.49-.62,25.2l1.43,43.59,4.52,133.25c11.98.71,23.88,2.54,35.52,5.46,36.11,8.87,62.66,26.56,82.1,58.77,16.8,27.82,19.05,59.18,11.05,90.32-2.66,10.33-6.79,20.42-8.9,31.39-1.7,8.83,7.65,18.95,5.68,22.9-5.84,11.64-12.86-1.42-22.58,3.75-9.31,4.95-14.66,13.26-17.68,22.79-7.02,22.16-5.13,53.45,5.18,74.32,8.19,16.6,22.56,27.79,41.59,24.24,4.83-.53,14.55-4.81,19.08-2.8,6.73,2.97-1.29,17.02-1.78,20.89-2.56,20.21,8.09,40.34,15.22,58.7,13.7,35.29,16.6,74.21,2.23,109.77-22.67,56.89-78.78,82.39-136.66,87.28-5.94.55-37.94,1.93-40.97,3.21-1.16,4.39,10.87,15.76-6.84,21.44-.02,24.8.92,61.92-.83,87.36-.16,2.36-4.08,4.15-6.23,5.14-4.21-1.31-6.37-2.53-6.72-7.36-.69-9.49-.32-19.15-.33-28.67l-.19-55.88c-15.69-7.29-9.24-11.51-4.54-21.49l-.3-.64c-.81-1.75-16.48-1.39-19.42-1.5-40.7-1.51-81.12-8.03-114.99-32.4-49.66-35.13-63.32-98.26-47.28-154.41,8.76-30.68,27.88-53.65,14.9-84-.52-1.26.68-6.31,2-6.79,9.42-3.07,19.5,4.1,30.3,2.59,43.59-6.07,52.12-94.73,21.69-119.13-12.42-9.96-14.64,3.02-24.63-3.01-5.89-3.55,2.75-14.12,2.73-19.28,1.51-14.17-5.51-28.32-8.94-42.04-1.92-7.81-3.08-15.78-3.47-23.81-1.61-33.52,8.22-60.5,30.8-85.27,26.82-29.43,65.51-40.09,104.21-41.85l4.23-133.92c.57-20.93,1.26-41.92,1.86-62.86.19-6.66-4.15-8.9-5.62-15.15-.38-1.61-.12-8.7-.06-10.8-7.57.06-14.9-.22-22.53.03-3.27,4.71-6.53,8.62-12.63,9.45-5.92,1.06-16.95-1.19-19.75-7.25-10.17-22.07,21.19-38.85,33.58-14.27h21.49c.58-8.99.23-20.75,1.69-29.2l-20.36-.73c-1.84,2.56-2.8,4.92-5.39,6.97-7.76,6.17-20.27,5.48-26.39-2.69-4.13-5.51-3.44-9.28-2.51-15.69,9.61-13.54,24.29-15.67,33.77-.67,6.68-.12,13.5.34,20.18.68,1.51-5.07,2.08-6.68,6.06-10.27.31-.05,1.2-1.85,1.07-2.06-4.58-7.39-4.71-10.24-5.1-18.81-2.85-.49-6.8-.93-9.31-2.36-10.65-6.05-11.21-20.15-1.3-27.26,3.4-2.44,6.6-2.99,10.63-3.96l-.03-2.37c-.13-16.53,2.67-12.72,14.08-24.33ZM67.09,565.59c13.59,3.79,21.99,9.19,29.09,21.67,12.49,21.94,12.87,54.73,6,78.68-9.04,31.54-28.35,53.65-63.14,49.21,3.8,32.31-8.98,45.55-17.19,74.11-15.39,53.62-6.47,105.43,38.54,140.99,1.1.85,2.19,1.73,3.25,2.64,30.31,19.83,59.19,24.36,95.02,26.82,9.71.67,19.6.41,29.34,1.12.13-25.46,1.54-51.19-1-76.56-.8-8.02-2.21-15.84-4.01-23.69-2.85-12.48-19.89-70.37-10.87-79.63,3.06-3.13,8.88-3.94,13-4.78-.02-25.25.8-53.04.11-77.98-6.98-.02-16.81,1.24-22.42-1.85-11.54-12.32,15.38-16.42,22.29-17.06.12-29,.07-58.01-.16-87.02-5.05-.19-10.75.34-14.5-2.89-1.25-2.12-1.25-5.05-1.18-7.48,1.22-40.5,2.64-81.18,3.95-121.66l1.45-52.94c.22-7.18.29-18.62,1.02-25.5-2.68.11-7.07.13-9.6.39-34.63,3.31-65.44,12.14-88.78,39.94-18.46,21.99-25.4,49.22-22.62,77.53,2.52,25.73,13.08,39.11,12.39,65.93ZM225.23,381.31c3.56,64.65,3.28,130.09,6.83,194.79.17,3.2.85,11.5-.81,13.93-3.7,2.56-8.65,1.95-13.16,1.87.67,28.88,1.06,57.78,1.17,86.67,5.23.45,36.66,3.73,25.12,17.68-3.27,3.95-18.59,1.38-24.73,1.42.49,26.36.41,52.72-.24,79.07,2.73.65,11.17,2.93,11.65,6.11,3.55,23.56-6.32,51.66-12.64,74.78-9.92,36.31-5.73,66.66-6.7,103.09,45.57-1.69,92.12-2.79,130.3-31.49,44.14-36.3,53.45-86.86,35.78-140.23-9.59-28.98-19.91-41.75-17.18-73.86-48.35,6.5-67.38-40.7-67.66-80.83-.21-30.62,6.64-58.21,38.82-68.48-.09-20.38,5.32-31.32,10.24-50.33,17.13-66.27-31.78-123.91-96.84-132.12-5.44-.69-15.04-1.17-19.96-2.07Z"/><path d="M138.42,630.21c22.67-2.85,25.37,24.99,12.85,25.26-5.64-3.33-.09-11.3-5.49-16.68-1.9-.98-3.46-1.21-5.59-.8-18.25,3.5-3.02,76.16-18.36,98.69-3.38,4.97-8.15,8.1-14.1,9.08-6.35,1.05-11.98-.82-17.06-4.55-5.02-6.43-7.45-10.18-5.74-19.17,1.74-9.14,13.78-11.73,18.04-3.58,3.14,6-15.33,6.1-9.72,15.86,3.76,6.52,10.89,8.58,17.94,5.13,16.07-12.89,9.61-44.09,11.23-62.5.35-9.23.47-18.71,2.77-27.72,2.27-8.88,5.33-14.31,13.23-19.01Z"/><path d="M91.95,717.03c2.9.06,3.86-.06,6.54,1.27l.09,1.18c-2.75,2.91-4.73,2.26-7.83,4.72-.53,2-.68,2.58-1.56,4.45l-.75-1.07c.05-5.22-.11-6.57,3.51-10.54Z" fill="#e8e7e7"/><path d="M144.61,634.43c8.08.39,11.35,7.57,9.22,14.82l-.33.06c-2.23-.96-.73-4.78-2-7.3-1.09-2.17-5.09-5.83-6.89-7.58Z" fill="#e8e7e7"/><path d="M252.57,630.2c42.39-4.16,13.89,86.82,32.99,106.51,8.55,8.81,22.95,4.01,23.98-7.95.34-3.99-9.38-4.41-9.59-11.14,3.57-4.82,13.24-5.65,15.52,1.4,2.28,7.08,1.74,10.61-1.14,17.17-3.32,5.2-10.72,10.25-17.04,10.09-35.04-.86-24.84-59.42-27.18-82.4-.93-9.11-1.52-27.93-14.53-27.08-5.68,3.59-1.81,11.37-5.21,17.37-2.28,1.66-1.19,1.24-4.25,1.36-4.42-2.47-5.36-9.38-3.95-13.91,1.87-6.05,5.08-8.41,10.4-11.42Z"/><path d="M251.7,635.4l.19.77c-3,4.82-3.09,13.68-4.68,15.35-3.56-6.38-1.3-12.2,4.49-16.12Z" fill="#e8e7e7"/><path d="M305.71,716.75c5.76.29,8.17,4.91,7.2,10.28-4.1-6.77-8.6-4.24-7.2-10.28Z" fill="#e8e7e7"/><path d="M194.72,140.29c.96-2.06,2.82-2.91,4.93-3.14l2.4.72c1.97.15,2.95-.13,3.85,2.2l1.57.73c2.79,2.66,5.68,5.19,6.35,9.11l-.53,1.3-2.3.38-1.94.95c3.53,1.22,3.35.53,5.14,3.09,1.25,8.38,1.33,34.12,1.61,43.84l2.85,86.64,10.4,301.96c-3.8.16-8.07.49-11.78-.08l-1.95-.16c-4,.64-9.65.84-13.54-.34-1.8-.02-1.69-.33-2.8.55-4.49.28-8.98.29-13.47.34l-1.44-.2c-3.42.22-7.65-.1-11.15-.25-.95-12.75.87-41.82,1.36-55.39l3-94.97,6.47-208.33c.31-10.92.36-68,2.39-74.43,1.7-1.96,4.19-2.24,6.83-2.96.17-.96.12-.5-.63-1.71-2.21.44-3.33.96-5.22.04l-.25-1.68c1.62-3.12,3.4-4.83,5.76-7.41l2.08-.79Z" fill="#f6f5f5"/><path d="M202.05,137.87c1.97.15,2.95-.13,3.85,2.2l1.57.73c2.79,2.66,5.68,5.19,6.35,9.11l-.53,1.3-2.3.38-1.94.95c3.53,1.22,3.35.53,5.14,3.09,1.25,8.38,1.33,34.12,1.61,43.84l2.85,86.64,10.4,301.96c-3.8.16-8.07.49-11.78-.08l-1.95-.16c-4,.64-9.65.84-13.54-.34-.6-85.45-.71-170.9-.33-256.34.68-5.52.41-21.82.45-27.9.18-18.05.21-36.11.08-54.17.23-37.07.26-74.14.07-111.21Z" fill="#f6f5f5"/><path d="M209.05,152.53c3.53,1.22,3.35.53,5.14,3.09,1.25,8.38,1.33,34.12,1.61,43.84l2.85,86.64,10.4,301.96c-3.8.16-8.07.49-11.78-.08-3.94-104.14-4.12-209.11-7.05-313.34-.33-11.59-3.58-119.47-1.17-122.12Z" fill="#f6f5f5"/><path d="M205.9,140.07l1.57.73c2.79,2.66,5.68,5.19,6.35,9.11l-.53,1.3-2.3.38-1.94.95c-2.41,2.65.84,110.53,1.17,122.12,2.93,104.23,3.11,209.2,7.05,313.34l-1.95-.16c-1.49-9.69-.87-36.8-1.23-48.13l-3.02-137.96c-1.69-60.96-2.97-121.94-3.86-182.92-.42-24.93-2.29-54.15-1.3-78.76Z" fill="#121112"/><path d="M207.47,140.8c2.79,2.66,5.68,5.19,6.35,9.11l-.53,1.3-2.3.38-2.49-1.33c-1.45-2.66-1.06-6.33-1.03-9.46Z" fill="#f6f5f5"/><path d="M192.97,151.84c-.94,19.83-.84,40.68-1.25,60.64-1.16,50.62-2.05,101.24-2.69,151.87l-3.22,140.65c-.66,27.2-1.91,56.05-1.74,83.17-3.42.22-7.65-.1-11.15-.25-.95-12.75.87-41.82,1.36-55.39l3-94.97,6.47-208.33c.31-10.92.36-68,2.39-74.43,1.7-1.96,4.19-2.24,6.83-2.96Z" fill="#f6f5f5"/><path d="M199.65,137.15l2.4.72c.19,37.07.16,74.14-.07,111.21.12,18.05.1,36.11-.08,54.17-.04,6.08.23,22.39-.45,27.9-.38,85.45-.26,170.9.33,256.34-1.8-.02-1.69-.33-2.8.55.55-10.39.12-25.17.12-35.94v-67.87s.82-185.82.82-185.82l.23-94.56c.31-15.18.41-30.37.31-45.55-.03-4.92.11-16.87-.82-21.14Z" fill="#121112"/><path d="M201.98,249.08c.12,18.05.1,36.11-.08,54.17-.04,6.08.23,22.39-.45,27.9-.95-11.68-.22-29.03-.44-41.27-.15-8.23-.47-33.61.97-40.8Z" fill="#4c4c4e"/><path d="M192.64,141.08l2.08-.79c-.73,95.25-3.21,192.78-5.38,288.09l-2.13,92.47c-.38,20.85-.34,47.06-1.7,67.54l-1.44-.2c-.18-27.13,1.08-55.97,1.74-83.17l3.22-140.65c.64-50.63,1.53-101.25,2.69-151.87.41-19.95.31-40.81,1.25-60.64.17-.96.12-.5-.63-1.71-2.21.44-3.33.96-5.22.04l-.25-1.68c1.62-3.12,3.4-4.83,5.76-7.41Z" fill="#121112"/><path d="M192.64,141.08c.1,2.25.4,7-.3,9.05-2.21.44-3.33.96-5.22.04l-.25-1.68c1.62-3.12,3.4-4.83,5.76-7.41Z" fill="#f6f5f5"/><path d="M173.79,370.95c1.27,0,.63-.11,1.88.83.04,2.2-.06,3.92-.21,6.12-29.7,1.46-59.33,7.58-83.54,25.81-35.12,26.45-47.45,69.06-38.33,111.19,4.16,19.21,12.72,32.02,9.7,53.18,13.56,3.52,21.4,6.94,28.99,19.49,25.21,41.71,7.24,139.36-58.02,123.25,7.62,28.3-7.15,50.93-15.5,77.39-4.32,13.45-6.76,27.43-7.27,41.56-1.23,32.51,8.63,64.83,31.02,88.91,39.09,42.05,92,43.43,145.41,45.37l.22,9.77c-6.33-.02-12.81-.18-19.15-.28-36.05-2.07-70.09-5.76-102.23-24.46-52.7-30.67-72.48-89.01-59.93-147.33,5.44-28.13,24.33-53.16,22.22-82.61-.37-5.23-6.36-12.14-3.66-16.43,6.98-2.92,20.19,4.99,30.43,2.45,38.83-9.62,44.71-62.87,38.35-95.74-2.35-12.16-8.95-23.54-19.21-30.53-10.94-7.45-11.92.9-21.22-1.57-2.73-.79-2.65-4.39-.11-6.94,4.5-4.52,4.08-11.78,3.41-17.7-3.62-19.82-11.43-35.98-12.88-56.5-2.17-29.78,7.65-59.2,27.28-81.71,26.6-30.55,63.2-40.78,102.35-43.51Z" fill="#f6f5f5"/><path d="M224.66,370.54l16.27,2.1c36.63,5.08,67.92,19.08,90.85,49.1,22.02,28.84,27.67,61.31,19.43,96.42-3.01,12.84-7.71,22.35-9.59,36.15-2.1,15.44,6.63,14.7,5.67,21.54-3.98,3.73-16.76-1.3-22.78,2.45-39.17,24.41-24.95,136.35,32.05,126.59,5.15-.88,13.31-3.98,18.06-2.67.87,1.87-3.21,15.68-3.61,19.14-2.29,19.75,7.85,39.63,15.09,57.89,19.02,47.96,16.07,102.11-18.74,142.14-35.8,41.19-83.41,48.42-134.84,52.13l-20.26.7c.06-3.12-.08-6.65-.13-9.81,8.55-1.06,21.59-1.06,30.9-1.81,32.15-2.57,63.29-6.51,91.14-23.87,49.13-30.61,64.01-84.16,50.47-138.63-8.35-33.58-27.11-54.12-19.13-89.13l-.67.2c-12.1,3.44-25.09,1.81-35.97-4.52-34.3-19.83-41.76-85.17-22.63-117.92,7.8-13.36,15.32-16.75,29.57-20.45-3.2-19.98,6.22-36.73,10.25-55.74,14.66-69.16-36.78-125.67-103.98-132.98-4.85-.53-10.68-1.11-15.5-2.02-1.92-2.33-1.48-3.56-1.93-7Z" fill="#f6f5f5"/><path d="M191.06,41.06c1.07-9.11-2.3-32.4,4.53-37.19,2.68.06,1.72-.09,4.22,1.44l2.09.26c4.24-1.09,4.41,0,7.35,3.01.32,1.75.15,2.99,1.21,3.75,2.59-1.48,1.69-1.5,3.98-.98,4.74,5.36,4.74,55.24-1.12,60.85l-1.82.45c-.88-.79-.92-.6-1.36-1.57-.43-2.29-.37-2.98-1.74-4.75l-1.2.32-.99,2.89.25,4.07.5,5.7.78.54.62-.13c2.98.76,6.7,3.6,9.4,5.41.81,23.08,2.94,53.19,2.45,75.37-3.49-11.57-3.68-15.69-12.84-23.78l-1.69-.52c-2.04-.79-2.21-1.05-3.89-2.52l-1.48-.34-5.5,2.85-1.67.53c-8.82,7.04-6.59,9.01-12.24,17.19l-.88-.13c-2.56-11.19,2.1-50.06,2.28-63.24.05-3.26,2.93-8.34,7.53-7,.44,2.3.73,2.76,2.43,4.36l1.11-5.2c-.49-4.06-1.99-11.8-.49-15.22.91-2.08,3.44-2.36,5.69-3.08l-.31-.95c-1.7-.2-2.66-.22-4.38-.22-1.65-2.07-.86-4.25-.7-7.59l-2.46.22-1.83-.73.31-1.53c2.69-3.86.48-6.88,1.84-12.51Z" fill="#121112"/><path d="M208.36,79.71c2.98.76,6.7,3.6,9.4,5.41.81,23.08,2.94,53.19,2.45,75.37-3.49-11.57-3.68-15.69-12.84-23.78.89-18.26.14-37.99.99-57Z" fill="#f6f5f5"/><path d="M193.14,136.71c-8.82,7.04-6.59,9.01-12.24,17.19l-.88-.13c-2.56-11.19,2.1-50.06,2.28-63.24.05-3.26,2.93-8.34,7.53-7,.44,2.3.73,2.76,2.43,4.36.46,7.63,1.64,20.08.56,27.33-3.84,1.74-3.65.09-6.36,2.82.16,5.2,2.3,5.51,6.61,8.27l.07,10.41Z" fill="#f6f5f5"/><path d="M210.45,12.33c2.59-1.48,1.69-1.5,3.98-.98,4.74,5.36,4.74,55.24-1.12,60.85l-1.82.45c-.88-.79-.92-.6-1.36-1.57.3-12.33.47-24.66.52-36.99.05-5.93.4-16.2-.2-21.75Z" fill="#f6f5f5"/><path d="M191.06,41.06c1.07-9.11-2.3-32.4,4.53-37.19,2.68.06,1.72-.09,4.22,1.44-.06,5,.2,38.05-.84,40.98-2.04,1.93-4.13,2.22-6.82,2.93-1.36-2.19-.76-5.37-1.08-8.16Z" fill="#f6f5f5"/><path d="M198.59,64.38c.53.69,1.03,1.27,1.05,2.25.45,18,.36,36.2.18,54.2,0,.17-.22,1.21-.26,1.42-2.11,1.3-1,1.09-3.46.59-1.7-1.77-1.69-1.87-2.09-4.37,2.14-6.49.37-28.45-.62-35.79-.49-4.06-1.99-11.8-.49-15.22.91-2.08,3.44-2.36,5.69-3.08Z" fill="#f6f5f5"/><path d="M201.89,5.58c4.24-1.09,4.41,0,7.35,3.01-1.55,7.57.41,41.24-2.44,44.14-8.9-6.15-5.69-36.8-4.91-47.14Z" fill="#f6f5f5"/><path d="M206.46,73.61c-.63,6.4,1.09,28.35-3.02,31.22l-1.1-.77c-.64-4.84-1.67-37.29.3-39.97l.96.2c2.71,2.84,2.04,1.44,2.6,5.25l.25,4.07Z" fill="#f6f5f5"/><path d="M193.19,55.62c2.83-1.19,2.49-1.57,5.26-1.08,2.02,2.57,2.21,6.7-.18,8.89-1.7-.2-2.66-.22-4.38-.22-1.65-2.07-.86-4.25-.7-7.59Z" fill="#f6f5f5"/><path d="M194.81,136.18c.06-4.82-.55-7.37,2.63-10.81l1.37.08c1.98,3.09,1.33,3.63,1.5,7.89l-5.5,2.85Z" fill="#f6f5f5"/><path d="M201.8,133.67c.1-3.53-.37-6.55,1.81-9.08,3.15,1.42,2.21,8.48,2.08,11.6-2.04-.79-2.21-1.05-3.89-2.52Z" fill="#f6f5f5"/><path d="M202.13,105.98c1.03.34,1.8.74,2.78,1.2,1.72,3.71.93,10.76.73,15.11-1.49-.32-1.58-.45-2.94-1.19-1.31-4.12-.69-10.54-.56-15.12Z" fill="#f6f5f5"/><path d="M201.95,53.18c5.37,4.49,5.87,5.78,6.03,12.43-1.57-1.22-3.7-3.46-5.8-4.47-1.41-.68-.42-6.09-.23-7.96Z" fill="#f6f5f5"/><path d="M185.24,811.97l1.39.03c1.81,1.81,1.63,3.05,2.35,5.85l1.11.64c1.64-1.9,1.11-2.78.93-5.73,2.14-1.05,6.38-.87,8.55.04.42,3.75.74,6.48,1.53,10.16l1.05.4c2.25-3.63-1.44-6.18,2.33-10.91,2.32-.73,2.6-.74,4.87.13,1.95,1.71,2.03,2.81,2.75,5.34l.26.91.8-1.69-.8,1.18-.06-1.38,1.55-1.03.52-3.76,12.11.24c-12.15,49.49-19.79,63.31-18.6,116.02-.02,12.35.19,24.7.64,37.05-6.75-1.14-10.25-.63-16.89.22.54-39.43,3.29-78.46-7.79-116.65-3.42-11.8-6.09-24.72-8.55-36.79l9.96-.29Z" fill="#f6f5f5"/><path d="M201.71,591.82h13.06s.41,85.4.41,85.4c-1.92.29-10.59-.37-13.02-.51-.81-26.89-.77-57.98-.45-84.89Z" fill="#f6f5f5"/><path d="M202.92,695.48l12.87.63c1.22,25.79.54,54.69.38,80.65-3.24-.75-6.47-1.12-9.77-1.57l-2.09.25c-1.78-1.54-1.26-.6-1.65-2.89,1.83-2.12,4.38-.72,8.93-1.84l.12-.91c-2.06-1.39-5.92-1.16-8.63-1.29.15-24.34.1-48.68-.17-73.02Z" fill="#f6f5f5"/><path d="M188.29,591.86l10.81-.02c-.01,26.45-.77,58.78.56,84.84-3.86.33-7.14.79-10.98,1.37-.39-28.73-.53-57.46-.39-86.19Z" fill="#f6f5f5"/><path d="M188.83,695.8c3.66.65,8.02-.13,11.78-.6l.31,73.26c-2.05.3-4.55.55-5.88,2.09l1.92-.4c2.48,1.16,2.53,1.13,3.45,3.17l-.94,1.17c-3.41,1.39-7.24,1.25-10.95,1.36l.3-80.05Z" fill="#f6f5f5"/><path d="M133.34,124.73c21.25-1.98,24.46,20.13,8.53,26.24-20.39,1.26-27.64-16.93-8.53-26.24Z" fill="#f6f5f5"/><path d="M139.34,84.28c6.91-.06,12.37,2.18,14.36,9.49,1.05,3.86.38,7.98-1.85,11.3-2.48,3.72-5.7,4.77-9.72,5.69-18.49-1.34-23.03-20.52-2.78-26.48Z" fill="#f6f5f5"/><path d="M255.67,69.42c6.73-2.35,14.12,1.01,16.76,7.63,2.64,6.62-.39,14.14-6.89,17.07-4.46,2.01-9.67,1.41-13.56-1.56-3.89-2.97-5.83-7.84-5.06-12.67s4.13-8.85,8.75-10.47Z" fill="#f6f5f5"/><path d="M258.06,105.91c16.6.27,22.71,17.35,5.5,23.77-10.45.94-20.14-4.61-15.59-16.93,1.53-4.13,6.14-5.49,10.09-6.84Z" fill="#f6f5f5"/><path d="M196.17,999.87c2.74,0,5.59-.49,7.7.95.09.64.4,3.22.35,3.72-.48,5.28.6,54.71-1.2,56.57-2.9,1.94-3.07,2.83-5.85.82-1.89-3.44-1.03-54.25-1.01-62.05Z" fill="#f6f5f5"/><path d="M190.74,55.84c.15,2.49-1.45,16.95-2.83,19.25l-1.36-.42c-3.15-4.39-4.77-12.04-3.76-17.15,1.65-8.36-2.39-42.07,3.32-46.14l1.53.55c2.47,3.91,1.58,34.66,1.57,41.65l-.31,1.53,1.83.73Z" fill="#f6f5f5"/><path d="M196.1,982.79c6.62-.43,13.45-.55,17.1,6.23.39,5.41-2.89,6.43-7.52,7.79-6.78.23-15.52.52-19.22-6.65-.14-5.42,5.15-6.72,9.64-7.37Z" fill="#f6f5f5"/><path d="M176.51,30.75c2.27-.13,1.38-.49,2.94.52.42,7.1,2.05,18.34-2.47,23.96-2.63,1.06-2.58.51-5.72-.27-10.36-9.02-6.8-19.53,5.25-24.21Z" fill="#f6f5f5"/><path d="M203.11,784.01c3.51.34,7.56.49,11.12.71l-2.01,23.9c-2.39,1.02-6.34.69-9.1.68l-.02-25.29Z" fill="#f6f5f5"/><path d="M194.93,784.78c1.73-.17,1.88-.07,3.54.22,1.71,3.07,2,22.34-.17,24.41-2.7.04-4.59.29-7.14-.61-1.33-5.59-1.95-16.14-1.92-21.95,1.26-1.76,2.98-1.52,5.7-2.07Z" fill="#f6f5f5"/><path d="M179.39,790.84c2.28-.28,4.81-.67,6.49.6.94,3.96,2.42,13.76.9,17.5l-2.52.29c-2.88.12-5.79.43-8.55-.36-2.6-5.14-2.88-10.51-1.56-16.02,1.81-2.05,2.02-1.51,5.24-2.01Z" fill="#f6f5f5"/><path d="M220.83,31.18c10.88,1.55,16.04,11.61,8.98,20.91-2.68,1.89-4.49,3.81-7.76,2.52-2.57-4.09-1.25-17.45-1.22-23.43Z" fill="#f6f5f5"/><path d="M216.41,790.46c3.39.07,8.6.85,12.1,1.25-.17,5.95-.81,11.87-1.91,17.71l-12.03-.08c.85-6.62,1.41-12.22,1.84-18.88Z" fill="#f6f5f5"/><path d="M202.37,679.98l13.15.49c.05,2.92.64,9.97-.65,12.16l-1.9.11c-2.21-.03-8.73.13-10.31-.68,1.48-1.17,2.78-2.01,4.35-3.05-1.39-4.15-4.37,2.74-4.65-9.02Z" fill="#f6f5f5"/><path d="M188.96,680.53l11.46-.47.02,11.18-.91.62c-2.89-.34-7.78,1.03-10.84,1.7-.11-4.75-.02-8.29.27-13.03Z" fill="#f6f5f5"/><path d="M222.41,84.5c4.38-.26,15.62-1.39,19.14.37.44,1.98.39,1.96.2,4.01l-1.3.55c-5.04.19-13.5.89-18.2-.46-.63-.18-.94-1.35-1.32-2.16.41-1.5.31-1.01,1.48-2.31Z" fill="#f6f5f5"/><path d="M154.14,136.67c7.36.2,13.63-.99,20.71.56,1.78,1.7,1.22,1.09,1.5,4.27-6.49.37-14.53,1.34-20.65-.26-1.94-1.73-1.33-1.06-1.56-4.56Z" fill="#f6f5f5"/><path d="M222.6,113.92c4.91.18,16.12-1.57,19.24,1.67l-.17,3.79c-6.59-.22-11.47,1.19-17.62-.53-1.92-1.94-1.31-1.32-1.45-4.94Z" fill="#f6f5f5"/><path d="M159.15,94.6c4.72.04,14.11-.8,18.05,1.48.93.53.8,2.3.99,3.76-4.38.02-15.12,1.26-18.34-1.29-.89-.7-.62-2.44-.7-3.94Z" fill="#f6f5f5"/><path d="M196.22,1075.01l7.69.28c-.23,5.27-.1,8.52-1.61,13.64-8.03.23-6.31-8.37-6.08-13.92Z" fill="#f6f5f5"/><path d="M218.52,690.23c3.41-.04,22.04.53,24.28,1.65l.13,1.14c-4.61,3.12-17.12,2.23-22.42.5-1.5-.5-1.55-1.93-1.99-3.29Z" fill="#f6f5f5"/><path d="M218.93,681.61c8.93,1.6,14.25,2.31,22.69,6.02-7.47.24-14.17,1.67-21.08-.52-1.9-2.02-1.34-2.25-1.61-5.5Z" fill="#f6f5f5"/><path d="M182.26,780.05l1.98.13c4.86,6.94-1.97,7.67-6.75,8.01-2.18.22-2.33.32-4.23-.59-1.24-4.6,5.73-6.55,9.01-7.56Z" fill="#f6f5f5"/><path d="M195.71,975.4c5.15-.18,8.34-.73,13.21.82,1.33,1.79,1.16.86.88,2.79-1.22.89-1.2.58-3.04.61-3.87-.11-13.92,1.64-15.32-2.1l.87-1.43,3.4-.69Z" fill="#f6f5f5"/><path d="M178.07,690.56c3.32-.43,5.52-.95,8.18,1-2.4,3.79-11.8,3.25-15.87,3.25-1.97-.04-4.25-.82-5-2.72,3-1.29,9.17-1.31,12.69-1.52Z" fill="#f6f5f5"/><path d="M201.1,967.95c3.33-.01,5.08-.33,7.45,1.68l-.51,1.37c-2.67,1.69-5.07,1.16-8.34,1-3.43.33-5.26,1.02-7.84-.99l.46-1.25c2.37-2.07,5.58-1.72,8.79-1.81Z" fill="#f6f5f5"/><path d="M218.15,780.54c6.42,1.15,9.61.92,10.67,8.11-3.82-.54-8.09.07-10.77-1.74-1.07-2.66-.44-3.17.1-6.37Z" fill="#f6f5f5"/><path d="M182.56,682.88c2.1-.22,1.1-.37,3.08.61l-.26,1.81c-3.23,3.11-11.28,2.62-15.75,2.64-1.73.02-1.05.34-2.25-.54,3.35-2.6,10.98-3.91,15.18-4.52Z" fill="#f6f5f5"/><path d="M196.12,1065.09c2.38-.03,5.44-.4,7.38.68-.06,4.25-.75,1.96-.73,4.55l.59.53-.49.8c-3.72.7-2.64,1-5.53-.12-1.78-2.57-1.18-2.85-1.23-6.45Z" fill="#f6f5f5"/><path d="M198.41,778.25c.69.19.62.38,1.28,1.1l-.3,1.48c-2.59,1.54-6.06,1.69-9.16,2.11-1.2-.08-.62.09-1.63-.87l.11-1.93c2.45-1.46,6.7-1.58,9.71-1.9Z" fill="#f6f5f5"/><path d="M202.8,778.12c4.86.11,10.46-.93,12.12,4.14-5.1-.81-11.52,1.26-12.12-4.14Z" fill="#f6f5f5"/><path d="M335.63,168.21c2.82.03,3.68-.12,6.08,1.28,2.56,2.91,2.9,7.42,3.73,11.42,4.84,1.76,14.79,2.58,16.08,8.74,1.34,6.38,1.71,13.42,2.33,19.95,1.03,10.62,2.13,21.24,3.33,31.85,5.37,45.01,10.43,90.05,15.18,135.13,13.99,114.28,29.38,228.39,46.15,342.31l8.55,65.83c1.05,8.04,3.1,16.06,3.76,24.11.68,8.24-3.81,9.62-10.44,10.61-9.54-3.38-8.7-30.65-9.9-40.5-9.32,1.45-19.09,4.63-20.78-8.12-4.63-34.93-9.01-69.99-12.7-105.05-.35-3.37,1.54-4.97,3.69-7.17-.17-8.85-3-27.62-4.18-37.11-3.01-24.87-6.19-49.72-9.54-74.55l-31.6-259.26c-2.56-22.15-5.24-44.29-8.03-66.41-1.99-14.68-4.55-29.75-5.73-44.48-.34-4.17,1.34-5.73,4.03-8.59Z"/><path d="M338.09,201.96c2.68-.68,9.24-1.1,12.13-1.34,9.69,83.39,17.63,166.53,27.98,250.08l36.25,274.54c-2.19,2.41-5.29,2.84-8.05,1.12-2.9-4.28-6.38-37.07-7.75-44.65-8.03-44.36-12.47-89.58-18.15-134.32l-42.43-345.43Z" fill="#f6f5f5"/><path d="M336.05,172.31c2.16-.07,2.13-.19,3.93.89,1.7,2.5,2.2,7.5,2.91,10.87,4.53,1.08,14.99,2.63,15.74,7.94,2.02,14.45,2.93,29.32,4.64,43.85l15.76,142.02c7.86,67.13,16.64,134.15,26.34,201.04,5.36,35.81,10.37,71.65,15.05,107.56-11.43,1.39-8.37-2.82-9.84-14.05-3.89-29.57-8.25-59.12-12.15-88.68-12.47-93.1-23.83-186.35-34.08-279.72-1.34-13.13-9.35-100.69-12.87-106.11-3.76-1.67-10.08,3.1-13.81-.68-1.31-5-3.48-20.09-1.61-24.93Z" fill="#f6f5f5"/><path d="M398.1,708.83c3.29,2.49,4.88,25.68,5.65,31.25,4.3.13,8.19-.26,12.44-.61,1.4,9.21,4.04,24.11,4.07,33.77-.5.78-.93,1.45-1.28,1.99-.48.11-.96.2-1.44.3-4.57.89-9.17,2.39-13.04-.24-3.1-9.48-7.46-51.86-9.03-63.94-.12-.89,1.58-1.74,2.64-2.51Z" fill="#f6f5f5"/><path d="M425.05,717.95c1.16,8.17,7.76,53.99,7.14,58.83l-1.29.94c-2.53.08-4.29.48-6.3-.88-.95-2.74-1.24-5.1-1.59-7.94-2.03-16.47-3.4-33.17-5.99-49.56,2.6-.33,5.58-.58,8.03-1.39Z" fill="#f6f5f5"/><path d="M426.02,798.57l9.3-.8c1.03,4.95,1.98,10.93,1.85,15.95-2.74,1.65-4.25,2.49-7.35,1.3-3.7-3.42-3.38-11.16-3.81-16.45Z" fill="#f6f5f5"/><path d="M390.39,662.8c.84.35,1.94.78,2.11,1.75,1.04,5.72,5.8,27.3,3.84,31.48l-2.17-.93c-2.5-3.86-4.62-26.91-3.78-32.31Z" fill="#f6f5f5"/><path d="M424.06,781.15c2.16.08,6.3-.28,8.64-.42l1.36,9.59c-2.74.38-5.73,1.22-8.05.09-1.7-2.04-1.68-6.38-1.94-9.26Z" fill="#f6f5f5"/><path d="M407.29,730.28c4.76-1.18,5.27-2.05,8.62,1.71.45,2.69.57,1.56-.8,4.31-2.8,1.7-3.08,1.1-6.9,1.11-2.03.24-2.63-.55-3.28-2.15,2.67-2.7,4.82-.29,7.45-2.52-2.23-2-1.52.53-5.09-2.45Z" fill="#f6f5f5"/><path d="M413.59,693.46l-.19-2.33c1.73-1.7.96-1.19,3.69-1.63,2.75.86,4.64,2.29,5.36,5.17-.83,2.35-.24,1.52-2.31,3l-4.38-.07c-1.08-.69-1.59-2.71-2.17-4.14Z" fill="#f6f5f5"/><path d="M420.19,698.58c1.34.48,1.27.61,2.21,1.73,1.08,4.02,2.46,11.14.98,15.07-.64-.38-1.38-1.04-1.98-1.52-1.18-4.01-2.99-11.5-1.2-15.29Z" fill="#f6f5f5"/><path d="M413.59,693.46c.58,1.43,1.09,3.45,2.17,4.14.78,4.36,3.27,16.27,2.31,19.84,2.02,1.23,4.12.26,6.98.51-2.45.82-5.43,1.06-8.03,1.39-1.38-8.4-2.37-17.39-3.43-25.88Z" fill="#e8e7e7"/><path d="M393.71,698.08c2-.07,1.95-.11,3.84.47,1.94,2.4,1.84,5.77,2.2,9.03-1.14-.04-2.36-.14-3.5-.22-2.31-2.52-2.11-5.63-2.54-9.28Z" fill="#f6f5f5"/></g></svg>