<?xml version="1.0" encoding="UTF-8"?><svg id="Layer_2" xmlns="http://www.w3.org/2000/svg" xmlns:xlink="http://www.w3.org/1999/xlink" viewBox="0 0 1113.02 791.56"><defs><linearGradient id="linear-gradient" x1="1166.65" y1="508.98" x2="1083.64" y2="532.26" gradientTransform="translate(45.02 616.18) scale(.75 -.75)" gradientUnits="userSpaceOnUse"><stop offset="0" stop-color="#d7d8d0"/><stop offset="1" stop-color="#e1dee6"/></linearGradient><linearGradient id="linear-gradient-2" x1="344.44" y1="384.71" x2="341.52" y2="358.75" gradientTransform="translate(45.02 616.18) scale(.75 -.75)" gradientUnits="userSpaceOnUse"><stop offset="0" stop-color="#2a292a"/><stop offset="1" stop-color="#000"/></linearGradient><linearGradient id="linear-gradient-3" x1="242.25" y1="123.82" x2="237.84" y2="113.8" gradientTransform="translate(45.02 616.18) scale(.75 -.75)" gradientUnits="userSpaceOnUse"><stop offset="0" stop-color="#fcfbfc"/><stop offset="1" stop-color="#c9c7c6"/></linearGradient><linearGradient id="linear-gradient-4" x1="387.35" y1="-92.64" x2="415.7" y2="-93.71" gradientTransform="translate(45.02 616.18) scale(.75 -.75)" gradientUnits="userSpaceOnUse"><stop offset="0" stop-color="#e2dedf"/><stop offset="1" stop-color="#b2b3b4"/></linearGradient><linearGradient id="linear-gradient-5" x1="558.04" y1="558.71" x2="547.82" y2="557.57" gradientTransform="translate(45.02 616.18) scale(.75 -.75)" gradientUnits="userSpaceOnUse"><stop offset="0" stop-color="#333230"/><stop offset="1" stop-color="#0c0d0f"/></linearGradient></defs><g id="Layer_1-2"><path d="M1085.06,673.31c-33.32-47.2-64.48-95.84-98.54-142.54-1.45-1.99-4.67-3.99-6.76-5.31-1.68-29.19.66-60.92-.43-90.38-.06-1.74,18.5-10.73-.34-23.78-.1-42.21.8-85.18,1.3-127.46,7.77-9.06,6.67-10.7,5.79-22.69,1.19-1.07,12.37-1.95,14.67-2.31,18.34-2.83,40.43-5.25,57.67-12.1,8.14-2.64,14.52-4.42,21.65-9.35.27-.12.55-.21.8-.35,1.94-1.06,3.79-3.65,4.19-5.81.27-1.44.02-2.53-.95-3.64-4.76-5.47-52.16-11.57-62.39-13.28-5.08-.85-34.82-6.97-36.55-10.12-1.73-3.16-.08-7.05-2.64-10.32-2.65-3.41-7.43-3.79-11.39-4.21-.35-8.59-.46-53.64-2.42-57.64l-.97.34c-1.66,4.82-.59,49.28-.58,57.51l-1.84,1.59c-6.12,5.21-5.36,7.33-4.11,14.73-9.33,3.34-23.75,7.73-33.25,10.01-12.4,2.97-20.04,3.17-32.35,7.81-.83-36.55-1.38-73.1-1.66-109.65-.03-6.46,4.46-8.81,3.82-13.11-1.57-10.5-7.27-5.54-8.24-17.72l.17-4c1.81-1.36,18.1-4.4,21.9-5.58,19.91-6.13,115.24-37.79,117.98-58.25.21-1.59-.04-3.28-1.06-4.57-3.73-4.74-14.61-4.75-20.23-5.08-28.45-1.67-58.7,3.76-86.55,9.59-5.98,1.25-29.31,8.28-33.61,7.25-5.23-1.26-15.08-4.66-18.01-9.47-2.87-4.72-1.33-9.9-6.41-13.43-11.23,1.43-.62,15.41-3.32,19.22-5.1,7.18-11.97-1.24-13.36,11.24l2.23,1.13c-7.53,4.61-25.27,8.26-34.51,11.45-17.9,6.18-76.54,31.19-81.74,48.56-.54,1.82-.32,3.56.7,5.13,2.06,3.2,7.35,4.38,10.88,4.94,30.9,4.95,99.22-12.05,130.59-20.77.94,12.08-3.73,12.8-3.11,23.43l.46.76c5.8,9.33,9.14,4.29,9.64,16.72-.6,22.72,1.27,47.25.84,70.17-.14,7.53.74,20.52-.46,27.41-5.15.85-14.91,1.27-17.51,5.88-8.22,14.64,11.57,15.2,17.8,16.72.04,32.03-.28,65.43.65,97.35-7.84,2.06-11.05,4.13-10.36,12.98-3.38.54-36.94-1.73-40.46-2.4-6.75-1.28-57.98,1.01-60.47.79,3.07-.88,10.72-3.29,11.81-3.66,16.4-5.26,44.65-13.86,36.49-37.68-1.34-3.92-5.57-8.97-6.12-12.98-1.06-7.77-2.17-15.48-3.34-23.23-2.44-16.05-5.02-32.07-7.75-48.07-1.21-10.26-3.6-20.07-5.01-30.25-.29-2.1,2.59-6.93,2.27-9.93-.43-3.87-3.69-9.51-6.72-11.86-18.86-14.66-61.35-13.3-84.31-11.36-34.26,2.9-84.29,12.22-109.22,38.25-9.32,9.72-4.12,27.28-2.99,40.21-1.05,1.71-3.79,6.14-3.61,7.91,1.56,15.86,2.76,30.61,2.66,46.62-13.16,8.33-13.76,19.36.61,26.72-1.09,11.1-.86,47.68.05,58.55-11.7-.88-23.13-2.61-34.88-2.71.23-18.26-.81-37.05-.1-55.27,8.88-7.12,10.42-9.9,7.03-20.91-3.22-3.17-3.89-3.86-7.89-5.82-.18-16.28-.22-32.55-.11-48.83.06-12.55-1.02-14.73,3.38-26.6,7.24-25.51-24.41-37.8-41.17-45.27-30.99-13.81-157.75-27.68-172.17,13.48l3.02,7.69c-1.1,4.16-1.72,7.39-2.47,11.64-.28,1.24-.54,2.13-.65,3.41-2.9,16.74-5.43,34.33-7.69,51.22-1.24,9.31-4.24,26.71-4.45,35.62-5.37,5.97-7.25,6.99-8.4,15.02-21.45-2.09-66.65-2.86-88.34.33-6.47.18-20.35,1.55-26.04,4.14-5.91-.05-14.65,4.36-18.59,8.83-.73,5.41-1.72,9.08-3.09,14.31,1.51,4.02,2.94,6.38,5.09,10.14-1.73,6.97-5.67,23.39,2.77,27.52,2.91-.7,2.81-1.34,5.14-3.65.67,2.42-3.5,110.21-4.16,122.93-1.55.41-5.77,1.59-6.76,2.62-5.19,5.47-5.93,18.09-.59,23.66,3.31,3.46,5.41,5.93,8.16,9.52-.05,18.91,1.26,43.84.6,61.59-8.91-13.93-19.5-27.05-27.94-41.28-3.44-5.8-4.34-4.29-8.92-8.32-.9-5.28-.62-16.17-.63-21.92l-.07-37.36c-.1-34.6-1.17-68.97-1.17-103.75,9.51-6.91,9.38-15.35,1.27-23.09l.76-91.46c.08-12.03-.57-29.21.65-40.86,1.25-11.95,13.55-12.33,9.69-30.05,20.47-21.61,41.26-42.92,62.37-63.9,6.65-.83,12.3-.55,16.48-5.75-4.63-.42-2.59,1.45-7.05,2.35.05-3.18,1.65-1.29,1.26-4.9-2.31,2.78-3.26,3.6-6.72,3.2-2.31-1.57-2.37-2.39-3.42-5.06-.63,1.27-1.09,1.73-1.07,3.03-.89-1.45-1.94-2.02-3.32-3.01l.97-.48-1.67-1.07v-2.02c-17.42,13.79-35.04,35.45-50.97,51.59-5.47,5.54-13.34,15.13-19.37,19.48-13.51-4.74-19.55-1.5-24.26,11.75l1.61,7.99c-26.16,26.96-53.09,53.23-78.56,80.87-2.9,3.14-6.21,9.11-2.62,12.72,9.19,2.25,25.33-17.15,31.46-23.28l40.76-41.02c4.66-4.71,13.35-14.26,18.83-16.86l1.05.39c2.24,7.32.72,18.38.72,26.19,0,25.29.28,50.59.23,75.88-.02,10.74.44,22.31-.26,32.95-15.19,5.46-15.4,15.91-2.35,24.33.97,6.34.68,15.66.69,22.29l.09,35.4c.32,32.05,1.73,64.23,1.65,96.32,0,1.87.01,6.21-1.04,7.97-25.74,28.27-47.44,60.2-73.79,87.94-2.73,2.88-5.29,11.2-8.18,14.53-8.89,10.65-18.28,21.34-27.43,31.74-8.27,9.41-16.6,18.78-24.99,28.07-6.13,6.68-23.98,21.88-18.29,31.19,8.68,5.83,18.87-1.72,23.49-9.35,2.23-3.68,6.94-13.8,9.26-16.26,18.07-19.17,36.39-43.53,55.39-61.41,6.76,5.69,14.83,11.67,22.14,16.73,14.83,10.26,29.99,22.76,45.43,31.85,8.17-5.42,16.22-11.79,23.97-17.84,10.52-8.21,35.01-24.26,42.97-33.4,9.06,14.63,18.4,29.08,28.01,43.35,5.87,8.75,12.46,17.66,17.37,26.92,3.12,5.87,4.07,13.88,7.08,20.07,8.08,6.74,18.09,5.87,17.56-6.5-.17-3.86-5.78-15.23-8.32-18.72-22.29-30.7-42.26-62.91-63.72-94.2-3.13-4.57-6.35-9.14-8.8-14.12-2.91-23.12-1.38-46.76-2.99-70,22.39,14.12,80.18,13.36,107.46,12.46,1.65,29.94-2.69,63.45-2.17,93.78.15,8.83-9.8,33.72,2.86,38.09,9.49-1.05,8.4-15.88,7.81-22.29-1.93-21.03-.35-42.2.03-63.29.27-15.12-.26-31.1.6-46.11,9.64-1.2,17.32-2.23,27.09-2.54-4.17,28.95-6.47,68.18,5.06,95.75-7.07,4.65-21.3,20.49-16.96,29.21l2.77.36c-.85,4.15-14.66,40.43-16.2,40.87-17.84,4.56-7.76,12.17-7.95,22.45-.19,10.1-29.74,43.18-9.35,50.88,11.25,4.25,17.97-33.27,20.49-39.99,4.04-10.77,16.92-11.76,11.8-25.75,3.73-9.95,18.82-50.82,24.13-57.22,2.2.4,12.14,22.9,14.74,27.12,11.47,18.75,26.23,35.29,43.56,48.81,6.32,4.86,13.12,9.17,19.4,13.98,5.82,4.46,9.16,12.51,17.23,14.28,2.21.49,3.67-1.07,6.3-1.49,46.83,16.68,82.63,19.01,129.78,6.5.86-.23,2.72,1.4,3.34,2.08,2.09.35,2.87.59,4.93.32,2.59-1.56,6.2-4.49,8.7-6.41,44.38-12.03,80.11-53.59,105.51-89.43.82-.71,3.8-4.73,4.68-5.87,3.95-5.12,7.95-9.33,12.67-13.74.65,3.74,1.18,6.02,2.22,9.68,1.1,3.94,2.17,7.97,3.47,11.85-7.47,10.56-28.85,27.58-28.61,35.36.91,2.36,1.02,2.79,2.98,4.36,9.34,3.29,24.26-18.84,29.48-25.21,1.87,6.81,5.14,22.54,7.31,27.58-1.86,3.92-2.83,5.98-4.05,10.1,2.65,5.09,3.37,6.29,6.9,10.66-49.1,27.45-7.93,50.01,6.77,25.25l.07,2.66c1.42,10.84,9.67,24.45,20.81,21.66,15.03-3.77.25-27.96-4.84-33.56-3.93-4.32-5.93-10.21-6.82-14.65,8.48-7.67,9.99-9.71,6.19-21.01,7.24-7.59,24.71-33.64,31.27-43.41,9.29,1.73,31.27,8.42,38.9,13.45-1.67,5.78-8.95,19.47-7.69,22.83,7.9,21.02,19.15-6.96,21.11-11.85,6.61,4.38,20.31,18.36,27.39,19.14,11.27,1.23,56.77-50.16,66.34-58.32,12.28,19.59,27.59,38.18,40.72,57.18,8.56,12.39,16.88,21.48,22.48,35.64,2.71,6.86,12.98,17.6,20.66,11.68,4.12-3.18,4.4-8.51,1.57-13.13-23.93-31.51-46.54-63.91-69.84-95.84,2.74-6.11,3.14-7.14,2.26-13.71,7.73-2.96,50.09-23.08,53.45-26.66,11.12,13.75,20.75,28.9,31,43.32,10.31,14.5,21.85,27.29,27.91,43.98,1.62,4.46,12.2,13.42,17.15,11.55,3.89-1.48,5.89-5.06,8.23-8.58-6.97-13.53-19.12-23.41-27.96-35.92ZM151.55,678.9c-9.44-4.16-21.9-13.29-30.74-19.32-5.67-4.21-11.82-7.18-17.54-11.29-8.72-6.27-.98-4.02-2.77-13.97l-.18-.97c16.29-19.47,39.2-46.65,53.85-67.14,2.93,3.63-.67,103.64-2.62,112.68ZM812.76,526.78c8.85-10.47,9.05-13.64,5.23-27.08,13.8-3.49,24.11-11.54,36.54-17.81,8.12-4.1,20.44-6.16,27.41-11.94.72,28.99,1.91,62.56.91,91.44-3.02.88-6.59,2.01-9.59,2.74-3.69,13.44-29.77,43.3-38.93,55.89-.52.71-1.86.2-2.67.06-1.82-3.21-2.23-4.04-4.85-6.71-5.17-.06-9.73-6.02-12.8-9.73-2.21-2.66-1.84-4.65-1.85-8.02.24-22,1.02-47.11.61-68.84ZM846.97,397.02c9.9-2.54,24.17-2.8,33.53-5.91l.19.15c1.6,3.26,1.28,49.62,1.16,56.56-6.18,5.39-24.78,16.7-32.89,14.9-2.3-13.61,1.53-24.43.98-36.94-.47-10.71-3.54-16.29-2.98-28.76ZM834.67,397.18c1.09,1.1,1.42,5.32,1.7,7.12-4.58,18.79-3.48,21.53-1.7,39.99.6,6.91.61,13.87.04,20.78-3.4-.55-13.19,1.46-17.58,1.5-17.18.17-36.5-.73-52.97-5.61-.05-4.19-.25-10.03.34-14.07.86-5.79,3.33-12.87,3.4-18.68v-.59c.1-9.65-3.88-16.19-3.34-28.54,25.11-.61,44.35-.38,70.1-1.91ZM811.47,318.81c3.46,8.83-10.26,14.39-16.61,17.37-8.27,2.95-26.29,8.61-34.94,10.03-12.5,2.06-24.99,4.26-37.59,5.61-16.83,1.8-89.7,5.07-101.86-5.62-1.43-1.26-2.04-2.5-2.11-4.4-.06-1.58.49-2.86,1.6-3.99,2.36-2.41,5.84-4.1,8.73-5.79,28.25-16.6,70.94-21.63,103.27-22.26,14.45-.28,70.11-.02,79.51,9.05ZM751.23,445.83c.16,5.25-.13,9.52.27,14.89-5.39,2.34-6.58,3.68-10.66,7.82-15.01-18.38-22.72-28.03-39.49-45.22-1.19-8.88-.98-22.26-1.07-31.54,8.32,2,16.75,3.43,25.26,4.27,7.91.72,19.3,1.19,26.78,2.61,4.09,6.14-3.77,19.84-3.91,26.34-.38,6.83,2.6,14.1,2.81,20.82ZM693.42,390.14c-5.44,8.74-6.94,12.27-6.4,22.61-14.87-11.19-31.15-21.11-49.11-20.08-2.72.16-22.18-10.3-22.78-11.66-1.81-3.99-1.75-23.85-1.89-29.26,19.55,8.76,49.74,10.16,71.08,9h.38c3.15.08,6.28.24,9.43,0,8.64.26,16.47-1.36,25.08-1.66-4.06,1.11-9.29,2.38-13.17,3.77-8.75,1.34-10.89,3.08-18.23,7.77-5.2,9.18-1.66,13.67,5.62,19.52ZM680.94,186.38l.06,9.55c-.12,7.36-1.92,27.29,8.77,28.58,11.36-3.41,3.5-23.23-.38-29.86-.61-3.57-.73-5.51-2.57-8.64,11.3-7.13,75.39-5.28,90.23-2.45-1.13,5.77-.29,16.76-.03,23.05,1.01,5.48,1.45,10.34,7.79,11.73,9.85-2.96,2.29-20.83,2.63-28.45l.74.09c5.84,9.02,18.33,92.7,19.36,106.09-2.87.43-5.57-1.14-8.27-2.33-4.2-10.32,1.99-20.55-2.54-31.39-.67-4.51-7.57-6.7-9.9-2.46-4.5,8.18,2.9,23.76,4.1,33.22-24.54-6.04-63.43-2.73-88.97-1.74-1.02-4.38,1.57-39.7-13.07-28.71-7.81,5.87,2.92,14.42,3.08,20.05-2.84,3.5-2.12,8.55-3.87,10.56-16.79,1.47-42.77,8.96-58.74,15.03-4.04,1.54-7.27,4.15-11.1,5.85,1.78-6.57,1.36-6.24-.6-13.11-2.13-1.53-3.63-2.97-5.55-4.73-.21-4.99-1.27-19.48.2-23.64l1.1.46-.3,1.5c1.32.57,7.39-1.81,11.36-1.93,10.86-.33,22.21-12.78,20.48-23.48-3.03-18.65-17.66-18.87-32.63-16.92l-2.6-17.4c15.3-18.46,48.46-24.99,71.2-28.51ZM362.14,195.62c.85,6.05-1.71,16.08-3.09,22.2,2.89,3.78,6.67,8.43,11.86,7.72,5.24-3.62,4.07-17.23,3.51-22.83-.43-4.34,2.63-12.54,3.88-17.23,14.06-3.65,68.12-6.48,80.43-3.39l-.37,3.35c-2.15,4.56-3.72,12.74-4.12,17.74-4.3,21.08,16.16,23.16,15.9,2.59.17-4.23-.2-7.12-.65-11.36-1.25-2.23-3.94-8.65.26-9.69,14.75-3.62,74.76,12.76,78.13,28.74-2.23,4.51-3.31,3.29-2.85,9.54.22,3.03.23,7.09.35,10.23-3.13.23-4.06.7-6.89,1.8-13.95-6.72-15.88-7.12-29,1.56-4.02,7.16-6.08,13.57-3.63,21.85,1.65,5.77,5.58,10.62,10.88,13.44,7.94,4.2,20.67,2.12,26.36-4.55.52,8.8.16,20.44.14,29.45-7.51,6.91-6.1,14.31-1.05,21.9-25.59-14.58-57.14-23.53-86.41-26.99-.13-3.37-.36-6,.55-9.46,1.48-5.62,5.96-20.11-2.06-22.88-6.2-2.14-9.39,9.52-10.46,13.9l3.57,7.1c-1.08,3.22-1.85,7.05-2.61,10.41-20.74-1.86-40.82-2.82-61.57-.8-5.71.56-12.68,1.65-18.29,1.27,1.04-3.86,7.05-26.34-8.02-24.74-3.24.35-5.5,11.84-5.57,14.92-.08,3.62,1.13,11.22-3.37,13.88l-1.23-1.04c-2.23-6.91,10.3-95.3,15.42-98.64ZM538.8,390.4c-16.9,1.33-44.03,2.09-59.18,8.68-20.16,8.77-42,21.57-59.06,35.28,2.17-15.95,3.51-32.86,8.99-48.24.92-2.57-3.02-10.63-2.25-17,0-1.55-.17-1.85.74-3.08,3.79-1.1,4.94-.02,8.42.11,29.36,1.14,79.34,4.36,103.53-14.86l4.74-5.23c.75,9.61.5,20.78.5,30.54-7.27,2.59-9.64,6.08-6.43,13.81ZM366.74,311.75c40.46-5.37,143.57-2.51,169.91,32.2-2.29,1.89-4.71,4.06-7.29,5.49-26.8,15.15-97.53,11.12-127.18,4.02-12.49-3.67-25.89-7.37-38.25-11.27-3.81-1.2-14.4-7.54-19.15-9.47l-.45-.18c-24.85-17.44,10.23-19.17,22.4-20.79ZM329.3,318.49c-.29,9.21.42,13.42,8.73,18.42l1.76,1.46v1.1c-5.48,3.37-59.46.5-69.87.01-17.47-.82-40.18-4.16-56.79-9.75-2.5-1.29-2.37-.75-3.69-2.79,7.03-9.96,104.06-9.76,119.86-8.44ZM216.71,634.05c1.15,1.67.82,4.77-.78,6.06-4.68,3.75-4.61,6.31-9.53,9.7,0,.01-3.11,2.2-3.12,2.21-4.27,5.33-10.33,8.32-15.93,12.23-.08.06-.16.12-.24.18-4.04,4.53-8.96,8.12-14.02,11.69-2.86,2.02-7.14-.49-7.58-3.69.29-6,.63-11.99,1.27-17.8.57-9.25.2-19.03.53-28.2.69-19.54.74-38.94.75-58.49,4.39,5.84,8.19,11.1,12.6,16.4,4.68,5.62,9.06,10.44,12.8,16.77,2.54,4.88,5.91,8.47,8.56,13.3M359.63,522.63c-2.83,1.31-4.16,1.33-6.73-.1-4.19-7.11,5.64-32.54-6.21-31.53-9.96,10.35-2.62,21.72-3.76,35.43-22.21,3.56-69.23,4.41-91.45-1.36-.99-11.05,4.97-31.38-3.28-38.64-6.74-2.15-9.21,7.13-9.75,12.21-.6,5.63.58,10.56,2.23,15.91-1.13,3.21-2.67,6.07-4.2,9.11-6.66-1.57-17.8-5.68-22.93-9.88-2.67-2.18-4.14-17.15-4.1-21.2.41-46.1,3.62-92.15,3.71-138.26l1.38.54c9.97,3.67,22.18,4.01,32.31,6.57,8.67,2.19-5.43,28.71.42,35.42,1.41,1.91,1.64,2.19,4.32,2.94,1.44.4,4.36.09,5.3-.92,6.95-7.47,2.25-20.2.53-28.76-.21-1.03.19-5.39.29-6.46,20.22.77,40.07,1.52,60.33,1.21,10.6-.16,21.41-.76,31.95-.65-3.13,8.44-13.14,30.36-.73,36.96,1.04.55,3.71.81,4.68.13,10.7-7.59.34-26.87,4.08-36.94,3.02-3.09,19.71-3.48,24.54-3.54,12.99-.78,25.77,1.01,38.38,4.12.8,1.27.48,2.15.3,3.67-1.63,7.33-5.84,8.72-6.74,14.65-.97,6.39,2.97,13.97,2.51,20.56-.84,12.2-3.39,24.07-4.14,36.31-5.62,6.69-12.97,13.52-18.66,20.31-12.41,14.8-29.82,43.39-34.58,62.19ZM696.45,673.28c-1.33,2.78-3.34,9.24-4.51,10.98-2.66,3.98-7.61,9.86-10.8,13.48-32.12,36.14-77.27,58.05-125.52,60.94-15.69,1.04-22.84.42-37.93-1.77-46.01-6.67-86.95-29.14-114.19-67.26-7.91-11.07-14.15-23.85-19.22-36.47-2.22-5.54-6.81-12.94-8.42-18.48-7.69-26.46-9.19-55.97-4.43-82.86,9.38-51.08,40.83-95.42,85.93-121.15,6.34-3.57,12.19-6.48,18.82-9.38,4.38-1.92,14.03-4.21,17.2-6.43-.86-1.01-.51-.45-1.04-1.65,6.64-4.12,29.09-7,37.3-7.83,41.69-5.91,94.77,16.29,126.56,41.91,18.87,15.2,49.87,56.27,52.38,80.31l6.41,5.5c1.87,8.21,3.08,16.55,3.59,24.95,2.75,39.68-4.88,79.38-22.16,115.21ZM724.92,654.75l-1.09-.35c-1.28-2.6,3.22-2.88,3.16-10.45,3.52,2.81.83,8.48-2.08,10.8ZM729.97,505.09c-1.26,1.26-3.93,2.23-5.64,2.77-1.66-.77-2.77-1.45-3.51-3.29-16.28-40.69-44.77-72.81-83.04-94.03-5.13-2.85-20.39-8.39-23.21-11.55,2.57.72,14.83-1.15,19.01-.84,4.17-.77,4.89,5.13,6.19,5.81,24.66,12.93,46.66,27.26,64.7,49,10.37,12.49,24.95,32.74,28.71,48.9.3,1.29-2.23,2.57-3.2,3.24ZM736.77,611.29c-.44-.46-1.51-1.33-1.41-1.9,5-28.7,3.95-56.52-2.68-84.91-.13-.54,3.07-5.7,3.6-6.55,1.4.12,3.25.16,3.76,1.62,8.61,24.65,4.27,68.47-3.26,91.74ZM770.19,707.07c-1.54-8.72-3.93-17.28-7.12-25.54,7.84-4.03,16.68-5.72,25.26-7.66,1.97-.2,2.6-.11,4.59.09l.1.78c-3.07,5.97-18.21,26.85-22.84,32.33ZM796.35,661.27c-11.37,3.5-22.42,7.93-34.07,10.23l-.13-3.02c6-12.87,24.93-26.35,34.21-36.72.55,8.88.1,20.43-.02,29.51ZM797.99,609.23c-8.29,6.6-3.66,8.58-7.73,14.79-10.07,7.23-20.17,18.27-29.58,26.8l-1.61,2.03-.74-.31c-2.09-7.54-4.31-15.03-6.7-22.48,7.82-7.61,11.86-11.02,3.66-20.64,10.23-53.02,12.86-80.89-10.97-131.77,9.77,3.81,18.94,5.59,29.17,7.62,5.96,9.13,14.24,11.27,24.23,14.27-5.62,9.92-6.51,14.79,1.09,24.12.81,26.27-.7,58.52-.82,85.56ZM812.1,648.09c-.3-.42-.88-.97-.77-1.43,2.17-8.21-.8-15.56,5.25-22,2.34,4.82,2.73,6.36,6.63,9.91-3.88,2.32-6.91,10.53-11.12,13.52ZM832.49,672.26c-5.97.15-8.33-.89-14-2.52,1.93-4.19,7.87-11.03,10.97-14.83,4.2,5.66,10.32,14.72,13.73,20.78-3.41-.85-7.32-2.29-10.7-3.43ZM852.03,657.81c-4.39-6.9-9.35-8.96-12.55-16.23,14.1-16.53,30.16-42.81,43.37-57.08.22,14.85,1.15,41.91.02,55.92-7.32,9.72-11.76,16.05-17.69,26.59-6.82,6.13-7.28-5.09-13.15-9.2ZM883.6,698.19c-6.42-4.48-6.23-4.91-5.75-12.73.59-2.86,2.95-16.98,5.29-17.7l.92,2.05c-.77,8.57-.47,19.6-.46,28.39ZM913.19,686.15c-5.15,5.6-10.66,10.87-16.15,16.14-.07-15.81,2.11-32.36,1.45-48.49-.36-8.57-.27-21.43.7-29.85,4.62-4.6,8.12-12.74,14.87-19.37,1.45,1.57,3.06,4.32,4.28,6.18,9.06,13.79,19.09,26.83,28.53,40.34-11.3,11.61-22.53,23.29-33.68,35.05ZM898.87,608.43c.09-7.43.23-14.86.43-22.28,3.26,1.26,7.55,8.04,9.78,11.14-1.83,1.81-3.44,3.97-5.06,6l-5.15,5.14ZM959.28,600.78c-1.18,3.08-10.67,14.42-12.92,20.68l-6.46-8.29c-4.1-5.84-8.1-11.72-12.67-17.2,3.52-4.4,7.11-10.76,10.41-15.6,7.57-11.05,15.24-22.03,23.03-32.93,1.55,5.44,1.14,46.79-1.39,53.34ZM961.43,434.22c2.11,27.02-1.05,59.95,1.42,86.48-7.62,11.88-23.69,32.16-32.77,44.51-4.03,5.44-8.23,10.97-12.02,16.56-7.36-8.14-5.88-15-17.44-17.7-1.12-4.12-1.31-33.73-1.31-39.2-.02-20.1-.7-40.73-.63-60.8,15.28-1.27,11.08-6.47,15.02-17.26,4.42-12.17,2.17-6.53-.51-15.03-1.6-5.05,5.43-7.56-1.54-16.14.69-7.81.35-22.67-.56-30.28,9.45-14.11-.47-20.55-10.28-29.98,1.5-2.52,2.54-5.29,2.51-8.27-.05-3.42-2.69-4.34-4.69-6.58-1.96-2.19-2.66-88.45-1.66-96.35,14.02,7.77,31.72,10.03,47.32,13.26,5.62,1.16,10.82,1.47,16.48,3.21.53,4.42-10.78,10.72,1.67,21.73l.67.58-.03,76.87c-.02,17.16.38,35.74-.95,52.7-10.84,5.73-7.45,14.48-.69,21.71ZM1007.56,618.17c-10.74,5.01-22.09,10.08-32.56,15.54,3.34-31.04,2.06-58.55,2.33-89.44,3.21,2.92,11.29,14.89,14.13,18.94,10.91,15.53,21.38,31.49,32.09,47.18-5.39,2.89-10.45,5.22-15.99,7.78Z" fill="#010101"/><path d="M680.94,186.38l2.14-1.73c2.31-.18,1.44-.28,3.75,1.36,1.83,3.13,1.96,5.07,2.57,8.64,3.88,6.63,11.74,26.45.38,29.86-10.69-1.29-8.89-21.22-8.77-28.58l-.06-9.55Z" fill="#010101"/><path d="M680.94,186.38l2.14-1.73c2.31-.18,1.44-.28,3.75,1.36,1.83,3.13,1.96,5.07,2.57,8.64l-4.27,3.09-.68-.09-1.94-2.75-1.49,1.03-.06-9.55Z" fill="#1d1d1e"/><path d="M682.5,194.9c1.15-2.42.56-2.09,2.5-3.32,1.5,2.14.73,3.76.13,6.15l-.68-.09-1.94-2.75Z" fill="#3d3d3e"/><path d="M686.74,200.36c3.03,7.71,3.56,10,4.16,18.22l-2.22-.45c-1.22-5.03-1.6-12.44-1.94-17.77Z" fill="#d1d0d0"/><path d="M690.9,218.58c-1.13.16-2.27.33-3.4.53l-1.92-1.41c-2.2-3.79-1.39-9.95-1.15-14.42,2.71,4.05-.85,12.15,4.25,14.85l2.22.45Z" fill="#5e5e60"/><path d="M875.16,80.91c-31.37,8.72-99.69,25.72-130.59,20.77-3.53-.57-8.82-1.75-10.88-4.94-1.01-1.57-1.24-3.31-.7-5.13,5.2-17.37,63.84-42.39,81.74-48.56,9.24-3.19,26.98-6.84,34.51-11.45l-2.23-1.13c1.39-12.48,8.27-4.05,13.36-11.24,2.7-3.81-7.91-17.79,3.32-19.22,5.09,3.52,3.54,8.71,6.41,13.43,2.93,4.81,12.78,8.22,18.01,9.47,4.3,1.03,27.63-6,33.62-7.25,27.85-5.83,58.1-11.26,86.55-9.59,5.62.33,16.49.34,20.23,5.08,1.02,1.29,1.27,2.98,1.06,4.57-2.74,20.46-98.08,52.12-117.98,58.25-3.8,1.17-20.09,4.21-21.9,5.58l-.17,4c-.87,2.4-1.16,3.24-.84,5.78,2.36,4.01,3.37,4.97,6.8,8.09.38,2.45,1.08,6.57-.49,8.62l-1.09-.03c-2.93-4.09.54-11.8-6.83-12.93-.76-.12-1.04-.35-1.64-.77h-.55c2.48,5.64,2.61,9.68-.33,15.24l1.2.79-.77,1.48.77.24c.87.28,1.41.48,2.24.82l-1.21.35c.5.1,1.28.32,1.73.3-4.88,3.15-2.95,6.49-2.93,12.08l-.67-.64c-1.76,1.42,1.58,84.67.33,86.25-2.98-4.69.07-83.16-3.11-87.38-.5-12.43-3.84-7.39-9.64-16.72l-.46-.76c-.62-10.63,4.05-11.34,3.11-23.43Z" fill="#151516"/><path d="M884.89,92.29c2.48,5.64,2.61,9.68-.33,15.24-12.87-1.78-9.45-10.49.33-15.24Z" fill="#e9e9e9"/><path d="M992.47,10.85c10.67-.75,23.05.31,33.13,3.75-16.88,18.18-51.61,31.55-74.36,40.46-9.8,3.84-57.61,20.67-64.61,18.54-4.15-3.54-5.51-13.74-6.7-19.35,4.28-1.5,16.84-3.73,18.74-6.9l-.56-1.41c-3.87-1.53-38.6,8.91-42.15,14.22,3.52,1.46,11.52-2.43,15.24-3.84,1.22,6.62,2.11,12.05,2.87,18.72-8.69,3.8-34.99,10.05-44.66,12.01-14.31,3.03-80.4,15.92-89.84,6.97-.38-1.25-.81-3.13.39-4.25,33.02-30.73,79.74-42.89,121.51-55.98,2.17,1.84,2.99,3.19,5.45,3.61.73-.83,3.01-3.36,3.97-3.65,37.41-11.02,83.12-20.48,121.6-22.91Z" fill="#e9e9e9"/><path d="M880.28,79.81l2.92.59c2.18,2.83,1.81,3.8,1.6,7.81-3.59-.04-4.06.39-6.02-2.44.05-2.89.29-3.32,1.51-5.97Z" fill="#e9e9e9"/><path d="M875.94,54.39c.87.57,1.01.84,1.74,1.6-.83,3.77,1.27,14.2,2,18.5-3.76-3.01-4.22-15.51-3.74-20.1Z" fill="#b9b8b8"/><path d="M861.36,6.26c.82-.33.62-.2,1.61-.13.74,3.38,2.19,7.07,1.19,9.95-1.52-2.74-2.84-6.5-3.91-9.45l1.12-.38Z" fill="#e9e9e9"/><path d="M865.47,28.17c3.28-.31,6.91-1.09,9.33.73-5.39,1.06-5.21,1.51-9.33-.73Z" fill="#9f9e9f"/><path d="M876.27,21.88l2.29,1.26.34,1.31-1.92,1.52c-2.23-.83-2.47-.48-3.57-2.06l2.87-2.03Z" fill="#d1d0d0"/><path d="M1070.14,234.47l1.57-.51c1.81,1.88,2.67,2.53,4.96,3.77l3.39-.34c-7.13,4.93-13.52,6.72-21.65,9.35-8.63-1.67-22.55,5.39-34.63,5.84-2.11-2.95-2.49,1.37-7.61-2.21-6.73.24-14.36,1.25-21.49,1.54-18.41.82-36.84-.04-55.09-2.56-8.59-.44-38.8-5.85-42.31-12.97l.98-1.18c19.73,5.07,24.32,3.41,43.79,4.71,29.93,2,56.41-.06,85.87-.68,13.96-2.14,25.84-1.55,42.22-4.78Z" fill="#e9e9e9"/><path d="M1070.14,234.47l1.57-.51c1.81,1.88,2.67,2.53,4.96,3.77l3.39-.34c-7.13,4.93-13.52,6.72-21.65,9.35-8.63-1.67-22.55,5.39-34.63,5.84-2.11-2.95-2.49,1.37-7.61-2.21,8.48-1.15,13.72-1.92,22-4.01,5.76-1.04,29.44-7.13,31.96-11.9Z" fill="#1d1d1e"/><path d="M1070.14,234.47c-2.53,4.77-26.21,10.86-31.96,11.9.46-2.46,8.31-3.53,11.44-4.77,1.08-1.44.83-.67.9-2.35l6.86-.99-.52-.23c-8.21,1.65-20.57,2-28.94,1.22,13.96-2.14,25.84-1.55,42.22-4.78Z" fill="#d1d0d0"/><path d="M785.61,185.33c-1.16-.64-3.2-1.62-4.03-2.49l.59-.35c6.42,3.08,9.76,5.79,13.6,11.62.48,6.82,4.3,23.26,5.67,30.96h1.84c2.73,16.01,5.31,32.03,7.75,48.08,1.17,7.75,2.29,15.46,3.34,23.23.55,4.02,4.78,9.06,6.12,12.98,8.16,23.82-20.09,32.42-36.49,37.68l-.8-1.71c-5.49.04-13.52,5.62-20.19,5.18-1.37-.09-9.02,3.44-11.31,3.02-7.06,1.41-25.33,2.22-31.02,4.41,1.3.23,1.79.27,3.11.32-1.34.9-4.28.15-5.99.35l-2.62,2.85c-2.35.52-6.41,1.63-8.62,2l-.54-.63c3.88-1.39,9.11-2.66,13.17-3.77-8.61.3-16.44,1.92-25.08,1.66-3.15.25-6.28.09-9.43.02h-.38c-2.38-.74-3.73-1.09-6.22-1.15l-.62-.95,6.2-.32c-23.49-2.96-43.63,4.07-69.19-9.38l.25-.79c3.55-.1,10.64,4.69,19.43,5.41,32.18,2.65,74.23,4.97,106.01-.22,5.03-3.26,14.99-1.72,20.53-5.77l-.79-1.36c8.66-1.43,26.67-7.08,34.94-10.03l6.45.6c8.56-5.22,9.14-6.85,16.4-12.06l.97,1.09c7.21-6.45-2.68-25.12-8.66-30.03l-2.47.29c-1.03-13.39-13.52-97.07-19.36-106.09l-.74-.09c-.34,7.62,7.21,25.5-2.63,28.45-6.34-1.39-6.79-6.25-7.79-11.73l1.89-1.24c1.97,4.25.28,6.05,2.86,8.98l.44-.52c-.61-2.65-.77-1.57.5-3.87-1.12-5.12-.2-9.68-.77-15.42.25-2.65,2.43-6.62,3.67-9.21Z" fill="#3d3d3e"/><path d="M785.61,185.33c-1.16-.64-3.2-1.62-4.03-2.49l.59-.35c6.42,3.08,9.76,5.79,13.6,11.62.48,6.82,4.3,23.26,5.67,30.96.8,8.37,11.02,65.32,9.21,67.94-.9-1.9-.71-6.79-1.28-9.44-5.52-26.29-8.02-54.3-13.21-80.86-1.59-8.17-3.66-12.9-10.56-17.38Z" fill="#9f9e9f"/><path d="M759.91,346.21c8.66-1.43,26.67-7.08,34.94-10.03l6.45.6c-6.82,1.14-3.88.57-8.71,2.93-13.18,6.44-38.21,12.26-52.42,13.64,5.03-3.26,14.99-1.72,20.53-5.77l-.79-1.36Z" fill="#151516"/><path d="M781.95,194.54c1.88,2.41,3.65,16.85,3.06,19.54-1.26-1.56-1.46-2.25-2.29-4.12-1.12-5.12-.2-9.68-.77-15.42Z" fill="#d1d0d0"/><path d="M684.69,360.75c2.83-2.15,6.54-2.16,9.43-.02-3.15.25-6.28.09-9.43.02Z" fill="#010101"/><path d="M888.53,111.5c.81,1.98,1,3.16,1.09,5.26,1.56,37.65.66,75.61,1.77,113.24.77,26.24,1.88,52.38,1.49,78.7-.14,9.23,1.04,19.54-.3,28.51-.25,1.48-1.74,2.16-3.14,2.6-1.56-1.32-1.95-1.84-1.99-4.07-1.26-70.55.4-141.68-1.85-212.16-.02-5.59-1.95-8.93,2.93-12.08Z" fill="url(#linear-gradient)"/><path d="M699.8,679.91l8.35,3.33c-3.2,4.55-7.62,11.78-10.79,15.63-26.49,32.27-46.38,45.96-83.77,62.75-2.98-.12-3.9-5.76-5.82-8.97,30.43-8.15,78.48-43.86,92.03-72.75Z" fill="#e9e9e9"/><path d="M472.91,757.31c1.48-2.95,1.74-3.44,2.22-6.83,35.15,14.34,81.82,18.09,118.22,6.56l.29,6.12-.51.64c-33.4,6.66-57.17,8.9-91.88,1.67-5.61-1.17-24.83-8.12-28.34-8.15Z" fill="#e9e9e9"/><path d="M236.82,122.44c1.38.99,2.43,1.56,3.32,3.01-12.33,13.35-24.82,26.55-37.47,39.6-9.11,9.53-17.64,19.24-28.05,27.3l-1.83-.87,1.27,1.26-.29.19-1.49-.87c4.83-8.56,19.81-23.16,27.19-30.88,12.31-13.05,24.76-25.97,37.35-38.75Z" fill="#e9e9e9"/><path d="M939.6,249.37c18.25,2.52,36.68,3.38,55.09,2.56,7.13-.29,14.76-1.3,21.49-1.54,5.12,3.58,5.5-.74,7.61,2.21-23.31,4.62-50.61,6.52-74.19,2.56-3.65-.61-12.7-.72-14.05-4.16,1.57-1.64,1.27-1.13,4.05-1.62Z" fill="#3d3d3e"/><path d="M472.91,757.31c3.51.04,22.73,6.98,28.34,8.15,34.7,7.22,58.48,4.99,91.88-1.67l.51-.64.48,2.32c-1.63,1.48-9.19,2.84-11.8,3.41-30.31,6.5-62.65,4.43-92.5-3.41-4.28-1.13-13.56-4.25-17.03-6.5l.12-1.66Z" fill="#d1d0d0"/><path d="M216.08,317.1c5.69-2.6,19.57-3.97,26.04-4.14,6.17,4.67,15.52.79,22.75,1.3,11.6.82,50.76-3.07,60.24.38-3.88.54-7.8,1-11.78.91-31.04-.69-62.55.83-93.42,4.07-3.81.4-7.54.94-11.21,1.89,3.49-2.24,6.47-2.24,7.39-4.39Z" fill="#3d3d3e"/><path d="M593.35,757.03c5.8-.19,9.46-3.65,14.41-4.38,1.92,3.21,2.84,8.85,5.82,8.97l1.92,1.65c-.04,1-.08,2-.12,3-2.51,1.92-6.11,4.85-8.7,6.41-2.05.27-2.84.02-4.93-.32l-1.04-4.98,1.22-2.19-.26-.77c-1.9-1.7-1.96-1.82-4.39-2.12-2.43.81-1.58.3-3.16,3.17l-.48-2.32-.29-6.12Z" fill="#1d1d1e"/><path d="M600.72,767.38c5.26.51,5.45-.56,5.97,5.3-2.05.27-2.84.02-4.93-.32l-1.04-4.98Z" fill="#151516"/><path d="M351.65,207.35c3.74-3.86,1.37-13.11,10.37-15.38-.59,1.26-1.22,2.06-2.13,3.13-6.88,8.08-13.2,72.14-15.15,85.94-.68,4.81-.58,12.38-2.9,16.48l-.96.07c-.06-4.46,1.82-10.69,2.16-15.02,1.24-15.72,9.85-59.73,7.96-71.81.11-1.28.37-2.17.65-3.41Z" fill="#3d3d3e"/><path d="M720.9,676.85c-1.82-.65-1.75-.62-3.27-1.83.12-1.87,1.07-2.3,2.56-3.98l-.86-.64-4.16.95-.98-.66c.68-5.73,14-11.91,18-21.4,2.28-.95,2.37-1.03,4.75-.69,2.24,7.12-14.82,14.97-16.91,20.94l.98.99c5.68-1.03,10.92-11.28,16.05-13.8l1.57.68c1.45,1.82,3.16,7.62,1.84,9.5-1.04-3.66-1.57-5.95-2.22-9.68-4.72,4.41-8.71,8.62-12.67,13.74-.88,1.15-3.86,5.17-4.68,5.87Z" fill="#3d3d3e"/><path d="M693.36,282.14c.68,2.81,1.13,8.47,1.33,9.18l-.66,1.55c-1.37.21-1.31.29-2.59-.18-1.06.41-2.17.91-3.31.57,1.75-2,1.03-7.05,3.87-10.56l1.36-.58Z" fill="#151516"/><path d="M764.71,766.88l.19-2.27.82-.05c2.64,5.63,4.46,10.56,6.63,16.38l-.34.83c-1.79-3.03-5.33-10.14-7.23-12.22l-.07-2.66Z" fill="#3d3d3e"/><path d="M693.36,282.14c1.54-4.22.43-2.85,4.12-5.19-.99,5.78-2.14,7.22-1.16,12.93-.8,1.33-.25.89-1.63,1.45-.2-.71-.65-6.38-1.33-9.18Z" fill="#b9b8b8"/><path d="M885.76,108.31c4.29-4.12,3.69-8.17,3.48-13.76,2.79,3.76,3.34,8.54.19,12.28-1.36.69-2.14,1.17-3.67,1.49Z" fill="#9f9e9f"/><path d="M209.98,334.32c.34-.87.26-.39-.15-1.53-2.19-.61-3.33-.94-5.41-1.82-.44-2.1-.62-1.15.56-2.95,2.57-.15,4.62,1.39,7,2.69l1.15-.99c16.61,5.59,39.33,8.92,56.79,9.75,10.41.49,64.39,3.36,69.87-.01v-1.1s-1.76-1.46-1.76-1.46l1.18-1.69-.81-1.3.67-2.03,5.28.64.45.18c4.75,1.93,15.34,8.27,19.15,9.47,12.36,3.91,25.76,7.6,38.25,11.27-10.6,1.03-13.48-1.99-23.59-4-4.65-.92-3.44,1.92-6.78.81-6.57-2.19-8.68-4.64-15.97-4.36,4.98,1.5,17.03,5.16,21.36,7.95,2.42-1.88,7.82-.64,10.5.69l.22,1.18-.95,1.2,2.97.51c-1.98.96-5.09,1.15-7.37,1.44l-.03,1.94c-4.83.06-21.52.45-24.54,3.54-3.73,10.07,6.62,29.36-4.08,36.94-.97.68-3.64.42-4.68-.13-12.42-6.61-2.4-28.53.73-36.96-10.54-.11-21.35.49-31.95.65-20.26.31-40.11-.44-60.33-1.21h-2.81c-.62,1.74-.63,2.33-.82,4.11l-1.06-4.74c-1.23-2.11-.32-1.81-2.46-4.36l-.45-.53.89-1.65c-.15-1.23-.08-3.64-.08-4.99l-.13-1.12c1.14-2.77,2.94-4.35,4.99-6.57-2.66-1.58-1.53-1.14-5.16-1.11-1.38,2.73-2.42,4.71-3.44,7.62l.18,3.18c-.38,1.44,0,.85-1.33,1.73-11.36-.03-35.15-5.56-44.51-12.78-.55-1.92-1.15-3.61-.96-5.61.18-1.77.38-3.55.58-5.32l1.07-.32c3.09,1.87,4.32,2.12,7.75,3.13Z" fill="#151516"/><path d="M209.98,334.32c.34-.87.26-.39-.15-1.53-2.19-.61-3.33-.94-5.41-1.82-.44-2.1-.62-1.15.56-2.95,2.57-.15,4.62,1.39,7,2.69l1.15-.99c16.61,5.59,39.33,8.92,56.79,9.75,10.41.49,64.39,3.36,69.87-.01v-1.1s-1.76-1.46-1.76-1.46l1.18-1.69-.81-1.3.67-2.03,5.28.64.45.18c4.75,1.93,15.34,8.27,19.15,9.47,12.36,3.91,25.76,7.6,38.25,11.27-10.6,1.03-13.48-1.99-23.59-4-4.65-.92-3.44,1.92-6.78.81-6.57-2.19-8.68-4.64-15.97-4.36l-2.38-.73-4.02-.14c-18.21.37-34.02,1.26-52.32.63-10.26-.35-32.65-2.55-41.36-1.88-2.66-1.58-1.53-1.14-5.16-1.11-1.38,2.73-2.42,4.71-3.44,7.62l.18,3.18c-.38,1.44,0,.85-1.33,1.73-11.36-.03-35.15-5.56-44.51-12.78-.55-1.92-1.15-3.61-.96-5.61.18-1.77.38-3.55.58-5.32l1.07-.32c3.09,1.87,4.32,2.12,7.75,3.13Z" fill="url(#linear-gradient-2)"/><path d="M201.53,342.43c-.55-1.92-1.15-3.61-.96-5.61.18-1.77.38-3.55.58-5.32l1.07-.32c3.09,1.87,4.32,2.12,7.75,3.13,8.17,4.06,31.75,9.31,40.64,8.36-1.38,2.73-2.42,4.71-3.44,7.62l.18,3.18c-.38,1.44,0,.85-1.33,1.73-11.36-.03-35.15-5.56-44.51-12.78Z" fill="#e9e9e9"/><path d="M247.36,353.48c-.3-.52-1.5-1.95-1.81-1.97-4.64-.27-30.72-5.35-32.87-7.94,2.79-.22,15.63,3.82,19.91,4.52,4.9.8,9.35,1.66,14.58,2.2l.18,3.18Z" fill="#9f9e9f"/><path d="M255.78,343.8c8.71-.67,31.1,1.53,41.36,1.88,18.3.63,34.11-.27,52.32-.63l.82,6.58-4.51.87c-15.91,3.57-78.25,2.48-94.84-1.02l-.13-1.12c1.14-2.77,2.94-4.35,4.99-6.57Z" fill="#e9e9e9"/><path d="M250.79,350.36c24.29,1.89,45.79,2.71,70.19,2.47,6.75-.07,24.68-2.05,29.3-1.2l-4.51.87c-15.91,3.57-78.25,2.48-94.84-1.02l-.13-1.12Z" fill="#3d3d3e"/><path d="M250.92,351.48c16.6,3.5,78.93,4.59,94.84,1.02,3.14.2,2.83-.35,4.55,1.32-.06,2.63.34,1.62-1.49,3.6-12.1,5.1-81.19,1.75-97.82-.95-.15-1.23-.08-3.64-.08-4.99Z" fill="#e9e9e9"/><path d="M353.48,345.18l2.38.73c4.98,1.5,17.03,5.16,21.36,7.95-3.89.8-17.03,4.46-19.76,3.61-4.05-3.56-3.06-7.42-3.97-12.29Z" fill="#d1d0d0"/><path d="M386.99,356.92l2.97.51c-1.98.96-5.09,1.15-7.37,1.44-2.21-.09-2.52-.04-4.57-.77,3.04-1.03,5.76-.99,8.97-1.19Z" fill="#5e5e60"/><path d="M353.86,362.59c-.04,4.4.78,13.31-1.47,16.32,2.02,4.64,2.71,13.92-2.52,16.87-4.06-1.16-3.03-7.67-2.36-10.97-.26-4.31,1.6-5.24,3.07-9.22,1.68-4.54,2.02-8.26,3.28-13.01Z" fill="#e9e9e9"/><path d="M353.86,362.59c-.04,4.4.78,13.31-1.47,16.32l-1.72.55c-1.1,3.79-.39,14.49-1.38,15.19-1.29-4.51.41-7.52-1.23-9.65l-.55-.18c-.26-4.31,1.6-5.24,3.07-9.22,1.68-4.54,2.02-8.26,3.28-13.01Z" fill="#818081"/><path d="M776.04,355.18c15.11-1.26,97.16-.96,107.54,4.74.95,3.73.91,10.93,1.03,15.03-18.07,4.44-62.21,5.72-81.49,5.76-33.94.62-77.29.3-110.13-7.53,5.12-2.31,9.83-5.23,15.34-7.04,20.47-6.72,46.42-9.39,67.71-10.96Z" fill="#e9e9e9"/><path d="M972,208.01c9.23-.86,31.34,8.32,42.59,10.49,19.34,3.72,41.98,5.31,60.35,11.37-7.02.68-14.54,2.42-21.63,2.95-17.32,1.29-34.84,2.41-52.18,3.09l-.7.03c-13.14.57-95.58,1.09-101.04-4.85-.74-.81-.48-1.03-.41-2.05,5.09-4.79,28.29-5.64,34.56-7.72,13.77-4.56,23.69-10.78,38.48-13.31Z" fill="#e9e9e9"/><path d="M541.97,394.3c8.11-1.17,38.36,1.77,46.38,4.09,39.77,6.1,81.75,35.35,105.22,67.67.53.74,1.04,1.51,1.52,2.28,1.55,2.02,3.31,4.15,4.48,6.38,2.11,3.01,5.59,8.64,6.9,12.01,2.34,3.04,9.44,21.71,11.25,26.35l-5.75,3.45c-3.74-7.59-7.54-15.29-11.45-22.66-26.22-49.41-72.88-79.06-126.61-91.14-7.7-1.73-16.16-2.3-24.14-3.59-1.89-1.18-4.37-.68-7.34-1.05l-.69-1.82c1.38-.75,3.3-.39,4.95-.28l.12-.98-4.84-.72Z" fill="#d1d0d0"/><path d="M541.97,394.3c8.11-1.17,38.36,1.77,46.38,4.09-.6.61-1.81,1.58-2.57,1.47-7.07-1.04-34.54-1.2-39.1-3.86l.12-.98-4.84-.72Z" fill="#b9b8b8"/><path d="M706.47,486.73l-.64,1.19-.91-.16c-2.5-3.54-11.29-15.79-12.1-19.04l1.29.44.98-.82c1.55,2.02,3.31,4.15,4.48,6.38,2.11,3.01,5.59,8.64,6.9,12.01Z" fill="#9f9e9f"/><path d="M695.1,468.34c1.55,2.02,3.31,4.15,4.48,6.38-2.78-.53-3.92-3.27-5.46-5.56l.98-.82Z" fill="#e9e9e9"/><path d="M217.02,642.41c1.37-1.74,2.76-1.26,3.46.86-1.44,5.04-27.41,23.43-33.04,27.67-.16-1.95-.2-1.85-1.37-3.3,2.58-5.66,29.28-18.99,30.95-25.23Z" fill="#9f9e9f"/><path d="M893.23,573.44c-3.46-.29-2.96.28-5.29-1.61-.7-3.66-.37-16.76-.37-21.14l-.2-41.14c-.25-40.65-2.42-88.59-.73-128.74,1.57-1.87,2.21-1.48,5.01-2.1,1.83.07,3.99.26,5.77.05-1.44,2.54-1.83,3.41-4.04,5.47-1.33,4.11-1.21,23.91-.28,27.49,1.19,14.93,4.94,151.28,1.81,160.06l-1.68,1.65Z" fill="#d1d0d0"/><path d="M893.23,573.44c-1.79-5.47,1.1-41.1.49-49.63-1.09-15.22-.65-33.28-1.3-48.85-.35-8.3.33-17.57.29-25.92-1.67-16.92-2.14-31.38-2.02-48.42-.11,3.31-.3,12.7.86,15.52l.8-.42.76-4c1.19,14.93,4.94,151.28,1.81,160.06l-1.68,1.65Z" fill="#818081"/><path d="M693.26,384.43l-.27-.77c-.99-2.74-2.34-3.55-2.36-6.26l.8-.6c12.98,3.97,22.38,5.31,36.03,6.22,4.12.28,14.09.41,17.6,1.01,10.99.09,21.8.81,32.73.93,29.96-.13,59.48-.67,89.36-3.38,3.05-.28,13.53-1.73,15.56-.38-.8.86-1.35,1.41-2.23,2.19l1.03,1.89-.43.16c-4.81,2.26-21.1,3.68-27.06,4.31-45.02,4.81-117.82,6.97-160.75-5.32Z" fill="#e9e9e9"/><path d="M777.79,384.96c29.96-.13,59.48-.67,89.36-3.38,3.05-.28,13.53-1.73,15.56-.38-.8.86-1.35,1.41-2.23,2.19l1.03,1.89-.43.16c-1.28-.87-3.8-1.44-5.37-1.3-19.94,1.72-39.98,3.05-60.02,3.07-5.33,0-11.12-1.26-16.51-1.44-7.11-.25-14.36.16-21.39-.8Z" fill="#9f9e9f"/><path d="M693.26,384.43l-.27-.77c-.99-2.74-2.34-3.55-2.36-6.26l.8-.6c12.98,3.97,22.38,5.31,36.03,6.22,4.12.28,14.09.41,17.6,1.01-9.87.78-20.45,2.58-30.55,1.18-5.17-.71-13.15-6.72-19.8-4.79-.67.19-1.18,3.03-1.45,4.01Z" fill="#d1d0d0"/><path d="M877.23,570.74c3.02,1.22,3.69,1.26,5.16,3.65-.62,5.45-61.46,83.31-69.69,94.27l-36.46,49.47c-1.57-.25-3.55-2.3-4.85-3.44,5.56-9.56,12.34-18.3,18.49-27.47,22.25-33.2,48.44-63.44,71.74-95.87,5-6.96,10.07-14.1,15.62-20.62Z" fill="#d1d0d0"/><path d="M355.86,345.91c7.29-.27,9.39,2.17,15.97,4.36,3.33,1.11,2.12-1.74,6.78-.81,10.11,2,12.99,5.03,23.59,4,29.65,7.09,100.37,11.13,127.18-4.02l-.27,2.41,1.06.5c3.69-1.78,4.78-2.98,8.37-2.66.75.71.93.73,1.45,1.59-24.19,19.22-74.17,16-103.53,14.86-3.48-.14-4.63-1.21-8.42-.11-.91,1.23-.74,1.54-.74,3.08-4.4-1.51-2.2,1.36-6.06-.51.19-1.52.5-2.41-.3-3.67-12.61-3.11-25.4-4.9-38.38-4.12l.03-1.94c2.28-.29,5.39-.48,7.37-1.44l-2.97-.51.95-1.2-.22-1.18c-2.69-1.33-8.08-2.57-10.5-.69-4.33-2.79-16.37-6.44-21.36-7.95Z" fill="#3d3d3e"/><path d="M172.09,555.61c.37.34,1.99,1.99,2.51,2.72,35.74,50.06,69.02,101.83,104.01,152.4-.04.52-.09,1.04-.14,1.55l-3.52,2.53-1.14.76c-1.79-.94-22.7-32.85-25.33-37-16.58-26.2-33.71-52.05-51.37-77.54-7.62-11.1-21.62-29.28-27.45-40.62.03-2.17.97-2.73,2.42-4.78Z" fill="#e9e9e9"/><path d="M472.49,409.73c.86,2.1,1.01,2.43,1.36,4.64-1.97,3-31.62,18.61-37.53,23.54-18.54,15.46-34.33,30.88-46.49,51.95-2.07,3.59-11.33,22.71-13.32,23.69l-1.63-.81c-1.49-.6-2.59-1.14-4.03-1.86-.6-1.45-1-2.55-.21-4.19,21.14-43.62,55.58-79.25,101.83-96.97Z" fill="#e9e9e9"/><path d="M509.48,236.59c13.13-8.67,15.05-8.28,29-1.56,2.83-1.1,3.76-1.57,6.89-1.8-4.06,4.08-6.03.98-9.36,3,.16,1.24.29,2.05.55,3.27l-1.88.07-2.67,2.65c-.59,5.13-1.47,10.16-2.07,15.57,4.62,5.53,11.25-3.24,5.99,12.09l.77.07c1.99-2.58,4.15-6.35,6.84-7.51l1.15.13c.57,1.92-.21,3.27-1.6,4.75-5.69,6.67-18.42,8.75-26.36,4.55-5.3-2.81-9.23-7.66-10.88-13.44-2.44-8.28-.38-14.68,3.63-21.85Z" fill="#151516"/><path d="M532.01,242.23c-2.88,4.13-2.64,8.5-3.01,13.47l-.79-.23c-2.69-4.92-3.65-15.84,2.89-17.84,2.89.69,2.42.09,3.58,1.95l-2.67,2.65Z" fill="#e9e9e9"/><path d="M523.79,235.46l.62.26c.57,1.66-2.47,9.69-2.72,12.99-.42,5.52,4.11,12.34,2.89,16.01-2.26,1.07-3.62.41-6.13-.19-1.87-1.73-6.28-5.53-7.08-7.7-3.98-10.71,3.53-17.87,12.41-21.38Z" fill="#e9e9e9"/><path d="M724.53,563.64c-.03-7.53-3.94-27.24-3.34-31.15,2.32-1.1,2.7-1.15,5.27-1.4,2.95,2.35,3.68,17.33,5.11,23.14.29-4.08-.73-7.83.07-11.72l.32,1.51.02-.4c.77,8.36,2.46,26.22,1.85,33.9-1.9,24.03-7.25,56.89-17.95,78.78-1.82,3.74-2.53,8.14-5.09,11.22-2.38-.09-1.37.32-3.12-1.33-.82-5.06,3.74-11.82,5.06-16.89,3.12-11.91,11.63-40.12,10.96-51.75-2.73-6.99-1.75-26.77.82-33.92Z" fill="#d1d0d0"/><path d="M723.7,597.57c-2.73-6.99-1.75-26.77.82-33.92.71,7.87.96,26.47-.82,33.92Z" fill="#1d1d1e"/><path d="M449.09,296.72c3.55-1.88,47.23,8.32,54.33,10.59,13.7,4.76,28.13,9.33,39.47,18.69,3.76,3.1,1.05,13.52-1.9,14.64-17.69-22.32-62.84-30.81-89.58-33.98-2.04-.24-5.75-.06-7.25-1.28-.36-2.35.69-3.76,1.79-5.97,1.54-.91,1.62-1.01,2.85-2.36l.31-.34Z" fill="#e9e9e9"/><path d="M686.46,169.56c25.61-3.68,51.55-5.37,77.31-2.12,3.77.47,13.89.9,14.4,5.3-1.14,2.01-1.75,2.98-2.5,5.13-29.8-4.72-51.74-2.57-81.59.7l-3.78.79-6.29,1.39c-1.39.11-3.52.18-4.75.62-1-4.92-1.94-6.51-5.24-9.9,1.55-1.53,1-1.05,3.3-1.73,2.96,1.29.08,1.71,1.4,4.41.9-1.96,1.34-2.69,2.54-4.48,2.79-1.15,1.61-.91,5.2-.11Z" fill="#e9e9e9"/><path d="M674.03,171.46c1.55-1.53,1-1.05,3.3-1.73,2.96,1.29.08,1.71,1.4,4.41.9-1.96,1.34-2.69,2.54-4.48,2.79-1.15,1.61-.91,5.2-.11-3.13.94-3.05.33-4.47,2.65-.35,2.86.8,5.95,2.03,8.54-1.39.11-3.52.18-4.75.62-1-4.92-1.94-6.51-5.24-9.9Z" fill="#151516"/><path d="M690.31,179.35c-.55-2.77-1.24-4.67.05-6.86l1.26.25c1.85,2.42,1.93,2.81,2.47,5.82l-3.78.79Z" fill="#5e5e60"/><path d="M793.71,308.1c-24.89-4.94-44.27-4.44-69.45-3.32-5.75.26-24.79,3.27-27.45,1.63-.8-2.49-1.55-6.07.05-8.31,3.44-1.49,12.61-1.54,16.93-1.8,27.47-1.64,56.9-2.36,84.05,3.22.83.24,2.11.54,2.81.94.29,3.59-.39,4.91-1.57,8.31-1.77-.43-3.29-.08-5.36-.66Z" fill="#e9e9e9"/><path d="M797.82,299.52c.83.24,2.11.54,2.81.94.29,3.59-.39,4.91-1.57,8.31-1.77-.43-3.29-.08-5.36-.66.52-.16,1.46-.71,1.98-.99,1.74-2.41,1.78-4.67,2.14-7.59Z" fill="#1d1d1e"/><path d="M363.59,525.13c2.36.58,6.2,1.11,8.71,1.53-5.43,13.02-7.19,28.46-8.79,42.34-3.01,26.09,3.56,51.66,9.65,76.81l-.51,1.18c-1.93,1.08-.94.94-3.06.49-8.8-7.73-11.88-39.52-12.92-50.85-2.26-24.66.84-47.69,6.93-71.51Z" fill="#d1d0d0"/><path d="M641.28,396.1c1.16.05,1.65.07,2.8.4,39.53,11.37,72.71,44.44,92.59,79.18-2.1,1.41-4,3.02-5.98,4.61l-.62.47c-.25-.11-15.58-24.03-19.32-28.19-16.92-18.84-34.56-38.7-59.08-47.37-2.55-.9-9.62-6.19-10.4-9.09Z" fill="#e9e9e9"/><path d="M968.1,282.79c2.54-.04,4.48-.39,6.58.86.29,1.01-.09,121.85-.64,128.61h-7.23s1.29-129.47,1.29-129.47Z" fill="#e9e9e9"/><path d="M473.71,168.13c24.35,3.45,49.44,9.35,70.42,22.76,4.94,3.16,19.61,15.86,15.02,22.5-3.71-1.29-11.99-10.46-17.08-13.62-24.8-15.44-43.09-17.47-70.97-21.84,1.16-3.55,1.79-6.14,2.61-9.79Z" fill="#e9e9e9"/><path d="M156.11,381.62c2.47.44,2.82.42,4.98,1.58,1.53,8.56.87,31.14.88,40.98.05,40.86,2.27,82.87,1.49,123.6-2.37-.31-2.67-.27-4.77-1.31-.69-5.72-.42-16.63-.46-22.69l-.37-38.75c-.44-34.25-2.01-69.25-1.75-103.4Z" fill="#d1d0d0"/><path d="M893.94,700.87c-.04,1.49-.53,3.84-.79,5.38-1.62,1.72-.92,1.45-2.95,1.92l-1.22-1.05c-2.5-6.65-1.07-25.99-1.06-33.92l-.06-58.15c.05-10.75-.23-22.43-.15-33.25.02-2.2.74-2.91,2.15-3.95,2.11.36,2.11.24,3.74,1.51,1.48,6.95.48,34.18.32,42.97,1.36,16.56.83,35.33.79,51.97-.02,6.3.09,20.85-.77,26.57Z" fill="#d1d0d0"/><path d="M893.94,700.87c-2.66-2.91-2.07-71.85-.02-78.54,1.36,16.56.83,35.33.79,51.97-.02,6.3.09,20.85-.77,26.57Z" fill="#818081"/><path d="M691.53,297.94c-.07,4.24.06,5.66.73,9.86-10.58,1.78-21.18,3.41-31.43,6.61-17.36,3.91-34.1,10.3-47.8,21.99-.46-3.33-1.06-6.34-.68-9.69v-1.68c16.94-15.78,56.27-23.14,79.18-27.09Z" fill="#e9e9e9"/><path d="M612.36,326.71c1.43,1.81,1.54,3.47,2.05,5.76l1.3-.09c4.52-3.82,15.45-11.85,20.69-14.15,4.3-1.89,19.67-5.59,24.44-3.82-17.36,3.91-34.1,10.3-47.8,21.99-.46-3.33-1.06-6.34-.68-9.69Z" fill="#d1d0d0"/><path d="M82.44,638.88l6.39,4.25c-18.82,23.41-40.94,45.3-61.03,68.18-1.65.52-2.01.41-3.69.29l-.52-.04-1.51,1.34c1.77,2.81,2.66,1.35,2.91,4.11-2.9,7.75-7.18,15.74-15.64,18.03-2.46-.38-3.11-.29-5.04-1.69-.9-5.96,20.62-27.38,25.74-33.05,11.95-13.21,23.71-26.59,35.27-40.14,5.35-6.21,13.01-14.47,17.11-21.28Z" fill="#e9e9e9"/><path d="M9.35,735.03c4.45-7.6,4.96-13.04,12.45-17.55l.24.35,2.95-.83c-2.9,7.75-7.18,15.74-15.64,18.03Z" fill="#d1d0d0"/><path d="M760.64,465.82c29.5,6.43,51.91,7.01,81.41,3.59,2.91-.34,2.75,6.63,2.23,8.76-.73.17-1.45.32-2.19.47-24.28,4.87-47.65,2.9-71.82-1.13-3.85-.64-6.96-.94-10.3-3.18-.71-2.54.2-5.78.68-8.51Z" fill="#e9e9e9"/><path d="M379.43,656.25c2.76,2.33,8.47,17.76,11.17,22.42,15.75,27.14,36.36,45.99,62.6,62.41-1.57,1.9-2.9,3.97-4.28,6.01-28.92-17.26-56.28-44.44-69.07-76.08-1.47-3.65-4.01-7.3-4.3-11.25.89-2.59.91-1.94,3.87-3.51Z" fill="#d1d0d0"/><path d="M409.94,294.43c4.9-.39,28.11.32,32.67,1.56.13,3.39,0,6.25-.14,9.63-14.93-2.53-35.85-1.6-51.28-1.07-9.27-.03-18.75,1.6-28.02,2.06-2.58.13-3.29.23-4.77-1.25-.42-2.66-.57-3.14.21-5.69,5.84-5.44,41.86-4.7,51.34-5.23Z" fill="#e9e9e9"/><path d="M252.16,533.64l.8-1.82,1.67-.63c15.73,3.54,47.12,3.25,63.77,2.54,5.87-.25,20.36-2.5,24.62-2.23l.91,1.5-.22,1.39c-.13,2.55.25,3.65-1.08,5.43-12.94,2.39-78.42,3.64-89.7.29-1.28-1.63-1.17-2.08-1.44-4.24l.67-2.24Z" fill="#e9e9e9"/><path d="M252.16,533.64l.8-1.82,1.67-.63c15.73,3.54,47.12,3.25,63.77,2.54,5.87-.25,20.36-2.5,24.62-2.23l.91,1.5c-12.4,4.3-80.53,6.37-91.78.63Z" fill="#e9e9e9"/><path d="M252.16,533.64c11.25,5.73,79.38,3.67,91.78-.63l-.22,1.39c-21.62,5.01-48.39,4.66-70.52,3.44-6.6-.36-15.66-2.15-21.7-1.96l.67-2.24Z" fill="#818081"/><path d="M417.8,166.12c7.1-.47,34.34-.52,41.24,1,.69,2.11,0,6.82-.23,9.25-10.45-1.39-33.16-.93-43.8-.31-15.39.8-22.31,1.18-37.33,4.03-.63-2.23-1.29-4.46-1.96-6.68,15.55-4.36,26.14-5.89,42.09-7.28Z" fill="#e9e9e9"/><path d="M151.01,554.14l1.77,1.33c1.98,5.32-8.64,15.64-12.08,20.24-15.36,20.6-32.42,39.93-48.16,60.14,0,0,.03,2.68.03,2.93l-2.11.71-6.27-4.37c22.16-26.74,43.75-55.33,66.81-80.99Z" fill="#e9e9e9"/><path d="M901.48,568.89c6.66,1.62,35.98,52.26,43.43,59.27,1.67,1.58,10.92,13.95,10.91,15.59l-3.03,1.95-2.52,1.1c-4.56-1.46-42.38-61.79-49.69-68.48-1.55-1.42.44-6.88.9-9.43Z" fill="#d1d0d0"/><path d="M674.03,171.46c3.3,3.39,4.24,4.98,5.24,9.9-20.02,2.1-44.8,9.35-62.18,19.84-4.7,2.83-11.72,9.07-16.37,12.67,9.49-28.74,48.48-33.79,72.8-42.23l.51-.18Z" fill="#e9e9e9"/><path d="M963.36,656.73c2.94.7,58.93,76.55,59.01,79.64l-3.53,3.38-.46.28c-1.13-.72-55.25-74.46-57.89-79.15.36-2.22,1.05-2.3,2.87-4.14Z" fill="#d1d0d0"/><path d="M966.78,434.68c3.05.18,4.21-.18,6.39,1.45.79,4.41.3,22.6.37,27.97.27,22.01-.43,44.41.62,66.41-2.67-.3-4.56-.2-6.64-1.79-.66-2.92-.58-6.04-.56-9.03.16-28.27-.95-56.76-.17-85.01Z" fill="#d1d0d0"/><path d="M160.12,223.33c1.25.2,2.32.51,3.53.83.79,1.91.51,130.6-1.03,135.38-.63-.17-3.27-.81-3.3-1.69-1.06-39.59-.96-79.35-.21-119.01.08-4.24-.41-12.01,1.01-15.52Z" fill="#e9e9e9"/><path d="M159.16,560.78c1.83.14,2.88.36,4.69.73.97,4,.17,40.59-.13,46.61-1.15,23.55-.15,51.33-2.41,74.48-2.03.4-2.9-.11-4.45-1.13-.5-2.72.77-35.06.92-39.67.92-27,1.38-54.01,1.38-81.02Z" fill="#d1d0d0"/><path d="M973.22,539.59c.13.19-1.57,93.57-3.11,101.14-2.11,1.65-2.27,1.13-5.33,1.24-.79-6.35.97-26.02,1.04-33.51.21-22.68.91-45.52,1.38-68.21,1.21-1,3.82-.56,6.03-.66Z" fill="#d1d0d0"/><path d="M980.83,530.87c3.93,2.76,47.23,65.45,52.43,73.44-.74,1.63-2.33,2.32-4,3.5l-.81.52c-.44-.09-.89-.19-1.34-.28-14.35-20.59-35.36-52.99-49.85-71.81l3.57-5.36Z" fill="#e9e9e9"/><path d="M1035.6,608.3c1.27,1.23,3.59,5.24,4.67,6.89,12.12,18.6,25.17,36.62,37.39,55.15,3.38,5.11,9.97,11.37,12.49,15.92-1.91,1.18-3.2,1.81-5.23,2.78l-.6.22c-13.53-18.1-26.33-36.42-38.88-55.2-3.07-4.6-12.69-17.43-14.83-21.73.91-1.86,3.15-2.88,4.99-4.02Z" fill="#e9e9e9"/><path d="M547.02,382.18c12.2.18,50.95,1.16,61.51,5.22.58,2.75.31,3.21-.34,6.05-2.01,1.69-1.32,1.17-4.55,1.32-8.03,1.14-22.35-1.91-31.09-2.81-8.62-.89-20.9-.97-28.96-2.87-1.5-1.54-1.17-2.29-1.7-4.37l-.12-.44c2.08-2.05,2.06-1.51,5.25-2.1Z" fill="#e9e9e9"/><path d="M147.67,211.43c1.62,1.95,2.45,2.28,2.74,4.51-13.55,14.6-30.3,29.95-44.33,44.56-7.41,7.72-31,32.44-38.52,37.7l-2.29-.26-.39-1.02c26.82-29.24,54.43-57.75,82.79-85.5Z" fill="#e9e9e9"/><path d="M839.99,402.48c.75-3.3.12-3.81,2.26-5.39,1.85,2.29.71,11.72.43,15.07l-.82.61c3.17,5.56,2.59,20.38,1.89,26.83l-.37,3.03c1.24,5.21,2.76,15.48-.05,20.26l-3.01,1.39c-1.71.73-3.76,1.23-5.6.8.58-6.92.56-13.87-.04-20.78-1.79-18.46-2.88-21.2,1.7-39.99,1.98,3.44-1.66,5.68-.46,13.66l.44-.41c1.44-4.29,2.44-7.32,2.03-11.9-.11-1.2.91-2.15,1.61-3.16Z" fill="#1d1d1e"/><path d="M843.74,439.59c-2.4,1.2-1.63,1.27-3.73.79-3.38-5.43-4.62-26.06,1.84-27.62,3.17,5.56,2.59,20.38,1.89,26.83Z" fill="#e9e9e9"/><path d="M840.32,464.27c-1-4.49-2.01-14.83-.46-19.41.57-1.69,1.72-1.62,3.52-2.24,1.24,5.21,2.76,15.48-.05,20.26l-3.01,1.39Z" fill="#e9e9e9"/><path d="M839.99,402.48c.75-3.3.12-3.81,2.26-5.39,1.85,2.29.71,11.72.43,15.07-3.97-2.52-3.31-5.65-2.68-9.68Z" fill="#b9b8b8"/><path d="M738.99,628.56c2.44-.05,2.94-.04,5.3.54,1.05,3.35.97,12.1,1.83,16.26,1.23,6.02,3.45,13.39,4.92,19.02,2.32,8.9,14.17,47.36,14.29,54.4-2.38.38-3.35.95-5.29.1-1.59-4.55-2.75-9.03-4.1-13.63-7.03-23.79-12.9-48.01-17.94-72.29-.23-1.1.61-3.41,1-4.4Z" fill="#d1d0d0"/><path d="M889.45,712.68c.14,0,.29,0,.43,0,8.84-.53,47.26-47.19,57.2-55.8,1.45-1.25,3.1-2.78,5.01-1.35,1.01.76,1.66,2.33,2.26,3.44-.95,4.31-58.21,58.83-63.27,59.05l-3.02-1.26c.2-2.18.11-2.42,1.39-4.07Z" fill="#d1d0d0"/><path d="M852.48,681.96c-4.47-10.1-12.59-19.16-17.36-29.11-1.34-2.77-.82-4.22,1.17-6.18,4.92,2.62,25.19,42.63,32.87,48.14,3.16,2.28,10.92,9.02,13.72,11.67l-1.1,3.11c-6.42-4.1-15.12-10.14-21.02-15.04-.55-.46-4.54-6.12-5.98-7.77-1.17.95-1.08.89-2.54,1.24-7.41-4.77-13.27-7.58-21.84-9.43-2.95-.63-11.95-2.47-13.7-4.56,2.59.71,4.37,1.78,7.17,1.59,10.83-.74,18.25,4.58,28.61,6.36Z" fill="#d1d0d0"/><path d="M804,525.57c3.35.26,4.65-.03,4.62,3.68-.21,27.13-.06,54.45-1.34,81.54,0,0-1.25,1.45-1.37,1.59-1.88-.45-2.79-.49-4.26-1.77-.65-5.19,1.57-83.12,2.35-85.03Z" fill="#d1d0d0"/><path d="M738.6,479.14c8.09,12.98,15.2,34.95,16,50.29-1.03,12.21-1.15,24.32-3.61,36.46-.38-36.13-1.91-46.87-18.08-78.46,1.58-2.93,3.71-5.61,5.69-8.29Z" fill="#e9e9e9"/><path d="M201.83,517.9c6.12-3.28,5.01-.25,10.97,2.39,7.93,3.5,16.37,7.16,24.86,8.94,3.15.68,9.23.51,10.58,2.64l.18,3.23-.32,1.42c-.38,1.15-.83,1.76-1.45,2.8-8.28,2.42-48.63-8.67-44.81-21.4Z" fill="url(#linear-gradient-3)"/><path d="M248.09,536.5c-.38,1.15-.83,1.76-1.45,2.8-8.28,2.42-48.63-8.67-44.81-21.4,3.72,6.9,14.22,9.41,21.21,12.8.28.14.94.2,1.16.23,2.23-.06,17.39,3.68,24.22,4.16l-.32,1.42Z" fill="#e9e9e9"/><path d="M224.2,530.93c2.23-.06,17.39,3.68,24.22,4.16l-.32,1.42c-1.19-.38-6.49-.9-8.11-1.13-6.3-.88-9.94-2.07-15.79-4.44Z" fill="#9f9e9f"/><path d="M339.72,715.26c-2.52-.91-4.91-1.45-6.15-3.55,2.46-7.83,18.87-52.2,23.31-54.64l1.38.53c1.66,2.96,1.39,1.57.61,5.42-.11,5.25-4,26.2-8.45,28.58l-.52-3.38c-1.48,2.98-.88,4.88-3.11,6.94l-.71.11c-2.75,5.24-5.08,14.19-6.36,19.98Z" fill="url(#linear-gradient-4)"/><path d="M358.87,663.02c-.11,5.25-4,26.2-8.45,28.58l-.52-3.38c-1.48,2.98-.88,4.88-3.11,6.94l-.71.11c.41-3.81,10.54-28.09,12.79-32.25Z" fill="#1d1d1e"/><path d="M458.37,185.44l3.35-1.83c.33.15,1.22.48,1.42.7-.71,4.07.8,7.34,3.54,10.36,1.15-.04,1.69-.02,2.82-.26.46,4.24.82,7.12.65,11.36.26,20.56-20.21,18.49-15.9-2.59.4-4.99,1.97-13.18,4.12-17.74Z" fill="#151516"/><path d="M470.15,205.77c.26,20.56-20.21,18.49-15.9-2.59,3.41.77,3.11,5.11,3.4,8.17,1.14,3.27.4,2.41,2.62,4.37,3.2-.35,3.26-2.1,3.81-4.99.55,1.89.6,1.81,1.84,3.22,1.6-1.18,3.04-5.69,4.24-8.18Z" fill="#010101"/><path d="M458.37,185.44l3.35-1.83c.33.15,1.22.48,1.42.7l-2.27,2.14c.06,6.97,2.47,10.03.86,16.84-.11-2.26.09-4.22-1.16-5.97-2.21,2.17-2.73,10.86-2.92,14.03-.29-3.06,0-7.4-3.4-8.17.4-4.99,1.97-13.18,4.12-17.74Z" fill="url(#linear-gradient-5)"/><path d="M457.65,211.35c.19-3.17.71-11.86,2.92-14.03,1.26,1.75,1.05,3.71,1.16,5.97-.77,4.31-1.26,6.26-.88,10.59,1.58-3.05,2.36-6.16,3.34-9.45,1.09,1.29.34,4.69-.11,6.3-.55,2.89-.61,4.64-3.81,4.99-2.22-1.96-1.48-1.1-2.62-4.37Z" fill="#d1d0d0"/><path d="M960.29,530.83c.41.31.95,1.02,1.32,1.45.08,9.39-14.36,25.92-19.73,33.92-5.37,7.98-10.75,16.66-16.27,24.5l-.41-.75c-.86-1.63-2.17-3.08-3.35-4.51.11-3.59,33.52-48.1,38.45-54.6Z" fill="#d1d0d0"/><path d="M839.61,484.32l.96.24c-16.3,12.33-42.96,13.4-60.32,2.8-.99-.69-1.07-.71-1.84-1.61,4.24.53,5.23.5,9.49.09l-2.59-.28c8.55-.77,16.29.15,24.84.24,9.8.1,19.71-.57,29.46-1.47Z" fill="#b9b8b8"/><path d="M790.26,624.02l-1.38,3.55c2.21-1.71,4.81-4.26,7.27-4.31.82,1.22.8.68.75,1.8-1.75,1.92-6.36,8.15-6.85,8.61-7.64,7.35-14.59,14.47-21.57,22.49-2.35,2.69-4.56,3.69-6.83,7.09-.09-2.38.23-2.66,1.33-4.88-.74-2.52-1.52-5.04-2.3-7.55,9.41-8.53,19.51-19.57,29.58-26.8Z" fill="#1d1d1e"/><path d="M762.99,658.37c2.92-2.17,2.69-1.85,4.73-4.86,7.53-11.15,17.14-20.31,27.32-28.71l1.88.26c-1.75,1.92-6.36,8.15-6.85,8.61-7.64,7.35-14.59,14.47-21.57,22.49-2.35,2.69-4.56,3.69-6.83,7.09-.09-2.38.23-2.66,1.33-4.88Z" fill="#3d3d3e"/><path d="M533.43,255.2c1.25-17.34,4.64-12.72,18.06-14.37,1.45.42,2.93.51,3.41,1.95,2.14,6.49-.47,16.48-.16,23.75l-.62-1.88c-1.56-1.44-2.58-.98-5.18-1.08-.34-3.05-.36-3.96-1.61-6.88-4.39-1.31-9.28-1.29-13.89-1.49Z" fill="#d1d0d0"/><path d="M551.48,240.83c1.45.42,2.93.51,3.41,1.95,2.14,6.49-.47,16.48-.16,23.75l-.62-1.88c-1.56-1.44-2.58-.98-5.18-1.08-.34-3.05-.36-3.96-1.61-6.88,9.16-2.12,8.34-9.23,4.17-15.86Z" fill="#b9b8b8"/><path d="M754.59,529.43c4.3,23.56,2.56,43.85-2.84,66.9-.98,4.19-2.02,11.8-3.95,15.28l-.92.66c-6.25-2.35-.82-13.67.44-18.47,2.43-9.1,3.67-18.48,3.67-27.9,2.46-12.14,2.58-24.25,3.61-36.46Z" fill="#d1d0d0"/><path d="M783.41,786.74c-1.48-.28-4.77-1.64-5.87-2.6-5.34-4.61-12.15-27.41-7.8-32.92l1.36.2c2.46,2.45,8.06,14.31,10.21,18.34l1.07-1.2c3.95,2.18,7.28,14.13,3.54,18.33-1.73.15-1.55.49-2.51-.17Z" fill="#e9e9e9"/><path d="M781.3,769.77l1.07-1.2c3.95,2.18,7.28,14.13,3.54,18.33-1.73.15-1.55.49-2.51-.17,4.19-5.75.08-10.59-2.11-16.97Z" fill="#b9b8b8"/><path d="M602.55,325.13c1.33.14,2.49.43,3.79.72.86,2.34,1.59,8.86,1.25,11.04-.98,6.25,1.18,43.1-.31,45.54-2.6-.43-3.3-.35-5.39-1.8-1.6-12.26.02-39.71-.63-53.37.51-.83.94-1.54,1.29-2.12Z" fill="#e9e9e9"/><path d="M93.98,646.33c4.75,2.34,11,7.15,15.58,10.1,17.44,11.23,33.34,25.62,53.23,32.06l.17.97-2.14.89c-.47,1.15-1.28,1.7-2.2,2.54-.59.1-2.23.36-2.84-.02-19.44-11.72-38.78-26.76-57.07-40.37-1.84-1.37-3.76-4.53-4.73-6.17Z" fill="#e9e9e9"/><path d="M812.16,595.61c0,3.37-.36,5.36,1.85,8.02,3.07,3.71,7.63,9.67,12.8,9.73,2.62,2.67,3.03,3.5,4.85,6.71-.28,2.06-.45,3.59-1.01,5.61-1.6,2.43-4.79,8.43-7.45,8.89-3.9-3.55-4.29-5.1-6.63-9.91l-.97-.06.85-.71c.41,1.3,2.45,2.47,3.61,3.2l.51-.44-2.97-4.61-.32,1.2-.98.19c-1.97-1.48-1.45-.56-1.96-2.62l2.42-.93.46-1.33-1.38-2.61c-1.81-3.36-2.2-5.86-2.36-9.71l-.77-.38-1.66,2.57.62,1.63c-.16,1.41-.9,1.97-1.84,2.93l.55-.26-.82-.17c-1.04-5.67,1.84-10.77,2.51-16.21l.08-.72Z" fill="#3d3d3e"/><path d="M815.85,615.94c6.14,3.4,3.51,5.66,11.39,8.92,1.66.63,1.66.65,3.43.83-1.6,2.43-4.79,8.43-7.45,8.89-3.9-3.55-4.29-5.1-6.63-9.91l-.97-.06.85-.71c.41,1.3,2.45,2.47,3.61,3.2l.51-.44-2.97-4.61-.32,1.2-.98.19c-1.97-1.48-1.45-.56-1.96-2.62l2.42-.93.46-1.33-1.38-2.61Z" fill="#1d1d1e"/><path d="M827.23,624.86c.97-1.4.68-.64.86-2.38-2.48-3.53-4.04-2.46-7.1-5.58l.05-1.16,2.09.99c1.09-2.71.97-2.13,3.68-3.35,2.62,2.67,3.03,3.5,4.85,6.71-.28,2.06-.45,3.59-1.01,5.61-1.76-.18-1.76-.2-3.43-.83Z" fill="#151516"/><path d="M549.77,399.14c-12.41-.07-27.62,1.52-39.76,4.2-6.99,1.54-13.71,3.98-20.99,5.39-.75-3.33-1.61-4.26-.24-6.6,6.28-3.91,43.72-7.03,53.19-7.83l4.84.72-.12.98c-1.65-.11-3.58-.47-4.95.28l.69,1.82c2.97.37,5.45-.13,7.34,1.05Z" fill="#e9e9e9"/><path d="M801.51,501.12l.17-1.75c2.07-1.44,3.86-1.92,6.38-1.25,7.24,1.93,7.82,5.09,6.56,11.25.5,3,.1,4.69-.3,7.68-6.71,5.11-9.82,6.33-15.7-.71-.79-6.91.04-8.78,2.89-15.23Z" fill="#e9e9e9"/><path d="M811.07,509.48l1.12-3.23,2.44,3.13c.5,3,.1,4.69-.3,7.68-6.71,5.11-9.82,6.33-15.7-.71,3.2,0,7.88.35,10.57-.98,2.11-2.52,1.48-2.09,1.88-5.89Z" fill="#b9b8b8"/><path d="M801.51,501.12l.17-1.75c2.07-1.44,3.86-1.92,6.38-1.25,7.24,1.93,7.82,5.09,6.56,11.25l-2.44-3.13-1.12,3.23c-1.67-3.87-.68-7.15-3.9-9.92-3.59-.06-2.15-.32-5.66,1.57Z" fill="#151516"/><path d="M552.14,321.5c2.16.32,2.42.25,4.1,1.51-.53,13.39-.23,26.61-.22,39.98,0,3.45.57,11.74.31,14.34l-1.52.85c-2.18-.35-2.62-.49-4.66-1.37-.2-1.61-.38-5.91-.2-7.35.93-7.16-.41-44.67,2.17-47.96Z" fill="#d1d0d0"/><path d="M549,301.68c5.97-1.34,13.3-1.66,16.49,4.73.43,9.68-9.92,9.51-16.85,9.25l-.31.29-1.1-.15c-6.31-5.03-5.77-10.93,1.77-14.13Z" fill="#e9e9e9"/><path d="M548.63,315.67l-.31.29-1.1-.15c-6.31-5.03-5.77-10.93,1.77-14.13.36,1.51-.52,10.07-.36,13.98Z" fill="#d1d0d0"/><path d="M156.36,213.83c1.98-5.56,5.28-13.39,10-17.02,2.66-.52,1.57-.62,4.13.44l.95,1.76,1.23.18.97-.54c1.4,2.4,1.1,6.43.43,9.02-.99,3.95-3.57,7.32-7.14,9.29-3.84,2.1-9.18,2.78-10.84-2.18l.25-.96Z" fill="#b9b8b8"/><path d="M156.36,213.83c1.98-5.56,5.28-13.39,10-17.02,2.66-.52,1.57-.62,4.13.44-.5,5.14-6.02,12.42-8.56,17.2-.43.81-3.31.65-4.29.67l-1.29-1.29Z" fill="#e9e9e9"/><path d="M171.45,199l1.23.18c-.03,6.22,1.26,14.74-6.18,16.23,2.99-5.6,6.79-7.87,4.95-16.41Z" fill="#3d3d3e"/><path d="M603.51,240.53c5.29.2,14.3-.36,16.73,5.02.58,4.11-1.05,7.18-3.18,10.48-2.54.57-11.21,1.08-13.46.19-6.39-2.5-1.6-11.88-.09-15.69Z" fill="#e9e9e9"/><path d="M756.79,728.93c3.4-7.54,14.31-10.01,18.86-1.64l.62,2.29c.52,3.03,1.03,4.36-1.73,6.47-7.62,5.28-11.71,4.92-17.68-2.3l-.06-4.82Z" fill="#3d3d3e"/><path d="M756.79,728.93c3.4-7.54,14.31-10.01,18.86-1.64-2.36,1.79-5.71,1.31-8.78,1.27-2.94-.22-6.05.63-10.07.37Z" fill="#e9e9e9"/><path d="M756.85,733.76c4.43-1.55,13.13.26,17.68,2.3-7.62,5.28-11.71,4.92-17.68-2.3Z" fill="#9f9e9f"/><path d="M775.65,727.3l.62,2.29-1-.04c-.48.46-.88.92-1.29,1.44-5.05.81-10.82,1.82-15.85.7l-.25-.93c2.69-1.17,9.39-.89,12.98-1.1l-3.99-1.1c3.07.04,6.42.53,8.78-1.27Z" fill="#9f9e9f"/><path d="M968.32,264.76c2.26-3.9,6.99-3.43,9.13-.09l1.04-1.71c4.9.66,5.23,9.34,3.69,12.96l-1.07.25-.44-2.12-1.07-.1-.71-1.89c-.29,2.83-.13,3.78-1.92,5.99-2.59,1.46-6.26.74-9.53.68-6.97-4.76-8.05-11.1.89-13.96Z" fill="#e9e9e9"/><path d="M967.44,278.72c-6.97-4.76-8.05-11.1.89-13.96-.22,4.66-.51,9.31-.89,13.96Z" fill="#d1d0d0"/><path d="M977.45,264.67l1.04-1.71c4.9.66,5.23,9.34,3.69,12.96l-1.07.25-.44-2.12-1.07-.1-.71-1.89c-1.51-3.7-3.32-3.58-4.12-6.44l.73-.92,1.96-.02Z" fill="#151516"/><path d="M628.01,257.51c3.79-10.88.57-12.47-3.08-21.66,2.84-.29,8.67,2.37,10.9,4.3,3.64,3.14,3.8,7.61,4.16,12.08-2.25,10.36-9.26,11.79-18.23,14.12,1.84-2.51,4.77-6.27,6.25-8.84Z" fill="#e9e9e9"/><path d="M628.01,257.51l.68.83c5.56,2.49,7.5-2.5,11.31-6.11-2.25,10.36-9.26,11.79-18.23,14.12,1.84-2.51,4.77-6.27,6.25-8.84Z" fill="#d1d0d0"/><path d="M759.6,748.25l1.25-.17.47.98c-2.45,8.06-7.31,22.74-17.74,21.72-1.48-.89-1.93-1.43-3.13-2.62-3.74-10.4,11.84-16.71,19.15-19.91Z" fill="#e9e9e9"/><path d="M1024.69,613.58l.97.24.47,1.68c-3.62,5.42-18.17,10.65-24.55,13.89-8.42,4.28-17.19,8.76-25.67,12.89-.37-.13-1-.65-1.35-.89l-.11-2.96c.29-.56.59-1.1.89-1.65,14-6.95,36.33-16.44,49.34-23.2Z" fill="#e9e9e9"/><path d="M596.3,313.87c-3.31-3.19-5.54-4.47-3.77-8.87l-.51,2.19c.75-8.34,14.68-5.71,19.74-4.52,5.46,11.14-5.95,14.59-13.12,12.07l-.69-.24c-.59-.21-1.08-.4-1.65-.64Z" fill="#e9e9e9"/><path d="M611.76,302.67c5.46,11.14-5.95,14.59-13.12,12.07l-.69-.24c-.59-.21-1.08-.4-1.65-.64,3.95-6.33,12.49,1.65,15.46-11.2Z" fill="#d1d0d0"/><path d="M316.16,753.22c3.11.83,5.22-1.02,6.78-3.53.11,7.06-2.6,27.51-9.78,29.98-1.33-.67-1.22-.64-2.04-1.89l-1.14.89-1.07-.56c-1.91-7.1,3.05-16.43,6.06-22.99l1.2-1.92Z" fill="#b9b8b8"/><path d="M314.97,755.14l2.84,1.59c1.02,7.78-5.3,14.76-6.69,21.06l-1.14.89-1.07-.56c-1.91-7.1,3.05-16.43,6.06-22.99Z" fill="#e9e9e9"/><path d="M321.8,545.78c3.16,5.1-1.62,119.04-5.15,127.99-3.53-8.75,1.85-19.13,2.25-30.84l1.77-69.16c.2-6.88.06-21.93,1.13-28Z" fill="#d1d0d0"/><path d="M1088.84,690.94c.95-.02,4.42-.15,4.99.35,5.39,4.7,10.47,9.8,13.16,16.57.77,1.93-.59,3.63-1.4,5.22-10.27,1.92-18.23-15.55-16.74-22.15Z" fill="#e9e9e9"/><path d="M880.32,455.24l1.44,1.01c2.05,13.11-11.05,15.06-20.93,18.49-1.18-2.48-1.8-3.44-1.92-6.26,1.79-4.41,10.04-6.13,14.06-8.46,2.72-1.57,4.78-2.97,7.34-4.77Z" fill="#d1d0d0"/><path d="M1022.82,740.72c6.64,3.59,21.54,16.91,13.93,25.03-8.5-1.67-12.12-14.12-15.75-21.21-.51-1,1.22-2.98,1.82-3.83Z" fill="#d1d0d0"/><path d="M962.97,417.12c5.81-.06,15.64-1.5,18.26,4.6-.38,2.74-.8,3.24-2.28,5.62l-.89.27c-8.55,2.58-24.58,1.48-15.1-10.49Z" fill="#e9e9e9"/><path d="M607.55,262.25l.72-.11c-.4,5.23-.95,33.71-2.53,35.28-2.43-.47-2.8-.43-4.84-1.71-.45-4.16-.38-28.25,1.43-30.87,2.19-.76,3.32-1.27,5.23-2.58Z" fill="#d1d0d0"/><path d="M150.13,364.67c5.46-.62,11.01-.77,15.99,1.6,3.32,4.08.9,6.59-2.3,9.86-7.88,1.79-21.09-1.34-13.69-11.46Z" fill="#e9e9e9"/><path d="M276.55,716.98c1.95-.11,1.99-.05,3.93.37,5.36,3.85,11.45,14.88,7.22,20.99-.94-.17-4.59-.8-5.21-1.32-4.9-4.18-9.68-14.25-5.95-20.04Z" fill="#e9e9e9"/><path d="M892.6,374.15c-2.21.46-1.78.71-3.6.05-2.31-3.91-1.91-7.89.82-11.5,1.32-1.74,4.6-1.49,6.64-1.65,4.52,1.47,7.35,1.74,9.48,5.9-.58,6.36-8.37,6.04-13.34,7.2Z" fill="#d1d0d0"/><path d="M892.6,374.15c-2.21.46-1.78.71-3.6.05-2.31-3.91-1.91-7.89.82-11.5,1.32-1.74,4.6-1.49,6.64-1.65.17,5-.04,6.27-3.63,10.34l-.23,2.76Z" fill="#e9e9e9"/><path d="M451.67,747.77c1.59-1.36,3.26-3.32,5.2-3.07,6,.8,8.09,1.82,12.4,5.67.95,2.15.87,2.3.61,4.71-4,7.48-12.01,2.48-16.56-1.88-2.14-2.05-1.69-2.64-1.65-5.43Z" fill="#9f9e9f"/><path d="M451.67,747.77c1.59-1.36,3.26-3.32,5.2-3.07,6,.8,8.09,1.82,12.4,5.67.95,2.15.87,2.3.61,4.71-5.11-1.53-13.39-4.94-18.21-7.31Z" fill="#e9e9e9"/><path d="M548.92,263.57c2.6.1,3.62-.36,5.18,1.08l.62,1.88c.21,4.42,2.18,23.99.2,26.42-2.5.19-2.92.24-5.33-.39-1.05-3.57-.68-23.72-.68-28.99Z" fill="#d1d0d0"/><path d="M799.89,662.5c2.96-5.44.29-26.11.79-32.98.11-1.5,1.33-2.25,2.31-3.14l1.96-.07c3.83,3.99.76,24.65.59,31.29-1.89,2.63-3.88,5.75-6.34,7.79l.68-2.9Z" fill="#d1d0d0"/><path d="M904.56,388.42c1.23.16,1.78.39,2.94.78-1.12,5.74-.88,17.16-.92,23.44-1.4,1.73-2.26,1.52-4.71,2.25l-1.16.03c-1.93-3.3-1.88-19.67-.46-23.9.49-1.45,2.94-2.05,4.31-2.6Z" fill="#d1d0d0"/><path d="M329.18,716.51c4.93,1.25,12.88,3.43,10.92,10.05-2.03,2.31-2.99,2.42-5.84,3.27-5.68-.5-11.62-1.71-10.66-8.69,1.43-2.57,3.06-3.2,5.58-4.64Z" fill="#e9e9e9"/><path d="M886.02,342.91c4.72-.33,7.36-.22,10.61,3.34,1.56,4.97-.23,6.58-4.67,8.89-4.45-.81-13.06-1.33-12.4-7.07,1.62-2.64,3.74-3.54,6.45-5.16Z" fill="#e9e9e9"/><path d="M210.45,373.8c.72,11.91-.78,36.04-1.22,48.95-.86,25.35-1.14,53.03-2.53,78.23-.15-.26-.31-.5-.45-.77-1.47-2.76,2.24-119.06,4.2-126.41Z" fill="#5e5e60"/><path d="M354,297.94c4.64,6.14-3.41,12.12-9.11,11.67-1.96-.15-7.32,2.16-9.39,3.11-1.45-11.32,9.88-12.3,18.51-14.79Z" fill="#e9e9e9"/><path d="M206.49,533.93c3.52,4.24,2.51,54.82,2.31,63.52-1.28-.27-.67-.07-1.8-1.38.01-11.17-2.66-53.68-.51-62.14Z" fill="#3d3d3e"/><path d="M154.12,192c3.03-.04,4.78,0,6.97,1.9.17,5.07-5.28,6.81-8.56,13.56l-.38.8-.77,1.3c-1.12-.16-2.45-.86-3.09-1.76-5.04-7.01,1.47-12.48,5.83-15.8Z" fill="#e9e9e9"/><path d="M871.47,676.22c.45,2.23.11,2.83,1.48,3.77l-.13-.7c4.49-1.53,5.83-9.71,9.31-14.08l1.13.14c1.72,2,1.19,1.16,1.76,3.86l-.96.59-.92-2.05c-2.35.72-4.71,14.85-5.29,17.7-2.57-2.84-5.93-1.59-8.48.56l-.46,1.01c-2.02-1.05-3.75-4.39-5.1-6.48l-.37-4.46,2.57,1.24c1.48-.31.81.02,1.85-1.28l3.59.18Z" fill="#1d1d1e"/><path d="M863.46,676.09l2.57,1.24c1.96,3.69,1.83,6.23,3.35,8.69l-.46,1.01c-2.02-1.05-3.75-4.39-5.1-6.48l-.37-4.46Z" fill="#818081"/><path d="M744.49,687.18l.67.58c-6.08,7.93-16.84,22.96-25.39,27.19l-.74-1.9c2.39-8.34,18.35-20.8,25.46-25.87Z" fill="#9f9e9f"/><path d="M755.93,410.44c1.34.98,2.56,1.49,3,2.84,1.68,5.15,1.17,20.14-.75,24.82-9.05-5.48-4.08-19.16-2.25-27.67Z" fill="#b9b8b8"/><path d="M852.03,657.81c5.87,4.12,6.33,15.33,13.15,9.2,1.93-.77,4.17-1.95,6.07-2.88-1.14,3.38-3.11,8.5-3.37,11.91-1.04,1.3-.38.98-1.85,1.28l-2.57-1.24.37,4.46c-2.42-3.68-5.07-5.72-7.76-10.5l-.61-.2-.26-.71,1.91-.93c1.54-2.87-5.43-5.67-5.07-10.39Z" fill="#1d1d1e"/><path d="M856.06,670.05c3.59.8,4.7,4.94,7.39,6.04l.37,4.46c-2.42-3.68-5.07-5.72-7.76-10.5Z" fill="#3d3d3e"/><path d="M800.64,300.46c5.77,2.2,12.14,2.5,14.93,6.89.41,2.63.33,3-.26,5.62l-.7.6c-6.17-1.49-8.87-3.57-15.54-4.8,1.18-3.4,1.86-4.71,1.57-8.31Z" fill="#e9e9e9"/><path d="M878.66,652.45l1.67,1.67,2.86-.48c-2.62,4.91-10.16,18.15-11.71,22.58l-3.59-.18c.26-3.41,2.23-8.52,3.37-11.91,1.71-1.16,6.08-9.36,7.41-11.69Z" fill="#9f9e9f"/><path d="M316.16,753.22c2.26-4.23,7.34-17.67,10.27-19.32,1.69-.06,3.1-.32,4.56.44.18,2.92-1.73,6.93-2.86,9.83l-.18,2.08-.6.03-1.53-3.67-2.89,7.09c-1.56,2.51-3.67,4.35-6.78,3.53Z" fill="#e9e9e9"/><path d="M325.83,742.61c.79-2.13,1.03-3.97,2.58-5.15.45,3.67-.25,3.94-.27,6.71l-.18,2.08-.6.03-1.53-3.67Z" fill="#151516"/><path d="M719.19,516.83c2.74-.13,5.38.16,6.5,2.94,2.12,5.28-1.12,6.41-4.63,7.97-.99.22-1.69.11-2.71.07-6.34-3.89-4.39-7.64.85-10.99Z" fill="#d1d0d0"/><path d="M873.44,224.44c2.68.23,4.96.12,7.16,1.53.04,2.35-2.1,3.62-4.04,6.26l2-.03.24,1.64c-4.15,1.12-5.98,1.89-9.73-.84-1.28-2.34-1.05-1.28-.77-4.01,1.25-2.49,2.8-3.13,5.16-4.55Z" fill="#e9e9e9"/><path d="M782.26,171.68c7.02,3.07,13.26,6.61,12.84,15.04-.06,1.33.34.56-.62,1.59-2.36-7.04-8.35-7.8-14.76-9.91.87-2.11,1.72-4.56,2.54-6.72Z" fill="#e9e9e9"/><path d="M969.27,194.43c3.69-.13,8.68-.91,9.73,3.44-.95,2.5-1.3,2.74-3.38,4.45-4,.62-8.46,1.23-9.64-3.75.71-2.34,1.27-2.52,3.29-4.13Z" fill="#e9e9e9"/><path d="M186.08,667.63c1.17,1.45,1.21,1.35,1.37,3.3-4.38,3.11-17,12.59-21.33,13.27.14-2.82,4.53-5.26,6.77-6.75,3.67-2.74,6.99-5.09,10.29-8.3l2.91-1.52Z" fill="#e9e9e9"/><path d="M962.45,653.05c-2.69-.09-3.45-.29-5.12-1.89l.25-1.55c3.01-3.05,4.89-3.41,9.18-3.5,2.59.19,2.89.26,5.05,1.68l.43,1.49c-1.81,2.56-6.95,4.04-9.79,3.77Z" fill="#b9b8b8"/><path d="M966.76,646.1c2.59.19,2.89.26,5.05,1.68l.43,1.49c-1.81,2.56-6.95,4.04-9.79,3.77,3.87-2.96,3.43-2.72,4.31-6.95Z" fill="#9f9e9f"/><path d="M354.21,529.5c1.49.14.78-.12,1.99,1.23.49,6.03-.28,8.17-5.38,10.63-3.8-2.17-4.48-4.9-2.35-8.91,1.28-2.41,3.28-2.31,5.75-2.95Z" fill="#e9e9e9"/><path d="M358.69,270.34c2.24.6,2.4,1.2,2.55,3.18l-.63-.43c-.95,8.93-1.19,9.39-.37,18.28-1.53.11-1.8-.11-3.23-.63-2.72-5.49-1.43-15.2,1.68-20.4Z" fill="#b9b8b8"/><path d="M891.66,378.72c4.22-.98,13.72-3.23,17.69-2.36l1.04,1.24c-.41,3.28-4.62,6.6-7.74,7-1.04-2.28-2.06-6-5.22-5.83-1.78.21-3.94.02-5.77-.05Z" fill="#9f9e9f"/><path d="M760.68,650.82c.79,2.51,1.56,5.03,2.3,7.55-1.1,2.22-1.42,2.51-1.33,4.88-.55,1.93-.83,2.29-1.86,4.04l-1.23.07c-1.47-1.68-1.3-2.33-1.51-4.7.68-4.02-.16-5.57-1.32-9.56l1.26.47,1.33-1.04.74.31,1.61-2.03Z" fill="#151516"/><path d="M347.2,495.54c2.33,1.87,2.74,28.62-.41,31.74-.48-3.13.16-5.48.03-8.42-.44-10.5-2.56-12.99.38-23.32Z" fill="#d1d0d0"/><path d="M550.62,232.04c-.59-4.93-1.84-12.39,3.86-14.36,3.94,1.31.97,8.57.7,12.58-1.48.52-3.21,1.04-4.56,1.78Z" fill="#d1d0d0"/><path d="M480.49,402.63l2.38.46.29.67c1.55,3.54,2.61,5.28,4.63,8.49-2.98,1.06-6.58-.07-9.57-1.05l-.04-1.49-1.69-3.61c.86-2.23,1.54-2.03,4.01-3.46Z" fill="#818081"/><path d="M480.49,402.63l2.19,1.06.06,1.22-.67.46c-2.09,1.45-2.93,1.9-3.9,4.34l-1.69-3.61c.86-2.23,1.54-2.03,4.01-3.46Z" fill="#d1d0d0"/><path d="M369.54,175.47c.75.27,1.21.75,1.89,1.27.42,3.29-9.55,5.98-13.51,11.96-.45.31-.73.27-1.33.39-1.29-5.98,8.54-11.6,12.95-13.62Z" fill="#e9e9e9"/><path d="M799.2,665.4c-.49.24-1.45,1.55-1.58,2.13-1.07,4.63-13.54,2.46-15.55,1.41,2.05-2.79,11.09-2.81,16.99-5.99l.83-.45-.68,2.9Z" fill="#3d3d3e"/><path d="M803.64,615.13c3.65,1.53,4.27,1.52,5.81,4.71l-.82,1.71c-2.39,1.59-4.56,1.17-7.54,1.12-2.15-1.09-2.25-1.67-3.52-3.89l6.06-3.65Z" fill="#d1d0d0"/><path d="M367.16,199.48l.46.48c1.3,4.57.64,17.22-1.4,21.63-.54-.61-1.93-2.28-2-2.96-.43-4.48.49-15.52,2.94-19.15Z" fill="#b9b8b8"/><path d="M693.84,396c.77,2.51-1.87,5.65.02,9.15l1.12-4.4.82.08c1.18,3.25.59,8.82-.18,12.19l.98,1.01-.7,1.09c-1.75.51-1.93.75-3.65.12-1.2-4.17-.38-15.33,1.61-19.24Z" fill="#9f9e9f"/><path d="M740.55,615.57c2.66.15,6.47.58,8.39,2.45.53,2.78.45,1.79-.96,4.84-2.92-.05-6.08.22-8.24-1.53-.69-2.82-.19-2.73.81-5.75Z" fill="#e9e9e9"/><path d="M464.54,167.49c2.21.18,3.11.03,4.86,1.23.6,2.07-.61,5.61-.4,8.87-3.61-.27-4.66-.28-6.19-3.67-.2-3.23.07-3.62,1.73-6.44Z" fill="#e9e9e9"/><path d="M612.71,387.31c3.05.29,10.14,2.36,12.43,4.59l-.11,1.56-1.66,1.2c-5.14-2.95-3.94-2.35-10.18-.98-1.23-2.21-.64-3.46-.48-6.37Z" fill="#818081"/><path d="M421.21,397.92l.98-.17c.48,3.71-3.75,37.47-5.32,39.97-.45-6.51,4.53-36.11,3.66-38.64l.68-1.16Z" fill="#818081"/><path d="M854.49,694.37l.68.65c1.4,4.37-6.69,17.24-8.4,22.34-.22-.54-.45-1.07-.67-1.61.23-5.57,5.83-16.07,8.39-21.37Z" fill="#818081"/><path d="M906.12,433.89c1.36.48,1.21.5,2.45,1.28,1.34,3.58,1.35,7.01-2.08,9.24-5.67-3.35-5.98-7.01-.38-10.52Z" fill="#d1d0d0"/><path d="M791.31,262.19c4.48,3.64,2.81,19.44,4.39,27.22l-.28.45-.8.05c-1.72-2.7-3.24-23.78-3.32-27.72Z" fill="#e9e9e9"/><path d="M904.75,418.27c5.37.56,6.14,6.72,3.91,10.16l-3.36-.7c-4.03-2.89-3.38-5.84-.55-9.46Z" fill="#e9e9e9"/><path d="M246.47,490.13c.83,7.57,1.02,11.42-.02,19.21l-2.75.69c-1.22-7.39.34-12.82,2.76-19.9Z" fill="#d1d0d0"/><path d="M705.43,670.38c3.75.77,5.96,3.11,6.11,6.8l-.31.25.4-1.37-.96,1.73-.99.14c-1.71-1.52-4.9.04-7.47-2.5.15-2.19,1.65-3.33,3.22-5.06Z" fill="#e9e9e9"/><path d="M757.06,662.67c-3.25-9.47-5.97-19.11-8.15-28.88l.48-.84-.37-.86-.29.71-.09-1.22.97,1.53-.87-1.03.11.7-.03-.26c1.7,1.1,5.75,16.87,6.92,20.58,1.16,4,2,5.54,1.32,9.56Z" fill="#5e5e60"/><path d="M243.71,510.03l2.75-.69c-.69,4.11.29,14.35-2.56,16.6-2.38-.83-3.11-.85-4.65-2.69l.53-1.22c1.1.51,1.15.52,2.34.76,2.25-3.58,1.73-8.6,1.59-12.76Z" fill="#b9b8b8"/><path d="M367.16,514.29c3.48.58,7.5,1.97,7.81,5.83l-2.27,2.14c-2.92-1.09-4.02-1.02-6.58-2.88-.62-2.45-.1-2.39,1.04-5.1Z" fill="#e9e9e9"/><path d="M735.46,507.75c.87-.03,1.52.4,2.41.77,1.45,2.01,1.12,1.05,1.05,3.68-1.58,2.66-1.15,1.87-4.75,3.11-2.41-.02-3.14-.71-3.75-2.86,1.09-2.57,2.71-3.25,5.04-4.71Z" fill="#818081"/><path d="M760.7,413.01c4.39,3.4,3.72,19.84,1.25,24.43l-.56-.11c.59-6.47.61-17.94-.69-24.32Z" fill="#d1d0d0"/><path d="M155.85,550.89c2.55.21,4.22.21,6.67,1.04,1.59,2.38,1.03,2.49.91,5.76-2.99-.47-4.04-.5-6.7-2.14-1.57-2.52-1.25-1.33-.89-4.67Z" fill="#e9e9e9"/><path d="M201.79,355.1l2.21.82c.67,6.07.28,10.3-.79,16.32l-.17.13-.95-.26c-1.59-7.72.09-9.91-.31-17.02Z" fill="#e9e9e9"/><path d="M752.38,467.02l1.28-.25.63.63c-1.46,4.29-1.53,5.64-5.77,6.19-1.78-1.8-2.19-2.49-2.33-4.83,2.36-1.82,2.88-1.34,6.2-1.75Z" fill="#9f9e9f"/><path d="M421.9,377.08c1.51,3.45-.6,13.8-2.05,17.41-3.05-5.99-.41-11.76,2.05-17.41Z" fill="#e9e9e9"/><path d="M857.09,698.74c1.61.8.88.26,2.03,2-.46,3.93-2.68,6.81-4.85,10.08l-1.3.47-.72-.8c.53-3.35,3.3-8.51,4.84-11.75Z" fill="#b9b8b8"/><path d="M602.58,215.88c3.18,2.97,2.75,11.87,2.7,15.93-1.04-.75-1.57-1.43-2.41-2.37-1.28-5.01-.88-8.45-.29-13.56Z" fill="#d1d0d0"/><path d="M250.3,391.45c-1.15-3.2-.3-9.99,2.47-12.34,1.7,3.09.25,8.31-.43,11.81l-2.04.54Z" fill="#e9e9e9"/><path d="M763.78,756.75c1.8,4.78-6.69,14.45-11.43,16.05-.2-1.69,3.71-4.06,5.29-6.36,2.3-3.33,4.1-6.2,6.14-9.69Z" fill="#b9b8b8"/><path d="M910.18,600.02l.39.39c.2,2.04-9.37,14.11-11.21,16.65-.48-.21-.32-.29-.64-1.08,3.19-6.24,6.95-10.76,11.46-15.95Z" fill="#9f9e9f"/><path d="M452.38,275.6l.87,1.57c-2.19,4.4-.87,11.96-3.12,14.5-1.99-2.66-.19-13.32,2.25-16.06Z" fill="#d1d0d0"/><path d="M760.68,682.27c3.81,3.28,5.25,14.64,6.79,20.25l-.77.12c-1.79-3.52-4.84-15.92-6.03-20.37Z" fill="#1d1d1e"/><path d="M622.41,239.84c5.41,3.98,4.27,13.34,1.27,18.56l-.95-1.16c3.32-6.51,1.42-10.42-.32-17.41Z" fill="#9f9e9f"/><path d="M255.89,380.91c.61,4.32,1.96,14.45-4.25,15.38l-.35-1.25.21,1.17.59.06-1.17-1.62.49-1.35-1.11-1.86,2.04-.54.93,2.47.84-.19c1.27-3.26,1.47-8.64,1.78-12.28Z" fill="#818081"/><path d="M352.36,651.03l.38.38c.89,3.91-3.35,10.8-5.31,14.73l-.62-.53c.09-3.22,4.02-11.31,5.55-14.59Z" fill="#818081"/><path d="M882.88,706.46c.51,3.88,3.62,3.98,6.57,6.21-1.29,1.66-1.2,1.89-1.39,4.07-3.11-2.72-3.5-4.61-6.28-7.18l1.1-3.11Z" fill="#9f9e9f"/><path d="M370.66,204.48c3.85,3.05.96,12.63-1.37,16.2l-.54-.14c1.39-6.3,1.65-9.64,1.91-16.06Z" fill="#5e5e60"/><path d="M968.77,531.91c2.1.71,3.28,1.15,5.27,2.12.52,2.21.48,1.35-.6,3.79-2.71-.94-5.15-1.12-6.14-3.74l1.47-2.17Z" fill="#e9e9e9"/><path d="M320.4,653.2c2.22,7.58,3.36,13.4.39,20.8l-.8-.77c1.21-6.7.73-13.28.41-20.03Z" fill="#818081"/><path d="M550.62,232.04c1.35-.74,3.08-1.26,4.56-1.78-.09,2.89.41,5.51-2.64,7.1-2.47-.44-1.7-.3-3.86-2.22,1.17-1.06,1.74-1.05,3.27-1.38l-1.33-1.73Z" fill="#3d3d3e"/><path d="M726.99,643.95c3.52,2.81.83,8.48-2.08,10.8l-1.09-.35c-1.28-2.6,3.22-2.88,3.16-10.45Z" fill="rgba(29,29,30,.86)"/><path d="M878.66,652.45c1.32-2.81,1.95-4.69,4.33-6.76.25,3.58-1.13,4.46-1.07,7.03l1.27.92-2.86.48-1.67-1.67Z" fill="#3d3d3e"/><path d="M693.9,264.73c3.17,2.99,2.22,6.86,1.96,10.94-2.41-4.59-3.46-5.92-1.96-10.94Z" fill="#e9e9e9"/><path d="M206.64,355.41c.87,4.47.75,11.11-.53,15.52-1.42-2.76-.56-12.55.53-15.52Z" fill="#818081"/><path d="M363.29,274.37c.98,4.51-.27,10.26-1.41,14.65-.3-4.42-1.36-11.31,1.41-14.65Z" fill="#b9b8b8"/><path d="M958.23,607.5l.22,1.19c-1.57,4.2-3.59,6.79-6.7,9.89-.52-2.31,4.93-8.89,6.49-11.08Z" fill="#5e5e60"/><path d="M253.02,363.01l1.06,4.74c-.74,2.95-.22,5.39-1.91,7.74-1.16-2.64.3-9.59.85-12.48Z" fill="#818081"/><path d="M452.38,275.6c3.41-4.7.01-8.11,2.02-9.46,1.83,5.35,2.66,6.03-1.15,11.03l-.87-1.57Z" fill="#818081"/><path d="M210.23,354.92l.59-.22c-.54,3.25-.8,11.62-1.02,15.33-1.94-1.73-.93-13.03.43-15.11Z" fill="#5e5e60"/><path d="M451.83,263.88c.51,3.08.52,8.19-1.22,10.99-1.69-3.14-.97-8.22,1.22-10.99Z" fill="#e9e9e9"/><path d="M372.01,190.95c2.51,2.07.52,6.58-.49,9.13l-1.41-1.78c.51-2.76,1.1-4.7,1.9-7.35Z" fill="#3d3d3e"/><path d="M424.77,381.64c1.34,5.55-.48,9.36-2.27,14.65-.12-2.59,1.5-12.03,2.27-14.65Z" fill="#818081"/><path d="M959.81,627.12l.52.59c-.85,2.93-1.63,5.87-2.36,8.83l-1.21-2.24c-.08-3.07,1.31-4.55,3.04-7.18Z" fill="#818081"/><path d="M602.95,202.45c-.07,1.11-2.23,8.82-2.7,10.91-2.07-4.44.23-7.32,2.7-10.91Z" fill="#b9b8b8"/><path d="M334.1,329.65c-.53-.67-1-1.4-1.39-2.16-1.48-2.91-1.14-4.67-.18-7.59,1.38,4.49,0,4.94,3.13,9.04l-1.57.71Z" fill="#818081"/><path d="M335.67,328.94c1.03.89,2.45,2.04,3.4,2.95l-.67,2.03-4.29-4.27,1.57-.71Z" fill="#3d3d3e"/><path d="M855.02,711.15l.41.46c-.27,2.36-1.31,3.05-2.88,5.16l-.97-1.16c1.2-2,1.88-2.69,3.43-4.46Z" fill="#818081"/><path d="M613.52,237.74c1.16-.56.93-.38,2.3-.5l.75,1.48c-2.34-.06-1.39.34-3.05-.98Z" fill="#3d3d3e"/><path d="M236.14,118.88l.96-1.43c-2.21-7.44-113.66-41.57-128.8-58.78-1.33-1.51-2.65-3.38-2.41-5.5.25-2.22,1.74-4.11,3.57-5.29,5.62-3.64,14.41-3.39,20.92-3.4,41.41-.09,80.23,12.85,119.94,22.7,4.31-4.38,7.9-5.89,13.28-8.54,1.01-4.3,1.47-7.8,4.15-11.34,3.46-1.85,7.74-.75,9.07,3.01,1.57,4.43-1.46,8.69.47,13.98,1.95,3.61,2.48,7.35,3.3,11.37,22.04,8.9,104.13,41.54,112.44,61.14.74,1.75,1,3.67.17,5.44-1.02,2.18-3.23,3.35-5.44,3.99-18.29,5.33-77-10.74-97.02-16.48-10.02-2.87-20.94-7.56-31.29-8.57-.59,1.73-1.28,4.3-2.29,5.67-4.63-.42-2.59,1.45-7.05,2.35.05-3.18,1.65-1.29,1.26-4.9-2.31,2.78-3.26,3.6-6.72,3.2-2.31-1.57-2.37-2.39-3.42-5.06-.63,1.27-1.09,1.73-1.07,3.03-.89-1.45-1.94-2.02-3.32-3.01l.97-.48-1.67-1.07v-2.02Z" fill="#151516"/><path d="M263.59,58.63c1.01-4.3,1.47-7.8,4.15-11.34,3.46-1.85,7.74-.75,9.07,3.01,1.57,4.43-1.46,8.69.47,13.98-.02,4.04.84,7.68,1.54,11.67l-1.19.17c-5.76-3.53-.49-15.32-14.04-17.49Z" fill="#010101"/><path d="M243.34,120.3l-1.48-2.03c.41-5.42,9.12-6.55,13.17-.89-5.93,1.77-5.34,7.34-11.69,2.91Z" fill="#e9e9e9"/><path d="M255.03,117.39c-.56,3.94.09,3.07-2.17,5.96l-1.22-.06-.28,1c-2.31,2.78-3.26,3.6-6.72,3.2-2.31-1.57-2.37-2.39-3.42-5.06l3.11.8c-.23-1.39-.41-1.63-.98-2.93,6.35,4.42,5.76-1.15,11.69-2.91Z" fill="#b9b8b8"/><path d="M122.79,49.79c37.76-3.91,108.99,17.65,147.8,28.42,33.32,9.25,95.36,37.78,119.09,61.63-19.95,3.62-43.17-2.04-63.1-6.4-22.78-5.67-44.21-10.92-66.33-18.98,1.49-5.16,3.78-11.41,5.52-16.58,3.48,1.6,7.84,5.05,10.91,5.1.59-2.55.97-2.21.07-4.01-8.58-5.02-28.79-13.62-38.4-11.9v.89c5.03,3.19,8.56,3.46,14.43,5.05-1.88,5.34-6.08,14.56-11.64,16.95-4.44,1.91-93.43-36.34-104.57-41.21-5.72-2.5-20.89-7.68-22.85-13.74-.49-1.5,0-1.89.71-3.17,2.38-1.79,5.36-1.76,8.36-2.05Z" fill="#e9e9e9"/><path d="M256.19,94.85c6.32,3.77,2.77,11.11.25,16.22l-.97.03c-2.04-.96-4.67-1.97-6.8-2.86,2.73-4.42,5.05-8.82,7.51-13.39Z" fill="#d1d0d0"/></g></svg>