<svg version="1.1" xmlns="http://www.w3.org/2000/svg" style="display: block;" viewBox="0 0 2048 2048" width="1024" height="1024" preserveAspectRatio="none">
<defs>
	<linearGradient id="Gradient1" gradientUnits="userSpaceOnUse" x1="1388.86" y1="752.632" x2="1369.36" y2="762.881">
		<stop class="stop0" offset="0" stop-opacity="1" stop-color="rgb(63,62,63)"/>
		<stop class="stop1" offset="1" stop-opacity="1" stop-color="rgb(88,86,89)"/>
	</linearGradient>
	<linearGradient id="Gradient2" gradientUnits="userSpaceOnUse" x1="447.941" y1="858.277" x2="453.224" y2="870.933">
		<stop class="stop0" offset="0" stop-opacity="1" stop-color="rgb(83,81,83)"/>
		<stop class="stop1" offset="1" stop-opacity="1" stop-color="rgb(107,104,104)"/>
	</linearGradient>
	<linearGradient id="Gradient3" gradientUnits="userSpaceOnUse" x1="1470.29" y1="311.209" x2="1422.24" y2="308.625">
		<stop class="stop0" offset="0" stop-opacity="1" stop-color="rgb(61,59,63)"/>
		<stop class="stop1" offset="1" stop-opacity="1" stop-color="rgb(87,86,87)"/>
	</linearGradient>
	<linearGradient id="Gradient4" gradientUnits="userSpaceOnUse" x1="311.85" y1="991.134" x2="410.197" y2="1036.17">
		<stop class="stop0" offset="0" stop-opacity="1" stop-color="rgb(58,58,59)"/>
		<stop class="stop1" offset="1" stop-opacity="1" stop-color="rgb(85,83,84)"/>
	</linearGradient>
	<linearGradient id="Gradient5" gradientUnits="userSpaceOnUse" x1="1180.95" y1="299.023" x2="1208.69" y2="403.292">
		<stop class="stop0" offset="0" stop-opacity="1" stop-color="rgb(83,81,83)"/>
		<stop class="stop1" offset="1" stop-opacity="1" stop-color="rgb(113,111,112)"/>
	</linearGradient>
</defs>
<path transform="translate(0,0)" fill="rgb(80,79,80)" d="M 521.418 1782.11 C 508.915 1785.4 482.899 1780.1 470.91 1774.24 C 456.869 1767.28 446.24 1754.94 441.438 1740.02 C 424.929 1687.61 475.69 1616.13 489.046 1566.09 C 498.881 1529.24 497.499 1493.13 515.241 1459.39 C 537.353 1417.35 569.401 1405.33 611.571 1390.63 C 625.815 1385.02 639.188 1377.62 653.871 1373.13 C 699.879 1359.06 757.906 1364.37 773.465 1418.69 C 777.625 1434.92 774.946 1447.38 766.6 1461.6 C 730.862 1522.52 664.417 1503.83 630.288 1546.41 C 583.247 1605.11 649.641 1674.19 581.792 1748.86 C 568.368 1763.63 552.292 1775.65 532.683 1780.6 C 528.986 1781.53 525.213 1781.86 521.418 1782.11 z M 523.214 1768.9 C 534.813 1765.48 541.577 1764.05 551.798 1756.77 C 587.49 1731.36 603.921 1691.24 602.233 1648.27 C 601.815 1637.64 599.243 1627.11 598.682 1616.48 C 597.266 1584.05 601.352 1558.65 623.97 1534.61 C 663.144 1492.97 727.232 1506.18 755.824 1450.78 C 759.791 1443.09 764.869 1435.83 761.922 1426.69 C 755.53 1406.85 748.513 1396.74 729.613 1387.03 C 719.87 1382.02 707.526 1378.49 696.724 1379.48 C 660.255 1382.03 632.191 1397.63 599.277 1411.53 C 588 1416.29 577.263 1418.12 566.485 1424.41 C 522.11 1450.33 513.116 1499.05 506.938 1545.84 C 504.982 1560.66 499.684 1576.71 495.946 1591.25 C 483.072 1633.71 452.471 1672.75 451.823 1718.48 C 451.634 1731.89 460.458 1747.87 470.492 1756.45 C 482.409 1766.64 508.058 1773.96 523.214 1768.9 z"/>
<path transform="translate(0,0)" fill="rgb(212,210,207)" d="M 521.418 1782.11 C 523.801 1780.46 532.94 1778.85 536.364 1777.73 C 556.41 1771.2 567.087 1760.3 581.532 1745.85 C 608.746 1718.64 613.658 1681.87 612.134 1644.99 C 610.829 1613.41 604.442 1579.77 623.347 1551.92 C 651.436 1507.43 709.092 1517.83 744.821 1484.62 C 758.665 1471.75 769.134 1455.78 773.145 1437.17 C 773.835 1433.91 773.054 1425.02 773.323 1420.72 L 773.465 1418.69 C 777.625 1434.92 774.946 1447.38 766.6 1461.6 C 730.862 1522.52 664.417 1503.83 630.288 1546.41 C 583.247 1605.11 649.641 1674.19 581.792 1748.86 C 568.368 1763.63 552.292 1775.65 532.683 1780.6 C 528.986 1781.53 525.213 1781.86 521.418 1782.11 z"/>
<path transform="translate(0,0)" fill="rgb(80,79,80)" d="M 645.191 1506.52 C 648.824 1506.3 653.517 1505.21 656.286 1506.61 C 654.735 1508.98 647.115 1512.02 644.052 1513.92 C 611.492 1534.04 602.907 1540.81 587.883 1573.66 C 587.475 1575.99 586.612 1578.65 584.697 1579.98 L 583.357 1578.91 C 579.534 1563.93 595.358 1533.68 607.755 1524.25 C 619.037 1515.67 630.039 1505.99 645.191 1506.52 z"/>
<path transform="translate(0,0)" fill="rgb(80,79,80)" d="M 1060.25 1166.89 C 1053.18 1147.86 1061.75 1118.52 1082.83 1110.05 C 1087.88 1108.02 1097.39 1108.06 1104.22 1105.99 C 1126.54 1114.57 1144.3 1128.81 1135.35 1157.16 C 1133.47 1163.15 1125.47 1172.89 1120.06 1176.28 C 1117.58 1179.62 1116.74 1180.31 1113.29 1182.69 L 1112.84 1184.29 C 1116.36 1186.02 1120.23 1186.04 1124.18 1186.42 C 1204.74 1198.76 1257.54 1264.69 1205.96 1338.97 C 1184.42 1370 1148.26 1396.19 1122.18 1424.08 C 1098.47 1449.43 1080.82 1477.97 1058.03 1503.18 C 1050.77 1511.18 1042.62 1518.32 1033.73 1524.45 C 1028.54 1528.02 1016.6 1534.93 1010.65 1536.16 C 979.22 1542.65 940.295 1539.34 921.545 1509.07 C 913.604 1496.25 909.048 1486.74 912.039 1471.33 C 936.86 1399.84 1037.84 1406.77 1058.63 1330.74 C 1055.8 1324.29 1053.33 1318.93 1049.66 1313.03 C 1041.22 1299.47 1008.12 1258.4 1017.73 1241.13 C 1016.29 1226.06 1028.13 1212.07 1038.88 1202.78 C 1050.7 1192.56 1064.19 1188.97 1078.85 1185.02 C 1069.37 1179.68 1065.08 1176.63 1060.25 1166.89 z M 1100.96 1171.78 C 1115.64 1168.24 1121.55 1154.75 1122.29 1141.01 C 1115.24 1127.04 1110.94 1121.41 1094.19 1121.99 C 1060.79 1135.51 1068.45 1178.56 1100.96 1171.78 z M 1073.89 1333.29 C 1067.84 1362.06 1041.22 1386.25 1017.48 1401.96 C 987.203 1422 900.59 1453.09 935.175 1502.83 C 947.26 1520.22 979.645 1530.08 999.814 1524.88 C 1048.86 1510.55 1066.83 1462.03 1099.37 1427.46 C 1135.09 1389.51 1176.69 1361.62 1203.09 1315.31 C 1224.89 1277.06 1204.63 1234.06 1167.86 1215.28 C 1151.78 1207.07 1112.97 1194.93 1095.3 1196.21 C 1068.55 1202.31 1036.24 1210.42 1030.87 1242.92 C 1030.46 1245.26 1030.07 1247.59 1029.69 1249.93 C 1031.74 1254.66 1035.99 1264.78 1038.57 1268.9 C 1047.2 1282.69 1057.67 1295.77 1065.41 1310.2 C 1069.18 1317.24 1071.11 1325.71 1073.89 1333.29 z"/>
<path transform="translate(0,0)" fill="rgb(80,79,80)" d="M 1060.25 1166.89 C 1053.18 1147.86 1061.75 1118.52 1082.83 1110.05 C 1087.88 1108.02 1097.39 1108.06 1104.22 1105.99 C 1126.54 1114.57 1144.3 1128.81 1135.35 1157.16 C 1133.47 1163.15 1125.47 1172.89 1120.06 1176.28 C 1118.7 1176.82 1118.39 1176.87 1117.29 1177.62 C 1102.81 1187.43 1085.41 1186.44 1070.99 1177 C 1066.64 1174.15 1063.8 1170.79 1060.25 1166.89 z M 1100.96 1171.78 C 1115.64 1168.24 1121.55 1154.75 1122.29 1141.01 C 1115.24 1127.04 1110.94 1121.41 1094.19 1121.99 C 1060.79 1135.51 1068.45 1178.56 1100.96 1171.78 z"/>
<path transform="translate(0,0)" fill="rgb(212,210,207)" d="M 1060.25 1166.89 C 1063.8 1170.79 1066.64 1174.15 1070.99 1177 C 1085.41 1186.44 1102.81 1187.43 1117.29 1177.62 C 1118.39 1176.87 1118.7 1176.82 1120.06 1176.28 C 1117.58 1179.62 1116.74 1180.31 1113.29 1182.69 L 1112.84 1184.29 C 1116.36 1186.02 1120.23 1186.04 1124.18 1186.42 L 1122.97 1186.53 C 1107.28 1187.91 1091.9 1186.24 1076.12 1188.91 C 1043.52 1194.42 1028.51 1211.52 1017.73 1241.13 C 1016.29 1226.06 1028.13 1212.07 1038.88 1202.78 C 1050.7 1192.56 1064.19 1188.97 1078.85 1185.02 C 1069.37 1179.68 1065.08 1176.63 1060.25 1166.89 z"/>
<path transform="translate(0,0)" fill="rgb(59,57,58)" d="M 1073.41 1358.98 C 1074.8 1355.87 1083.98 1339.45 1086.09 1338.16 C 1096.46 1347.92 1066.17 1379.57 1057.11 1385.42 L 1056 1383.76 C 1056.42 1378.38 1069.2 1364.25 1073.41 1358.98 z"/>
<path transform="translate(0,0)" fill="rgb(212,210,207)" d="M 1057.11 1385.42 L 1056 1383.76 C 1056.42 1378.38 1069.2 1364.25 1073.41 1358.98 C 1068.82 1377.33 1060.62 1375.97 1057.11 1385.42 z"/>
<path transform="translate(0,0)" fill="rgb(80,79,80)" d="M 996.31 875.751 C 1010.97 870.515 1009.98 873.313 1022.38 871.557 C 1044.94 868.363 1066.13 869.147 1087.47 878.139 C 1099.82 883.344 1105.47 892.373 1112.3 902.932 C 1097.24 954.518 1018.06 936.367 998.394 967.75 L 1000.53 978.322 C 1005.08 1001.73 1021.66 1028.56 1004.73 1052.69 C 987.206 1077.66 945.367 1084.93 920.569 1067.45 C 901.601 1054.47 903.346 1018.33 909.265 998.61 C 916.493 974.534 921.157 951.136 924.476 926.182 C 925.69 918.095 931.509 901.765 939.036 899.494 C 947.39 890.117 959.666 887.239 971.235 882.507 C 972.335 881.039 983.623 875.352 986.01 875.04 C 989.982 876.131 992.109 875.388 996.31 875.751 z M 984.708 1052.66 C 991.406 1045.71 999.909 1035.66 998.664 1025.84 C 994.092 989.797 963.89 956.427 1016.63 939.816 C 1033.69 934.446 1088.43 927.295 1095.79 906.063 C 1098.19 888.824 1042.28 881.31 1031.1 882.326 C 1007.24 886.977 979.96 888.958 958.142 901.091 C 954.75 902.945 945.066 910.2 943.882 913.161 C 934.344 937.006 930.716 963.341 926.023 988.447 C 923.292 1004.21 914.437 1020.42 918.382 1036.56 C 922.27 1052.46 931.434 1059.82 946.909 1063.37 C 963.804 1067.24 971.54 1062.15 984.708 1052.66 z"/>
<path transform="translate(0,0)" fill="rgb(212,210,207)" d="M 971.235 882.507 C 972.335 881.039 983.623 875.352 986.01 875.04 C 989.982 876.131 992.109 875.388 996.31 875.751 C 990.203 879.015 981.784 881.04 974.952 883.452 C 961.566 888.176 951.375 892.698 939.036 899.494 C 947.39 890.117 959.666 887.239 971.235 882.507 z"/>
<path transform="translate(0,0)" fill="rgb(80,79,80)" d="M 1285.11 765.32 C 1288.32 766.479 1294.76 765.838 1298.24 765.305 C 1306.74 770.221 1311.13 765.579 1321.82 769.999 C 1328.9 769.823 1349.41 773.451 1354.11 777.421 C 1365.65 778.547 1383.84 791.348 1392.7 798.573 L 1394.01 800.093 L 1396.41 798.001 L 1397.76 798.482 L 1398.5 800.557 L 1397.57 802.503 L 1396.19 802.355 C 1398.05 811.861 1401.42 813.289 1401.34 822.193 C 1398.26 853.652 1350.61 869.399 1327.5 885.012 C 1298.15 904.83 1285.54 927.998 1250.19 937.608 C 1225.4 938.544 1193.94 936.606 1192.66 904.801 C 1191.32 882.208 1216.02 871.703 1233.4 864.765 C 1251.38 857.583 1266.85 858.378 1280.59 843.125 L 1281.53 842.07 C 1277.76 839.145 1275.59 837.778 1272.7 833.871 C 1257.12 824.913 1249.85 811.001 1250.12 793.226 C 1262.97 771.924 1264.42 775.282 1285.11 765.32 z M 1204.54 905.599 C 1206.1 909.113 1207.63 912.691 1209.33 916.137 C 1225.96 926.774 1248.36 930.656 1265.44 918.655 C 1277.48 912.011 1283.48 904.927 1293.34 895.485 C 1319.07 870.845 1353.86 858.352 1381.58 836.32 C 1384.73 833.815 1387.38 826.573 1389.03 822.795 C 1381.49 806.335 1371.65 797.057 1354.4 790.674 C 1333.12 782.797 1312.69 776.648 1289.63 778.269 C 1222.36 794.958 1308.32 829.975 1291.86 851.846 C 1273.79 875.87 1217.77 868.254 1204.54 905.599 z"/>
<path transform="translate(0,0)" fill="rgb(212,210,207)" d="M 1354.11 777.421 C 1365.65 778.547 1383.84 791.348 1392.7 798.573 L 1394.01 800.093 L 1396.41 798.001 L 1397.76 798.482 L 1398.5 800.557 L 1397.57 802.503 L 1396.19 802.355 C 1398.05 811.861 1401.42 813.289 1401.34 822.193 C 1398.26 853.652 1350.61 869.399 1327.5 885.012 C 1298.15 904.83 1285.54 927.998 1250.19 937.608 C 1248.03 937.335 1245.96 937 1243.81 936.663 C 1246.05 936.344 1248.29 935.955 1250.51 935.496 C 1279.85 929.169 1294.49 905.649 1317.61 889.137 C 1336.42 875.814 1357.14 867.077 1376.06 853.852 C 1390.63 843.668 1401.77 833.107 1396.48 813.4 C 1391.08 793.271 1370.63 787.273 1354.85 777.867 L 1354.11 777.421 z"/>
<path transform="translate(0,0)" fill="rgb(212,210,207)" d="M 1285.11 765.32 C 1288.32 766.479 1294.76 765.838 1298.24 765.305 C 1306.74 770.221 1311.13 765.579 1321.82 769.999 C 1293.35 770.172 1266.5 762.657 1252.4 795.455 C 1253.11 818.947 1261.06 818.591 1272.7 833.871 C 1257.12 824.913 1249.85 811.001 1250.12 793.226 C 1262.97 771.924 1264.42 775.282 1285.11 765.32 z"/>
<path transform="translate(0,0)" fill="rgb(80,79,80)" d="M 1273.56 579.717 C 1283.46 572.1 1285.2 540.398 1308.3 558.381 C 1315.81 568.792 1316.66 577.404 1304.26 584.405 L 1306.43 590.876 C 1307.07 593.676 1307.68 596.481 1308.27 599.292 C 1289.86 639.997 1251.04 614.984 1232.49 642.672 L 1232.32 642.918 C 1239.31 667.484 1249.46 692.375 1218.53 704.467 C 1206.69 709.098 1189.1 706.989 1181.53 695.975 C 1166.55 680.951 1164.68 632.831 1175.18 614.973 C 1186.02 585.69 1210.85 577.225 1237.78 568.441 C 1246.57 565.573 1257.47 540.958 1273.24 562.253 C 1276.92 568.514 1276.87 573.468 1273.56 579.717 z M 1293.89 592.078 C 1282.96 580.055 1274.86 588.716 1260.31 586.567 C 1257.21 586.077 1252.94 583.932 1249.95 582.613 C 1243.16 580.954 1215.1 591.443 1208.3 595.158 C 1179.05 611.128 1173.14 656.121 1188.53 683.378 C 1199.85 703.427 1218.9 696.473 1227.27 677.889 L 1227.07 676.574 C 1224.42 659.682 1215.49 644.855 1224.66 629.87 C 1237.55 608.808 1291.81 621.789 1294.36 592.973 L 1293.89 592.078 z"/>
<path transform="translate(0,0)" fill="rgb(92,90,91)" d="M 1273.56 579.717 C 1283.46 572.1 1285.2 540.398 1308.3 558.381 C 1315.81 568.792 1316.66 577.404 1304.26 584.405 L 1297.11 582.675 L 1293.89 584.879 C 1293.54 588.247 1293.37 588.641 1293.89 592.078 C 1282.96 580.055 1274.86 588.716 1260.31 586.567 C 1264.82 582.866 1269.67 585.189 1273.56 579.717 z"/>
<path transform="translate(0,0)" fill="rgb(80,79,80)" d="M 1308.3 558.381 C 1315.81 568.792 1316.66 577.404 1304.26 584.405 L 1297.11 582.675 C 1295.43 579.526 1295.51 581.054 1296.42 577.979 C 1300.23 577.4 1302.35 577.014 1303.36 572.863 C 1305.7 563.189 1299.3 564.928 1295.49 559.514 C 1298.05 557.458 1304.7 558.271 1308.3 558.381 z"/>
<path transform="translate(0,0)" fill="rgb(212,210,207)" d="M 1181.53 695.975 C 1166.55 680.951 1164.68 632.831 1175.18 614.973 C 1168.42 642.803 1169.69 669.958 1181.53 695.975 z"/>
<path transform="translate(0,0)" fill="rgb(212,210,207)" d="M 1273.24 562.253 C 1276.92 568.514 1276.87 573.468 1273.56 579.717 C 1269.67 585.189 1264.82 582.866 1260.31 586.567 C 1257.21 586.077 1252.94 583.932 1249.95 582.613 C 1269.03 587.268 1273.49 578.987 1273.24 562.253 z"/>
<path transform="translate(0,0)" fill="rgb(212,210,207)" d="M 1297.11 582.675 L 1304.26 584.405 L 1306.43 590.876 L 1305.07 590.496 C 1301.25 585.904 1299.62 585.863 1293.89 584.879 L 1297.11 582.675 z"/>
<path transform="translate(0,0)" fill="rgb(146,143,142)" d="M 1257.41 559.297 C 1263.59 560.642 1268.8 565.38 1266.96 571.992 L 1264.69 572.581 C 1262.53 571.19 1263.29 571.579 1260.8 570.869 L 1260.22 571.322 L 1257.93 568.818 C 1256.75 564.381 1256.66 563.815 1257.41 559.297 z"/>
<path transform="translate(0,0)" fill="rgb(80,79,80)" d="M 802.566 695.223 C 797.543 669.438 778.479 642.532 791.927 617.557 C 805.041 593.202 838.122 574.331 863.735 566.367 C 854.702 573.199 841.657 578.091 831.408 583.785 C 813.131 593.941 793.925 610.405 789.74 631.916 C 786.327 650.958 798.688 666.079 802.804 681.262 C 803.355 678.332 803.616 673.981 805.358 672.243 C 808.841 678.153 808.326 685.345 812.316 689.377 C 813.873 693.626 810.867 704.153 809.015 708.116 C 800.021 727.354 773.941 747.337 755.912 758.116 C 725.036 776.512 691.276 788.538 658.631 802.759 C 618.133 820.402 577.47 836.45 536.646 853.112 C 506.099 865.58 432.916 882.422 433.799 924.167 L 432.588 923.977 C 430.594 920.03 430.625 919.099 429.873 914.627 L 429.098 914.402 C 427.13 922.527 427.858 930.112 426.584 934.432 C 426.112 933.354 424.831 930.548 424.695 929.55 C 418.429 883.824 463.22 870.905 495.539 857.316 C 520.613 846.773 543.931 838.719 568.017 828.81 C 583.42 822.432 598.759 815.901 614.033 809.22 C 623.941 804.852 637.559 797.828 647.724 795.378 C 663.499 786.616 685.727 780.842 701.222 773.15 C 736.593 755.592 787.726 734.522 802.566 695.223 z"/>
<path transform="translate(0,0)" fill="rgb(212,210,207)" d="M 802.566 695.223 C 797.543 669.438 778.479 642.532 791.927 617.557 C 805.041 593.202 838.122 574.331 863.735 566.367 C 854.702 573.199 841.657 578.091 831.408 583.785 C 813.131 593.941 793.925 610.405 789.74 631.916 C 786.327 650.958 798.688 666.079 802.804 681.262 C 819.589 732.452 690.736 781.912 654.598 793.685 C 652.577 794.343 649.845 795.044 647.724 795.378 C 663.499 786.616 685.727 780.842 701.222 773.15 C 736.593 755.592 787.726 734.522 802.566 695.223 z"/>
<path transform="translate(0,0)" fill="rgb(80,79,80)" d="M 793.773 1297.44 C 802.703 1297.05 811.429 1300.18 818.077 1306.16 C 846.32 1331.92 824.633 1383.04 785.835 1382.29 C 758.789 1377.72 753.999 1366.74 747.112 1342.07 C 751.908 1325.24 752.718 1313.01 769.977 1303.2 C 779.497 1297.79 783.296 1297.9 793.773 1297.44 z M 791.25 1365.95 C 797.831 1365.63 803.36 1361.2 808.141 1357.02 C 824.127 1343.03 814.058 1310.07 791.999 1312.3 C 781.352 1314.32 774.746 1316.65 768.256 1325.95 C 759.877 1337.96 762.88 1355.24 775.371 1363.08 C 781.177 1366.72 784.763 1366.1 791.25 1365.95 z"/>
<path transform="translate(0,0)" fill="rgb(80,79,80)" d="M 698.744 1315.08 C 700.523 1288.59 761.67 1291.57 748.515 1330.12 C 745.913 1337.05 745.093 1339.82 740.948 1345.97 C 708.181 1363.46 702.475 1335.49 696.711 1336.38 C 692.283 1346.55 689.755 1346.69 680.482 1352.09 C 671.584 1352.27 667.007 1353.64 661.387 1345.55 L 660.589 1345.66 C 654.907 1359.23 647.618 1372.15 630.865 1366.44 C 628.31 1365.64 627.325 1365.01 624.97 1363.78 C 608.51 1354.33 611.617 1309.68 656.177 1326.81 C 658.757 1320.35 661.753 1312.06 668.586 1309.08 C 681.919 1303.25 688.618 1315.06 696.601 1318.03 L 698.744 1315.08 z M 723.416 1337.32 C 739.453 1329.54 738.165 1311.77 721.735 1311.96 C 715.65 1316.67 709.015 1325.31 713.142 1333.67 C 714.577 1336.57 719.374 1336.99 722.406 1337.63 L 723.416 1337.32 z M 640.975 1356.93 C 651.008 1346.31 648.952 1335.2 632.485 1335.93 C 624.695 1343.86 627.331 1356.98 640.975 1356.93 z"/>
<path transform="translate(0,0)" fill="rgb(80,79,80)" d="M 698.744 1315.08 C 700.523 1288.59 761.67 1291.57 748.515 1330.12 L 747.37 1329.6 C 745.318 1334.27 743.732 1338.48 739.867 1341.94 C 734.394 1346.9 727.125 1349.4 719.758 1348.85 C 699.49 1347.3 697.753 1331.13 698.744 1315.08 z M 723.416 1337.32 C 739.453 1329.54 738.165 1311.77 721.735 1311.96 C 715.65 1316.67 709.015 1325.31 713.142 1333.67 C 714.577 1336.57 719.374 1336.99 722.406 1337.63 L 723.416 1337.32 z"/>
<path transform="translate(0,0)" fill="rgb(80,79,80)" d="M 660.589 1345.66 C 657.331 1332 655.854 1313.14 673.579 1310.81 C 699.794 1307.35 701.609 1350.79 674.347 1350.02 C 669.605 1349.88 665.691 1347.46 661.387 1345.55 L 660.589 1345.66 z"/>
<path transform="translate(0,0)" fill="rgb(212,210,207)" d="M 624.97 1363.78 C 608.51 1354.33 611.617 1309.68 656.177 1326.81 C 658.757 1320.35 661.753 1312.06 668.586 1309.08 C 681.919 1303.25 688.618 1315.06 696.601 1318.03 L 698.744 1315.08 C 697.753 1331.13 699.49 1347.3 719.758 1348.85 C 727.125 1349.4 734.394 1346.9 739.867 1341.94 C 743.732 1338.48 745.318 1334.27 747.37 1329.6 L 748.515 1330.12 C 745.913 1337.05 745.093 1339.82 740.948 1345.97 C 708.181 1363.46 702.475 1335.49 696.711 1336.38 C 692.283 1346.55 689.755 1346.69 680.482 1352.09 C 671.584 1352.27 667.007 1353.64 661.387 1345.55 C 665.691 1347.46 669.605 1349.88 674.347 1350.02 C 701.609 1350.79 699.794 1307.35 673.579 1310.81 C 655.854 1313.14 657.331 1332 660.589 1345.66 C 654.907 1359.23 647.618 1372.15 630.865 1366.44 L 643.714 1365.49 C 656.81 1355.38 666.132 1332.82 645.237 1325.04 C 632.672 1320.37 620.916 1328.2 618.911 1341.16 C 617.324 1351.42 619.351 1355.49 624.97 1363.78 z"/>
<path transform="translate(0,0)" fill="rgb(212,210,207)" d="M 632.485 1335.93 C 648.952 1335.2 651.008 1346.31 640.975 1356.93 C 627.331 1356.98 624.695 1343.86 632.485 1335.93 z M 638.164 1354.18 C 643.419 1351.53 645.622 1348.48 643.355 1342.34 C 640.985 1340.67 642.006 1340.93 639.383 1340.58 C 634.408 1341.41 634.593 1340.56 631.481 1343.38 C 629.693 1349.52 632.926 1351.88 638.164 1354.18 z"/>
<path transform="translate(0,0)" fill="rgb(92,90,91)" d="M 1169.81 419.598 C 1182.76 417.529 1183.62 404.569 1188.51 402.76 C 1190.14 406.42 1189.6 410.42 1189.5 414.505 C 1178.2 426.124 1156.75 436.893 1153.08 441.635 C 1139.33 452.409 1100.11 462.064 1081.49 474.826 C 1052.44 494.741 1029.28 519.188 998.073 535.247 C 986.581 540.64 971.497 546.503 959.589 549.939 C 911.88 563.702 857.106 570.293 818.456 603.826 C 808.524 612.443 800.344 618.828 797.917 633.085 C 794.627 652.416 812.839 672.483 812.316 689.377 C 808.326 685.345 808.841 678.153 805.358 672.243 C 803.616 673.981 803.355 678.332 802.804 681.262 C 798.688 666.079 786.327 650.958 789.74 631.916 C 793.925 610.405 813.131 593.941 831.408 583.785 C 841.657 578.091 854.702 573.199 863.735 566.367 C 872.189 563.335 881.976 559.11 890.75 557.038 C 926.979 548.48 967.724 539.75 1000.57 521.563 C 1026.65 507.12 1051.84 476.636 1077.68 463.288 C 1109.36 446.924 1138.94 439.332 1169.81 419.598 z"/>
<path transform="translate(0,0)" fill="rgb(92,90,91)" d="M 893.351 533.517 C 907.94 528.29 982.005 508.145 994.822 509.764 C 995.56 507.854 995.511 507.99 996.009 505.87 C 998.409 505.264 997.199 505.226 999.635 506.075 C 999.013 512.803 980.882 517.34 975.08 519.258 C 935.196 532.44 893.955 541.203 854.374 555.294 C 843.381 559.208 831.788 563.114 821.321 568.381 C 796.376 582.781 767.26 606.201 757.6 634.167 C 757.53 634.315 757.459 634.463 757.388 634.612 C 757.6 635.033 757.811 635.454 758.023 635.876 C 762.394 654.011 782.501 683.993 774.471 702.836 C 767.714 718.694 744.947 735.882 729.554 741.591 C 720.113 745.093 697.889 754.264 689.455 750.695 L 689.432 749.399 C 696.016 745.16 713.313 741.379 722.788 735.369 C 744.176 721.804 758.724 713.932 766.002 689.252 C 758.439 659.534 736.896 640.205 757.096 609.334 C 785.634 565.719 844.679 544.824 893.351 533.517 z"/>
<path transform="translate(0,0)" fill="rgb(146,143,142)" d="M 766.002 689.252 C 758.439 659.534 736.896 640.205 757.096 609.334 C 785.634 565.719 844.679 544.824 893.351 533.517 C 889.25 540.296 873.168 541.832 865.462 544.273 C 831.116 555.149 799.704 567.335 773.079 592.526 C 770.791 594.638 761.416 608.042 759.928 610.908 C 753.239 623.79 749.358 627.706 752.154 641.864 C 756.099 661.841 775.329 684.058 764.35 703.072 C 755.082 719.122 730.373 731.576 719.613 743.297 C 736.107 738.185 750.543 729.781 760.975 716.349 C 763.807 712.702 768.061 710.518 770.346 705.85 C 775.643 695.032 774.375 687.23 771.158 676.496 C 767.991 665.926 752.686 644.636 757.388 634.612 C 757.6 635.033 757.811 635.454 758.023 635.876 C 762.394 654.011 782.501 683.993 774.471 702.836 C 767.714 718.694 744.947 735.882 729.554 741.591 C 720.113 745.093 697.889 754.264 689.455 750.695 L 689.432 749.399 C 696.016 745.16 713.313 741.379 722.788 735.369 C 744.176 721.804 758.724 713.932 766.002 689.252 z"/>
<path transform="translate(0,0)" fill="rgb(92,90,91)" d="M 1417.07 527.183 C 1411.16 529.36 1406.08 531.983 1399.9 528.975 C 1369.4 514.185 1392.52 492.141 1414.49 486.373 C 1428.64 482.658 1446.53 480.37 1459.42 488.98 C 1494.16 512.191 1460.36 549.461 1437.86 566.127 C 1426.11 574.838 1417.77 581.615 1403.12 584.637 C 1395.16 586.259 1386.95 586.251 1379 584.613 C 1362.84 582.28 1355.92 564.182 1368.61 554.292 C 1381.24 541.829 1393.4 542.893 1409.57 545.623 L 1409.68 546.54 C 1399.86 554.261 1378.58 556.055 1377.63 565.714 C 1380.27 571.402 1387.73 573.34 1393.49 572.706 C 1424.27 569.317 1443.24 541.673 1461.23 520.25 L 1460.29 516.489 C 1458.59 509.518 1457.91 508.186 1454.89 501.855 C 1430.45 494.308 1420.4 497.838 1400.87 512.938 C 1404.9 518.545 1411.47 522.949 1417.07 527.183 z"/>
<path transform="translate(0,0)" fill="rgb(105,104,102)" d="M 1400.87 512.938 C 1397.02 491.186 1444.02 488.535 1455.24 500.39 C 1460.48 505.929 1467.04 512.282 1461.23 520.25 L 1460.29 516.489 C 1458.59 509.518 1457.91 508.186 1454.89 501.855 C 1430.45 494.308 1420.4 497.838 1400.87 512.938 z"/>
<path transform="translate(0,0)" fill="rgb(146,143,142)" d="M 1368.61 554.292 C 1365.08 563.303 1366.38 569.194 1367.27 578.75 C 1372.4 580.826 1374.31 581.518 1379 584.613 C 1362.84 582.28 1355.92 564.182 1368.61 554.292 z"/>
<path transform="translate(0,0)" fill="url(#Gradient5)" d="M 1274.22 276.162 L 1276.52 276.831 L 1276.29 278.306 C 1269.43 281.852 1264.22 281.573 1257.31 284.916 C 1265.18 287.217 1287.46 280.083 1291.92 282.332 C 1291.62 283.888 1291.8 283.519 1291.51 283.95 C 1264.54 288.536 1237.64 292.249 1210.99 298.484 C 1205.73 299.714 1182.1 305.878 1177.77 304.942 C 1158.87 311.885 1141.19 318.355 1123.06 327.318 C 1121.42 329.871 1118.23 334.268 1117.63 337.023 C 1132.1 355.462 1185.21 373.959 1193.55 393.769 C 1205 415.23 1168.93 436.106 1153.08 441.635 C 1156.75 436.893 1178.2 426.124 1189.5 414.505 C 1189.6 410.42 1190.14 406.42 1188.51 402.76 C 1183.62 404.569 1182.76 417.529 1169.81 419.598 C 1173.13 416.337 1178.69 413.262 1180.82 409.072 C 1191.51 388.059 1113.35 361.448 1108.29 336.995 C 1107.47 332.996 1108.5 329.15 1110.71 325.781 C 1129.12 297.81 1239.1 283.761 1274.22 276.162 z"/>
<path transform="translate(0,0)" fill="rgb(212,210,207)" d="M 1193.55 393.769 C 1190.51 392.058 1184.67 384.245 1179.45 380.909 C 1164.76 371.384 1147.8 363.746 1133.3 354.145 C 1126.38 349.564 1109.5 337.395 1119.06 329.061 C 1130.7 318.921 1162.66 305.315 1177.77 304.942 C 1158.87 311.885 1141.19 318.355 1123.06 327.318 C 1121.42 329.871 1118.23 334.268 1117.63 337.023 C 1132.1 355.462 1185.21 373.959 1193.55 393.769 z"/>
<path transform="translate(0,0)" fill="url(#Gradient4)" d="M 426.584 934.432 C 427.858 930.112 427.13 922.527 429.098 914.402 L 429.873 914.627 C 430.625 919.099 430.594 920.03 432.588 923.977 L 433.799 924.167 C 439.029 934.507 446.697 967.208 442.11 977.996 C 417.496 1035.89 349.867 1065.12 297.376 1092.39 C 292.026 1095.17 260.517 1109 257.618 1101.15 L 258.371 1099.68 C 259.474 1099.87 260.578 1100.06 261.682 1100.24 C 299.737 1074.6 343.135 1058.6 381.045 1032.56 C 394.448 1023.35 413.379 1002.11 422.634 988.51 C 426.322 983.091 429.899 972.209 432.038 965.911 C 430.085 958.447 424.304 940.851 426.584 934.432 z"/>
<path transform="translate(0,0)" fill="rgb(92,90,91)" d="M 1030.89 830.124 C 1042.69 829.926 1041.1 829.282 1050.08 836.661 C 1056.05 841.57 1059.08 821.98 1075.23 829.474 C 1080.24 831.238 1081.34 832.765 1084.93 836.663 C 1088.83 837.231 1090.84 834.84 1094.57 832.181 C 1088.81 838.956 1086.73 839.804 1086.88 848.46 L 1086.9 850.155 C 1086.91 850.509 1086.92 850.863 1086.93 851.217 C 1084.34 854.151 1081.71 857.619 1078.39 859.535 C 1075.58 861.768 1071.68 863.377 1068.38 864.943 L 1067.62 864.556 C 1062.24 861.712 1056.76 859.148 1054.37 853.006 C 1051.91 858.074 1046.5 862.117 1041.85 864.991 C 1030 864.517 1025.57 865.451 1019.03 854.755 C 1013.53 862.743 1004.34 872.141 994.51 864.282 C 985.044 856.714 988.083 835.082 1001.7 834.957 C 1009.9 834.881 1014.65 840.069 1019.93 845.329 C 1020.88 841.164 1021.85 839.294 1023.6 835.336 L 1030.89 830.124 z"/>
<path transform="translate(0,0)" fill="rgb(212,210,207)" d="M 1075.23 829.474 C 1080.24 831.238 1081.34 832.765 1084.93 836.663 C 1088.83 837.231 1090.84 834.84 1094.57 832.181 C 1088.81 838.956 1086.73 839.804 1086.88 848.46 L 1086.9 850.155 C 1086.91 850.509 1086.92 850.863 1086.93 851.217 C 1084.34 854.151 1081.71 857.619 1078.39 859.535 C 1083.35 849.428 1083.47 848.691 1083.16 837.501 C 1079.83 834.462 1078.08 832.906 1075.23 829.474 z"/>
<path transform="translate(0,0)" fill="rgb(59,57,58)" d="M 1209.68 173.502 C 1214.55 173.689 1223.76 175.501 1229.03 176.25 L 1276.11 183.324 C 1322.86 190.118 1369.48 197.796 1415.94 206.353 C 1431.23 209.041 1460.8 211.647 1474.48 218.976 L 1471.91 221.614 L 1472.36 223.193 L 1476.43 225.201 L 1474.71 225.888 C 1464.12 224.989 1441.72 218.278 1429.27 216.209 C 1380.64 208.129 1333.76 200.425 1284.84 192.76 C 1263.43 189.405 1232.55 185.859 1211.46 180.142 C 1209.4 179.584 1208.44 177.556 1207.94 175.636 L 1209.68 173.502 z"/>
<path transform="translate(0,0)" fill="rgb(80,79,80)" d="M 1457.7 317.807 C 1473.18 318.655 1490.82 316.329 1503.73 307.05 C 1508.18 303.851 1503.6 295.618 1501.81 291.782 L 1498.14 290.837 C 1501.81 286.491 1508.71 284.406 1513.02 288.821 C 1521.27 297.276 1519.27 304.442 1516.73 313.979 C 1504.54 328.238 1498.21 324.154 1482.29 327.54 C 1463.49 329.604 1442.81 333.119 1423.99 326.19 C 1418.04 323.069 1414.54 316.918 1419.33 310.709 C 1429.56 297.476 1457.49 287.229 1473.09 295.279 C 1474.07 295.784 1473.89 298.448 1473.99 299.66 L 1474.02 301.789 C 1465.7 304.193 1451.25 305.228 1438.57 308.826 C 1436.06 311.235 1433.45 313.832 1430.85 316.118 C 1435.34 316.075 1454.66 315.737 1457.57 316.516 L 1457.7 317.807 z"/>
<path transform="translate(0,0)" fill="url(#Gradient3)" d="M 1423.99 326.19 C 1418.04 323.069 1414.54 316.918 1419.33 310.709 C 1429.56 297.476 1457.49 287.229 1473.09 295.279 C 1474.07 295.784 1473.89 298.448 1473.99 299.66 C 1460.65 300.761 1438.3 302.788 1429.58 313.687 C 1425.05 319.354 1427.72 322.491 1423.99 326.19 z"/>
<path transform="translate(0,0)" fill="rgb(212,210,207)" d="M 1473.99 299.66 L 1474.02 301.789 C 1465.7 304.193 1451.25 305.228 1438.57 308.826 C 1436.06 311.235 1433.45 313.832 1430.85 316.118 C 1435.34 316.075 1454.66 315.737 1457.57 316.516 L 1457.7 317.807 C 1449.87 318.332 1432.64 317.402 1428.46 321.442 L 1427.85 324.155 C 1433.63 330.108 1471.83 325.14 1482.29 327.54 C 1463.49 329.604 1442.81 333.119 1423.99 326.19 C 1427.72 322.491 1425.05 319.354 1429.58 313.687 C 1438.3 302.788 1460.65 300.761 1473.99 299.66 z"/>
<path transform="translate(0,0)" fill="rgb(80,79,80)" d="M 1274.22 276.162 C 1274.65 276.154 1275.09 276.147 1275.52 276.139 C 1340.5 265.832 1406.45 253.846 1469.08 233.271 C 1473.69 231.758 1474.88 227.406 1480.53 226.828 L 1482.61 227.688 C 1483.31 230.553 1482.97 232.55 1481.38 235.097 C 1473.32 248.057 1375.85 268.46 1356.44 272.039 C 1343.45 274.333 1330.47 276.715 1317.51 279.184 C 1310.98 280.472 1297.66 283.567 1291.51 283.95 C 1291.8 283.519 1291.62 283.888 1291.92 282.332 C 1287.46 280.083 1265.18 287.217 1257.31 284.916 C 1264.22 281.573 1269.43 281.852 1276.29 278.306 L 1276.52 276.831 L 1274.22 276.162 z"/>
<path transform="translate(0,0)" fill="rgb(92,90,91)" d="M 1474.56 355.321 C 1483.5 353.589 1497.75 357.43 1503.57 363.762 C 1532.84 395.648 1492.69 418.188 1463.05 418.449 C 1459.55 418.48 1457.73 417.566 1455.67 415.24 C 1454.53 411.144 1454.31 412.963 1455.39 409.534 C 1456.92 408.445 1475.66 405.106 1479.74 404.114 C 1486.89 402.396 1494.81 396.964 1497.74 390.032 C 1499.95 384.796 1497.9 382.372 1496.09 377.355 C 1473.81 366.877 1465.21 368.473 1446.93 384.561 C 1442.79 385.222 1439.71 387.327 1436.52 384.319 C 1435.99 380.149 1437.91 376.08 1440.55 372.94 C 1450.71 360.869 1460 357.247 1474.56 355.321 z"/>
<path transform="translate(0,0)" fill="rgb(80,79,80)" d="M 592.556 1348.12 C 604.54 1347.27 607.486 1351.55 616.968 1359.33 C 618.177 1387.51 604.368 1389.77 581.666 1380.68 C 580.974 1382.93 580.259 1385.18 579.522 1387.42 C 578.292 1391.28 577.457 1391.89 574.508 1394.59 C 568.783 1396.7 567.98 1396.27 561.874 1395.17 C 544.68 1392.07 545.738 1370 560.526 1363.93 C 568.153 1360.8 569.097 1361.71 576.704 1364.43 C 582.516 1360.16 578.985 1356.32 592.556 1348.12 z"/>
<path transform="translate(0,0)" fill="rgb(92,90,91)" d="M 1078.37 349.3 C 1046.31 313.393 1096.99 296.805 1125.5 292.828 C 1133.92 291.653 1142.78 291.046 1151 288.975 C 1154.29 288.146 1156.39 286.714 1158.86 289.473 C 1151.57 300.002 1092.46 296.954 1076.83 329.925 L 1077 331.681 C 1089.32 343.934 1091.89 351.821 1108.65 362.914 C 1123.27 372.596 1157.2 389.581 1163.35 405.98 L 1162.77 407.087 C 1153.9 406.373 1143.55 395.748 1135.81 391.327 C 1114.17 378.98 1095.9 370.102 1079.44 350.598 L 1078.37 349.3 z"/>
<path transform="translate(0,0)" fill="rgb(212,210,207)" d="M 1077 331.681 C 1089.32 343.934 1091.89 351.821 1108.65 362.914 C 1123.27 372.596 1157.2 389.581 1163.35 405.98 L 1162.77 407.087 C 1153.9 406.373 1143.55 395.748 1135.81 391.327 C 1114.17 378.98 1095.9 370.102 1079.44 350.598 L 1078.37 349.3 C 1082.44 350.887 1098.91 367.267 1104.91 371.178 C 1118.38 379.951 1131.33 384.422 1144.94 392.001 C 1147.87 393.634 1154.78 403.7 1160.49 406.073 L 1161.38 405.063 C 1160.97 403.784 1160.52 402.822 1159.21 402.195 C 1153.48 399.448 1152.27 393.208 1148.66 390.905 C 1143.07 387.78 1137.15 384.157 1131.59 381.063 C 1121.05 375.202 1073.24 342.872 1077 331.681 z"/>
<path transform="translate(0,0)" fill="rgb(80,79,80)" d="M 1320.48 426.762 C 1328.55 418.647 1334.91 415.513 1344.86 410.722 C 1357.71 404.542 1382.62 413.805 1389.55 401.729 C 1390.47 387.844 1368.74 393.541 1372.53 382.921 C 1384.53 373.797 1391.43 379.072 1401.55 387.546 C 1408.92 414.84 1393.87 416.584 1371.97 420.306 C 1364.86 421.515 1360.93 422.937 1353.52 421.429 C 1343.39 429.36 1340.38 423.241 1326.89 440.642 C 1334.56 446.833 1335.3 447.435 1345.25 449.717 C 1337.89 453.94 1333.9 457.211 1324.99 454.956 C 1310.81 451.366 1311.64 435.609 1320.48 426.762 z"/>
<path transform="translate(0,0)" fill="rgb(92,90,91)" d="M 1320.48 426.762 C 1320.54 432.996 1316.5 438.727 1318.76 446.017 C 1319.44 446.006 1320.12 445.995 1320.8 445.985 C 1325.97 438.179 1333.14 426.982 1341.92 423.348 C 1347.44 421.061 1350.32 420.233 1353.52 421.429 C 1343.39 429.36 1340.38 423.241 1326.89 440.642 C 1334.56 446.833 1335.3 447.435 1345.25 449.717 C 1337.89 453.94 1333.9 457.211 1324.99 454.956 C 1310.81 451.366 1311.64 435.609 1320.48 426.762 z"/>
<path transform="translate(0,0)" fill="rgb(59,57,58)" d="M 655.463 663.999 C 659.251 663.57 680.423 664.674 684.389 665.318 L 685.046 666.358 C 678.258 673.414 656.875 671.98 647.339 673.086 C 610.991 677.3 575.048 681.894 538.507 684.354 C 518.799 685.681 502.343 688.304 482.25 687.841 C 475.023 688.262 460.978 689.458 454.972 686.116 L 454.702 682.747 C 454.217 682.919 480.869 680.283 481.967 680.244 C 537.973 678.249 593.498 670.631 649.358 666.418 C 650.602 666.325 654.174 664.65 655.463 663.999 z"/>
<path transform="translate(0,0)" fill="rgb(59,57,58)" d="M 439.148 778.448 C 442.202 777.483 493.025 778.673 496.845 779.93 L 497.559 781.479 C 494.136 783.935 445.333 785.735 437.247 786.1 L 327 791.248 C 322.454 792.419 291.703 794.593 285.387 794.251 C 282.85 794.113 273.85 791.468 270.825 790.562 C 288.89 785.273 315.11 784.253 334.524 782.384 C 360.502 779.883 388.573 781.507 414.661 779.593 C 421.042 779.125 434.169 781.169 439.148 778.448 z"/>
<path transform="translate(0,0)" fill="rgb(80,79,80)" d="M 1094.57 832.181 C 1103.03 824.396 1116.35 828.143 1124.93 833.679 C 1131.62 845.671 1133.75 851.929 1126.25 864.889 C 1118.54 869.185 1112.53 872.592 1103.47 870.095 C 1093.66 867.392 1088.79 860.465 1086.93 851.217 C 1086.92 850.863 1086.91 850.509 1086.9 850.155 L 1086.88 848.46 C 1086.73 839.804 1088.81 838.956 1094.57 832.181 z M 1109.39 860.108 C 1114.55 856.733 1121.89 851.668 1116.36 843.001 C 1115.13 841.081 1110.98 839.202 1108.61 838.866 C 1102.04 842.861 1097.52 849.597 1102.42 856.898 C 1105.33 858.695 1105.98 859.273 1109.39 860.108 z"/>
<path transform="translate(0,0)" fill="url(#Gradient2)" d="M 521.874 834.951 L 522.134 834.976 L 522.905 835.958 C 522.391 836.473 521.867 836.978 521.332 837.471 C 512.574 845.442 430.794 866.722 416.719 881.686 C 411.758 886.961 389.278 903.453 382.145 903.252 L 379.303 901.592 L 379.264 899.79 C 400.527 869.941 486.901 833.551 521.874 834.951 z"/>
<path transform="translate(0,0)" fill="rgb(59,57,58)" d="M 535.105 805.414 C 548.277 800.263 558.967 800.051 568.558 796.622 C 609.759 781.893 633.969 767.182 679.221 767.928 C 672.642 770.371 641.283 781.884 636.368 781.79 C 621.776 787.983 598.837 793.046 585.857 800.643 C 589.286 801.115 591.532 801.354 594.901 802.33 L 594.398 803.44 C 590.79 804.46 588.719 804.921 585.025 805.562 C 570.25 805.796 531.83 815.826 523.03 810.313 C 525.34 806.811 531.271 805.966 535.105 805.414 z"/>
<path transform="translate(0,0)" fill="rgb(212,210,207)" d="M 535.105 805.414 C 544.398 810.779 568.17 803.338 585.025 805.562 C 570.25 805.796 531.83 815.826 523.03 810.313 C 525.34 806.811 531.271 805.966 535.105 805.414 z"/>
<path transform="translate(0,0)" fill="rgb(212,210,207)" d="M 585.857 800.643 C 582.561 801.907 579.136 802.414 575.777 801.212 C 581.157 796.257 625.457 781.365 636.368 781.79 C 621.776 787.983 598.837 793.046 585.857 800.643 z"/>
<path transform="translate(0,0)" fill="rgb(18,17,18)" d="M 614.118 529.022 C 615.608 528.431 621.288 526.212 622.596 526.31 C 643.049 527.841 667.931 524.329 686.881 531.852 C 668.3 535.116 639.57 535.306 620.01 535.926 C 611.707 535.991 603.567 536.094 595.258 535.785 C 578.646 536.504 503.249 539.16 491.352 535.639 L 490.937 533.144 C 506.346 527.521 593.409 528.804 614.118 529.022 z"/>
<path transform="translate(0,0)" fill="rgb(146,143,142)" d="M 614.118 529.022 C 615.608 528.431 621.288 526.212 622.596 526.31 C 643.049 527.841 667.931 524.329 686.881 531.852 C 668.3 535.116 639.57 535.306 620.01 535.926 C 612.615 534.669 597.351 534.937 593.604 532.915 C 594.09 532.664 634.373 529.937 642.455 528.233 C 633.09 527.865 623.884 529.209 614.118 529.022 z"/>
<path transform="translate(0,0)" fill="rgb(212,210,207)" d="M 490.937 533.144 C 502.756 533.493 514.96 535.182 526.824 534.971 C 542.873 534.686 580.584 531.874 595.258 535.785 C 578.646 536.504 503.249 539.16 491.352 535.639 L 490.937 533.144 z"/>
<path transform="translate(0,0)" fill="rgb(80,79,80)" d="M 1153.39 1140.1 C 1166.97 1138.99 1169.4 1141.37 1180.93 1148.52 C 1185.46 1162.68 1181.74 1170.02 1169.64 1178.53 C 1156.02 1183.59 1148.91 1180.22 1141.84 1168.33 C 1141.83 1167.48 1141.84 1166.63 1141.85 1165.77 C 1142.06 1153.91 1145.02 1148.06 1153.39 1140.1 z"/>
<path transform="translate(0,0)" fill="rgb(59,57,58)" d="M 1536.64 263.258 C 1533.95 263.553 1531.36 263.701 1528.67 263.87 L 1528.45 262.918 C 1535.75 259.102 1553.26 261.702 1560.9 260.041 C 1577.43 256.451 1614.91 248.031 1631.35 250.569 L 1631.8 251.806 C 1627.6 253.668 1627.73 253.641 1623.18 254.135 C 1609.68 261.702 1557.85 265.077 1552.08 270.095 C 1558.92 272.542 1571.86 270.441 1576.36 272.235 C 1585.42 273.774 1589.02 273.044 1598.21 276.131 L 1598.07 276.875 C 1589.58 277.045 1584.98 280.496 1581.13 280.537 C 1565.45 280.705 1547.54 280.602 1531.97 278.668 C 1527.69 278.137 1526.47 276.948 1524.47 273.944 C 1523.28 265.739 1532.32 262.197 1538.03 269.151 C 1541.18 269.102 1543.16 269.924 1548.37 269.631 L 1548.62 269.126 C 1545.03 268.009 1541.97 267.118 1538.32 266.204 L 1536.64 263.258 z"/>
<path transform="translate(0,0)" fill="rgb(18,17,18)" d="M 1576.36 272.235 C 1585.42 273.774 1589.02 273.044 1598.21 276.131 L 1598.07 276.875 C 1589.58 277.045 1584.98 280.496 1581.13 280.537 C 1565.45 280.705 1547.54 280.602 1531.97 278.668 C 1527.69 278.137 1526.47 276.948 1524.47 273.944 C 1523.28 265.739 1532.32 262.197 1538.03 269.151 L 1532.21 269.293 L 1531.18 270.451 C 1538.19 274.368 1568.64 275.356 1576.36 272.235 z"/>
<path transform="translate(0,0)" fill="rgb(212,210,207)" d="M 1536.64 263.258 C 1557.03 266.198 1581.21 261.299 1601.29 257.519 C 1607.72 256.31 1616.86 254.319 1623.18 254.135 C 1609.68 261.702 1557.85 265.077 1552.08 270.095 C 1558.92 272.542 1571.86 270.441 1576.36 272.235 C 1568.64 275.356 1538.19 274.368 1531.18 270.451 L 1532.21 269.293 L 1538.03 269.151 C 1541.18 269.102 1543.16 269.924 1548.37 269.631 L 1548.62 269.126 C 1545.03 268.009 1541.97 267.118 1538.32 266.204 L 1536.64 263.258 z"/>
<path transform="translate(0,0)" fill="rgb(59,57,58)" d="M 1040.85 1665.97 C 1077.6 1665.88 1131.44 1673.88 1167.19 1682.41 C 1170.79 1683.27 1176.67 1686.95 1180.31 1688.89 L 1179.8 1690.68 C 1175.07 1691.59 1139.34 1685.85 1133.52 1684.69 C 1121.33 1682.24 1043.97 1675.06 1039.3 1671.12 C 1038.86 1667.84 1038.73 1669.54 1040.85 1665.97 z"/>
<path transform="translate(0,0)" fill="rgb(59,57,58)" d="M 1683.72 781.178 C 1669.36 783.261 1512.08 780.943 1504.87 777.341 C 1503.05 774.388 1503.26 775.876 1503.71 772.831 C 1508.3 769.633 1523.04 772.825 1530.73 773.053 C 1543.67 772.81 1556.03 774.281 1568.66 774.009 C 1598.08 773.374 1628.21 773.743 1657.57 775.846 C 1662.82 776.222 1667.26 777.931 1671.98 778.72 C 1675.72 778.529 1680.03 780.118 1683.72 781.178 z"/>
<path transform="translate(0,0)" fill="rgb(212,210,207)" d="M 1530.73 773.053 C 1543.67 772.81 1556.03 774.281 1568.66 774.009 C 1598.08 773.374 1628.21 773.743 1657.57 775.846 C 1662.82 776.222 1667.26 777.931 1671.98 778.72 C 1667.69 779.091 1647.67 777.11 1641.24 776.82 C 1606.51 775.255 1563.63 781.962 1530.73 773.053 z"/>
<path transform="translate(0,0)" fill="rgb(80,79,80)" d="M 1223.48 1192.18 C 1231.09 1194.33 1232.97 1194.35 1239.67 1199.05 C 1244.39 1207.95 1245 1208.18 1242.11 1217.86 C 1234.7 1225.14 1232.45 1226.12 1223.19 1229.99 C 1210.94 1228.35 1193.26 1213.47 1204.44 1200.86 C 1209.47 1195.18 1216.49 1194.09 1223.48 1192.18 z"/>
<path transform="translate(0,0)" fill="rgb(59,57,58)" d="M 840.965 385.441 C 862.449 383.219 897.426 387.971 919.849 389.453 C 938.459 390.683 953.812 392.272 972.344 394.696 C 988.616 396.259 1004.68 402.34 1021.15 400.505 C 1025.43 400.029 1025.66 399.52 1029.03 402.143 L 1028.96 403.622 L 1026.78 404.709 C 1003.41 408.6 959.623 397.101 933.814 397.018 C 920.481 396.976 846.987 392.953 840.463 387.327 L 840.965 385.441 z"/>
<path transform="translate(0,0)" fill="rgb(80,79,80)" d="M 1193.44 1157.95 C 1203.11 1157.39 1204.41 1158.96 1213.09 1163.43 C 1217.68 1173.39 1217.78 1174.23 1216.95 1185.09 C 1214.06 1188.96 1207.93 1196.81 1202.76 1196.66 C 1198.63 1196.39 1194.48 1196.16 1190.34 1195.96 C 1176.38 1182.88 1175.32 1179.24 1184.62 1163.39 L 1193.44 1157.95 z"/>
<path transform="translate(0,0)" fill="rgb(59,57,58)" d="M 893.803 482.405 C 896.601 481.986 914.089 482.051 917.985 482.062 C 930.257 482.097 943.431 482.807 955.78 483.171 C 920.007 494.688 880.591 491.582 842.085 493.114 C 832.692 492.902 791.216 491.353 784.952 489.413 L 784.917 488.484 C 787.383 487.357 789.071 486.705 791.8 486.677 C 825.583 486.332 860.188 486.824 893.803 482.405 z"/>
<path transform="translate(0,0)" fill="rgb(59,57,58)" d="M 1344.92 1188.42 C 1354.14 1187.36 1361.83 1190.81 1370.03 1190.51 C 1401.43 1189.28 1432.03 1194.89 1462.71 1200.98 C 1470.83 1202.6 1497.47 1204.07 1500.89 1210.92 C 1497.86 1212.02 1493.79 1213.3 1490.55 1212.82 C 1460.44 1208.32 1430.46 1201.68 1400.12 1199.07 C 1383.67 1197.66 1366.86 1196.88 1350.48 1194.78 C 1347.83 1194.45 1346.12 1190.6 1344.92 1188.42 z"/>
<path transform="translate(0,0)" fill="rgb(18,17,18)" d="M 619.546 1149.74 C 637.334 1152.56 721.882 1150.1 729.987 1155.21 C 724.339 1161 696.021 1159.15 686.75 1159.06 C 669.343 1160.3 647.709 1157.09 629.567 1157.86 C 613.957 1158.52 586.5 1161.4 572.638 1155.51 L 572.25 1154.43 C 582.741 1149.38 608.323 1155.01 619.546 1149.74 z"/>
<path transform="translate(0,0)" fill="rgb(18,17,18)" d="M 1328.44 1612 C 1319.54 1612.12 1308.82 1609.79 1299.7 1608.48 C 1280.21 1605.69 1264.3 1606.9 1245.64 1600.46 L 1245.78 1596.76 L 1244.69 1596.58 C 1253.76 1596.67 1269.5 1597.96 1278.17 1600.54 C 1301.39 1598.31 1335.2 1605.92 1358.98 1608.32 C 1369.59 1609.39 1376.3 1615.18 1383 1613.5 L 1384.36 1614.85 C 1382.01 1618.76 1374.64 1617.72 1370.55 1617.19 C 1357.39 1615.48 1341.03 1615.55 1328.44 1612 z"/>
<path transform="translate(0,0)" fill="rgb(80,79,80)" d="M 1278.17 1600.54 C 1301.39 1598.31 1335.2 1605.92 1358.98 1608.32 C 1369.59 1609.39 1376.3 1615.18 1383 1613.5 L 1384.36 1614.85 C 1382.01 1618.76 1374.64 1617.72 1370.55 1617.19 C 1357.39 1615.48 1341.03 1615.55 1328.44 1612 C 1334.42 1611.38 1340.15 1613.63 1345.88 1610.52 C 1336.89 1609.68 1327.82 1606.75 1318.5 1605.52 C 1306.29 1603.92 1289.85 1603.38 1278.17 1600.54 z"/>
<path transform="translate(0,0)" fill="rgb(92,90,91)" d="M 1130.44 214.067 C 1135.54 213.744 1139.83 214.816 1144.82 215.176 C 1184.28 218.015 1223.6 221.435 1262.99 225.152 C 1267.64 225.591 1271.65 225.34 1276.27 226.439 L 1276.66 228.373 C 1265.88 227.66 1266.39 229.687 1257.4 230.442 C 1240.5 231.191 1222.49 228.736 1205.7 226.988 C 1188.36 225.182 1142.66 226.434 1129.8 217.031 L 1130.44 214.067 z"/>
<path transform="translate(0,0)" fill="rgb(18,17,18)" d="M 1017.47 241.88 C 1030.69 243.783 1047.3 242.341 1060.8 242.696 C 1092.5 243.528 1121.9 243.218 1153.43 247.134 L 1153.72 248.241 L 1150.72 249.548 C 1133.78 255.691 1094.84 250.464 1076.39 250.181 C 1062.7 249.972 1048.8 250.219 1035.1 249.741 C 1029.94 249.561 1015.61 251.082 1014.62 244.844 L 1017.47 241.88 z"/>
<path transform="translate(0,0)" fill="rgb(18,17,18)" d="M 1332.31 1489.75 C 1346.51 1489.92 1446.36 1500.77 1454.36 1506.48 C 1453.65 1509.2 1452.39 1509.35 1449.62 1511.57 C 1444.24 1511.75 1433.28 1508.68 1426.91 1508 C 1395.26 1504.64 1364.24 1499.4 1332.49 1497.23 C 1330.19 1497.07 1329.11 1495.14 1328.32 1493.31 C 1329.66 1490.31 1328.67 1491.69 1332.31 1489.75 z"/>
<path transform="translate(0,0)" fill="rgb(92,90,91)" d="M 954.66 290.393 C 956.175 290.177 955.099 290.244 956.874 290.415 C 1000.93 294.637 1040.6 288.998 1085.79 292.5 C 1076.94 294.664 1074.12 295.516 1064.91 296.327 C 1045.25 299.107 954.56 303.473 941.61 294.033 L 942.049 292.923 C 946.197 291.028 950.094 290.93 954.66 290.393 z"/>
<path transform="translate(0,0)" fill="rgb(59,57,58)" d="M 631.435 955.329 C 631.805 955.224 632.174 955.119 632.544 955.014 C 673.38 962.526 712.706 954.076 753.593 958.736 C 761.066 959.588 773.535 958.053 778.28 961.425 C 775.241 962.827 772.007 962.455 768.47 962.521 C 754.908 965.651 627.348 965.599 619.229 961.068 C 617.538 960.124 618.093 960.622 617.565 958.581 C 620.044 956.119 625.274 957.945 631.435 955.329 z"/>
<path transform="translate(0,0)" fill="rgb(92,90,91)" d="M 750.663 456.521 C 753.399 455.508 769.634 456.516 773.617 456.672 L 819.201 458.291 C 828.576 458.533 848.643 456.245 856.754 460.137 L 856.364 461.512 C 848.112 465.553 834.683 464.088 824.861 464.143 C 809.509 463.679 719.373 465.472 711.982 460.051 C 715.119 455.78 742.857 456.984 749.534 456.594 L 750.663 456.521 z"/>
<path transform="translate(0,0)" fill="rgb(59,57,58)" d="M 486.329 644.134 C 494.789 644.469 499.309 644.371 507.752 643.704 L 504.321 646.039 C 492.02 654.404 470.574 653.939 455.876 656.342 C 437.027 659.423 418.01 662.2 399.178 665.433 C 393.725 667.044 388.648 668.171 384.357 663.534 L 385.164 661.886 C 397.38 653.821 465.454 649.008 485.318 644.379 L 486.329 644.134 z"/>
<path transform="translate(0,0)" fill="rgb(18,17,18)" d="M 488.159 1107.4 C 491.259 1100.53 540.917 1106.88 551.966 1106.16 C 564.028 1105.38 594.464 1107.55 605.519 1111.26 L 606.242 1112.93 C 603.694 1116.39 597.471 1116.58 593.81 1115.15 C 580.351 1116.55 494.67 1114.27 488.159 1107.4 z"/>
<path transform="translate(0,0)" fill="rgb(212,210,207)" d="M 488.159 1107.4 C 498.373 1109.69 512.135 1107.71 520.477 1109.6 C 540.563 1114.17 576.031 1109.34 593.81 1115.15 C 580.351 1116.55 494.67 1114.27 488.159 1107.4 z"/>
<path transform="translate(0,0)" fill="rgb(59,57,58)" d="M 698.224 574.478 C 704.373 571.39 728.045 568.23 731.848 575.264 L 731.155 576.598 C 724.345 577.676 717.506 577.796 710.928 578.889 C 691.672 582.089 673.117 581.33 653.775 581.123 C 642.514 581.002 628.911 584.544 617.419 584.404 C 615.794 584.478 610.201 585.48 609.506 585.315 C 603.393 583.86 599.645 583.337 593.387 582.852 L 592.315 581.857 C 601.997 575.634 648.724 575.248 661.025 575.993 C 668.159 574.296 688.806 575.066 698.224 574.478 z"/>
<path transform="translate(0,0)" fill="rgb(18,17,18)" d="M 661.025 575.993 C 668.159 574.296 688.806 575.066 698.224 574.478 L 700.221 575.801 C 698.276 580.156 665.527 579.696 661.025 575.993 z"/>
<path transform="translate(0,0)" fill="rgb(59,57,58)" d="M 853.714 1794.14 C 877.518 1792.53 912.075 1801.01 934.878 1807.35 C 943.863 1809.85 956.664 1814.83 965.53 1815.66 C 968.166 1817.79 967.246 1816.43 967.919 1820.18 C 961.296 1823.66 913.738 1809.17 903.549 1807.59 C 888.729 1805.3 870.57 1805.15 856.641 1800.33 C 854.766 1799.68 853.985 1795.81 853.714 1794.14 z"/>
<path transform="translate(0,0)" fill="rgb(80,79,80)" d="M 1392.7 798.573 C 1392.23 796.394 1391.76 795.291 1390.73 793.312 C 1394.36 789.92 1401.02 784.377 1401.74 779.648 L 1401.19 778.389 C 1399.63 774.769 1398.77 773.703 1399.19 770.011 C 1401.57 764.929 1407.08 762.779 1412.45 763.763 C 1420.68 771.097 1410.44 788.335 1410.43 798.059 C 1415.45 801.209 1421.02 806.249 1416.45 812.686 C 1413.49 816.844 1407.34 814.64 1403.27 817.236 C 1404.51 818.419 1403.71 817.874 1405.86 818.559 C 1404.24 819.967 1403.06 820.914 1401.34 822.193 C 1401.42 813.289 1398.05 811.861 1396.19 802.355 L 1397.57 802.503 L 1398.5 800.557 L 1397.76 798.482 L 1396.41 798.001 L 1394.01 800.093 L 1392.7 798.573 z"/>
<path transform="translate(0,0)" fill="rgb(146,143,142)" d="M 1614.82 702.352 C 1610.18 702.082 1605.26 701.31 1600.61 700.732 L 1600.03 699.379 C 1604.68 695.265 1671.4 697.977 1679.26 700.049 C 1691.51 700.079 1720.69 699.321 1731.05 703.739 L 1730.68 704.912 C 1711.55 712.345 1655.65 705.439 1633.62 703.56 C 1629.97 703.248 1617.42 703.215 1614.82 702.352 z"/>
<path transform="translate(0,0)" fill="rgb(18,17,18)" d="M 1614.82 702.352 C 1610.18 702.082 1605.26 701.31 1600.61 700.732 L 1600.03 699.379 C 1604.68 695.265 1671.4 697.977 1679.26 700.049 C 1665.95 705.49 1622.69 699.024 1614.82 702.352 z"/>
<path transform="translate(0,0)" fill="rgb(59,57,58)" d="M 453.134 801.492 C 455.992 800.584 454.561 800.751 457.503 801.444 L 456.837 802.699 C 444.683 808.448 417.268 811.334 403.074 812.073 C 387.248 812.896 348.434 821.129 335.176 817.791 C 332.193 816.768 332.294 816.839 329.763 814.97 L 330.502 813.761 C 343.613 813.744 356.686 810.269 369.535 808.899 C 386.591 807.081 403.208 804.788 420.13 802.315 C 429.274 800.978 442.795 802.301 453.134 801.492 z"/>
<path transform="translate(0,0)" fill="rgb(18,17,18)" d="M 329.451 950.609 C 331.182 950.018 330.179 950.174 332.495 950.491 C 329.87 960.243 302.205 960.638 293.575 962.625 C 268.623 968.372 248.432 971.091 222.864 969.995 C 220.699 969.456 220.815 969.458 218.949 968.204 C 221.939 965.864 319.928 950.219 329.451 950.609 z"/>
<path transform="translate(0,0)" fill="rgb(59,57,58)" d="M 1451.78 984.509 C 1452.94 985.152 1452.68 985.645 1453.4 987.547 C 1462.89 987.19 1500.48 988.455 1507.97 992.38 L 1508.37 993.756 C 1481.2 998.879 1473.73 992.612 1450.41 994.299 L 1448.92 994.419 C 1433.52 992.892 1408.42 995.707 1395.73 993.973 C 1392.47 991.586 1393.25 993.072 1392.5 989.867 C 1400.27 981.168 1440.61 991.342 1451.78 984.509 z"/>
<path transform="translate(0,0)" fill="rgb(18,17,18)" d="M 1405.13 1162 C 1409.43 1162.52 1420.45 1162.44 1423.41 1163.03 C 1434.05 1165.15 1506.02 1174.03 1510.13 1177.94 C 1508.05 1180.17 1504.83 1180.56 1501.51 1181.59 C 1474.05 1180.11 1446.69 1174.54 1419.61 1169.99 C 1413.73 1169 1409.02 1168.24 1403.04 1168.12 L 1401.57 1168.1 C 1401.35 1165.31 1402.66 1164.96 1405.13 1162 z"/>
<path transform="translate(0,0)" fill="rgb(59,57,58)" d="M 1595.4 1147.26 C 1584.31 1150.24 1501.96 1141.19 1498.1 1131.97 C 1500.39 1130.54 1506.27 1129.48 1508.69 1130.03 C 1532.22 1135.35 1569.1 1134.65 1590.38 1142.95 C 1593.76 1142.46 1593.52 1142.52 1596.73 1143.76 L 1597.63 1145.36 C 1596.74 1146.23 1596.46 1146.67 1595.4 1147.26 z"/>
<path transform="translate(0,0)" fill="rgb(18,17,18)" d="M 1590.38 1142.95 C 1593.76 1142.46 1593.52 1142.52 1596.73 1143.76 L 1597.63 1145.36 C 1596.74 1146.23 1596.46 1146.67 1595.4 1147.26 C 1589.35 1146.24 1584.17 1147.21 1578.25 1146.24 L 1581.36 1145.9 L 1580.9 1144.65 L 1579.82 1144.06 L 1580.62 1143.31 C 1584.22 1143.49 1586.76 1143.23 1590.38 1142.95 z"/>
<path transform="translate(0,0)" fill="rgb(92,90,91)" d="M 961.399 858.419 C 962.873 857.936 964.353 857.474 965.84 857.033 C 978.993 853.143 997.12 859.345 986.01 875.04 C 983.623 875.352 972.335 881.039 971.235 882.507 C 964.385 881.586 954.105 884.147 950.597 875.725 C 950.706 868.035 955.968 864.233 961.399 858.419 z"/>
<path transform="translate(0,0)" fill="rgb(59,57,58)" d="M 438.144 833.223 C 439.803 833.072 438.872 833.006 440.896 833.735 C 432.409 843.274 406.99 844.13 394.924 846.437 C 376.675 849.927 351.638 859.002 333.465 857.79 C 331.246 856.144 331.39 856.269 330.046 853.843 C 333.999 849.166 426.268 834.689 438.144 833.223 z"/>
<path transform="translate(0,0)" fill="rgb(18,17,18)" d="M 1362.25 1558.46 C 1390.32 1559.56 1421.77 1563.63 1449.23 1569.38 C 1455.16 1570.62 1462.1 1569.43 1467.38 1572.07 L 1467.63 1573.82 C 1447.41 1581.07 1437.68 1573.58 1418.1 1570.83 C 1407.89 1569.39 1396.63 1569.38 1386.46 1568.13 C 1379.05 1567.23 1364.16 1568.37 1360.5 1561.26 L 1362.25 1558.46 z"/>
<path transform="translate(0,0)" fill="rgb(18,17,18)" d="M 1467.39 1330.51 C 1469.85 1330.12 1479.81 1328.53 1481.4 1328.66 C 1502.12 1330.32 1549.24 1329.96 1567.08 1335.85 L 1568.6 1336.86 L 1568.74 1338.39 C 1562.78 1342.31 1528.44 1338.66 1519.23 1338.55 C 1510.56 1338.45 1467.15 1336.9 1464.05 1330.9 L 1464.9 1331.27 L 1464.24 1330.59 L 1465.32 1331.25 L 1466.16 1330.1 L 1467.39 1330.51 z"/>
<path transform="translate(0,0)" fill="rgb(212,210,207)" d="M 1467.39 1330.51 C 1469.85 1330.12 1479.81 1328.53 1481.4 1328.66 C 1502.12 1330.32 1549.24 1329.96 1567.08 1335.85 C 1543.29 1337.93 1513.16 1332.95 1489.33 1331.03 C 1481.48 1330.4 1473.65 1332.03 1467.39 1330.51 z"/>
<path transform="translate(0,0)" fill="rgb(80,79,80)" d="M 886.684 416.504 C 896.172 413.857 966.202 431.001 980.477 434.47 C 974.944 435.16 971.863 435.107 966.397 435.032 C 954.121 435.766 886.298 424.983 876.165 419.524 L 875.845 417.954 C 878.907 416.138 882.97 416.548 886.684 416.504 z"/>
<path transform="translate(0,0)" fill="rgb(18,17,18)" d="M 310.871 1054.15 L 311.944 1055.42 C 304.52 1064.41 283.239 1073.26 272.347 1077.55 C 255.833 1084.05 242.237 1090.34 224.329 1090.33 L 223.406 1087.88 C 230.726 1084.32 295.135 1057.93 299.241 1057.43 C 303.006 1056.98 305.921 1056.09 309.425 1054.72 L 310.871 1054.15 z"/>
<path transform="translate(0,0)" fill="url(#Gradient1)" d="M 1365.52 751.139 C 1370.25 746.837 1374.31 742.492 1381.22 743.472 C 1400.32 746.178 1395.77 778 1375.37 772.431 C 1372.29 771.589 1370.62 771.587 1368.05 769.307 C 1367.16 767.168 1366.02 763.628 1364.11 762.43 L 1362.2 762.377 C 1362.18 759.541 1363.84 758.801 1366.3 755.949 C 1366.73 753.339 1366.7 753.528 1365.52 751.139 z"/>
<path transform="translate(0,0)" fill="rgb(92,90,91)" d="M 1292.63 737.264 C 1295.02 737.925 1297.39 738.64 1299.75 739.407 C 1306.47 741.666 1308.39 743.062 1311.4 749.217 L 1310.54 751.079 C 1308.54 760.017 1307.5 762.972 1298.24 765.305 C 1294.76 765.838 1288.32 766.479 1285.11 765.32 C 1284.93 762.679 1283.96 763.635 1282.65 761.817 C 1273.12 748.607 1283.07 743.292 1292.63 737.264 z"/>
<path transform="translate(0,0)" fill="rgb(105,104,102)" d="M 1341.63 248.491 C 1343.91 248.113 1346.31 249.379 1348.16 250.384 L 1347.64 251.747 C 1345.01 253.331 1340.54 255.017 1337.52 255.414 C 1314.39 258.451 1293.03 266.208 1270.7 272.392 C 1264.79 274.031 1257.77 274.242 1251.48 275.396 C 1248.03 275.185 1242.53 275.353 1239.88 273.572 L 1240.58 272.129 C 1270.94 267.122 1312.86 250.062 1341.63 248.491 z"/>
<path transform="translate(0,0)" fill="rgb(18,17,18)" d="M 745.082 1809.21 C 756.748 1807.79 836.407 1820.37 848.95 1823.62 L 848.773 1826.44 C 835.912 1828.65 786.544 1820.97 771.443 1818.56 C 765.297 1817.66 759.339 1815.8 753.231 1814.85 C 748.475 1814.11 745.149 1814.97 745.082 1809.21 z"/>
<path transform="translate(0,0)" fill="rgb(92,90,91)" d="M 1373.94 436.759 C 1381.45 436.102 1390.38 436.974 1394.98 443.757 C 1399.24 450.035 1393.53 459.828 1387.61 462.924 C 1368.2 464.425 1354.41 450.792 1373.94 436.759 z"/>
<path transform="translate(0,0)" fill="rgb(105,104,102)" d="M 1634.63 356.408 C 1641.64 355.746 1659.28 359.447 1667.23 360.085 C 1678.37 360.979 1707.74 357.489 1716.49 362.783 L 1716.31 364.425 C 1709.15 368.85 1706.51 367.832 1698 367.438 C 1687.37 367.996 1618.74 363.838 1614.53 360.644 C 1619.52 355.806 1627.76 358.949 1634.63 356.408 z"/>
<path transform="translate(0,0)" fill="rgb(18,17,18)" d="M 1628.74 359.544 C 1637.13 360.248 1648.41 358.917 1655.91 361.125 L 1653.25 361.55 C 1646.03 361.797 1628.81 362.291 1622.02 361.059 C 1623.23 359.649 1626.26 359.845 1628.74 359.544 z"/>
<path transform="translate(0,0)" fill="rgb(59,57,58)" d="M 1550.97 488.348 C 1569.07 488.181 1586.35 490.014 1604.39 490.185 C 1621.56 490.349 1638.77 490.729 1655.94 491.023 L 1646.05 495.087 C 1629.9 497.149 1554.44 498.318 1543.26 492.1 L 1543 490.684 C 1546.55 488.141 1546 488.933 1550.97 488.348 z"/>
<path transform="translate(0,0)" fill="rgb(105,104,102)" d="M 527.025 721.43 C 544.473 725.653 610.7 717.742 620.489 725.969 C 609.493 733.316 547.044 730.146 531.426 728.679 C 529.045 728.455 527.779 723.411 527.025 721.43 z"/>
<path transform="translate(0,0)" fill="rgb(18,17,18)" d="M 324.756 1336.92 C 342.353 1335.23 384.028 1345.62 403.92 1348.14 C 408.978 1348.78 416.031 1350.31 419.034 1354.78 C 404.529 1355.98 387.98 1354.04 373.77 1350.74 C 359.354 1347.41 334.286 1348.47 324.756 1336.92 z"/>
<path transform="translate(0,0)" fill="rgb(59,57,58)" d="M 386.435 632.712 C 384.907 632.243 383.998 631.634 382.563 630.878 L 382.195 629.311 L 383.473 628.035 C 391.824 625.348 462.616 627.977 473.213 630.024 L 477.021 630.144 L 477.851 631.319 C 471.324 636.937 396.288 636.593 386.435 632.712 z"/>
<path transform="translate(0,0)" fill="rgb(212,210,207)" d="M 386.435 632.712 C 396.313 626.292 408.753 632.547 419.506 632.821 C 434.582 633.206 458.933 633.859 473.213 630.024 L 477.021 630.144 L 477.851 631.319 C 471.324 636.937 396.288 636.593 386.435 632.712 z"/>
<path transform="translate(0,0)" fill="rgb(80,79,80)" d="M 1311.4 749.217 C 1313.12 738.592 1317.58 738.482 1326.89 735.27 C 1336.49 739.667 1336.94 740.307 1341.02 750.279 L 1335.06 760.038 C 1332.07 761.579 1328.88 763.31 1325.87 764.757 C 1311.04 760.566 1316.14 762.395 1310.54 751.079 L 1311.4 749.217 z"/>
<path transform="translate(0,0)" fill="rgb(59,57,58)" d="M 1577.57 867.948 C 1593.06 867.435 1602.58 868.819 1617.95 870.168 C 1624.29 870.724 1634.31 869.445 1640.69 870.126 C 1645.29 870.616 1651.15 873.985 1656.36 874.053 C 1659.03 874.087 1659.39 874.24 1661.3 875.449 C 1658.66 877.768 1658.38 877.116 1654.24 877.812 C 1644.03 878.391 1575.35 877.09 1570.02 873.022 C 1571.76 870.575 1574.81 869.408 1577.57 867.948 z"/>
<path transform="translate(0,0)" fill="rgb(18,17,18)" d="M 775.177 354.092 C 798.4 353.391 826.564 357.673 850.335 357.959 C 862.498 358.105 875.979 356.093 886.131 362.862 C 883.727 363.431 853.262 363.573 847.452 363.396 C 827.866 362.799 800.83 362.689 781.479 358.888 C 779.579 358.515 776.584 355.49 775.177 354.092 z"/>
<path transform="translate(0,0)" fill="rgb(59,57,58)" d="M 1558.73 1026.17 C 1568.26 1024.95 1634.42 1026.92 1638.77 1032.36 C 1637.24 1034.61 1636.98 1034.05 1633.69 1035.09 C 1620.94 1034.68 1554.03 1035.37 1551.06 1028.93 C 1553.89 1026.46 1554.44 1027.06 1558.73 1026.17 z"/>
<path transform="translate(0,0)" fill="rgb(18,17,18)" d="M 1497.84 1398.2 L 1496.3 1396.29 C 1505.15 1390.39 1568.61 1399.07 1581.88 1400.39 C 1584.06 1400.61 1589.46 1403.62 1591.58 1404.81 L 1591.1 1404.5 L 1590.34 1405.9 C 1579.7 1405.89 1571.64 1405.44 1561.23 1402.74 C 1548.11 1404.74 1509.75 1402.44 1497.84 1398.2 z"/>
<path transform="translate(0,0)" fill="rgb(212,210,207)" d="M 1497.84 1398.2 C 1509.17 1398.37 1552.24 1399.57 1561.23 1402.74 C 1548.11 1404.74 1509.75 1402.44 1497.84 1398.2 z"/>
<path transform="translate(0,0)" fill="rgb(92,90,91)" d="M 703.061 695.387 C 707.556 693.59 714.549 695.979 717.535 699.677 L 717.143 701.473 C 712.374 704.521 683.018 703.421 674.701 704.773 C 665.372 706.289 664.12 706.144 654.353 709.562 C 650.276 710.313 638.159 710.729 636.499 705.782 C 642.564 700.168 691.26 696.855 703.061 695.387 z"/>
<path transform="translate(0,0)" fill="rgb(18,17,18)" d="M 914.293 1697.93 C 925.364 1697.91 981.826 1702.01 988.831 1708.86 L 988.22 1710.6 L 983.806 1712.53 C 973.663 1710.55 959.934 1710.36 950.243 1708.1 C 941.191 1705.98 913.546 1707.07 908.092 1702.55 L 908.291 1701.47 L 914.293 1697.93 z"/>
<path transform="translate(0,0)" fill="rgb(59,57,58)" d="M 1600.76 603.488 C 1597.54 604.41 1629.83 603.988 1628.49 603.746 C 1640.86 605.99 1663.85 605.194 1674.99 608.511 L 1674.62 609.714 C 1668.34 612.704 1660.65 612.193 1653.78 611.853 C 1644.97 611.008 1636.13 610.542 1627.28 610.454 C 1616.49 610.361 1586.8 613.349 1578.7 607.207 C 1581.44 604.776 1596.62 603.534 1600.76 603.488 z"/>
<path transform="translate(0,0)" fill="rgb(18,17,18)" d="M 1590.53 529.07 C 1600.61 529.396 1610.85 530.309 1620.95 529.233 C 1628.95 528.381 1661.62 527.359 1667.02 531.442 C 1660.82 537.441 1639.51 535.506 1630.89 534.763 C 1617.48 536.172 1579.98 535.283 1567.88 531.946 L 1567.6 531 C 1573.18 527.39 1583.54 528.823 1590.53 529.07 z"/>
<path transform="translate(0,0)" fill="rgb(212,210,207)" d="M 1590.53 529.07 C 1600.61 529.396 1610.85 530.309 1620.95 529.233 C 1628.95 528.381 1661.62 527.359 1667.02 531.442 C 1660.82 537.441 1639.51 535.506 1630.89 534.763 C 1638.44 533.688 1656.03 533.927 1664.46 533.851 C 1657.4 531.985 1656.24 531.699 1649 531.038 C 1631.61 529.448 1605.3 539.269 1590.53 529.07 z"/>
<path transform="translate(0,0)" fill="rgb(92,90,91)" d="M 1364.11 762.43 C 1362.15 765.041 1355.26 769.622 1352 768.533 C 1326.33 759.956 1351.25 722.541 1365.52 751.139 C 1366.7 753.528 1366.73 753.339 1366.3 755.949 C 1363.84 758.801 1362.18 759.541 1362.2 762.377 L 1364.11 762.43 z"/>
<path transform="translate(0,0)" fill="rgb(80,79,80)" d="M 224.951 1007.91 C 224.605 1007.04 224.216 1005.51 223.942 1004.56 C 230.815 999.867 297.012 990.464 308.051 990.146 C 300.67 993.391 280.935 1000.8 272.837 1002.02 C 253.821 1005.99 244.375 1008.44 224.951 1007.91 z"/>
<path transform="translate(0,0)" fill="rgb(18,17,18)" d="M 224.951 1007.91 C 231.952 1002.23 265.138 996.936 272.837 1002.02 C 253.821 1005.99 244.375 1008.44 224.951 1007.91 z"/>
<path transform="translate(0,0)" fill="rgb(18,17,18)" d="M 1345.5 1392.41 C 1349.35 1391.29 1352.97 1393.24 1357.01 1393.39 C 1376.39 1394.12 1382.9 1393.31 1400.47 1401.49 C 1393.8 1402.46 1391.27 1403.04 1384.54 1402.36 C 1374.96 1402.22 1329.71 1403.34 1326.95 1394.89 C 1330.21 1390.62 1338.57 1394.59 1345.5 1392.41 z"/>
<path transform="translate(0,0)" fill="rgb(105,104,102)" d="M 1636.1 666.25 C 1648.58 667.904 1720.02 667.058 1726.29 673.28 C 1725.25 673.836 1721.35 675.866 1720.24 675.869 C 1696.55 675.933 1670.76 675.08 1647.35 671.331 C 1643.58 670.728 1638.81 668.077 1636.1 666.25 z"/>
<path transform="translate(0,0)" fill="rgb(105,104,102)" d="M 1674.99 411.615 C 1676.61 411.149 1675.63 411.277 1677.17 411.414 C 1684.74 412.094 1715.24 410.697 1720.09 416.721 C 1710.08 420.318 1701.59 416.92 1691.25 417.9 C 1682.07 418.004 1643.66 423.229 1640.94 413.507 L 1641.95 412.665 C 1648.47 412.916 1666.13 411.628 1674.99 411.615 z"/>
<path transform="translate(0,0)" fill="rgb(18,17,18)" d="M 1462.88 1024.22 C 1472.06 1023.7 1481.48 1025.99 1491.05 1024.98 C 1496.84 1024.38 1523.88 1024.4 1528.26 1026.98 C 1526.07 1029.18 1522.25 1030.38 1519.23 1031.6 C 1514.05 1033.77 1462.01 1032.05 1455.52 1029.03 L 1455.16 1027.43 C 1457.3 1025.14 1459.74 1024.98 1462.88 1024.22 z"/>
<path transform="translate(0,0)" fill="rgb(18,17,18)" d="M 1013.71 1711.28 C 1024.91 1710.38 1071.33 1713.72 1083.62 1720.28 C 1084.55 1720.77 1084.38 1722.15 1084.53 1723.49 C 1071.69 1725.17 1056.69 1721.61 1043.83 1719.81 C 1035.11 1718.59 1019.9 1718.76 1013.4 1713.19 L 1013.71 1711.28 z"/>
<path transform="translate(0,0)" fill="rgb(59,57,58)" d="M 1461.2 659.431 C 1463.13 658.619 1524.46 663.561 1527.06 666.546 C 1525.05 668.419 1522.77 668.181 1519.89 668.43 C 1506.76 667.168 1458.31 670.936 1451.69 663.235 L 1451.98 661.152 C 1454.53 659.487 1457.88 659.697 1461.2 659.431 z"/>
<path transform="translate(0,0)" fill="rgb(18,17,18)" d="M 1620.54 387.271 C 1622.59 387.019 1639.37 388.699 1644.04 388.845 C 1624.17 400.34 1618.44 394.322 1596.37 396.273 C 1590.99 396.71 1579.26 396.544 1575.25 392.898 L 1576.51 394.207 L 1574.99 393.631 L 1575.09 392.543 C 1590.72 385.435 1606.17 391.047 1620.54 387.271 z"/>
<path transform="translate(0,0)" fill="rgb(59,57,58)" d="M 987.215 319.498 C 996.839 320.142 1020.6 319.345 1027.91 322.238 L 1026.2 321.362 L 1027.89 321.957 L 1027.76 322.529 C 1018.88 325.322 1000.44 325.403 990.603 326.106 L 988.769 326.246 C 981.009 327.516 954.782 328.05 948.035 323.917 L 948.593 322.585 C 960.503 318.673 967.001 321.775 977.675 320.536 L 987.215 319.498 z"/>
<path transform="translate(0,0)" fill="rgb(18,17,18)" d="M 559.488 1209.96 L 563.976 1209.39 C 566.608 1209.05 579.452 1209.87 582.364 1210.53 C 589.72 1212.19 622.176 1210.19 623.972 1217.23 L 620.392 1220.24 C 612.425 1219.75 604.321 1217.85 596.129 1217.83 C 580.766 1217.79 565.541 1215.79 550.255 1215.05 L 559.488 1209.96 z"/>
<path transform="translate(0,0)" fill="rgb(80,79,80)" d="M 1242.45 1242.06 C 1262.06 1240.66 1262.64 1256.48 1248.61 1264.83 C 1232.66 1263.67 1226.94 1251.89 1242.45 1242.06 z"/>
<path transform="translate(0,0)" fill="rgb(18,17,18)" d="M 197.686 1626.84 C 214.922 1635.4 236.152 1629.37 258.783 1642.8 C 249.627 1646.32 213.593 1639.1 203.907 1634.5 C 198.767 1632.05 199.281 1631.37 197.686 1626.84 z"/>
<path transform="translate(0,0)" fill="rgb(18,17,18)" d="M 258.701 1032.27 C 265.753 1034.03 270.207 1028.6 275.253 1030.11 C 275.455 1033.14 275.506 1031.66 273.204 1035.02 C 259.56 1037.28 220.55 1054.49 210.283 1046.91 C 213.719 1044.22 250.576 1035.17 258.701 1032.27 z"/>
<path transform="translate(0,0)" fill="rgb(59,57,58)" d="M 1661.56 918.377 C 1653.03 922.524 1622.79 920.736 1615.89 915.205 L 1616.21 913.852 C 1623.41 911.204 1646.39 910.585 1653.96 913.434 C 1657.59 912.758 1666.15 913.084 1669.1 915.279 C 1667.09 917.421 1664.52 917.634 1661.56 918.377 z"/>
<path transform="translate(0,0)" fill="rgb(212,210,207)" d="M 1653.96 913.434 C 1657.59 912.758 1666.15 913.084 1669.1 915.279 C 1667.09 917.421 1664.52 917.634 1661.56 918.377 C 1653.39 913.941 1656.07 918.625 1648.23 917.448 C 1649.58 914.965 1651.32 914.599 1653.96 913.434 z"/>
<path transform="translate(0,0)" fill="rgb(18,17,18)" d="M 1338.83 1042.37 C 1343.83 1041.36 1380.69 1044.06 1388.07 1045.81 C 1387.21 1048.19 1386.09 1048.43 1383.78 1050.32 C 1375.91 1050.23 1332.17 1050.5 1329.64 1045.66 C 1331.96 1043.21 1335.32 1043.08 1338.83 1042.37 z"/>
<path transform="translate(0,0)" fill="rgb(59,57,58)" d="M 999.841 583.991 C 1017.82 584.357 1030.57 582.4 1049.28 586.247 L 1049.67 587.305 L 1045.08 591.34 C 1036.19 592.2 1004.27 593.811 999.287 586.51 L 999.841 583.991 z"/>
<path transform="translate(0,0)" fill="rgb(59,57,58)" d="M 449.756 1234.71 C 451.767 1234.42 457.89 1236.61 462.044 1236.08 C 465.891 1235.59 474.146 1237.43 475.941 1241.56 C 470.669 1244.63 462.043 1243.26 455.628 1243.05 C 446.094 1241.49 431.875 1244.95 426.047 1236.55 L 426.584 1235.39 C 432.894 1234.06 442.533 1234.97 449.756 1234.71 z"/>
<path transform="translate(0,0)" fill="rgb(18,17,18)" d="M 1645.56 1106.28 C 1656.13 1105.45 1697.75 1104.94 1703.54 1113.61 C 1689.51 1113.87 1674.91 1114.1 1660.88 1113.42 C 1653.88 1113.07 1648.72 1112.8 1645.56 1106.28 z"/>
<path transform="translate(0,0)" fill="rgb(18,17,18)" d="M 1125.81 1727.5 C 1144.39 1724.22 1164.08 1732.26 1181.37 1736.62 L 1181.35 1738.44 C 1173.2 1740.57 1132.57 1734.07 1125.69 1729.36 L 1125.81 1727.5 z"/>
<path transform="translate(0,0)" fill="rgb(92,90,91)" d="M 1139.46 546.09 C 1145.03 545.914 1163.56 544.286 1164.99 550.992 C 1160.09 555.022 1147.8 553.273 1140.59 555.745 C 1136.89 555.697 1121 553.247 1116.79 552.529 L 1117.82 551.101 L 1117.64 551.218 C 1125.62 548.441 1131.72 548.912 1139.46 546.09 z"/>
<path transform="translate(0,0)" fill="rgb(59,57,58)" d="M 975.742 678.188 C 983.45 677.284 1008.83 677.93 1015.35 681.588 L 1014.16 681.117 L 1014.57 682.947 C 1010.45 684.614 1009.06 684.401 1004.5 684.604 C 996.277 685.037 971.783 687.628 965.864 682.9 L 966.287 681.302 C 969.756 678.925 971.466 678.971 975.742 678.188 z"/>
<path transform="translate(0,0)" fill="rgb(80,79,80)" d="M 258.701 1032.27 C 267.705 1027.73 303.34 1016.84 312.176 1018.78 C 311.387 1026.74 280.782 1032.81 273.204 1035.02 C 275.506 1031.66 275.455 1033.14 275.253 1030.11 C 270.207 1028.6 265.753 1034.03 258.701 1032.27 z"/>
<path transform="translate(0,0)" fill="rgb(18,17,18)" d="M 738.766 1011.5 C 740.48 1011.97 745.994 1015.2 747.818 1016.2 L 742.638 1017.57 C 728.499 1021.31 716.665 1019.28 702.17 1018.14 L 701.142 1017.5 C 698.967 1017.46 697.745 1017.42 695.594 1017.15 L 694.698 1015.41 C 698.524 1011.64 730.663 1012.04 738.766 1011.5 z"/>
<path transform="translate(0,0)" fill="rgb(18,17,18)" d="M 567.813 1055.73 C 571.03 1055.08 604.531 1059.21 609.477 1059.85 C 605.637 1061.46 600.798 1063.08 596.817 1064.54 C 585.991 1064.41 569.087 1065.08 559.256 1059.73 L 558.797 1058.08 C 562.042 1055.21 562.665 1056.04 567.813 1055.73 z"/>
<path transform="translate(0,0)" fill="rgb(18,17,18)" d="M 278.276 1464.7 C 289.335 1463.71 321.014 1466.93 327.677 1476.16 C 321.034 1478.6 281.831 1471.77 278.276 1464.7 z"/>
<path transform="translate(0,0)" fill="rgb(18,17,18)" d="M 1400.96 1327.34 C 1406.24 1326.4 1447.18 1329.35 1452.36 1331.45 L 1451.73 1332.89 C 1445.54 1335.86 1404.54 1334.83 1400.35 1330.39 L 1400.96 1327.34 z"/>
<path transform="translate(0,0)" fill="rgb(59,57,58)" d="M 390.597 1371.85 C 398.451 1371.7 426.63 1374.56 433.205 1377.98 L 432.616 1382.62 C 421.681 1384.74 399.196 1379.22 390.597 1371.85 z"/>
<path transform="translate(0,0)" fill="rgb(18,17,18)" d="M 297.077 1657.83 C 303.144 1659.34 322.244 1663.29 325.434 1668.42 C 321.681 1671.9 318.358 1669.32 314.267 1667.7 C 312.017 1666.8 311.287 1666.28 308.894 1666.76 C 301.293 1668.29 297.879 1667.1 290.887 1664.73 C 289.901 1663.68 287.708 1660.62 286.725 1659.33 C 288.748 1656.49 291.833 1661.55 297.077 1657.83 z"/>
<path transform="translate(0,0)" fill="rgb(80,79,80)" d="M 1634.3 1263.1 C 1641.52 1263.22 1667.94 1261.28 1671.19 1267.64 L 1668.95 1270.15 C 1657.87 1270.59 1642.32 1270.7 1631.81 1267.2 L 1631.26 1265.88 L 1634.3 1263.1 z"/>
<path transform="translate(0,0)" fill="rgb(59,57,58)" d="M 260.727 850.822 C 270.498 850.382 281.085 850.878 290.917 851.197 L 280.485 857.26 C 274.429 859.867 256.995 860.962 254.372 854.079 C 256.63 851.272 256.477 852.066 260.727 850.822 z"/>
<path transform="translate(0,0)" fill="rgb(18,17,18)" d="M 254.469 1359.19 C 260.28 1359.05 276.49 1362 284.093 1362.65 C 287.313 1365.16 289.523 1365.91 289.707 1369.85 C 281.463 1370.61 263.41 1367.79 256.413 1364.54 C 254.197 1361.29 254.789 1363.02 254.469 1359.19 z"/>
<path transform="translate(0,0)" fill="rgb(80,79,80)" d="M 654.76 607.153 C 666.313 600.16 671.223 605.034 684.156 605.698 C 690.639 606.03 696.393 606.294 702.904 606.121 C 687.351 609.482 670.501 614.86 655.505 608.912 L 653.383 608.947 L 652.474 607.954 L 654.76 607.153 z"/>
<path transform="translate(0,0)" fill="rgb(18,17,18)" d="M 655.505 608.912 L 653.383 608.947 L 652.474 607.954 L 654.76 607.153 C 658.305 607.105 670.043 606.386 672.358 608.043 L 673.739 607.968 L 671.596 608.385 L 673.505 607.752 C 671.605 607.584 672.503 607.366 670.842 608.514 C 665.572 608.816 660.759 608.875 655.505 608.912 z"/>
<path transform="translate(0,0)" fill="rgb(18,17,18)" d="M 777.87 1758.97 C 787.494 1758.94 808.727 1759.03 814.703 1767.36 C 806.582 1770.33 783.617 1766.99 777.87 1758.97 z"/>
<path transform="translate(0,0)" fill="rgb(59,57,58)" d="M 1483.24 1507.6 C 1490.34 1509.56 1504.54 1510.39 1507.85 1515.05 C 1507.76 1518.4 1508.25 1516.79 1505.49 1519.75 C 1499.33 1518.67 1480.85 1517.85 1480 1511.23 L 1483.24 1507.6 z"/>
<path transform="translate(0,0)" fill="rgb(59,57,58)" d="M 770.583 879.829 C 775.364 881.023 781.119 880.351 784.154 883.538 C 782.408 886.353 775.951 889.269 772.691 891.041 C 766.164 889.327 761.322 887.366 755.045 884.917 C 759.823 882.993 765.605 881.374 770.583 879.829 z"/>
<path transform="translate(0,0)" fill="rgb(18,17,18)" d="M 822.816 852.8 C 829.11 852.105 840.142 855.575 846.089 858.023 L 845.724 859.387 L 842.887 859.772 C 837.075 861.205 820.777 863.649 817.094 857.672 C 818.71 854.293 818.832 855.09 822.816 852.8 z"/>
<path transform="translate(0,0)" fill="rgb(105,104,102)" d="M 1138.42 262.041 C 1143.73 262.704 1149.23 262.071 1153.46 263.755 L 1153.38 265.64 L 1154.19 264.638 C 1151.35 267.878 1141.49 269.256 1137.34 269.628 C 1133.07 270.819 1126.02 269.089 1121.51 268.252 L 1122.09 267.186 C 1127.64 263.935 1132.14 263.367 1138.42 262.041 z"/>
<path transform="translate(0,0)" fill="rgb(18,17,18)" d="M 1525.62 624.442 C 1530.76 624.029 1562.39 624.68 1564.96 626.545 L 1562.73 627.527 C 1553.07 631.234 1535.72 630.715 1526.34 626.725 L 1525.62 624.442 z"/>
<path transform="translate(0,0)" fill="rgb(18,17,18)" d="M 1572.27 448.208 C 1579.76 447.996 1589.81 447.159 1596.59 450.187 L 1597.11 451.574 L 1594.41 453.35 C 1587.89 455.931 1574.22 456.535 1570.91 449.549 L 1572.27 448.208 z"/>
<path transform="translate(0,0)" fill="rgb(18,17,18)" d="M 1437.38 1070.38 C 1443.68 1071.28 1453.5 1072.4 1458.51 1076.3 L 1458.6 1077.45 L 1456.87 1077.4 C 1450.32 1079.31 1443.9 1081.36 1437.99 1077.12 C 1436.06 1073.68 1436.53 1075.1 1437.38 1070.38 z"/>
<path transform="translate(0,0)" fill="rgb(18,17,18)" d="M 1597.58 1408.31 C 1610.21 1407.26 1609.79 1408.79 1621.36 1412.95 L 1621.6 1415.11 C 1615.5 1416.32 1601.57 1415.4 1597.14 1410.41 L 1597.58 1408.31 z"/>
<path transform="translate(0,0)" fill="rgb(105,104,102)" d="M 1728.14 512.59 C 1733.54 514.184 1746.39 512.316 1750.65 515.766 L 1747.68 517.813 C 1742.82 519.611 1727.13 518.252 1722.99 515.678 L 1723.64 514.245 L 1728.14 512.59 z"/>
<path transform="translate(0,0)" fill="rgb(18,17,18)" d="M 957.251 742.339 C 961.911 742.372 970.226 741.93 973.614 744.563 C 971.436 747.359 971.767 746.582 967.984 748.129 C 963.079 748.115 954.722 748.374 950.814 745.807 L 951.411 744.415 L 957.251 742.339 z"/>
<path transform="translate(0,0)" fill="rgb(59,57,58)" d="M 1699.8 927.722 C 1705.21 929.25 1723.09 928.628 1728.56 930.87 L 1727.69 932.819 C 1720.87 933.08 1704.05 934.146 1698.41 930.494 L 1699.8 927.722 z"/>
<path transform="translate(0,0)" fill="rgb(18,17,18)" d="M 918.463 687.274 C 922.421 686.62 936.076 687.096 938.92 689.625 L 938.816 691.755 C 932.719 693.16 927.415 694.192 921.464 692.137 C 918.617 689.221 919.445 690.862 918.463 687.274 z"/>
<path transform="translate(0,0)" fill="rgb(18,17,18)" d="M 377.46 1228.39 C 381.439 1229.06 389.536 1232.02 392.642 1234.45 L 391.831 1236.27 C 387.137 1236.06 376.367 1237.08 374.712 1232.47 L 377.46 1228.39 z"/>
<path transform="translate(0,0)" fill="rgb(18,17,18)" d="M 277.458 1627.08 C 282.358 1626.73 290.628 1625.57 293.507 1629.9 L 291.657 1632.55 C 287.359 1631.69 278.765 1632.6 276.288 1629.05 L 277.458 1627.08 z"/>
<path transform="translate(0,0)" fill="rgb(18,17,18)" d="M 747.035 1158.29 C 752.493 1157.27 758.748 1157.48 762.561 1162.05 C 756.13 1164.62 752.117 1162.09 747.035 1158.29 z"/>
</svg>