<?xml version="1.0" encoding="UTF-8"?><svg id="Layer_2" xmlns="http://www.w3.org/2000/svg" xmlns:xlink="http://www.w3.org/1999/xlink" viewBox="0 0 362.67 1036.49"><defs><linearGradient id="linear-gradient" x1="228.35" y1="-273.76" x2="203.96" y2="-252.26" gradientTransform="translate(144.32 892.38) rotate(-49.72) scale(.5 -.5)" gradientUnits="userSpaceOnUse"><stop offset="0" stop-color="#c2c0c2"/><stop offset="1" stop-color="#f0f0f0"/></linearGradient><linearGradient id="linear-gradient-2" x1="618.53" y1="-108.08" x2="232.74" y2="-217.71" gradientTransform="translate(144.32 892.38) rotate(-49.72) scale(.5 -.5)" gradientUnits="userSpaceOnUse"><stop offset="0" stop-color="#a09fa2"/><stop offset="1" stop-color="#e6e5e5"/></linearGradient><linearGradient id="linear-gradient-3" x1="401.43" y1="-129.86" x2="394.98" y2="-120.41" gradientTransform="translate(144.32 892.38) rotate(-49.72) scale(.5 -.5)" gradientUnits="userSpaceOnUse"><stop offset="0" stop-color="#919290"/><stop offset="1" stop-color="#69696c"/></linearGradient><linearGradient id="linear-gradient-4" x1="309.84" y1="-25.52" x2="290.06" y2="7.43" gradientTransform="translate(144.32 892.38) rotate(-49.72) scale(.5 -.5)" gradientUnits="userSpaceOnUse"><stop offset="0" stop-color="#b9b9bd"/><stop offset="1" stop-color="#e4e1e2"/></linearGradient><linearGradient id="linear-gradient-5" x1="298.55" y1="-310.42" x2="275.42" y2="-297.48" gradientTransform="translate(144.32 892.38) rotate(-49.72) scale(.5 -.5)" gradientUnits="userSpaceOnUse"><stop offset="0" stop-color="#8c8c8c"/><stop offset="1" stop-color="#a8a8a8"/></linearGradient><linearGradient id="linear-gradient-6" x1="398.28" y1="489.02" x2="448.9" y2="463.45" gradientTransform="translate(144.32 892.38) rotate(-49.72) scale(.5 -.5)" gradientUnits="userSpaceOnUse"><stop offset="0" stop-color="#000" stop-opacity="0"/><stop offset="1" stop-color="#000001" stop-opacity=".03"/></linearGradient></defs><g id="Layer_1-2"><path d="M176.78,35.6c-1.93-2.61-4.49-5.91-3.52-9.19,2.79-9.43,9.29-6.03,13.19-.27-.47,2.83-.72,4.97-.99,7.8.82-2.45,1.66-4.89,2.53-7.31l1.47-3.03c2.52-5.14,7.23-11.64,11.47-15.5,14.38-13.1,40.05-10.59,46.67,9.61,7.1,21.65-16.93,35.02-17.03,55.16-.1,21.18,9.86,41.31,14.21,61.76.46,2.1,4.65,3.34,3.61,6.92-.46,3.07-.56,4.2-3.18,6.4-5.56,4.68-11.26,9.04-16.47,14.11-10.71,10.19-16.78,25-17.41,39.68-.28,6.5.47,13.04.66,19.56.68,23.51.11,47.15.4,70.63l3.31,174.6c.62,35.87,1.61,72.09,3.23,107.97.08,1.83,2.34,3.68,3.68,5.01,1.3,15.37-.1,46.35,4.23,58.18,1.66,4.53,4.49,8.53,8.19,11.61,12.95,10.83,35.18-.38,43.78-11.97,4.42-5.96,7.31-13.18,8.75-20.54,1.86-12.2,1.33-32.29,18.36-34.27,6.3-.67,12.61,1.16,17.57,5.1,12.37,9.92,15.54,28.39,17.91,43.02,6.78,41.91-21.51,75.84-21.92,115.68-.25,24.73,14.76,52.9,23.4,75.49,20.18,50.92,33.9,111.51-4.88,157.48-35.73,42.36-94.88,49.53-146.93,47.44-3.62-.14-12.66-1.52-15.45-.21.54,2.35,1.2,3.9-.48,5.96-6.8,8.3-15.9,2.73-14.64-7.46l-.69-.24c-5.32-1.82-11.13-2.51-16.74-3.76-35.3-7.86-72.41-19.61-101.23-42.17-12.27-9.61-23.86-25.02-30.93-38.81-23.16-45.15-5.79-97.58,17.83-138.66,12.69-22.09,24.61-44.42,27.67-70.13,3.55-29-6.88-54.56-15.05-81.61-10.21-35.9-20.16-101.88,17.55-126.77,2.26-1.49,9.68-.52,12.46-.49,3.06-2.33,2.71-10.01,8.49-7.69,5.84,2.49,1.4,12.69,1.98,17.32.37,2.93,1.1,5.98,2.04,8.7,3.12,8.96,3.52,18.11,5.19,27.4,4.11,22.83,26.08,41.38,49.73,36.32,3.69-.79,7.07-3.26,10.84-4.34.83-6.42.52-18.35.7-25.33l1.08-66.78,4.91-201.85c.32-21.23.41-42.47.26-63.71-.04-13.57-.53-29.78.73-43.17-17.7-10.15-4.61-29.76-7.66-33.18-2.79,1.29-3.66,2.67-6.23,1.64-2.13-.86-3.81-2.57-4.61-4.73-2.63-7.25,9.59-16.82,12.51-4.44,1.16-.93,8.73-29.89,9.81-34.1,1.99-7.79,5.6-17.1,6.46-25.06,1.14-3.66,2.25-9.35,3.18-13.3.4-3.02,3.39-12.73,4.43-16.53.93-2.63,1.73-5.63,2.52-8.34l-3.98,1.62c-4.38-.14-4.42-.05-7.52-3.19-.51-3.85-.12-5.26.99-8.83,5.49-3.16,8.68-4.29,11.97,1.96l.35.66.54.14c.73-5.02,3.58-13.71,5.03-19.19-3.74,1.28-4.34,1.42-8.35,1.2ZM11.92,922.18c3.1-.67,3.2,1.14,5.55,2.84,2.79,2.48,12.85,19.65,17.3,25.28,8.02,10.12,15.15,14.06,22.25,21.72,8.38,8.4,4.97,10.64,17,18.07.7.35,4.21,2.18,4.7,2.33,43.32,19.1,118.59,25.96,165.42,19.26,11.14-1.7,22.06-4.56,32.6-8.54,21.52-8.34,36.94-18.92,51.46-36.99,13.57-16.89,17.85-28.86,20.87-50.41-.91-4.08-1.37-14.72-3.42-17.15-1.49.17-3.9,1.9-5.94,2.51.56,11.83-8.64,36.69-24.76,29.64-27.33-11.94-46.88-40.72-76.18-49.94-3.36-1.06-16.7-5.47-18.25-5.05-6.49,2.6-4.07,31.89-9.75,33.79-11.51,3.84-36.93.71-48.98.06-12.97-.71-30.63-1.34-39.97-9.43-4.01-3.47-1.39-20.29-.74-25.75-6.67-2.68-15.61-9.72-20.31-15.23-19.3-22.64-14.88-53.62-5.41-79.46,4.7-12.31,10.55-24.22,15.56-36.39,10.69-26.02,12.79-54.16,9.94-81.97-3.06-29.78-6.22-35.18,27.35-28.91.45-3.67,2.23-24.05,1.41-26.38-2.24.5-2.9,1.13-4.87,2-35.11,15.5-66.69-14.17-68.8-49.01-.65-10.67,1.04-41.96-17.77-30.92-6.8,3.99-12.28,13.85-15.26,21.01-12.73,32.67-5.66,70.13,3.22,102.88,8.64,27.03,17.98,53.45,13.84,82.39-6.65,46.48-41.73,81.11-51.76,126.68-4.13,18.78-7.47,41.8,3.18,59.03.07.21.14.42.21.64l.31,1.42ZM260.44,718.32c14.79,22.51-3.56,62.64-13.15,84.38-2.86,6.49-6.21,12.69-8.65,19.47l-.32.9c.37-.02.75-.04,1.12-.05,8.02-.24,13.89,4.43,13.92,12.81.02,7.21-7.22,14.23-14.51,13.6-5.17-.45-7.59-3.07-10.82-6.66-1.04,6.07-8.2,24.28-7.23,27.08,2.28-.3,1.7-.57,3.36.36l.77,1.25c9.74,2.61,19.44,4.1,28.37,9.02,20.37,11.23,37.22,27.25,59.07,36.09,8.34,3.37,10.88,2.4,19.19.09,17.53-26.66-21.18-96.63-31.83-123.66-15.9-40.35-11.19-69.78,7.46-108.53,10.72-22.27,19.87-54.39,3.7-76.62l-.74-.34c-2.47-1.13-3.75-2.11-6.29-1.16-1.63,2.15-4.77,19.99-6.26,24.59-4.48,13.99-14.41,25.58-27.55,32.14-15.63,7.97-37.85,10.38-54.63,4.99-.58,1.42-1.5,3.15-2.2,4.55-3.05.97-7.6,1.87-12.19,1.66-16.13-.76-32.94-.71-49.09-1.28-.1,0-3.49-2.59-3.82-3-2.74-3.5-.95-9.3-.96-12.68-.01-4.56,2.69-17.14.12-20.23l-.56,1.06c-2.25-1.82-7.39-1.43-10.31-1.78-6.17-.74-8.6-3.57-13.55,1.27-.89,4.22,2.05,27.92,2.51,34.52.93,12.21.59,24.47-1,36.61-1.78,12.2-4.99,24.14-9.56,35.59-11.71,29.94-30.69,59.07-20.76,94,4.34,15.27,13.89,23.88,27.43,31.1.3-6.77,1.16-20.99,11.03-19.38,23.27,3.78,46.36,6.48,69.89,8.03,4.6.3,9.09,2.28,13.51,3.01,1.52-2.75,2.53-7.61,3.61-10.76,2.57-7.5,4.74-14.85,7.42-22.35,11.39-31.79,29.15-62.72,28.03-97.55-.11-3.56-2.2-10.61-1.2-13.64l.93-.42c2.23.12,3.68.99,5.73,1.92ZM204.77,194.36c4.03-16.99,5.28-26.32,18.7-38.61,3.48-3.19,8.42-7.6,11.66-10.93,3.49-17.26-11.49-49.34-10.71-69.91-1.32-18.9,16.86-30.46,17.34-48.47.57-21.66-22.71-26.96-36.88-12.92-11.43,10.74-9.43,19.7-12.42,33.91-.45,2.13-1.79,7.85-1.55,9.63,1.02.34.59.22,1.33.4.36.87.16.61.54.94,9.07-2.91,8.87,6.82,4.95,12.66-5.66,1.63-5.73.92-10.53-2.23l-.76.68.04,1.12,1.56,1.17c-.24.59-.03.24-.98.76-.43,3.43-1.73,5.89-2.08,9.21-.28,2.72,1.7,4.06.91,6.68,3.05.88,5.21.76,6.86,4.11,1.26,11.94-10.64,13.96-13.44,4.6-1.37,7.35-3.34,14.07-4.03,21.55,2.66,2.2,21.51.98,30.03,6.31-.39,6.29-1.23,7.9-3.18,13.91.13,3.03.64,6.77,1.1,9.81,2.26,15.05.49,30.61,1.55,45.61ZM208.13,890.35c.67-1.76,1.29-3.3,1.8-5.11,1.06-2.69,2.26-5.48,2.96-8.27-5.33.89-13.03.03-18.63-.16-12.65-.42-25.36-1.46-37.99-2.29-4.57-.3-19.21-2.67-22.01-.13-.3,3.21-1.08,7.51.4,10.3,9.92,8.79,58.85,5.9,73.48,5.67ZM79.1,540.75l-.58.45c.96,12.83.82,25.67,6.07,37.94,6.99,16.36,23.78,29.86,41.93,30.61.81.03,2.47-.37,3.1-.98-15.45-1.21-22.66-6.34-32.9-16.49-15.13-15-10.87-42.44-17.62-51.54ZM128,632.17c3.81.56,18.38,4.26,20.83,3.49-4.39-1.89-16.26-4.62-20.83-3.49Z" fill="#010001"/><path d="M145.08,776.02l.5.35c.86,3.3-.29,26.87-.53,31.74,19.37,4.03,38.43,9.21,58.18,11.86.72.1,3.22,2.16,3.47,2.87,9.07,25.59-23.44,15.71-35.74,13.45-7.67-1.47-16.12-3.62-23.74-4.51.91,3.74-.43,12.79-1.1,16.65l-.31.02c-.19-5.95.63-11.04.7-16.88-13.39-3.24-27.48-4.6-21.08-22.26,2.73-2.03,3.6-2.64,6.68-4.21,4.74.1,7.75,1.16,12.11,2.76-.67-12.17.73-20.27.84-31.85Z" fill="#010001"/><path d="M128.12,812.15c4.42-5.23,12.49-2.42,18.25-.55,18.16,5.9,36.79,8.06,55.35,11.79,4.82.97,3.18,7.41,1.64,10.6-1.09.94-2.31,2.13-3.57,2.8-3.1,1.66-54.78-8.78-61.51-10.66-2.7-.75-9.73-2.71-10.9-5.35-1.2-2.71-.07-5.96.75-8.63Z" fill="#d5d4d5"/><path d="M147.35,814.7l.73-.7.52.51-.07,3.02c-.05.7.03.31-.39,1.14-.8-1.32-.7-2.42-.79-3.97Z" fill="#a9a8aa"/><path d="M130.92,697.74c5.66-7.67,12.42-4.79,21.11-4.01,7.26.67,14.53,1.24,21.81,1.69,10.88.7,22.88.78,33.75,1.84,1.48.14,4.73,3.58,5.44,5.32,1.68,4.17,1.01,7.2-.41,11.23-1.51,2.06-2.98,3.36-5.5,4.05-6.45,1.75-53.11-1.09-61.28-2.28-3.72-.54-8.2-1.54-11.46-3.47-3.22-1.91-3.99-5.48-4.91-8.83.5-1.84.98-3.68,1.45-5.53Z" fill="#010001"/><path d="M132.97,704.53c.67-5.16,1.27-8.14,7.14-8.43,16.42.7,33.2,3.76,49.88,3.7,4.41-.02,12.8.04,16.9,1.08,3.42,3.27,4.32,4.29,3.26,9.03-.87,2.82-2.55,4.92-5.63,4.93-16.05.07-33.51-.81-49.43-1.9-6.03-.18-9.67-.84-15.36-2.55-4.15-1.18-5.22-1.86-6.76-5.86Z" fill="#d5d4d5"/><path d="M132.97,704.53c.67-5.16,1.27-8.14,7.14-8.43,1.01,2.53,2.4,6.25,2.77,8.93-1.15-.1-2.1-.1-3.25-.12l.14,1.11-.68.36c.49,3.99,1.41,2.01.64,4.01-4.15-1.18-5.22-1.86-6.76-5.86Z" fill="#ebeaea"/><path d="M132.97,704.53c3.02-.15,3.72-.19,6.66.38l.14,1.11-.68.36c.49,3.99,1.41,2.01.64,4.01-4.15-1.18-5.22-1.86-6.76-5.86Z" fill="#d5d4d5"/><path d="M127.77,755.49c7.44-9.48,17.35-3.28,27.4-1.81,16.07,2.45,32.33,3.34,48.57,2.64,6.96,3.44,8.47,7.31,5.26,14.52l-.43.59c-2.02,2.81-6.05,6.67-9.54,6.75-16.41.39-57.8-1.63-70.34-9.42-.38-.73-.74-1.47-1.08-2.22-2.02-4.46-1.49-6.64.17-11.05Z" fill="#010001"/><path d="M140.29,770.17c-5.02-.81-11.72-3.79-10.55-10.01.45-2.45,1.92-4.6,4.06-5.89,3.6-2.2,18.08,2.25,22.95,2.93,9.31,1.3,17.89,2.57,27.39,2.96,5.92.24,12.88-.65,18.55.39,3.41.63,5.98,4.89,3.87,8.01-5.15,8.39-15.63,6.7-23.94,6.19-1.94-.12-5.89-.2-7.56-.79-2.12.12-32.13-3.13-34.78-3.78Z" fill="#d5d4d5"/><path d="M189.4,763.05l.53-.39c.81,1.66.34,3.66.22,5.76l-.6.32c-.63-1.82-.3-3.74-.16-5.69Z" fill="#c5c4c6"/><path d="M139.47,766.71c1.65-.72,5.02-.56,6.44.52l-.53.93c-1.97-.5-3.94-.98-5.91-1.45Z" fill="#c5c4c6"/><path d="M149,758.2l.3.23c.73,1.47.66,4.03.75,5.76l-.4-.24c-.78-1.68-.61-3.84-.64-5.75Z" fill="#a9a8aa"/><path d="M139.04,758.23h.65c1.05,1.31.94,1.62,1.18,3.27-.55.17-.23.15-.96-.17l-.87-3.09Z" fill="#c5c4c6"/><path d="M303.39,890.09c4.12-5.45,9.14-9.72,16.56-7.25,2.74.9,4.97,2.94,6.1,5.59,1.48,3.51.95,7.34-.35,10.79-4.94,8.46-10.15,10.03-18.89,6.04-4.51-6.1-5.34-7.74-3.42-15.18Z" fill="#010001"/><path d="M310.51,903.4c-11.62-8.43,1.04-22.12,10.2-16.4,3.98,2.49,4.33,10.18.87,14.01-4.29,3.04-5.87,3.71-11.06,2.39Z" fill="url(#linear-gradient)"/><path d="M310.51,903.4c1.35-1.36,2.6-4.29,3.67-4.47,1.86,1.18,1.93,1.68,3.74,1.66.68-.66,1.36-1.32,2.02-2,.13,1.22.18,1.15-.32,2.26,1.05.57.48.36,1.95.16-4.29,3.04-5.87,3.71-11.06,2.39Z" fill="#c5c4c6"/><path d="M271.62,850.78c3.88-5.52,11.5-6.85,17.02-2.96,5.52,3.89,6.83,11.51,2.94,17.02-1.93,2.74-4.91,4.56-8.23,5.04-3.32.48-6.69-.43-9.31-2.5-5.08-4.02-6.14-11.3-2.42-16.6Z" fill="#010001"/><path d="M274.38,863.47c-3.06-5.21-2.2-7.86,1.68-12.17,4.18-2.33,5.39-2.96,9.68-.7,7.28,4.68.8,21.38-11.36,12.88Z" fill="#d5d4d5"/><path d="M274.38,863.47c-3.06-5.21-2.2-7.86,1.68-12.17l3.99,2.05c-.25,5.22-2.14,5.95-5.67,10.12Z" fill="#f5f5f5"/><path d="M290.04,858.92c.28-.45.06-.2.91-.46,1.26,2.18.16,5.06-1.74,6.56-1.07.76-1.09.74-2.33,1.19,2.03-2.99,3.04-3.83,3.16-7.3Z" fill="#949394"/><path d="M264.99,793.25c1.61-5.91,10.38-6.57,12.78-.88,1.99,4.03-.95,9.93-5.8,9.94-4.5.26-8.44-4.57-7.03-8.88l.06-.19Z" fill="#010001"/><path d="M268.94,793.81c1.15-1.36,3.36-2.08,4.96-1.13,1.48.84,2.56,3.38,1.34,4.92-2.46,3.32-9.14.37-6.42-3.63l.13-.16Z" fill="#ebeaea"/><path d="M280.43,811.69c4.98-7.07,14.23-1.14,10.03,6.4-4.72,7.41-14.6,1.49-10.14-6.22l.11-.18Z" fill="#010001"/><path d="M282.24,815.07c.42-.68,1.75-.99,2.32-1.24.6-.25.39-.74.62-1.18.16-.36.99-.44,2.07-.01,1.29.51,2.28,1.81,2.25,3.21-.08,2.03-2.33,3-4.13,2.68-1.51-.11-3.86-1.87-3.19-3.35l.06-.11Z" fill="#ebeaea"/><path d="M158.57,719.07c1.28,1.7.11,25.83.16,30.22l-.4-.22c-1.08-2.32-.25-25.99.24-30Z" fill="rgba(1,0,1,.77)"/><path d="M145.31,727.04l1.14-.23c-.82,3.17-.66,15.55-1.11,20.07l-.32.33.09.92-.07.03.08-1.15-.31-.2c-.2-3.79-.13-16.43.49-19.78Z" fill="rgba(1,0,1,.92)"/><path d="M164.8,792.8l.62-.25c.63,1.95.2,6.26-.43,8.27l-.12.21-.46-.14c-.22-2.9.1-5.23.39-8.1Z" fill="rgba(104,103,105,.1)"/><path d="M145.31,727.04c.29-1.92.7-6.48,1.38-7.94.12,2.18.28,5.62-.24,7.71l-1.14.23Z" fill="rgba(1,0,1,.81)"/><path d="M199.95,36.68c7.16-5.61,14.04.18,9.35,9.31-1.39.83-3.16,1.29-4.72,1.78-1.7-.41-3.41-.8-5.12-1.16-.55-3.81-1.09-6.3.5-9.93Z" fill="#010001"/><path d="M202.59,38.61c1.41-1.33,3.63-1.27,4.96.13s1.28,3.62-.12,4.96c-1.4,1.34-3.63,1.29-4.97-.12-1.34-1.41-1.28-3.64.13-4.97Z" fill="#ebeaea"/><path d="M216.32,658.42c.24-3.82.09-19.92,1.05-21.96l.71.06c1.69,2.6,2.15,4.44,2.32,7.45.3,5.48,7.4,9.17,11.86,11.75,6.74,2.12,12.02,2.74,19,1.74,1.94-.28,4.09-.89,5.96-.92,4.97-2.32,10.29-4.48,14.74-7.67,10.19-7.38,17.12-18.43,19.32-30.82,2.12-12.55,1.22-35.26,21.61-30.86,8.39,3.47,12.27,8.44,15.18,16.86,7.03,12.49,7.96,36.05,5.56,49.9-7.51,43.16-38.52,61.23-27.16,109.33,3.16,7.93,4.98,16.35,7.88,24.11,2.67,7.14,6.41,15,9.37,22.26,1.88,4.66,3.7,9.13,5.37,13.87,4.92,12.02,7.88,20.63,11.88,33.01l1.1-.14c.58,2.53,2.8,10.47,2.26,12.31-.28,7.09,3.14,18.49,3.22,26.08,0,.34,1.78,2.01,2.2,2.34-.11,3.46-.65,8.38.73,11.34-.12,2.39.03,5.42-1.39,7.28-.91-4.08-1.37-14.72-3.42-17.15-1.49.17-3.9,1.9-5.94,2.51-.37-1.89-.6-10.03-1.11-13.43-1.69-11.04-4.31-20.64-7.97-31.11-15.38-43.91-45.5-81.12-34.9-130.38,5.3-24.62,18.89-44.62,24.98-68.82,3.42-13.59,4.06-30.78-2.17-43.73-2.15-4.47-4.94-8-7.51-12.21-1.01-.04-2.02-.04-3.02-.01-12.43.45-9.88,18.89-13.06,27.71-9.7,26.95-31.38,36.89-58.72,38.05l-1.6-.03-6.75-.12-4.32-.31c-3.18-.68-4.34-.99-7.68-.91l.45-7.37Z" fill="#f5f5f5"/><path d="M216.32,658.42c.24-3.82.09-19.92,1.05-21.96l.71.06c1.69,2.6,2.15,4.44,2.32,7.45.3,5.48,7.4,9.17,11.86,11.75-1.13,1.55-.81,1.67-2.29,2.14-3.28-1.81-2.53-2.48-5.47-4.31l-.61.36-.1,1.58c1.08,1.42,2.23,2.53,2.37,4.22l-.41.76c-.51,3.81-.47,3.52,2.14,6.55l-4.32-.31c-3.18-.68-4.34-.99-7.68-.91l.45-7.37Z" fill="#c5c4c6"/><path d="M320.43,807.81c-3.48-8.11-16.88-36.98-13.98-44.53,3.16,7.93,4.98,16.35,7.88,24.11,2.67,7.14,6.41,15,9.37,22.26l-3.27-1.83Z" fill="#c5c4c6"/><path d="M312.86,587.18c8.39,3.47,12.27,8.44,15.18,16.86l-1.34-.75c-2-4.67-3.17-7.29-7.93-9.58-1.19-.66-3.69-4.59-5.91-6.53Z" fill="#d5d4d5"/><path d="M329.06,823.51c-4.05-3.52-6.96-10.65-8.63-15.71l3.27,1.83c1.88,4.66,3.7,9.13,5.37,13.87Z" fill="#d5d4d5"/><path d="M340.95,856.53l1.1-.14c.58,2.53,2.8,10.47,2.26,12.31-1.12-1.62-2.83-9.78-3.36-12.18Z" fill="#686769"/><path d="M318.78,593.71c4.75,2.29,5.93,4.91,7.93,9.58l.05.4-.41.21c-2.55-4.14-4.09-6.79-7.56-10.19Z" fill="#949394"/><path d="M313.48,602.36l.83-.12c1.12.69,2.29,2.5,3.14,3.64l-.15.16c-1.3-.38-2.74-2.45-3.82-3.67Z" fill="#c5c4c6"/><path d="M85.3,1000.6l1.07-.7c22.87,8.56,41.43,10.8,65.29,13.65,39.86,4.76,79.96,7.23,119.03-4.36,20.36-7.48,25.97-10.68,43.01-23.62,2.25-1.89,4.45-3.86,6.58-5.88,24.57-23.47,31.71-46.29,32.38-79.68,4.33,2.13,1.22,2.19,2.5,5.39l.93,2.67.79-.75c2.76,3.42-2.31,21.85-1.9,28.1-4.76,23.82-20.49,46.3-39.96,60.14-35.03,24.91-84.77,30.13-126.57,27.46-11.94-.76-19.52-.42-31.83-2.46-3.98.22-21.62-4.76-25.94-6.31-6.01.3-38.69-11-45.38-13.65Z" fill="#ebeaea"/><path d="M352.67,900.02c4.33,2.13,1.22,2.19,2.5,5.39l.93,2.67-.16.92c-3.69,22.49-.98,26.3-13.5,47.91-.84,2.7-2.51,5.27-4.13,7.58-5.27,7.22-10.74,13.61-18.13,18.8-.98,1.48-6.14,5.34-7.8,6.38l.04-1.21c.89-1.37.85-1.31,1.28-2.89,2.25-1.89,4.45-3.86,6.58-5.88,24.57-23.47,31.71-46.29,32.38-79.68Z" fill="#d5d4d5"/><path d="M342.44,956.91c.11-1.65,3.04-7.78,3.95-9.53,6.79-13.08,6.91-27.31,8.77-41.97l.93,2.67-.16.92c-3.69,22.49-.98,26.3-13.5,47.91Z" fill="#686769"/><path d="M320.18,983.3c3.08-4.04,8.13-7.91,11.44-12,1.22-1.52,5.11-6.37,6.7-6.8-5.27,7.22-10.74,13.61-18.13,18.8Z" fill="#a9a8aa"/><path d="M270.7,1009.2c20.36-7.48,25.97-10.68,43.01-23.62-.43,1.58-.39,1.52-1.28,2.89l-.04,1.21c-4.86,5.88-34.9,22.11-41.69,19.52Z" fill="#c5c4c6"/><path d="M172.82,1019.7c14.85.13,29.55,1.9,44.43,1.07,3.56-.2,8.25-.39,11.72,0-13.89,2.8-41.45-.32-56.46-.28l.31-.79Z" fill="#363639"/><path d="M160.34,263.57c.77-.35,42.89-2.28,46.81-2.51-.6,10.32.53,29.11.68,40.32-2.44.35-5.26.26-7.74.25-13.42-.02-26.93,1.06-40.32,1.13.73-10.29.37-28.27.56-39.19Z" fill="#ebeaea"/><path d="M192.57,283.69c.19-.65.42-.95.2-1.6-.76-2.18.75-12.22.75-15.71l.44-.49c1.16,2.64.88,14.38.84,17.92l-2.22-.11Z" fill="#d5d4d5"/><path d="M194.79,283.8c3.73-.18,7.45-.24,11.18-.18l-.12.59c-2.37.14-9.11.38-10.94,1.45-.03,4.55.4,8.66.81,13.17l-.37.31c-1.19-2.25-.87-10.17-1.99-14.13l-1.81-.4-.31-.49,1.32-.43,2.22.11Z" fill="#a9a8aa"/><path d="M173.15,274.55c1.27-.61,9.87.13,11.62.35-1.25.65-4.22.67-5.81.79-1.51.1-3.18-.08-4.72-.18.27,1.98.64,3.76.38,5.73-.95-2.03-1.13-4.43-1.47-6.69Z" fill="#c5c4c6"/><path d="M170.39,284.8c2.61-1.27,14.07-.72,17.5-.63-3.47,1.76-13.55,1.11-17.5.63Z" fill="#c5c4c6"/><path d="M159.29,336.14c2.84-.47,11.57-.76,14.71-.94,10.77-.65,21.54-1.15,32.33-1.51,2.33,10.25-.62,24.09.69,33-1.67.44-11.87.19-14.28.22-11.51.14-23.05,0-34.56.45,1.11-10.89.53-20.53,1.12-31.23Z" fill="#f5f5f5"/><path d="M193.6,351.63c-2.54-.06-2.24-.46-3.92.7-1.23,3.15.36,7.04-.94,11.77l-.49-.13c.04-2.93.3-9.4-.11-12.01-4.07-.43-13.79.28-16.2-.48l.13-.52c4.44-.03,11.58-.32,15.86-.09.12-3.95-.31-10.24.06-13.47.81,4.88.94,8.28,1.08,13.25,4.41-.09,6.05-.05,10.37.6l.06.36c-1.96.1-3.27.08-5.23-.02l-.68.04Z" fill="#c5c4c6"/><path d="M167.65,351.1c1.63-2.74-.3-8.55.47-11.46.67,3.2,1.45,9.74,1.02,12.9-.04,3.59.05,8.72-.25,12.19-.41-2.64-.99-13.1-1.24-13.63Z" fill="#a9a8aa"/><path d="M193.6,351.63l.68-.04c1.02,2.42,1.21,3.21,1.12,5.8l-1.12-.58.65,1.36.4-.42-.27.44c-1.21-1.37-1.21-4.51-1.44-6.57Z" fill="#d5d4d5"/><path d="M161.03,351.53c1.97-.78,4.64-1.51,6.62-.43-2.32.73-4.21,1.13-6.62.43Z" fill="#d5d4d5"/><path d="M159.68,260.63c.96-8.58.3-22.33.15-31.32,3.46.48,6.23.77,9.72.47l.83.09c10.9-.06,24.23-.61,35.05-1.19-.31,8.22.11,21.96.98,30.03-15.4.42-31.32,2.21-46.72,1.92Z" fill="#f5f5f5"/><path d="M169.54,229.78l.83.09c-.21,4.29,2.18,26.4,1.42,27.88-.98-1.36-.83-6.87-1.16-9.34-.39-5.7-1.89-13.06-1.09-18.62Z" fill="#c5c4c6"/><path d="M163.3,248.9c2.91-1.41,4.12-1.14,7.34-.51-2.8.57-4.46.86-7.34.51Z" fill="#ebeaea"/><path d="M172.74,248c2.6-1.77,15.27-2.33,18.81-2.21l-.37.73c-5.37.86-12.99,1.24-18.44,1.48Z" fill="#c5c4c6"/><path d="M191.84,247.55l.36.16c.78,1.28.56,5.07.61,6.91-.54-.34-.2-.09-.88-.93-.49-2.74-.39-3.34-.09-6.14Z" fill="#c5c4c6"/><path d="M180.9,238.74l.5-.02c.73,1.78.59,3.11.63,5.03l-.64.05c-.73-1.47-.52-3.35-.5-5.06Z" fill="#d5d4d5"/><path d="M157.16,427.72c3.28-.32,7.1-.23,10.44-.23l.45.1c7.64,0,15.67-.1,23.27.21,5.39-.04,11,0,16.37-.18-.09,8.42-.39,18.47.09,26.85-4.67-.07-9.35-.06-14.02.01l-1.07-.04c-11.62-.1-24.19.3-35.89.44-.34-8.68.15-18.4.37-27.16Z" fill="#f5f5f5"/><path d="M191.32,427.79c5.39-.04,11,0,16.37-.18-.09,8.42-.39,18.47.09,26.85-4.67-.07-9.35-.06-14.02.01l-1.07-.04c.5-3.87-.06-10.59.69-14.01-2.05-5.15.32-8.32-2.06-12.63Z" fill="#ebeaea"/><path d="M192.68,454.43c.5-3.87-.06-10.59.69-14.01l.8.61c-.05,2.57-.04,11.37-.42,13.43l-1.07-.04Z" fill="#c5c4c6"/><path d="M167.6,427.49l.45.1c.45,2.78-.02,11.41,0,14.99-1.09-2.76-.68-11.9-.45-15.08Z" fill="#a9a8aa"/><path d="M157.11,396.75c.49-8.65,1.1-17.85.98-26.49,8.25-.81,18.74-.6,27.18-.62,6.25,0,15.18-.24,21.23.22-.13,8.49,0,18.52.5,26.97-5.78-.56-10.94-.43-16.72-.39l-1.04.08c-11.36-.3-21.02.21-32.13.23Z" fill="#f5f5f5"/><path d="M189.24,396.52c-.6-4.06-.46-5.81-.24-9.95l.28.14c.81,3.8.55,7.9,1,9.73l-1.04.08Z" fill="#d5d4d5"/><path d="M170.57,376.85l.56-.32c.84,1.09.68,3.68.79,5.36,2.66-.02,11.91.18,14.11.85-2.27,1.49-8.01.53-10.97.25-1.39-.1-1.56-.22-2.87.18-1.26,3.24,1.53,8.88-1.07,11.56.1-5.96-.68-11.64-.55-17.88Z" fill="#c5c4c6"/><path d="M193.31,383.07l.13-.87c2.07-.78,8.23-.2,10.53.59-1.24.69-8.98.53-10.66.28Z" fill="#c5c4c6"/><path d="M157.66,399.36c8.2-.84,28.78-.62,37.38-.44l.93.23,11.25.03.75,26.03c-15.68-1.41-34.84.55-50.99-.55,1.01-7.6-.18-17.14.68-25.3Z" fill="#f5f5f5"/><path d="M195.04,398.93l.93.23c.31,2.69.37,21.09-.04,23.56l-.47.21c-.78-3.85-.04-18.16-.38-23.41l-.04-.59Z" fill="#c5c4c6"/><path d="M165.03,412.33c2.31-.68,15.53-1,17.58.33-3.71.43-12.69-.03-15.39,1.23-1.44-.4-.96-.32-2.2-1.56Z" fill="#c5c4c6"/><path d="M189.38,401.2l.44-.06c.97,3.23.1,7.36,1.04,11.53l-.5.15c-1.1-1.66-.91-9.19-.98-11.62Z" fill="#c5c4c6"/><path d="M182.34,417.02l.81-.27c.62,1.71.58,4.72.66,6.65l-.71.26c-.72-1.69-.64-4.64-.75-6.64Z" fill="#d5d4d5"/><path d="M159.44,333.64c.01-6.24-.27-22.65.54-28.23,10.28-.39,20.57-.68,30.86-.87,3.42-.07,11.52-.45,14.64.05l-.16.67c.46,8.63.85,17.27,1.19,25.9-6.13.23-13.63.31-19.64.8l-.86.17c-8.87.27-17.73.77-26.57,1.51Z" fill="#f5f5f5"/><path d="M185.28,317.61c-4.87.2-14.36.79-18.84.02,5.75-.52,12.29-.65,18.22-1.05l1.05-.24c2.66-.03,14.43-.27,16.02.26-3.95,1.08-10.97.37-15.62.92.36,4.13.31,11.25.75,14.44l-.86.17c-.19-4.83-.34-9.71-.72-14.52Z" fill="#949394"/><path d="M184.66,316.58c-.06-2.18-.37-5.18.41-7.09l.28.17.22,1.26-.74.05.74-.38c.47,2.48.36,3.21.15,5.75l-1.05.24Z" fill="#ebeaea"/><path d="M342.05,856.39c-3.51-14.92-7.92-27.5-13.81-41.77-12.67-30.75-28.49-59.63-18.54-93.73,5.52-18.91,16.15-32.63,22.43-51.62,1.45-.73,2.23-.92,3.85-1.18-1.62,8.33-3.72,12.67-6.58,20.55-1.94,5.35-2.85,9.69-5.47,15.09-1.05,4.78-5.2,15.29-7.22,20.16-7.3,24.19-6.74,28.38-1.02,53.35l2.04-.08-.88-2.75c1.16.41,2.31.83,3.46,1.27,1.16,3.51,2.43,7.17,3.47,10.7,3.59,9.17,7.38,18.26,11.35,27.27,2.04,4.75,5.87,13.22,7.19,18.01l-2.35-.62c-.99-2.94-1.86-5.97-3.38-8.66-1.23-1.78-1.24-2.4-3.29-2.37,2.29,5.38,7.13,17.54,8.64,22.93,4.96,17.75,10.34,47.16,8.51,65.52-1.39-2.96-.84-7.87-.73-11.34-.42-.34-2.19-2-2.2-2.34-.08-7.59-3.5-18.99-3.22-26.08.54-1.84-1.68-9.78-2.26-12.31Z" fill="url(#linear-gradient-2)"/><path d="M316.86,774.41c1.16.41,2.31.83,3.46,1.27,1.16,3.51,2.43,7.17,3.47,10.7,3.59,9.17,7.38,18.26,11.35,27.27,2.04,4.75,5.87,13.22,7.19,18.01l-2.35-.62c-.99-2.94-1.86-5.97-3.38-8.66-1.23-1.78-1.24-2.4-3.29-2.37-3.48-6.19-16.59-37.01-17.61-42.77l2.04-.08-.88-2.75Z" fill="#363639"/><path d="M322.35,787.22c.32-.19,1.13-.71,1.44-.83,3.59,9.17,7.38,18.26,11.35,27.27,2.04,4.75,5.87,13.22,7.19,18.01l-2.35-.62c-.99-2.94-1.86-5.97-3.38-8.66-.72-5.03-7.03-16.14-9.16-21.51-1.79-4.52-3.44-9.06-5.09-13.66Z" fill="#a9a8aa"/><path d="M316.86,774.41c1.16.41,2.31.83,3.46,1.27,1.16,3.51,2.43,7.17,3.47,10.7-.31.12-1.12.64-1.44.83-1.29-3.04-3.08-7.22-4.61-10.06l-.88-2.75Z" fill="url(#linear-gradient-3)"/><path d="M316.72,723.9c-.4-5.26,2.63-6.69,2.48-9.98l-1.45.25c-1.24.9-1.3,1.33-1.89,2.74l-.19.46c-.25-2.21,3.69-12.76,5.49-13.39.09,1.27.03,1.91.54,3.07.54-1.02.82-1.74,1.14-2.85l1.11-.45c-1.05,4.78-5.2,15.29-7.22,20.16Z" fill="#949394"/><path d="M155.9,483.13c3.78-.76,10.59.04,14.77.19,8.41.29,16.81.5,25.22.63l.81.04c3.64.05,7.28.17,10.92.36.08,7.28-.05,16.43.75,23.51-16.88-.6-36.32-1.59-53.14-2.56.03-6.83.29-15.42.69-22.17Z" fill="#f5f5f5"/><path d="M195.89,483.95l.81.04c.17,4.4,1.05,16.88.71,20.41l-.54.02c-.97-2.42-.92-16.86-.98-20.47Z" fill="#a9a8aa"/><path d="M166.72,485.11l.58.33c1.48,3.57.45,14.38.07,18.26l-.32-.13c-.26-.51-.07-15.81-.33-18.45Z" fill="#a9a8aa"/><path d="M179.11,486.45l.42-.26.57.37c.55,3.44,1.02,8.56.73,12.02l-.77-.1c-1.4-.13-2.07.07-2.95-.66l1.93-.47c1.24-2.05.32-8.09.08-10.91Z" fill="#d5d4d5"/><path d="M125.25,865.61c1.02-9.41.65-12.93,10.92-11.46,19.64,2.81,40.43,5.78,60.25,6.53l.93.05c6.22.39,10.12.58,15.74,3.11.23,3.38.34,6.06-1.13,9.14-2.99,2.43-17.47.74-21.96.46-10.85-.68-21.7-1.43-32.54-2.24-8.67-.69-18.14-1.8-26.8-1.5-1.21-1.76-3.53-2.92-5.42-4.1Z" fill="#d5d4d5"/><path d="M196.42,860.67l.93.05c-.14,2.99-.64,8.72-1.59,11.45-.46-4.83-.63-6.78.66-11.5Z" fill="#a9a8aa"/><path d="M156.21,479.77c-.51-7.77.14-14.11.03-21.57,14.93.2,36.73-1.91,51.12-.74.38,7.96.13,16.7.85,24.42-10.24-1.21-29.65-1.77-40.36-1.59l-.73-.31c-3.39-.04-7.59.01-10.91-.21Z" fill="#f5f5f5"/><path d="M167.12,479.99c-.56-4.5-.85-15.19,0-19.59.73,4.09.41,15.01.73,19.9l-.73-.31Z" fill="#686769"/><path d="M183.4,469.64l.38-.64c3.27.24,5.07.29,8.35.16.24-3.51-.06-5.17.68-8.85l-.03,1.01.39.23c.21,1.82.11,4.27.1,6.16.36,1.57.31,7.19.31,8.88l-.93-.23.56,1.36h0c-.93-2.16-.95-5.28-1.13-7.72-2.82.39-5.91.47-8.66-.36Z" fill="#c5c4c6"/><path d="M177.48,468.78c.4-.58.67-.95,1.11-1.5,1.34,1.74.34,3.15.76,6.24l-.12,1.43c-1.16-.96-.56-4.05-1.75-6.17Z" fill="#a9a8aa"/><path d="M170.4,469.47c1.74-1.52,5.08-1.76,7.08-.69l-.54.6c-1.99.08-4.61.26-6.54.09Z" fill="#d5d4d5"/><path d="M151.08,651.64c3.46-.43,7.99-.29,11.57-.29h.94c15.36.35,35,1.03,50.23-.37-.17,6.31-.18,13.35-1.75,19.43-10.02,1.42-25.67-.31-36.37-.3-2,0-14.01-.31-15.74-.55-1.63.56-7.23-.6-9.09-.95-1.46-5.42-.36-11.32.21-16.98Z" fill="#ebeaea"/><path d="M151.08,651.64c3.46-.43,7.99-.29,11.57-.29l-.52,4.11c-6.57,2.75,1.33,10.61.39,13.26-.9.26-1.72.45-2.56.84-1.63.56-7.23-.6-9.09-.95-1.46-5.42-.36-11.32.21-16.98Z" fill="#ebeaea"/><path d="M162.65,651.35h.94c-.03,2.12-.05,3.92.04,6.03l-.78.19-.72-.55v-1.56s.51-4.11.51-4.11Z" fill="#c5c4c6"/><path d="M200.47,665.3c1.81-.9,7.08-.08,9.83,0l-1.44,1c-3.22.44-5.24-.11-8.38-.99Z" fill="#d5d4d5"/><path d="M176.6,662.54l.32-.65c2.11-.12,4.42.11,6.55.25-2.1.86-4.69.93-6.87.4Z" fill="#a9a8aa"/><path d="M198.94,661.93c2.34-1.09,3.05-1,5.53-.66-2.3,1.3-3.06,1.09-5.53.66Z" fill="#d5d4d5"/><path d="M154.83,531.89c14.72,1.08,29.43,1.29,43.71,2.48,3.37-.05,6.68-.08,10.05-.29-.3,5.71-.2,16.35.54,22.02-3.58-.61-5.94-.85-9.58-1.11l-.63.14c-5.01-.77-12.28-.96-17.52-1.24-9.07-.41-18.13-.99-27.17-1.76-.25-6.37.18-13.9.61-20.24Z" fill="#ebeaea"/><path d="M198.77,535.53l-.23-1.17c3.37-.05,6.68-.08,10.05-.29-.3,5.71-.2,16.35.54,22.02-3.58-.61-5.94-.85-9.58-1.11l-.63.14c-.04-6.97-.43-12.47-.15-19.59Z" fill="#f5f5f5"/><path d="M198.92,555.12c-.04-6.97-.43-12.47-.15-19.59,1.62,3.01,1.32,16.1.78,19.45l-.63.14Z" fill="#c5c4c6"/><path d="M155.21,508.58c2.14-.52,48.24,1.81,52.71,2.26-.36,6.32-.08,14.48.75,20.71-3.6.09-7.71-.3-11.34-.51-14.03-.84-28.24-.66-42.25-1.79-.28-6.82-.52-13.88.12-20.67Z" fill="#f5f5f5"/><path d="M196.83,513.12l.34-.3c.98,1.7.87,10.57.87,12.98l-.12.36-.51.17c-1-1.87-.81-10.86-.58-13.2Z" fill="#d5d4d5"/><path d="M190.7,513.21l.44-.37c1.99,2.02-1.65,3.76,3.05,8.77-.93.32-1.29.39-2.25.61l-.91-.79c-.85-2.15-.43-5.75-.33-8.22Z" fill="#d5d4d5"/><path d="M184.12,517.22c.19-.04.04-.04.57.24.08,3.79.1,7.58.06,11.37-.42.04-.13.05-.76-.41-.43-3.53-.06-7.6.14-11.2Z" fill="#949394"/><path d="M153.5,596.49c.04-6.52.18-13.04.42-19.56,18.26.97,39.1,1.38,57.15,3.03.35,6.42.26,12.39.89,18.81-5.08-.46-9.29-.76-14.42-.93h-.66c-14.48-1.27-28.48.09-43.38-1.36Z" fill="#ebeaea"/><path d="M196.87,597.86c-1.39-4.9-1.12-11.38-1.04-16.51l.07.96.24.03c.41,3.99.74,12.27,1.38,15.5h-.66Z" fill="#949394"/><path d="M185.45,581.4c.39-.1.15-.09.69.17.31,4.44.7,8.93.83,13.38l-.29.06-.59-.46c-.65-3.37-1.24-9.83-.65-13.15Z" fill="#c5c4c6"/><path d="M177.43,591.12l.16-.3c1.37-.76.61-.59,2.42-.18l-.14.31c-1.33.8-.58.58-2.44.17Z" fill="#c5c4c6"/><path d="M154.26,554.94c2.49.1,5.05.36,7.54.58,5.06-.04,11.19.45,16.29,1.09,10.42,1.32,20.75,1.1,31.12,1.78-.61,5.97.54,12.82,1.5,18.79-5.47-.7-10.06-.72-15.15-1.26l-.98.02c-10.56-.96-22.27-.76-33.04-1.16l-7.53-.93c-.48-5.69-.08-13.16.26-18.9Z" fill="#ebeaea"/><path d="M154.26,554.94c2.49.1,5.05.36,7.54.58l1.03.77c.35.72.1,14.11.11,16l-.57.96-.83,1.53-7.53-.93c-.48-5.69-.08-13.16.26-18.9Z" fill="#f5f5f5"/><path d="M162.83,556.28c.35.72.1,14.11.11,16l-.57.96c-1.3-2.81-.99-14.04.45-16.96Z" fill="#c5c4c6"/><path d="M194.58,575.93c-.04-2.02-.42-12.02-.02-13.24.77,5.13.88,8.1,1,13.22l-.98.02Z" fill="#a9a8aa"/><path d="M185.86,562.13l.79.06c.57,3.28.06,7.4-.56,10.67l-.18.08-.37-.19c.2-3.68.32-6.92.32-10.61Z" fill="#a9a8aa"/><path d="M199.7,561.37l.68.11c.32,2.94.59,5.89.8,8.83-.4.11-.11.07-.84-.24-.55-2.76-.53-5.86-.63-8.7Z" fill="#c5c4c6"/><path d="M160.45,200.87l.6-.06c9.09,5.09,31.6,3.26,41.56,1.37.31,9.16.34,14.73,2.07,23.75l-.81.38c-10.26.82-34.39,1.25-43.9.13-.25-5.9-.2-19.82.48-25.57Z" fill="#f5f5f5"/><path d="M169.39,210.61c.04,3.16.02,5.88-.11,9.03-.67-1.03-.36-7.04-2.32-9.47l.34-.44,2.1-.09v.97Z" fill="#686769"/><path d="M169.4,209.65c3.6.13,6.97.13,10.5.89-3.38.43-7.12.39-10.51.08v-.97Z" fill="#c5c4c6"/><path d="M192.44,206.49l.61.04c.53,2.43.4,5.64.42,8.19l-.72-.02c-.4-2.45-.3-5.67-.32-8.21Z" fill="#c5c4c6"/><path d="M165.67,120.71c4.03.69,8.17,1.28,12.04,2.56,5.93.87,9.7,1.71,15.72.83,3.5-.1,6.43-.62,8.22,3.17,3.82,5.53-2.26,4.95.47,11.67l-2.43-1.78c.41,4.72.6,7.94-.31,12.61-.96.98-1.24,1.06-2.87.82-6-.44-11.99-1.29-17.96-2.06l-.75-.41c-6.55-.74-12.95-1.28-19.47-2.36,2.37-8.36,4.82-16.71,7.34-25.03Z" fill="#ebeaea"/><path d="M165.67,120.71c4.03.69,8.17,1.28,12.04,2.56.66,3.09,1.59,3.44,4.32,5.24-2.65,6.86-4,12.32-4.23,19.6-6.55-.74-12.95-1.28-19.47-2.36,2.37-8.36,4.82-16.71,7.34-25.03Z" fill="#ebeaea"/><path d="M182.03,128.51l1.25.12c-.77,2.01-2.55,6.36-2.6,8.38-.11,4.1-1.58,7.81-2.13,11.51l-.75-.41c.23-7.28,1.58-12.74,4.23-19.6Z" fill="#363639"/><path d="M152.79,615.42c6.02-.25,14.85.78,21.07,1.18,12.45.8,24.78,1.77,37.28,1.83-.05,4.63.15,7.22.69,11.83,0,1.34,0,1.89.2,3.25-14.97-.17-29.97-1.09-44.97-.85-4.69.07-10.29.07-14.89-.61-.06-4.72.51-11.59.63-16.62Z" fill="#f5f5f5"/><path d="M162.17,623.33l.67-.05c.8,1.57.52,5.64.49,7.55l-.63.08c-.86-1.39-.54-5.75-.52-7.58Z" fill="#c5c4c6"/><path d="M186.78,618.45c1.26,1.21,1.2,6.38,1.32,8.37l-.56-.35c-.91-1.79-.86-5.98-.76-8.01Z" fill="#c5c4c6"/><path d="M177.46,622.46l.58.03c1.2,2.26,1.22,4.43,1.51,7-.46.16-.18.12-.85-.1-.34-2.33-.75-4.64-1.23-6.93Z" fill="#c5c4c6"/><path d="M8.08,923.82c1.22-.48,2.73-1.01,3.84-1.64,3.1-.67,3.2,1.14,5.55,2.84,2.79,2.48,12.85,19.65,17.3,25.28,8.02,10.12,15.15,14.06,22.25,21.72,8.38,8.4,4.97,10.64,17,18.07,1.15,1.14,2.98,2.64,3.37,4.09-.48-.17-.96-.36-1.43-.55-36.37-14.9-52.92-34.3-67.88-69.81Z" fill="#f5f5f5"/><path d="M153.81,599.31c2.86-.23,11.63.44,15.07.54,14.2.3,28.39.94,42.55,1.9-1.06,4.51-.49,9.59-.2,14.25-2.02.07-4.89-.17-6.97-.33-16.93-1.29-34.08-1.38-50.98-2.89.11-4.49.29-8.98.53-13.46Z" fill="#f5f5f5"/><path d="M172.89,608.5l.45-.32.55.35.52,3.21-.85.17-.58-.49-.1-2.93Z" fill="#d5d4d5"/><path d="M170.53,102.68c4.37-22.85,10.98-41.85,16.67-63.67,1.63,1.69,1.07,1.65,2.86,1.8l1.94-.89c-.72,8.33-4.06,16.3-5.49,24.95l-.2.62.05,2.08.81,1.27-.76.68.04,1.12,1.56,1.17c-.24.59-.03.24-.98.76-.43,3.43-1.73,5.89-2.08,9.21-.28,2.72,1.7,4.06.91,6.68,3.05.88,5.21.76,6.86,4.11,1.26,11.94-10.64,13.96-13.44,4.6-1.37,7.35-3.34,14.07-4.03,21.55l-1.68.05-.39.21c-3.14-.08-3.82-.18-6.86-.97,1.66-5.38,2.86-9.89,4.19-15.33Z" fill="#363639"/><path d="M170.53,102.68c4.37-22.85,10.98-41.85,16.67-63.67,1.63,1.69,1.07,1.65,2.86,1.8l1.94-.89c-.72,8.33-4.06,16.3-5.49,24.95l-.2.62-1.66.24c-2.35,5.43-3.06,11.11-4.94,16.27-2.87,7.88-4.1,13.16-5.33,21.6-1.24.28-1.55.02-2.82-.35l-1.04-.59Z" fill="#d5d4d5"/><path d="M171.57,103.27c1.27.37,1.58.63,2.82.35,1.23-8.44,2.46-13.72,5.33-21.6,1.88-5.16,2.59-10.84,4.94-16.27l1.66-.24.05,2.08c-4.27,15.39-9.05,30.5-11.97,46.2-.29,1.59-.34,3.51-.81,4.99l-.39.21c-3.14-.08-3.82-.18-6.86-.97,1.66-5.38,2.86-9.89,4.19-15.33l1.04.59Z" fill="#d5d4d5"/><path d="M166.34,118.01c1.66-5.38,2.86-9.89,4.19-15.33l1.04.59c4.79,7.57-2.04,9.24,1.63,15.71-3.14-.08-3.82-.18-6.86-.97Z" fill="#ebeaea"/><path d="M179.3,97.17l.69-.28c1.6,1.52.71,1.15,2.58,1.54.29-2.19.19-2.83,1.42-4.55,3.04-1.9,3.54-.38,6.01.1l.52-1.35c1.16-.3,1.08-.34,2.23-.04,1.26,11.94-10.64,13.96-13.44,4.6Z" fill="#010001"/><path d="M182.57,98.43c.29-2.19.19-2.83,1.42-4.55,3.04-1.9,3.54-.38,6.01.1.56,4.71-3.03,7.92-7.43,4.46Z" fill="#d5d4d5"/><path d="M162.56,638.6c.47-1.16.48-1.85.56-3.08,3.73-1.27,42.66.94,51.08.39.05,4.93-.21,8.83-.55,13.72-5.35-1.05-10.66-.49-16.01-.67-11.84-.39-26.88.75-38.4-.17,3.46-3.63,3.05-5.28,3.32-10.2Z" fill="#ebeaea"/><path d="M179.76,638.75c.48-.29.18-.2.96-.04.74,1.84.76,6.24.87,8.43l-.48-.04c-.81-1.09-.8-5.89-1.35-8.35Z" fill="#c5c4c6"/><path d="M148.86,905.25l-.35-1.35c1.58-1.33,1.69-.64,3.9-1.19l.06-1.08c1.45-.21,1.6-.12,3.09.06,1-.44,3.94-.17,5.46-.31.87-1.6-.22-2.03.43-3.78l.89-2.51.33-1.39c14.76.6,29.54.62,44.3.07-.04,1.45.01,2.93-.26,4.33l.24.82,1.49-1.75c1.54.13.8,0,2.32,1.43-.65,3.53-.66,8.21-4.44,9.43-1.45.17-2.07.12-3.52.08-2.93.32-7.56-.1-10.64-.28l-1.78-.03c-14.66-.73-26.75-1.18-41.51-2.57Z" fill="#d5d4d5"/><path d="M152.41,902.71l.06-1.08c1.45-.21,1.6-.12,3.09.06l1.12.66-.18.41-4.08-.06Z" fill="#c5c4c6"/><path d="M125.25,865.61c1.89,1.18,4.21,2.34,5.42,4.1l1.1,1.33c-.74,4.7-2.13,8.29-2.53,13.16,1.01,1.43,1.99,2.89,2.94,4.37,12.38,4.25,16.99,4.8,30.48,5.14l-.33,1.39-.89,2.51c-.66,1.76.44,2.18-.43,3.78-1.51.15-4.45-.13-5.46.31-1.48-.18-1.63-.27-3.09-.06l-.06,1.08c-2.21.55-2.31-.15-3.9,1.19l.35,1.35c-32.71-2.19-26.75-11.84-23.61-39.64Z" fill="#c5c4c6"/><path d="M173.74,173.57c1.66-4.57,2.92-16.75,3.73-22.04,6.24.77,12.67,1.67,18.93,2.09,1.34-.07,2.48-.12,3.82-.13,1.63,2.77,1.21,18.19,1.49,22.9-1.37-.22-7.79-.94-8.46-1.12l-4.84-.44-14.67-1.27Z" fill="#ebeaea"/><path d="M196.4,153.63c1.34-.07,2.48-.12,3.82-.13,1.63,2.77,1.21,18.19,1.49,22.9-1.37-.22-7.79-.94-8.46-1.12.67-2.44.59-3.04.61-5.63l.32-2.48c.2-3.16.42-5.91.8-9.05l-.28-.59.37-.34,1.52,1.05c.19-1.52-.05-3.07-.19-4.6Z" fill="#d5d4d5"/><path d="M188.41,174.84c.87-1.38.47-2.67.3-4.25l.48-1.02.83.09c1.27.14,2.69.39,3.84-.01-.02,2.59.07,3.19-.61,5.63l-4.84-.44Z" fill="#ebeaea"/><path d="M180.18,162.03c2.19-.56,4.58.54,6.53,1.4l-.21.48c-1.49.05-4.7-1.31-6.32-1.88Z" fill="#d5d4d5"/><path d="M221.05,872.71l.67-1.26c1.46-.19,1.77-.11,3.21.01,9.74,2.61,19.44,4.1,28.37,9.02,20.37,11.23,37.22,27.25,59.07,36.09,8.34,3.37,10.88,2.4,19.19.09-2.38,6.45-7.63,14.12-15.7,10.83-11.83-4.81-22.38-14.79-32.37-22.52-9.44-7.31-18.84-14.88-29.1-21.01-11.79-7.1-20.71-8.06-33.33-11.25Z" fill="#f5f5f5"/><path d="M173.91,176.13c3.58.3,7.24.55,10.8,1.06,4.13.19,14,.03,16.72,2.18.35,1.38.3,2.5-.48,3.81-.04,5.26.18,7.7,1.05,12.9l-7.44-.39c-4.1-.06-21.14-.19-23.82-.95.6-6.5,1.85-12.24,3.18-18.6Z" fill="#f5f5f5"/><path d="M152.83,171.74c1.5-8.45,3.21-16.03,5.17-24.41,5.57,1.85,12.61,2.75,18.49,3.72-1.54,5.29-2.48,16.31-3.61,22.63-6.07-.77-14.03-1.68-20.05-1.95Z" fill="#f5f5f5"/><path d="M194.09,21.73l.55-.28c5.6-22.54,46.37-25.81,48.51-2.03l-.31-.67c-6.61-13.98-18-18.62-32.88-11.88-2.34,1.06-5.23,3.87-5.09,6.65-11.43,10.74-9.43,19.7-12.42,33.91-.45,2.13-1.79,7.85-1.55,9.63,1.02.34.59.22,1.33.4.36.87.16.61.54.94,9.07-2.91,8.87,6.82,4.95,12.66-5.66,1.63-5.73.92-10.53-2.23l-.81-1.27-.05-2.08.2-.62c1.43-8.66,4.76-16.62,5.49-24.95l-1.94.89c-1.79-.15-1.23-.11-2.86-1.8.95-3.58,4.63-14.85,6.89-17.28Z" fill="#363639"/><path d="M186.32,65.5l.2-.62,1.84-1.81.69.18c1.84,3.32,1.64,6.53,6.32,5.9,2.5-1.6,3.44-4.03,2.8-6.93-2.11-2.22-3.73-1.65-6.29-.33-.09-1.36.39-2.19.89-3.47,9.07-2.91,8.87,6.82,4.95,12.66-5.66,1.63-5.73.92-10.53-2.23l-.81-1.27-.05-2.08Z" fill="#010001"/><path d="M187.2,39.01c.95-3.58,4.63-14.85,6.89-17.28.02,4.39-.98,14.11-2.09,18.19l-1.94.89c-1.79-.15-1.23-.11-2.86-1.8Z" fill="#c5c4c6"/><path d="M154.3,192.7c-4.4-7.64-3.28-10.99-1.71-19.61,6.71,1.27,13.46,2.26,20.25,2.98-1.98,7.72-2.52,10.45-3.05,18.5-4.32.36-11.31-.23-15.49-1.87Z" fill="#f5f5f5"/><path d="M225.33,839.76c10.5-33.98,31.1-66.82,33.19-104.59.23-4.04-.95-10.04-1.05-14.52v-.47c8.88,15.51,1.92,37.8-2.26,54.34l-.97-1.02.02-2.29c-.84.83-3.93,11.41-4.85,13.72-7.53,18.71-16.14,36.77-23.09,55.72l-1-.91Z" fill="url(#linear-gradient-4)"/><path d="M339.98,831.05l2.35.62c2.91,7.41,4.45,14.17,6.89,22.15,7.75,25.37,13.18,53.8,6.57,80.03-.08.32-.61,1.24-.81,1.58-.41-6.25,4.67-24.68,1.9-28.1l-.79.75-.93-2.67c-1.28-3.21,1.83-3.26-2.5-5.39-.63-2.46-.7-14.43-1.26-17.8-3.05-18.34-5.29-33.53-11.43-51.17Z" fill="url(#linear-gradient-5)"/><path d="M236.2,827.29c7.22-4.58,16.81,4.03,13.18,11.89-2.3,6.33-11.6,9.02-16.25,3.65-3.86-4.38-1.21-12.12,2.91-15.43l.15-.11Z" fill="#ebeaea"/><path d="M246.28,827.27c1.87-.13,3.94,4.06,4.28,5.85,1.23,5.17-2.63,10.95-7.8,12.6-1.91.64-4.87,1.28-6.45.03-1.44-1.94,3.71-3.34,6-5.15,3.13-1.91,4.11-5.63,3.68-9.1-.01-1.34-.5-3.4.22-4.19l.05-.03Z" fill="#c5c4c6"/><path d="M78.52,541.21l.58-.45c6.75,9.11,2.49,36.54,17.62,51.54,10.24,10.15,17.45,15.28,32.9,16.49-.63.61-2.29,1.01-3.1.98-18.15-.75-34.93-14.25-41.93-30.61-5.25-12.28-5.12-25.11-6.07-37.94Z" fill="url(#linear-gradient-6)"/><path d="M152.13,635.23c3.39.05,6.78.06,10.17.01.07,1.13.16,2.22.26,3.35-.27,4.92.13,6.57-3.32,10.2-2.67-.18-5.22-.18-7.89-.19-.24-3.8.25-9.58.78-13.38Z" fill="#f5f5f5"/><path d="M17.47,925.02c-1.83-3.86-2.46-5.54-3.12-9.94,8.52,17.43,19.99,33.24,33.91,46.75,3.74,3.68,13.1,11.5,15.61,14.85-3.38-1.93-3.79-2.48-6.84-4.66-7.1-7.66-14.23-11.6-22.25-21.72-4.46-5.63-14.51-22.8-17.3-25.28Z" fill="rgba(1,0,1,.99)"/><path d="M213.1,580.09l4.84.05,1.21-.02c.59,2.02.75,16.85.49,19.26-2.51.56-.77-.74-2.68-.29l-2.06-.38c-1.75-2.51-1.68-14.8-1.81-18.63Z" fill="#c5c4c6"/><path d="M217.94,580.14l1.21-.02c.59,2.02.75,16.85.49,19.26-2.51.56-.77-.74-2.68-.29,1.49-5.05-1.24-11.06.97-18.96Z" fill="#686769"/><path d="M316.29,731.05c.03,4.81-.5,10.82-.39,15.33.19,7.65,2.3,22.08,4.42,29.31-1.15-.44-2.3-.87-3.46-1.27-4.36-16.1-4.99-27.55-.57-43.37Z" fill="#686769"/><path d="M335.65,621.94l.9.12c3.09,12.59,1.73,33.11-.57,46.03-1.61.26-2.39.45-3.85,1.18,4.61-19.22,6.25-27.27,3.52-47.34Z" fill="#ebeaea"/><path d="M215.66,633.43c.12-3.6-.31-12.39.58-15.21,1.36.18,1.99.35,3.34.17l-.19-.73-1.45-.5c.63-1.73.08-1.01,2.03-1.96,1.11,6.18.89,12.76,1.81,19.17l-6.13-.94Z" fill="#949394"/><path d="M185.43,201.24c-4.58,1.61-19.56,1.5-23.68-2.22,9.68-1.19,14.29-.93,23.91-.59l-.23,2.82Z" fill="#c5c4c6"/><path d="M212.02,178.37c1.68-3.02,4.93-9.14,7.05-11.79,6.46-8.09,14.95-15.52,22.15-23.05,1.46.26.87-.06,1.88.93-.66,1.33-4.71,4.63-6,5.91-9.11,8.98-18.01,15.77-22.85,27.9-1.46.66-.74.63-2.23.11Z" fill="#a9a8aa"/><path d="M210.72,535.16c1.87-.29,1.05-.44,2.6.15,1.35,2.53,1.27,16.34,1.42,20.5-1.72.13-1.72.17-3.39-.18-1.12-1.87-.66-17.07-.64-20.48Z" fill="#949394"/><path d="M214.89,601.3l5.03-.16c.04,2.28.39,12.61.05,14.07-1.95.94-1.4.23-2.03,1.96h-1.32c-1.65-1.67-1.96-13.26-1.73-15.86Z" fill="#949394"/><path d="M209.78,485.34c1.18.02.72.05,1.98.79,1.69,3.71,1.16,18.2.81,22.7l-1.68-.72c-1.46-3.01-1.17-18.61-1.1-22.78Z" fill="#a9a8aa"/><path d="M211.3,558.6c1.46-.07.97-.09,2.41.29,2.3,2.72.57,12.98,2.5,18.27-1.11-.07-2.1-.2-3.2-.32-1.72-2.13-1.7-15.12-1.71-18.24Z" fill="#949394"/><path d="M206.92,204.26c1.99,2.22,2.06,18.77.26,21.58-2.1-2.56-2.19-18.08-2.32-21.86l2.05.28Z" fill="#949394"/><path d="M210.52,510.82l1.28.38c1.55,1.7,1.47,16.67,2.03,20.76l.1.71c-1.48-.2-2.26-.12-3.29-1.17-.7-6.48-.38-14.11-.12-20.68Z" fill="#c5c4c6"/><path d="M165.11,1032.4c-2.08-1.78-2.65-4.71-.65-6.8,1.82-.25,1.36-.11,3.32.71,1.56.22,1.8.37,3.27-.37,2.3,1.49,2.52,3.34.67,5.51-1.85,2.17-4.17,1.48-6.62.96Z" fill="#ebeaea"/><path d="M165.11,1032.4c-2.08-1.78-2.65-4.71-.65-6.8,1.82-.25,1.36-.11,3.32.71-.9,2.51-1.26,3.8-2.68,6.1Z" fill="#d5d4d5"/><path d="M208.75,370.46l1.12-.02c1.53,2.02,1.24,21.76,1.19,25.5l-1.5.38c-1.23-1.59-.87-22.41-.82-25.86Z" fill="#a9a8aa"/><path d="M141.68,158.15c2.55-1.12,4.36-2.66,6.7-.84.8,2.21.8,2.53,1.01,4.91-1.48,2-2.04,2.35-4.29,2.71-3.9-1.19-3.75-3.2-3.42-6.78Z" fill="#ebeaea"/><path d="M185.66,198.42c3.85-.02,14.54-1.41,16.51-.26.01.96.25,1.46-.35,1.89-3.06,2.21-12.52,1.12-16.4,1.19l.23-2.82Z" fill="#c5c4c6"/><path d="M176.35,26.64c1.46-1.65,1.54-1.92,3.56-2.54,3.54.62,3.47,3.08,3.52,6.14-1.12,2.2-1.46,2.33-3.72,2.72-3.59-.96-3.88-3.1-3.36-6.31Z" fill="#ebeaea"/><path d="M209.77,399.4l1.04.82c1.61,3.96.84,21.93.75,26.96l-.74-.48c-1.49-4.36-1.34-22.16-1.05-27.3Z" fill="#a9a8aa"/><path d="M209.93,429.33l.92-.56c1.39,2.12,1.08,22.06,1.11,25.64-.89.37-.42.32-1.42.12-1.34-3.11-.54-20.24-.62-25.2Z" fill="#d5d4d5"/><path d="M204.51,197.61c2.52-3.36,5-13.99,7.51-19.24,1.49.53.77.55,2.23-.11-1.76,4.99-4.29,11.1-4.96,16.24-2.79.98-2.57.88-4.78,3.11Z" fill="#686769"/><path d="M207.07,228.57l.93-.06c1.26,1.99,1.63,27.08,1.3,30.42l-.3.4-.52-.41c-.81-9.25-1.14-21.01-1.41-30.35Z" fill="#c5c4c6"/><path d="M169.35,54.38c1.79-2.28,3.44-4.01,6.01-1.44.66,1.52.24,2.29-.2,3.92-1.04,1.45-1.32,2.16-2.97,2.81-3.58-.29-3.39-2.35-2.84-5.29Z" fill="#ebeaea"/><path d="M210.48,458.85l.7-.33.67.52c.52,5.14,0,16.86-.07,22.68l-.95.17c-1.58-2.01-.54-19.2-.34-23.04Z" fill="#c5c4c6"/><path d="M206.93,898.93l-.24-.82c.27-1.41.22-2.88.26-4.33,1.28-.29,2.82-.68,4.09-.9.73-5.42.82-9.17,3.53-14.01l.57-.34c-.27,4.02-2.55,9.95-3.39,14.11-.36,1.79-.56,4.52-1,5.97" fill="#a9a8aa"/><path d="M209.27,335.22c1.6,2.19,1.29,27.77,1.32,32.33l-1.22-.72c-.69-2.41-.16-27.33-.11-31.61Z" fill="#c5c4c6"/><path d="M205.31,305.26l.16-.67,1.91-.26c1.65,1.64,3.03,24.17,2.21,27.08l-.56.28c-1.23-2.32.63-23.22-3.72-26.43Z" fill="#c5c4c6"/><path d="M204.87,203.99c.38-3.23.74-2.19-.82-4.42l.45-1.96c2.21-2.22,1.99-2.13,4.78-3.11-.08,2.54.04,6.86-1.42,8.74l-1.6.04.65.98-2.05-.28Z" fill="#949394"/><path d="M3.94,907.52c2.74,7.54,1.77,7.96,7.67,13.25l.31,1.42c-1.11.63-2.62,1.15-3.84,1.64-2.13-5.21-3.52-10.7-4.14-16.3Z" fill="#c5c4c6"/><path d="M226.33,840.67c-2.49,7.58-5.44,15.3-7.5,22.95-1.09-2.7,5.24-20.03,6.5-23.86l1,.91Z" fill="#a9a8aa"/><path d="M211.83,630.26c1.19-3.13-.2-9.1,1.08-11.54,1.78,1.86,1.79,12.93.54,14.72l-1.43.07c-.19-1.36-.19-1.91-.2-3.25Z" fill="#c5c4c6"/><path d="M78.52,541.21c-1.87-2.83-1.67-7.17-3.31-10.23-.6-1.11-1.72-2.11-2.54-3.23,3.04,1.83,8.14,9.39,6.43,13.01l-.58.45Z" fill="#686769"/><path d="M242.72,26.09c.21.16.42.32.63.49.44,5.72-.97,9.94-2.36,15.46l-.52.1c.38-7.12,1.44-9.23,2.19-15.54l.06-.5Z" fill="#949394"/><path d="M128,632.17c4.56-1.13,16.43,1.6,20.83,3.49-2.45.76-17.01-2.93-20.83-3.49Z" fill="rgba(104,103,105,.98)"/><path d="M73.94,521.82c1.65-1.93,1.62-2.24,3.64-1.14l-1.48.1c.92.38,1.84.73,2.78,1.05l.29,1.09-.26,5.36c-1.71-2.36-3.09-4.21-4.97-6.45Z" fill="#ebeaea"/><path d="M221.05,872.71l-1.29-.61-.94.47-.89,2.89c-1.16-1.06-1.03-.58-1.45-1.8.95-2.49,1.11-2.69,3.78-3.07l.54-.75c2.28-.3,1.7-.57,3.36.36l.77,1.25c-1.44-.12-1.75-.21-3.21-.01l-.67,1.26Z" fill="#c5c4c6"/><path d="M212.9,602.55l.27-.11c.72,2.7.4,10.01.44,13.29l-.89.09c-1.44-2.59-.35-10.29.18-13.28Z" fill="#a9a8aa"/><path d="M225.8,74.22c.26-.03.05-.03.79.19.39,5.84.63,8.86,1.61,14.75-.41.11-.12.07-.84-.24-1.69-4.27-1.45-9.99-1.55-14.7Z" fill="#686769"/><path d="M228.09,649.6c-2.89-2.68-5.24-7.23-5.88-11.11,2.37,3.39,3.23,5.78,5.94,9.12l.43.52.16,1.17-.64.3Z" fill="#c5c4c6"/><path d="M74.02,990.09c.7.35,4.21,2.18,4.7,2.33,2.52,2.56,5.18,3.67,8.37,5.36-3.39-1.06-6.58-1.9-9.7-3.61-.38-1.44-2.21-2.94-3.37-4.09Z" fill="#c5c4c6"/><path d="M255.22,774.53c-.96,3.77-1.79,6.42-3.76,9.86.11-1.89,2.16-8.45,2.79-10.87l.97,1.02Z" fill="#686769"/><path d="M74.6,995.53c4.22.75,7.9,2.55,11.77,4.38l-1.07.7c-3.52-1.62-7.3-3.27-10.7-5.07Z" fill="#686769"/><path d="M335.65,621.94c-.76-3.2-1.7-6.36-1.7-9.63,1.02,2.86,2.26,6.75,2.61,9.75l-.9-.12Z" fill="#686769"/><path d="M237.33,123.32c1.85,1.44,2.13,5.93,2.35,8.14-1.65-1.81-1.96-5.63-2.35-8.14Z" fill="#686769"/><path d="M228.57,648.13c1.29.86,3.7,2.21,4.41,3.38-1.73-.52-4.07-1.69-4.89-1.9l.64-.3-.16-1.17Z" fill="#686769"/><path d="M159.65,88.6c-4.39-6.12-4.37-13.51,4.43-14.81,10.02,4,5.63,5.55,5.33,12.84-2.13,3.18-6.53,2.38-9.75,1.97Z" fill="#010001"/><path d="M159.48,79.66c2.44-1.78,5.16-2.85,7.66-.76.6,2.15.33,1.64-.54,4.2-.46,1.76-.93,1.96-2.4,2.63-3.72-.42-4.47-2.83-4.72-6.08Z" fill="#ebeaea"/><path d="M141.61,132.73c6.52-7.99,15.25-2.95,13.15,6.76-.86.54-1.65,1.42-2.46,2.08-2.41,1.95-8.12,2.46-9.85-.64-1.57-2.82-1.37-5.14-.84-8.21Z" fill="#010001"/><path d="M143.75,135.59c3.67-4.13,8.03-5.89,9.39,1.2l-.99.41c-1.52,2.32-3.91,3.5-6.56,2.42-1.43-1.65-1.39-1.81-1.84-4.02Z" fill="#d5d4d5"/><path d="M159.64,114.71c-4.6,1.73-10.54,2.37-10.7-4.53-.07-2.61,1-5.12,2.93-6.88,3.19-2.9,7.61-1.62,10.08,1.47-.19,2.5.72,6.06.1,7.96-1.29.66-1.65.73-2.41,1.97Z" fill="#010001"/><path d="M151.55,107.44c3.96-3.97,7.03-2.7,8.05,2.73-2.27,1.61-3.99,2.9-6.63,1.57-1.13-1.41-1.12-2.52-1.41-4.3Z" fill="#c5c4c6"/><path d="M164.07,73.79c1.02-1.23.69-1.3,2.13-1.99,1.3,1.93,1.56,2.31,3.76,2.24.75-1.55-.73-1.2-1.09-3.81l1-.24.13-.54-2.22-2.73.28-.9-1.5-1.43.08-.32,3.44.95.11-.79.29.86.28-.23c-1.49-1.29-4.15-3.26-4.87-4.93l.37-.28c3.09,3.15,3.14,3.05,7.52,3.19-1.06,2.09-1.66,1.62-2.66,4.48.73,2.15,2.01,2,4.12,2.23-1.04,3.81-4.04,13.51-4.43,16.53l-1.4.52c.3-7.29,4.7-8.83-5.33-12.84Z" fill="rgba(148,147,148,.05)"/><path d="M185.46,33.94c.27-2.84.52-4.97.99-7.8l1.54.49c-.87,2.43-1.72,4.86-2.53,7.31Z" fill="rgba(148,147,148,.07)"/></g></svg>