<svg version="1.1" xmlns="http://www.w3.org/2000/svg" style="display: block;" viewBox="0 0 2048 2048" width="1024" height="1024" preserveAspectRatio="none">
<defs>
	<linearGradient id="Gradient1" gradientUnits="userSpaceOnUse" x1="746.946" y1="1185.25" x2="731.054" y2="1181.75">
		<stop class="stop0" offset="0" stop-opacity="1" stop-color="rgb(83,83,84)"/>
		<stop class="stop1" offset="1" stop-opacity="1" stop-color="rgb(110,110,110)"/>
	</linearGradient>
	<linearGradient id="Gradient2" gradientUnits="userSpaceOnUse" x1="967.368" y1="1133.96" x2="952.757" y2="1136.71">
		<stop class="stop0" offset="0" stop-opacity="1" stop-color="rgb(105,104,105)"/>
		<stop class="stop1" offset="1" stop-opacity="1" stop-color="rgb(127,126,126)"/>
	</linearGradient>
	<linearGradient id="Gradient3" gradientUnits="userSpaceOnUse" x1="849.13" y1="1154.66" x2="829.881" y2="1171.19">
		<stop class="stop0" offset="0" stop-opacity="1" stop-color="rgb(113,112,112)"/>
		<stop class="stop1" offset="1" stop-opacity="1" stop-color="rgb(137,136,136)"/>
	</linearGradient>
	<linearGradient id="Gradient4" gradientUnits="userSpaceOnUse" x1="1653.07" y1="988.828" x2="1619.64" y2="1003.15">
		<stop class="stop0" offset="0" stop-opacity="1" stop-color="rgb(94,93,93)"/>
		<stop class="stop1" offset="1" stop-opacity="1" stop-color="rgb(115,114,115)"/>
	</linearGradient>
	<linearGradient id="Gradient5" gradientUnits="userSpaceOnUse" x1="1768.94" y1="1031.29" x2="1769.07" y2="1006.71">
		<stop class="stop0" offset="0" stop-opacity="0.988235" stop-color="rgb(205,208,218)"/>
		<stop class="stop1" offset="1" stop-opacity="1" stop-color="rgb(188,186,179)"/>
	</linearGradient>
	<linearGradient id="Gradient6" gradientUnits="userSpaceOnUse" x1="1427.57" y1="1041.74" x2="1396.46" y2="1045.49">
		<stop class="stop0" offset="0" stop-opacity="1" stop-color="rgb(91,91,92)"/>
		<stop class="stop1" offset="1" stop-opacity="1" stop-color="rgb(144,143,143)"/>
	</linearGradient>
	<linearGradient id="Gradient7" gradientUnits="userSpaceOnUse" x1="373.557" y1="1123.75" x2="381.745" y2="1144.56">
		<stop class="stop0" offset="0" stop-opacity="1" stop-color="rgb(238,237,230)"/>
		<stop class="stop1" offset="1" stop-opacity="1" stop-color="rgb(247,245,255)"/>
	</linearGradient>
	<linearGradient id="Gradient8" gradientUnits="userSpaceOnUse" x1="1416.65" y1="1083.38" x2="1402.7" y2="1061.17">
		<stop class="stop0" offset="0" stop-opacity="1" stop-color="rgb(201,201,204)"/>
		<stop class="stop1" offset="1" stop-opacity="1" stop-color="rgb(255,255,255)"/>
	</linearGradient>
	<linearGradient id="Gradient9" gradientUnits="userSpaceOnUse" x1="385.434" y1="990.015" x2="346.72" y2="1041.1">
		<stop class="stop0" offset="0" stop-opacity="1" stop-color="rgb(231,228,215)"/>
		<stop class="stop1" offset="1" stop-opacity="1" stop-color="rgb(250,252,255)"/>
	</linearGradient>
	<linearGradient id="Gradient10" gradientUnits="userSpaceOnUse" x1="985.918" y1="1149.57" x2="920.957" y2="1124.39">
		<stop class="stop0" offset="0" stop-opacity="1" stop-color="rgb(202,202,203)"/>
		<stop class="stop1" offset="1" stop-opacity="1" stop-color="rgb(255,255,255)"/>
	</linearGradient>
	<linearGradient id="Gradient11" gradientUnits="userSpaceOnUse" x1="869.939" y1="1164.05" x2="813.578" y2="1152.33">
		<stop class="stop0" offset="0" stop-opacity="1" stop-color="rgb(206,205,205)"/>
		<stop class="stop1" offset="1" stop-opacity="1" stop-color="rgb(252,251,253)"/>
	</linearGradient>
	<linearGradient id="Gradient12" gradientUnits="userSpaceOnUse" x1="219.423" y1="1141.48" x2="265.831" y2="1128.34">
		<stop class="stop0" offset="0" stop-opacity="1" stop-color="rgb(186,185,185)"/>
		<stop class="stop1" offset="1" stop-opacity="1" stop-color="rgb(229,228,230)"/>
	</linearGradient>
	<linearGradient id="Gradient13" gradientUnits="userSpaceOnUse" x1="1843.98" y1="1005.98" x2="1843.09" y2="992.018">
		<stop class="stop0" offset="0" stop-opacity="1" stop-color="rgb(177,176,179)"/>
		<stop class="stop1" offset="1" stop-opacity="1" stop-color="rgb(147,147,146)"/>
	</linearGradient>
	<linearGradient id="Gradient14" gradientUnits="userSpaceOnUse" x1="1647.49" y1="1040.11" x2="1645.83" y2="1032.4">
		<stop class="stop0" offset="0" stop-opacity="1" stop-color="rgb(229,228,232)"/>
		<stop class="stop1" offset="1" stop-opacity="1" stop-color="rgb(191,191,191)"/>
	</linearGradient>
	<linearGradient id="Gradient15" gradientUnits="userSpaceOnUse" x1="1190.66" y1="1079.58" x2="1172.89" y2="1096.93">
		<stop class="stop0" offset="0" stop-opacity="1" stop-color="rgb(107,106,106)"/>
		<stop class="stop1" offset="1" stop-opacity="1" stop-color="rgb(133,132,133)"/>
	</linearGradient>
	<linearGradient id="Gradient16" gradientUnits="userSpaceOnUse" x1="1201.49" y1="1128.9" x2="1175.46" y2="1104.15">
		<stop class="stop0" offset="0" stop-opacity="1" stop-color="rgb(200,199,200)"/>
		<stop class="stop1" offset="1" stop-opacity="1" stop-color="rgb(251,250,250)"/>
	</linearGradient>
	<linearGradient id="Gradient17" gradientUnits="userSpaceOnUse" x1="1316.61" y1="1058.09" x2="1284.87" y2="1071.7">
		<stop class="stop0" offset="0" stop-opacity="1" stop-color="rgb(75,75,74)"/>
		<stop class="stop1" offset="1" stop-opacity="1" stop-color="rgb(120,119,121)"/>
	</linearGradient>
	<linearGradient id="Gradient18" gradientUnits="userSpaceOnUse" x1="1331.05" y1="1083.84" x2="1262.73" y2="1038.61">
		<stop class="stop0" offset="0" stop-opacity="1" stop-color="rgb(197,196,196)"/>
		<stop class="stop1" offset="1" stop-opacity="1" stop-color="rgb(255,255,255)"/>
	</linearGradient>
	<linearGradient id="Gradient19" gradientUnits="userSpaceOnUse" x1="1094.1" y1="1113.65" x2="1073.99" y2="1107.67">
		<stop class="stop0" offset="0" stop-opacity="1" stop-color="rgb(67,67,68)"/>
		<stop class="stop1" offset="1" stop-opacity="1" stop-color="rgb(102,101,101)"/>
	</linearGradient>
	<linearGradient id="Gradient20" gradientUnits="userSpaceOnUse" x1="1078.43" y1="1155.35" x2="1062.05" y2="1129.83">
		<stop class="stop0" offset="0" stop-opacity="1" stop-color="rgb(195,195,196)"/>
		<stop class="stop1" offset="1" stop-opacity="1" stop-color="rgb(243,241,241)"/>
	</linearGradient>
	<linearGradient id="Gradient21" gradientUnits="userSpaceOnUse" x1="621.962" y1="1253.86" x2="602.947" y2="1227.19">
		<stop class="stop0" offset="0" stop-opacity="1" stop-color="rgb(189,188,190)"/>
		<stop class="stop1" offset="1" stop-opacity="1" stop-color="rgb(252,251,250)"/>
	</linearGradient>
	<linearGradient id="Gradient22" gradientUnits="userSpaceOnUse" x1="202.094" y1="1145.14" x2="235.765" y2="1162.84">
		<stop class="stop0" offset="0" stop-opacity="1" stop-color="rgb(53,53,54)"/>
		<stop class="stop1" offset="1" stop-opacity="1" stop-color="rgb(81,81,81)"/>
	</linearGradient>
	<linearGradient id="Gradient23" gradientUnits="userSpaceOnUse" x1="198.501" y1="1163.8" x2="248.935" y2="1137.29">
		<stop class="stop0" offset="0" stop-opacity="1" stop-color="rgb(181,179,181)"/>
		<stop class="stop1" offset="1" stop-opacity="1" stop-color="rgb(213,211,213)"/>
	</linearGradient>
	<linearGradient id="Gradient24" gradientUnits="userSpaceOnUse" x1="216.773" y1="1155.49" x2="178.039" y2="1161.26">
		<stop class="stop0" offset="0" stop-opacity="1" stop-color="rgb(210,208,211)"/>
		<stop class="stop1" offset="1" stop-opacity="1" stop-color="rgb(255,255,255)"/>
	</linearGradient>
	<linearGradient id="Gradient25" gradientUnits="userSpaceOnUse" x1="276.178" y1="1014.23" x2="338.407" y2="1033.7">
		<stop class="stop0" offset="0" stop-opacity="1" stop-color="rgb(193,191,193)"/>
		<stop class="stop1" offset="1" stop-opacity="1" stop-color="rgb(228,227,229)"/>
	</linearGradient>
	<linearGradient id="Gradient26" gradientUnits="userSpaceOnUse" x1="281.088" y1="922.889" x2="280.936" y2="928.253">
		<stop class="stop0" offset="0" stop-opacity="1" stop-color="rgb(249,247,248)"/>
		<stop class="stop1" offset="1" stop-opacity="1" stop-color="rgb(210,210,212)"/>
	</linearGradient>
	<linearGradient id="Gradient27" gradientUnits="userSpaceOnUse" x1="1878.25" y1="866.253" x2="1871.06" y2="864.357">
		<stop class="stop0" offset="0" stop-opacity="1" stop-color="rgb(208,207,207)"/>
		<stop class="stop1" offset="1" stop-opacity="1" stop-color="rgb(174,173,175)"/>
	</linearGradient>
</defs>
<path transform="translate(0,0)" fill="rgb(0,0,0)" d="M 1665.29 618.355 C 1673.3 617.167 1686.51 618.844 1692.31 623.879 C 1712.66 641.559 1733.37 667.796 1751.38 687.622 C 1784.4 724.609 1818.23 761.207 1849.82 799.451 C 1862.54 814.841 1887.96 840.311 1891.06 859.87 C 1892.96 871.92 1893.33 893.603 1892.34 907.232 C 1890.43 933.434 1896.86 968.453 1882.76 991.655 C 1862.58 1017.97 1817.11 1022.84 1786.23 1029.28 C 1766.15 1033.65 1746.01 1037.73 1725.82 1041.52 C 1714.49 1068.54 1700.63 1075.89 1672.68 1081.96 C 1623.39 1092.67 1573.88 1102.54 1524.53 1112.97 L 1125.61 1196.92 L 695.804 1288.75 L 591.216 1311.16 C 568.48 1316.15 503.474 1334.3 483.682 1331.61 C 469.014 1329.61 454.634 1320.83 445.581 1309.21 C 422.361 1312.36 389.046 1320.15 365.015 1324.72 C 314.703 1335.02 293.067 1303.94 266.021 1269.06 C 254.257 1253.88 240.368 1235.28 227.32 1221.52 C 220.051 1220.18 207.129 1218.28 200.929 1215.03 C 185.202 1206.79 174.589 1191.91 169.679 1175.03 C 163.531 1153.54 166.139 1130.48 176.932 1110.91 C 166.675 1099.84 153.707 1086.57 147.151 1073.03 C 139.385 1057 136.621 957.129 142.872 940.614 C 155.206 908.03 186.904 905.551 216.505 899.983 L 266.303 890.645 C 272.235 889.572 289.433 886.418 294.259 884.031 C 305.171 878.35 312.488 866.864 323.184 860.557 C 408.956 809.984 504.93 795.12 601.29 775.748 C 692.748 757.177 784.369 739.419 876.143 722.476 C 985.827 701.071 1095.74 680.829 1205.85 661.753 C 1245.39 654.413 1285.02 647.565 1324.73 641.211 C 1362.45 634.96 1406.33 628.656 1444.36 625.64 C 1473.58 623.323 1532.48 629.338 1559.28 639.739 C 1569.3 635.627 1597.47 631.354 1609.49 629.073 C 1627.09 625.735 1647.83 620.855 1665.29 618.355 z M 1439.02 687.651 L 1428.53 689.078 C 1424.04 684.015 1422.65 681.156 1416.25 678.358 C 1390.3 686.096 1346.04 692.784 1318.08 697.927 L 1167.12 726.504 L 761.026 805.746 C 730.808 811.526 699.956 818.344 669.695 824.456 L 464.431 866.436 C 436.178 872.407 408.245 878.208 379.826 883.477 C 362.778 886.637 341.695 893.811 324.66 895.756 L 323.436 896.275 C 327.73 915.084 419.056 1023.27 436.516 1049.92 C 438.832 1048.54 441.807 1046.7 444.371 1047.24 C 451.8 1048.79 466.494 1040.59 471.647 1040.28 C 474.394 1037.49 476.591 1036.57 480.383 1035.7 C 515.568 1027.66 551.247 1020.63 586.539 1013.26 L 809.301 967.87 L 1478.2 832.893 L 1571.37 813.965 C 1591.68 810.001 1614.33 806.632 1634.1 801.479 C 1637.97 801.169 1646.65 799.324 1651.03 798.638 C 1657.05 797.113 1672.28 794.892 1677.64 797.859 C 1675.4 800.939 1666.36 800.65 1662.46 801.252 C 1671.88 802.281 1681.37 804.458 1689.67 799.746 C 1686.7 794.324 1682.08 789.632 1677.71 785.35 C 1643.65 744.092 1608.32 703.889 1571.79 664.799 C 1567.08 663.86 1528.99 672.914 1516.76 673.283 C 1502.94 678.691 1454.88 685.829 1439.02 687.651 z M 1705.78 1032.41 L 1709.13 1034.62 C 1712.99 1034.17 1719.28 1032.54 1723.16 1031.55 C 1757.73 1022.75 1793.49 1017.79 1828.11 1009.57 C 1823.74 1006.53 1811.14 1008.04 1804.4 1008.01 C 1795.58 1009.61 1786.95 1011.82 1778.39 1014.5 C 1756.07 1021.48 1732.3 1024.23 1710.1 1031.12 C 1708.91 1031.49 1708.24 1031.58 1707.08 1031.8 C 1704.63 1031.01 1695.39 1031.86 1691.57 1031.67 C 1632.65 1045.37 1573.49 1058.09 1514.14 1069.82 C 1494.13 1073.98 1462.37 1082.21 1444.24 1084.93 C 1386.61 1098.15 1323.64 1109.35 1265.16 1121.93 L 852.38 1210.35 L 678.681 1246.47 C 656.276 1250.75 633.906 1255.22 611.571 1259.85 C 603.25 1261.6 589.557 1264.01 581.738 1266.44 L 587.527 1267.46 C 598.055 1265.31 640.04 1256.29 647.797 1256.29 C 666.262 1250.5 691.126 1247.04 710.553 1242.86 C 739.423 1236.64 768.631 1231.1 797.519 1224.97 L 1076.04 1165.39 C 1114.84 1157 1153.94 1149.75 1192.64 1140.73 C 1209.72 1136.85 1237.92 1130.22 1254.62 1127.83 C 1275.73 1122.27 1297.67 1118.3 1319.1 1113.94 L 1405.1 1095.92 L 1560.26 1063.6 C 1583.11 1058.75 1605.44 1053.12 1628.53 1048.71 C 1641.78 1046.2 1659.51 1041.5 1673.57 1038.44 C 1682.97 1035.5 1695.81 1033.9 1705.78 1032.41 z M 1655.47 648.497 C 1659.98 650.427 1662.55 650.414 1667.54 649.483 C 1663.48 647.205 1660.03 647.84 1655.47 648.497 z M 472.874 1140.25 L 477.151 1143.38 C 487.79 1146.05 577.976 1125.18 596.107 1121.51 C 677.472 1105.49 758.676 1088.66 839.708 1071.03 L 1546.7 924.566 C 1574.8 918.803 1602.93 912.759 1631 906.807 C 1653.81 901.969 1680.91 894.355 1703.87 891.558 L 1705.4 889.468 C 1701.24 886.557 1660.12 895.423 1652.51 897.052 C 1628.46 903.344 1598.82 908.637 1574.25 913.569 L 1462.29 936.72 L 992.98 1033.34 L 621.67 1111.13 L 530.984 1129.82 C 513.311 1133.48 490.469 1139.29 472.874 1140.25 z"/>
<path transform="translate(0,0)" fill="rgb(252,252,252)" d="M 1651.03 798.638 C 1657.05 797.113 1672.28 794.892 1677.64 797.859 C 1675.4 800.939 1666.36 800.65 1662.46 801.252 C 1671.88 802.281 1681.37 804.458 1689.67 799.746 C 1711.38 820.611 1717.16 834.438 1716.65 864.556 C 1709.17 876.148 1703.42 879.136 1689.86 879.069 C 1675.97 884.18 1631.94 891.069 1615.01 894.748 C 1535.14 911.622 1455.18 928.035 1375.13 943.987 L 654.273 1093.48 L 538.179 1117.45 C 517.993 1121.68 497.547 1126.5 476.414 1129.59 C 457.06 1132.42 464.384 1096.91 456.803 1085.29 C 452.929 1079.36 449.899 1068.57 444.713 1062.63 C 441.468 1057.54 438.961 1055.72 436.516 1049.92 C 438.832 1048.54 441.807 1046.7 444.371 1047.24 C 451.8 1048.79 466.494 1040.59 471.647 1040.28 C 474.394 1037.49 476.591 1036.57 480.383 1035.7 C 515.568 1027.66 551.247 1020.63 586.539 1013.26 L 809.301 967.87 L 1478.2 832.893 L 1571.37 813.965 C 1591.68 810.001 1614.33 806.632 1634.1 801.479 C 1637.97 801.169 1646.65 799.324 1651.03 798.638 z"/>
<path transform="translate(0,0)" fill="rgb(0,0,0)" d="M 1651.03 798.638 C 1654.87 798.777 1657.47 798.8 1661.23 799.455 L 1662.17 800.71 C 1655.82 806.216 1486.65 837.817 1463.13 842.644 L 764.331 982.911 L 538.912 1028.28 C 527.136 1030.57 481.008 1041.16 471.647 1040.28 C 474.394 1037.49 476.591 1036.57 480.383 1035.7 C 515.568 1027.66 551.247 1020.63 586.539 1013.26 L 809.301 967.87 L 1478.2 832.893 L 1571.37 813.965 C 1591.68 810.001 1614.33 806.632 1634.1 801.479 C 1637.97 801.169 1646.65 799.324 1651.03 798.638 z"/>
<path transform="translate(0,0)" fill="rgb(0,0,0)" d="M 1689.86 879.069 C 1680.83 876.339 1678.31 870.951 1680.22 860.708 C 1680.93 856.878 1683.69 855.492 1687.25 854.343 C 1690.21 846.186 1685.34 843.728 1692.32 838.712 C 1695.45 838.247 1695.61 837.895 1698.61 838.559 C 1707.69 849.751 1697.81 862.413 1700.11 871.487 C 1702.55 872.621 1701.62 872.432 1704.27 872.297 C 1701.38 876.332 1695.54 875.318 1689.86 879.069 z"/>
<path transform="translate(0,0)" fill="rgb(252,252,252)" d="M 1688.27 857.484 C 1692.22 858.302 1691.95 857.982 1693.75 860.988 C 1694.06 865.75 1692.31 869.167 1690.65 873.723 C 1683.15 871.394 1684.43 862.948 1688.27 857.484 z"/>
<path transform="translate(0,0)" fill="rgb(0,0,0)" d="M 1631.2 821.32 C 1633.96 820.824 1633.82 820.697 1636.44 821.582 L 1635.67 822.783 C 1623.74 827.607 1589.29 833.46 1575.02 836.389 C 1537.01 844.19 1498.61 852.342 1460.36 858.678 C 1458.34 859.091 1458 858.925 1455.9 858.875 C 1460.26 854.26 1611.64 824.467 1631.2 821.32 z"/>
<path transform="translate(0,0)" fill="rgb(0,0,0)" d="M 910.659 967.365 C 913.015 967.001 913.754 967.152 916.196 967.208 C 912.373 972.261 802.951 992.145 788.235 994.746 L 785.658 995.207 L 783.985 994.486 L 782.667 995.192 L 781.938 994.182 C 787.05 990.102 897.179 969.107 910.659 967.365 z"/>
<path transform="translate(0,0)" fill="rgb(0,0,0)" d="M 626.499 1023.32 C 628.732 1023.05 628.616 1023.71 630.823 1023.39 C 624.697 1029.21 514.474 1048.27 499.231 1050.92 C 496.474 1050.96 495.583 1051.49 493.723 1050.25 C 500.597 1047.12 528.751 1041.88 537.54 1040.17 C 566.855 1034.49 597.076 1027.91 626.499 1023.32 z"/>
<path transform="translate(0,0)" fill="rgb(0,0,0)" d="M 1181.4 967.322 C 1183.29 967.111 1182.73 967.183 1184.67 967.616 C 1175.36 972.708 1128.72 981.926 1116.35 984.675 C 1113.82 984.895 1114.89 985.295 1112.96 983.849 L 1114.15 982.192 C 1125.75 976.013 1166.72 969.647 1181.4 967.322 z"/>
<path transform="translate(0,0)" fill="rgb(0,0,0)" d="M 973.269 1012.29 C 975.551 1012.31 975.788 1012.47 978.06 1012.92 L 977.758 1013.84 C 968.392 1017.92 942.096 1022.98 931.32 1025.3 C 928.776 1025.67 926.576 1026.09 924.663 1024.67 C 929.784 1020.1 965.074 1013.56 973.269 1012.29 z"/>
<path transform="translate(0,0)" fill="rgb(0,0,0)" d="M 508.582 1099.62 C 511.717 1099.87 511.558 1099.85 514.449 1101.11 C 518.31 1106.77 514.891 1110.04 510.881 1114.43 C 508.401 1114 508.36 1113.86 505.961 1112.95 C 501.903 1107.45 504.665 1104.28 508.582 1099.62 z"/>
<path transform="translate(0,0)" fill="rgb(0,0,0)" d="M 1444.64 902.468 C 1453.12 907.546 1449.06 914.241 1442.66 918.402 C 1439.99 917.859 1440.88 918.221 1438.67 916.73 C 1435.79 910.16 1439.79 906.632 1444.64 902.468 z"/>
<path transform="translate(0,0)" fill="rgb(0,0,0)" d="M 479.764 1105.58 C 485.096 1105.69 486.375 1105.37 488.715 1110.37 C 488.425 1114.4 488.027 1114.67 485.796 1118.23 L 479.9 1117.93 C 476.568 1115.75 477.645 1117.19 476.348 1113.63 C 476.904 1109.55 477.432 1109.16 479.764 1105.58 z"/>
<path transform="translate(0,0)" fill="rgb(0,0,0)" d="M 1059.39 985.672 C 1062.23 986.154 1061.65 986.093 1064.37 987.259 C 1068.44 993.224 1066.06 996.136 1060.81 999.82 C 1056.23 999.146 1055.1 999.298 1054.1 994.607 C 1055.36 990.191 1056.42 989.378 1059.39 985.672 z"/>
<path transform="translate(0,0)" fill="rgb(0,0,0)" d="M 669.012 1068.75 C 674.239 1068.86 675.661 1068.31 677.676 1073.37 C 677.11 1077.4 676.682 1077.65 674.209 1081.08 L 669.394 1081.77 C 666.423 1080.46 667.472 1081.5 666.079 1078.64 C 666.041 1074.44 667.238 1072.72 669.012 1068.75 z"/>
<path transform="translate(0,0)" fill="rgb(0,0,0)" d="M 1087.89 979.476 C 1090.47 979.741 1090.08 979.74 1092.6 980.542 C 1096.49 986.142 1093.34 989.455 1089.11 993.556 L 1085.24 992.41 C 1082.66 989.712 1083.39 991.264 1082.91 987.622 C 1084.39 983.257 1084.77 983.044 1087.89 979.476 z"/>
<path transform="translate(0,0)" fill="rgb(0,0,0)" d="M 1206.17 955.337 C 1208.5 955.45 1208.52 955.575 1210.74 956.413 C 1214.4 962.141 1211.59 965.247 1206.94 968.891 L 1202.97 968.676 C 1200.51 966.354 1201.31 967.769 1200.86 964.102 C 1202.37 959.494 1202.9 958.97 1206.17 955.337 z"/>
<path transform="translate(0,0)" fill="rgb(0,0,0)" d="M 1471.49 899.44 C 1473.77 899.544 1473.71 899.675 1475.96 900.285 C 1480.04 905.346 1476.16 909.475 1472.15 913.027 C 1467.5 912.547 1466.81 912.332 1466.12 908.045 C 1467.69 903.398 1468.11 903.188 1471.49 899.44 z"/>
<path transform="translate(0,0)" fill="rgb(0,0,0)" d="M 1264.75 942.613 L 1267.33 944.677 C 1269.7 951.901 1266.76 953.889 1260.68 957.18 C 1251.94 951.782 1259.05 945.845 1264.75 942.613 z"/>
<path transform="translate(0,0)" fill="rgb(0,0,0)" d="M 1580.16 875.442 C 1584.5 877.832 1585.86 878.122 1585.61 883.293 C 1583.77 886.884 1583.13 887.045 1579.7 889.475 C 1575.36 888.367 1574.57 887.704 1574.11 883.538 C 1575.73 879.22 1576.69 878.749 1580.16 875.442 z"/>
<path transform="translate(0,0)" fill="rgb(0,0,0)" d="M 1608.4 870.255 C 1611.09 870.819 1610.15 870.45 1612.42 872.028 C 1615.58 877.986 1613.07 880.887 1607.71 883.8 L 1603.98 882.936 C 1601.63 880.293 1602.23 881.808 1602.23 878.204 C 1604.36 873.845 1604.77 873.655 1608.4 870.255 z"/>
<path transform="translate(0,0)" fill="rgb(0,0,0)" d="M 1032.47 991.423 C 1041.01 995.087 1037.69 1001.23 1032.08 1005.59 L 1027.99 1003.94 C 1025.78 1001.19 1026.38 1002.73 1026.2 999.128 C 1027.81 995.283 1029.32 994.363 1032.47 991.423 z"/>
<path transform="translate(0,0)" fill="rgb(0,0,0)" d="M 611.502 1087.21 C 614.771 1087.06 615.937 1086.42 618.303 1087.77 C 614.497 1091.7 603.058 1093.68 597.569 1094.81 C 593.548 1095.67 595.132 1096.07 591.865 1094.98 L 592.533 1093.55 C 600.476 1089.25 602.882 1088.8 611.502 1087.21 z"/>
<path transform="translate(0,0)" fill="rgb(0,0,0)" d="M 698.963 1063.5 C 701.63 1063.7 701.496 1063.63 703.909 1064.74 C 707.621 1070.68 704.724 1073.24 699.53 1076.5 C 695.335 1075.63 694.76 1074.88 694.08 1071.07 C 695.37 1067.1 696.063 1066.7 698.963 1063.5 z"/>
<path transform="translate(0,0)" fill="rgb(0,0,0)" d="M 1293.04 937.544 L 1295.17 938.801 C 1299.01 945.651 1296.58 948.128 1290.35 951.55 L 1287.38 950.515 C 1283.09 944.258 1288.04 941.049 1293.04 937.544 z"/>
<path transform="translate(0,0)" fill="rgb(0,0,0)" d="M 1635.9 865.366 C 1637.08 865.579 1638.32 866.133 1639.48 866.564 C 1643.03 872.079 1639.76 875.643 1635.7 879.761 C 1631.66 878.003 1630.64 877.206 1630.18 873.008 C 1631.46 868.941 1632.61 868.393 1635.9 865.366 z"/>
<path transform="translate(0,0)" fill="rgb(0,0,0)" d="M 1662.13 860.392 L 1665.51 862.517 C 1669.05 869.055 1666.39 870.919 1660.67 874.439 C 1659.91 874.195 1658.34 873.351 1657.56 872.966 C 1654.28 867.223 1657.58 864.056 1662.13 860.392 z"/>
<path transform="translate(0,0)" fill="rgb(0,0,0)" d="M 727.135 1058.52 C 729.151 1058.75 729.081 1058.88 731.032 1059.59 C 734.619 1065.41 730.956 1068.98 726.363 1072.55 L 723.631 1071.6 C 719.349 1066.23 722.962 1062.51 727.135 1058.52 z"/>
<path transform="translate(0,0)" fill="rgb(0,0,0)" d="M 751.756 1053.82 C 756.802 1054.75 758.585 1054.24 760.002 1059.34 C 759.037 1062.88 758.193 1063.32 755.573 1065.84 C 751.674 1066.21 750.547 1065.95 748.517 1062.9 C 748.407 1058.9 749.706 1057.48 751.756 1053.82 z"/>
<path transform="translate(0,0)" fill="rgb(0,0,0)" d="M 641.548 1074.84 C 646.3 1074.99 646.701 1074.45 649.548 1077.06 C 649.989 1080.66 648.27 1082.92 646.564 1086.26 L 641.955 1086.51 C 638.922 1084.81 640.018 1086.01 638.681 1082.66 C 639.084 1078.65 639.415 1078.4 641.548 1074.84 z"/>
<path transform="translate(0,0)" fill="rgb(0,0,0)" d="M 870.406 1027.3 L 873.859 1028.62 C 876.37 1031.77 875.858 1030.05 875.654 1033.9 C 873.541 1037.84 872.682 1038.15 868.985 1040.95 C 859.952 1037.94 866.182 1031.1 870.406 1027.3 z"/>
<path transform="translate(0,0)" fill="rgb(0,0,0)" d="M 538.812 1095.63 L 543.034 1096.31 C 545.346 1098.76 544.589 1097.33 545.096 1100.89 C 543.482 1105.28 543.605 1105.06 539.999 1108.07 L 536.568 1107.55 C 533.582 1105.28 534.474 1106.73 533.769 1103.08 C 535.006 1099.05 535.707 1098.73 538.812 1095.63 z"/>
<path transform="translate(0,0)" fill="rgb(0,0,0)" d="M 1002.12 999.394 C 1003.62 999.709 1004.96 1000.19 1006.44 1000.66 C 1008.94 1003.78 1008.34 1002.05 1008.37 1006.02 C 1005.9 1010.41 1007.07 1008.92 1002.49 1011.7 C 998.784 1011.21 998.025 1010.22 997.171 1007.01 C 998.346 1002.87 998.967 1002.6 1002.12 999.394 z"/>
<path transform="translate(0,0)" fill="rgb(0,0,0)" d="M 840.074 1033.55 L 843.818 1034.43 C 846.454 1037.09 845.803 1035.57 846.231 1038.96 C 844.914 1042.89 844.361 1042.99 840.841 1045.59 C 836.63 1045.53 835.906 1045.28 834.776 1041.56 C 835.926 1037.37 836.936 1036.82 840.074 1033.55 z"/>
<path transform="translate(0,0)" fill="rgb(0,0,0)" d="M 778.838 1048.71 C 783.212 1048.46 784.992 1047.66 786.965 1051.85 C 786.482 1055.58 785.549 1056.27 783.24 1059.21 C 778.879 1060.07 777.93 1060.75 775.815 1056.68 C 776.155 1052.61 776.583 1052.31 778.838 1048.71 z"/>
<path transform="translate(0,0)" fill="rgb(0,0,0)" d="M 1236.23 947.507 L 1239.15 949.49 C 1241.45 955.823 1238.94 958.661 1233.83 962.331 C 1230.44 959.4 1230.32 958.778 1230.24 954.617 C 1232.14 950.596 1232.67 950.427 1236.23 947.507 z"/>
<path transform="translate(0,0)" fill="rgb(0,0,0)" d="M 900.773 1021.63 C 904.086 1023.66 903.875 1023.98 903.924 1027.48 C 901.805 1031.45 901.08 1031.7 897.387 1034.54 C 893.938 1032.47 893.47 1031.13 893.825 1027.41 C 895.989 1023.63 896.641 1023.63 900.773 1021.63 z"/>
<path transform="translate(0,0)" fill="rgb(252,252,252)" d="M 323.436 896.275 L 322.684 896.411 C 302.99 881.199 321.343 871.505 335.438 863.874 C 430.709 812.295 540.572 795.85 645.641 774.723 L 961.255 713.82 C 1054.26 696.056 1147.42 679.111 1240.73 662.984 C 1305.53 651.802 1370.96 640.506 1436.53 634.811 C 1452.56 633.419 1472.33 633.628 1488.28 635.47 C 1515.21 638.579 1556.44 637.598 1571.79 664.799 C 1567.08 663.86 1528.99 672.914 1516.76 673.283 C 1502.94 678.691 1454.88 685.829 1439.02 687.651 L 1428.53 689.078 C 1424.04 684.015 1422.65 681.156 1416.25 678.358 C 1390.3 686.096 1346.04 692.784 1318.08 697.927 L 1167.12 726.504 L 761.026 805.746 C 730.808 811.526 699.956 818.344 669.695 824.456 L 464.431 866.436 C 436.178 872.407 408.245 878.208 379.826 883.477 C 362.778 886.637 341.695 893.811 324.66 895.756 L 323.436 896.275 z"/>
<path transform="translate(0,0)" fill="rgb(0,0,0)" d="M 324.66 895.756 L 325.659 893.085 C 332.674 887.01 470.829 859.624 493.429 854.715 C 653.667 820.921 814.205 788.562 975.022 757.643 L 1261.22 702.527 C 1298.2 695.308 1335.25 688.468 1372.38 682.01 C 1392.46 678.566 1416.68 673.99 1436.66 672.742 C 1428.73 676.059 1424.5 677.179 1416.25 678.358 C 1390.3 686.096 1346.04 692.784 1318.08 697.927 L 1167.12 726.504 L 761.026 805.746 C 730.808 811.526 699.956 818.344 669.695 824.456 L 464.431 866.436 C 436.178 872.407 408.245 878.208 379.826 883.477 C 362.778 886.637 341.695 893.811 324.66 895.756 z"/>
<path transform="translate(0,0)" fill="rgb(0,0,0)" d="M 1439.02 687.651 C 1444.29 680.704 1537.98 666.302 1552.69 662.443 C 1556.21 661.517 1563.5 659.777 1566.59 662.007 L 1565.72 663.818 C 1564.4 664.329 1560.42 664.079 1558.29 664.387 C 1544.79 666.363 1531.42 669.189 1518.27 672.848 L 1516.76 673.283 C 1502.94 678.691 1454.88 685.829 1439.02 687.651 z"/>
<path transform="translate(0,0)" fill="rgb(0,0,0)" d="M 787.247 773.824 C 941.089 743.266 1095.15 713.843 1249.43 685.559 L 1353.06 667.609 C 1377.8 663.24 1410.09 656.751 1434.64 655.356 C 1420 664.264 1381.04 668.174 1362.13 671.509 L 1213.31 697.724 C 1072.79 723.897 932.417 750.88 792.208 778.672 C 788.389 776.264 789.293 777.5 787.247 773.824 z"/>
<path transform="translate(0,0)" fill="rgb(0,0,0)" d="M 759.337 785.022 C 703.806 796.955 646.041 807.125 590.338 818.695 C 576.66 821.536 510.142 835.934 501.354 835.598 L 501.862 834.367 C 515.443 826.247 561.303 819.073 579.297 815.407 C 613.622 808.065 648.018 801.065 682.481 794.406 C 704.001 790.215 727.91 786.36 749.077 781.65 C 753.615 783.975 754.306 784.221 759.337 785.022 z"/>
<path transform="translate(0,0)" fill="rgb(98,97,98)" d="M 749.077 781.65 C 756.291 779.691 771.938 776.334 779.134 775.591 C 776.309 778.74 776.186 778.846 772.712 781.265 L 772.246 782.3 C 767.57 783.652 764.092 784.201 759.337 785.022 C 754.306 784.221 753.615 783.975 749.077 781.65 z"/>
<path transform="translate(0,0)" fill="rgb(21,20,23)" d="M 779.134 775.591 L 787.247 773.824 C 789.293 777.5 788.389 776.264 792.208 778.672 C 787.615 779.574 776.37 782.05 772.246 782.3 L 772.712 781.265 C 776.186 778.846 776.309 778.74 779.134 775.591 z"/>
<path transform="translate(0,0)" fill="rgb(252,252,252)" d="M 1568.88 644.979 C 1584.83 640.34 1660.34 625.489 1673.96 627.242 C 1680.24 628.051 1687.32 634.516 1691.92 638.719 C 1713.67 658.593 1732.84 682.362 1752.72 704.163 C 1781.84 736.089 1812.05 767.275 1839.11 800.982 C 1843.55 806.904 1848.01 812.802 1852.51 818.675 C 1855.64 822.049 1856.43 823.103 1858.85 827.023 C 1863.77 834.78 1869.17 840.229 1875.52 846.835 C 1883.44 858.278 1883.07 876.276 1869.73 883.211 C 1844.57 892.392 1817.82 896.02 1791.46 901.415 C 1748.6 910.383 1705.67 918.973 1662.66 927.185 C 1568.5 945.257 1471.3 966.267 1377.32 985.922 L 687.348 1130.31 L 482.758 1172.69 C 445.776 1180.48 408.591 1189.85 371.356 1196.2 C 356.29 1198.77 339.829 1199.28 325.779 1192.34 C 320.749 1189.86 317.105 1186.2 313.481 1182 C 297.061 1162.99 283.002 1141.18 267.871 1121.1 C 246.826 1093.16 168.754 995.474 160.136 967.901 C 156.851 957.391 155.481 944.749 160.603 934.636 C 165.705 924.563 175.667 918.623 186.177 915.511 C 211.198 908.103 245.675 904.336 272.299 899.053 C 280.734 897.38 291.431 896.266 299.02 892.188 C 300.51 891.387 300.93 890.202 302.008 889.126 C 302.287 888.847 302.673 888.701 303.005 888.489 C 303.5 889.443 304.413 891.056 304.749 892.002 C 310.118 899.367 315.361 906.824 320.475 914.368 C 319.879 914.257 316.814 914.415 316.004 914.441 C 326.459 929.516 338.826 946.524 350.144 961.006 L 347.32 961.307 C 362.177 976.988 377.877 1001.42 391.795 1018.99 C 398.613 1027.59 450.674 1089.75 442.209 1098.63 C 438.825 1096.11 435.807 1089.58 433.009 1086.03 C 386.472 1027 341.392 966.154 294.331 907.549 C 266.432 909.41 227.987 917.925 200.756 925.592 C 186.892 929.496 171.687 940.872 174.868 957.487 C 179.726 982.856 202.086 1007.76 217.707 1028.72 C 237.597 1055.52 257.654 1082.19 277.879 1108.74 C 328.999 1176.56 317.893 1188.36 407.351 1172.01 C 439.906 1165.95 472.376 1159.45 504.754 1152.51 L 770.701 1097.18 L 1597.01 925.466 L 1744.18 895.515 C 1775.37 889.408 1807.25 883.594 1838.27 876.688 C 1843.77 874.995 1855.48 871.792 1858.89 867.34 C 1860.86 864.327 1860.37 855.008 1858.5 852.444 C 1836.43 822.21 1808.83 794.66 1784.18 766.502 L 1719.38 691.441 C 1709.91 680.506 1687.23 652.36 1677.23 646.045 C 1663.52 637.384 1595.11 653.475 1579.54 657.699 C 1574.72 652.864 1572.91 650.429 1568.88 644.979 z"/>
<path transform="translate(0,0)" fill="rgb(21,20,23)" d="M 1717.86 672.927 C 1742.87 702.913 1772.98 730.939 1799.13 760.37 C 1809.75 772.328 1826.03 792.299 1837.32 802.667 L 1842.48 809.701 L 1841.56 811.447 C 1817.73 788.173 1792.59 757.625 1770.01 732.491 C 1752.6 713.119 1734.09 693.717 1717.02 674.316 L 1717.86 672.927 z"/>
<path transform="translate(0,0)" fill="rgb(131,130,132)" d="M 304.749 892.002 C 310.118 899.367 315.361 906.824 320.475 914.368 C 319.879 914.257 316.814 914.415 316.004 914.441 C 326.459 929.516 338.826 946.524 350.144 961.006 L 347.32 961.307 C 337.498 949.727 308.772 917.039 304.823 904.345 C 303.746 899.9 304.368 896.569 304.749 892.002 z"/>
<path transform="translate(0,0)" fill="rgb(211,210,211)" d="M 304.749 892.002 C 310.118 899.367 315.361 906.824 320.475 914.368 C 319.879 914.257 316.814 914.415 316.004 914.441 C 313.404 912.765 307.74 906.899 304.823 904.345 C 303.746 899.9 304.368 896.569 304.749 892.002 z"/>
<path transform="translate(0,0)" fill="url(#Gradient27)" d="M 1875.52 846.835 C 1883.44 858.278 1883.07 876.276 1869.73 883.211 L 1869.35 882.22 C 1865.13 870.889 1870.59 857.518 1875.52 846.835 z"/>
<path transform="translate(0,0)" fill="rgb(98,97,98)" d="M 1839.11 800.982 C 1843.55 806.904 1848.01 812.802 1852.51 818.675 C 1855.64 822.049 1856.43 823.103 1858.85 827.023 C 1851.29 824.593 1846.92 817.731 1841.56 811.447 L 1842.48 809.701 L 1837.32 802.667 L 1839.11 800.982 z"/>
<path transform="translate(0,0)" fill="rgb(252,252,252)" d="M 1839.11 800.982 C 1843.55 806.904 1848.01 812.802 1852.51 818.675 C 1848.11 816.11 1845.97 813.384 1842.48 809.701 L 1837.32 802.667 L 1839.11 800.982 z"/>
<path transform="translate(0,0)" fill="rgb(199,199,199)" d="M 1717.02 674.316 C 1714.17 671.631 1711.85 670.01 1710.49 666.384 L 1711.47 665.853 C 1714.56 667.811 1715.72 669.954 1717.86 672.927 L 1717.02 674.316 z"/>
<path transform="translate(0,0)" fill="rgb(131,130,132)" d="M 269.85 1108.54 C 283.743 1125.2 296.595 1141.72 308.61 1159.87 C 319.601 1176.47 330.897 1180.05 349.039 1183.47 C 337.839 1184.31 327.022 1184.81 318.62 1176.32 C 299.807 1157.29 284.19 1130.7 267.53 1109.52 L 269.85 1108.54 z"/>
<path transform="translate(0,0)" fill="rgb(59,59,60)" d="M 267.53 1109.52 C 255.72 1092.31 239.843 1072.12 227.077 1055.23 C 213.871 1037.62 200.845 1019.89 188.001 1002.02 C 181.662 993.35 174.394 984.298 168.522 975.54 C 182.444 989.012 198.554 1012.66 210.441 1028.73 L 269.85 1108.54 L 267.53 1109.52 z"/>
<path transform="translate(0,0)" fill="rgb(252,252,252)" d="M 322.319 1138.09 C 321.444 1137.67 320.575 1137.24 319.714 1136.79 C 307.57 1130.44 280.703 1091.59 270.368 1078.56 C 244.375 1045.78 218.526 1011.14 194.858 976.699 C 188.808 967.896 181.037 953.408 188.322 944.386 C 193.743 935.902 205.71 930.145 214.886 928.91 C 227.361 927.231 277.91 914.454 286.272 919.679 C 281.224 920.575 265.087 922.996 261.866 925.634 C 265.102 925.876 265.93 925.942 269.283 925.683 C 275.911 923.546 277.945 924.323 286.354 921.187 C 291.614 925.386 292.497 926.492 296.527 931.607 C 309.479 948.87 322.466 966.128 335.338 983.446 C 341.503 991.741 347.084 1001.08 353.228 1009.1 L 403.434 1074.61 C 410.813 1084.26 427.997 1103.76 430.845 1114.75 C 430.651 1114.98 430.484 1115.23 430.263 1115.44 C 424.123 1121.09 336.22 1137.11 322.319 1138.09 z"/>
<path transform="translate(0,0)" fill="url(#Gradient26)" d="M 286.354 921.187 C 291.614 925.386 292.497 926.492 296.527 931.607 C 294.405 931.659 293.884 931.453 291.766 931.11 C 285.105 931.11 279.628 931.043 272.987 930.569 L 272.034 929.438 L 269.283 925.683 C 275.911 923.546 277.945 924.323 286.354 921.187 z"/>
<path transform="translate(0,0)" fill="rgb(159,158,159)" d="M 272.034 929.438 C 277.457 928.806 285.678 928.066 290.966 929.443 L 291.766 931.11 C 285.105 931.11 279.628 931.043 272.987 930.569 L 272.034 929.438 z"/>
<path transform="translate(0,0)" fill="rgb(0,0,0)" d="M 300.933 990.256 C 351.93 986.503 378.057 1040.31 317.887 1058.06 C 305.527 1060.49 292.707 1057.91 282.255 1050.88 C 274.232 1045.47 267.882 1037.69 266.2 1027.97 C 264.877 1020.46 266.647 1012.73 271.106 1006.54 C 278.335 996.423 289.271 992.371 300.933 990.256 z"/>
<path transform="translate(0,0)" fill="url(#Gradient25)" d="M 272.463 1022.39 C 280.657 994.628 310.06 990.951 332.348 1004.37 C 343.67 1012.44 348.787 1019.01 343.574 1032.55 C 328.876 1055.38 291.559 1059.89 276.403 1034.75 C 274.293 1031.26 273.371 1026.4 272.463 1022.39 z"/>
<path transform="translate(0,0)" fill="rgb(0,0,0)" d="M 310.191 1009.45 C 320.36 1011.53 323.633 1012.4 329.711 1021.56 C 330.467 1022.69 331.202 1023.83 331.915 1024.99 C 331.325 1027.69 330.824 1029.86 329.582 1032.38 C 327.175 1037.14 322.911 1040.69 317.796 1042.21 C 307.476 1045.19 292.752 1039.89 290.088 1028.58 C 289.244 1025.05 289.928 1021.34 291.971 1018.35 C 296.514 1011.69 303.051 1010.51 310.191 1009.45 z"/>
<path transform="translate(0,0)" fill="rgb(252,252,252)" d="M 332.348 1004.37 C 343.67 1012.44 348.787 1019.01 343.574 1032.55 C 335.787 1032.66 332.555 1032.68 331.915 1024.99 C 331.202 1023.83 330.467 1022.69 329.711 1021.56 C 323.633 1012.4 320.36 1011.53 310.191 1009.45 C 316.238 1006.75 328.513 1009.9 332.348 1004.37 z"/>
<path transform="translate(0,0)" fill="rgb(211,210,211)" d="M 1675.23 1050.56 C 1679.25 1049.02 1683.99 1049.21 1688.26 1048.56 C 1694.06 1047.67 1700.46 1044.44 1703.87 1050.8 C 1702.76 1061.4 1687.4 1069.82 1677.94 1068.85 C 1664.02 1071.67 1627.53 1080.09 1615.75 1081.35 C 1607.08 1084.37 1585.15 1088.3 1575.21 1090.41 C 1547.15 1096.44 1519.07 1102.33 1490.96 1108.07 L 1270.04 1154.45 L 1115.22 1187.02 C 1103.19 1189.48 1073.18 1197.41 1063.23 1197.89 C 1048.15 1201.73 1023.95 1206.8 1008.51 1209.44 L 882.551 1236.93 C 867.595 1240.1 841.17 1246.44 826.697 1248.46 C 824.573 1249.41 806.765 1252.98 803.121 1253.76 L 745.115 1266.25 L 511.735 1316.86 C 482.804 1323.18 479.625 1321.5 454.968 1305.6 C 687.899 1259.82 920.32 1211.47 1152.19 1160.58 L 1322.92 1124.21 C 1348.88 1118.71 1376.74 1111.68 1402.82 1107.37 C 1420.45 1102.99 1439.8 1099.43 1457.69 1095.56 L 1587.26 1068.43 C 1608.52 1063.43 1653.83 1053.65 1675.23 1050.56 z"/>
<path transform="translate(0,0)" fill="rgb(252,252,252)" d="M 1060.28 1190.94 C 1075.96 1188.04 1092.02 1183.91 1107.7 1180.47 L 1199.4 1160.66 L 1469.49 1104.22 C 1493.36 1099.19 1517.16 1093.28 1541.35 1088.59 C 1565.12 1084 1591.71 1074.3 1615.93 1077.56 C 1619.02 1077.98 1627.09 1070.23 1633.45 1074.94 C 1628.94 1079.01 1621.07 1076.56 1615.75 1081.35 C 1607.08 1084.37 1585.15 1088.3 1575.21 1090.41 C 1547.15 1096.44 1519.07 1102.33 1490.96 1108.07 L 1270.04 1154.45 L 1115.22 1187.02 C 1103.19 1189.48 1073.18 1197.41 1063.23 1197.89 C 1056.4 1197.8 1044.66 1200.73 1041.64 1200.58 L 1041.51 1198.09 C 1046.94 1194.81 1054.15 1194.55 1060.28 1190.94 z"/>
<path transform="translate(0,0)" fill="rgb(252,252,252)" d="M 1006.23 1202.36 C 1012.56 1200.1 1027.48 1198.16 1034.76 1196.56 C 1043.06 1194.74 1052.08 1192.38 1060.28 1190.94 C 1054.15 1194.55 1046.94 1194.81 1041.51 1198.09 L 1041.64 1200.58 C 1044.66 1200.73 1056.4 1197.8 1063.23 1197.89 C 1048.15 1201.73 1023.95 1206.8 1008.51 1209.44 L 882.551 1236.93 C 867.595 1240.1 841.17 1246.44 826.697 1248.46 L 825.415 1247.48 C 852.902 1238.89 888.107 1235.65 916.048 1227.54 C 923.054 1225.5 930.971 1221.76 937.811 1218.86 C 922.984 1220.54 843.253 1240.43 837.635 1238.55 C 848.601 1235.19 873.531 1231.26 886.187 1228.51 C 925.767 1219.89 966.639 1210.31 1006.23 1202.36 z"/>
<path transform="translate(0,0)" fill="rgb(252,252,252)" d="M 1402.82 1107.37 C 1420.45 1102.99 1439.8 1099.43 1457.69 1095.56 L 1587.26 1068.43 L 1589.05 1069.45 C 1581.71 1071.81 1570.24 1073.38 1564.56 1075.46 C 1567.54 1075.6 1567.98 1075.64 1570.51 1077.21 C 1578.1 1077.08 1580.67 1073.48 1587.56 1074.32 L 1586.13 1074.6 C 1580.05 1075.83 1572.64 1078.54 1566.77 1079.59 C 1544.5 1083.58 1522.09 1088.43 1500.08 1093.24 C 1491.39 1095.13 1460.28 1102.98 1452.92 1102.85 L 1452.72 1101.83 C 1458.4 1100.81 1457.77 1101.9 1460.28 1098.48 L 1459.78 1097.23 C 1448.19 1097.46 1413.38 1109.64 1402.82 1107.37 z"/>
<path transform="translate(0,0)" fill="rgb(59,59,60)" d="M 1675.23 1050.56 C 1679.25 1049.02 1683.99 1049.21 1688.26 1048.56 C 1694.06 1047.67 1700.46 1044.44 1703.87 1050.8 C 1702.76 1061.4 1687.4 1069.82 1677.94 1068.85 C 1671.69 1065.24 1667.27 1064.3 1673.92 1055.36 L 1676.64 1051.64 L 1675.23 1050.56 z"/>
<path transform="translate(0,0)" fill="rgb(0,0,0)" d="M 536.239 1295.27 C 540.727 1296.05 540.396 1295.66 543.019 1298.46 C 543.847 1301.87 542.867 1304.3 542.038 1307.76 C 537.756 1306.6 539.452 1307.68 536.529 1304.81 C 535.149 1301.11 535.753 1299.35 536.239 1295.27 z"/>
<path transform="translate(0,0)" fill="rgb(252,252,252)" d="M 581.296 1156.22 L 584.026 1156.16 C 585.727 1158.61 586.044 1243.67 584.959 1253.83 C 567.856 1258.63 536.591 1264.07 518.556 1267.24 C 470.76 1275.63 417.046 1288.47 369.09 1291.86 L 366.187 1291.64 C 365.877 1291.22 365.567 1290.79 365.256 1290.37 C 366.201 1264.07 365.399 1227.13 365.038 1201.64 C 384.012 1199.05 405.793 1193.49 425.131 1189.62 C 477.296 1179.01 529.353 1167.87 581.296 1156.22 z"/>
<path transform="translate(0,0)" fill="rgb(0,0,0)" d="M 382.112 1208.85 C 385.569 1209.6 385.833 1209.02 387.733 1211.16 C 388.523 1221.28 388.551 1266.11 387.433 1275.78 C 385.931 1275.28 385.319 1274.87 383.914 1274.14 C 380.817 1267.57 382.055 1219.13 382.112 1208.85 z"/>
<path transform="translate(0,0)" fill="rgb(252,252,252)" d="M 1857.7 893.352 L 1858.77 894.996 C 1857.48 920.389 1859.69 948.922 1855.68 973.463 C 1855.36 975.431 1852.3 980.091 1851.08 981.931 C 1837.09 990.036 1698.75 1019.62 1675.26 1024.4 C 1674.65 1020.26 1675.57 1002.16 1675.55 996.94 C 1675.47 974.49 1676.67 950.826 1675 928.461 C 1698.04 925.519 1729.85 917.857 1753.39 913.388 C 1788.02 906.817 1823.25 900.482 1857.7 893.352 z"/>
<path transform="translate(0,0)" fill="rgb(0,0,0)" d="M 1837.49 906.824 C 1840.62 922.793 1837.01 955.081 1837.41 972.378 C 1837.45 973.951 1835.16 977.278 1834.18 978.639 C 1831.68 972.4 1833.31 924.036 1832.89 913.802 C 1832.72 909.65 1834.56 909.236 1837.49 906.824 z"/>
<path transform="translate(0,0)" fill="rgb(0,0,0)" d="M 1812.47 912.256 C 1813.73 912.653 1812.95 912.33 1814.64 913.56 C 1816.24 926.352 1815.18 962.149 1814.59 977.442 C 1814.03 978.262 1813.48 979.083 1812.93 979.903 C 1812.15 979.355 1809.98 978.212 1810.03 977.309 C 1810.68 965.076 1807.4 921.104 1812.47 912.256 z"/>
<path transform="translate(0,0)" fill="rgb(252,252,252)" d="M 1586.77 664.963 C 1609.68 661.001 1651.27 651.864 1672.62 654.12 C 1678.68 658.55 1685.85 667.201 1690.69 672.971 C 1690.65 675.944 1690.06 677.476 1692 679.988 C 1705.67 697.657 1722.32 712.955 1736.94 729.797 C 1737.35 730.055 1737.76 730.313 1738.17 730.571 C 1744.76 740.676 1759.63 755.972 1767.66 765.302 C 1787.27 788.047 1808.33 810.224 1827.39 833.381 C 1804.01 836.132 1765.33 846.062 1739.25 850.546 C 1730.13 833.155 1710.98 803.557 1696.94 790.464 C 1707.27 789.337 1713.47 788.548 1722.75 782.616 C 1746.08 767.708 1742.47 728.137 1712.75 724.331 C 1703.47 723.141 1692.49 725.977 1684.93 731.868 C 1675.33 739.338 1674.18 750.047 1672.62 761.239 C 1643.63 730.237 1616.29 695.364 1586.77 664.963 z"/>
<path transform="translate(0,0)" fill="rgb(211,210,211)" d="M 1416.89 1085.95 C 1429.59 1088.1 1431.94 1083.55 1444.24 1084.93 C 1386.61 1098.15 1323.64 1109.35 1265.16 1121.93 L 852.38 1210.35 L 678.681 1246.47 C 656.276 1250.75 633.906 1255.22 611.571 1259.85 C 603.25 1261.6 589.557 1264.01 581.738 1266.44 L 587.527 1267.46 C 598.055 1265.31 640.04 1256.29 647.797 1256.29 L 650.185 1259.75 C 607.084 1269.56 558.937 1277.01 515.252 1284.75 C 505.267 1286.52 479.887 1292.48 471.241 1292.9 C 444.393 1299.27 342.202 1322.68 320.297 1310.3 C 319.968 1310.11 319.671 1309.87 319.358 1309.66 C 304.811 1303.09 288.621 1279.6 278.598 1266.89 C 266.937 1252.03 254.985 1237.4 242.75 1223 C 239.782 1218.94 239.178 1218.43 240.643 1213.92 C 245.463 1209.37 247.958 1209.86 252.526 1214.3 C 270.403 1235.07 295.218 1270.79 315.2 1287.13 C 343.53 1310.31 422.657 1289.61 456.656 1283.21 L 590.295 1258.22 C 774.287 1221.86 957.927 1183.73 1141.19 1143.84 L 1326.53 1104.33 C 1355.53 1098.3 1387.72 1090.17 1416.89 1085.95 z"/>
<path transform="translate(0,0)" fill="rgb(199,199,199)" d="M 587.527 1267.46 C 598.055 1265.31 640.04 1256.29 647.797 1256.29 L 650.185 1259.75 C 607.084 1269.56 558.937 1277.01 515.252 1284.75 C 505.267 1286.52 479.887 1292.48 471.241 1292.9 C 466.346 1292.25 463.588 1293.66 459.377 1292.62 L 464.443 1289.56 L 465.199 1288.91 C 468.551 1288.26 475.309 1286.6 478.339 1287.12 C 501.061 1281.79 523.902 1277.51 546.838 1273.26 C 558.584 1271.09 569.871 1268.11 581.738 1266.44 L 587.527 1267.46 z"/>
<path transform="translate(0,0)" fill="rgb(59,59,60)" d="M 478.339 1287.12 C 501.061 1281.79 523.902 1277.51 546.838 1273.26 C 558.584 1271.09 569.871 1268.11 581.738 1266.44 L 587.527 1267.46 C 571.882 1270.57 488.05 1288.76 478.339 1287.12 z"/>
<path transform="translate(0,0)" fill="rgb(159,158,159)" d="M 319.358 1309.66 L 320.761 1308.81 C 318.029 1306.68 317.994 1306.92 316.663 1303.79 C 320.378 1301.7 352.491 1305.5 359.793 1305.36 C 395.692 1304.66 429.331 1295.55 464.443 1289.56 L 459.377 1292.62 C 463.588 1293.66 466.346 1292.25 471.241 1292.9 C 444.393 1299.27 342.202 1322.68 320.297 1310.3 C 319.968 1310.11 319.671 1309.87 319.358 1309.66 z"/>
<path transform="translate(0,0)" fill="rgb(199,199,199)" d="M 242.75 1223 C 239.782 1218.94 239.178 1218.43 240.643 1213.92 C 245.463 1209.37 247.958 1209.86 252.526 1214.3 C 249.304 1217.18 246.015 1220.21 242.75 1223 z"/>
<path transform="translate(0,0)" fill="rgb(21,20,23)" fill-opacity="0.0117647" d="M 1652.51 897.052 C 1660.12 895.423 1701.24 886.557 1705.4 889.468 L 1703.87 891.558 C 1680.91 894.355 1653.81 901.969 1631 906.807 C 1602.93 912.759 1574.8 918.803 1546.7 924.566 L 839.708 1071.03 C 758.676 1088.66 677.472 1105.49 596.107 1121.51 C 577.976 1125.18 487.79 1146.05 477.151 1143.38 L 472.874 1140.25 C 490.469 1139.29 513.311 1133.48 530.984 1129.82 L 621.67 1111.13 L 992.98 1033.34 L 1462.29 936.72 L 1574.25 913.569 C 1598.82 908.637 1628.46 903.344 1652.51 897.052 z"/>
<path transform="translate(0,0)" fill="rgb(0,0,0)" d="M 203.335 1104.21 C 214.684 1102.9 223.507 1104.45 233.119 1111.78 C 255.941 1129.19 261.658 1170.48 244.917 1193.55 C 242.18 1197.33 233.96 1204.07 229.308 1205.08 C 210.599 1213.43 194.821 1202.06 185.457 1186.05 C 174.776 1167.8 174.128 1145.34 181.209 1125.68 C 185.4 1114.05 192.724 1108.93 203.335 1104.21 z"/>
<path transform="translate(0,0)" fill="url(#Gradient24)" d="M 229.308 1205.08 C 210.599 1213.43 194.821 1202.06 185.457 1186.05 C 174.776 1167.8 174.128 1145.34 181.209 1125.68 C 185.4 1114.05 192.724 1108.93 203.335 1104.21 L 203.602 1111.27 C 203.758 1115.75 205.087 1116.49 208.64 1118.55 C 198.85 1125.95 193.529 1133.43 192.068 1145.96 C 189.632 1166.86 197.389 1193.82 223.2 1191.74 L 224.186 1192.69 L 222.336 1193.83 L 222.164 1196.41 C 218.63 1197.6 218.209 1197.1 216.138 1199.53 C 217.676 1201.47 226.707 1204.47 229.308 1205.08 z"/>
<path transform="translate(0,0)" fill="url(#Gradient23)" d="M 203.335 1104.21 C 214.684 1102.9 223.507 1104.45 233.119 1111.78 C 255.941 1129.19 261.658 1170.48 244.917 1193.55 C 242.18 1197.33 233.96 1204.07 229.308 1205.08 C 226.707 1204.47 217.676 1201.47 216.138 1199.53 C 218.209 1197.1 218.63 1197.6 222.164 1196.41 L 222.336 1193.83 L 224.186 1192.69 L 223.2 1191.74 C 229.352 1188.31 232.567 1185.96 236.745 1179.98 C 243.813 1170.03 246.622 1157.67 244.548 1145.65 C 241.111 1126.51 228.626 1114.08 208.64 1118.55 C 205.087 1116.49 203.758 1115.75 203.602 1111.27 L 203.335 1104.21 z"/>
<path transform="translate(0,0)" fill="url(#Gradient22)" d="M 213.564 1125.97 C 231.185 1125.76 237.038 1140.77 237.181 1156.65 C 237.278 1167.4 232.726 1175.03 224.929 1182.23 C 213.704 1184.44 212.233 1180.4 205.439 1172.57 C 201.692 1157.56 200.283 1136.61 213.564 1125.97 z"/>
<path transform="translate(0,0)" fill="rgb(0,0,0)" d="M 588.962 1154.78 L 652.292 1141.74 C 649.925 1167.14 655.384 1212.94 651.522 1239.71 C 650.763 1240.51 650.005 1241.31 649.246 1242.11 L 646.296 1241.94 C 636.592 1243.21 595.374 1253.01 590.418 1251.43 C 589.973 1248.9 589.847 1248.83 590.166 1246.32 C 589.273 1216.38 589.427 1184.91 588.962 1154.78 z"/>
<path transform="translate(0,0)" fill="rgb(21,20,23)" d="M 641.09 1199.13 C 642.81 1198.87 647.209 1199.1 649.164 1199.14 C 649.301 1212.74 649.816 1228.72 649.246 1242.11 L 646.296 1241.94 C 636.592 1243.21 595.374 1253.01 590.418 1251.43 C 589.973 1248.9 589.847 1248.83 590.166 1246.32 C 591.143 1241.85 590.332 1237.12 595.01 1235.15 L 596.09 1233.72 L 593.672 1233.02 C 592.088 1229.52 592.699 1224.67 592.811 1220.67 L 592.924 1208.6 C 603.331 1206.76 614.818 1204.99 625.003 1202.49 C 626.247 1202.08 637.943 1199.96 641.09 1199.13 z"/>
<path transform="translate(0,0)" fill="url(#Gradient21)" d="M 596.09 1233.72 C 608.249 1229.61 629.016 1226.27 641.674 1227.55 C 642.685 1232.41 643.264 1238.39 646.296 1241.94 C 636.592 1243.21 595.374 1253.01 590.418 1251.43 C 589.973 1248.9 589.847 1248.83 590.166 1246.32 C 591.143 1241.85 590.332 1237.12 595.01 1235.15 L 596.09 1233.72 z"/>
<path transform="translate(0,0)" fill="rgb(131,130,132)" d="M 625.003 1202.49 C 623.801 1209.27 625.992 1208.68 626.01 1213.32 C 615.284 1216.02 603.707 1219.33 592.811 1220.67 L 592.924 1208.6 C 603.331 1206.76 614.818 1204.99 625.003 1202.49 z"/>
<path transform="translate(0,0)" fill="rgb(59,59,60)" d="M 641.09 1199.13 C 643.123 1202.67 642.964 1202.52 643.094 1206.68 C 640.115 1212.92 632.396 1214.03 626.01 1213.32 C 625.992 1208.68 623.801 1209.27 625.003 1202.49 C 626.247 1202.08 637.943 1199.96 641.09 1199.13 z"/>
<path transform="translate(0,0)" fill="rgb(252,252,252)" d="M 588.962 1154.78 L 652.292 1141.74 C 649.925 1167.14 655.384 1212.94 651.522 1239.71 C 650.763 1240.51 650.005 1241.31 649.246 1242.11 C 649.816 1228.72 649.301 1212.74 649.164 1199.14 C 649.008 1181.27 648.606 1163.41 647.959 1145.55 C 630.567 1150.55 610.616 1154.13 592.754 1157.61 C 592.804 1174.46 592.637 1191.79 592.924 1208.6 L 592.811 1220.67 C 592.699 1224.67 592.088 1229.52 593.672 1233.02 L 596.09 1233.72 L 595.01 1235.15 C 590.332 1237.12 591.143 1241.85 590.166 1246.32 C 589.273 1216.38 589.427 1184.91 588.962 1154.78 z"/>
<path transform="translate(0,0)" fill="rgb(0,0,0)" d="M 1052 1058.53 C 1072.28 1053.75 1092.9 1049.82 1113.26 1045.19 C 1114.41 1055.96 1114.96 1139.36 1111.08 1145.3 L 1107.16 1145.18 C 1090.49 1149.42 1070.27 1152.65 1053.07 1156.39 C 1052.53 1149.36 1052.77 1142.47 1052.89 1135.43 C 1052.88 1109.67 1051.94 1084.3 1052 1058.53 z"/>
<path transform="translate(0,0)" fill="url(#Gradient20)" d="M 1096.06 1129.38 C 1105.81 1132.11 1104.19 1136.47 1106.73 1144.42 L 1107.16 1145.18 C 1090.49 1149.42 1070.27 1152.65 1053.07 1156.39 C 1052.53 1149.36 1052.77 1142.47 1052.89 1135.43 L 1055.63 1133.38 L 1056.3 1135.33 C 1060.13 1137.47 1073.15 1133.29 1077.76 1132.07 L 1089.15 1130.42 L 1096.06 1129.38 z"/>
<path transform="translate(0,0)" fill="rgb(199,199,199)" d="M 1096.06 1129.38 C 1105.81 1132.11 1104.19 1136.47 1106.73 1144.42 C 1100.42 1144.09 1089.32 1145.34 1085.66 1142.99 C 1088.46 1140.91 1091.97 1138.96 1092.83 1135.81 C 1092.03 1132.69 1091.58 1132.54 1089.15 1130.42 L 1096.06 1129.38 z"/>
<path transform="translate(0,0)" fill="rgb(252,252,252)" d="M 1052 1058.53 C 1072.28 1053.75 1092.9 1049.82 1113.26 1045.19 C 1114.41 1055.96 1114.96 1139.36 1111.08 1145.3 C 1109.64 1139.97 1109.94 1129.91 1109.88 1123.96 L 1110.11 1118.71 C 1109.81 1095.79 1110.02 1072.34 1109.99 1049.38 C 1093.97 1052.84 1071.66 1058.46 1055.98 1060.36 C 1055.71 1077.63 1055.99 1095.51 1056.03 1112.83 L 1055.99 1123.46 L 1056.08 1132.18 L 1055.63 1133.38 L 1052.89 1135.43 C 1052.88 1109.67 1051.94 1084.3 1052 1058.53 z"/>
<path transform="translate(0,0)" fill="rgb(21,20,23)" d="M 1056.08 1132.18 C 1058.63 1132.58 1090.62 1118.37 1097.25 1122.92 C 1098.32 1123.66 1101.51 1122.93 1102.84 1122.54 L 1105.43 1123.85 C 1105.98 1126.82 1106.43 1131.29 1107.99 1133.53 C 1109.7 1130.26 1109.58 1127.65 1109.88 1123.96 C 1109.94 1129.91 1109.64 1139.97 1111.08 1145.3 L 1107.16 1145.18 L 1106.73 1144.42 C 1104.19 1136.47 1105.81 1132.11 1096.06 1129.38 L 1089.15 1130.42 L 1077.76 1132.07 C 1073.15 1133.29 1060.13 1137.47 1056.3 1135.33 L 1055.63 1133.38 L 1056.08 1132.18 z"/>
<path transform="translate(0,0)" fill="rgb(0,0,0)" d="M 1077.76 1132.07 C 1082.28 1127.32 1090.24 1124.54 1096.65 1125.91 L 1097.58 1127.58 L 1096.06 1129.38 L 1089.15 1130.42 L 1077.76 1132.07 z"/>
<path transform="translate(0,0)" fill="url(#Gradient19)" d="M 1073.67 1109.33 C 1080.21 1108.26 1087.59 1106.65 1094.16 1105.37 C 1096.76 1108.33 1096.22 1112.84 1096.35 1117.25 C 1089.8 1118.03 1083.26 1118.87 1076.73 1119.78 L 1076.48 1118.67 C 1071.1 1115.03 1072.3 1115.18 1073.67 1109.33 z"/>
<path transform="translate(0,0)" fill="rgb(131,130,132)" d="M 1056.03 1112.83 C 1060.82 1112.23 1068.71 1110.35 1073.67 1109.33 C 1072.3 1115.18 1071.1 1115.03 1076.48 1118.67 L 1076.73 1119.78 C 1070.73 1120.89 1061.82 1122.82 1055.99 1123.46 L 1056.03 1112.83 z"/>
<path transform="translate(0,0)" fill="rgb(59,59,60)" d="M 1094.16 1105.37 C 1099.06 1104.74 1100.36 1103.8 1104.61 1105.45 C 1106.93 1108.52 1106.3 1106.87 1106.82 1110.49 C 1105.71 1113.96 1105.96 1113.87 1103.12 1116.08 C 1100.84 1116.51 1098.66 1116.99 1096.35 1117.25 C 1096.22 1112.84 1096.76 1108.33 1094.16 1105.37 z"/>
<path transform="translate(0,0)" fill="rgb(252,252,252)" d="M 1708.02 893.443 L 1710.2 894.641 C 1707.98 897.34 1700.87 898.694 1697.36 899.453 C 1571.22 926.703 1444.25 950.99 1318 977.506 L 768.698 1092.38 C 665.303 1114.53 561.635 1135.37 457.72 1154.93 C 437.812 1158.65 417.934 1162.52 398.087 1166.55 C 367.528 1172.44 355.401 1177.59 326.704 1160.92 C 360.872 1169.39 375.656 1170.16 410.003 1161.37 C 417.075 1159.57 434.346 1157.71 439.625 1154.29 L 441.086 1151.97 C 443.673 1147.56 445.347 1146.84 449.716 1144.23 C 450.617 1141.54 449.656 1139.79 448.808 1136.94 L 448.415 1135.64 L 449.371 1134.38 C 455.526 1132.68 464.704 1139.17 472.874 1140.25 L 477.151 1143.38 L 474.59 1144.84 L 476.224 1147.35 L 477.779 1147.62 C 486.709 1145.33 499.071 1143.72 508.54 1141.78 L 579.529 1127.01 L 795.279 1082.75 L 1394.98 957.588 L 1625.77 910.014 C 1640.9 906.801 1656.05 903.559 1671.22 900.533 C 1682.66 898.25 1697.17 897.054 1708.02 893.443 z"/>
<path transform="translate(0,0)" fill="rgb(211,210,211)" d="M 441.086 1151.97 C 443.673 1147.56 445.347 1146.84 449.716 1144.23 C 450.617 1141.54 449.656 1139.79 448.808 1136.94 L 448.415 1135.64 L 449.371 1134.38 C 455.526 1132.68 464.704 1139.17 472.874 1140.25 L 477.151 1143.38 L 474.59 1144.84 L 476.224 1147.35 L 477.779 1147.62 C 465.115 1150.14 452.394 1152.37 439.625 1154.29 L 441.086 1151.97 z"/>
<path transform="translate(0,0)" fill="rgb(98,97,98)" d="M 441.086 1151.97 C 450.005 1150.98 457.471 1148.98 465.803 1145.81 L 462.146 1146.66 C 467.342 1143.23 468.627 1142.93 474.59 1144.84 L 476.224 1147.35 L 477.779 1147.62 C 465.115 1150.14 452.394 1152.37 439.625 1154.29 L 441.086 1151.97 z"/>
<path transform="translate(0,0)" fill="rgb(0,0,0)" d="M 1301.04 1005.76 C 1314.04 1003.05 1327.02 1000.24 1339.98 997.31 L 1340.06 1059.99 C 1340.08 1066.73 1340.5 1090.79 1339.23 1096.04 C 1334.53 1096.24 1330.7 1097.48 1328.23 1097.58 C 1313.94 1099.76 1294.09 1104.88 1279.96 1108.37 L 1279.99 1010.55 C 1285.65 1008.43 1294.82 1006.96 1301.04 1005.76 z"/>
<path transform="translate(0,0)" fill="url(#Gradient18)" d="M 1279.99 1010.55 C 1285.65 1008.43 1294.82 1006.96 1301.04 1005.76 L 1303.95 1008.34 C 1297.61 1009.67 1289.4 1011.63 1283.14 1012.43 L 1283.01 1063.27 C 1282.92 1068.44 1282.27 1082.1 1283.41 1086.33 L 1284.91 1086.6 C 1293.89 1084.34 1307.69 1082.27 1317.15 1080.57 L 1322.4 1081.31 C 1323.36 1083.34 1321.21 1086.99 1322.17 1091.65 C 1325.26 1095.8 1326.86 1091.9 1329.35 1096.04 L 1328.23 1097.58 C 1313.94 1099.76 1294.09 1104.88 1279.96 1108.37 L 1279.99 1010.55 z"/>
<path transform="translate(0,0)" fill="url(#Gradient17)" d="M 1283.01 1063.27 C 1294.74 1061.65 1308.39 1058.68 1320.18 1056.38 C 1322.69 1060.21 1321.37 1063.01 1320.27 1067.3 C 1308.14 1070.04 1295.97 1072.56 1283.75 1074.87 C 1283.88 1078.67 1283.6 1083.29 1284.91 1086.6 L 1283.41 1086.33 C 1282.27 1082.1 1282.92 1068.44 1283.01 1063.27 z"/>
<path transform="translate(0,0)" fill="rgb(252,252,252)" d="M 1301.04 1005.76 C 1314.04 1003.05 1327.02 1000.24 1339.98 997.31 L 1340.06 1059.99 C 1340.08 1066.73 1340.5 1090.79 1339.23 1096.04 L 1336.03 1095.19 C 1337.44 1088.44 1337.05 1069.32 1337.04 1061.8 L 1336.71 1001.46 C 1325.86 1004.08 1314.94 1006.38 1303.95 1008.34 L 1301.04 1005.76 z"/>
<path transform="translate(0,0)" fill="rgb(131,130,132)" d="M 1330.48 1079.2 C 1330.9 1084.69 1330.82 1088.99 1332.97 1094.04 C 1334.96 1095.37 1333.92 1095.06 1336.03 1095.19 L 1339.23 1096.04 C 1334.53 1096.24 1330.7 1097.48 1328.23 1097.58 L 1329.35 1096.04 C 1326.86 1091.9 1325.26 1095.8 1322.17 1091.65 C 1321.21 1086.99 1323.36 1083.34 1322.4 1081.31 L 1317.15 1080.57 L 1330.48 1079.2 z"/>
<path transform="translate(0,0)" fill="rgb(59,59,60)" d="M 1320.18 1056.38 C 1324.38 1055.27 1327.07 1053.98 1330.98 1055.48 C 1333.61 1057.88 1332.8 1056.46 1333.62 1059.83 C 1330.58 1067.12 1327.29 1066.48 1320.27 1067.3 C 1321.37 1063.01 1322.69 1060.21 1320.18 1056.38 z"/>
<path transform="translate(0,0)" fill="rgb(0,0,0)" d="M 1225.71 1021.8 L 1225.62 1023.08 C 1224.35 1044.38 1225.84 1068.74 1225.21 1090.29 C 1224.97 1098.52 1225.85 1111.16 1224.35 1118.84 C 1221.11 1121.27 1220.51 1120.4 1215.63 1120.69 C 1208.09 1123.89 1175.88 1130.42 1166.05 1132.58 L 1166.14 1120.42 C 1165.96 1091.79 1165.93 1063.16 1166.05 1034.53 C 1184.25 1030.42 1207.57 1024.88 1225.71 1021.8 z"/>
<path transform="translate(0,0)" fill="url(#Gradient16)" d="M 1170.73 1110.77 C 1183.21 1109.11 1196 1105.18 1208.36 1105.25 C 1213.45 1105.29 1215.3 1107.82 1218.33 1111.44 L 1219.49 1119.53 C 1217.36 1118.98 1217.53 1118.71 1215.59 1117.28 C 1211.15 1118.14 1203.3 1117.77 1201.27 1118.61 C 1209.34 1121.01 1208.28 1119.79 1215.63 1120.69 C 1208.09 1123.89 1175.88 1130.42 1166.05 1132.58 L 1166.14 1120.42 C 1169.4 1115.51 1165.91 1115.43 1170.73 1110.77 z"/>
<path transform="translate(0,0)" fill="rgb(211,210,211)" d="M 1201.27 1118.61 C 1198.37 1119.65 1198.15 1119.59 1195.04 1119.89 L 1194.24 1118.98 C 1196.47 1118.18 1196.42 1118.31 1198.42 1117.11 C 1195.64 1117.07 1196.03 1117.37 1193.55 1116.52 C 1203 1111.27 1209.73 1104.22 1215.59 1117.28 C 1211.15 1118.14 1203.3 1117.77 1201.27 1118.61 z"/>
<path transform="translate(0,0)" fill="rgb(252,252,252)" d="M 1225.71 1021.8 L 1225.62 1023.08 C 1224.35 1044.38 1225.84 1068.74 1225.21 1090.29 C 1224.97 1098.52 1225.85 1111.16 1224.35 1118.84 C 1221.11 1121.27 1220.51 1120.4 1215.63 1120.69 C 1208.28 1119.79 1209.34 1121.01 1201.27 1118.61 C 1203.3 1117.77 1211.15 1118.14 1215.59 1117.28 C 1217.53 1118.71 1217.36 1118.98 1219.49 1119.53 C 1221.16 1117.73 1221.93 1117.56 1222.03 1114.98 C 1222.35 1105.94 1222.13 1096.17 1222.11 1087.15 L 1221.99 1025.26 C 1204.88 1030.03 1186.9 1033.35 1169.45 1036.94 C 1168.83 1045.07 1168.42 1106.77 1170.01 1110.62 L 1170.73 1110.77 C 1165.91 1115.43 1169.4 1115.51 1166.14 1120.42 C 1165.96 1091.79 1165.93 1063.16 1166.05 1034.53 C 1184.25 1030.42 1207.57 1024.88 1225.71 1021.8 z"/>
<path transform="translate(0,0)" fill="rgb(21,20,23)" d="M 1170.01 1110.62 C 1169.79 1105.81 1168.95 1102.19 1171.72 1098.5 C 1176.01 1095.5 1181.31 1095.88 1187.03 1095.23 C 1190.66 1097.15 1213.53 1097.73 1217.67 1097.24 C 1217.99 1101.86 1218.47 1106.84 1218.33 1111.44 C 1215.3 1107.82 1213.45 1105.29 1208.36 1105.25 C 1196 1105.18 1183.21 1109.11 1170.73 1110.77 L 1170.01 1110.62 z"/>
<path transform="translate(0,0)" fill="url(#Gradient15)" d="M 1170.01 1110.62 C 1168.42 1106.77 1168.83 1045.07 1169.45 1036.94 C 1170.73 1048.8 1170.04 1072.51 1170.11 1085.49 C 1179.7 1084.23 1190.67 1081.78 1199.7 1080.97 C 1197.63 1087.45 1196.79 1084.01 1195.37 1093.48 C 1192.88 1093.97 1189.37 1094.56 1187.03 1095.23 C 1181.31 1095.88 1176.01 1095.5 1171.72 1098.5 C 1168.95 1102.19 1169.79 1105.81 1170.01 1110.62 z"/>
<path transform="translate(0,0)" fill="rgb(59,59,60)" d="M 1201.38 1080.73 C 1208.62 1079.21 1216.37 1076.45 1218.83 1085.38 C 1217.84 1088.73 1217.82 1088.47 1215.01 1090.65 C 1211.29 1091.64 1209.52 1091.61 1205.62 1091.83 C 1202.17 1092.34 1198.79 1092.81 1195.37 1093.48 C 1196.79 1084.01 1197.63 1087.45 1199.7 1080.97 L 1201.38 1080.73 z"/>
<path transform="translate(0,0)" fill="rgb(98,97,98)" d="M 1199.7 1080.97 L 1201.38 1080.73 L 1204.32 1081.52 C 1205.59 1084.77 1206.54 1088.35 1205.62 1091.83 C 1202.17 1092.34 1198.79 1092.81 1195.37 1093.48 C 1196.79 1084.01 1197.63 1087.45 1199.7 1080.97 z"/>
<path transform="translate(0,0)" fill="rgb(252,252,252)" d="M 460.292 1130.6 C 478.864 1137.14 481.264 1133.7 500.111 1129.89 C 520.294 1125.87 540.428 1121.61 560.51 1117.12 L 714.075 1085.69 L 1438.66 935.339 C 1509.55 920.92 1580.4 906.298 1651.24 891.685 C 1673.73 887.046 1696.07 884.914 1718.1 877.509 C 1719.88 876.911 1722.24 877.146 1723.92 878.085 L 1724.14 880.213 C 1719.96 888.315 1716.19 887.727 1708.36 891.729 L 1703.87 891.558 L 1705.4 889.468 C 1701.24 886.557 1660.12 895.423 1652.51 897.052 C 1639.17 896.691 1596.21 907.692 1581.29 910.699 L 1432.43 940.881 C 1277.38 971.944 1122.5 1003.84 967.789 1036.56 C 850.358 1061.81 732.761 1086.29 615.006 1109.98 C 569.712 1118.91 524.552 1130.55 478.919 1137.51 C 472.201 1138.54 465.636 1134.01 460.292 1130.6 z"/>
<path transform="translate(0,0)" fill="rgb(252,252,252)" d="M 1045.66 1059.32 L 1047.34 1059.39 C 1049 1062.18 1048.26 1149.72 1048.07 1157.4 C 1032.75 1160.82 1017.27 1163.9 1002.05 1167.71 C 1000.35 1165.11 1001.71 1145.54 1001.71 1141.18 C 1001.69 1117.28 1001.79 1092.58 999.638 1068.8 C 1014.81 1065.55 1030.42 1062.01 1045.66 1059.32 z"/>
<path transform="translate(0,0)" fill="rgb(252,252,252)" d="M 1271.88 1012.33 C 1273.85 1011.97 1273.37 1012.1 1275.44 1012.35 C 1276.33 1015.85 1275.97 1037.14 1275.97 1042.25 L 1276.01 1109.47 L 1231.28 1118.77 L 1229.58 1118.68 C 1229.4 1117.74 1229.93 1092.59 1229.94 1089.98 C 1230.1 1066.99 1229.76 1043.99 1228.93 1021.01 C 1243.2 1017.91 1257.52 1015.02 1271.88 1012.33 z"/>
<path transform="translate(0,0)" fill="rgb(252,252,252)" d="M 697.176 1132.26 C 697.836 1132.18 700.311 1132.19 701.067 1132.18 C 702.602 1135.85 702.394 1219.59 702.404 1229.58 C 690.347 1233.03 672.801 1236.45 660.194 1239.31 L 657.985 1239.64 C 657.613 1239.28 657.24 1238.91 656.868 1238.55 C 655.987 1212.25 658.412 1165.09 654.894 1141.26 C 668.954 1138.1 683.049 1135.1 697.176 1132.26 z"/>
<path transform="translate(0,0)" fill="rgb(252,252,252)" d="M 1160.43 1035.29 L 1161.1 1035.37 C 1162.94 1038.44 1161.95 1123.57 1161.12 1133.58 C 1145.67 1136.52 1132.68 1139.61 1117.34 1143.44 C 1117.14 1141.74 1117.23 1143.05 1117.3 1141.27 C 1117.87 1127.05 1118.13 1111.43 1117.92 1097.19 C 1117.69 1081.35 1118.16 1060.35 1116.27 1044.8 C 1130.93 1041.37 1145.65 1038.2 1160.43 1035.29 z"/>
<path transform="translate(0,0)" fill="rgb(252,252,252)" d="M 1608.66 942.302 C 1610.47 941.963 1609.43 941.989 1611.77 942.586 C 1612.52 949.079 1612.07 967.77 1612.06 975.224 C 1612.17 996.608 1612.02 1017.99 1611.62 1039.37 C 1600.9 1040.64 1580.66 1045.99 1569.36 1048.69 L 1568.25 1048.64 L 1567.18 1047.08 C 1568.6 1033.4 1568 1013.31 1567.94 999.078 C 1567.89 984.41 1568.33 964.646 1566.73 950.662 C 1579.52 948.801 1595.23 944.721 1608.66 942.302 z"/>
<path transform="translate(0,0)" fill="rgb(252,252,252)" d="M 1385.04 988.248 L 1387.59 988.419 C 1389.88 997.626 1387.95 1072.62 1387.88 1085.51 C 1374.24 1087.87 1359.76 1091.83 1345.98 1094.74 L 1345.05 1094.66 C 1342.46 1091.05 1345.69 1010.13 1342.68 996.808 C 1356.34 994.425 1371.34 991.037 1385.04 988.248 z"/>
<path transform="translate(0,0)" fill="rgb(252,252,252)" d="M 925.499 1084.22 C 928.161 1083.84 929.263 1083.32 931.575 1084.53 C 933.107 1092.27 932.749 1111.97 932.778 1120.8 L 932.91 1181.8 L 895.228 1190.16 C 892.697 1190.82 892.789 1190.98 890.285 1190.41 C 889.127 1186.57 890.024 1170.94 889.751 1165.8 C 888.675 1145.6 890.865 1110.74 887.974 1091.93 C 900.466 1089.28 912.974 1086.71 925.499 1084.22 z"/>
<path transform="translate(0,0)" fill="rgb(252,252,252)" d="M 1499.52 964.194 L 1500.32 964.345 C 1501.91 967.347 1501.12 1051.33 1501.11 1062.2 C 1487.33 1065.21 1473.52 1068.01 1459.66 1070.62 L 1458.34 1069.84 C 1457.58 1063.17 1458 1046.61 1458.01 1039.09 C 1458.21 1017.04 1458.1 994.998 1457.67 972.959 C 1471.53 969.883 1485.57 967.28 1499.52 964.194 z"/>
<path transform="translate(0,0)" fill="rgb(252,252,252)" d="M 814.331 1108.29 C 814.842 1108.2 816.76 1108.28 817.36 1108.29 C 819.708 1114.06 818.204 1194.79 818.264 1206.4 C 805.137 1208.51 790.179 1211.83 776.998 1214.44 C 775.991 1214.05 776.639 1214.38 775.351 1213.01 C 777.267 1191.59 775.241 1164.31 775.198 1142.56 C 775.189 1138.04 773.444 1120.13 774.039 1117.4 C 782.691 1113.74 804.3 1110.17 814.331 1108.29 z"/>
<path transform="translate(0,0)" fill="rgb(21,20,23)" fill-opacity="0.027451" d="M 1691.57 1031.67 C 1695.39 1031.86 1704.63 1031.01 1707.08 1031.8 L 1705.78 1032.41 C 1695.81 1033.9 1682.97 1035.5 1673.57 1038.44 C 1659.51 1041.5 1641.78 1046.2 1628.53 1048.71 C 1605.44 1053.12 1583.11 1058.75 1560.26 1063.6 L 1405.1 1095.92 L 1319.1 1113.94 C 1297.67 1118.3 1275.73 1122.27 1254.62 1127.83 C 1237.92 1130.22 1209.72 1136.85 1192.64 1140.73 C 1153.94 1149.75 1114.84 1157 1076.04 1165.39 L 797.519 1224.97 C 768.631 1231.1 739.423 1236.64 710.553 1242.86 C 691.126 1247.04 666.262 1250.5 647.797 1256.29 C 640.04 1256.29 598.055 1265.31 587.527 1267.46 L 581.738 1266.44 C 589.557 1264.01 603.25 1261.6 611.571 1259.85 C 633.906 1255.22 656.276 1250.75 678.681 1246.47 L 852.38 1210.35 L 1265.16 1121.93 C 1323.64 1109.35 1386.61 1098.15 1444.24 1084.93 C 1462.37 1082.21 1494.13 1073.98 1514.14 1069.82 C 1573.49 1058.09 1632.65 1045.37 1691.57 1031.67 z"/>
<path transform="translate(0,0)" fill="url(#Gradient14)" d="M 1416.89 1085.95 C 1463.77 1073.86 1517.79 1064.89 1565.29 1054.93 C 1591.33 1049.47 1617.26 1043.22 1643.23 1037.46 L 1739.61 1016.69 C 1771 1009.85 1802.28 1002.54 1833.45 994.758 C 1840.82 992.858 1865.48 984.43 1870.27 983.924 L 1870.5 985.082 L 1867.76 988.196 C 1857.39 1001.37 1844.56 1006.29 1828.11 1009.57 C 1823.74 1006.53 1811.14 1008.04 1804.4 1008.01 C 1795.58 1009.61 1786.95 1011.82 1778.39 1014.5 C 1756.07 1021.48 1732.3 1024.23 1710.1 1031.12 C 1708.91 1031.49 1708.24 1031.58 1707.08 1031.8 C 1704.63 1031.01 1695.39 1031.86 1691.57 1031.67 C 1632.65 1045.37 1573.49 1058.09 1514.14 1069.82 C 1494.13 1073.98 1462.37 1082.21 1444.24 1084.93 C 1431.94 1083.55 1429.59 1088.1 1416.89 1085.95 z"/>
<path transform="translate(0,0)" fill="rgb(98,97,98)" d="M 1834.44 998.171 C 1840.6 995.379 1861.06 989.358 1867.76 988.196 C 1857.39 1001.37 1844.56 1006.29 1828.11 1009.57 C 1823.74 1006.53 1811.14 1008.04 1804.4 1008.01 C 1795.58 1009.61 1786.95 1011.82 1778.39 1014.5 C 1756.07 1021.48 1732.3 1024.23 1710.1 1031.12 C 1708.91 1031.49 1708.24 1031.58 1707.08 1031.8 C 1704.63 1031.01 1695.39 1031.86 1691.57 1031.67 C 1720.98 1025.2 1750.33 1018.44 1779.61 1011.4 C 1796.87 1007.24 1817.5 1001.51 1834.44 998.171 z"/>
<path transform="translate(0,0)" fill="url(#Gradient13)" d="M 1834.44 998.171 C 1840.6 995.379 1861.06 989.358 1867.76 988.196 C 1857.39 1001.37 1844.56 1006.29 1828.11 1009.57 C 1823.74 1006.53 1811.14 1008.04 1804.4 1008.01 C 1815.69 1003.99 1828.9 1003.17 1840.17 998.384 C 1844.89 996.378 1850.78 996.601 1856.07 993.724 C 1851.52 993.393 1840.94 997.723 1834.44 998.171 z"/>
<path transform="translate(0,0)" fill="rgb(211,210,211)" d="M 1192.64 1140.73 C 1209.72 1136.85 1237.92 1130.22 1254.62 1127.83 C 1255 1129.08 1255.33 1130.58 1255.91 1131.69 C 1244.35 1134.82 1211.52 1141.84 1199.05 1143.57 C 1175.73 1149.1 1153.28 1153.35 1129.97 1158.37 L 1001.41 1185.91 C 884.502 1211.3 767.424 1235.92 650.185 1259.75 L 647.797 1256.29 C 666.262 1250.5 691.126 1247.04 710.553 1242.86 C 739.423 1236.64 768.631 1231.1 797.519 1224.97 L 1076.04 1165.39 C 1114.84 1157 1153.94 1149.75 1192.64 1140.73 z"/>
<path transform="translate(0,0)" fill="rgb(199,199,199)" d="M 1690.69 672.971 C 1706.15 691.752 1723.19 708.585 1739.57 726.422 C 1765.83 755.369 1791.83 784.54 1817.59 813.934 C 1828.16 826.127 1840.99 839.05 1850.37 852.254 C 1852.42 855.139 1852.08 859.715 1851.76 863.161 C 1846.77 870.89 1800.66 876.607 1788.45 879.602 C 1779.91 881.699 1735.79 890.576 1730.49 889.372 C 1730.11 887.015 1730.07 887.872 1730.64 885.491 L 1733.4 880.863 C 1734.37 878.586 1735.6 874.778 1736.47 872.334 C 1756.51 868.126 1776.61 864.177 1796.76 860.486 C 1806.17 858.711 1821.92 855.257 1831.07 854.488 C 1832 857.885 1831.36 858.977 1830.8 862.677 L 1833.04 867.942 L 1839.9 864.601 C 1838.92 861.024 1838.63 859.977 1838.3 856.321 C 1840.86 853.374 1840.99 854.269 1846.03 853.421 C 1842.18 851.199 1839.73 850.887 1838.88 846.523 L 1840.11 847.875 C 1838.66 842.269 1837.47 839.666 1833.62 835.266 C 1823.14 823.313 1812.6 811.42 1802.04 799.543 C 1787.71 783.292 1773.22 767.17 1758.6 751.178 C 1753.69 745.879 1743.61 734.439 1738.17 730.571 C 1737.76 730.313 1737.35 730.055 1736.94 729.797 C 1722.32 712.955 1705.67 697.657 1692 679.988 C 1690.06 677.476 1690.65 675.944 1690.69 672.971 z"/>
<path transform="translate(0,0)" fill="rgb(252,252,252)" d="M 1736.47 872.334 C 1756.51 868.126 1776.61 864.177 1796.76 860.486 C 1806.17 858.711 1821.92 855.257 1831.07 854.488 C 1832 857.885 1831.36 858.977 1830.8 862.677 C 1811.24 865.218 1792.46 868.054 1773.19 872.289 C 1759.89 875.212 1746.23 875.89 1733.4 880.863 C 1734.37 878.586 1735.6 874.778 1736.47 872.334 z"/>
<path transform="translate(0,0)" fill="rgb(159,158,159)" d="M 1733.4 880.863 C 1746.23 875.89 1759.89 875.212 1773.19 872.289 C 1792.46 868.054 1811.24 865.218 1830.8 862.677 L 1833.04 867.942 C 1815.54 870.679 1742.64 886.561 1730.64 885.491 L 1733.4 880.863 z"/>
<path transform="translate(0,0)" fill="rgb(131,130,132)" d="M 1846.03 853.421 C 1849.11 855.956 1848.34 854.419 1848.91 857.905 C 1846.86 862.145 1844.09 863.092 1839.9 864.601 C 1838.92 861.024 1838.63 859.977 1838.3 856.321 C 1840.86 853.374 1840.99 854.269 1846.03 853.421 z"/>
<path transform="translate(0,0)" fill="rgb(252,252,252)" d="M 1698.46 731.306 C 1707.5 728.727 1717.23 731.244 1723.89 737.885 C 1730.55 744.526 1733.1 754.25 1730.54 763.301 C 1727.99 772.351 1720.73 779.31 1711.58 781.489 C 1697.86 784.756 1684.05 776.462 1680.48 762.817 C 1676.91 749.171 1684.9 735.175 1698.46 731.306 z"/>
<path transform="translate(0,0)" fill="rgb(0,0,0)" d="M 1694.49 742.091 C 1703.02 741.535 1709.08 741.415 1716.13 747.365 C 1732.22 760.948 1710.4 785.851 1696.19 768.909 C 1692.01 763.932 1691.74 757.907 1690.91 751.697 C 1691.29 747.313 1692.34 746.096 1694.49 742.091 z"/>
<path transform="translate(0,0)" fill="rgb(98,97,98)" d="M 1703.38 750.541 C 1709.52 751.881 1713.63 753.037 1715.48 759.441 C 1714.31 764.07 1714.51 762.765 1710.83 766.713 C 1704.5 765.749 1696.66 757.124 1703.38 750.541 z"/>
<path transform="translate(0,0)" fill="rgb(131,130,132)" d="M 1690.91 751.697 L 1688.81 752.47 C 1688.14 755.767 1687.74 757.021 1686.65 760.241 L 1685.9 759.572 C 1684.8 753.355 1686.22 740.362 1693.42 739.241 L 1694.49 742.091 C 1692.34 746.096 1691.29 747.313 1690.91 751.697 z"/>
<path transform="translate(0,0)" fill="url(#Gradient12)" d="M 202.725 1047.79 C 213.532 1060.11 224.583 1074.71 234.84 1087.74 C 246.239 1102.22 262.04 1121.02 270.96 1136.8 C 270.499 1166.45 270.852 1196.1 272.018 1225.72 C 265.364 1215.97 262.054 1211.54 253.892 1203.05 C 255.488 1199.01 261.601 1187.45 262.1 1184.47 C 267.41 1152.72 259.761 1119.81 232.745 1100.82 C 220.886 1094.8 216.813 1097.68 211.458 1086.99 C 208.189 1088.89 206.801 1090.59 203.892 1090.17 C 201.928 1083.15 203.109 1057.01 202.725 1047.79 z"/>
<path transform="translate(0,0)" fill="rgb(199,199,199)" d="M 211.458 1086.99 C 225.913 1073.94 235.892 1089.01 232.745 1100.82 C 220.886 1094.8 216.813 1097.68 211.458 1086.99 z"/>
<path transform="translate(0,0)" fill="rgb(252,252,252)" d="M 1505.71 963.383 C 1524.91 959.705 1544.07 955.808 1563.18 951.693 C 1563.19 968.14 1565.09 1038.83 1560.95 1049.24 C 1558.8 1042.93 1559.95 967.486 1559.94 955.317 C 1544.46 959.655 1525.03 962.831 1508.96 965.779 C 1508.77 983.079 1508.97 1000.77 1508.98 1018.1 L 1509.01 1029.83 L 1509.46 1029.85 C 1509.72 1034.01 1508.99 1033.36 1511.25 1035.47 C 1523.86 1037.25 1548.49 1024.35 1554.25 1031.81 C 1554.29 1033.47 1554.4 1034.96 1554.24 1036.6 C 1554.96 1040.86 1555.56 1044.36 1556.61 1048.57 L 1555.81 1050.82 C 1547.16 1053.16 1523.23 1057.74 1513.87 1059.03 C 1511.06 1059.64 1508.85 1060.56 1506.34 1059.46 C 1505.41 1052.65 1505.86 1033.73 1505.87 1025.63 L 1505.71 963.383 z"/>
<path transform="translate(0,0)" fill="rgb(199,199,199)" d="M 1540.1 1036.56 L 1554.24 1036.6 C 1554.96 1040.86 1555.56 1044.36 1556.61 1048.57 L 1555.81 1050.82 C 1547.16 1053.16 1523.23 1057.74 1513.87 1059.03 C 1519.76 1055.99 1522.38 1048.54 1531.02 1045.54 C 1536.75 1043.55 1543.99 1044.86 1547.31 1042.97 C 1545.67 1039.52 1543.62 1038.96 1540.1 1036.56 z"/>
<path transform="translate(0,0)" fill="rgb(59,59,60)" d="M 1509.46 1029.85 C 1509.72 1034.01 1508.99 1033.36 1511.25 1035.47 C 1523.86 1037.25 1548.49 1024.35 1554.25 1031.81 C 1554.29 1033.47 1554.4 1034.96 1554.24 1036.6 L 1540.1 1036.56 L 1508.94 1042.73 L 1509.01 1029.83 L 1509.46 1029.85 z"/>
<path transform="translate(0,0)" fill="url(#Gradient11)" d="M 822.862 1205.26 C 822.669 1193.1 820.693 1111.81 822.94 1106.71 L 825.485 1108.31 C 825.248 1125.32 826.124 1142.84 826.06 1159.96 L 825.998 1172.53 C 830.959 1171.38 835.945 1170.34 840.952 1169.4 C 848.516 1173.45 861.222 1166.36 865.344 1170.15 C 861.717 1172.92 856.815 1174.35 856.641 1176.28 C 856.528 1177.55 855.511 1179.19 855.814 1178.58 L 867.081 1176.18 C 871.704 1175.59 871.365 1174.91 875.048 1176.45 C 878.744 1182.27 879.616 1186.9 876.07 1193.21 C 873.68 1194.25 873.721 1194.31 871.16 1194.61 C 855.079 1198.24 838.98 1201.79 822.862 1205.26 z"/>
<path transform="translate(0,0)" fill="rgb(21,20,23)" d="M 840.952 1169.4 C 848.516 1173.45 861.222 1166.36 865.344 1170.15 C 861.717 1172.92 856.815 1174.35 856.641 1176.28 C 856.528 1177.55 855.511 1179.19 855.814 1178.58 C 846.349 1180.24 835.612 1182.85 826.127 1184.93 L 825.998 1172.53 C 830.959 1171.38 835.945 1170.34 840.952 1169.4 z"/>
<path transform="translate(0,0)" fill="rgb(199,199,199)" d="M 867.081 1176.18 C 871.704 1175.59 871.365 1174.91 875.048 1176.45 C 878.744 1182.27 879.616 1186.9 876.07 1193.21 C 873.68 1194.25 873.721 1194.31 871.16 1194.61 C 862.757 1192 857.592 1195.42 853.495 1192.73 C 856.53 1188.42 863.531 1187.79 868.97 1186.55 C 869.921 1184.03 867.987 1179.16 867.081 1176.18 z"/>
<path transform="translate(0,0)" fill="rgb(211,210,211)" d="M 1254.62 1127.83 C 1275.73 1122.27 1297.67 1118.3 1319.1 1113.94 L 1405.1 1095.92 L 1560.26 1063.6 C 1583.11 1058.75 1605.44 1053.12 1628.53 1048.71 C 1631.79 1049.17 1637.13 1049.7 1640.07 1050.67 L 1394.4 1102.44 C 1365.84 1108.31 1337.31 1114.35 1308.82 1120.56 C 1291.86 1124.09 1272.53 1127.54 1255.91 1131.69 C 1255.33 1130.58 1255 1129.08 1254.62 1127.83 z"/>
<path transform="translate(0,0)" fill="rgb(252,252,252)" d="M 1873.61 887.169 L 1877.97 885.615 C 1883.67 891.662 1880.27 955.785 1877.78 966.877 C 1875.72 971.984 1865.84 984.476 1860.04 980.998 C 1858.69 975.354 1862.91 970.118 1862.84 965.327 C 1862.54 943.964 1865.21 912.26 1860.47 892.307 L 1873.61 887.169 z"/>
<path transform="translate(0,0)" fill="rgb(199,199,199)" d="M 1873.61 887.169 L 1877.97 885.615 C 1883.67 891.662 1880.27 955.785 1877.78 966.877 C 1875.87 965.509 1874.77 965.25 1872.51 964.617 C 1870.13 956.376 1873.85 901.772 1873.61 887.169 z"/>
<path transform="translate(0,0)" fill="rgb(252,252,252)" d="M 318.115 1193.6 L 334.204 1202.13 C 336.193 1217.56 337.335 1273.48 334.988 1288.82 C 327.178 1286.48 318.797 1284.04 318.818 1274.63 C 318.878 1247.8 317.924 1220.39 318.115 1193.6 z"/>
<path transform="translate(0,0)" fill="url(#Gradient10)" d="M 936.203 1082.39 L 939.85 1084.34 C 939.923 1101.26 939.69 1119.24 940.169 1136.08 L 950.198 1134.36 C 951.762 1136.5 951.902 1137.16 952.427 1139.77 C 957.676 1142.76 963.213 1136.29 965.141 1142.63 C 957.548 1144.32 948.696 1146.52 941.14 1147.87 C 940.975 1151.13 940.288 1156.98 941.394 1159.74 L 942.651 1160.44 C 953.325 1157.78 977.944 1150.28 987.36 1155.55 C 989.521 1158.1 989.822 1166.56 990.245 1170.42 C 974.635 1172.84 952.932 1178.33 937.068 1181.83 C 936.633 1165.79 937.069 1149.78 936.865 1133.74 C 936.647 1116.59 935.721 1099.53 936.203 1082.39 z"/>
<path transform="translate(0,0)" fill="rgb(131,130,132)" d="M 940.169 1136.08 L 950.198 1134.36 C 951.762 1136.5 951.902 1137.16 952.427 1139.77 C 957.676 1142.76 963.213 1136.29 965.141 1142.63 C 957.548 1144.32 948.696 1146.52 941.14 1147.87 C 940.975 1151.13 940.288 1156.98 941.394 1159.74 L 942.651 1160.44 L 942.132 1160.77 L 940.478 1160.35 C 939.359 1156.28 940.118 1141.22 940.169 1136.08 z"/>
<path transform="translate(0,0)" fill="rgb(252,252,252)" d="M 435.705 1131.2 C 437.817 1131.19 436.785 1130.94 438.672 1132.57 C 438.803 1134.92 438.784 1137.23 438.644 1139.59 L 441.339 1140.6 C 434.377 1147.41 401.139 1152.16 390.542 1154.68 C 373.189 1158.82 353.85 1164.57 336.506 1159.09 C 332.078 1157.8 329.083 1157.35 326.425 1153.92 L 327.277 1152.49 C 335.735 1149.82 357.142 1146.58 366.925 1144.79 C 389.905 1140.54 412.834 1136.01 435.705 1131.2 z"/>
<path transform="translate(0,0)" fill="rgb(252,252,252)" d="M 345.97 1203.04 C 349.594 1202.7 354.862 1202.9 358.626 1202.93 C 361.391 1229.25 361.041 1264.3 360.888 1291.26 L 345.941 1291.2 C 345.381 1261.81 345.39 1232.42 345.97 1203.04 z"/>
<path transform="translate(0,0)" fill="rgb(199,199,199)" d="M 706.995 1208.07 C 709.356 1205 707.301 1203.28 709.791 1198.05 C 709.916 1201.15 709.583 1205.91 711.003 1208.11 C 715.34 1208.07 732.247 1204.96 736.1 1203.35 L 740.478 1202.99 C 746.125 1201.84 750.92 1200.88 756.646 1200.1 C 759.319 1207.04 760.922 1210.68 765.959 1216.6 C 755.816 1219.77 731.885 1224.57 720.929 1226.5 C 717.171 1227.45 711.097 1228.18 707.091 1228.79 C 706.889 1221.59 706.748 1215.27 706.995 1208.07 z"/>
<path transform="translate(0,0)" fill="rgb(252,252,252)" d="M 706.995 1208.07 C 709.356 1205 707.301 1203.28 709.791 1198.05 C 709.916 1201.15 709.583 1205.91 711.003 1208.11 C 715.34 1208.07 732.247 1204.96 736.1 1203.35 L 740.478 1202.99 L 745.47 1203.84 L 745.049 1204.34 L 744.67 1206.29 C 737.487 1214.57 718.839 1216.83 720.929 1226.5 C 717.171 1227.45 711.097 1228.18 707.091 1228.79 C 706.889 1221.59 706.748 1215.27 706.995 1208.07 z"/>
<path transform="translate(0,0)" fill="url(#Gradient9)" d="M 294.004 920.439 C 294.882 920.782 296.582 921.38 297.058 921.951 C 320.641 951.431 345.864 985.487 368.132 1015.55 C 379.032 1030.26 435.779 1098.58 438.56 1110.37 C 438.123 1110.27 437.672 1110.21 437.25 1110.05 C 430.896 1107.74 363.494 1018.64 355.371 1007.65 C 347.674 997.233 341.233 985.853 333.576 975.327 C 320.414 957.235 305.494 939.587 294.004 920.439 z"/>
<path transform="translate(0,0)" fill="url(#Gradient8)" d="M 1432.26 1058.57 C 1437.08 1056.75 1441.09 1056.34 1446.15 1055.51 C 1446.56 1061.17 1447.26 1066.45 1446.01 1072 L 1444.35 1073.91 L 1436.5 1075.97 C 1429.55 1078.03 1399.39 1084.4 1392.91 1084.06 C 1391.48 1081.16 1391.98 1078.44 1392.1 1075.12 C 1395.6 1070.82 1392.8 1069.97 1396.01 1065.87 C 1405.9 1063.1 1415.99 1061.05 1426.18 1059.74 L 1425.91 1058.97 L 1432.26 1058.57 z"/>
<path transform="translate(0,0)" fill="rgb(131,130,132)" d="M 1432.26 1058.57 C 1437.08 1056.75 1441.09 1056.34 1446.15 1055.51 C 1446.56 1061.17 1447.26 1066.45 1446.01 1072 L 1444.35 1073.91 C 1441.51 1071.2 1441.11 1070.84 1438.86 1067.68 C 1434.88 1068.69 1432.43 1068.89 1428.31 1069.33 C 1428.74 1064.56 1428.86 1063.23 1426.18 1059.74 L 1425.91 1058.97 L 1432.26 1058.57 z"/>
<path transform="translate(0,0)" fill="rgb(211,210,211)" d="M 1432.26 1058.57 L 1434.34 1059.58 C 1435.32 1062.94 1436.91 1064.86 1438.86 1067.68 C 1434.88 1068.69 1432.43 1068.89 1428.31 1069.33 C 1428.74 1064.56 1428.86 1063.23 1426.18 1059.74 L 1425.91 1058.97 L 1432.26 1058.57 z"/>
<path transform="translate(0,0)" fill="rgb(199,199,199)" d="M 1438.86 1067.68 C 1441.11 1070.84 1441.51 1071.2 1444.35 1073.91 L 1436.5 1075.97 L 1434.98 1075.62 L 1433.02 1075.2 C 1426.15 1073.66 1417.82 1077.65 1410.6 1074.86 L 1411.5 1073.46 C 1416.9 1070.64 1422.24 1070.29 1428.31 1069.33 C 1432.43 1068.89 1434.88 1068.69 1438.86 1067.68 z"/>
<path transform="translate(0,0)" fill="rgb(252,252,252)" d="M 1654.34 1010.59 C 1664.6 1015.26 1663.61 1016.09 1663.95 1026.98 C 1650.4 1029.22 1630.54 1034.69 1615.58 1037.66 L 1615.95 1017.41 L 1618.98 1017.56 C 1630.67 1014.44 1642.48 1012.95 1654.34 1010.59 z"/>
<path transform="translate(0,0)" fill="rgb(252,252,252)" d="M 302.684 1180.37 C 306.855 1183.28 309.732 1187.84 312.713 1191.97 C 313.48 1206.47 314.849 1259.82 313.025 1271.57 C 308.26 1268.48 306.582 1266.32 302.85 1262.19 C 302.489 1237.78 301.996 1204.54 302.684 1180.37 z"/>
<path transform="translate(0,0)" fill="rgb(252,252,252)" d="M 1392.25 987.294 C 1409.92 982.61 1435.78 977.875 1454.11 973.842 C 1453.33 1005.2 1454.6 1036.83 1453.64 1068.21 C 1453.59 1069.85 1452.87 1070.77 1451.9 1071.94 L 1450.9 1071.11 C 1449.32 1063.67 1450.07 1042.05 1450.12 1033.71 L 1450.06 978.308 C 1433.07 981.792 1412.11 985.515 1395.64 989.95 C 1394.69 1001.68 1395.86 1027.98 1395.85 1041.24 L 1395.31 1052.71 L 1395.73 1055.92 C 1394.91 1059.84 1394.85 1061.88 1396.01 1065.87 C 1392.8 1069.97 1395.6 1070.82 1392.1 1075.12 C 1391.39 1048.1 1391.7 1014.33 1392.25 987.294 z"/>
<path transform="translate(0,0)" fill="rgb(252,252,252)" d="M 316.004 914.441 C 316.814 914.415 319.879 914.257 320.475 914.368 C 343.656 945.246 367.114 975.915 390.846 1006.37 C 403.325 1022.56 438.392 1066.22 444.776 1082.5 C 414.165 1041.81 380.912 1001.41 350.144 961.006 C 338.826 946.524 326.459 929.516 316.004 914.441 z"/>
<path transform="translate(0,0)" fill="rgb(252,252,252)" d="M 706.101 1131.01 C 726.842 1125.72 749.62 1121.54 770.691 1117.58 C 770.935 1131.99 772.736 1207.23 769.668 1215.26 C 767.811 1210.03 766.589 1131.07 767.71 1121.28 C 748.828 1124.64 728.669 1129.06 709.725 1132.86 C 708.74 1143.6 709.99 1172.31 710.188 1184.37 L 710.259 1196.98 L 709.791 1198.05 C 707.301 1203.28 709.356 1205 706.995 1208.07 C 705.452 1184.49 706.001 1154.94 706.101 1131.01 z"/>
<path transform="translate(0,0)" fill="rgb(252,252,252)" d="M 277.377 1148.62 C 281.145 1150.94 283.453 1155.15 285.921 1158.86 C 285.843 1185.76 286.938 1214.37 287.163 1241.61 C 285.522 1240.55 283.886 1239.26 282.509 1237.88 C 274.452 1229.77 277.93 1164.43 277.377 1148.62 z"/>
<path transform="translate(0,0)" fill="rgb(252,252,252)" d="M 1616.06 940.955 C 1630.71 937.718 1657.09 931.148 1671.11 929.344 C 1671.18 943.123 1672.56 1018.46 1669.16 1025.17 C 1666.85 1020.89 1667.94 992.431 1668.01 985.583 L 1668 933.438 C 1651.93 936.373 1635.33 940.207 1619.47 942.849 C 1618.95 959.959 1618.76 977.078 1618.9 994.195 L 1618.98 1007.3 L 1618.98 1017.56 L 1615.95 1017.41 L 1616.06 940.955 z"/>
<path transform="translate(0,0)" fill="rgb(252,252,252)" d="M 1829.2 842.251 L 1830.58 843.405 C 1830.61 853.547 1800.62 855.824 1792.08 857.357 C 1775.4 860.253 1758.77 863.493 1742.22 867.074 C 1739.5 866.141 1740.19 864.854 1740.2 862.583 C 1741.54 860.571 1741.38 859.907 1744.01 859.372 C 1772.05 853.668 1801.55 849.452 1829.2 842.251 z"/>
<path transform="translate(0,0)" fill="rgb(21,20,23)" d="M 710.188 1184.37 C 716.533 1183.93 722.552 1182.52 728.793 1181.26 C 731.527 1185.63 729.734 1185.53 730.348 1191.42 L 727.229 1192.39 L 727.724 1194.33 C 738.747 1196.39 750.681 1191.65 761.484 1191.73 C 762.741 1191.74 763.076 1192.75 763.962 1193.95 L 763.004 1195.23 C 755.418 1195.68 742.126 1195.98 736.107 1200.13 C 735.644 1202.42 735.426 1201.43 736.1 1203.35 C 732.247 1204.96 715.34 1208.07 711.003 1208.11 C 709.583 1205.91 709.916 1201.15 709.791 1198.05 L 710.259 1196.98 L 710.188 1184.37 z"/>
<path transform="translate(0,0)" fill="rgb(131,130,132)" d="M 710.188 1184.37 C 716.533 1183.93 722.552 1182.52 728.793 1181.26 C 731.527 1185.63 729.734 1185.53 730.348 1191.42 L 727.229 1192.39 C 722.055 1193.69 715.145 1195.19 710.259 1196.98 L 710.188 1184.37 z"/>
<path transform="translate(0,0)" fill="url(#Gradient7)" d="M 437.462 1113.72 C 438.531 1115.53 439.919 1118.36 439.993 1120.53 C 440.038 1121.82 439.829 1123.32 438.812 1124.23 C 435.196 1127.46 326.641 1148.57 314.988 1149.34 L 313.177 1148.02 C 316.357 1144.06 416.98 1125.88 431.73 1121.35 C 433.93 1117.84 434.708 1116.86 437.462 1113.72 z"/>
<path transform="translate(0,0)" fill="url(#Gradient6)" d="M 1439.07 1033.34 C 1443.57 1032.91 1442.95 1032.24 1446.12 1034.08 C 1448.55 1042.23 1438.74 1045.69 1432.71 1047.18 L 1425.74 1048.1 C 1416.24 1049.7 1404.75 1051.93 1395.31 1052.71 L 1395.85 1041.24 C 1409.92 1038.48 1424.84 1036.02 1439.07 1033.34 z"/>
<path transform="translate(0,0)" fill="rgb(59,59,60)" d="M 1439.07 1033.34 C 1443.57 1032.91 1442.95 1032.24 1446.12 1034.08 C 1448.55 1042.23 1438.74 1045.69 1432.71 1047.18 L 1434.59 1043.22 C 1435.76 1037.29 1434.94 1038.87 1439.07 1033.34 z"/>
<path transform="translate(0,0)" fill="rgb(98,97,98)" d="M 1425.74 1048.1 C 1425.17 1043.37 1425.31 1040.73 1429.92 1038.68 C 1433.33 1039.83 1432.21 1039.36 1434.59 1043.22 L 1432.71 1047.18 L 1425.74 1048.1 z"/>
<path transform="translate(0,0)" fill="rgb(252,252,252)" d="M 176.822 1013.7 C 177.172 1014.02 177.522 1014.33 177.872 1014.64 C 180.409 1017.19 182.15 1020.42 182.885 1023.95 C 184.588 1031.83 185.123 1092.59 184.459 1101.77 C 181.827 1100.73 182.749 1101.23 180.61 1099.25 C 176.67 1088.9 175.926 1026.69 176.822 1013.7 z"/>
<path transform="translate(0,0)" fill="url(#Gradient5)" d="M 1804.4 1008.01 C 1811.14 1008.04 1823.74 1006.53 1828.11 1009.57 C 1793.49 1017.79 1757.73 1022.75 1723.16 1031.55 C 1719.28 1032.54 1712.99 1034.17 1709.13 1034.62 L 1705.78 1032.41 L 1707.08 1031.8 C 1708.24 1031.58 1708.91 1031.49 1710.1 1031.12 C 1732.3 1024.23 1756.07 1021.48 1778.39 1014.5 C 1786.95 1011.82 1795.58 1009.61 1804.4 1008.01 z"/>
<path transform="translate(0,0)" fill="url(#Gradient4)" d="M 1662.15 986.4 C 1663.73 990.933 1663.82 995.856 1658.76 998.021 C 1646.37 1003.31 1631.93 1003.81 1618.98 1007.3 L 1618.9 994.195 L 1662.15 986.4 z"/>
<path transform="translate(0,0)" fill="rgb(252,252,252)" d="M 183.87 965.739 C 208.278 1006.54 242.652 1046.07 270.826 1084.51 C 277.611 1093.77 308.225 1135.55 315.577 1138.85 L 321.518 1141.58 C 318.149 1141.95 314.854 1141.99 311.76 1140.41 C 304.856 1136.88 198.627 992.688 188.793 977.189 C 186.437 973.476 184.9 970.01 183.87 965.739 z"/>
<path transform="translate(0,0)" fill="rgb(252,252,252)" d="M 885.733 1092.77 C 884.15 1106.64 886.894 1186.82 884.119 1192.13 L 882.683 1192.2 C 880.58 1185.17 882.011 1109.84 882.006 1096.99 C 865.774 1100.49 841.647 1106.34 825.485 1108.31 L 822.94 1106.71 C 842.911 1101.67 865.453 1096.86 885.733 1092.77 z"/>
<path transform="translate(0,0)" fill="url(#Gradient3)" d="M 826.06 1159.96 C 834.37 1158.76 865.039 1151.96 870.234 1152.8 C 871.481 1156.73 872.301 1159.04 870.565 1163.04 L 869.449 1162.89 L 867.979 1155.47 L 867.107 1155.54 C 866.497 1158.15 866.088 1162.91 863.984 1163.56 C 856.984 1165.73 848.01 1167.73 840.952 1169.4 C 835.945 1170.34 830.959 1171.38 825.998 1172.53 L 826.06 1159.96 z"/>
<path transform="translate(0,0)" fill="rgb(252,252,252)" d="M 936.203 1082.39 C 954.43 1078.57 978.743 1072.55 996.509 1069.72 C 996.726 1084.61 998.328 1156.69 995.213 1168.14 L 994.334 1168.18 C 992.963 1161.85 993.7 1151.27 993.86 1144.38 C 994.413 1120.67 993.539 1096.95 993.673 1073.27 C 978.364 1077.22 955.409 1082.19 939.85 1084.34 L 936.203 1082.39 z"/>
<path transform="translate(0,0)" fill="rgb(252,252,252)" d="M 165.045 996.765 C 166.121 998.07 168.854 1002.57 169.907 1004.22 C 170.34 1031.32 170.961 1058.42 171.77 1085.51 C 170.857 1085.06 170.386 1084.96 169.731 1084.21 C 162.639 1076.1 164.52 1010.44 165.045 996.765 z"/>
<path transform="translate(0,0)" fill="rgb(211,210,211)" fill-opacity="0.0156863" d="M 1634.1 801.479 C 1638.07 792.642 1651.03 794.53 1657.24 790.9 C 1664.88 786.427 1660.06 788.834 1661.55 783.177 C 1669 784.103 1669.2 788.993 1674.6 789.086 L 1677.71 785.35 C 1682.08 789.632 1686.7 794.324 1689.67 799.746 C 1681.37 804.458 1671.88 802.281 1662.46 801.252 C 1666.36 800.65 1675.4 800.939 1677.64 797.859 C 1672.28 794.892 1657.05 797.113 1651.03 798.638 C 1646.65 799.324 1637.97 801.169 1634.1 801.479 z"/>
<path transform="translate(0,0)" fill="rgb(98,97,98)" d="M 1508.98 1018.1 C 1524.2 1015.2 1538.31 1013.92 1553.42 1011.56 L 1554.61 1012.69 C 1554.61 1017.23 1554.86 1018.1 1553.17 1022.15 C 1551.08 1023.83 1552.26 1023.37 1549.4 1023.13 L 1547.85 1022.04 C 1547.74 1019.66 1547.7 1017.28 1547.72 1014.9 L 1546.65 1014.08 C 1542.37 1016.09 1541.09 1016.61 1537.37 1019.38 C 1539.57 1021.1 1541.76 1021.21 1544.7 1021.92 L 1544.69 1021.91 C 1542.04 1024.17 1515.85 1027.97 1509.46 1029.85 L 1509.01 1029.83 L 1508.98 1018.1 z"/>
<path transform="translate(0,0)" fill="rgb(252,252,252)" d="M 189.406 1029.74 C 192.445 1032.24 195.325 1038.03 197.323 1041.58 C 196.838 1053.69 198.97 1087.19 195.653 1095.2 L 192.995 1096.32 L 191.642 1095.75 C 188.672 1081.3 190.706 1047.19 189.406 1029.74 z"/>
<path transform="translate(0,0)" fill="rgb(252,252,252)" d="M 291.99 1165.69 C 294.173 1167.43 296.913 1171.09 297.102 1173.88 C 298.866 1199.95 298.516 1228.45 297.649 1254.54 C 295.373 1252.89 293.662 1251.78 293.451 1248.55 C 291.654 1221.07 294.28 1193.19 291.99 1165.69 z"/>
<path transform="translate(0,0)" fill="url(#Gradient2)" d="M 985.602 1127.34 L 987.949 1127.11 C 990.493 1130.52 989.851 1137.5 989.141 1141.54 C 984.156 1140.71 981.818 1140.79 976.722 1140.85 L 965.141 1142.63 C 963.213 1136.29 957.676 1142.76 952.427 1139.77 C 951.902 1137.16 951.762 1136.5 950.198 1134.36 C 959.247 1132.09 968.988 1130.25 978.164 1128.36 C 979.302 1127.9 984.086 1127.51 985.602 1127.34 z"/>
<path transform="translate(0,0)" fill="rgb(21,20,23)" d="M 985.602 1127.34 L 987.949 1127.11 C 990.493 1130.52 989.851 1137.5 989.141 1141.54 C 984.156 1140.71 981.818 1140.79 976.722 1140.85 C 980.264 1136.67 981.487 1135.29 980.575 1129.72 L 978.164 1128.36 C 979.302 1127.9 984.086 1127.51 985.602 1127.34 z"/>
<path transform="translate(0,0)" fill="rgb(59,59,60)" d="M 985.602 1127.34 L 987.949 1127.11 C 990.493 1130.52 989.851 1137.5 989.141 1141.54 L 985.624 1139.68 C 984.088 1135.52 985.054 1131.86 985.602 1127.34 z"/>
<path transform="translate(0,0)" fill="url(#Gradient1)" d="M 748.281 1177.4 C 752.22 1176.38 756.067 1174.83 759.854 1175.93 C 762.822 1178.72 761.954 1177.1 762.915 1180.74 C 761.14 1186.96 757.928 1186.9 752.188 1187.11 L 730.348 1191.42 C 729.734 1185.53 731.527 1185.63 728.793 1181.26 L 748.281 1177.4 z"/>
<path transform="translate(0,0)" fill="rgb(59,59,60)" d="M 748.281 1177.4 C 752.22 1176.38 756.067 1174.83 759.854 1175.93 C 762.822 1178.72 761.954 1177.1 762.915 1180.74 C 761.14 1186.96 757.928 1186.9 752.188 1187.11 C 750.718 1184.4 750.294 1184.13 747.699 1182.45 C 749.828 1180.57 749.221 1181.75 750.004 1179.16 L 748.281 1177.4 z"/>
<path transform="translate(0,0)" fill="rgb(252,252,252)" d="M 153.957 984.579 C 154.254 984.815 154.58 985.019 154.848 985.288 C 160.072 990.537 159.826 1058.81 160.883 1071.37 C 152.427 1064.58 153.815 998.464 153.957 984.579 z"/>
<path transform="translate(0,0)" fill="rgb(21,20,23)" d="M 1395.73 1055.92 C 1403.47 1059.32 1443.77 1046.38 1445.36 1047.04 C 1445.97 1047.3 1446.17 1048.1 1446.57 1048.62 C 1445.37 1051.38 1431.82 1053.8 1427.19 1055.83 L 1427.02 1057.71 L 1423.92 1057.61 L 1423.15 1058.34 L 1425.91 1058.97 L 1426.18 1059.74 C 1415.99 1061.05 1405.9 1063.1 1396.01 1065.87 C 1394.85 1061.88 1394.91 1059.84 1395.73 1055.92 z"/>
<path transform="translate(0,0)" fill="rgb(252,252,252)" d="M 431.707 1150.21 L 434.774 1150.26 L 434.299 1151.49 C 422.815 1156.05 373.79 1166.3 361.769 1165.91 C 358.435 1165.45 357.275 1165.47 354.187 1163.96 C 355.677 1162.54 366.534 1163.05 370.414 1162.42 C 390.762 1159.11 411.569 1154.53 431.707 1150.21 z"/>
<path transform="translate(0,0)" fill="rgb(199,199,199)" d="M 1628.53 1048.71 C 1641.78 1046.2 1659.51 1041.5 1673.57 1038.44 L 1672.85 1040.55 C 1675.82 1040.81 1678.5 1040.68 1681.18 1040.91 C 1674.29 1042.6 1646.08 1050.06 1640.07 1050.67 C 1637.13 1049.7 1631.79 1049.17 1628.53 1048.71 z"/>
<path transform="translate(0,0)" fill="rgb(199,199,199)" d="M 1824.17 838.352 C 1825.27 838.294 1824.58 838.258 1826.19 838.775 C 1820.39 842.485 1753.84 854.517 1744.25 855.612 L 1743.4 855.732 L 1742.66 854.926 C 1746.67 853.306 1751.38 852.622 1755.65 851.834 C 1778.48 847.63 1801.28 842.097 1824.17 838.352 z"/>
<path transform="translate(0,0)" fill="rgb(252,252,252)" d="M 340.417 1212.83 C 344.083 1217.24 342.312 1274.98 341.702 1284.31 L 340.979 1284.45 C 339.184 1281.39 340.11 1220.67 340.417 1212.83 z"/>
<path transform="translate(0,0)" fill="rgb(252,252,252)" d="M 448.9 1088.58 C 453.907 1097.64 456.118 1118.45 453.19 1128.39 L 450.597 1129.8 C 449.226 1126.71 448.208 1121.9 447.329 1118.49 C 451.909 1104.39 449.505 1102.9 448.9 1088.58 z"/>
<path transform="translate(0,0)" fill="rgb(252,252,252)" d="M 1718.54 835.604 C 1727.67 843.089 1728.02 861.262 1725.82 871.868 L 1721.41 871.335 C 1722.67 858.011 1721.87 848.355 1718.54 835.604 z"/>
<path transform="translate(0,0)" fill="rgb(211,210,211)" d="M 1673.57 1038.44 C 1682.97 1035.5 1695.81 1033.9 1705.78 1032.41 L 1709.13 1034.62 C 1703.14 1036.19 1686.64 1040.53 1681.18 1040.91 C 1678.5 1040.68 1675.82 1040.81 1672.85 1040.55 L 1673.57 1038.44 z"/>
<path transform="translate(0,0)" fill="rgb(98,97,98)" d="M 876.147 1148.72 L 877.259 1149.86 C 877.541 1154.72 878.101 1166.05 875.474 1169.88 C 873.642 1165.69 873.653 1152.51 876.147 1148.72 z"/>
<path transform="translate(0,0)" fill="rgb(98,97,98)" fill-opacity="0.988235" d="M 1655.47 648.497 C 1660.03 647.84 1663.48 647.205 1667.54 649.483 C 1662.55 650.414 1659.98 650.427 1655.47 648.497 z"/>
<path transform="translate(0,0)" fill="rgb(0,0,0)" d="M 410.177 1331.29 C 414.272 1331.02 417.888 1331.85 421.546 1333.63 L 420.749 1335.79 C 416.124 1340.06 385.487 1344.3 377.672 1345.69 L 314.552 1356.74 C 294.734 1360.04 273.486 1364.94 253.417 1368.73 C 246.621 1366.52 243.397 1368.94 240.619 1367.65 L 240.521 1365.75 C 255.84 1351.78 383.41 1336.8 410.177 1331.29 z"/>
<path transform="translate(0,0)" fill="rgb(0,0,0)" d="M 1850.09 1057.3 L 1854.17 1057.18 L 1854.66 1058.04 C 1841.56 1068.55 1830.12 1066.63 1815.08 1070.06 C 1771.51 1079.96 1729.37 1088.63 1685.14 1095.06 C 1683.13 1094.8 1684.16 1095.12 1682.1 1093.88 C 1690.47 1085.11 1793.7 1065.28 1810.83 1062.97 C 1815.2 1062.96 1823.08 1058.1 1826.64 1058.05 C 1835.69 1057.92 1840.94 1059.3 1850.09 1057.3 z"/>
<path transform="translate(0,0)" fill="rgb(0,0,0)" d="M 447.971 1341.48 C 449.705 1341.31 451.442 1341.17 453.181 1341.07 C 456.655 1340.89 458.812 1340.91 461.444 1343.28 L 460.822 1344.94 C 450.71 1351.9 421.343 1355.6 408.179 1358.16 C 384.18 1362.91 360.21 1367.81 336.273 1372.86 C 332.754 1372.95 328.143 1373.24 324.824 1372.54 C 326.237 1370.48 327.671 1368.44 328.834 1366.22 C 346.886 1358.36 369.485 1357.36 388.794 1353.36 C 404.839 1350.03 432.616 1340.8 447.971 1341.48 z"/>
<path transform="translate(0,0)" fill="rgb(0,0,0)" d="M 247.735 1311.2 C 252.393 1310.46 273.85 1310.06 276.747 1312.76 L 275.73 1314.43 C 263.525 1320.43 222.842 1325.9 207.221 1329.09 C 199.96 1330.73 185.463 1329.08 175.326 1329.8 C 193.307 1320.77 227.136 1314.6 247.735 1311.2 z"/>
</svg>