<?xml version="1.0" encoding="UTF-8"?><svg id="Layer_2" xmlns="http://www.w3.org/2000/svg" viewBox="0 0 869.5 641.25"><g id="Layer_1-2"><path d="M180.76,169.96c-10.44,9.34-23.35,23.08-36.23,28.26-7.97,3.21-20.94-2.6-23.28-11.7-.87-3.29-.36-6.78,1.42-9.69,4.34-7.1,11.87-7.69,18.42-8.22-.81.07,10.32-4.83,9.76-4.45-2.45-.32-4.89-.69-7.29-1.25-15.6-3.65-31.33-6.57-47.06-9.64l-49.07-9.63c-13.38-2.55-36.15-3.16-43.03-15.7-6.64-12.1-6.14-24.67,4.18-34.45,7.09-6.71,14.11-12.78,21.47-19.12l37.07-31.91c14.22-12.24,30.54-27.23,45.59-38.17,7.96-5.79,20.03-4.46,29.67-3.18,16.87,2.24,34.51,5.7,51.46,8.68,27.28,4.8,54.59,9.45,81.93,13.94,103.84,16.78,207.6,34.09,311.26,51.93l175.88,28.46c27.39,4.38,55.78,9.13,83.21,13.75,7.91,1.33,15.16,5.03,19.3,12.18,4.96,10.7,5.39,26.97,1.45,38.09-2.71,7.61-7.05,12.7-12.05,18.8-.66,6.75-.8,12.92-3.85,19.14-4.06,8.28-46.39,60.07-54.02,66.3-7.91,6.45-13.71,8.14-23.82,6.99-11.04-1.26-22.14-3.67-33.08-5.6-22.87-4.04-45.7-8.27-68.49-12.71-5.83-.3-18.87-3.2-24.89-4.41-12.43-2.55-24.89-4.95-37.38-7.19-11.61,11.45-31.82,37.24-50.92,29.78-7.83-3.06-9.7-10.09-12.31-17.25-11.9,6.36-36.86,24.52-49.71,33.13-28.64,19.19-59.35,38.2-87.37,57.84,12.27,10.79,27.26,27.05,38.93,38.95l56.71,57.27c29.4,30.01,61.02,59.35,90.33,89.03,7.21-8,50.23-52.93,56.75-55.33,4.09-1.5,8.39-1.69,12.38.33,5.75,2.92,8.03,8.04,9.84,13.87-2.01,6.86-3.05,7.83-7.84,13.05-10.21,11.1-24.76,17.17-35.34,26.46-11.18,9.82-22.48,22.2-33.38,32.69-10,9.61-19.77,19.8-30.19,29.16-5.05,4.52-8.57,15.83-11.51,18.55-7.66,7.08-21.19,23.19-31.7,24.21-4.07.4-10.37-2.14-13.27-4.73-3.21-2.87-5.64-7.64-5.72-11.99-.05-2.71,1.22-7.04,3.16-9.26,7.13-8.18,17.08-16.65,25.63-23.38,2.07-1.63,7.43-2.54,9.49-4.53,7.39-7.13,14.82-14.38,22.17-21.51-10.8-12.39-23.22-24.26-34.9-35.89l-40.57-40.91c-37.69-38.44-74.84-77.42-111.43-116.91l-186.61,131.57c-13.85,9.91-36.3,40.52-52.91,36.55-5.07-1.25-9.43-4.47-12.11-8.95-7.45-12.64,4.18-18.02,13.08-22.51,15.77-7.95,29.17-20.11,43.2-30.63,23.2-17.41,46.64-34.55,69.36-52.59,6.39-5.07,14.63-11.91,21.77-15.6,2.73,1.49,5.81,3.47,8.5,5.11l82.03-56.46c-10.43-13.41-32.77-35.75-44.97-49.04l-82.8-91.14c-8.63-9.48-34.21-36.28-39.65-45.14-4.46-1.19-11.91-2.41-16.61-3.28ZM396.4,339.83c9.82-7.58,20.03-13.31,29.88-20.43,19.88-14.35,42.9-26.88,62.46-41.25,20.02-12.86,41.92-26.5,61.52-39.84l-225.08-41.73c-26.5-4.87-53.3-10.23-79.78-14.86,14.6,14.44,29.11,30.57,43.39,45.48,23.4,24.03,46.61,48.25,69.61,72.66,7.13,7.67,14.38,15.24,21.74,22.69,4.49,4.54,12.74,12.35,16.25,17.28Z" fill="#181718"/><path d="M180.76,169.96c-10.44,9.34-23.35,23.08-36.23,28.26-7.97,3.21-20.94-2.6-23.28-11.7-.87-3.29-.36-6.78,1.42-9.69,4.34-7.1,11.87-7.69,18.42-8.22-.81.07,10.32-4.83,9.76-4.45-2.45-.32-4.89-.69-7.29-1.25-15.6-3.65-31.33-6.57-47.06-9.64l-49.07-9.63c-13.38-2.55-36.15-3.16-43.03-15.7-6.64-12.1-6.14-24.67,4.18-34.45,7.09-6.71,14.11-12.78,21.47-19.12l37.07-31.91c14.22-12.24,30.54-27.23,45.59-38.17,7.96-5.79,20.03-4.46,29.67-3.18,16.87,2.24,34.51,5.7,51.46,8.68,27.28,4.8,54.59,9.45,81.93,13.94,103.84,16.78,207.6,34.09,311.26,51.93l175.88,28.46c27.39,4.38,55.78,9.13,83.21,13.75,7.91,1.33,15.16,5.03,19.3,12.18l-2.25.17c-1.22-1.05-2.04-1.85-3.17-3-3.64-2.46-12.27-6.83-16.53-5.54l-.61-.72c-5.72-1.35-15.11-2.48-21.24-3.49l-41.98-7.04-137.45-22.15-310.67-51.68L196.9,13.94c-22.57-3.89-48.81-9.61-71.85-10.83-9.15-.48-24.6,14.61-32.28,21.19l-31.35,26.95-34.64,29.92c-5.78,5.04-15.72,13.46-20.73,18.98l-1.02,2.02c-4.88,10.03-1.43,27.73,8.8,31.14,11.72,3.91,30.41,6.41,42.94,8.86,38.08,7.69,76.21,15.13,114.38,22.31l500.76,93.71-.38,2.85c-5.83-.3-18.87-3.2-24.89-4.41-12.43-2.55-24.89-4.95-37.38-7.19-11.61,11.45-31.82,37.24-50.92,29.78-7.83-3.06-9.7-10.09-12.31-17.25-11.9,6.36-36.86,24.52-49.71,33.13-28.64,19.19-59.35,38.2-87.37,57.84,12.27,10.79,27.26,27.05,38.93,38.95l56.71,57.27c29.4,30.01,61.02,59.35,90.33,89.03,7.21-8,50.23-52.93,56.75-55.33,4.09-1.5,8.39-1.69,12.38.33,5.75,2.92,8.03,8.04,9.84,13.87-2.01,6.86-3.05,7.83-7.84,13.05-10.21,11.1-24.76,17.17-35.34,26.46-11.18,9.82-22.48,22.2-33.38,32.69-10,9.61-19.77,19.8-30.19,29.16-5.05,4.52-8.57,15.83-11.51,18.55-7.66,7.08-21.19,23.19-31.7,24.21-4.07.4-10.37-2.14-13.27-4.73-3.21-2.87-5.64-7.64-5.72-11.99-.05-2.71,1.22-7.04,3.16-9.26,7.13-8.18,17.08-16.65,25.63-23.38,2.07-1.63,7.43-2.54,9.49-4.53,7.39-7.13,14.82-14.38,22.17-21.51-10.8-12.39-23.22-24.26-34.9-35.89l-40.57-40.91c-37.69-38.44-74.84-77.42-111.43-116.91l-186.61,131.57c-13.85,9.91-36.3,40.52-52.91,36.55-5.07-1.25-9.43-4.47-12.11-8.95-7.45-12.64,4.18-18.02,13.08-22.51,15.77-7.95,29.17-20.11,43.2-30.63,23.2-17.41,46.64-34.55,69.36-52.59,6.39-5.07,14.63-11.91,21.77-15.6,2.73,1.49,5.81,3.47,8.5,5.11l82.03-56.46c-10.43-13.41-32.77-35.75-44.97-49.04l-82.8-91.14c-8.63-9.48-34.21-36.28-39.65-45.14-4.46-1.19-11.91-2.41-16.61-3.28ZM396.4,339.83c9.82-7.58,20.03-13.31,29.88-20.43,19.88-14.35,42.9-26.88,62.46-41.25,20.02-12.86,41.92-26.5,61.52-39.84l-225.08-41.73c-26.5-4.87-53.3-10.23-79.78-14.86,14.6,14.44,29.11,30.57,43.39,45.48,23.4,24.03,46.61,48.25,69.61,72.66,7.13,7.67,14.38,15.24,21.74,22.69,4.49,4.54,12.74,12.35,16.25,17.28Z"/><path d="M221.57,177.39c7.11,1.46,13.3,2.79,20.3,4.69,29.12,33.08,63.86,66.28,94.33,98.69,54.95,58.39,110.95,115.77,168,172.12,27.5,27.49,59.65,61.1,87.89,87.12l-5.78,6.11-5.29,5.1c-82.6-82.07-163.83-165.51-243.65-250.28l-62.01-65.44c-16.68-17.42-38.59-39.8-53.79-58.1Z" fill="#fefefe"/><path d="M218.12,178.57c117.94,127.15,238.24,252.08,360.84,374.73-3.56,3.49-7.46,7.18-10.88,10.78-11.36-12.84-25.75-26.59-38-38.89-22.05-21.9-43.85-44.03-65.42-66.41-85.59-89.15-169.65-179.76-252.14-271.8.52-5.58,1.12-5.35,5.59-8.42Z" fill="#fefefe"/><path d="M367.02,360.23c2.48,2.53,6.69,6.51,7.96,9.65-5.77,5.7-38.27,27.07-46.79,33-33.93,23.68-67.69,47.59-101.3,71.73-12.42,8.91-38.25,26.39-48.98,35.88l-2.61-6c-1.39-1.69-4.01-4.01-5.67-5.58,7.36-4.55,18.83-13.73,26.37-19.11l52.55-36.79,70.68-49.64c16.21-11.17,32.09-21.18,47.8-33.14Z" fill="#fefefe"/><path d="M175.29,504.49c5.24-2.34,30.99-20.88,37.62-25.48l107.84-75.94c8.03-5.56,46.96-35.55,54.23-33.19-5.77,5.7-38.27,27.07-46.79,33-33.93,23.68-67.69,47.59-101.3,71.73-12.42,8.91-38.25,26.39-48.98,35.88l-2.61-6Z" fill="#e4e3e4"/><path d="M546.13,588.42c18.77-17.25,37.16-34.89,55.16-52.92,10.01-10.01,20.02-20.73,30.59-30.09,5.66-5.01,13.61,1.64,16.91,6.53-.01,2.38.09,8.73-2.21,9.9-17.36,8.85-28.9,22.65-42.59,36.34l-43.6,43.35c-1-2.02-2.01-4.27-3.31-6.07-3.68-3.7-6.29-4.93-10.95-7.04Z" fill="#fefefe"/><path d="M648.79,511.93c-.01,2.38.09,8.73-2.21,9.9-17.36,8.85-28.9,22.65-42.59,36.34l-43.6,43.35c-1-2.02-2.01-4.27-3.31-6.07,29.38-25.11,54.13-54.61,83.5-79.63,2.54-2.16,5-3.18,8.2-3.9Z" fill="#e4e3e4"/><path d="M555.43,239.24c4.91.63,8.5,1.54,13.26,2.7-53.25,36.7-105.91,70.84-159.45,106.72-.97.85-.95.75-2.25.97-2.85-1.54-6.23-5.48-8.59-7.96,16.21-11.31,33.55-22.29,50.11-33.24,35.38-23.45,71.03-46.52,106.91-69.2Z" fill="#fefefe"/><path d="M273.36,413.8c2.31-.17,4.25,1.21,5.9,2.61l.09,1.17c-7.24,5.91-18.38,13.33-26.27,18.88-17.11,12.08-34.3,24.06-51.56,35.93-10.35,7.22-22.9,15.89-32.23,24.15l-.93.94-2.02-.05-.89-1.1c.97-3.08,51.12-39.61,58.11-44.68,15.26-11.08,34.22-27.1,49.8-37.86Z" fill="#fefefe"/><path d="M523.2,605.09c8.37-8.72,10-10.88,21.29-14.91,1.86.79,3.66,1.7,5.39,2.73,4.62,2.78,6.64,5.76,7.94,10.86-1,12-8.34,14.79-16.25,23.02-.46-4.25-.73-7.73-1.88-11.88-4.26-7.02-8.62-8.7-16.48-9.82Z" fill="#fefefe"/><path d="M557.82,603.76c-1,12-8.34,14.79-16.25,23.02-.46-4.25-.73-7.73-1.88-11.88,7.53-2.32,9.42-8.82,18.13-11.15Z" fill="#e4e3e4"/><path d="M517.91,611.96c16.73,2.43,25.68,18.5,7.93,25.93-17.64-.04-26.75-17.88-7.93-25.93Z" fill="#fefefe"/><path d="M639.93,496.48c9.41-9.74,17.95-18.33,29.48-4.41,2.18,11.8-6.03,16.69-14.02,24.13-.2-5.57-.23-5.9-1.79-11.02-4.7-5.56-6.65-6.03-13.67-8.69Z" fill="#fefefe"/><path d="M669.42,492.07c2.18,11.8-6.03,16.69-14.02,24.13-.2-5.57-.23-5.9-1.79-11.02,8.62-4.11,9.39-5.92,15.81-13.1Z" fill="#e4e3e4"/><path d="M132.98,534.14c-.28-.32-.55-.65-.82-.98-2.57-3.19-4.47-6.71-3.86-10.94.36-2.49,1.75-4.71,3.84-6.11,7.77-5.29,16.48-.23,21.11,6.57,4.04,15.22-10.29,19.4-20.27,11.47Z" fill="#fefefe"/><path d="M153.25,522.67c4.04,15.22-10.29,19.4-20.27,11.47,14.05-4.93,9.59,4.12,20.27-11.47Z" fill="#e4e3e4"/><path d="M556.31,255c18.55-.96,24.77,19.13,11.22,23.03-12.8.01-26.47-15.02-11.22-23.03Z" fill="#fefefe"/><path d="M162.43,498.91l.49.23c6.89,3.34,7.59,3.58,11.73,10.23,2.12,8.38-8.72,14.36-14.76,19.07.27-4.24.17-5.42-1.32-9.61-4.25-6.31-6.91-7.51-13.82-10.21,5.47-2.59,12.29-6.66,17.69-9.71Z" fill="#fefefe"/><path d="M174.64,509.36c2.12,8.38-8.72,14.36-14.76,19.07.27-4.24.17-5.42-1.32-9.61,4.68-1.17,12.02-6.55,16.09-9.46Z" fill="#d3d3d3"/><path d="M131.03,194.04c-4.33-2.55-8.62-6.62-7.71-12.16.38-2.38,1.74-4.5,3.75-5.83,7.52-4.98,14.05,1.35,17.6,7.61,2.68,12.37-3.18,14.61-13.65,10.38Z" fill="#fefefe"/><path d="M144.67,183.66c2.68,12.37-3.18,14.61-13.65,10.38,5.27-4.4,6.63-2.78,13.65-10.38Z" fill="#e4e3e4"/><path d="M579.17,254.69c4.96-3.16,8.66-9.38,14.36-8.45,2.8,1.89,3.22,2.88,4.89,5.7.37,2.1,1.12,4.09-.12,5.82-3.15,4.41-11.68,11.2-16.7,12.42-.9-1.72-.5-1.77-.25-4.14-.18-4.87-.79-6.6-2.18-11.34Z" fill="#fefefe"/><path d="M598.42,251.93c.37,2.1,1.12,4.09-.12,5.82-3.15,4.41-11.68,11.2-16.7,12.42-.9-1.72-.5-1.77-.25-4.14,3.26-1.08,7.25-7.46,10.23-9.88,2.38-1.93,4.14-2.79,6.85-4.22Z" fill="#d3d3d3"/><path d="M561.52,250.58l.57-.08c16.3-2.21,22.31,14.55,13.75,24.89-.96-1.96.86-9.08-.84-13.19-2.99-7.23-8.02-6.8-14.27-9.99l.79-1.62Z" fill="#fefefe"/><path d="M152.11,183.7l-.61-3.52c1.73-3,6.13-7.63,9.84-7.24l.8,2.26c.75,2.63,1.12,3.41.59,6.05-2.03,3.62-6.04,5.87-9.53,8.45-.29-1.92-.53-4.2-1.09-6.01Z" fill="#d3d3d3"/><path d="M152.11,183.7l-.61-3.52c1.73-3,6.13-7.63,9.84-7.24l.8,2.26c-.93,3.68-6.2,6.03-10.03,8.49Z" fill="#fefefe"/><path d="M520.45,607.14c14.57-.68,23.71,11.07,16.71,24.24.02-1.61.07-3.65-.08-5.18-1.54-15.44-13.94-13.59-17.66-16.86l1.03-2.2Z" fill="#fefefe"/><path d="M155.87,165.25c6.02.67,15.71,2.71,22.12,3.75l-9.2,7.63c-1.1,1.48-1.56,2.48-3.29,3.03-2.59-2.46-2.67-4.85-2.91-8.26l2.85-2.93c-4.2-1.71-4.56.84-9.57-3.23Z" fill="#e4e3e4"/><path d="M135.41,171c6.02-.12,11.36,5.5,15.03,9.63.77,5.48,1.34,8.04-.75,13.19l-2.14.53c-1.35-2.08-.1-9.07-1.14-11.62-1.41-3.45-6.38-8.27-9.74-9.95-1.05-.53-.56-.25-1.26-1.77Z" fill="#e4e3e4"/><path d="M212.53,186.98c-4.34-4.65-7.11-7.94-10.99-12.98,6.81.79,11.14.38,16.58,4.57-4.47,3.07-5.07,2.84-5.59,8.42Z" fill="#d3d3d3"/><path d="M637.86,498.7c10.25.92,19.55,8.81,13.87,19.56l-.56-.46c.06-11.61-5.84-14.1-15.63-16.19l-.29-.79,2.61-2.12Z" fill="#e4e3e4"/><path d="M576.94,244.04c2.98.11,7.26,1.57,10.25,2.45l-6.97,5.42-1,.9c-2.54.37-4.93-1.7-6.12-3.75.44-2.83,1.24-2.68,3.83-5.01Z" fill="#fefefe"/><path d="M156.68,169.06l2.34.52.25.95c-1.88,2.87-6.08,5.25-9.08,7.09-.59-.58-1.18-1.16-1.76-1.74-2.12-2.16-2.26-1.97-2.24-4.33,2.73-2.74,6.55-2.35,10.49-2.49Z" fill="#fefefe"/><path d="M141.18,510.85c10.94-.8,19.87,9.08,16.2,20.35l-1.01-.28c-1.33-16.08-4.24-12.47-15.19-20.08Z" fill="#e4e3e4"/><path d="M6.05,100.17c5.01-5.52,14.95-13.95,20.73-18.98l34.64-29.92,31.35-26.95c7.67-6.59,23.12-21.68,32.28-21.19,23.04,1.22,49.28,6.93,71.85,10.83l134.59,22.66,310.67,51.68,137.45,22.15,41.98,7.04c6.13,1.01,15.52,2.14,21.24,3.49-11.13,13.46-21.99,30.77-31.76,45.59-6.59-1.81-29.24-5.12-37.17-6.51l-81.16-14.25-260.88-45.74-232.51-40.29-60.81-10.31c-14.07-2.53-33.91-6.67-47.87-7.86,13.35-13.06,29.61-23.72,44.4-38.26-14.69,8.36-27.05,19.64-39.58,30.96-5.46,4.93-29.72,24.19-31.78,28.52,1.65-.4,11.93-9.33,14.11-11.13,1.12,2.76.79,2.62,3.79,3.74-.98,1.72-47.6,40.25-53.53,46.7,1.45,5.8,7.51,20.39,6.39,24l-1.12,1.39c-3.16-3.66-7.15-15.93-9.01-21.12-5.78-1.61-13.33-2.97-19.33-4.2l1.02-2.02Z" fill="#fefefe"/><path d="M6.05,100.17c6.67,1.62,13.97,2.94,20.38,4.59,1.63,8.31,5.5,15.75,6.95,22.75-3.16-3.66-7.15-15.93-9.01-21.12-5.78-1.61-13.33-2.97-19.33-4.2l1.02-2.02Z" fill="#0c0c0c"/><path d="M364.86,53.05c5.97-.43,23.87,2.79,30.64,3.92,17.79,2.96,35.56,6.05,53.31,9.29-5.84,8.08-14.78,18-21.4,25.76-2.54.14-20.77-3.26-24.08-3.83l-59.25-10.13c3.22-5.67,16.04-20.24,20.78-25.01Z" fill="#0c0c0c"/><path d="M365.74,54.41c26.46,3.79,53.71,8.69,80.09,13.21-6.28,7.69-12.69,15.28-19.23,22.75-24.91-5.03-54.52-9.92-79.57-13.75,5.66-7.92,12.15-15.04,18.71-22.21Z" fill="#fefefe"/><path d="M502.56,76.28c10.23-.58,12.2,3.56,11.85,12.54-3.87,4.33-5.17,5.36-10.44,7.67-3.58.96-7.58,1.51-10.7-.87-3.61-7.41,4.46-14.65,9.29-19.34Z"/><path d="M503.68,78.14c3.73.32,4.19.24,6.41,2.56,2.35,6.46-3.31,11.77-8.55,14.47-2.61-.44-2.78-.39-4.84-1.95-1.12-4.65,4.87-9.95,6.97-15.08Z" fill="#fefefe"/><path d="M529.86,81.5c1.29-.14.55,1.62.36,2.68-.4,2.27-3.59,11.26-1.68,12.75,1.61.27,3.24-1.19,4.73-1.91,4.36-2.64,10.61-6.09,14.89-9.11,1.08-.61,2.26-1.87,3.39-1.68.26.14.35.55.26,1.19-.2,1.41-1.18,3.36-2.11,4.68-3.87,6.81-26.28,18.55-33.46,13.44-7.91-6.75,7.73-20.14,13.57-22.03h.06Z"/><path d="M557.31,90.25c5.58-.35,30.77-2.73,17.62,6.28-3.14,2.26-6.33,4.12-8.21,7.25-.94,1.52-1.4,3.23-2.5,4.61-3.55,3.91-12.39,3.15-13.83-2.72-.38-1.33-.35-2.78-.33-4.15.11-3.67-.67-6-2.49-7.64-.83-.84-2.2-1.84-.14-2.33,2.84-.67,5.19-.86,9.62-1.29l.26-.02Z"/><path d="M307.36,47.53l1.94.35.4.98c-.97,1.08-1.63,1.57-1.92,2.99l1.18.23c1.54-1.32,3.09-2.64,4.65-3.94l.73.4-.63,2.25c1.75-.42,2.68-1.01,4.25-1.83,1.66,1.55,1.31,2.05,1.84,4.61l1.31-.4c1.35-2.26,1.59-3.48,4.31-3,.28,1.28.26,1.35.85,2.51,1.91-1.76,1.1-1.49,3.4-1.92,3.66,2.27,3.82,1.27,8.09,1.91l-.42,1.1c-3.8,1.49-3.82,1.91-6.82,4.26-2.01-1.08.82-2.15-.54-5.41-2.73.34-1.38,3.52-5.15,4.17-3.46-4.39-14.27-.76-19.46-4.53-.27-2.44.28-2.29,2.01-4.73Z"/><path d="M629.78,118.5c4.15-.69,11.18.42,15.76,1.85,15.25,4.17,3.86,7.82-5.78,5.98-3.69-.52-7.22-1.46-9.46-2.81-2.39-1.23-5.06-4.33-.68-5l.16-.03Z" fill="#0c0c0c"/><path d="M316.19,62.54c4.71,3.89,5.49,1.01,10.12,3.48l.07,1.06-3.37,3.08-.6-1.43c-2.6-.06-7.62-.03-9.42-1.58.34-2.26,1.38-2.68,3.2-4.61Z" fill="#0c0c0c"/><path d="M639.15,103.8l1.64.48c.7,1.01.86,1.27,1.31,2.37l.39.93c.9-.39,1.72-.88,2.56-1.41l.44.78c-1.31,2.54-1.5,3.06-3.77,4.76l-.88-.68c-1.67-.72-4.17-.53-6.9-1.48.45-2.05,3.46-4.21,5.21-5.74Z"/><path d="M597.55,103.08c-2.53.56-5.7-.06-7.87-1.34-1.09-.79-.2-2.14.55-2.88,1.99-2.12,7.38-4.01,9.58-.96,1.16,1.85-.08,4.53-2.1,5.13l-.16.05Z"/><path d="M600.34,98.19l3.2.55c2.02-.83,1.14-.92,2.76-.24-1.21,2.36-1.7,2.87-3.46,4.88,1.07.85,2.62.61,4.11.62l-.52,1.27c-2.15.69-5.68.13-7.55-1l-1.82-.29c1.04-2.99,1.18-3.46,3.27-5.8Z"/><path d="M600.34,98.19l3.2.55-4.66,5.53-1.82-.29c1.04-2.99,1.18-3.46,3.27-5.8Z" fill="#e4e3e4"/><path d="M267.71,45.14l-1.86.77-.53-.72c2.43-6.06,7.35-4.3,12.06-2.45-2.21,1.53-4.12,3.24-6.69,3.51.2-1.66.31-1.76.92-3.26-2.05.73-2.16.81-3.9,2.16Z" fill="#0c0c0c"/><path d="M299.22,46.38c2.53-.32,3.52-.68,5.83.29l-.07,1.34-2.97,2.65-.06,1.22c-2.99.64-2.22.94-4.57-.06-.74-2.54.3-3.23,1.84-5.44Z" fill="#0c0c0c"/><path d="M614.23,107.09l-.47-.69.32-1.58-.59-.51c-1.28,1.01-2.18,1.89-3.74,2.4l-.2-.56c.61-3.02.72-3.42,2.35-6.03,2.37-.59,5.27.53,7.78,1.2-2.24.26-3.09.62-5.04,1l1.48.56.27,1.45c-.71.95-1.36,1.88-2.14,2.76Z"/><path d="M647.36,105.73c2.69.54,3.02.65,4.85,3.11-.56-.76,3.16-1.5,4.06-1.43l.41.97-1.54,1.26c-2.39,1.19-3.86,3.26-5.93,3.44-.2-3.33-.46-4.31-1.86-7.35Z"/><path d="M277.37,42.73l1.74-.85c.7,1.57-.62,4.94-1.27,6.83l-2.4-.58-.37-1.06,2.29-4.34Z"/><path d="M290.67,49.97c2.19-2.06,3.81-4.13,6.64-4.58l1.91.99-.64.31c-2.86,1.41-3.35,1.82-5.75,3.96-.88-.22-1.38-.26-2.16-.68Z" fill="#0c0c0c"/><path d="M5.03,102.19c6,1.23,13.55,2.59,19.33,4.2,1.87,5.19,5.85,17.47,9.01,21.12l-8.49,9.45c6-3.28,10.15-7.61,13.65-13.49l480.84,90.74,169.18,31.18c20.18,3.76,42.1,7.31,62.11,11.33,1.85,5.52,3.65,11.05,5.41,16.6l-50.68-9.09c-10.44-1.95-23.14-5.05-33.48-6.02l-500.76-93.71c-38.18-7.18-76.31-14.62-114.38-22.31-12.52-2.45-31.22-4.95-42.94-8.86-10.23-3.41-13.68-21.11-8.8-31.14Z" fill="#fefefe"/><path d="M88.73,43.21c5.19,1.68,14.77,3.1,20.44,4.1l34.25,6.02,120.05,20.46,376.25,65.92c40.94,6.85,81.82,13.99,122.67,21.42,14.13,2.53,33.45,5.06,46.9,8.14-1.12,2.1-2.87,5.14-3.77,7.25-13.09-3.29-33.61-5.58-47.76-7.98l-88.75-15.73-321.3-55.38c-27.38-4.81-53.96-10.45-81.15-15.49-45.89-8.24-91.85-16.13-137.87-23.65-7.57-1.21-41.47-8.09-46.96-7.79l-.28-1.74,7.26-5.54Z" fill="#fefefe"/><path d="M77.85,51.67l3.62-2.93.28,1.74c.41.45.82.91,1.23,1.36,29.36,5.7,59.46,10.04,88.81,15.65,4.39.84,14.35,2.31,15.95,3.28l-.13,1.11c-3.82-.57-12.12-1.02-15.89-.47-11.78,4.95-33.48,17.66-42.99,27.98-.43.47,0,2.09.13,2.94-4.82,4.68-7.13,7.65-11.23,12.94l-39.35-7.03c3.9-3.51,8.12-7.85,11.91-11.58l-1.42-.75c-3.63,3.61-8.84,8.37-11.46,12.57-7.72-1.66-14.2-2.8-22.01-3.96,4.19-4.27,8.87-8.64,13.2-12.81l-.72-1.57c14.52-14.27,23.77-19.16,40.29-29.32l.84-1.13c-4.64-2.33-23.43-5.44-27.28-4.28-3.01-1.12-2.67-.97-3.79-3.74Z" fill="#fefefe"/><path d="M108.91,59.69l1,.85.09,3.4c5.25-2.12,11.28-1.23,16.54.55-15.1,7.02-28.12,17.84-37.77,31.42-3.63,3.61-8.84,8.37-11.46,12.57-7.72-1.66-14.2-2.8-22.01-3.96,4.19-4.27,8.87-8.64,13.2-12.81l-.72-1.57c14.52-14.27,23.77-19.16,40.29-29.32l.84-1.13Z" fill="#fefefe"/><path d="M108.91,59.69l1,.85.09,3.4c-4.93,3.5-9.83,6.04-14.87,9.26-1.91,1.22-1.9,4.8-4.72,6.86l-.47-2.48c-3.72,1.36-2.33,8.92-6.36,11.97l-1.42-.09c-1.66-3.35,2-7.57,3.93-10.68-6.24,4.25-11.82,8.04-17.59,12.94l-.72-1.57c14.52-14.27,23.77-19.16,40.29-29.32l.84-1.13Z"/><path d="M77.85,51.67l3.62-2.93.28,1.74c.41.45.82.91,1.23,1.36,29.36,5.7,59.46,10.04,88.81,15.65,4.39.84,14.35,2.31,15.95,3.28l-.13,1.11c-3.82-.57-12.12-1.02-15.89-.47-1.45-.65-9.53-2.45-11.6-2.96-4.87,4.04-16.98,16.92-20.64,19.02,1.77-4.36,12.83-14.42,16.94-18.35l-10.97-2.68c-14.88,9.63-24.65,20.24-36.71,33.04-1.65,1.75-7.52,8.59-9.4,8.81,7.29-10.83,23.22-26.89,33.79-35.15,2.75-2.15,6.74-4.55,7.45-7.38-2.6-.47-9.04-.56-11.37.47-1.34-1.64-.52-1.03-2.66-1.74-5.26-1.79-11.3-2.67-16.54-.55l-.09-3.4-1-.85c-4.64-2.33-23.43-5.44-27.28-4.28-3.01-1.12-2.67-.97-3.79-3.74Z" fill="#504f51"/><path d="M109.91,60.54c7.12.57,25.61,1.16,30.66,5.22-2.6-.47-9.04-.56-11.37.47-1.34-1.64-.52-1.03-2.66-1.74-5.26-1.79-11.3-2.67-16.54-.55l-.09-3.4Z" fill="#181718"/><path d="M126.55,64.5c2.14.71,1.32.1,2.66,1.74-7.04,4.22-16.01,9.17-21.44,15.28-.54,2.67-.76,6.04-2.64,7.64-8.85.67-8.32,1.35-14.94,7.52l-1.42-.75c9.65-13.57,22.67-24.4,37.77-31.42Z"/><path d="M843.45,121.69c4.26-1.29,12.89,3.08,16.53,5.54-13.24,17.6-27.18,41-40.02,59.86-9.59,14.1-30.58,42.59-37.42,56.36-4.89-1.47-10.77-2.69-15.81-3.86,17.39-25.97,35.14-51.6,50.87-78.66,7.3-12.57,19.62-26.5,25.85-39.24Z" fill="#fefefe"/><path d="M171.72,71.42c3.77-.55,12.08-.1,15.89.47l.54,1.71,2.49,1.44c-18.86,9.12-23.14,12.59-37.54,28.19-5.37,5.66-9.13,9.96-14,16.04-5.79-1.37-14.26-2.55-20.43-3.69,3.34-3.97,7.51-8.38,11.04-12.29l-.84-.97c-.13-.85-.57-2.46-.13-2.94,9.51-10.32,31.2-23.03,42.99-27.98Z" fill="#fefefe"/><path d="M171.72,71.42c3.77-.55,12.08-.1,15.89.47l.54,1.71c-16.13-3.88-26.82,6.13-37.98,16.67-2.06,1.95-2.32,5.73-5.1,7.18l-.96-.36c.14-1.98.22-3.45.19-5.43-4.37.85-11.54,8.33-14.59,11.64l-.84-.97c-.13-.85-.57-2.46-.13-2.94,9.51-10.32,31.2-23.03,42.99-27.98Z"/><path d="M32.15,100.6c12.55-12.45,36.28-30.95,50.85-41.96,5.03-3.8,18.67.45,25.08,2.18-16.52,10.17-25.77,15.05-40.29,29.32-3.98,3.32-10.6,10.36-14.48,14.26-7.06-1.23-14.11-2.5-21.15-3.81Z" fill="#fefefe"/><path d="M190.64,75.04c.42-.44.74-.81,1.01-1.35,1.64-.13,2.46.58,3.91,1.42,2.91,1.63,7.5,2.1,10.91,2.66-14.56,9.14-35.75,31.53-46.04,45.34l-20.75-3.93,14.92-15.02-1.52-.92c14.4-15.61,18.69-19.08,37.54-28.19Z" fill="#fefefe"/><path d="M190.64,75.04c.42-.44.74-.81,1.01-1.35,1.64-.13,2.46.58,3.91,1.42-6.28,3.6-10.67,6.37-16.03,11.29-4.66,4.28-6.93,13.14-11.19,14.2-.95-3.1,1.03-7.11,2.45-9.82-5.99,4.52-10.54,8.4-16.18,13.37l-1.52-.92c14.4-15.61,18.69-19.08,37.54-28.19Z"/><path d="M512.5,131.66l8.67,2.2c1.99-1.62,4.2-.97,6.55-.51,21.7,3.38,43.63,7.69,65.29,11.43,2.5.43,5.54,1.03,7.97,1.69,2.54.22,1.46-.23,3.4,1.3,3.22.61,13.27,1.88,15.21,3.05,2.08-1.17,6.02-.97,8.09.15l-.77.07c2.55,1.46,6.68,2.51,9.58,2.97-.96,1.9-8.87,9.81-11.57,13.61-8.7,12.28-17.47,24.68-25.42,37.47-4.42-.65-14.93-1.82-18.36-3.71-.44-1.87-.48-.92.5-2.9l-.42-.71c-.73.91-1.67,2.46-2.58,2.61-4.59.8-17.29-1.56-21.25-3.38-2.17.68-18.67-2.04-20.72-3.69l-.49-.13c-3.11,1.15-34.39-5-39.14-6.38l-.03-1.56-.57-.78c-3.46,3.87-17.09-.22-22.17-1.23,5.74-7.44,11.71-15.37,17.92-22.43.21-2.37,1.16-3.37,2.57-5.22.33-5.26,13.45-19.68,17.75-23.93Z" fill="#fefefe"/><path d="M600.99,146.47c2.54.22,1.46-.23,3.4,1.3,3.22.61,13.27,1.88,15.21,3.05,2.08-1.17,6.02-.97,8.09.15l-.77.07c2.55,1.46,6.68,2.51,9.58,2.97-.96,1.9-8.87,9.81-11.57,13.61-8.7,12.28-17.47,24.68-25.42,37.47-4.42-.65-14.93-1.82-18.36-3.71-.44-1.87-.48-.92.5-2.9l-.42-.71c-.73.91-1.67,2.46-2.58,2.61-4.59.8-17.29-1.56-21.25-3.38,1.46-3.3,6.2-10.35,8.39-13.65,10.92-16.42,16-26.71,34.25-35.54l.97-1.35Z" fill="#fefefe"/><path d="M619.59,150.83c2.08-1.17,6.02-.97,8.09.15l-.77.07c2.55,1.46,6.68,2.51,9.58,2.97-.96,1.9-8.87,9.81-11.57,13.61-8.7,12.28-17.47,24.68-25.42,37.47-4.42-.65-14.93-1.82-18.36-3.71-.44-1.87-.48-.92.5-2.9l-.42-.71c10.95-16.48,19.84-38.6,38.38-46.95Z" fill="#fefefe"/><path d="M619.59,150.83c2.08-1.17,6.02-.97,8.09.15l-.77.07c-5.56,1.89-10.95,6.99-15.39,10.95-1.29,5.19-1.3,12.33-4.51,14.31-2.4-2.36-.09-5.42-2.6-6.96-3.16,2.78-18.56,24.3-22.77,29.14l-.42-.71c10.95-16.48,19.84-38.6,38.38-46.95Z"/><path d="M600.99,146.47c2.54.22,1.46-.23,3.4,1.3-7.06,5.92-18.07,14.07-20.46,23.35-1.51,5.85-3.48,4.92-8.77,3.52-5.84,4.64-11.71,16.97-17.76,22.37,1.46-3.3,6.2-10.35,8.39-13.65,10.92-16.42,16-26.71,34.25-35.54l.97-1.35Z"/><path d="M512.5,131.66l8.67,2.2c1.99-1.62,4.2-.97,6.55-.51v.62c2.56.81,12.23,2.9,12.79,3.21-16.01,5.65-37.31,32.27-44.08,47.3-3.46,3.87-17.09-.22-22.17-1.23,5.74-7.44,11.71-15.37,17.92-22.43.21-2.37,1.16-3.37,2.57-5.22.33-5.26,13.45-19.68,17.75-23.93Z" fill="#fefefe"/><path d="M512.5,131.66l8.67,2.2c1.99-1.62,4.2-.97,6.55-.51v.62c-6.07,1.85-19.42,15.5-24.54,19.57-.85,3.11-1.41,6.45-3.36,8.89l-1.1.29c-2-2.35.52-5.56-1.28-6.88l-5.26,4.98c.21-2.37,1.16-3.37,2.57-5.22.33-5.26,13.45-19.68,17.75-23.93Z"/><path d="M512.5,131.66l8.67,2.2c-10.86,4.39-19.38,12.62-26.42,21.73.33-5.26,13.45-19.68,17.75-23.93Z" fill="#fefefe"/><path d="M576.82,147.32c7.43-5.59,14.27-.9,23.2.5-18.25,8.83-23.33,19.13-34.25,35.54-2.19,3.29-6.93,10.35-8.39,13.65-2.17.68-18.67-2.04-20.72-3.69,3.53-4.85,20.55-27.23,24.03-30.12l-.96,3.17,1.35-.49c.59.34,1.16.69,1.74,1.03,2.15-2.47,3.37-10.81,4.01-11.16,3.71-2,6.48-4.45,9.99-8.44Z" fill="#fefefe"/><path d="M575.39,142.76l2.24-.17.58.79-2.2,2.59.81,1.35c-3.51,3.99-6.28,6.44-9.99,8.44-.64.34-1.86,8.69-4.01,11.16-.58-.34-1.15-.69-1.74-1.03l-1.35.49.96-3.17c-3.48,2.89-20.5,25.27-24.03,30.12l-.49-.13c1.3-5.13,18.29-27.4,20.74-34.96,1.33-4.14,14.2-12.21,18.48-15.47Z"/><path d="M496.43,184.47c6.77-15.03,28.07-41.65,44.08-47.3l1.88,1.79c-4.91,3.67-9.95,7.09-13.94,11.75-2.78,3.24-2.6,8.18-3.29,12.2-1.16.18-2.26.35-3.27.5l-1.38-.59c-.64-2.62.47-5.81,1.12-8.59-9.73,11.14-16.37,18.93-24.64,31.01l-.57-.78Z"/><path d="M527.72,133.35c21.7,3.38,43.63,7.69,65.29,11.43,2.5.43,5.54,1.03,7.97,1.69l-.97,1.35c-8.93-1.4-15.77-6.09-23.2-.5l-.81-1.35,2.2-2.59-.58-.79-2.24.17c-5.86-.64-14.05-2.42-20.03-3.55-16.56,16.8-25.28,31.71-39.73,48.99,2.1-9.12,29.84-41.08,37.72-49-3.44-.57-7.85-1.59-10.95-.23l-1.88-1.79c-.56-.31-10.24-2.4-12.8-3.21v-.62Z" fill="#0c0c0c"/><path d="M412.67,114.14c6.97,1.6,16.26,3.04,22.67,5.27.61,0,3.01-.39,3.75-.5,4.52-.99,12.56,1.33,17.42,2.44,5.05,1.04,32.37,5.29,34.48,6.57-3.41,5.1-11.05,11.21-13.9,15.22-6.71,9.43-19.54,26.18-24.67,35.95-3.53-.61-14.71-2.29-17.36-3.58l-.37-.64-.45-.69c-2.67,2.21-18.86-1.14-21.33-3.38l-.45-.11c-3.17.98-16.58-1.11-18.87-3.47l-.61-.61c-2.93,2.23-17.26-1.33-21.31-2.09,5.13-9.72,32.78-42.41,40.99-50.39Z" fill="#fefefe"/><path d="M412.67,114.14c6.97,1.6,16.26,3.04,22.67,5.27.61,0,3.01-.39,3.75-.5,4.52-.99,12.56,1.33,17.42,2.44l-1.3,1.53c-17.9,9.39-24.33,19.94-35.39,36.12-1.57,2.3-6.55,9.39-7.36,11.69-3.17.98-16.58-1.11-18.87-3.47l-.61-.61c-2.93,2.23-17.26-1.33-21.31-2.09,5.13-9.72,32.78-42.41,40.99-50.39Z" fill="#fefefe"/><path d="M412.67,114.14c6.97,1.6,16.26,3.04,22.67,5.27-18.19,7.73-25.6,19.57-34.94,35.77-1.72,2.98-6.22,8.84-7.42,11.44-2.93,2.23-17.26-1.33-21.31-2.09,5.13-9.72,32.78-42.41,40.99-50.39Z" fill="#fefefe"/><path d="M439.1,118.92l3.69,1.8c-6.81.54-13.69,6.24-18.29,11.09-4.65,4.9-4.73,11.95-6.64,13.43-1.02-2.5-1.04-2.93-1.19-5.64-9.42,9.92-14.92,16.64-23.07,27.63l-.61-.61c1.2-2.6,5.7-8.46,7.42-11.44,9.34-16.2,16.75-28.04,34.94-35.77.61,0,3.01-.39,3.75-.5Z"/><path d="M439.1,118.92c4.52-.99,12.56,1.33,17.42,2.44l-1.3,1.53c-2.39-1.1-10.06-3.16-12.43-2.16l-3.69-1.8Z" fill="#0c0c0c"/><path d="M480.24,127.75c3.63,0,6.98.23,10.77.17-3.41,5.1-11.05,11.21-13.9,15.22-6.71,9.43-19.54,26.18-24.67,35.95-3.53-.61-14.71-2.29-17.36-3.58l-.37-.64c3.88-5.1,14.42-19.14,18.51-23,.5,2.61-1.36,3.26-.57,5.98,5.66-2.05,4.28-8.71,10.46-15.4,7.3-7.9,8.36-8.74,17.13-14.71Z" fill="#fefefe"/><path d="M456.52,121.36c5.05,1.04,32.37,5.29,34.48,6.57-3.79.06-7.14-.17-10.77-.17-8.77,5.97-9.83,6.82-17.13,14.71-6.19,6.69-4.81,13.35-10.46,15.4-.79-2.73,1.07-3.38.57-5.98-4.09,3.86-14.64,17.9-18.51,23l-.45-.69c13.36-20.49,19.88-35.89,42.66-47.83l-15.39-2.57c-9.37,5.06-20.03,12.25-24.83,21.95l.02.57c.08,3.8.22,3.91-2,6.23l-1.41-.16-2.11-3.45c-3.51,1.17-15.55,18.28-18.26,21.87l-.45-.11c.81-2.3,5.79-9.39,7.36-11.69,11.06-16.18,17.49-26.73,35.39-36.12l1.3-1.53Z"/><path d="M640.94,153.17c8.04,4.13,14.52,1.89,20.06,4.72,6.53-2.15,20.52,2.08,27.16,4.1,4.88,1.86,8.02,2.14,13.12,2.86-16.6,17.9-24.28,36.41-37.83,53-6.11-1.25-12.2-2.56-18.28-3.94-.2-.45-.51-1.06-.57-1.51l-.42-.72c-2.63,3.06-17.44-.81-21.07-2.23l-.29-1.59-.16-.84c-3.82,3.61-17.08-.61-22.25-1.72,11.35-15.94,26.53-39.54,40.52-52.13Z" fill="#fefefe"/><path d="M640.94,153.17c8.04,4.13,14.52,1.89,20.06,4.72-15.04,7.24-22.77,23.07-30.73,36.82-1.89,3.26-6.34,9.25-7.61,12.31-3.82,3.61-17.08-.61-22.25-1.72,11.35-15.94,26.53-39.54,40.52-52.13Z" fill="#fefefe"/><path d="M688.17,161.99c4.88,1.86,8.02,2.14,13.12,2.86-16.6,17.9-24.28,36.41-37.83,53-6.11-1.25-12.2-2.56-18.28-3.94-.2-.45-.51-1.06-.57-1.51,3.43-4.68,14.76-20.76,18.5-23.58.56.73.97,1.49,1.37,2.33,3.29-3.26.23-8.15,4.89-10.91l2.27,1.32c.23-.3.29-.3.34-.71,1.04-7.39,10.02-13.74,16.18-18.86Z" fill="#fefefe"/><path d="M661,157.89c6.53-2.15,20.52,2.08,27.16,4.1-6.16,5.11-15.13,11.46-16.18,18.86-.06.42-.11.42-.34.71l-2.27-1.32c-4.66,2.76-1.61,7.65-4.89,10.91-.4-.84-.81-1.59-1.37-2.33-3.74,2.81-15.07,18.89-18.5,23.58l-.42-.72c.59-1.25.17-.47.71-1.35,13.79-22.59,13.44-33.23,37.83-48.77-19.01-3.63-19.68-5.96-29.54,11.19-.58-.33-.95-.6-1.57-.81-5.68,1.7-8.05,13.18-11.13,15.85-7.59,6.55-11.7,11.99-17.66,20.08l-.16-.84c1.27-3.06,5.71-9.04,7.61-12.31,7.96-13.75,15.69-29.58,30.73-36.82Z"/><path d="M252.69,85.05l.54-.85,3.6-.22,6.72,1.26.46.68-1.37.82v.9c6.14-2.11,29,2.77,35.69,5.09,7.09.94,13.82,3.1,20.93,4.35l-1.8,1.48c-8.38,3.71-16.13,6.73-22.39,13.84-2.52,2.86-3.99,6.19-6.74,8.83-8.27,7.3-12.73,15.92-19.61,23.9-3.14-.68-18.99-3.83-20.99-5.19.23-1.68,1.63-3.02,2.75-4.4l-.79-.77-4.7,5.44c-13.72-3.11-27.28-6.26-41.12-8.82,4.26-4.1,18.29-22.16,21.95-22.71.36-.43.96-1.46,1.29-1.98l-2.74-1.45c6.8-7.52,19.49-15.13,28.33-20.21Z" fill="#fefefe"/><path d="M298.32,92.73c7.09.94,13.82,3.1,20.93,4.35l-1.8,1.48c-8.38,3.71-16.13,6.73-22.39,13.84-2.52,2.86-3.99,6.19-6.74,8.83-8.27,7.3-12.73,15.92-19.61,23.9-3.14-.68-18.99-3.83-20.99-5.19.23-1.68,1.63-3.02,2.75-4.4,8.76-10.28,13.92-15.52,23.97-24.78-1.62,3.02-3.79,6.52-4.32,9.82l.61.79c4.35-.38,4.34-4.32,6.54-7.95,4.59-7.59,16.27-12.64,22.65-17.84l-1.6-2.85Z" fill="#fefefe"/><path d="M298.32,92.73c7.09.94,13.82,3.1,20.93,4.35l-1.8,1.48c-3.57-1.18-14.14-4.11-17.54-2.98l-1.6-2.85Z" fill="#0c0c0c"/><path d="M262.63,87.65c6.15-2.11,29.01,2.77,35.69,5.09l1.6,2.85c-6.38,5.2-18.06,10.25-22.65,17.84-2.2,3.63-2.18,7.57-6.54,7.95l-.61-.79c.53-3.3,2.69-6.8,4.32-9.82-10.05,9.25-15.21,14.5-23.97,24.78l-.79-.77c17.3-22.65,20.49-28.04,46.65-41.01-4.75-.98-8.3-1.75-12.99-3.17l-7.95,6.82-.64-1.37,6.74-5.76c-4.35-.44-9.1-1.21-13.46-1.82-13.98,8.16-15.19,11.34-25.35,23.92-2.33,2.89-7.79,7.37-10.32,10.31-2.85,3.32-5.73,7.14-8.49,10.58l-.05-1.16c10.18-15.23,23.15-35.65,38.8-44.47Z"/><path d="M252.69,85.05l.54-.85,3.6-.22-1.76,1.88c-8.07,6.52-15.69,12.56-22.59,20.34-1.49,1.68-4.47,5.38-6.29,5.69l-1.14-1.68.75-1.52c.36-.43.96-1.46,1.29-1.98l-2.74-1.45c6.8-7.52,19.49-15.13,28.33-20.21Z"/><path d="M274.76,96.04l.64,1.37c-10.2,9.39-11.11,12.65-18.83,23.91,3.67-11.89,8.98-17.61,18.19-25.29Z" fill="#0c0c0c"/><path d="M256.83,83.98l6.72,1.26.46.68-1.37.82c-2.93.11-5.1.54-7.56-.88l1.76-1.88Z" fill="#0c0c0c"/><path d="M310.16,153.42c5.58-8.65,34.28-46.37,43.23-48.94,2.81.62,4.36,1.1,7.27.47,1.66,2.39,9.11,2.78,12.17,3.14l1.96-1.38c4.17.82,12.95,1.72,15.79,4.28,1.99.42,2.66.49,4.47,1.35l.24.41,2.62,1.24c4.7-2.61,6.57-.7,12.18.45-10.28,9.89-32.59,37.32-39.97,49.91-4.36-.77-15.41-1.76-17.57-4.52.71-1.65.7-1.62,1.84-3.02l-.25-1.07-4.08,4.92c-5.27-1-16.94-1.97-19.78-4.84l1.02-2.37-.61-.57c-3.85,6.07-14.1,1.89-20.52.54Z" fill="#fefefe"/><path d="M397.91,113.98c4.7-2.61,6.57-.7,12.18.45-10.28,9.89-32.59,37.32-39.97,49.91-4.36-.77-15.41-1.76-17.57-4.52.71-1.65.7-1.62,1.84-3.02l-.25-1.07c13.93-18.49,17.91-34.23,41.15-42.99l2.62,1.24Z" fill="#fefefe"/><path d="M354.14,155.73c13.93-18.49,17.91-34.23,41.15-42.99l2.62,1.24c-7.02,5.44-16.71,10.85-16.15,20.42-.88,2.09-1.54,2.24-3.57,3.53l-1.08-.31c-.65-2.8.15-5.2.75-8.07-3.07,2.08-19.84,22.95-23.46,27.25l-.25-1.07Z"/><path d="M310.16,153.42c5.58-8.65,34.28-46.37,43.23-48.94,2.81.62,4.36,1.1,7.27.47,1.66,2.39,9.11,2.78,12.17,3.14-22.55,11.29-28.37,24.79-42.15,44.79-3.85,6.07-14.1,1.89-20.52.54Z" fill="#fefefe"/><path d="M372.84,108.08l1.96-1.38c4.17.82,12.95,1.72,15.79,4.28-3.91-.6-7.8-1.35-11.65-2.25-3.5,2.2-9.31,5.61-12.21,8.36-4.32,4.1-8.92,15.07-14,17.82-.74-1.64.13-4.05.52-6.18l-.76-.21c-7.36,7.13-16.49,20.62-21.18,24.92l-.61-.57c13.78-20.01,19.6-33.5,42.15-44.79Z"/><path d="M862.89,133.13c4.72,5.57,4.27,31.67.49,36.61-22.28,29.11-41.91,60.05-62.99,90.06-3.67,5.23-7.15,10.58-11.97,14.64-1.86-3.26-2.2-26.99-2.59-32.77,19.93-27.69,37.8-58.92,58.39-86.41,5.27-7.05,12.79-15.36,18.67-22.14Z" fill="#fefefe"/><path d="M743.89,172.2l-.61-.91c1.87.28,4.07.49,5.24,2.16,5.57,1.21,11.89,1.71,16.26,2.69,1.68-2.05,3.85-1.62,6.21-.77l.46,1.36c3.64,1.53,8.85,1.8,12.81,2.05-11.05,11.77-30.96,40.24-38.59,55.12-3.54.44-14.92-1.6-17.18-4.53l.95-2.4-.62-.84-2.11,2.83c-4.76,1.96-15.48-1.47-20.42-3.15,3.68-5.21,18.27-26.09,22.38-29.13.84-2.05.91-2.14.94-4.32-1.51-1.32-1.04-.91-3.43-1.16,3.67-6.03,6.05-9.31,11.52-13.93,2.39-2.01,4.36-2.66,6.2-5.06Z" fill="#fefefe"/><path d="M743.89,172.2l-.61-.91c1.87.28,4.07.49,5.24,2.16,5.57,1.21,11.89,1.71,16.26,2.69-23.58,15.66-21.16,27.67-35.96,49.99l-2.11,2.83c-4.76,1.96-15.48-1.47-20.42-3.15,3.68-5.21,18.27-26.09,22.38-29.13.84-2.05.91-2.14.94-4.32-1.51-1.32-1.04-.91-3.43-1.16,3.67-6.03,6.05-9.31,11.52-13.93,2.39-2.01,4.36-2.66,6.2-5.06Z" fill="#fefefe"/><path d="M743.89,172.2l-.61-.91c1.87.28,4.07.49,5.24,2.16-4.67,3.71-13.92,13.04-15.95,19.11-.69,2.08.68,3.79-1.36,6.09-1.92-.72-1.03-.2-2.54-1.97.84-2.05.91-2.14.94-4.32-1.51-1.32-1.04-.91-3.43-1.16,3.67-6.03,6.05-9.31,11.52-13.93,2.39-2.01,4.36-2.66,6.2-5.06Z"/><path d="M764.79,176.13c1.68-2.05,3.85-1.62,6.21-.77l.46,1.36c-11.38,6.32-12.57,10.59-18.14,21.55-.78,1.54-1.37,2.79-2.74,2.44l-1.43-2.19c-3.95,1.58-13.8,22.57-19.71,28.44l-.62-.84c14.8-22.32,12.38-34.33,35.96-49.99Z"/><path d="M703.16,164.67c7.06,1.98,12.67,2.78,19.63,4.47,2.57-.77,2.62-1.31,4.46-.5l.53.98c5.53,1.01,10.51,1.93,16.11,2.57-1.84,2.4-3.81,3.05-6.2,5.06-5.47,4.61-7.85,7.89-11.52,13.93-7.56,11.45-13.25,22.67-21.43,34.87-5.66-1.16-12.86-2.14-17.99-4.19l-.76-1.19,1.32-2.49-.25-1.05c-.83.91-2.46,3.46-3.24,4.59-6.3-1.27-12.75-2.41-19.08-3.6,13.43-16.98,24.49-36.44,38.42-53.47Z" fill="#fefefe"/><path d="M703.16,164.67c7.06,1.98,12.67,2.78,19.63,4.47-18.3,8.66-25.03,31.52-35.72,48-.83.91-2.46,3.46-3.24,4.59-6.3-1.27-12.75-2.41-19.08-3.6,13.43-16.98,24.49-36.44,38.42-53.47Z" fill="#fefefe"/><path d="M722.79,169.14c2.57-.77,2.62-1.31,4.46-.5l.53.98c-4.85,4.13-8.33,7.17-12.79,11.74-.19,3.57-.15,8.62-1.48,11.76l-.83.09c-.81-2.15-1.04-3.9-2.63-5.05-.83.52-20.73,27.21-22.73,30.04l-.25-1.05c10.7-16.48,17.42-39.34,35.72-48Z"/><path d="M319.26,97.08c3.63.61,18.32,2.67,20.41,4.84,3.84,1.19,5.65,1.58,9.62,2.22-15.88,14.57-28.41,31.07-40.18,49.08-5.25-.96-11.92-2.02-16.97-3.26l-.3-.71c.64-.85,1.35-1.57,1.6-2.53-.65.3-1.7,1.49-2.25,1.75-4.01,1.93-16.94-1.93-21.63-2.94,4.71-4.94,12.83-16.58,17.92-20.08l1.33-1.57-.48-2.67c2.76-2.65,4.22-5.97,6.74-8.83,6.26-7.11,14.01-10.13,22.39-13.84l1.8-1.48Z" fill="#fefefe"/><path d="M339.66,101.93c3.84,1.19,5.65,1.58,9.62,2.22-15.88,14.57-28.41,31.07-40.18,49.08-5.25-.96-11.92-2.02-16.97-3.26l-.3-.71c.64-.85,1.35-1.57,1.6-2.53,4.67-3.92,16.66-21.12,20.01-22.18.73,2.08,1.03,3.39,1.52,5.55l1.12.63c1.41-.54,1.73-1.17,2.67-2.34-.62-11.84,12.34-20.45,20.91-26.47Z" fill="#fefefe"/><path d="M319.26,97.08c3.63.61,18.32,2.67,20.41,4.84-8.57,6.02-21.53,14.64-20.91,26.47-.95,1.17-1.26,1.8-2.67,2.34l-1.12-.63c-.49-2.16-.79-3.47-1.52-5.55-3.35,1.07-15.33,18.26-20.01,22.18,1.64-3.2,4.22-6.51,6.32-9.49,10.47-14.9,18.79-27.16,35.37-35.83-4.17-.69-8.32-1.52-12.44-2.48-6.01,3.78-11.68,7.37-17.4,11.41-5.43,3.84-12.66,17.68-15.62,18.87-1.83-1.34-1.3-1.13-2.2-3.75l1.33-1.57-.48-2.67c2.76-2.65,4.22-5.97,6.74-8.83,6.26-7.11,14.01-10.13,22.39-13.84l1.8-1.48Z"/><path d="M209.98,98.58c2.74-5.35,10.59-13.45,15.17-17.62,4.31.45,7.05.81,11.27,1.71,1.45.08,2.98-.03,4.18.68,3.34-.11,8.16,1.32,12.09,1.69-8.84,5.08-21.53,12.69-28.33,20.21-6.13,6.3-15.61,18.72-21.67,25.92-6.03-1.32-13.3-2.45-19.45-3.57,8.39-8.24,15.24-17.27,24.14-25.31l1.41.38c-.17-1.68.46-2.56,1.19-4.1Z" fill="#fefefe"/><path d="M209.98,98.58c2.74-5.35,10.59-13.45,15.17-17.62,4.31.45,7.05.81,11.27,1.71,1.45.08,2.98-.03,4.18.68-6.81,4.46-19.83,12.48-26.33,17.88-1.73,1.44-1.83,7.44-6.39,7.48-1.07-2.02-.47-4.34.91-6.05-.17-1.68.46-2.56,1.19-4.1Z"/><path d="M209.98,98.58c2.74-5.35,10.59-13.45,15.17-17.62,4.31.45,7.05.81,11.27,1.71-11.05,5.38-16.45,8.74-26.44,15.9Z" fill="#fefefe"/><path d="M493.25,128.74c5.7,1.12,11.41,2.19,17.13,3.21-4.43,4.19-11.5,10.76-15.02,15.66-3.78,5.26-18.15,33.32-23.03,35.23-5.95-1.29-13.15-2.38-19.22-3.46,13.72-17.73,23.56-35.24,40.14-50.64Z" fill="#fefefe"/><path d="M210.43,77.92c3.77,1.33,8.51,1.79,12.54,2.34-15.34,14.24-25.83,31.25-40.47,45.77-1.26,1.25-5.11.26-6.84-.04-4.21-1.05-9.8-1.97-14.15-2.82,11.33-12.09,34.53-39.33,48.92-45.26Z" fill="#fefefe"/><path d="M745.68,233.89c10.27-9.28,32.63-52.52,42.11-54.18,6.97,1.54,6.14,3.81,11.58,2.7-1.73,3.2-13.82,18.29-16.69,22.2-7.96,10.84-15.09,21.45-22.6,32.6-3.14-.26-11.86-1.67-14.41-3.32Z" fill="#fefefe"/><path d="M760.97,240.16c7.76,1.71,15.48,3.62,23.14,5.75.12,9.62-.07,20.97,2.12,30.2-11.89,1.35-19.24,2.43-21.21-12.05-1.04-7.71-2.14-16.42-4.06-23.9Z" fill="#fefefe"/><path d="M29.26,102.37c5.29.26,17.8,2.65,23.54,3.59.61,5.09,2.86,13.17,4.18,18.44-6.76-1.3-14.05-2.87-20.84-3.55-1.99-6.34-4.44-12.31-6.88-18.49Z" fill="#fefefe"/><path d="M622,211.65c6.79,1.49,14.05,2.66,20.93,3.88,1.15,6.71,2.49,12.13,4.17,18.74-6.94-1.47-14.03-2.61-21.02-3.8-1.43-6.26-2.78-12.53-4.07-18.82Z" fill="#fefefe"/><path d="M120.08,118.11c6.35.58,13.36,1.89,19.73,2.93,1.42,7.21,2.85,12.89,4.8,19.98-6.8-1.41-12.66-2.56-19.53-3.53-1.75-6.44-3.42-12.9-5-19.39Z" fill="#fefefe"/><path d="M599.93,207.33c6.2,1.4,13.92,2.59,20.27,3.75,1.16,6.44,2.65,12.74,4.12,19.11l-20.27-4.12c-1.63-6.44-2.84-12.23-4.12-18.75Z" fill="#fefefe"/><path d="M98.01,113.73c6.69,1.29,13.37,2.64,20.04,4.06,1.66,6.54,3.22,12.6,5.2,19.05-6.43-1.41-13.52-2.61-20.02-3.79-1.98-5.61-3.73-13.36-5.22-19.32Z" fill="#fefefe"/><path d="M54.13,106.08c6.95,1.09,13.89,2.28,20.81,3.58,1.2,6.56,2.74,12.33,4.43,18.78-5.53-.68-14.61-2.79-20.34-3.93-1.73-5.96-3.31-12.39-4.9-18.42Z" fill="#fefefe"/><path d="M538.07,196.63c6.68.87,13.07,1.98,19.69,3.13,1.37,6.4,2.85,12.78,4.46,19.13-6.71-1.22-13.42-2.5-20.11-3.85-1.25-4.97-3.6-13.64-4.04-18.41Z" fill="#fefefe"/><path d="M247,142.7c7.05,1.25,14.09,2.61,21.1,4.08.68,6.17,2.42,12.38,4.01,18.36-5.46-1.43-14.65-2.82-20.47-3.86-2.04-6.28-3.24-12.15-4.65-18.58Z" fill="#fefefe"/><path d="M76.75,109.78c6.49,1.35,13,2.58,19.53,3.68,1.43,6.52,3.06,13,4.88,19.43-7.29-1.13-12.98-2.37-20.18-4.07-1.19-6.13-2.85-12.88-4.23-19.03Z" fill="#fefefe"/><path d="M162.35,125.46c5.82.72,13.64,2.53,19.56,3.75,1.11,6.66,2.98,13.11,4.72,19.64-6.4-1.13-12.78-2.37-19.14-3.71-1.81-5.89-3.56-13.59-5.14-19.68Z" fill="#fefefe"/><path d="M141.37,121.8c4.31.21,14.46,2.2,19.38,2.91,1.15,6.8,3.09,13.59,4.98,20.21-6.16-1-13.2-2.56-19.4-3.76l-4.96-19.36Z" fill="#fefefe"/><path d="M204.49,133.78c5.45.56,13.7,2.54,19.29,3.74,1.51,7.02,2.68,12.57,4.9,19.39-6.14-1.43-13.37-2.62-19.64-3.79-1.37-6.48-2.88-12.93-4.54-19.34Z" fill="#fefefe"/><path d="M183.56,129.45c5,1.39,13.89,2.74,19.26,3.7,1.39,6.91,2.71,12.71,4.53,19.52l-18.93-3.43c-1.83-6.51-3.32-13.2-4.87-19.79Z" fill="#fefefe"/><path d="M226.27,138.1c6.13,1.52,12.35,2.68,18.55,3.89,1.49,6.51,2.76,12.8,5.09,19.08-6.62-1.21-12.77-2.38-19.33-3.88-1.58-5.04-4.29-13.94-4.3-19.09Z" fill="#fefefe"/><path d="M516.14,192.99l19.57,3.28c1.5,6.46,2.86,12.39,4.78,18.73l-19.72-3.46c-1.78-6.08-3.17-12.38-4.63-18.55Z" fill="#fefefe"/><path d="M393.24,170.61c6.45.73,12.82,2.1,19.2,3.35,1.43,6.09,2.99,12.15,4.68,18.17l-19.98-3.6c-1.45-5.94-2.75-11.91-3.89-17.92Z" fill="#fefefe"/><path d="M686.55,224.34c6.39,1.18,12.73,2.24,19.02,3.91,1.07,6.22,2.27,11.78,3.68,17.94-6.14-1.52-13.32-2.57-19.64-3.65-.94-4.59-3.03-13.96-3.06-18.2Z" fill="#fefefe"/><path d="M474.93,185.53c6.55,1.04,13.08,2.21,19.58,3.52.92,5.6,2.9,12.62,4.34,18.26-6.46-1.19-12.9-2.46-19.32-3.82-1.61-5.14-3.25-12.58-4.6-17.95Z" fill="#fefefe"/><path d="M644.45,216.13c6.41,1.28,12.82,2.6,19.22,3.97,1.24,6.75,2.23,11.85,4.09,18.45l-18.9-3.73c-1.1-5.79-3-12.85-4.42-18.68Z" fill="#fefefe"/><path d="M851.61,190.93c-1.66,11.2-3.68,17.84-12.2,26.24l.1-.68c-10.97,13.05-23.01,29.44-33.82,43.09l-2.18.03,26.9-39.1c5.12-7.56,15.21-23.74,21.21-29.6Z" fill="#e4e3e4"/><path d="M579.4,203.71c6.22,1.06,12.44,2.2,18.64,3.41.63,4.88,2.91,13.57,4.11,18.63-5.6-.64-12.53-2.07-18.21-3.09l-4.54-18.95Z" fill="#fefefe"/><path d="M269.77,147.46c6.12,1.57,13.05,2.86,19.3,4.14.65,4.53,2.85,12.85,3.97,17.58-6.48-1.16-12.94-2.46-19.37-3.88-1.42-5.92-2.71-11.87-3.89-17.85Z" fill="#fefefe"/><path d="M414.13,174.25l18.67,3.25,4.26,18.31-18.15-3.09-4.78-18.46Z" fill="#fefefe"/><path d="M665.48,220.27c5.89,1.3,12.89,2.43,18.89,3.55,1.12,6.18,2.28,12.35,3.5,18.5-6.13-1.41-12.3-2.6-18.5-3.57l-3.89-18.48Z" fill="#fefefe"/><path d="M495.97,189.01l18.48,3.32c1.34,6.9,2.36,11.87,4.36,18.58-5.09-.4-12.87-2.16-18.13-3.19-1.66-6.09-3.17-12.56-4.71-18.71Z" fill="#fefefe"/><path d="M559.8,200.02l17.91,3.44c1.37,6.59,2.81,12.31,4.57,18.82l-18.68-3.29c-.67-4.98-2.79-13.39-3.79-18.97Z" fill="#fefefe"/><path d="M372.16,166.65l18.89,3.47,4.41,18.16c-5.84-1.29-12.64-2.38-18.61-3.52-1.67-5.87-3.18-12.18-4.69-18.12Z" fill="#fefefe"/><path d="M434.48,177.9c5.72.83,12.82,2.43,18.6,3.58,1.26,6.13,2.79,12.11,4.3,18.18l-18.52-3.45c-1.38-6.32-2.69-12.06-4.39-18.3Z" fill="#fefefe"/><path d="M351.94,162.93c6.31,1.34,12.43,2.3,18.79,3.33,1.17,7.28,2.15,11.23,4.28,18.23-6.18-1.26-12.38-2.44-18.59-3.54-1.73-5.61-3.12-12.24-4.48-18.02Z" fill="#fefefe"/><path d="M707.43,228.77c6.34,1.19,12.66,2.46,18.97,3.81.97,5.85,2.39,11.7,3.13,17.57l-18.15-3.62c-1.72-5.7-2.79-11.9-3.95-17.76Z" fill="#fefefe"/><path d="M454.96,181.85l17.95,3.02c1.57,6.45,3,12.12,4.96,18.45-6.64-1.04-12.43-2.22-19-3.64-1.06-5.71-2.63-12.11-3.91-17.83Z" fill="#fefefe"/><path d="M290.85,152.14l19.01,3.39c.99,5.49,2.68,12.1,3.97,17.65-4.47-1.17-13.41-2.45-18.38-3.39-2-6.26-3.15-11.24-4.59-17.65Z" fill="#fefefe"/><path d="M331.78,159.4l18.2,3.21c1.47,6.14,3.01,12.27,4.62,18.38-6.29-1.46-12.45-2.57-18.79-3.74l-4.03-17.84Z" fill="#fefefe"/><path d="M311.46,155.7l18.45,3.41c1.18,6.06,2.58,12.08,4.19,18.04-5.99-1.33-12.49-2.5-18.54-3.67-1.15-5.83-2.72-11.96-4.1-17.78Z" fill="#fefefe"/><path d="M728.19,232.81c5.26,1.08,10.48,2.29,15.67,3.62l2.96,16.78c-5.05-.88-10.09-1.72-15.15-2.51l-3.47-17.89Z" fill="#fefefe"/><path d="M745.81,236.52l13.68,2.95c1,6.22,1.62,10.65,2.04,16.95-4.27-.78-8.53-1.62-12.78-2.5l-2.94-17.4Z" fill="#fefefe"/><path d="M752.34,256.88l10.4,2.08c.96,5.86,1.9,10.19,3.31,15.93l-8.09-1.11c-1.7-6.03-3.5-11.03-5.62-16.91Z" fill="#fefefe"/><path d="M795.44,190.36c-.03.42-.04,1.23-.29,1.52-5.69,6.71-26.37,44.47-31.62,47.2l-1.33-1.3c.16-3.84,29.11-42.03,33.24-47.41Z" fill="#fefefe"/><path d="M794.86,271.37c3.09-4.64,5.16-7.42,8.64-11.75l2.18-.03c-3.91,4.83-6.07,7.7-10.82,11.78Z" fill="#d3d3d3"/></g></svg>