<svg viewBox="0 0 200 54" version="1.1" xmlns="http://www.w3.org/2000/svg" xmlns:xlink="http://www.w3.org/1999/xlink"><defs><path d="M0,0 L199.469388,0 L199.469388,54 L0,54 L0,0 Z" id="a"/><polygon id="b" points="0 54 199.469388 54 199.469388 0 0 0"/></defs><g stroke="none" fill="none" xlink:href="#a"><path d="M64.8223615,18.190154 C63.3342718,18.190154 62.1055258,18.6919884 61.1366466,19.6940806 C60.1677673,20.6977492 59.6830663,21.9578525 59.6830663,23.477018 C59.6830663,25.0534609 60.1787476,26.3466695 61.171156,27.3550675 C62.1630416,28.3634654 63.4090423,28.8679272 64.9091581,28.8679272 C66.3737186,28.8679272 67.5820726,28.375026 68.53422,27.3897492 C69.4858445,26.4044724 69.9616568,25.1117893 69.9616568,23.5111743 C69.9616568,21.9347314 69.4827073,20.6536088 68.5253312,19.6688575 C67.5679551,18.6830552 66.3334576,18.190154 64.8223615,18.190154 L64.8223615,18.190154 Z M69.7190448,14.2427411 L74.4259261,14.2427411 L74.4259261,30.4501503 C74.4259261,33.6498039 73.7859325,36.0034331 72.5054223,37.511038 C70.7862238,39.5509551 68.1964456,40.5714391 64.735565,40.5714391 C62.8898317,40.5714391 61.3384746,40.3391766 60.0809708,39.8762278 C58.823467,39.4122281 57.7625625,38.7306793 56.8972116,37.8326324 C56.0318608,36.9335344 55.3918671,35.8410595 54.976185,34.5546821 L60.1850221,34.5546821 C60.6461939,35.0875198 61.2406978,35.4900382 61.967488,35.7632883 C62.6942781,36.034962 63.5533545,36.1721125 64.5452401,36.1721125 C65.8142471,36.1721125 66.8354134,35.9740062 67.6082162,35.580421 C68.3810189,35.1863102 68.926373,34.6760682 69.2432326,34.0502204 C69.560615,33.4238471 69.7190448,32.3460857 69.7190448,30.8153596 C68.8887263,31.6498234 68.0176239,32.2504481 67.1062604,32.6151319 C66.1948969,32.9808667 65.1622274,33.1632085 64.0087749,33.1632085 C61.4827869,33.1632085 59.3484291,32.2478207 57.6067471,30.4154686 C55.8645422,28.583642 54.9939626,26.26522 54.9939626,23.4591516 C54.9939626,20.4570789 55.9163064,18.0451213 57.7625625,16.2248552 C59.4352256,14.5790489 61.4310227,13.7556202 63.749431,13.7556202 C64.8338647,13.7556202 65.8576453,13.9558285 66.820773,14.3557195 C67.7839007,14.7556202 68.7501656,15.4140381 69.7190448,16.329426 L69.7190448,14.2427411 Z" fill="currentColor" fill-rule="evenodd"/><path d="M77.3232567,14.2427411 L81.3723668,14.2427411 L81.3723668,16.6252717 C81.8105324,15.6862373 82.3935331,14.9731596 83.1203232,14.4860387 C83.8471134,13.9989179 84.6429225,13.7556202 85.5082733,13.7556202 C86.1195091,13.7556202 86.7595027,13.9179938 87.4287771,14.2427411 L85.9579421,18.3294065 C85.4042221,18.0509016 84.9482789,17.9121746 84.5911583,17.9121746 C83.8643681,17.9121746 83.2499952,18.3640882 82.7480394,19.268441 C82.2460836,20.1727937 81.9956286,21.946292 81.9956286,24.5899867 L82.0123604,25.5116803 L82.0123604,33.1632085 L77.3232567,33.1632085 L77.3232567,14.2427411 Z" fill="currentColor" fill-rule="evenodd"/><path d="M97.0230346,18.1380263 C95.562657,18.1380263 94.3495971,18.6572015 93.3838551,19.6939755 C92.4181131,20.7318004 91.9355035,22.0623181 91.9355035,23.6855288 C91.9355035,25.3203001 92.426479,26.6655314 93.4094758,27.7196462 C94.3929954,28.7753374 95.6023951,29.3023948 97.0397664,29.3023948 C98.5231504,29.3023948 99.7534649,28.7842706 100.73071,27.7464457 C101.707955,26.7086208 102.196316,25.3492016 102.196316,23.668188 C102.196316,22.0223816 101.707955,20.6887109 100.73071,19.6687524 C99.7534649,18.6482683 98.5173988,18.1380263 97.0230346,18.1380263 L97.0230346,18.1380263 Z M101.988737,14.242636 L106.71235,14.242636 L106.71235,33.1631035 L101.988737,33.1631035 L101.988737,31.1636484 C101.066916,32.0443545 100.141958,32.6791355 99.2149082,33.0674659 C98.2873357,33.4557963 97.2818555,33.6502243 96.1989905,33.6502243 C93.7676421,33.6502243 91.6646565,32.7022566 89.8900337,30.8068468 C88.1159337,28.911437 87.2286222,26.5546549 87.2286222,23.7375515 C87.2286222,20.8158773 88.0871758,18.4223115 89.8042829,16.5552777 C91.5208671,14.6892948 93.6060751,13.7555151 96.0609527,13.7555151 C97.1898303,13.7555151 98.249689,13.9704368 99.2405289,14.3992293 C100.231369,14.8280218 101.147438,15.4717359 101.988737,16.3293209 L101.988737,14.242636 Z" fill="currentColor" fill-rule="evenodd"/><path d="M128.245678,18.0682425 L124.313691,20.2421572 C123.573829,19.4654963 122.843902,18.9268784 122.12234,18.6247268 C121.400256,18.3236262 120.554251,18.1728132 119.584326,18.1728132 C117.817024,18.1728132 116.387495,18.702498 115.296265,19.7613421 C114.205034,20.8207117 113.659157,22.1780291 113.659157,23.8327686 C113.659157,25.4423168 114.184642,26.7565447 115.235612,27.7744013 C116.286581,28.7933089 117.666437,29.3024999 119.375701,29.3024999 C121.49019,29.3024999 123.135664,28.5783872 124.313691,27.1291107 L128.038099,29.6918813 C126.019818,32.3308467 123.16965,33.6498039 119.490733,33.6498039 C116.179393,33.6498039 113.587,32.6650526 111.712509,30.693448 C109.837495,28.7228944 108.900511,26.416033 108.900511,23.7723383 C108.900511,21.9410371 109.355931,20.2542433 110.267818,18.7119566 C111.178658,17.1701955 112.450803,15.9584364 114.082682,15.0772048 C115.715607,14.1964987 117.540948,13.7556202 119.559752,13.7556202 C121.429014,13.7556202 123.106383,14.1297627 124.594996,14.8775221 C126.083085,15.6252815 127.300328,16.6888549 128.245678,18.0682425" fill="currentColor" fill-rule="evenodd"/><path d="M144.069207,21.3378901 C143.757053,20.2832498 143.142157,19.4246139 142.223474,18.7640843 C141.304267,18.1035548 140.238657,17.7730273 139.025597,17.7730273 C137.708486,17.7730273 136.552942,18.1440168 135.558965,18.8859959 C134.934657,19.3499956 134.357408,20.166593 133.825649,21.3378901 L144.069207,21.3378901 Z M148.793866,25.0766871 L133.617546,25.0766871 C133.837152,26.4213929 134.422767,27.4912722 135.374392,28.2852739 C136.326016,29.0792756 137.539599,29.4765392 139.016708,29.4765392 C140.781397,29.4765392 142.298244,28.8564717 143.567251,27.6158111 L147.547342,29.4944056 C146.555457,30.9079494 145.366972,31.9547074 143.982933,32.6331034 C142.598895,33.3109738 140.954467,33.649909 139.051218,33.649909 C136.098567,33.649909 133.693363,32.7145529 131.83508,30.8417388 C129.978367,28.9694501 129.049226,26.624754 129.049226,23.8071251 C129.049226,20.9206582 129.975752,18.5234141 131.827237,16.6164437 C133.678199,14.7094733 135.999745,13.7557253 138.791874,13.7557253 C141.756027,13.7557253 144.167507,14.7094733 146.024743,16.6164437 C147.882502,18.5234141 148.810598,21.0420443 148.810598,24.1723344 L148.793866,25.0766871 Z" fill="currentColor" fill-rule="evenodd"/><mask id="c" fill="currentColor"><use xlink:href="#b"/></mask><g/><polygon fill="currentColor" fill-rule="evenodd" mask="url(#c)" points="151.81496 33.162578 156.538573 33.162578 156.538573 6.93845061 151.81496 6.93845061"/><path d="M160.761276,33.1631035 L165.484889,33.1631035 L165.484889,14.242636 L160.761276,14.242636 L160.761276,33.1631035 Z M163.12256,6.45185524 C163.95131,6.45185524 164.661368,6.75348131 165.253781,7.35620797 C165.846193,7.95893464 166.142138,8.68935317 166.142138,9.54746358 C166.142138,10.3934879 165.849853,11.1154988 165.262669,11.7124451 C164.675486,12.3093915 163.974316,12.6078647 163.157592,12.6078647 C162.317862,12.6078647 161.601529,12.3036112 161.009117,11.6951043 C160.416704,11.0865973 160.12076,10.3472456 160.12076,9.47757461 C160.12076,8.64311085 160.41409,7.93003318 161.000228,7.3388671 C161.587412,6.74770102 162.294856,6.45185524 163.12256,6.45185524 L163.12256,6.45185524 Z" fill="currentColor" fill-rule="evenodd" mask="url(#c)"/><path d="M168.877117,14.2427411 L170.555532,14.2427411 C170.567035,11.7619454 170.607296,10.2948026 170.676838,9.84288898 C170.803372,8.79980927 171.238401,7.9737532 171.982968,7.36472077 C172.727013,6.75621381 173.780075,6.45196034 175.141107,6.45196034 C176.120966,6.45196034 177.228406,6.67791715 178.463427,7.13035626 L178.463427,10.7472417 C177.782126,10.5501864 177.223178,10.4513959 176.784489,10.4513959 C176.230769,10.4513959 175.82659,10.5675272 175.573521,10.7992643 C175.388948,10.9731985 175.296922,11.3326275 175.296922,11.8775513 L175.279145,14.2427411 L178.272579,14.2427411 L178.272579,18.260043 L175.279145,18.260043 L175.279145,33.1632085 L170.555532,33.1632085 L170.555532,18.260043 L168.877117,18.260043 L168.877117,14.2427411 Z" fill="currentColor" fill-rule="evenodd" mask="url(#c)"/><path d="M194.728206,21.3378901 C194.416052,20.2832498 193.801157,19.4246139 192.882473,18.7640843 C191.963266,18.1035548 190.897656,17.7730273 189.684596,17.7730273 C188.367485,17.7730273 187.211941,18.1440168 186.217964,18.8859959 C185.593657,19.3499956 185.016407,20.166593 184.484648,21.3378901 L194.728206,21.3378901 Z M199.452865,25.0766871 L184.276545,25.0766871 C184.496151,26.4213929 185.081243,27.4912722 186.033391,28.2852739 C186.985015,29.0792756 188.198598,29.4765392 189.675707,29.4765392 C191.440396,29.4765392 192.957243,28.8564717 194.22625,27.6158111 L198.206341,29.4944056 C197.214456,30.9079494 196.025971,31.9547074 194.641933,32.6331034 C193.257894,33.3109738 191.613466,33.649909 189.710217,33.649909 C186.757567,33.649909 184.352362,32.7145529 182.49408,30.8417388 C180.637366,28.9694501 179.708225,26.624754 179.708225,23.8071251 C179.708225,20.9206582 180.634752,18.5234141 182.486236,16.6164437 C184.337198,14.7094733 186.658744,13.7557253 189.450873,13.7557253 C192.415027,13.7557253 194.826506,14.7094733 196.683742,16.6164437 C198.541502,18.5234141 199.469597,21.0420443 199.469597,24.1723344 L199.452865,25.0766871 Z" fill="currentColor" fill-rule="evenodd" mask="url(#c)"/><path d="M86.3276116,45.8298746 L85.6112789,46.2775843 C84.9927229,45.4515283 84.1488097,45.0390257 83.0790165,45.0390257 C82.2236001,45.0390257 81.5140647,45.3154287 80.9488416,45.8677092 C80.3841413,46.4205152 80.1017912,47.0920798 80.1017912,47.8818777 C80.1017912,48.3963236 80.2314631,48.8797661 80.4913298,49.3332561 C80.7511965,49.7862207 81.1083171,50.138293 81.5611231,50.3889474 C82.0144519,50.6390763 82.5226821,50.7646663 83.0852909,50.7646663 C84.1163918,50.7646663 84.9582135,50.3516382 85.6112789,49.5255822 L86.3276116,49.999566 C85.9919287,50.5066551 85.5417371,50.9007658 84.9759911,51.1808472 C84.4102451,51.4609285 83.7665913,51.6007065 83.0434613,51.6007065 C81.9339298,51.6007065 81.0131547,51.2465323 80.2821816,50.5376585 C79.5512084,49.8282592 79.185199,48.9664704 79.185199,47.9501902 C79.185199,47.267065 79.3561777,46.6328095 79.6981351,46.0474237 C80.0406153,45.4615124 80.5101531,45.004344 81.1083171,44.6759184 C81.7059582,44.3474928 82.3747098,44.1830172 83.1145717,44.1830172 C83.5794036,44.1830172 84.0275038,44.2544826 84.4599178,44.396888 C84.8918089,44.5398188 85.2588641,44.7253136 85.5600375,44.9549488 C85.8606881,45.1840585 86.1168947,45.4757004 86.3276116,45.8298746" fill="currentColor" fill-rule="evenodd" mask="url(#c)"/><path d="M87.9046939,41.6414235 L88.8082144,41.6414235 L88.8082144,45.6292985 C89.1737009,45.144805 89.5757884,44.7832741 90.0144769,44.5426039 C90.4531653,44.3029845 90.9284547,44.1831749 91.440345,44.1831749 C91.9653071,44.1831749 92.430662,44.3171725 92.8374553,44.5851678 C93.2437258,44.8531631 93.5438535,45.2131176 93.7373156,45.6645057 C93.9307778,46.1164193 94.0275088,46.8242422 94.0275088,47.7879743 L94.0275088,51.4190477 L93.1239884,51.4190477 L93.1239884,48.0538676 C93.1239884,47.2414741 93.0920933,46.6986522 93.0272574,46.4264531 C92.915363,45.959826 92.7124892,45.6088047 92.4175902,45.3733893 C92.1232141,45.1374483 91.7373355,45.0197406 91.2599547,45.0197406 C90.7135549,45.0197406 90.224148,45.2010315 89.791734,45.5641388 C89.3598429,45.9272462 89.0748784,46.3770579 88.9373634,46.912523 C88.8510898,47.2582895 88.8082144,47.8983253 88.8082144,48.8321049 L88.8082144,51.4190477 L87.9046939,51.4190477 L87.9046939,41.6414235 Z" fill="currentColor" fill-rule="evenodd" mask="url(#c)"/><path d="M95.6882505,44.3648336 L96.5917709,44.3648336 L96.5917709,47.6585483 C96.5917709,48.4625342 96.6346463,49.0163911 96.7209199,49.3185427 C96.850069,49.7510135 97.096341,50.0920506 97.4607819,50.3432305 C97.8246998,50.593885 98.2586824,50.7189494 98.7627297,50.7189494 C99.266777,50.7189494 99.6939623,50.5965124 100.045331,50.3526892 C100.396177,50.108866 100.638789,49.7872717 100.772121,49.3900081 C100.862578,49.1172835 100.907545,48.5403054 100.907545,47.6585483 L100.907545,44.3648336 L101.830412,44.3648336 L101.830412,47.8272277 C101.830412,48.7993675 101.717472,49.5324134 101.491591,50.0247891 C101.265711,50.5182157 100.926368,50.9033932 100.472517,51.1829491 C100.018665,51.461454 99.4497817,51.601232 98.7658669,51.601232 C98.0819522,51.601232 97.5109774,51.461454 97.0529428,51.1829491 C96.5949081,50.9033932 96.2529507,50.5145373 96.0270706,50.0153304 C95.8011905,49.516649 95.6882505,48.7652112 95.6882505,47.7625935 L95.6882505,44.3648336 Z" fill="currentColor" fill-rule="evenodd" mask="url(#c)"/><path d="M103.336488,44.3648336 L104.259355,44.3648336 L104.259355,45.3958273 C104.534385,44.989105 104.824578,44.685377 105.129934,44.4846433 C105.435291,44.2839096 105.753719,44.1830172 106.084696,44.1830172 C106.334105,44.1830172 106.601292,44.2634158 106.885211,44.4226366 L106.414105,45.1877368 C106.224303,45.1062873 106.06535,45.0647743 105.936724,45.0647743 C105.63555,45.0647743 105.344834,45.1893133 105.065621,45.4378658 C104.785885,45.6864183 104.573077,46.0721213 104.426673,46.5949748 C104.314779,46.9974933 104.259355,47.8098868 104.259355,49.0332065 L104.259355,51.4194155 L103.336488,51.4194155 L103.336488,44.3648336 Z" fill="currentColor" fill-rule="evenodd" mask="url(#c)"/><path d="M114.216694,45.8298746 L113.500884,46.2775843 C112.881805,45.4515283 112.037892,45.0390257 110.968098,45.0390257 C110.112682,45.0390257 109.403147,45.3154287 108.837924,45.8677092 C108.273223,46.4205152 107.990873,47.0920798 107.990873,47.8818777 C107.990873,48.3963236 108.120545,48.8797661 108.380412,49.3332561 C108.640801,49.7862207 108.997399,50.138293 109.450205,50.3889474 C109.903534,50.6390763 110.411764,50.7646663 110.974373,50.7646663 C112.005474,50.7646663 112.847818,50.3516382 113.500884,49.5255822 L114.216694,49.999566 C113.881011,50.5066551 113.430819,50.9007658 112.865073,51.1808472 C112.299327,51.4609285 111.655673,51.6007065 110.933066,51.6007065 C109.823012,51.6007065 108.902237,51.2465323 108.171264,50.5376585 C107.44029,49.8282592 107.074281,48.9664704 107.074281,47.9501902 C107.074281,47.267065 107.24526,46.6328095 107.587217,46.0474237 C107.929697,45.4615124 108.399235,45.004344 108.997399,44.6759184 C109.59504,44.3474928 110.263792,44.1830172 111.003654,44.1830172 C111.467963,44.1830172 111.917109,44.2544826 112.349,44.396888 C112.781414,44.5398188 113.147946,44.7253136 113.448597,44.9549488 C113.74977,45.1840585 114.005977,45.4757004 114.216694,45.8298746" fill="currentColor" fill-rule="evenodd" mask="url(#c)"/><path d="M115.793985,41.6414235 L116.697505,41.6414235 L116.697505,45.6292985 C117.062992,45.144805 117.46508,44.7832741 117.903768,44.5426039 C118.342456,44.3029845 118.817746,44.1831749 119.329636,44.1831749 C119.854598,44.1831749 120.319953,44.3171725 120.726746,44.5851678 C121.133017,44.8531631 121.432622,45.2131176 121.626084,45.6645057 C121.820069,46.1164193 121.9168,46.8242422 121.9168,47.7879743 L121.9168,51.4190477 L121.01328,51.4190477 L121.01328,48.0538676 C121.01328,47.2414741 120.981384,46.6986522 120.917071,46.4264531 C120.804654,45.959826 120.601257,45.6088047 120.307404,45.3733893 C120.011982,45.1374483 119.626627,45.0197406 119.148723,45.0197406 C118.602846,45.0197406 118.113962,45.2010315 117.681025,45.5641388 C117.248611,45.9272462 116.963647,46.3770579 116.826655,46.912523 C116.740381,47.2582895 116.697505,47.8983253 116.697505,48.8321049 L116.697505,51.4190477 L115.793985,51.4190477 L115.793985,41.6414235 Z" fill="currentColor" fill-rule="evenodd" mask="url(#c)"/><polygon fill="currentColor" fill-rule="evenodd" mask="url(#c)" points="126.661223 54 127.58409 54 127.58409 41.6412133 126.661223 41.6412133"/><path d="M135.896426,45.8170528 C135.34166,45.8170528 134.881534,46.0072769 134.515524,46.3877252 C134.150038,46.7681734 133.967556,47.2652784 133.967556,47.8790401 C133.967556,48.5059389 134.150038,49.0125026 134.515524,49.3992565 C134.881534,49.786536 135.34166,49.979913 135.896426,49.979913 C136.433937,49.979913 136.887265,49.7833831 137.254843,49.3897979 C137.622421,48.9967381 137.805949,48.4949038 137.805949,47.8858714 C137.805949,47.2805173 137.625559,46.7844633 137.264255,46.3971838 C136.902951,46.0104298 136.447008,45.8170528 135.896426,45.8170528 L135.896426,45.8170528 Z M134.044941,41.6415811 L134.044941,45.1428608 C134.362846,44.8228429 134.707418,44.5826981 135.07761,44.4229518 C135.44728,44.2632056 135.84257,44.1833325 136.264004,44.1833325 C137.180596,44.1833325 137.958627,44.5312009 138.599667,45.2269377 C139.240706,45.9232 139.561226,46.8154667 139.561226,47.9053142 C139.561226,48.9557506 139.229726,49.8343548 138.567249,50.5406012 C137.905294,51.2473731 137.120466,51.6010218 136.212239,51.6010218 C135.80806,51.6010218 135.431594,51.5285054 135.083362,51.3839981 C134.73513,51.2384399 134.38899,51.0019735 134.044941,50.6735479 L134.044941,51.4192054 L132.296461,51.4192054 L132.296461,41.6415811 L134.044941,41.6415811 Z" fill="currentColor" fill-rule="evenodd" mask="url(#c)"/><path d="M146.132245,47.0101574 C146.015645,46.6170976 145.786628,46.2970797 145.444148,46.0506291 C145.101144,45.8041785 144.704286,45.681216 144.25148,45.681216 C143.760504,45.681216 143.329659,45.818892 142.958944,46.0958205 C142.726266,46.2687037 142.510843,46.5734827 142.312675,47.0101574 L146.132245,47.0101574 Z M147.893274,48.4042583 L142.235291,48.4042583 C142.316858,48.9055672 142.535418,49.3044072 142.889925,49.6007785 C143.244954,49.8966243 143.69776,50.0442844 144.24782,50.0442844 C144.906114,50.0442844 145.47186,49.8135983 145.945058,49.3506496 L147.428442,50.0511157 C147.058772,50.5786986 146.615901,50.9686054 146.099827,51.2218873 C145.583754,51.4741181 144.970427,51.600759 144.261414,51.600759 C143.159726,51.600759 142.263526,51.2518397 141.570722,50.5534755 C140.877918,49.8556368 140.531778,48.9812364 140.531778,47.9308 C140.531778,46.854615 140.876873,45.9607719 141.567585,45.2492707 C142.257774,44.5388204 143.123125,44.1830698 144.16416,44.1830698 C145.270032,44.1830698 146.168323,44.5388204 146.86165,45.2492707 C147.55393,45.9607719 147.900071,46.8998064 147.900071,48.067425 L147.893274,48.4042583 Z" fill="currentColor" fill-rule="evenodd" mask="url(#c)"/><path d="M152.489934,45.8170528 C151.945102,45.8170528 151.493342,46.0104298 151.133084,46.3971838 C150.772827,46.7844633 150.592959,47.2805173 150.592959,47.8858714 C150.592959,48.4949038 150.775964,48.9967381 151.142496,49.3897979 C151.509028,49.7833831 151.960266,49.979913 152.496208,49.979913 C153.048882,49.979913 153.507963,49.786536 153.872404,49.3992565 C154.236844,49.0125026 154.41828,48.5059389 154.41828,47.8790401 C154.41828,47.2652784 154.236844,46.7681734 153.872404,46.3877252 C153.507963,46.0072769 153.046791,45.8170528 152.489934,45.8170528 L152.489934,45.8170528 Z M154.341418,44.3646235 L156.102447,44.3646235 L156.102447,51.4192054 L154.341418,51.4192054 L154.341418,50.6735479 C153.997893,51.0019735 153.652798,51.2384399 153.306658,51.3839981 C152.96104,51.5285054 152.586665,51.6010218 152.182486,51.6010218 C151.276351,51.6010218 150.492045,51.2473731 149.830091,50.5406012 C149.16866,49.8343548 148.838205,48.9557506 148.838205,47.9053142 C148.838205,46.8154667 149.158202,45.9232 149.798196,45.2269377 C150.438189,44.5312009 151.215698,44.1833325 152.130722,44.1833325 C152.552155,44.1833325 152.946923,44.2632056 153.316592,44.4229518 C153.686262,44.5826981 154.027173,44.8228429 154.341418,45.1428608 L154.341418,44.3646235 Z" fill="currentColor" fill-rule="evenodd" mask="url(#c)"/><path d="M164.596114,45.7914094 L163.129985,46.601701 C162.854432,46.312161 162.582016,46.1109018 162.312738,45.9989743 C162.04346,45.8865214 161.728691,45.8297695 161.366342,45.8297695 C160.707525,45.8297695 160.17472,46.0273503 159.767927,46.422512 C159.36061,46.8171482 159.157737,47.3231864 159.157737,47.9406265 C159.157737,48.5402003 159.35329,49.030474 159.745443,49.4103967 C160.137073,49.789794 160.651578,49.9800181 161.288957,49.9800181 C162.077446,49.9800181 162.690773,49.7099209 163.129985,49.1697265 L164.519252,50.1250508 C163.766318,51.1087512 162.703845,51.6011269 161.331833,51.6011269 C160.097335,51.6011269 159.130547,51.2332902 158.431469,50.4986678 C157.732391,49.7640454 157.383114,48.9033076 157.383114,47.9180308 C157.383114,47.2349056 157.553047,46.6059048 157.892913,46.0310287 C158.232778,45.4561525 158.706499,45.0042389 159.315121,44.6758133 C159.923742,44.3473877 160.60452,44.1829121 161.357453,44.1829121 C162.05444,44.1829121 162.680316,44.3226901 163.234559,44.601195 C163.789847,44.8802254 164.243699,45.2769635 164.596114,45.7914094" fill="currentColor" fill-rule="evenodd" mask="url(#c)"/><path d="M166.030923,41.6414235 L167.779402,41.6414235 L167.779402,45.078069 C168.123451,44.7795958 168.469592,44.5557409 168.818346,44.4070298 C169.166578,44.2577932 169.519516,44.1831749 169.876114,44.1831749 C170.573623,44.1831749 171.160284,44.4254216 171.637665,44.9093896 C172.04655,45.3287234 172.250992,45.9445871 172.250992,46.7569806 L172.250992,51.4190477 L170.515061,51.4190477 L170.515061,48.3265923 C170.515061,47.5094694 170.476369,46.9561379 170.398984,46.6665979 C170.321599,46.3770579 170.189313,46.1610852 170.002125,46.0181544 C169.814938,45.8757491 169.583829,45.8042836 169.308799,45.8042836 C168.951678,45.8042836 168.645276,45.9230423 168.389592,46.1610852 C168.133386,46.3986026 167.956133,46.7228244 167.856787,47.133225 C167.805546,47.3449938 167.779402,47.8289618 167.779402,48.5856544 L167.779402,51.4190477 L166.030923,51.4190477 L166.030923,41.6414235 Z" fill="currentColor" fill-rule="evenodd" mask="url(#c)"/><path d="M178.092189,45.3501104 L177.001481,46.4462637 C176.558609,46.0048597 176.156522,45.7846832 175.795218,45.7846832 C175.597573,45.7846832 175.442803,45.8267217 175.330909,45.9107986 C175.219015,45.9959265 175.162545,46.1004973 175.162545,46.2255617 C175.162545,46.3206738 175.198623,46.4084291 175.269733,46.4883022 C175.340321,46.5681753 175.515482,46.6769499 175.795218,46.8156768 L176.44044,47.1398986 C177.120172,47.4772574 177.586573,47.8203964 177.840688,48.1708922 C178.09428,48.5208626 178.221338,48.9312632 178.221338,49.4026196 C178.221338,50.0295184 177.99232,50.552372 177.534286,50.9717058 C177.076251,51.3910396 176.461878,51.601232 175.69169,51.601232 C174.668432,51.601232 173.851185,51.1987135 173.240472,50.3952532 L174.324383,49.2081917 C174.530394,49.4504384 174.772483,49.6459173 175.050127,49.7951539 C175.327772,49.943865 175.574044,50.0190088 175.788944,50.0190088 C176.021098,50.0190088 176.207763,49.9622568 176.349984,49.8498039 C176.491682,49.7378765 176.562792,49.6086082 176.562792,49.460948 C176.562792,49.1887489 176.307108,48.9228555 175.795218,48.6637934 L175.20176,48.3653202 C174.066085,47.7909695 173.498247,47.0705351 173.498247,46.2061189 C173.498247,45.6485836 173.712102,45.1719724 174.140333,44.7762852 C174.568564,44.3805981 175.116009,44.1830172 175.782146,44.1830172 C176.23809,44.1830172 176.666843,44.2839096 177.069454,44.4846433 C177.471541,44.685377 177.812453,44.9738661 178.092189,45.3501104" fill="currentColor" fill-rule="evenodd" mask="url(#c)"/><path d="M179.256256,51.419363 L181.017284,51.419363 L181.017284,44.3647811 L179.256256,44.3647811 L179.256256,51.419363 Z M180.13677,41.4599223 C180.445786,41.4599223 180.710882,41.5723753 180.93101,41.7967556 C181.152184,42.0216615 181.26251,42.2943861 181.26251,42.6138785 C181.26251,42.9296926 181.15323,43.1987388 180.93467,43.4210173 C180.715587,43.6438212 180.454152,43.7552232 180.149841,43.7552232 C179.836642,43.7552232 179.569455,43.6417193 179.348804,43.4147115 C179.127629,43.1877037 179.017304,42.9118262 179.017304,42.58813 C179.017304,42.2765198 179.126584,42.0111519 179.345666,41.7909754 C179.564226,41.5702733 179.827753,41.4599223 180.13677,41.4599223 L180.13677,41.4599223 Z" fill="currentColor" fill-rule="evenodd" mask="url(#c)"/><path d="M185.788687,45.8170528 C185.243856,45.8170528 184.792096,46.0104298 184.431838,46.3971838 C184.07158,46.7844633 183.891713,47.2805173 183.891713,47.8858714 C183.891713,48.4949038 184.074717,48.9967381 184.44125,49.3897979 C184.807782,49.7833831 185.259019,49.979913 185.794962,49.979913 C186.347636,49.979913 186.806716,49.786536 187.171157,49.3992565 C187.535598,49.0125026 187.717034,48.5059389 187.717034,47.8790401 C187.717034,47.2652784 187.535598,46.7681734 187.171157,46.3877252 C186.806716,46.0072769 186.345544,45.8170528 185.788687,45.8170528 L185.788687,45.8170528 Z M187.640172,41.6415811 L189.4012,41.6415811 L189.4012,51.4192054 L187.640172,51.4192054 L187.640172,50.6735479 C187.296646,51.0019735 186.951552,51.2384399 186.605411,51.3839981 C186.259794,51.5285054 185.885418,51.6010218 185.481239,51.6010218 C184.575105,51.6010218 183.790799,51.2473731 183.128844,50.5406012 C182.467413,49.8343548 182.136959,48.9557506 182.136959,47.9053142 C182.136959,46.8154667 182.456956,45.9232 183.096949,45.2269377 C183.736943,44.5312009 184.514452,44.1833325 185.429475,44.1833325 C185.850909,44.1833325 186.245676,44.2632056 186.615346,44.4229518 C186.985015,44.5826981 187.325927,44.8228429 187.640172,45.1428608 L187.640172,41.6415811 Z" fill="currentColor" fill-rule="evenodd" mask="url(#c)"/><path d="M196.294622,47.0101574 C196.178022,46.6170976 195.949004,46.2970797 195.606524,46.0506291 C195.263521,45.8041785 194.866662,45.681216 194.413856,45.681216 C193.922881,45.681216 193.492035,45.818892 193.12132,46.0958205 C192.888643,46.2687037 192.67322,46.5734827 192.475052,47.0101574 L196.294622,47.0101574 Z M198.05565,48.4042583 L192.397667,48.4042583 C192.479235,48.9055672 192.697795,49.3044072 193.052301,49.6007785 C193.40733,49.8966243 193.860136,50.0442844 194.410196,50.0442844 C195.06849,50.0442844 195.634236,49.8135983 196.107434,49.3506496 L197.590818,50.0511157 C197.221149,50.5786986 196.778277,50.9686054 196.262204,51.2218873 C195.746131,51.4741181 195.132803,51.600759 194.423791,51.600759 C193.322103,51.600759 192.425902,51.2518397 191.733099,50.5534755 C191.040295,49.8556368 190.694155,48.9812364 190.694155,47.9308 C190.694155,46.854615 191.039249,45.9607719 191.729961,45.2492707 C192.420151,44.5388204 193.285502,44.1830698 194.326537,44.1830698 C195.432408,44.1830698 196.3307,44.5388204 197.024026,45.2492707 C197.716307,45.9607719 198.062448,46.8998064 198.062448,48.067425 L198.05565,48.4042583 Z" fill="currentColor" fill-rule="evenodd" mask="url(#c)"/><path d="M50.4360472,25.2966535 C49.8682097,26.6928564 49.4394558,26.978718 47.9131964,26.978718 C46.1824947,26.978718 44.4512701,26.9908041 42.7205684,26.9745142 C41.251302,26.9608517 40.2965402,25.5625468 40.8664692,24.2646089 C41.1979691,23.5094927 41.7956103,23.0954137 42.6264517,23.0906844 C44.5574128,23.0801748 46.4878512,23.0801748 48.4188123,23.088057 C49.3688682,23.0922608 50.0224565,23.5814836 50.3309502,24.4784796 C50.3570937,24.5536234 50.400492,24.6224614 50.4360472,24.6939268 L50.4360472,25.2966535 Z" fill="currentColor" fill-rule="evenodd" mask="url(#c)"/><path d="M5.09960939,38.7099754 C4.2096836,38.6479686 3.45518131,38.084653 3.21622944,37.2559696 C2.96316006,36.3794673 3.29361429,35.5045415 4.11504402,35.0126913 C5.35686173,34.2691358 6.61593417,33.5539562 7.86873216,32.828267 C8.30010042,32.5776126 8.72833145,32.3196014 9.16806564,32.0841859 C10.1233502,31.5734184 11.2402019,31.8776719 11.7777129,32.7820247 C12.3335243,33.7189572 12.0815007,34.8776427 11.1293533,35.449366 C9.44570993,36.4598659 7.74010599,37.4346331 6.03188769,38.40362 C5.75267478,38.5617897 5.41176314,38.6106595 5.09960939,38.7099754" fill="currentColor" fill-rule="evenodd" mask="url(#c)"/><path d="M40.337115,18.3118554 C39.4958162,18.2572054 38.7219676,17.6881095 38.474127,16.90199 C38.2184432,16.0911729 38.4777871,15.1752596 39.205623,14.7380594 C40.9729256,13.6760624 42.7538229,12.6335082 44.5629553,11.6461294 C45.4800703,11.1453461 46.5896018,11.5709857 47.081623,12.4879499 C47.5621411,13.3823185 47.3033202,14.4979146 46.41078,15.0328542 C44.6989016,16.059644 42.9640169,17.0464973 41.2275636,18.0296722 C40.9619454,18.1794342 40.6351512,18.2204217 40.337115,18.3118554" fill="currentColor" fill-rule="evenodd" mask="url(#c)"/><path d="M27.5507324,4.86464 C27.5507324,5.81733698 27.5575297,6.77003396 27.5491638,7.72273094 C27.5397521,8.85304049 26.6953161,9.71798215 25.6129739,9.72114101 C24.529586,9.72376244 23.6715553,8.85934626 23.6663266,7.73324056 C23.6579607,5.81155669 23.6569149,3.88934733 23.6668495,1.96766346 C23.6726011,0.843134202 24.5353376,-0.00919591682 25.6270914,0.000184781865 C26.6947932,0.00919591682 27.536092,0.856796707 27.548118,1.95662836 C27.5590983,2.92614073 27.5507324,3.89512762 27.5507324,4.86464" fill="currentColor" fill-rule="evenodd" mask="url(#c)"/><path d="M4.86588622,27.0004729 C3.91687606,27.0004729 2.96786589,27.0036258 2.01885573,26.9999475 C0.882657884,26.9952181 0.0162612761,26.1691621 5.22870614e-05,25.0824674 C-0.0151109608,24.0357094 0.830893693,23.1297802 1.92787624,23.1134903 C3.89230114,23.0845888 5.85777178,23.0798595 7.82167381,23.1161177 C8.9285909,23.1366114 9.73015155,24.0414896 9.69982505,25.1160982 C9.66897569,26.2001654 8.83447419,26.9946926 7.71291672,26.999422 C6.76390655,27.0036258 5.81489639,27.0004729 4.86588622,27.0004729" fill="currentColor" fill-rule="evenodd" mask="url(#c)"/><path d="M34.4682583,12.2393449 C32.7203019,12.2388194 31.7289392,10.7390968 32.4018737,9.48109534 C33.3686614,7.67238987 34.4107426,5.90204451 35.4732157,4.14798906 C36.0039293,3.27253778 37.1505846,3.06549828 38.0326673,3.5783677 C38.9053384,4.08545683 39.2859882,5.20473127 38.7918754,6.10015083 C37.8088787,7.88205677 36.7803922,9.63873962 35.742494,11.3885912 C35.3953079,11.973977 34.8201503,12.2330391 34.4682583,12.2393449" fill="currentColor" fill-rule="evenodd" mask="url(#c)"/><path d="M45.3165687,38.724899 C44.9651996,38.5924778 44.5892557,38.5036716 44.2661216,38.3208042 C42.6452227,37.4048909 41.0347812,36.4700602 39.4279998,35.5289238 C38.396899,34.9251462 38.0758564,33.798515 38.6342822,32.8263753 C39.1744076,31.8857643 40.3194942,31.5683738 41.3150399,32.130113 C42.9934546,33.0786061 44.6608889,34.046542 46.3210031,35.0270895 C47.1398185,35.510532 47.4718414,36.3938655 47.2177262,37.2645874 C46.9792972,38.0796084 46.2101546,38.6481788 45.3165687,38.724899" fill="currentColor" fill-rule="evenodd" mask="url(#c)"/><path d="M27.5531899,45.6191042 C27.5531899,46.5886165 27.5589415,47.5576034 27.5516213,48.5271158 C27.5432553,49.6269474 26.7087538,50.4829559 25.6468036,50.4945165 C24.5770104,50.5060771 23.6876074,49.6768681 23.6750585,48.5880716 C23.653098,46.616467 23.6515294,44.6438115 23.6761043,42.6722069 C23.689176,41.5891907 24.6005395,40.751574 25.661444,40.7752207 C26.7066624,40.7983418 27.5401181,41.6443662 27.5510984,42.7110925 C27.5605101,43.6806049 27.5531899,44.6495918 27.5531899,45.6191042" fill="currentColor" fill-rule="evenodd" mask="url(#c)"/><path d="M16.4857445,11.842062 C15.735948,11.848282 15.1691563,11.5067193 14.7973952,10.8724638 C13.8191043,9.20248533 12.8470879,7.52882847 11.9001692,5.8415091 C11.3527236,4.86516548 11.6763805,3.73485593 12.6091817,3.18677929 C13.54146,2.63975361 14.677135,2.91458015 15.2522927,3.884618 C16.2467926,5.56352968 17.2282207,7.25137452 18.1709564,8.96023861 C18.9071583,10.2949602 17.982723,11.8367214 16.4857445,11.842062" fill="currentColor" fill-rule="evenodd" mask="url(#c)"/><path d="M10.0543313,18.3636153 C9.71603404,18.2422292 9.35263896,18.1665599 9.0441453,17.9921003 C7.40965176,17.0677793 5.78561563,16.1250664 4.1652396,15.1765733 C3.12891004,14.5696428 2.81048184,13.4603525 3.36838478,12.4792795 C3.90275855,11.5391941 5.05987122,11.2170742 6.05227965,11.7782879 C7.73017145,12.726781 9.3965601,13.6962934 11.0571972,14.6752644 C11.8728753,15.156605 12.2038524,16.0373111 11.9502602,16.9132879 C11.7133998,17.7298853 10.9510544,18.2926754 10.0543313,18.3636153" fill="currentColor" fill-rule="evenodd" mask="url(#c)"/><path d="M16.7097422,38.6410932 C18.1617539,38.6484941 19.1285417,40.1587264 18.4346924,41.4393235 C17.4731333,43.2128217 16.4524899,44.9558421 15.413546,46.6857254 C14.8708063,47.5906036 13.724151,47.8228662 12.8284737,47.2968598 C11.9228618,46.765073 11.5683555,45.6647159 12.0828602,44.736191 C13.053308,42.9852885 14.0572196,41.2533032 15.0762944,39.5307766 C15.4302778,38.9327793 16.003344,38.6369335 16.7097422,38.6410932" fill="currentColor" fill-rule="evenodd" mask="url(#c)"/><path d="M38.8208948,45.173759 C38.7544902,46.0544651 38.2107048,46.8122087 37.4206473,47.0570828 C36.556865,47.3250781 35.6522988,47.0034837 35.1675978,46.2063291 C34.6306097,45.3235211 34.1317911,44.416541 33.6151949,43.5205959 C33.1655262,42.7402567 32.7043543,41.9662233 32.265143,41.1801037 C31.7082858,40.1822154 32.0021391,39.0235299 32.9344174,38.4759787 C33.8708787,37.9263256 35.0358344,38.2274262 35.6141293,39.2095501 C36.5871915,40.8627132 37.5424761,42.5269114 38.4836432,44.1984664 C38.6493932,44.4932612 38.7110919,44.8469099 38.8208948,45.173759" fill="currentColor" fill-rule="evenodd" mask="url(#c)"/><path d="M34.6503219,21.6101943 C34.6503219,21.8624252 34.4511082,22.0678882 34.2048361,22.0678882 L33.5041895,22.0678882 L23.5905627,22.0678882 L22.9761897,22.0678882 C22.9699152,22.0678882 22.9641637,22.0699902 22.9578892,22.0705157 L22.9537062,22.0705157 C22.7210288,22.0705157 22.5322725,22.2602143 22.5322725,22.4940533 L22.5401156,29.5733328 C22.5401156,29.7667098 22.695931,29.9233031 22.8883474,29.9233031 L26.3026925,29.9233031 C26.4951089,29.9233031 26.6509244,29.7667098 26.6509244,29.5733328 L26.6509244,26.9107208 C26.6509244,26.6579644 26.8506609,26.4525014 27.0964101,26.4525014 L34.2048361,26.4525014 C34.4505853,26.4525014 34.6503219,26.6579644 34.6503219,26.9107208 L34.6503219,32.5449276 C34.6503219,33.6736608 33.7394813,34.5885231 32.6168781,34.5885231 L18.0423826,34.5885231 C16.9192565,34.5885231 16.0089387,33.6736608 16.0089387,32.5449276 L16.0089387,17.8981968 C16.0089387,16.7694637 16.9192565,15.8546014 18.0429054,15.8540759 L32.6168781,15.8540759 C33.7394813,15.8540759 34.6503219,16.7694637 34.6503219,17.8976713 L34.6503219,21.6101943 Z M25.2407423,11.4426419 C17.7312745,11.4295262 11.6471521,17.4977803 11.6424441,25.0053268 C11.6382633,32.5265358 17.7004252,38.6252678 25.1879324,38.6326322 C32.6790997,38.6405068 38.7532876,32.5528099 38.756426,25.0342283 C38.759562,17.5308856 32.718315,11.4558002 25.2407423,11.4426419 L25.2407423,11.4426419 Z" fill="currentColor" fill-rule="evenodd" mask="url(#c)"/><polygon fill="currentColor" fill-rule="evenodd" mask="url(#c)" points="76.8002816 38.8414507 198.946517 38.8414507 198.946517 37.6359974 76.8002816 37.6359974"/></g></svg>