<?xml version="1.0" encoding="UTF-8"?><svg id="Layer_2" xmlns="http://www.w3.org/2000/svg" viewBox="0 0 848.27 836.65"><g id="Layer_1-2"><path d="M516.52.33c27.11-3.22,34.77,18.01,46.52,37,21.28,34.35,42.16,68.93,62.64,103.76,30.26,49.55,60.76,98.95,91.53,148.18,7.4,11.86,15.24,23.21,22.72,34.94,20.47,32.62,41.18,65.07,62.16,97.36l20.59,31.73c8.12,12.43,19.16,28.62,24.75,42.57,1.83,5.73.51,12.12-2.37,17.15-6.47,11.15-22.32,12.14-33.68,15.67-12.79,3.97-25.97,8.2-38.89,11.82-21.65,6.07-43.76,11.06-65.43,17.08l-313.61,84.75c-22.84,6.3-47.74,11.41-70.32,18.07-4.09,4.9-4.56,7.46-5.56,13.45,21.01-8.17,46.95-13.11,68.89-18.95l153.59-39.62c11.86-3.02,23.45-7.53,35.17-10.57,20.36-5.29,40.34-11.38,60.54-17.1,56.45-15.89,113.15-30.84,170.08-44.84,3.63-3.27,8.85-9.94,10.83-14.38l4.61,4.22c-.04.2-.08.4-.12.59l-.22.98c-.54,2.45-1.1,4.24-2.08,6.54-4.07,9.64-6.95,19.67-11.35,29.17-1.05,2.26-1.97,5.02-2.8,7.38,2.98,3.88,7.25,6.18,9.58,9.06,8.95,11.21,16.91,23.01,21.91,36.55,4.14,11.2,3.52,21.73-8.43,27.65-7.99,3.96-17.68,6.23-26.35,8.66-12.41,3.42-24.8,6.92-37.18,10.48-20.8,6.66-41.98,12.21-63.02,18.4l-173.53,49.89-59.48,17.39c-7.41,2.18-25.42,7.91-32.07,8.56,5.13,10.34,21.16,28.5,30.26,35.29,5.86,4.38,11.29,7.92,17.3,13.06-.43,1.7-.82,4.24-1.99,5.36-3.88,1.08-23.89-3.67-28.49-5.32-3.09-1.1-7.31-3.16-10.37-4.72,1.89,6.07,9.21,25.24,1.25,29.06-7.64-2.18-33.23-31.95-38.85-39.75-4.6-6.38-9.1-16.6-13.98-23.24-6.46,5.24-28.83,10.46-37.4,13.09-21.74,6.67-44.56,16.27-63.84-1.57-2.61-2.41-7.32-4.79-10-7.35-12.52-11.28-17.98-28.79-25.41-43.48-9.21-18.07-17.36-36.57-26.33-54.64l-105.76-212.76-82.68-164.75C26.55,275.42,2.81,237.53.35,208.6c-2.33-29.03,7.1-57.79,26.17-79.8,21.06-24.71,44.18-24.26,73.59-31.09l88.27-21.25c70.48-17.43,141.07-34.4,211.78-50.89l51.15-12.06c18.13-4.45,47.22-11.68,65.23-13.17Z"/><path d="M512.91,8.81c11.04-1.73,22.4.45,28.78,10.41,5.66,8.86,10.8,17.97,16.39,26.89,17,27.14,33.65,54.49,49.93,82.07,33.94,55.93,68.28,111.62,103.02,167.06l61.04,95.27c16.57,25.22,32.86,50.63,48.85,76.22,5.16,8.34,10.48,16.63,15.1,25.29,2.47,4.65,4.77,9.55,2.63,14.87-1.9,4.72-8.27,8.32-12.98,9.69-41.05,11.97-82.63,22.09-123.9,33.29l-315.47,83.99c-11.6,2.97-28.43,8.35-40.3,5.84-5.82-1.23-10.78-7.65-13.71-12.66-11.39-19.51-21.32-40.27-31.67-60.29-19.77-37.43-39.08-75.11-57.9-113.02-32.95-64.6-66.44-128.92-100.46-192.96l-51.41-98.87c-8.47-15.97-16.6-32.01-25.77-47.62,17.47-4.88,36.91-8.88,54.73-13.28l191.99-45.66,120.31-28.34,38.49-9.47c12.94-3.26,29.02-7.44,42.32-8.74Z" fill="#fff"/><path d="M513.18,27.33c16.43-.94,22.97,16.39,30.36,28.34l26.97,44.06c8.36,13.43,15.38,27.12,23.65,40.6l132.67,213.94c14.24,22.85,28.75,45.54,43.52,68.06,8.99,13.62,18.06,27.04,26.4,41.03,5.55,8.36,11.89,14.67,11.6,25.4-.19,7.46-.55,11.29-8.96,13.66-17.61,5.35-36.15,8.51-53.85,13.38-20.82,5.73-41.73,11.07-62.59,16.61l-293.51,76.97c-3.08.91-6.18,1.76-9.3,2.52-7.83,1.9-11.66,2.39-19.68,2.07-16.95-.67-19.71-13.34-26.46-26.87-4.08-8.08-8.22-16.12-12.4-24.14-11.22-21.7-22.9-42.61-34.03-64.62l-122.89-237.57c-8.58-16.26-17.68-32.38-26.32-48.61-8.64-16.47-17.16-33-25.55-49.59-4.62-9.02-11.13-19.99-14.19-29.29-4.6-13.97,24.62-16.03,33.92-18.15,14.44-3.34,28.85-6.79,43.23-10.36l159.98-37.66,104.57-24.78c15.86-3.76,31.67-8.41,47.57-11.69,7.72-1.59,17.44-2.49,25.29-3.31Z"/><path d="M508.02,32.77c6.18-.69,13.76.35,17.62,5.68,7.94,10.96,14.33,22.87,21.48,34.37,12.49,20.09,25.79,39.65,36.97,60.52,11.8,21.07,26.54,41.95,39.2,62.82l121.12,195.48c10.12,16,20.67,32.83,31.12,48.56l14.79,22.5c4.85,7.41,16.05,21.82,12.27,30.92-6.17,5.08-38.51,12.14-47.83,14.58l-61.14,16.38c-67.03,18.08-135.78,36.84-202.95,53.97l-62.17,15.63c-11.49,2.82-23.06,5.21-34.45,8.4-11.07,3.15-28.4,8.82-39.35,4.02-7.65-3.35-10.62-12.52-14.16-19.64-3.74-7.49-7.58-14.93-11.52-22.32l-45.8-87.05-112.93-217.88-46.07-88.91c-6.34-12.27-13.56-24.33-18.8-37.09-1.93-4.7.83-7.49,5.39-8.44,20.54-4.27,40.95-9.16,61.36-14.04l130.43-31.35,138.65-32.65c14.15-3.29,28.3-7.21,42.45-10.27,7.67-1.66,16.38-2.68,24.32-4.16Z" fill="#fff"/><path d="M338.36,143.81c12.12-.77,20.24,1.98,30.04,9.94,18.56,15.08,31.37,43.78,14.8,65.08-5.27,6.77-12.51,8.47-20.57,9.28-11.85.28-20.67-3.3-29.94-10.52-12.16-9.45-22.42-22.79-24.02-38.57-2.23-22.05,8.44-32.85,29.7-35.21Z"/><path d="M333.65,151.23c22.97-2.14,38.26,19.3,43.79,39.22,3.43,12.38,1.69,27.18-13.06,30.62-6.07.36-13.79-2.7-19.04-5.65-12.18-6.84-20.83-20.57-24.43-33.78-1.88-6.91-2.49-17,1.45-23.21,2.97-4.68,6.23-6.08,11.29-7.19Z" fill="#fff"/><path d="M298.72,273.36c10.79,1.07,27.76,19.25,19.51,29.8-.87,1.11-2.17,2.45-2.26,3.8,3.73,1.21,8.37,2.59,11.99,4.16,7.61,3.31,13.35,10.39,16.25,18.03,1.8,4.75,1.32,11.43-1.03,16.02-5.53,10.82-19.55,11.76-29.98,14.4-5.19,1.31-10.09,2.99-15.13,4.67l-2.52.65c-1.89.5-2.73,1.04-4.53.32-1.27-1.32-1.22-3.08-1.46-4.96,1.65-.99,3.47-1.98,5.16-2.93-1.24-3.56-3.33-8.05-4.96-11.48-8.35-17.54-15.5-35.93-25.35-52.68-2.51-4.27-8.77-2.45-11.43-6.44-.02-1.36-.35-1.95.62-2.6,2.19-1.46,6.4-2.11,8.79-2.85,12.48-3.85,23.2-6.95,36.34-7.91Z"/><path d="M305.42,315.26c13.05-1.39,21.69,6.13,26.48,17.42,5.23,12.33-6.36,16.1-15.13,18.72-4.31,1.21-7.37,1.37-11.77,1.51-2.62-5.67-4.5-11.39-7.47-17.33-2.35-4.72-6.62-11.89-8.29-16.3,5.09-1.76,10.89-3.07,16.19-4.01Z" fill="#fff"/><path d="M285.07,282.8c10.45-.91,27.13,3.32,23.84,18.68-.83,3.9-7.35,6.42-10.99,7.74-3.63,1.13-7.29,2.61-11.04,2.19-2.33-1.24-11.29-22.72-12.71-26.36,4.2-1.13,6.64-1.7,10.9-2.25Z" fill="#fff"/><path d="M407.48,242.29c7.47-.6,16.75,1.84,22.86,6.19,2.81,2,5.12,4.62,6.76,7.67,5.71,10.56-2.01,15.39-1.01,20.92,3.75,2.41,9.54,2.99,14.15,5.71,5.93,3.42,11.02,11.29,12.58,18.08,5.14,22.33-22.88,25.91-37.01,28.97-3.89,1.23-10.13,4.34-13.18,1.33-1.2-4.11,1.61-5.01,4.67-6.83-4.04-9.46-9.17-18.73-13.66-28.09-5.45-11.36-10.45-23.54-16.91-34.36-1.73-2.91-3.28-4.07-6.16-5.78h-2.55c-2.64,0-3.86.3-5.63-1.98.02-4.69,12.06-6.14,15.82-7.16,6.44-1.74,12.65-3.86,19.29-4.67Z"/><path d="M426.52,284.27c3.49-.25,5.29-.15,8.77.96,9.52,3.02,19.79,14.46,16.48,24.85-1.62,5.08-10.23,8.58-14.92,10.72-3.59.98-8.54,2.77-11.02-.89-4.27-6.35-6.83-13.79-10.3-20.62-1.39-2.73-5.07-7.82-4.68-10.67,1.73-2.07,12.58-3.84,15.65-4.35Z" fill="#fff"/><path d="M403.06,250.26c5.11-.25,10.4-.88,15.31,1.43,6.55,3.08,13.58,13.45,9.84,20.78-2.04,4.02-5.81,5-9.86,6.18-12.12,3.85-11.42,2.18-16.85-9.03-2.5-5.17-4.6-11.12-7.64-15.95l-.45-.71c3.36-1.51,6.07-2.1,9.64-2.7Z" fill="#fff"/><path d="M281.22,157.62c1.97-.22,4.3.18,5.53,1.86.2,4.09-3.9,4.73-7,5.65,3.81,11.63,14.51,29.3,19.82,41.01,3.75,8.26,7.63,17.9,12.22,25.56,7.37-.34,8.98-1.52,11.65,5.95-6.38-.12-10.7.02-16.87,2.05-3.32,1.09-8.36,3.96-11.57,4.04-4.92-5.03,1.15-6.93,5.29-9.56-1.08-3-13.14-30.93-17.89-32.32-1.75-.51-10.03,2.56-12.44,3.38-5.42,1.83-20.54,3.37-24.28,6.14-.76,2.89,11.13,29.41,14.47,32.67,1.16,1.13,5.75-1.27,8-.31,1.64,1.68,2.01,3.24,2.85,5.45-4.59,1.73-13.81,2.64-19.92,4.34-2.81.75-5.33,2.01-7.99,3.2l-1.84-5.68,7.46-3.68c-10.11-18.45-17.55-39.45-26.77-58.34-3.96-8.09-5.13-9.64-13.86-6.99l-3.46-4.61c5.16-2.03,21.45-6.72,27.51-7.51,1.42-.19,4.21,3.78,5.26,5.17-1.46.26-8.72,1.4-8.2,3.33,2.04,7.62,7.51,20.8,12.66,26.36,9.59-1.27,29.87-6.87,39.34-9.58-3.79-8.45-9.88-20.67-16.75-26.5-3.07-.06-6.26.76-8.77-.75-.71-1.46-.58-.7-.28-2.38,3.27-4.71,13.25-4.17,18.68-5.6,2.81-.74,4.41-1.29,7.17-2.33Z"/><path d="M560.89,207.23c1.39-.17,1.28-.18,2.6.26,3.25,4.12,13.54,13.17,12.13,18.11-8.34,2.17-12.3-19.25-41.67-4.62,4.84,9.57,10.21,18.02,14.88,28.04,4.56-1.2,14.09-3.87,16.78-7.61,1.08-1.49.74-2.48.49-4.24l-.09-.59c1.46-1.71,1.96-2.81,4.32-2.46,3.39,2.45,2.62,6.08,4.37,9.52,1.48,2.91,5.96,8.18,6.82,11.06-2.05,6.59-8.92-2.4-11.64-3.29-5.31-1.75-12.81.61-17.77,2.81,3.18,5.8,14.52,29.79,17.66,32.42,3.87.8,16.01-2.63,20.84-3.73,14.61-3.32.9-15.36,10.1-19.16.72.15,1.61.17,1.88.71,2.07,4.05,6.85,16.06,6.73,20.07-1.9,2.33-47.9,13.81-54.45,15.55l-.53-6.63c1.68-.99,3.55-2.33,5.19-3.44-1.36-3.4-9.82-18.08-12.1-22.2-6.95-12.5-15.66-35.77-25.27-45.16-2.96-.08-7.41-.23-9.24-2.96l.49-.87c1.09-.74,2.62-1.46,3.9-1.68,14.67-2.52,29.05-6.66,43.55-9.92Z"/><path d="M502.14,103.63l1.85-.03c1.77.99,2.41,2.55,3.48,4.34-2.41,1.14-4.95,2.45-7.35,3.64,3.59,16.38-11.1,35.69.9,52.7,6.79,9.61,2.81,18.39,18.45,15.18,1.34,2.02,3.17,4.31,3.15,6.7-.63.76-1.19,1.56-2.36,1.5-10.84-.53-19.17,1.8-29.16,5.55-.32-2.43-.31-5.18-.38-7.66,1.41-.36,8.21-1.91,7.52-3.63-2.01-4.98-5.58-11.78-8.41-16.2-5.35-8.37-13.57-14.82-20.93-21.28-6.05-5.89-20.14-17.03-27.77-20.02-2.47.41-4.8.64-7.29.89-1.05-1.48-2.16-3.73-3.04-5.38,6.61-2.17,13.67-2.7,20.3-4.94,1.73-.59,7.29-2.56,8.72-2.02,1.23,1.85,1.38,3.54,1.83,5.73-1.79.47-5.2,1.06-6.33,2.33,1.18,3.91,28.6,24.39,31.44,24.02,2.32-3.8,2.55-20.65,3.47-26.07.34-2.01-.05-3.45-1.38-4.93-3.51-1.02-6.59,1.99-9.52-.29-.33-1.77-.47-1.94-.21-3.76.61-.7,1.24-1.54,2.25-1.6,8.18-.51,12.96-1.74,20.74-4.76Z"/><path d="M402.7,125.12c2.31.02,3.76-.08,5.25,1.83.05,3.53-6.56,5.52-7.12,8.61,6.48,14.19,13.14,27.01,20.37,40.83,3.33,6.35,6.91,16.57,10.75,21.97,6.37,1.14,21.36-4.5,27.77-6.91,4.01-1.51,1.25-8.86,2.38-12.77,1.21-1.38.49-1.02,2.05-1.39,3,1.99,8.23,16.69,6.87,19.51-3.17,2.29-7.45,2.4-11.38,2.91-8.76,1.21-39.08,11.96-44.24,10.84-1.02-1.31-1.46-3.91-1.89-5.63,2.49-.53,5.22-1.24,7.72-1.84-1.76-5.02-6.33-13.13-8.76-18.28-5.02-10.64-17.81-40.03-26.05-46.61l-7.74-.4c.34-2.07.53-4.19.75-6.28,10.66-2.4,12.55-2.21,23.29-6.4Z"/><path d="M469.5,227.69c2.09-.36,5.09-.34,6.7,1.19.95,3.93-4.66,5.14-5.74,7.96.57,6.3,9.83,22.51,12.66,28.84,5.66,12.67,13.54,25.94,20.97,37.74,9.64-1.01,26.54-3.06,24.23-14.67-.54-2.68,2.58-5.39,5.7-4.8,3.32,2.65.61,4.34,1.42,8.16.8,3.8,3.68,5.41,2.28,9.23-3.12,3.04-8.29,3.97-12.6,5.18-4.93,1.19-32.89,7.93-36.15,7.78-2.12-1.13-3.35-2.91-2.37-5.24,1.9-1.4,4.55-1.97,6.87-2.68-9.71-20.84-22.79-40.8-32.11-61.97-3.63-8.26-9.99-4.15-14.76-5.64-4.23-6.82,12.73-7.24,16.1-8.5,2.32-.87,4.49-1.64,6.79-2.6Z"/><path d="M349.88,258.12c2.04.4,2.05.34,3.84,1.3,1.5,3.17-2.95,4.46-5.29,5.4,8.35,22.31,19.81,42.43,30.2,63.77.58,1.18,2.52,3.18,3.47,4.14,2.27-.3,6.14-1.08,8.24-.32,2.07.75,3.64,3.56,2.86,5.75-3.06,1.23-9.68,1.8-13.27,2.65-4.6,1.09-8.2,2.37-12.64,3.93l-2.04.47c-2.12-.6-1.67-.14-2.81-1.6-.41-4.76,4.58-6.64,8.07-8.15-2.07-5.76-29.8-62.66-32.25-64.5-3.91-2.94-7.6,1.12-11.51-1.26-1.13-1.8-.98-3.51-1.12-5.69,2.08-.58,4.42-.96,6.56-1.3,6.12-.98,11.81-2.71,17.7-4.6Z"/><path d="M542.68,508.3c2.47.31,3.58.83,3.98,3.35-1.65,2.67-7.36,2.67-10.65,3.35-6.29,1.34-12.54,2.82-18.76,4.41-26.99,6.81-53.89,13.98-80.68,21.49-16.74,4.61-37.02,9.82-53.12,15.72-1.52-1.07-2.92-1.43-4.66-2.05,9.03-7.04,43.52-15,55.98-18.32l45.66-12.52c13.67-3.71,27.39-7.31,41.11-10.82,5.99-1.49,15.16-3.94,21.14-4.62Z"/><path d="M493.5,422.73l1.49-.12c1.33.79,2.23,2.95,3.03,4.43-5.37,1.53-13.86,2.68-19.84,4.03l-45.98,10.82c-31.05,7.45-61.85,15.93-92.33,25.45-1.99.61-2.29.62-3.84-.45-.78-1.89-.7-.94-.27-2.93,4.91-6.21,139.57-37.67,157.74-41.22Z"/><path d="M528.42,486.74c2.66-.21,5.27-.28,5.12,3.43-1.4,1.85-21.16,5.32-25.58,6.4-45.5,11.04-90.67,23.42-135.44,37.12-2.53.62-2.57.7-4.54-.75-.72-1.65-.7-.84-.13-2.5,2.79-2.6,14.98-5.34,19.35-6.61l40.4-11.34c22.6-6.28,45.28-12.23,68.04-17.89,10.7-2.66,22.01-5.82,32.77-7.87Z"/><path d="M505.27,443.7l1.73-.11c1.4.77,1.96,2.45,2.73,3.96-4.52,1.59-23.55,5.54-29.22,6.89-22.4,5.26-44.77,10.66-67.09,16.22-11.58,2.95-21.65,5.95-33.01,9.55-8.81,2.8-21.78,6.96-30.74,8.24-1.63.33-1.45.49-2.94.14l-.5-.99c.14-.52.2-.87.52-1.35,4.41-6.68,121.65-34.19,137.87-38.03,6.86-1.62,13.83-2.69,20.64-4.52Z"/><path d="M734.86,459.26c2.05-.28,1.98-.1,3.3,1.1.61,1.85.65.98.06,2.71-1.77,1.54-7.78,2.42-10.4,3.05-7.63,1.81-15.24,3.69-22.83,5.64-19.18,5.07-38.42,9.92-57.72,14.56-19.89,4.72-40.42,9.14-59.9,15.23l-.96.08c-1.52-.46-2.57-2.28-3.59-3.64,7.66-4.46,59.12-15.6,71.26-18.64l51.97-13.14c9.03-2.27,19.79-5.29,28.81-6.96Z"/><path d="M516.52,464.67c1.59.07.82-.05,2.39,1.12.77,1.86.73.94.18,2.85-2.28,2.24-13.16,3.77-17.13,4.7-6.59,1.54-13.32,3.23-19.9,4.77-26.34,6.34-52.58,13.13-78.68,20.39-12.6,3.64-29.37,9.54-41.31,12.54-1.43.05-1.86.12-3.28-.14-1.58-1.27-1.09-.5-1.73-2.22l.57-.98c2.05-1.29,16.91-5.66,20.12-6.66,45.66-14.15,92.6-24.57,138.77-36.37Z"/><path d="M480.73,404.29c4.63-.77,4.98-.35,8.34,2.91-6.52,1.8-14.8,3.01-21.55,4.5l-48.85,11.19c-18.18,4.32-36.74,8.76-54.58,14.27-10.55,3.26-20.98,6.27-31.62,9.23-3.07.84-3.78,1.57-6.35-.51-.73-1.61-.67-.82-.29-2.46,1.38-1.72,13.67-4.46,16.71-5.38,31.79-9.62,64.13-17.39,96.54-24.61,13.27-2.95,28.38-7.2,41.64-9.14Z"/><path d="M719.19,438.71c2.14-.28,1.57-.5,3.3.25,1.36,1.79,1.03.84,1.3,2.85-1.54,2.62-7.24,2.96-10.32,3.61-5.55,1.14-11.07,2.42-16.55,3.88-26.49,6.91-53.43,12.31-79.99,19.16-13.95,3.6-27.27,6.6-41.04,11.21-2.84.31-3.99-.03-4.18-3.26.88-1.27,1.11-1.64,2.7-2.07,47.78-12.99,96.9-23.22,144.78-35.64Z"/><path d="M704.47,418.68c3.13-.1,5.17-.12,5.88,3.62-1.43,1.3-5.48,1.77-7.63,2.28-9.57,2.33-19.18,4.55-28.81,6.67-27.89,6.36-55.74,12.92-83.55,19.67-8.39,2.19-16.72,4.57-24.99,7.14-2.28.63-8.14,1.2-6.71-2.8,1.82-1.54,5.17-2.71,7.49-3.31,45.84-11.75,92.54-21.36,138.33-33.28Z"/><path d="M694.5,397.67l2.01-.05c1.52.77,2.31,2.6,3.22,4.14-10.14,2.74-21.78,4.65-32.19,6.97-20.8,4.68-41.54,9.65-62.21,14.9-15.78,3.85-37.54,8.94-52.73,14.11-2.85.91-3.12,1.52-5.43-.36-.62-1.59-.61-.82-.14-2.38,2.72-3.11,42.51-12.46,48.7-14,25.44-6.47,50.95-12.66,76.52-18.56,7.55-1.72,14.68-2.77,22.26-4.79Z"/><path d="M682.03,377.75c2.47-.23,5.26-.62,5.27,2.98-2.38,2.75-17.89,4.64-22.67,5.67-32.23,6.66-64.28,14.21-96.09,22.64-9.38,2.42-18.35,5.52-28.08,7.95-2.44.58-4.36,1.6-6.12-.51l.14-1.19c6.98-6.78,129.18-34.06,147.57-37.52Z"/><path d="M472.95,384.92c2.65-.38,6.08-1.34,6.82,2.17-.28.29-.57.58-.85.87-7.5,1.43-16.21,2.4-23.52,4.31-12.14,3.17-24.45,5.21-36.49,8.12-32.61,7.78-64.98,16.56-97.06,26.34-1.3.33-1.51.26-2.87.23-1.4-.85-1.32-.76-2.03-2.23.09-.66.04-1.36.55-1.62,3.53-1.83,12.31-3.98,16.02-5.07,32.66-9.56,65.54-17.87,98.84-24.86,12.63-2.65,27.97-7.12,40.6-8.25Z"/><path d="M670.56,358.8c2.78-.34,5.42.1,5.04,3.63-2.7,2.31-16.42,3.35-20.95,4.28-26.76,5.69-53.46,11.7-80.07,18.05-14.44,3.48-30.8,8.71-45.45,12.73-2.98,1.04-3.49,1.76-6.04-.17-.25-2.15,2.36-3.56,4.18-4.1,33.64-9.79,67.49-18.71,101.81-25.85,13.74-2.86,27.59-6.67,41.47-8.57Z"/><path d="M657.48,341.25c2.97-.35,5.15-.25,6.53,2.72-.2.23-.39.45-.59.68-31.7,4.91-118.38,26.48-143.74,34.1-2.72.68-7.51,1.96-7.44-2.5,3.95-5.36,128.2-31.67,145.24-35Z"/><path d="M57.46,116.53c2.51.13,3.04,2.97,4.23,5.49,11.75,24.79,25.33,48.79,37.84,73.2,3.52,6.88,6.63,14.13,10.17,20.94l37.4,70.43,77.97,150.59,74.4,144.21c5.21,9.9,10.29,19.86,15.24,29.89,4.17,8.34,8.76,17.48,13.89,25.28,2.55,3.88,8.26,7.15,12.24,9.97-2.07.58-5.91,1.53-8.04,1.99-17.48,3.79-28.88,9.67-38.24,25.5-8.64,14.64-13.87,38.84-14.71,55.93-.39,7.91,1.07,20.6,2.11,28.59.68,5.24,3.07,12.1,4.47,17.47-1.41-1.53-2.73-3.14-3.95-4.83-3.63-5.11-17.24-29.28-17.66-35.64.27-13.9.85-30.91,3.5-44.54,3.62-18.62,14.39-39.18,29.86-50.05-.89-1.42-1.94-2.91-2.88-4.32-3.7,3-10.76,9.06-13.72,12.35-15.96,17.65-21.82,55.79-21.17,78.5-7.36-10.62-15.22-32.7-20.85-45.14-6.6-14.59-20.54-34.9-24.82-49.73,5.17-13.04,3.5-35.3,9.86-49.43,4.73-10.5,9.57-17.53,16.82-26.49,1.79-2.21,9.41-10.56,9.79-12.64-.9-1.32-3.91-3.27-4.91-2.01-5.07,6.35-9.82,13.7-14.92,20.11-11.82,14.89-15.46,32.59-17.74,50.94-.67,5.38-.97,10.55-2.03,15.9-2.35-3.22-4.28-6.43-4.42-10.67-.49-25.61,7.61-52.54,22.05-73.68,2.84-4.15,15.98-15.49,15.27-19.23-1.11-1.24-1.11-1.47-2.73-1.89-1.53.35-2.39.9-3.44,2.07-22.05,24.4-36.25,54.33-35.6,87.78-1.95-3.74-3.14-6.38-4.74-10.29,3.3-22.02,7.95-46.66,19.1-66.24,6.17-10.2,10.25-15.42,18.15-24.12-2.14-1.09-4.02-1.61-6.29-2.34-11.09,14.67-18.54,25.39-24.73,42.7-5.96,16.65-10.21,25.41-8.97,43.65-8.35-15.66-15.07-31.94-22.73-47.95-24.82-51.82-51.27-102.83-76.87-154.27-1.29-2.6-2.37-5.17-3.31-7.87-1.89-5.41.78-11.49,1.35-16.86.95-8.96,1.28-17.77,2.97-26.62,4.33-17.11,13.7-37.15,22.33-52.37-.1-1.53-1.03-2.05-2.28-3.52-9.53,9.77-17.61,34.47-22.89,47.36-5.45,13.3-2.73,32.06-5.85,45.23-1.23-2.12-3.22-5.31-3.32-7.77-1.01-27.47,7.32-54.2,17.53-79.41,2.92-7.2,14.33-18.65,13.41-24.28l-1.16-.33c-4.1,1.74-7.94,7.03-10.23,10.77-15.44,25.2-21.97,55.25-25.14,84.32-5.39-10.94-10.44-22.1-15.9-33.09-4.46-8.97-10.35-19.26-13.42-28.66-1.17-5.77.4-14.37.77-19.95,1.82-27.33,9.9-54.66,26.85-76.5.78-1,1.47-2.71,1.12-4.04l-1.3-.71c-1.71.1-2.9.81-4.04,2.14-20.36,23.85-27.78,58.4-27.87,89.74-1.81-2.45-3.21-4.82-3.88-7.83-2.56-11.49,4.97-52.37,9.8-63.53,2.87-6.62,6.42-14.03,10.37-20.07,2.39-3.65,5.36-7.07,7.57-10.81.74-1.26,1.24-2.01.89-3.44l-1.06-.27c-2.01.36-3.54,1.55-4.95,3-19.52,20.11-26.39,57.92-27.4,84.62l-.56-.09c-2.22-2.57-2.84-10.62-2.84-14.08.02-18.29-.32-35.2,7.32-52.23,1.86-4.13,5.13-8.82,7.31-13.5,3.22-6.89,8.71-18.3,13.86-23.63-1.06-1.47-1.03-1.57-2.56-2.67-1.14.01-1.84-.03-2.67,1.03-7.44,9.42-11.57,21.57-17.95,31.84-1.9,3.66-2.97,8.31-4.61,11.98-6.93,15.53-6.21,31.98-5.63,48.62-4.97-8.74-11.27-24.01-14.96-33.6-8.13-21.5-7.4-45.34,2.02-66.3,5.14-11.4,18.84-30.77,29.22-38.31,4.07-2.96,8.24-4.57,12.92-6.35Z" fill="#fff"/><path d="M374.05,732.33c-9.2,3.04-59.55,20.66-65.58,16.91-2.52-1.56-3.14-5.09-3.49-7.79-2.09-16.19,3.26-29.9,7.77-45.1,1.89-6.38,3.3-12.65,4.66-19.17,1.05-.62,5.58-.46,7.53-1.1,18.27-5.94,36.76-9.99,55.31-14.73l155.13-40.57c20.62-5.43,40.85-12.49,61.51-17.51,19.54-4.74,38.42-10.96,57.76-16.47,23.57-6.49,47.17-12.82,70.82-18.98,11.22-2.94,76.01-20.43,80.26-19.81.59.09.89.24,1.41.45-.03,1.2-4.05,13.57-4.71,14.89-.52.39-3.33,2.34-3.17,2.89,1.53,5.48-2.08,9.4-3.71,14.54-.74,2.34-7.24.96-10.14,1.71-31.76,8.2-62.7,18.39-94.61,26.2-18.58,4.54-37.55,11.76-55.96,17.01-3.61,1.16-16.94,3.88-18.75,5.98.27,1.4.22,2.01,1.09,3.11,5.12.2,33.09-9.82,40.16-11.83,43.92-12.51,87.95-24.69,131.98-36.82,8.77-2.42,7.01,5.03,5.58,10.5-40.73,13.97-78.14,23.4-119.08,35.44l-130.43,37.12c-15.41,4.34-128.8,33.38-132.63,39.38-.08.12-.12.25-.18.38.98,1,2.48,1.03,3.87,1.05,4.8.09,32.95-9.89,40.27-12.11,13.4-4.07,26.97-7.72,40.43-11.61,14.65-4.24,29.72-7.09,44.45-11.2l145.43-41.51c34.67-9.73,70.47-18.7,104.31-31.06,8.8-3.22,9.82,2.32,11.82,9.99-5.14,2.74-20.72,6.75-27.12,8.58l-52.21,14.89c-51.59,14.7-107.39,32.35-158.98,45.59-12.91,3.31-142.76,39.74-144.83,41.83.95,1.38.85,1.49,2.33,2.17,10.12.39,50.73-14.29,62.55-17.6,61.17-16.49,122.2-33.47,183.1-50.92,42.97-12.43,85.85-26.09,129.1-37.74,2.5-.67,5.09-1.56,7.1-.1,1.8,5.52-6.52,10.02-10.87,11.31-20.52,6.1-41.28,11.45-61.83,17.41l-194.98,55.72c-35.55,10.02-71.59,18.67-106.78,30.35-2.32.77-4.78,2.52-6.44,4.31-4.23-9.37-6.8-15.95-10.11-25.67-2.69-7.9-5.88-12.65-7.52-21.53,2.88.1,3.34,1.3,6.74.53,7.21-1.65,14.31-3.95,21.45-5.92l46.45-12.95c26.22-7.35,52.88-13.27,79.01-21.01,3.22-.95,7.46-2.03,10.26-3.87.87-.57.15-2.13-.24-2.82-3.92-.49-28.6,7.44-34.3,8.94l-197.13,52.34c-4.27,1.17-24.51,5.55-26.43,7.03-.59.45-.51.74-.66,1.41.85,1.93.21,1.24,1.84,2.3,6.89.07,42.71-11.12,50.8-12.99,2.04,3.54,6.19,10.21,1.13,12.74-7.74,3.88-54.96,13.89-57.9,17.91,2.3,4.74,15.51-.9,19.46-2.03l31.61-8.98c3.76-1.07,8.69-2.82,12.29-3.67,1.88,4.78,2.86,7.34,4.04,12.28Z" fill="#fff"/><path d="M792.87,563.23c1.86.07,2.57.24,4.14,1.17l.15.9c-1.56,1.84-5.61,3.2-8.03,3.84-22.93,6.12-45.86,12.22-68.77,18.46-8.25,2.25-16.82,3.83-25.01,6.26-51.05,15.18-102.35,29.57-153.55,44.21-6.64,1.9-13.61,3.58-20.33,5.26-27.06,6.81-54.21,12.91-81.23,19.91-39.91,10.34-79.5,22.36-119.54,32.15-1.77.3-3.36.86-4.68-.49-.25-2.91,3.33-4.22,5.75-4.97,7.59-2.38,15.4-4.28,23.1-6.27,13.39-3.4,26.74-6.95,40.06-10.62,34.37-9.15,68.8-18.07,103.29-26.77,14.57-3.58,29.85-6.41,44.24-10.48,21.45-6.07,43.1-11.89,64.52-17.97l115.81-32.73c17.02-4.97,34.11-9.73,51.24-14.27,8.55-2.34,20.39-5.93,28.83-7.59Z"/><path d="M428.89,743.34c16.26-3.79,40.12-11.82,56.65-16.74l98.46-28.31,159.96-46.04c11.85-3.43,23.75-6.67,35.7-9.72,3.46-.91,7.57-2.12,10.97-2.9,14.33-3.28,25.78-9.98,21.74-26.97-1.97-8.27-9.29-17.78-8.86-26.04l.66-.97c3.97.5,10.53,12.89,12.61,16.63,6.53,11.85,22.49,35.24,4.14,43.51-5.05,2.28-11.86,3.3-17.22,5.04-15.02,4.28-30.35,7.9-45.33,12.24l-247.49,71.05c-18.03,5.33-36.42,9.47-54.29,15.4-8.49,2.82-15.53,4.18-23.32,8.76-3.6-3.5-8.67-15.13-10-19.96,2.69,1.5,3.61,2.77,5.62,5.03Z" fill="#fff"/><path d="M394.99,695.64l2.01.17c2.11,1.54,10.34,25.52,12.32,29.54,2.17,4.42,4.48,13.45,6.93,18.49,4.15,8.54,7.82,18.47,13.05,26.35,5.97,8.99,13.21,17.48,20.86,25.02,2.64,2.69,15.71,11.66,16.13,12.54l-.51.59c-5.37.3-15.31-3.93-19.98-6.7-5-2.96-9.91-7.79-15.51-9.67-1.24.86-.79.28-1.12,2.02.66,2.46,1.99,3.73,3.61,5.73,1.48,2.29,8.05,21.55,7.12,23.52l-.92.23c-2.42-1.91-3.48-4.15-5.45-6.14-23.67-23.93-38.97-51.46-50.1-83.16-3.18-9.07-8.22-23.92-13.05-32.15,8.24-1.96,16.44-4.09,24.59-6.39Z" fill="#fff"/><path d="M310.2,667.59c0-.34-4.63,20.84-4.85,21.59-6.82,22.9-14.51,47.66-3.37,70.61,2.44,5.03,7.65,9.01,13.04,10.37,11.38,2.86,23.8-3.16,34.73-6.07,10.92-2.9,22.36-4.75,32.22-10.13,1.24,2.57,2.72,4.99,4.02,7.51,3.55,6.87-1.45,7.39-6.47,8.41-7.51,2.63-18.18,5.88-25.76,7.89-14.42,3.82-42.39,16.97-54.59,3.85-8.16-8.77-11.51-35.39-11.39-47.1.02-16.92,3.96-34.29,10.36-49.93,4.14-10.54,4.64-9.71,12.05-17Z" fill="#fff"/><path d="M374.8,736.64c.24.04.92.38,1.17.49.91,2.65,2.73,6.7,1.33,9.43-.76,1.48-45.44,13.72-50.38,14.91-5.76,1.38-9.16,1.58-14.37-1.64-1.58-1.47-5.69-5.2-4.49-7.49l2.94,1.72c7.82.34,38.35-8.73,47.25-11.55,4.6-1.47,11.26-4.38,16.54-5.86Z" fill="#fff"/></g></svg>