<svg version="1.1" xmlns="http://www.w3.org/2000/svg" style="display: block;" viewBox="0 0 2048 2048" width="1024" height="1024" preserveAspectRatio="none">
<path transform="translate(0,0)" fill="rgb(57,56,57)" d="M 870.72 211.444 C 880.648 209.178 903.574 213.848 913.17 217.731 C 952.35 233.586 963.91 263.943 978.254 300.328 C 985.196 317.937 993.274 327.146 1010.88 334.135 C 1021.03 331.953 1041.96 330.688 1053.2 329.697 L 1124.95 323.066 L 1205.7 315.067 C 1220.49 313.594 1242.98 310.889 1257.47 311.246 C 1270.11 311.457 1282.55 314.41 1293.94 319.901 C 1333.5 339.374 1342.38 373.239 1354.79 411.63 L 1378.12 485.353 L 1448.57 711.72 C 1458.74 744.396 1468.92 781.286 1480.04 813.202 C 1501.37 778.222 1536.78 731.342 1567.01 703.819 C 1575.36 695.301 1592.5 687.778 1600.11 679.515 C 1613.59 664.894 1624.43 641.439 1648.63 656.58 C 1658.84 662.965 1661.44 670.873 1664.27 682.044 C 1660.95 697.33 1653.23 704.688 1643.5 716.444 C 1653.46 722.626 1656.51 732.874 1658.82 743.889 C 1661.14 755.016 1658.77 770.439 1654.58 780.937 C 1643.55 808.601 1625.75 833.426 1609.62 858.273 C 1586.82 892.829 1563.91 927.067 1540.47 961.161 C 1537.67 965.244 1533.34 972.736 1534.26 977.501 C 1536.5 989.062 1541 1002.08 1544.53 1013.49 L 1567.65 1087.68 L 1656.49 1375.88 C 1664.69 1402.02 1673.06 1428.11 1681.59 1454.14 C 1695.64 1496.78 1711.92 1535.52 1683.49 1577.43 C 1660.23 1611.71 1626.63 1617.37 1589 1625.65 C 1559.76 1632.09 1530.54 1639.26 1501.02 1644.6 C 1459.38 1652.68 1417.84 1663.67 1376.22 1671.99 L 980.239 1760.03 L 849.838 1788.64 C 819.683 1795.45 786.976 1803.96 756.561 1807.66 C 716.122 1812.58 675.014 1785.64 662.146 1747.23 C 652.429 1718.23 644.965 1686.09 637.245 1656.01 L 598.088 1503.43 C 554.067 1333.65 511.174 1163.57 469.413 993.218 C 442.055 884.13 415.476 774.848 389.679 665.38 L 368.046 574.451 C 357.281 527.142 344.255 478.514 379.541 437.537 C 402.302 411.104 440.087 412.195 472.523 407.551 L 609.359 389.096 C 634.316 385.798 658.975 382.974 683.587 378.448 C 716.16 374.121 730.248 343.19 757.117 329.556 C 760.445 327.868 777.4 329.27 778.635 325.742 C 786.624 302.919 782.016 281.634 793.778 259.17 C 810.903 226.462 835.818 214.462 870.72 211.444 z M 1121.1 403.794 C 1124.4 407.395 1127.83 411.003 1131.11 414.612 C 1142.92 427.572 1152.26 431.438 1156.4 449.463 C 1153.89 458.596 1153.41 463.605 1144.61 468.751 C 1140.31 471.269 1136.72 471.889 1131.73 472.665 C 1103.62 477.033 1075.34 480.922 1047.18 485.039 L 852.023 512.976 L 735.005 530.112 C 709.962 533.989 684.735 538.264 659.681 541.672 C 644.783 543.698 629.264 542.575 622.042 527.292 C 616.121 514.76 623.524 501.479 633.279 493.45 C 654.888 475.663 683.254 463.674 694.147 435.867 C 696.289 430.383 696.979 420.249 693.335 415.208 C 688.598 416.591 666.554 436.151 667.306 438.507 C 675.414 463.886 632.194 460.24 619.182 464.352 C 600.413 470.285 460.094 484.129 455.639 493.17 C 456.952 509.124 462.84 531.019 466.713 546.92 L 484.311 618.197 L 536.764 827.858 L 665.085 1342.7 L 718.38 1557.07 C 726.845 1590.74 735.225 1624.43 744.042 1658.01 C 747.095 1669.64 749.548 1674.9 760.107 1681.72 C 776.864 1683.63 783.938 1680.15 800.102 1676.57 L 852.061 1665.48 L 1048.69 1622.77 L 1240.16 1581.42 C 1258.23 1577.56 1276.36 1573.78 1294.42 1569.88 C 1307.23 1567.11 1322.74 1564.99 1335.22 1561.26 L 1502.53 1525.29 C 1517.36 1522.13 1610.3 1504.06 1617.41 1498.19 C 1618.15 1488.36 1582.31 1383.65 1576.32 1365.58 L 1496.21 1115.92 C 1490.07 1096.94 1484.17 1077.88 1478.52 1058.74 C 1475.67 1049.16 1471.4 1033.07 1467.89 1024.37 C 1453.18 1050.67 1424.4 1087.78 1405.98 1113.11 C 1365.49 1169.36 1324.23 1225.06 1282.2 1280.18 C 1273.49 1291.78 1279.5 1297.08 1272.65 1305.69 C 1257.57 1324.65 1241.78 1342.94 1226.68 1362 L 1182.64 1418 C 1153.22 1455.29 1114.69 1490.87 1075.35 1517.88 C 1069.06 1522.2 1061.77 1511.68 1059.83 1506.42 C 1065.29 1486.53 1075.55 1466.72 1084.58 1448.04 C 1114.02 1387.15 1146.9 1327.51 1181.93 1269.65 C 1189.73 1256.75 1200.11 1245.47 1208.9 1233.28 C 1222.89 1212.85 1236.52 1191.89 1250.33 1171.29 L 1359.35 1007.86 L 1404.51 942.088 C 1414.21 928.17 1426.2 912.062 1434.69 897.676 C 1429.46 885.642 1424.13 866.352 1420.11 853.438 C 1412.84 830.236 1405.46 807.07 1397.97 783.943 L 1309.69 504.434 C 1303.02 483.463 1296.47 462.454 1290.04 441.408 C 1286.08 428.636 1282.28 416.307 1277.36 403.848 C 1271.59 389.241 1260.75 385.336 1245.73 388.375 C 1204.28 394.276 1162.4 397.816 1121.1 403.794 z M 1554.58 1085.26 C 1544.87 1054.92 1530.7 1014.61 1523.17 984.295 C 1517.04 988.664 1510.49 994.165 1503.68 997.318 C 1497.96 999.968 1478.41 1001.98 1476.71 1008.48 C 1474.66 1016.36 1591.69 1374.49 1600.79 1402.61 L 1621.4 1467.62 C 1627.66 1486.99 1642.97 1507.51 1613.41 1514.19 C 1577.16 1522.37 1540.72 1529.55 1504.38 1537.27 C 1426.36 1554.43 1348.24 1571.2 1270.05 1587.57 L 991.674 1647.76 C 932.748 1660.72 873.782 1673.62 814.764 1686.15 C 803.04 1688.63 770.221 1697.64 759.827 1695.53 C 751.286 1693.88 743.856 1688.66 739.403 1681.19 C 733.107 1670.79 720.75 1615.85 716.706 1599.83 L 673.861 1428.24 L 510.227 772.351 L 465.135 591.145 C 457.469 560.49 446.937 526.38 442.138 495.476 C 441.796 493.277 442.062 491.543 442.601 489.401 C 443.604 485.417 444.887 482.013 448.562 479.843 C 459.705 473.263 567.077 459.802 586.16 457.041 C 597.006 455.472 610.369 454.989 620.601 451.336 C 631.333 447.504 646.189 440.207 654.658 432.671 C 670.755 418.35 674.169 408.218 695.679 397.385 C 704.974 392.704 714.88 389.393 724.238 384.865 C 741.613 376.458 764.547 360.463 771.676 341.705 L 771.305 340.188 C 767.553 339.486 767.635 339.452 763.87 339.885 C 741.71 352.275 726.927 380.02 700.637 387.455 C 674.204 394.93 638.784 397.94 610.919 401.545 L 469.991 420.527 C 454.622 422.663 439.13 424.71 423.867 427.302 C 383.391 434.174 379.187 470.716 386.344 504.102 C 393.251 536.325 401.533 567.792 409.201 599.669 C 424.333 663.879 439.822 728.003 455.67 792.039 C 507.297 1005.8 560.572 1219.16 615.489 1432.09 C 632.047 1498.55 649.104 1564.89 666.659 1631.09 C 673.042 1655.6 687.881 1721.61 699.38 1741.24 C 707.586 1755.46 721.194 1765.74 737.106 1769.76 C 761.5 1775.81 787.673 1767.03 811.831 1761.78 L 895.976 1743.44 L 1165.45 1684.68 L 1458.1 1619.41 C 1514.04 1607.04 1570.82 1595.36 1626.78 1582.06 C 1648.44 1576.91 1679.34 1564.41 1685.05 1539.35 C 1691.09 1512.85 1677.49 1479.59 1669.06 1453.92 C 1662.14 1432.65 1655.34 1411.34 1648.66 1389.99 L 1581.09 1172.16 C 1572.69 1144.4 1561.83 1112.91 1554.58 1085.26 z M 1483.69 987.739 C 1487.25 987.687 1485.7 988.239 1488.5 986.032 C 1493.74 971.4 1508.09 951.742 1516.85 937.926 L 1569.61 855.317 C 1588.52 825.649 1607.13 795.577 1625.93 765.822 C 1632.42 755.537 1637.18 743.453 1643.35 733.463 C 1640.69 729.738 1639.57 727.749 1636.11 724.867 L 1519.55 909.13 L 1488.13 958.648 C 1483.59 965.966 1478.31 975.674 1473.58 982.459 C 1477 984.413 1480.01 986.276 1483.69 987.739 z M 1263.78 1279.9 C 1265.08 1280.34 1267.08 1281.54 1268.37 1280.86 C 1275.3 1277.22 1460.86 1021.53 1462.26 1011.4 C 1462.47 1009.86 1461.83 1008.11 1461.4 1006.65 C 1457.41 1009.68 1454.66 1014.12 1451.59 1018.08 C 1416.16 1063.71 1383.07 1111.15 1348.72 1157.58 L 1287.68 1239.58 C 1281.25 1248.31 1265.59 1267.98 1261.23 1276.9 C 1262.48 1278.73 1262.11 1278.29 1263.78 1279.9 z M 1502.6 983.897 C 1509.18 979.34 1516.04 974.104 1520.75 967.421 C 1561.46 909.714 1602.18 850.815 1637.42 789.601 C 1641.9 781.827 1649.24 763.19 1646.17 754.61 C 1633.41 778.967 1617.09 802.975 1602.21 826.292 L 1530.36 939.568 C 1527.07 944.868 1502.24 981.906 1502.6 983.897 z M 1107.69 1427.61 C 1099.3 1443.8 1076.56 1487.84 1074.1 1503.45 C 1079.48 1500.64 1089.57 1492.83 1094.35 1488.62 C 1108.65 1476.6 1127.51 1460.54 1140.4 1447.12 C 1132.92 1444.78 1113.56 1433.17 1107.69 1427.61 z M 1153.82 1437.33 C 1161.63 1428.35 1169.41 1418.62 1176.57 1409.08 C 1198.23 1380.24 1223.77 1352.56 1243.7 1322.62 L 1235.36 1316.91 C 1228.18 1324.84 1220.54 1335.01 1214.12 1343.79 C 1193.81 1371.61 1172.97 1399 1152.41 1426.62 C 1150.42 1429.29 1148.91 1432.42 1148.03 1435.62 L 1148.67 1437.62 C 1151.88 1438.43 1150.23 1438.34 1153.82 1437.33 z M 1604.11 701.849 C 1591.83 712.479 1576.44 731.777 1566.53 744.92 C 1518.64 808.445 1473.25 873.948 1428.75 939.871 C 1426.52 943.19 1423.9 949.124 1423.42 953.008 C 1426.23 960.736 1444.43 971.08 1451.81 974.546 L 1452.56 974.887 L 1460.71 980.226 C 1474.78 955.468 1490.85 931.334 1506.15 907.241 L 1576.25 796.858 C 1592.01 772.133 1613.8 739.252 1627.03 713.416 C 1619.16 706.52 1614.94 702.816 1604.11 701.849 z M 1195.88 1276.11 C 1203.06 1280.62 1229.21 1298.07 1235.96 1298.04 C 1239.92 1292.5 1243.51 1287.41 1247.17 1281.67 C 1241.41 1277.96 1213.96 1261.22 1208.01 1258.52 C 1204.33 1263.62 1199.01 1270.75 1195.88 1276.11 z M 1240.08 324.395 C 1177.09 331.992 1113.06 335.878 1050.01 343.141 C 1042.86 343.964 1033.98 343.481 1027.3 345.48 L 1027.36 346.616 C 1033.56 349.447 1043.68 350.72 1050.55 351.595 C 1085.08 355.989 1095.4 363.557 1116.31 390.014 C 1134.36 389.866 1150.99 386.921 1169.58 385.297 C 1200.8 382.572 1234.69 374.688 1265.96 375.645 C 1274.98 375.922 1285.99 390.244 1288.04 397.909 C 1298.52 427.916 1307.22 458.666 1317.02 488.927 L 1390.89 723.599 C 1402.24 756.778 1412.22 790.767 1423.2 824.048 C 1427.16 836.039 1435.15 862.55 1440.31 873.262 C 1448.27 857.208 1464.61 838.782 1470.7 822.644 C 1458.85 790.112 1448.47 751.348 1438.01 717.827 L 1368.32 493.61 C 1360.95 469.7 1353.35 445.86 1345.52 422.094 C 1332.98 382.95 1326.45 349.968 1285.37 330.969 C 1271.45 324.528 1255.24 322.365 1240.08 324.395 z M 1253.51 1287.45 C 1249.26 1294.16 1247.03 1297.82 1241.82 1303.72 C 1245.41 1306.22 1250 1309.12 1252.98 1312.2 C 1258.14 1306.02 1260.2 1302.26 1264.65 1296.09 C 1261.7 1293.44 1257.03 1288.82 1253.51 1287.45 z M 1632.98 700.165 C 1634.24 701.018 1635.3 702.325 1636.59 701.764 C 1644.54 698.316 1649.18 687.515 1651.24 680.088 C 1647.52 672.711 1643.65 664.674 1634.11 664.859 C 1621.75 672.262 1619.49 679.235 1609.74 688.464 C 1618.91 691.605 1624.85 694.725 1632.98 700.165 z M 1582.59 706.022 C 1554.11 724.975 1497.5 809.54 1478.09 838.351 C 1471.3 848.42 1457.11 867.628 1451.95 879.109 C 1451.86 879.582 1451.77 880.055 1451.69 880.529 L 1452.27 880.873 C 1491.31 828.006 1527.64 771.723 1569.88 721.235 C 1571.95 718.767 1582.94 707.869 1582.86 706.167 L 1582.59 706.022 z M 1135.13 441.286 L 822.575 485.402 L 720.55 499.9 C 699.935 502.725 663.367 510.503 644.614 502.543 C 632.927 510.979 623.396 521.835 642.481 529.694 C 660.996 532.14 738.695 517.563 762.29 514.247 C 826.153 505.345 889.968 496.099 953.731 486.507 C 1011.46 478.32 1069.22 470.356 1126.81 461.226 C 1130.63 460.62 1135.88 460.071 1138.97 457.709 C 1146.04 452.287 1145.4 442.543 1135.13 441.286 z M 1187.47 1286.69 C 1172.72 1302.87 1124.7 1394.33 1113.08 1417.49 C 1122.01 1422.88 1129.23 1426.81 1138.43 1431.57 C 1140.97 1427.72 1143.55 1423.89 1146.17 1420.08 C 1165.27 1395.56 1184.01 1370.76 1202.38 1345.68 C 1210.38 1334.82 1220.83 1321.58 1228.15 1310.61 L 1187.47 1286.69 z M 1666.73 1581.51 C 1670.37 1577.91 1673.95 1574.26 1677.49 1570.57 C 1659.57 1581.26 1654.22 1586.32 1633.21 1591.68 C 1594.39 1601.57 1554.78 1609.24 1515.61 1617.92 L 1261.33 1673.93 C 1153.95 1698.34 1046.41 1722.05 938.723 1745.06 C 882.467 1757.5 826.166 1770.14 769.871 1782.39 C 758.285 1784.91 745.83 1784.84 734.315 1781.88 C 714.697 1776.85 697.91 1764.17 687.696 1746.68 C 679.052 1731.94 663.519 1665.14 658.309 1644.58 L 627.406 1524.88 C 564.988 1282.81 504.083 1040.36 444.693 797.541 L 387.588 559.328 C 382.883 539.673 377.872 520.22 373.99 500.377 C 373.237 496.529 372.072 484.912 371.211 482.595 C 366.737 494.924 368.699 521.727 371.433 534.737 C 379.95 575.263 389.55 616.015 399.219 656.274 L 446.082 849.128 C 493.76 1045.87 542.869 1242.27 593.406 1438.3 C 612.928 1515.98 632.928 1593.54 653.406 1670.98 C 666.051 1717.54 670.518 1773.19 723.532 1792.29 C 740.186 1798.29 755.77 1797.05 772.981 1794.1 C 798.104 1789.79 823.049 1783.71 847.974 1778.25 L 971.918 1751.06 L 1363.21 1664.43 C 1438.98 1647.65 1514.84 1631.59 1590.51 1614.34 C 1630.51 1605.22 1633.62 1606.77 1666.73 1581.51 z M 871.749 224.392 C 757.33 240.95 831.121 328.273 755.056 380.787 C 738.614 392.139 723.819 401.493 704.562 407.568 C 706.988 413.24 709.243 417.608 709.255 423.899 C 709.299 448.556 690.433 467.775 671.477 480.918 C 666.096 484.649 660.881 487.861 656.299 492.623 C 674.017 495.759 723.749 487.648 744.162 484.644 L 832.947 472.227 C 846.6 470.332 865.818 466.973 879.223 465.81 C 930.905 457.418 983.796 451.194 1035.62 443.115 C 1064.69 438.584 1096.07 436.455 1124.6 429.707 L 1125.58 429.465 C 1112.38 415.071 1098 387.869 1087.94 379.333 C 1058.03 355.678 1022.3 370.343 991.726 342.227 C 969.908 322.166 966.69 305.95 956.691 279.393 C 944.499 247.012 907.475 220.513 871.749 224.392 z M 1406.35 959.485 L 1214.05 1247.76 C 1222.38 1251.62 1246.38 1265.15 1252.9 1271.07 L 1259.21 1263.11 C 1324.09 1174.57 1393.79 1084.71 1456.13 994.607 C 1448.9 986.054 1430.03 978.704 1420.13 972.212 C 1415.39 969.105 1409.54 961.487 1406.35 959.485 z"/>
<path transform="translate(0,0)" fill="rgb(57,56,57)" d="M 869.88 260.402 C 892.55 256.705 913.975 271.934 917.935 294.56 C 921.895 317.186 906.916 338.786 884.337 343.009 C 869.497 345.784 854.31 340.367 844.576 328.827 C 834.841 317.287 832.061 301.405 837.298 287.244 C 842.535 273.084 854.979 262.832 869.88 260.402 z M 879.624 332.003 C 917.726 323.881 908.574 270.356 873.95 272.239 C 833.105 280.084 845.762 333.02 879.624 332.003 z"/>
<path transform="translate(0,0)" fill="rgb(0,0,0)" fill-opacity="0.0117647" d="M 1582.59 706.022 L 1582.86 706.167 C 1582.94 707.869 1571.95 718.767 1569.88 721.235 C 1527.64 771.723 1491.31 828.006 1452.27 880.873 L 1451.69 880.529 C 1451.77 880.055 1451.86 879.582 1451.95 879.109 C 1457.11 867.628 1471.3 848.42 1478.09 838.351 C 1497.5 809.54 1554.11 724.975 1582.59 706.022 z"/>
<path transform="translate(0,0)" fill="rgb(75,76,75)" d="M 1423.79 933.826 C 1424.67 939.001 1419.82 941.956 1416.07 944.552 L 1415.84 943.655 C 1416.5 940.488 1421.27 936.393 1423.79 933.826 z"/>
</svg>