<?xml version="1.0" encoding="utf-8"?>
<!-- Generator: Adobe Illustrator 27.5.0, SVG Export Plug-In . SVG Version: 6.00 Build 0)  -->
<svg version="1.1" id="Layer_1" xmlns="http://www.w3.org/2000/svg" xmlns:xlink="http://www.w3.org/1999/xlink" x="0px" y="0px"
	 viewBox="0 0 2000 2000" style="enable-background:new 0 0 2000 2000;" xml:space="preserve">
<path d="M1735.45,1224.55c-24.7-75.06-135.72-88.57-220.44,58.34c-12.46,23.81-20.95,50.68-39.42,70.72
	c-13.07,14.33-38.76,8.92-43.92-10.42c-7.76-48.81,0.67-157.89-37.41-176.85c-24.59-11.16-55.89,5.83-65.55,29.77
	c-30.42,72.82-11.81,158.06-46.91,229.52c-41.91,85.85-285.91,149.21-186.6-21.92c20.83-31.72,49.53-57.07,74.8-85.06
	c28.99-33.07,50.14-72.02,78.15-105.89c109.03-128.05,78.09-297.23,22.4-344.5c-29.54-23.61-74.21-20.13-98.75,9.01
	c-39.8,47.07-37.22,113.26-51.17,170.36c-42.07,139.43-184.43,295.76-166.55,94.9c1.83-20.19,31.07-125.37,65.19-157.25
	c77.34-61.39,102.23-76.84,140.99-242.26c6.49-35.83,6.28-156.41-45.96-230.08c-23.69-35.06-73.29-14.78-87.71,18.4
	c-30.38,62.45-13.7,164.62-61.59,269.24c-18.39,23.31-50.94,27.59-63.86-3.23c-21.16-55.52-33.74-164.96-10.62-219.97
	c32.31-67.96,123.18-63.58,106.5-242.96c-2.91-48.28-6.49-99.43-30.84-142.33C919.06,113,817.2,147.21,809.36,232.96
	c-8.79,51.01,53.14,166.05-5.72,198.16c-13.61-17.07-101.22-160.74-131.41-246.61C623.63,78.23,618.81,41.3,575.7,17.71
	c-118.81-77.66-201.34,119.8-148.55,209.99c74.93,133.04,236.13,263.28,219.28,326.76c-65.31,8.26-216.65-188.93-298.09-87.45
	c-65.25,112.39,194.4,194.91,260.47,253.95c141.22,77.98,172.27,222.8,159.73,373.1c-4.68,78.35-76.02,139.76-107.46,36.17
	c-8.05-62.31,26.9-121.42,20.54-184.37c0.56-40.81-8-105.86-61.62-102.91c-138.37,7.57-63.85,162.16-104.07,215.69
	c-65.99-44.53-46.23-140.28-101.76-192.7c-96.21-92.64-220.12,74.13-77.9,262.57c176.19,182.33,327.48,254.22,317.58,314.2
	c-21.94,97.28-163.92-25.74-205.87-54.13c-38.59-27.12-74.79-67.56-125.33-67.99c-32.5,1.37-66.34,24.24-72.7,57.37
	c-11.87,73.38,123.08,206.16,249.79,242.96c44.29,17.02,87.3,38.81,134.53,46.68c61.46,5.48,118.7,31.17,160.27,77.44
	c56.17,71.33,20.65,152.15,50.51,207.13c22.38,80.53,161.77,59.67,148.4-65.04c12.4-56.47,16.83-125.85,66.77-163.07
	c29.72-22.87,90.4-4.14,171.84-22.79c72.06-18.01,135.62-59.21,197.24-99.23c31.74-19.52,65.11-36.79,94.6-59.69
	C1610.56,1485.21,1806.79,1450.46,1735.45,1224.55z M1655.05,1436.44c-53.28,36.84-114.74,59.01-169.93,93.2
	c-84.91,53.8-166.15,118.01-264.65,145.08c-45.9,13.92-93.86,1.82-140.52,9.24c-73.51,14.65-109.11,113.69-118.94,179.37
	c-3.32,18.86,3.19,38.32-0.54,56.94c-6.37,24.33-23.66,51.99-51.1,53.78c-57.81,1.41-22.25-87.48-53.33-88.4
	c-2.15-60.23-4.5-125.39-49.27-171.25c-55.41-60.76-142.58-66.8-216.95-89.86c-300.62-88.37-362.25-271.95-265.37-271.95
	c83.42,0,136.82,133.1,290.67,155.15c81.81,4.37,83.31-85.26,39.46-133.75c-52.23-74.02-355.26-236.25-354.37-413.9
	c-1.54-36.49,15.48-83.55,53.78-93.98c16.9-1.3,29.57,12.54,40.93,24c38.92,43.73,37.11,107.24,65.29,156.3
	c58.16,80.84,90.03,34.82,99.35-41.89c17.23-77.11-22.12-126.73,63.46-134.5c19.43,1.25,23.59,27.76,28.05,43
	c7.98,78.18-30.02,155.74-16.93,234.12c14.98,75.13,92.16,84,137.69,28.77c27.5-34.47,27.75-82.68,31.43-124.83
	C798.59,765.53,666.49,724.17,508.1,628.4c-44.48-29.09-171.92-81.85-135.83-149.35c56.4-75.9,270.72,177.55,305.31,81.77
	c19.68-133.19-274.27-276.56-233.52-450.36c13.7-40.31,52.23-102.2,102.09-79.98c45.5,26.11,72.85,108.14,93.57,156.21
	c49.18,127.3,125.21,247.34,141.78,263.74c42.87,33.38,79.23-25.68,78.31-65.21c9.59-65.11-68.21-192.41,33.23-210.48
	c74.93-0.63,77.91,181.28,71.52,236.36c-4.01,96.15-134.31,100.38-116.44,259.94c5.61,55.57,3.26,126.59,46.46,167.66
	c31.77,22.52,80.38,6.53,99.08-25.83c19.26-41.62,37.98-86.09,39.77-132.48c5.73-264.04,111.82-153.93,91.67,39.88
	c0.84,114.03-44.53,176.21-131.22,247.09c-41.99,43.72-59.88,104.12-69.62,162.58c-30.84,147.45,78.62,185.5,158.64,61.66
	c108.87-145.1,65.74-245.72,114.02-296.61c68.08-69.03,150.82,135.15,33.91,292.17c-36.72,45.55-73.47,90.86-107.61,138.45
	c-37.3,43.64-89.1,88.12-85.03,150.94c13.35,110.32,194.02,53.77,244.6,0.25c70.47-67.14,51.82-212.34,72.35-270.55
	c19.62-30.29,30.95-1.35,34.48,21.09c8.89,41.68,1.18,85.93,13.38,126.7c34.1,68.17,97.41,30.27,125.82-20.63
	c23.31-32.01,31.34-73.69,59.31-102.19c24-18.72,57.25-38.73,88.52-32.8C1703.23,1209.94,1768.49,1340.78,1655.05,1436.44z"/>
<path d="M891.05,1789.67c2.27-18.01-20.47-113.12-41.6-110.5c-29.96,6.34,14.68,47.99,21.67,111.45
	C871.83,1802.7,891.23,1801.4,891.05,1789.67z"/>
<path d="M878.55,1832.4c-0.24,21.77,6.64,43.98,7.21,66.07c0.68,12.85,21.41,11.51,21.26-1.01
	C907.16,1882.81,906.32,1800.16,878.55,1832.4z"/>
<path d="M706.8,1623.65c6.83,7.46,18.67,6.1,27.7,9.14c40.66,11.71,48.81,29.07,57.4,29.07c7.71,0,15.39-8.84,8.89-16.02
	C769.03,1613.87,696.01,1594.03,706.8,1623.65z"/>
<path d="M689.7,682.85c-11.97-7.26-49.35-46.65-56.02-18.79c0.48,7.3,8.36,10.18,13.31,14.27c29.92,22.13,47.56,42.66,57.79,29.44
	C712.22,696.81,695.91,689.72,689.7,682.85z"/>
<path d="M731.57,723.23c-5.83-4.36-16.37-1.46-17.1,6.43c2.56,16.62,23.85,28.59,33.72,41.92
	C759.56,784.46,790.09,763.79,731.57,723.23z"/>
<path d="M618.54,183.49c-56.16-136.57-80.58-95.45-72.96-84.67c24.69,28.73,49.15,96.92,62.51,96.92
	C614.36,195.75,620.83,190.65,618.54,183.49z"/>
<path d="M619.47,227.62c-7.94,8.16,2.35,17.7,5.43,25.73c10.63,20.83,20.68,51.14,36.52,41.63c9.97-6.24,2.15-18.82-0.82-27.09
	C651.88,254.86,640.62,212.46,619.47,227.62z"/>
<path d="M562.1,155.11c-7.49-6.37-20.59,1.46-16.19,11.04c11.88,26.91,25.44,53.26,39.17,79.31c6.05,12.07,26.85,3.48,20.94-9.3
	C591.72,209.23,583.13,177.71,562.1,155.11z"/>
<path d="M1067.3,1349.31c-0.26-8.91-11.78-12.4-18.16-7.15c-12.44,10.43-63.55,73.8-39.74,84.52c13.5,4.54,15.72-12.24,38.23-45.56
	C1053.58,1370.32,1066,1362.03,1067.3,1349.31z"/>
<path d="M1008.18,1460.97c-12.37-18.71-37.85,10.97-23.16,63.44c1.67,5.25,7.59,7.94,12.87,7.03c17.31-4,7.95-34.25,10.42-47.66
	C1007.91,1476.24,1012.36,1467.84,1008.18,1460.97z"/>
<path d="M971.58,1395.89c-26.63-12.41-47.5,76.64-18.86,76.63c14.51,0,9.21-14.4,24.92-67.67
	C977.56,1400.92,975.03,1397.58,971.58,1395.89z"/>
<path d="M631.21,1283.47c-12.11-9.8-50.44-48.98-62.65-47.8c-26.36,7.2,6.77,30.01,15.2,39.19c6.34,6.04,33.09,30.26,41.85,30.26
	C636.12,1305.13,643.16,1290.83,631.21,1283.47z"/>
<path d="M462.32,1157.63c-43.4,8.07,37.46,54.39,48.54,63.17c11.08,8.05,27.16-8.16,15.78-17.88
	C515.05,1192.07,472.94,1158.77,462.32,1157.63z"/>
<path d="M591.3,1220.2c10.2,0,19.85-12.4,9.94-21.18c-18.12-15.52-37.34-29.67-57.01-43.12c-8.34-6.25-22.98,0.03-19.73,11.29
	C530.2,1179.58,584.82,1220.2,591.3,1220.2z"/>
<path d="M1675.21,1273.55c-10.83,7.71,6.46,12.6-18.05,67.03c-1.18,3.54-16.85,29.18,3.47,29.18c11.85,0,37.04-41.01,35.55-76.3
	C1696.38,1282.32,1688.36,1265.26,1675.21,1273.55z"/>
<path d="M1618.32,1396.81c-8.47,5.24-2.9,5.66-50,46.24c-5.6,6.2-18.35,11.54-14.16,21.59c14.48,23.84,58.2-27.53,75.95-46.54
	C1641.02,1407.47,1633.58,1390.39,1618.32,1396.81z"/>
<path d="M1626.96,1321.19c-5.14,3.71-5.23,10.81-8.56,15.88c-8.98,15.5-43.23,49.33-17.06,49.33c16.67,0,40.4-36.46,42.8-48.88
	C1648.54,1326.16,1638.4,1314.08,1626.96,1321.19z"/>
<path d="M1511.01,1459.81c-15.18,6.25-25.48,20.76-37.34,31.66c-7.23,9.15-27.45,21.42-13.12,33.08c4.94,3.48,12.82,3.42,17.16-1
	c4.54-4.48,47.5-47.27,48.01-53.63C1525.74,1462.68,1517.62,1457.89,1511.01,1459.81z"/>
</svg>
