<?xml version="1.0" encoding="utf-8"?>
<!-- Generator: Adobe Illustrator 27.5.0, SVG Export Plug-In . SVG Version: 6.00 Build 0)  -->
<svg version="1.1" id="Layer_1" xmlns="http://www.w3.org/2000/svg" xmlns:xlink="http://www.w3.org/1999/xlink" x="0px" y="0px"
	 viewBox="0 0 2000 2000" style="enable-background:new 0 0 2000 2000;" xml:space="preserve">
<path d="M1700.89,681.71c-14.31,24.34-32.18,46.84-43.55,72.71c-10.6,30.78-25.82,59.52-42.65,87.31
	c-43.3,73.8-24.04,40.03-28.83-30.27c-1.24-16.87-8.16-33.08-6.89-50.14c3.1-29.77,16.18-57.42,18.91-87.25
	c14.72-51.76-13.23-166.6-61.42-68.09c-57.39,143.97-37.8,115.53-73.58,243.65c-5.65,19.64-7.84,40.09-13.27,59.8
	c-44.21,173.38-77.89,183.88-160.83,254.36c-104.06,88.2-125.1,189.07-168.28,194.25c-17-64.34-13.02-135.13-42.25-196.58
	c-11.06-25.77-22.04-55.77-45.44-72.7c-41.71-19.21-36.12,53.19-31.4,76.81c39.06,288.11,6.72,349.03-130.88,457.9
	c-19.52,15.11-34.4,35.13-52.39,51.87c-17.24,15.33-34.31,30.68-50.27,47.3c-11.71-32.83-15.73-67.7-21.77-101.88
	c-3.59-19.39-10.37-38.03-13.64-57.47c-9.95-74.38-3.58-81.93-8.07-99.76c-10.65-58.04-21.31-123.22,10.9-176.52
	c41.99-52.79,110.59-88.75,122.42-160.62c11.48-34.96,12.39-83.34,50.7-100.16c54.89-26.58,308.04-7.66,352.36-42.43
	c30.28-26.28-0.01-69.16-31.46-77.44c-67.38-20.62-172.68,11.91-209.11,4.47c-21.67-17.72,21.96-49.35,31.63-64.52
	c47.44-76.13,25.57-75.3,102.85-168.42c16.56-20.62,30.33-43.29,45.95-64.61c23.49-35.67,52.01-72.5,46.96-117.82
	c0.93-21.48-16.2-70.99-41.28-40.91c-62.97,98.4-157.9,220.01-192.99,250.02c6.87-99.87,157.98-297.4,144.78-367.04
	c-2.52-18.86-23.15-29.64-40.02-21.15c-73.6,63.38-116.99,214.68-182.24,325.23c-40.7,87.99-29.58,119.42-49.42,157.66
	c-13.52,31.62-47.07,64.72-102.14,195.65c-20.23,63.99-44.99,157.61-103.62,174.84c-22.88,5.61-25.9-25.77-31.04-41.81
	c-8.29-32.03-4.5-65-2.04-97.5c11.51-143.43,9.34-162.46,110.94-306.35c25.92-37.77,48.67-79.77,56.43-125.36
	c51.23-268.31,50.38-111.65,165.96-346.14c18.23-29.46,36.16-59.36,43.96-93.56c8.98-40.37-26.14-72.13-59.77-40.29
	c-41.2,36.88-84.52,156.27-114.2,181.13c-12.98-44.46-11.82-93.03-1.15-137.95c3.7-19.43,6.83-91.09-28.3-73.97
	c-14.51,17.99-57.54,116.31-38.79,253.97c7.97,66.52-49.52,118.77-59.56,151.16c-19.16,79.3-32.18,164.74-86.01,229.42
	c-29.71,36.01-32.91,26.58-38.37-13.59c-16.68-113.07,15.7-159.4,27.98-211.63c34.4-126.44,0.69-193.02-30.05-283.77
	c-15.74-44.31-48.41-164.38-72.75-199.84c-26.87-31.32-57.13-3.12-67.11,26.64c-6.23,15.22-4.48,31.95-3.92,48.01
	c5.99,197.44,30.49,176.21,53.09,280.1c19.12,62.19,11.2,154.1-10.27,111.84c-15.64-26.51-18.11-65.78-63.2-160.41
	c-15.5-39.7-24.85-81.65-41.05-120.97c-9.69-20.61-24.48-38.08-36.3-57.37c-10.93-21.39-16.53-45.36-30.21-65.39
	c-61.04-83.91-71.31,38.75-62.67,84.02c13.49,114.37,53.56,189.13,69.4,277.62c23.64,98.83,15.73,118.4,62.34,230.04
	c43.25,93.9,55.18,87.78,81.33,136.52c90.39,150.42,55.01,311.48,64.7,367.59c1.87,50.69,45.63,98.27,24.65,149.34
	c-12.27,10.14-56.74-20.11-79.81-9.39c-30.85,15.28,3.31,55.02,18.17,71.08c33.3,41.61,73.67,1.24,135.55,358.54
	c15.79,110.47,4.02,94.83,28.92,203.61c-0.71,14.04,7.64,37.38,13.07,41.89c11.94,11.44,31.41,13.3,47.26,12.95
	c48.14-9.1,138.55-210.34,220.64-279.03c17.36-14.53,32.54-31.56,50.94-44.82c11.6-8.16,146.14-84.8,193.98-213.93
	c10.49-31.74,67.32-92.8,86.14-113.64c26.31-28.73,59.66-90.57,94.78-104.21c40.9,3.09,112.38,38.37,145.29-0.03
	c16.03-18.15,7.51-45.38-10.67-58.56c-15.98-16.21-59.78-12.71-55.96-42.75c9.6-19.9,27.83-34.21,38.77-53.47
	c74.3-107.68,54.12-64.67,151.64-144.07c40.76-44.58,51.27-106.81,73.3-161.18c10.2-25.48,23.35-50.92,23.43-78.98
	C1742.74,671.01,1724.86,638.67,1700.89,681.71z M1688.74,808.48c-14.73,38.95-20.43,84.59-51.85,115.02
	c-51.34,55.68-106.78,65.6-148.14,137.99c-15.05,33.67-86.11,83.7-36.46,116.22c12.8,7.21,27.36,10.55,40.17,17.75
	c21.3,11.66,36.39,48.93-23.67,49.23c-36.24-1.74-72.89-25.44-108.64-11.93c-45.36,20.73-60.11,74.62-97.36,105.36
	c-25.51,30.1-53.86,58.73-73.8,92.97c-76.97,173.05-151.19,190.09-233.17,254.59c-89.19,69.55-183.83,266.81-230.35,289.56
	c-45.39-0.72-50.16-90.82-64.48-179.38c0.13-2.91-7.84-53.79-11.25-89.85c-7.04-36.03-15.03-71.92-24.56-107.37
	c-41.07-246.49-112.1-187.57-135.73-269.3c26.13-4.6,50.98,12.89,76.66,8.46c55.72-18.12-3.48-122.08-9.64-161.64
	c-7.19-37.26,24.77-200.36-54.73-361.64c-85.05-132.64-117.37-168.56-148.64-365.08c-36.74-153.87-72.22-216.74-76.61-322.47
	c1.5-96.14,28.04-67.05,53.25-0.39c6.73,26.19,25.49,45.18,39.59,67.29c22.93,39.38,25.29,86.12,44.64,126.83
	c12.31,30.46,27.65,59.75,38.88,90.59c9.18,26.63,28.83,127.56,71.17,87.36c15.58-28.82,9.04-64.27,6.37-95.56
	c-5.55-75.33-57.95-148.49-56.37-245.2c1.48-41.68-15.84-86.2,4.09-125.59c4.86-10.83,19.51-21.85,29.62-10.36
	c16.01,18.25,55.64,149.21,60.39,167c58.7,162.3,66.07,177.81,41.66,301.26c-10.91,42.94-43.3,113.93-29.66,202.26
	c2.84,19.46,1.66,41.15,12.14,58.43c31.38,36.47,73.94-40.65,88.09-64.23c38.35-74.46,44.15-145.82,65.05-197.14
	c14.49-41.91,52.4-73.3,54.28-119.95c3.88-54.09-26.26-150.7,30.18-265.78c12.52,34.81-4.75,71.5-4.84,107.18
	c0.26,23.39-4.07,90.95,18.19,102.39c45.23,20.66,89.12-170.16,151.7-192.82c2.46,0.54,3.85,2.93,5.27,4.72
	c23.34,43.28-28.11,100.37-46.19,139.27c-29.46,65.67-82.79,115.72-118.57,177.3c-37.54,66.37-24.67,148.51-58.62,216.28
	c-8.42,15.23-20.2,28.24-28.85,43.31c-74.17,146.76-107.16,103.85-119.05,343.72c-2.46,44.48-6.27,93.55,22.57,130.97
	c17.73,19.76,47.4,6.28,64.95-7.27c49.62-40.24,60.05-106.61,85.22-162.04c41.6-121.6,60.75-129.44,85.91-173.27
	c36-47.74,28.21-111.52,55.81-162.97c18.6-42.22,40.05-82.89,60.79-124.07c23.38-50.86,42.44-103.91,75.36-149.67
	c8.13-13.77,37.8-72.51,55.12-66.51c24.89,30.98-30.5,119.49-72.1,200.03c-119.87,234.89-79.56,294.38,157.87-66.75
	c29.28,49.79-9.32,103.08-37.67,143.69c-20.12,36.23-48.47,66.11-74.2,98.14c-27.9,40.32-44.28,87.25-70.53,128.45
	c-15.05,23.75-62.85,55.97-33.29,84.86c48.71,31.77,228.9-48,250.57,36.94c4.63,33-54.53,22.06-113.71,32.59
	c-102.91,13.88-209.12-7.53-255.72,31.79c-60.54,51.72-25.71,122.33-90.35,178.49c-83.7,105.93-129.81,38.44-76.52,379.75
	c3.36,47.45,17.53,92.92,27.6,139.15c15.01,52.04,61.35-8.53,79.09-28.33c111.54-116.13,229.85-135.01,207.77-406.87
	c-11.54-119.49-23.39-141.92-12.22-178.72c17.89,10.4,24.35,31.76,33.44,49.15c20.78,39.7,28.87,84.18,34.01,128.28
	c2.38,15.85,5.47,31.61,6.66,47.61c0.58,28.91,4.72,54.97,40.41,43.22c27.91-9.45,74.41-96.89,118.89-150.42
	c42.21-48.78,99.76-82.13,139.87-133.08c40.92-49.35,56.2-114.26,71.42-175.18c10.33-35.43,20.06-70.83,25.6-107.4
	c5.64-23.63,13.99-46.54,19.63-70.17c10.72-59.8,48.04-138.47,59.35-151.74c37.07,43.5-9.26,102.88-6.58,200
	c0.31,15.05,3.23,29.85,4.56,44.81c2.87,22.91-5.31,48.15,3,69.88c17.09,16.68,32.89-12.47,41.61-24.85
	c45.7-57.84,33.96-83.99,108.36-193.05C1728.14,724.95,1704.21,768.03,1688.74,808.48z"/>
<path d="M405.07,554.26c-2.8-7.47-3.43-15.95-6.91-22.99c-9.14-6.75-13.51,2.86-10.62,11.41c5.45,16.03,9.03,40.97,20.37,37.85
	C416.28,578.23,406.47,561.21,405.07,554.26z"/>
<path d="M430.31,615.27c-14.24-0.78-6.7,22.29,3.88,19.37C444.06,631.93,437.15,616.01,430.31,615.27z"/>
<path d="M425.17,577.23c1.87,6.03,10.86,6.53,13.97,1.3c1.71-3.42,0.73-13.02-2.6-15.19C427.47,557.64,421.04,569.48,425.17,577.23z
	"/>
<path d="M371.38,463.08c12.18-1.77,5.16-21.48-5.39-14.18C359.71,453.34,363.28,464.65,371.38,463.08z"/>
<path d="M611.38,1377.44c-11.08,5.15-0.03,24.83,1.19,33.9c2.33,8.03,16.06,5.25,14.76-3.1
	C624.3,1398.94,624.79,1376.48,611.38,1377.44z"/>
<path d="M616.48,1319.05c-14.86-3-11.78,25.06,1.81,21.31C627.29,1337.88,624.97,1321,616.48,1319.05z"/>
<path d="M640.8,1314.93c-14.93-4.25-14.34,28.6,0.95,24.38C650.8,1336.82,647.73,1318.02,640.8,1314.93z"/>
<path d="M596.92,1250.1c-10.36,4.42-4.61,28.54,7.27,25.27c3.43-0.94,6.28-3.8,5.69-7.86
	C608.33,1260.11,608.13,1246.19,596.92,1250.1z"/>
<path d="M633.59,1266.79c-6.78-5.98-18.06,2.43-12.25,10.38C628.11,1288.38,643.74,1275.61,633.59,1266.79z"/>
<path d="M584.28,1377.8c-1.06-13.43-20.55-9.65-15.17,3.19C571.54,1389.25,585.62,1386.4,584.28,1377.8z"/>
<path d="M621.3,1505.29c9.67,36.07,10.5,42.24,19.01,39.9c10.63-4.34,1.6-19.13,1.6-27.59
	C633.42,1484.23,619.44,1498.97,621.3,1505.29z"/>
<path d="M668.97,1532.91c7.87-0.85,8.95-11.62,2.79-15.64C658.89,1509.92,654.61,1534.82,668.97,1532.91z"/>
<path d="M947.31,785.53c10.62,0.36,13.42-18.91,8.99-27.61c-2.94-6.08-12.91-4.69-13.89,2.04
	C944.47,768.09,935.25,783.11,947.31,785.53z"/>
<path d="M900.4,863.63c9.72,4.54,21.91-26.37,24.26-36.19c2.76-9.71-11.79-15.3-14.74-5.42
	C909.86,832.17,888.07,858.52,900.4,863.63z"/>
<path d="M909.89,822.14c-0.04,0.14-0.08,0.28-0.11,0.42C909.79,822.56,909.83,822.37,909.89,822.14z"/>
<path d="M909.89,822.14c0.01-0.04,0.02-0.08,0.04-0.12C909.91,822.04,909.9,822.09,909.89,822.14z"/>
<path d="M954.03,851.04c3.76,1.36,8.24-0.32,9.96-3.98c6.32-13.71,13.5-27.03,19.77-40.73c8.2-13.26-4.92-24.79-12.73-11.85
	C951.36,841.53,943.76,847.35,954.03,851.04z"/>
<path d="M686.92,1833.24c-10.67-1.79-10.58,11.4-9.85,18.7c2.21,7.89-0.8,25.25,10.91,24.87c10.2-2.13,4.23-15.16,5.21-22.41
	C691.57,1847.6,695.5,1835.87,686.92,1833.24z"/>
<path d="M699.65,1906.65c-8.85,3.53-6.61,22.36,5.09,19.14C714.48,1923.11,710.62,1902.26,699.65,1906.65z"/>
<path d="M718.83,1852.6c-12.71,4.12-6.63,26.76-4.74,36.62c0.97,3.8,5.57,5.44,9.05,4.48c8.69-2.65,4.27-13.43,4.33-20.04
	C725.09,1866.71,729.92,1852.02,718.83,1852.6z"/>
<path d="M690.71,1752.86c-5.13-8.52-4.32-32.42-15.42-33.21c-16.47,4.46-1.56,26.72,0.6,37.29
	C678.62,1765.59,693.25,1761.77,690.71,1752.86z"/>
<path d="M1143.19,1441.93c-7.87,3.31-9.74,13.44-13.79,20.26c-2.38,5.08-6.99,12.85,0.63,15.74c10.54,2.77,13.03-12.26,17.93-18.73
	C1152.64,1452.7,1155.3,1439.89,1143.19,1441.93z"/>
<path d="M1112.16,1499.21c-8.38,5-11.41,15.72-17.35,23.13c-2.03,2.96-0.54,6.95,2.49,8.49c8.57,3.72,12.6-7.89,17.76-12.58
	C1122.72,1511.33,1128.11,1496.42,1112.16,1499.21z"/>
<path d="M1112.85,1443.18c-9.85-1.62-12.22,11.13-16.76,17.35c-2.44,7.5-16.28,18.23-6.63,24.84c11.62,4.06,14.97-13.63,21.31-20.17
	C1114.77,1459,1124.42,1446.9,1112.85,1443.18z"/>
<path d="M1069.72,1537.76c-11.25,10.66-11.79,27.27-0.07,24.04C1081.03,1558.67,1087.8,1531.44,1069.72,1537.76z"/>
<path d="M1055.61,1516.5c-8.3-3.21-18.85,12.37-9.58,17.12C1055.16,1538.76,1066.12,1520.82,1055.61,1516.5z"/>
<path d="M1482.95,923.47c0.5,7.28-13.13,40.11,2.62,35.77c9.22-2.54,12.37-28.64,11.69-35.87
	C1496,915.64,1483.96,915.76,1482.95,923.47z"/>
<path d="M1476.3,983.91c-9.23,0.71-7.22,12.32-11.06,18.82c-1.39,6-8.7,15.47-0.02,18.92c10.49,2.94,11.99-11.72,15.63-18.41
	C1483.58,997.02,1486.5,984.22,1476.3,983.91z"/>
<path d="M1511.81,946.63c-6.71-0.03-7.48,7.09-8.27,12.22c-0.9,6.79-7.73,18.72,2.16,21.46c9.09,1.8,10.51-8.7,12.27-17.06
	C1518.97,957.11,1521,946.6,1511.81,946.63z"/>
<path d="M1512.52,877.52c-7.25-0.83-8.94,6.73-9.12,12.41c-0.53,5.82-5.58,15.07,2.87,17.2c7.86,1.7,9.31-6.82,11.11-13.85
	C1518.97,887.65,1520.69,878.36,1512.52,877.52z"/>
<path d="M1516.05,800.47c-2.48,3.6-2.48,8.39-4.32,12.37c-2.35,6.03-6.34,15.37,2.74,17.57c12.55,1.91,11.96-15.48,14.48-23.82
	C1530.87,799.14,1520.68,794.57,1516.05,800.47z"/>
<path d="M936.8,881.73c8.8,1.26,12.97-11.82,6.02-16.63C931.75,857.49,923.81,880.41,936.8,881.73z"/>
<path d="M859.05,958.5c4.21,0.97,8.58-1.34,10.04-5.48c4.59-16.43,13.95-33.22,11.27-50.62c-3.86-9.81-17.79-3.76-15.04,5.96
	C859.8,939.74,845.3,955.37,859.05,958.5z"/>
<path d="M744.49,585.05c12.71-0.38,9.36-19.34,12.68-28.13c0.42-6.23,3.68-13.86-0.37-19.37c-3.12-3.47-9.28-3.02-11.73,1.02
	c-3.63,12.57-4.37,26.1-6.92,39.01C737.48,581.45,740.83,584.68,744.49,585.05z"/>
<path d="M380.91,496.28c3.72,7.97,17.56,3.59,15.03-5.16C392.68,476,371.95,482.08,380.91,496.28z"/>
<path d="M433.01,516.29c-2.68-9.76-16.65-62.39-29.74-36.86c3.83,13.92,10.85,27.02,15.02,40.93
	C420.97,528.96,435.48,525.17,433.01,516.29z"/>
</svg>
