<svg xmlns="http://www.w3.org/2000/svg" viewBox="0 0 32 32" id="Read-Book-Group--Streamline-Freehand" height="32" width="32">
  <desc>
    Read Book Group Streamline Icon: https://streamlinehq.com
  </desc>
  <g>
    <path d="M15.626666666666667 25.57333333333333c0 -1.8399999999999999 0.14666666666666667 -2.5999999999999996 0.12 -4.4399999999999995 0 -1.2266666666666666 -0.10666666666666666 -2.453333333333333 -0.19999999999999998 -3.6799999999999997 -0.17333333333333334 -1.7466666666666666 -0.37333333333333335 -2.6666666666666665 -0.41333333333333333 -3.1466666666666665s-0.7066666666666667 -0.45333333333333337 -0.8133333333333332 0c0 0.7599999999999999 -0.09333333333333334 1.6933333333333334 -0.09333333333333334 3.173333333333333 0 1.2133333333333334 0 2.4266666666666667 0.09333333333333334 3.6399999999999997 0.09333333333333334 1.8133333333333335 0.27999999999999997 3.1466666666666665 0.4666666666666666 4.933333333333334 0.07999999999999999 0.7599999999999999 0.5866666666666667 0.9199999999999999 0.7999999999999999 0.48 0.013333333333333332 -0.18666666666666668 0.039999999999999994 -0.96 0.039999999999999994 -0.96Z" fill="currentColor" fill-rule="evenodd" stroke-width="1.3333"></path>
    <path d="M13.573333333333332 26.21333333333333a6.52 6.52 0 0 0 -1.2266666666666666 -0.37333333333333335 8.76 8.76 0 0 0 -2.213333333333333 -0.06666666666666667 0.3866666666666666 0.3866666666666666 0 0 0 0 0.7599999999999999c0.5866666666666667 0.15999999999999998 1.1066666666666665 0.39999999999999997 1.6666666666666665 0.6a6.666666666666666 6.666666666666666 0 0 0 0.7333333333333334 0.22666666666666668 6.76 6.76 0 0 0 0.7466666666666667 0.17333333333333334c0.6 0.13333333333333333 1.2 0.21333333333333332 1.8399999999999999 0.30666666666666664a0.42666666666666664 0.42666666666666664 0 0 0 0.52 -0.30666666666666664c0.10666666666666666 -0.5599999999999999 -0.9733333333333333 -0.8666666666666667 -2.0666666666666664 -1.3199999999999998Z" fill="currentColor" fill-rule="evenodd" stroke-width="1.3333"></path>
    <path d="M28 15.346666666666666c0 -0.48 -0.07999999999999999 -0.9733333333333333 -0.13333333333333333 -1.4533333333333334 -0.13333333333333333 -1.1466666666666665 -0.3333333333333333 -2.2666666666666666 -0.4666666666666666 -3.413333333333333a8.12 8.12 0 0 0 -5.746666666666666 -1.3333333333333333 10.213333333333333 10.213333333333333 0 0 0 -2.5999999999999996 0.6666666666666666 11.04 11.04 0 0 0 -2.333333333333333 1.3333333333333333 12.146666666666665 12.146666666666665 0 0 0 -1.2266666666666666 0.96 5.16 5.16 0 0 0 -0.72 0.8133333333333332 8 8 0 0 0 -4 -2.6666666666666665 6.946666666666666 6.946666666666666 0 0 0 -2.16 -0.2533333333333333 6.799999999999999 6.799999999999999 0 0 0 -2.12 0.41333333333333333A8.266666666666666 8.266666666666666 0 0 0 2.6666666666666665 13.466666666666665c-0.17333333333333334 0.19999999999999998 0 0.8133333333333332 0.10666666666666666 2.1066666666666665a9.453333333333333 9.453333333333333 0 0 0 0.15999999999999998 1.2133333333333334c0.10666666666666666 0.6133333333333333 0.26666666666666666 1.1866666666666665 0.3866666666666666 1.7866666666666666a0.41333333333333333 0.41333333333333333 0 0 0 0.44 0.41333333333333333 0.42666666666666664 0.42666666666666664 0 0 0 0.41333333333333333 -0.44 16.826666666666664 16.826666666666664 0 0 0 0.12 -1.8399999999999999 7.506666666666666 7.506666666666666 0 0 0 0 -0.7733333333333332 4.96 4.96 0 0 0 -0.10666666666666666 -0.7599999999999999c-0.12 -0.5733333333333333 -0.29333333333333333 -1.0933333333333333 -0.42666666666666664 -1.6666666666666665a7.893333333333333 7.893333333333333 0 0 1 3.1999999999999997 -1.7466666666666666 8 8 0 0 1 1.7733333333333334 -0.27999999999999997 7.333333333333333 7.333333333333333 0 0 1 1.7866666666666666 0.12 6.666666666666666 6.666666666666666 0 0 1 3.373333333333333 1.64c0.6533333333333333 0.5599999999999999 0.9066666666666667 0.8533333333333333 1.5199999999999998 0.06666666666666667a4.24 4.24 0 0 1 0.5866666666666667 -0.5866666666666667A11.413333333333334 11.413333333333334 0 0 1 17.333333333333332 12a15.093333333333334 15.093333333333334 0 0 1 2.6666666666666665 -1.04 13.559999999999999 13.559999999999999 0 0 1 2.813333333333333 -0.6 5.826666666666666 5.826666666666666 0 0 1 3.6133333333333333 0.6266666666666666s0.12 0 0.18666666666666668 0a32.69333333333333 32.69333333333333 0 0 0 -0.12 3.4266666666666663c0 0.7866666666666666 0.10666666666666666 1.5733333333333333 0.18666666666666668 2.36 0.14666666666666667 1.1733333333333333 0.3466666666666667 2.333333333333333 0.5066666666666666 3.5066666666666664a0.42666666666666664 0.42666666666666664 0 0 0 0.44 0.41333333333333333 0.42666666666666664 0.42666666666666664 0 0 0 0.41333333333333333 -0.45333333333333337l0 -3.466666666666667c-0.039999999999999994 -0.44 -0.039999999999999994 -0.9333333333333332 -0.039999999999999994 -1.4266666666666667Z" fill="currentColor" fill-rule="evenodd" stroke-width="1.3333"></path>
    <path d="M9.959999999999999 9.093333333333334a0.42666666666666664 0.42666666666666664 0 0 0 0.5866666666666667 -0.14666666666666667c0.3333333333333333 -0.22666666666666668 0.4666666666666666 -0.26666666666666666 0.5733333333333333 -0.41333333333333333s0.5866666666666667 -0.8666666666666667 0.5866666666666667 -0.9333333333333332a3.76 3.76 0 0 0 0 -0.52l0 -0.07999999999999999a3.8266666666666667 3.8266666666666667 0 0 0 0.6933333333333334 0.37333333333333335 6.586666666666667 6.586666666666667 0 0 0 1.2666666666666666 0.36 2.96 2.96 0 0 0 1.0266666666666666 0 3.4799999999999995 3.4799999999999995 0 0 0 1.88 -1.0666666666666667 3.1866666666666665 3.1866666666666665 0 0 0 0.12 0.6 0.6 0.6 0 0 0 0.13333333333333333 0.18666666666666668 0.9466666666666665 0.9466666666666665 0 0 0 0.18666666666666668 0.13333333333333333c0.19999999999999998 0.10666666666666666 0.9333333333333332 0.88 1.1466666666666665 0.9466666666666665a0.42666666666666664 0.42666666666666664 0 1 0 0.6266666666666666 -0.5333333333333333c-0.06666666666666667 -0.19999999999999998 -0.6666666666666666 -1.08 -0.7466666666666667 -1.3333333333333333a1 1 0 0 0 -0.12 -0.19999999999999998 0.7066666666666667 0.7066666666666667 0 0 0 -0.18666666666666668 -0.14666666666666667 2.973333333333333 2.973333333333333 0 0 0 -0.5866666666666667 -0.17333333333333334 0.30666666666666664 0.30666666666666664 0 0 0 -0.19999999999999998 -0.09333333333333334 2.973333333333333 2.973333333333333 0 0 0 0.26666666666666666 -0.9066666666666667C17.52 2.413333333333333 14.32 0.4666666666666666 12.413333333333334 1.3333333333333333a3.6133333333333333 3.6133333333333333 0 0 0 -1.5199999999999998 1.4533333333333334A3.626666666666667 3.626666666666667 0 0 0 10.546666666666667 5.333333333333333a2.8666666666666663 2.8666666666666663 0 0 0 0.6666666666666666 1.2133333333333334s-0.10666666666666666 0 -0.13333333333333333 0.07999999999999999a2.533333333333333 2.533333333333333 0 0 0 -0.5333333333333333 0.21333333333333332 0.6 0.6 0 0 0 -0.14666666666666667 0.17333333333333334 0.4933333333333333 0.4933333333333333 0 0 0 0 0.19999999999999998 11.906666666666666 11.906666666666666 0 0 0 -0.5466666666666666 1.3333333333333333 0.44 0.44 0 0 0 0.10666666666666666 0.5466666666666666ZM11.866666666666667 3.253333333333333a2.5866666666666664 2.5866666666666664 0 0 1 0.7466666666666667 -0.9866666666666666c1.3333333333333333 -1.04 3.2266666666666666 0.5599999999999999 3.3999999999999995 2.253333333333333a1.5999999999999999 1.5999999999999999 0 0 1 -1.5866666666666664 1.7866666666666666 1.44 1.44 0 0 1 -0.5333333333333333 0 5.08 5.08 0 0 1 -1 -0.29333333333333333 1.6533333333333333 1.6533333333333333 0 0 1 -1.08 -1.04 2.4 2.4 0 0 1 0.05333333333333333 -1.72Z" fill="currentColor" fill-rule="evenodd" stroke-width="1.3333"></path>
    <path d="M22.893333333333334 24.41333333333333a5.746666666666666 5.746666666666666 0 0 0 -2.6666666666666665 -0.29333333333333333 5.666666666666666 5.666666666666666 0 0 0 -1.1466666666666665 0.24 6.173333333333333 6.173333333333333 0 0 0 -1.0533333333333332 0.4666666666666666A5.8133333333333335 5.8133333333333335 0 0 0 16.066666666666666 26.666666666666664a0.37333333333333335 0.37333333333333335 0 0 0 0.5866666666666667 0.48 6.546666666666667 6.546666666666667 0 0 1 2.013333333333333 -1.08l0.9066666666666667 -0.3333333333333333c0.30666666666666664 -0.09333333333333334 0.6133333333333333 -0.19999999999999998 0.9199999999999999 -0.27999999999999997a5.626666666666666 5.626666666666666 0 0 1 2.173333333333333 -0.21333333333333332 0.42666666666666664 0.42666666666666664 0 0 0 0.52 -0.30666666666666664 0.42666666666666664 0.42666666666666664 0 0 0 -0.29333333333333333 -0.52Z" fill="currentColor" fill-rule="evenodd" stroke-width="1.3333"></path>
    <path d="M31.093333333333334 29.146666666666665a1.3333333333333333 1.3333333333333333 0 0 0 -0.2533333333333333 -0.29333333333333333 1.04 1.04 0 0 0 -0.37333333333333335 -0.21333333333333332 2.08 2.08 0 0 0 -0.6933333333333334 -0.06666666666666667 4.506666666666666 4.506666666666666 0 0 0 1.08 -0.8133333333333332 3.24 3.24 0 0 0 0.8933333333333333 -3.6133333333333333 2.92 2.92 0 0 0 -1.2666666666666666 -1.24c-2.16 -1.2133333333333334 -2.1066666666666665 -1.1066666666666665 -3.28 -0.9066666666666667a3.36 3.36 0 0 0 -3 3.493333333333333 3.7733333333333334 3.7733333333333334 0 0 0 0.9866666666666666 2.3866666666666667 3.0666666666666664 3.0666666666666664 0 0 0 -0.5066666666666666 0.44 2.1999999999999997 2.1999999999999997 0 0 0 -0.26666666666666666 0.41333333333333333 3.2266666666666666 3.2266666666666666 0 0 0 -0.15999999999999998 0.4666666666666666 4.8 4.8 0 0 0 -0.07999999999999999 1.1466666666666665 0.44 0.44 0 0 0 0.3333333333333333 0.5066666666666666 0.42666666666666664 0.42666666666666664 0 0 0 0.5066666666666666 -0.3333333333333333 11.226666666666667 11.226666666666667 0 0 1 0.6933333333333334 -1.1333333333333333c0 -0.12 0.10666666666666666 -0.24 0.15999999999999998 -0.3466666666666667s0.09333333333333334 -0.31999999999999995 0.13333333333333333 -0.4666666666666666a4.4399999999999995 4.4399999999999995 0 0 0 1.3333333333333333 0.5466666666666666 3.1866666666666665 3.1866666666666665 0 0 0 1.7333333333333334 -0.18666666666666668 0.39999999999999997 0.39999999999999997 0 0 0 0.26666666666666666 0.39999999999999997c0.19999999999999998 0.09333333333333334 0.22666666666666668 0.29333333333333333 0.3866666666666666 0.45333333333333337a1.7466666666666666 1.7466666666666666 0 0 0 0.15999999999999998 0.14666666666666667c0.26666666666666666 0.18666666666666668 0.5599999999999999 0.26666666666666666 0.7999999999999999 0.4666666666666666a0.44 0.44 0 0 0 0.6 0.10666666666666666 0.42666666666666664 0.42666666666666664 0 0 0 0.10666666666666666 -0.6 3.0533333333333332 3.0533333333333332 0 0 0 -0.29333333333333333 -0.7599999999999999Zm-3.453333333333333 -1.44a2.6666666666666665 2.6666666666666665 0 0 1 -2.173333333333333 -2.293333333333333c-0.07999999999999999 -0.72 0.44 -3.84 4.213333333333333 -1.8133333333333335a2.2666666666666666 2.2666666666666666 0 0 1 1.0533333333333332 1 2.1066666666666665 2.1066666666666665 0 0 1 -0.84 2.1999999999999997 2.6666666666666665 2.6666666666666665 0 0 1 -2.253333333333333 0.9066666666666667Z" fill="currentColor" fill-rule="evenodd" stroke-width="1.3333"></path>
    <path d="M7.746666666666666 28.426666666666666a2.173333333333333 2.173333333333333 0 0 0 -0.4666666666666666 -0.52 3.0133333333333328 3.0133333333333328 0 0 0 -0.6133333333333333 -0.29333333333333333 2.88 2.88 0 0 0 0.7599999999999999 -1.5466666666666664A5.119999999999999 5.119999999999999 0 0 0 6.786666666666666 22.666666666666664c-0.9066666666666667 -1.3333333333333333 -4.706666666666666 -2.733333333333333 -6.333333333333333 0.27999999999999997a3.8 3.8 0 0 0 0 3.5866666666666664 3.1199999999999997 3.1199999999999997 0 0 0 1.0533333333333332 1.1199999999999999 2.253333333333333 2.253333333333333 0 0 0 -0.7466666666666667 0.3466666666666667 1.9333333333333331 1.9333333333333331 0 0 0 -0.29333333333333333 0.27999999999999997 1.8399999999999999 1.8399999999999999 0 0 0 -0.18666666666666668 0.36 2.6666666666666665 2.6666666666666665 0 0 0 -0.17333333333333334 0.9066666666666667 0.41333333333333333 0.41333333333333333 0 0 0 0.2533333333333333 0.5466666666666666 0.41333333333333333 0.41333333333333333 0 0 0 0.5466666666666666 -0.2533333333333333 6.666666666666666 6.666666666666666 0 0 1 0.7066666666666667 -0.6533333333333333 1.3333333333333333 1.3333333333333333 0 0 0 0.14666666666666667 -0.22666666666666668c0.13333333333333333 -0.21333333333333332 0.14666666666666667 -0.42666666666666664 0.29333333333333333 -0.6266666666666666a0.3466666666666667 0.3466666666666667 0 0 0 0.17333333333333334 -0.21333333333333332 6.133333333333333 6.133333333333333 0 0 0 0.6933333333333334 0.2533333333333333 4.92 4.92 0 0 0 2.893333333333333 -0.09333333333333334c0.15999999999999998 0.21333333333333332 0.2533333333333333 0.42666666666666664 0.41333333333333333 0.6266666666666666a1.6533333333333333 1.6533333333333333 0 0 0 0.24 0.27999999999999997 2.813333333333333 2.813333333333333 0 0 0 0.30666666666666664 0.2533333333333333c0.26666666666666666 0.18666666666666668 0.5333333333333333 0.3466666666666667 0.84 0.52a0.42666666666666664 0.42666666666666664 0 1 0 0.6133333333333333 -0.6266666666666666c-0.22666666666666668 -0.3333333333333333 -0.22666666666666668 -0.6266666666666666 -0.48 -0.9066666666666667Zm-4.466666666666667 -1.5066666666666664a2.6666666666666665 2.6666666666666665 0 0 1 -1.72 -1.0133333333333332A2.6666666666666665 2.6666666666666665 0 0 1 1.3333333333333333 23.41333333333333c0.3466666666666667 -0.84 3.373333333333333 -1.9333333333333331 4.426666666666666 -0.10666666666666666A3.786666666666666 3.786666666666666 0 0 1 6.173333333333333 25.333333333333332 1.6266666666666665 1.6266666666666665 0 0 1 5.333333333333333 26.866666666666664a3.413333333333333 3.413333333333333 0 0 1 -2.0533333333333332 0.05333333333333333Z" fill="currentColor" fill-rule="evenodd" stroke-width="1.3333"></path>
  </g>
</svg>