<svg xmlns="http://www.w3.org/2000/svg" viewBox="0 0 32 32" id="Business-Management-Teamwork-Hands-Action-2--Streamline-Freehand" height="32" width="32">
  <desc>
    Business Management Teamwork Hands Action 2 Streamline Icon: https://streamlinehq.com
  </desc>
  <g>
    <path d="M7.359999999999999 14.786666666666665a5.333333333333333 5.333333333333333 0 0 0 -1.1333333333333333 2.0933333333333333c-0.22666666666666668 0.9466666666666665 0.6 2.32 1.8 3.3466666666666662a5.199999999999999 5.199999999999999 0 0 0 3.533333333333333 1.48 1.7066666666666666 1.7066666666666666 0 0 0 1.1066666666666665 -0.6266666666666666 2.2666666666666666 2.2666666666666666 0 0 0 0.37333333333333335 -1.08 2.2666666666666666 2.2666666666666666 0 0 1 0.07999999999999999 -0.6133333333333333c0.07999999999999999 0 0.26666666666666666 -0.10666666666666666 0.42666666666666664 -0.14666666666666667a8.226666666666667 8.226666666666667 0 0 0 1.4266666666666667 -0.31999999999999995 1.9733333333333332 1.9733333333333332 0 0 0 0.7333333333333334 -0.45333333333333337 1.4933333333333334 1.4933333333333334 0 0 0 0.3333333333333333 -0.9733333333333333c0 -0.5466666666666666 0.22666666666666668 -1.72 -0.07999999999999999 -1.893333333333333a1.4666666666666668 1.4666666666666668 0 0 1 0.6666666666666666 -0.10666666666666666 2.213333333333333 2.213333333333333 0 0 0 0.8533333333333333 -0.17333333333333334 1.6533333333333333 1.6533333333333333 0 0 0 0.8133333333333332 -1.0533333333333332 3.1466666666666665 3.1466666666666665 0 0 0 -1.2533333333333332 -3.5733333333333333 4.4399999999999995 4.4399999999999995 0 0 0 -2.173333333333333 -0.8266666666666667 1.72 1.72 0 0 1 -0.5733333333333333 -1.5999999999999999 1.1066666666666665 1.1066666666666665 0 0 1 1.0133333333333332 -0.9199999999999999 5.119999999999999 5.119999999999999 0 0 1 1.5599999999999998 0 10.666666666666666 10.666666666666666 0 0 1 1.0666666666666667 0.19999999999999998 12.08 12.08 0 0 1 2.6666666666666665 1.1066666666666665 0.37333333333333335 0.37333333333333335 0 1 0 0.41333333333333333 -0.6266666666666666 10.386666666666667 10.386666666666667 0 0 0 -3.253333333333333 -1.893333333333333 5.8133333333333335 5.8133333333333335 0 0 0 -2.6666666666666665 -0.24 2.333333333333333 2.333333333333333 0 0 0 -1.9733333333333332 2.253333333333333 2.6666666666666665 2.6666666666666665 0 0 0 0.5866666666666667 1.8399999999999999l-0.29333333333333333 0a0.42666666666666664 0.42666666666666664 0 0 0 0.2533333333333333 0.8266666666666667 3.1333333333333333 3.1333333333333333 0 0 1 2.76 0.6666666666666666 2.12 2.12 0 0 1 0.7733333333333332 2.413333333333333c-0.06666666666666667 0.18666666666666668 -0.13333333333333333 0.29333333333333333 -0.22666666666666668 0.3333333333333333a2.48 2.48 0 0 1 -0.84 0 1.853333333333333 1.853333333333333 0 0 0 -1.3333333333333333 0.6399999999999999 1.0266666666666666 1.0266666666666666 0 0 0 -0.22666666666666668 0.6799999999999999c0 1.6266666666666665 1 1.8399999999999999 -0.6533333333333333 2.1466666666666665a8.36 8.36 0 0 0 -1.3333333333333333 0.29333333333333333 1.3333333333333333 1.3333333333333333 0 0 0 -0.52 0.39999999999999997 2.12 2.12 0 0 0 -0.36 0.88 3.8533333333333335 3.8533333333333335 0 0 1 -0.12 0.7999999999999999c0 0.07999999999999999 -0.12 0.12 -0.26666666666666666 0.14666666666666667 -0.5866666666666667 0.12 -1.5599999999999998 -0.45333333333333337 -2.4 -1.1199999999999999a5.466666666666666 5.466666666666666 0 0 1 -1.2266666666666666 -1.3333333333333333 1.1333333333333333 1.1333333333333333 0 0 1 -0.29333333333333333 -0.8133333333333332 5.08 5.08 0 0 1 1.24 -2.2266666666666666c0.9866666666666666 -1.1733333333333333 2.253333333333333 -2.2666666666666666 2.973333333333333 -3.0533333333333332a0.37333333333333335 0.37333333333333335 0 0 0 0 -0.5333333333333333 0.37333333333333335 0.37333333333333335 0 0 0 -0.5333333333333333 0 46.48 46.48 0 0 0 -3.7199999999999998 3.6533333333333333Z" fill="currentColor" fill-rule="evenodd" stroke-width="1.3333"></path>
    <path d="M8.813333333333333 21.173333333333332A15.84 15.84 0 0 0 6.666666666666666 23.186666666666667a8.173333333333332 8.173333333333332 0 0 0 -0.7599999999999999 1.0266666666666666 8.239999999999998 8.239999999999998 0 0 0 -0.6399999999999999 1.1066666666666665 19.64 19.64 0 0 0 -1.0933333333333333 2.7466666666666666 0.42666666666666664 0.42666666666666664 0 0 0 0.22666666666666668 0.5599999999999999 0.42666666666666664 0.42666666666666664 0 0 0 0.5599999999999999 -0.22666666666666668c0.37333333333333335 -0.72 0.8133333333333332 -1.3333333333333333 1.2533333333333332 -2.08s0.8266666666666667 -1.2266666666666666 1.24 -1.8399999999999999A30.16 30.16 0 0 1 9.333333333333332 21.72a0.3866666666666666 0.3866666666666666 0 0 0 0 -0.5333333333333333 0.37333333333333335 0.37333333333333335 0 0 0 -0.52 -0.013333333333333332Z" fill="currentColor" fill-rule="evenodd" stroke-width="1.3333"></path>
    <path d="M26.77333333333333 18.84a5.173333333333333 5.173333333333333 0 0 0 -0.41333333333333333 -2.12c-0.09333333333333334 -0.18666666666666668 -0.24 -0.7733333333333332 -0.45333333333333337 -0.8266666666666667a2.5866666666666664 2.5866666666666664 0 0 0 0.31999999999999995 -0.36 1.5466666666666664 1.5466666666666664 0 0 0 0.2533333333333333 -0.9066666666666667 1.5733333333333333 1.5733333333333333 0 0 0 -0.3466666666666667 -0.8666666666666667 10.506666666666666 10.506666666666666 0 0 0 -1.0266666666666666 -0.9333333333333332l-0.13333333333333333 -0.09333333333333334 0.09333333333333334 -0.09333333333333334a2.44 2.44 0 0 0 0.3466666666666667 -0.48 1.3333333333333333 1.3333333333333333 0 0 0 0.10666666666666666 -0.84A2.3466666666666667 2.3466666666666667 0 0 0 23.253333333333334 9.333333333333332a11.773333333333333 11.773333333333333 0 0 0 -3.92 0.6933333333333334l-1.3333333333333333 0.41333333333333333a0.3866666666666666 0.3866666666666666 0 0 0 -0.2533333333333333 0.4666666666666666 0.37333333333333335 0.37333333333333335 0 0 0 0.4666666666666666 0.2533333333333333l1.3333333333333333 -0.3466666666666667a10.32 10.32 0 0 1 3.6 -0.4933333333333333 1.3333333333333333 1.3333333333333333 0 0 1 1.3333333333333333 1.1733333333333333c0 0.10666666666666666 -0.07999999999999999 0.15999999999999998 -0.13333333333333333 0.22666666666666668l-0.37333333333333335 0.39999999999999997a1.4533333333333334 1.4533333333333334 0 0 0 -0.2533333333333333 0.4933333333333333 0.6666666666666666 0.6666666666666666 0 0 0 0.12 0.5466666666666666 4.466666666666667 4.466666666666667 0 0 0 0.44 0.4933333333333333c0.17333333333333334 0.18666666666666668 0.45333333333333337 0.39999999999999997 0.6933333333333334 0.6399999999999999s0.24 0.22666666666666668 0.2533333333333333 0.36 -0.13333333333333333 0.19999999999999998 -0.21333333333333332 0.29333333333333333a3.16 3.16 0 0 0 -0.41333333333333333 0.5733333333333333 1.0666666666666667 1.0666666666666667 0 0 0 -0.09333333333333334 0.48 1.3333333333333333 1.3333333333333333 0 0 0 0.13333333333333333 0.4933333333333333c0.13333333333333333 0.26666666666666666 0.41333333333333333 0.6 0.5066666666666666 0.8133333333333332a3.706666666666666 3.706666666666666 0 0 1 0.18666666666666668 1.5333333333333332 3.0266666666666664 3.0266666666666664 0 0 1 -0.30666666666666664 1.4133333333333333c-0.10666666666666666 0.18666666666666668 -0.3466666666666667 0.21333333333333332 -0.5866666666666667 0.26666666666666666a11.719999999999999 11.719999999999999 0 0 1 -1.2 0.12c-1.1466666666666665 0.15999999999999998 -1.9733333333333332 0 -2.813333333333333 0.18666666666666668a4.533333333333333 4.533333333333333 0 0 0 -1.9733333333333332 0.7999999999999999A19.759999999999998 19.759999999999998 0 0 0 15.280000000000001 25.333333333333332a54.28 54.28 0 0 0 -3.8666666666666663 6 0.42666666666666664 0.42666666666666664 0 0 0 0.18666666666666668 0.6666666666666666 0.41333333333333333 0.41333333333333333 0 0 0 0.5733333333333333 -0.17333333333333334 50.986666666666665 50.986666666666665 0 0 1 4 -5.7333333333333325A18.88 18.88 0 0 1 19.173333333333332 22.666666666666664a3.533333333333333 3.533333333333333 0 0 1 1.4666666666666668 -0.5333333333333333c0.8266666666666667 -0.12 1.6533333333333333 0 2.7733333333333334 -0.12a5.413333333333332 5.413333333333332 0 0 0 1.92 -0.2533333333333333 3.2666666666666666 3.2666666666666666 0 0 0 1.44 -2.92Z" fill="currentColor" fill-rule="evenodd" stroke-width="1.3333"></path>
    <path d="M29.85333333333333 26.586666666666666c-0.37333333333333335 -0.7599999999999999 -0.7733333333333332 -1.5066666666666664 -1.1866666666666665 -2.2399999999999998 -0.6266666666666666 -1.08 -1.0533333333333332 -1.6266666666666665 -1.6133333333333333 -2.76 -0.45333333333333337 -0.52 -0.88 -0.07999999999999999 -0.7466666666666667 0.45333333333333337a20.599999999999998 20.599999999999998 0 0 0 1.3333333333333333 3.333333333333333c0.37333333333333335 0.7599999999999999 0.7999999999999999 1.4933333333333334 1.2133333333333334 2.2266666666666666 0.6133333333333333 1.0933333333333333 1.3333333333333333 2.1466666666666665 1.8266666666666667 3.2933333333333334a0.42666666666666664 0.42666666666666664 0 1 0 0.7866666666666666 -0.31999999999999995 29.546666666666667 29.546666666666667 0 0 0 -1.6133333333333333 -3.986666666666667Z" fill="currentColor" fill-rule="evenodd" stroke-width="1.3333"></path>
    <path d="M22.133333333333333 28.64a9.333333333333332 9.333333333333332 0 0 0 -0.6666666666666666 -1.4266666666666667 11.093333333333334 11.093333333333334 0 0 0 -1.6933333333333334 -2.0533333333333332 0.3866666666666666 0.3866666666666666 0 0 0 -0.5333333333333333 -0.07999999999999999 0.39999999999999997 0.39999999999999997 0 0 0 0 0.5333333333333333c0.3866666666666666 0.6799999999999999 0.6266666666666666 1.3333333333333333 0.9333333333333332 2.04 0.21333333333333332 0.45333333333333337 0.42666666666666664 0.9066666666666667 0.6666666666666666 1.3333333333333333 0.39999999999999997 0.7466666666666667 0.8666666666666667 1.4533333333333334 1.3333333333333333 2.1999999999999997a0.42666666666666664 0.42666666666666664 0 0 0 0.5733333333333333 0.19999999999999998 0.44 0.44 0 0 0 0.19999999999999998 -0.5733333333333333c-0.27999999999999997 -0.7333333333333334 -0.5333333333333333 -1.48 -0.8133333333333332 -2.173333333333333Z" fill="currentColor" fill-rule="evenodd" stroke-width="1.3333"></path>
    <path d="M4.333333333333333 9.213333333333333c0 0.3333333333333333 0 0.6666666666666666 0.09333333333333334 1l0.06666666666666667 0.6533333333333333a2.973333333333333 2.973333333333333 0 0 0 0.09333333333333334 0.4933333333333333 0.6266666666666666 0.6266666666666666 0 0 0 0.5333333333333333 0.31999999999999995 0.5866666666666667 0.5866666666666667 0 0 0 0.5599999999999999 -0.3333333333333333 16.906666666666666 16.906666666666666 0 0 0 0.7866666666666666 -2.7466666666666666A2.16 2.16 0 0 1 6.666666666666666 8.133333333333333a2.96 2.96 0 0 1 0.5466666666666666 -0.6c0.6399999999999999 -0.5066666666666666 1.4 -0.7866666666666666 2.0666666666666664 -1.3333333333333333a0.7466666666666667 0.7466666666666667 0 0 0 0.09333333333333334 -1.08 9.333333333333332 9.333333333333332 0 0 1 -1.64 -0.7599999999999999 2.1066666666666665 2.1066666666666665 0 0 1 -0.5066666666666666 -0.4666666666666666A3.3200000000000003 3.3200000000000003 0 0 1 6.666666666666666 2.973333333333333a9.333333333333332 9.333333333333332 0 0 1 -0.36 -1.1866666666666665c0 -0.24 0 -0.7466666666666667 -0.15999999999999998 -1.08a1.2 1.2 0 0 0 -0.17333333333333334 -0.45333333333333337 0.6133333333333333 0.6133333333333333 0 0 0 -0.44 -0.2533333333333333 0.5599999999999999 0.5599999999999999 0 0 0 -0.48 0.17333333333333334 0.5466666666666666 0.5466666666666666 0 0 0 -0.18666666666666668 0.30666666666666664s0 0.22666666666666668 0 0.29333333333333333l-0.14666666666666667 0.48 -0.6 1.5066666666666664a3.52 3.52 0 0 1 -1.24 1.5199999999999998 2.6666666666666665 2.6666666666666665 0 0 1 -1.88 0.37333333333333335 0.37333333333333335 0.37333333333333335 0 0 0 -0.44 0.29333333333333333c-0.26666666666666666 1.3333333333333333 1.3333333333333333 1.3333333333333333 2.44 2.1466666666666665a3.2666666666666666 3.2666666666666666 0 0 1 1.2133333333333334 1.5333333333333332 4.16 4.16 0 0 1 0.12 0.5866666666666667ZM1.5466666666666664 5.466666666666666a3.3066666666666666 3.3066666666666666 0 0 0 1.7733333333333334 -0.42666666666666664 4.4799999999999995 4.4799999999999995 0 0 0 1.72 -1.8l0.21333333333333332 -0.44a5.626666666666666 5.626666666666666 0 0 0 0.27999999999999997 0.9199999999999999 4 4 0 0 0 0.6133333333333333 1.08 3.893333333333333 3.893333333333333 0 0 0 0.6133333333333333 0.6266666666666666 4.093333333333333 4.093333333333333 0 0 0 0.5599999999999999 0.37333333333333335 7.653333333333333 7.653333333333333 0 0 0 -0.9733333333333333 0.6399999999999999 3.7199999999999998 3.7199999999999998 0 0 0 -0.84 0.96 4 4 0 0 0 -0.3333333333333333 0.7333333333333334 4.1866666666666665 4.1866666666666665 0 0 0 -1.6266666666666665 -1.8266666666666667 6.093333333333334 6.093333333333334 0 0 0 -2 -0.84Z" fill="currentColor" fill-rule="evenodd" stroke-width="1.3333"></path>
  </g>
</svg>