<svg xmlns="http://www.w3.org/2000/svg" viewBox="0 0 32 32" id="Ecology-Globe-Hand-1--Streamline-Freehand" height="32" width="32">
  <desc>
    Ecology Globe Hand 1 Streamline Icon: https://streamlinehq.com
  </desc>
  <g>
    <path d="M18.546666666666667 0.15999999999999998C11.146666666666665 -1.1066666666666665 2.293333333333333 5.333333333333333 3.2266666666666666 13.479999999999999a15.12 15.12 0 0 0 0.5466666666666666 2.6666666666666665 0.41333333333333333 0.41333333333333333 0 0 0 0.4933333333333333 0.27999999999999997c0.6266666666666666 -0.17333333333333334 0 -0.7333333333333334 -0.15999999999999998 -3.0266666666666664A9.546666666666667 9.546666666666667 0 0 1 6.666666666666666 6.293333333333333C11.599999999999998 0.5733333333333333 15.84 1.2 18.293333333333333 1.64c2.893333333333333 0.48 6.88 3.3866666666666667 8.653333333333332 7.453333333333333a10.213333333333333 10.213333333333333 0 0 1 0.3866666666666666 7.466666666666666 0.45333333333333337 0.45333333333333337 0 1 0 0.8533333333333333 0.29333333333333333C30.77333333333333 9.76 25.333333333333332 1.44 18.546666666666667 0.15999999999999998Z" fill="currentColor" fill-rule="evenodd" stroke-width="1.3333"></path>
    <path d="m25.46666666666667 15.04 -0.41333333333333333 -1.3333333333333333c-0.13333333333333333 -0.5066666666666666 0.26666666666666666 -1.3333333333333333 0.2533333333333333 -2.2399999999999998s-0.42666666666666664 -1.5733333333333333 -1.2266666666666666 -1.5733333333333333a10.546666666666667 10.546666666666667 0 0 1 -4.24 -1.1466666666666665c-1.44 -0.9066666666666667 -1.04 -2.6666666666666665 -0.39999999999999997 -2.8266666666666667 0.8933333333333333 -0.19999999999999998 2.373333333333333 0.6 3.413333333333333 0.45333333333333337 0.44 -0.06666666666666667 0.6666666666666666 -0.36 1.0666666666666667 -0.9333333333333332s-0.19999999999999998 -0.7599999999999999 -0.42666666666666664 -0.5733333333333333c-0.26666666666666666 0.39999999999999997 -0.48 0.5866666666666667 -0.7333333333333334 0.6 -1.0133333333333332 0.06666666666666667 -2.333333333333333 -0.9066666666666667 -3.546666666666667 -0.7333333333333334s-2.12 2.1333333333333333 -1.6266666666666665 3.5599999999999996c1.0133333333333332 2.733333333333333 3.6799999999999997 2.533333333333333 5.333333333333333 2.893333333333333a8.106666666666666 8.106666666666666 0 0 0 1.0666666666666667 0.18666666666666668c0.19999999999999998 0.72 -0.27999999999999997 1.8666666666666665 0 2.6666666666666665l0.5066666666666666 1.2533333333333332c0.3866666666666666 1.1466666666666665 2.0933333333333333 0.9466666666666665 2.6666666666666665 1s0.5066666666666666 -0.8933333333333333 0.09333333333333334 -0.9199999999999999c-0.7333333333333334 0.039999999999999994 -1.6933333333333334 0.039999999999999994 -1.7866666666666666 -0.3333333333333333Z" fill="currentColor" fill-rule="evenodd" stroke-width="1.3333"></path>
    <path d="M8.466666666666665 5.4399999999999995c0.42666666666666664 0.17333333333333334 0.44 0 0.7599999999999999 0.26666666666666666 0.7733333333333332 0.7999999999999999 -1.3333333333333333 4 0.27999999999999997 5.333333333333333s3.1866666666666665 -0.7999999999999999 4.24 -0.96c0.7599999999999999 -0.12 1 1.1733333333333333 1.1066666666666665 1.3333333333333333a3.0133333333333328 3.0133333333333328 0 0 1 -0.3866666666666666 2.466666666666667 4.76 4.76 0 0 1 -0.72 1.08 0.45333333333333337 0.45333333333333337 0 0 0 0.6399999999999999 0.6266666666666666 6.306666666666667 6.306666666666667 0 0 0 0.96 -1.2266666666666666c1.8 -3.0399999999999996 0.14666666666666667 -5.92 -1.7733333333333334 -5.7333333333333325a5.933333333333334 5.933333333333334 0 0 0 -2.1066666666666665 0.96c-2.1333333333333333 1.2533333333333332 -0.6133333333333333 -1.2933333333333332 -0.7999999999999999 -3.36 -0.13333333333333333 -1.1466666666666665 -0.6933333333333334 -1.68 -1.5866666666666664 -1.76s-0.9066666666666667 0.8666666666666667 -0.6133333333333333 0.9733333333333333Z" fill="currentColor" fill-rule="evenodd" stroke-width="1.3333"></path>
    <path d="M16.986666666666665 16.68c-1.0133333333333332 -0.8266666666666667 -2.44 -0.6533333333333333 -3.413333333333333 1.2133333333333334a4.986666666666666 4.986666666666666 0 0 0 -0.9333333333333332 -1.4266666666666667A1.9866666666666666 1.9866666666666666 0 0 0 9.333333333333332 17.333333333333332a3.84 3.84 0 0 0 -0.6 -0.9333333333333332c-0.6133333333333333 -0.6666666666666666 -2.32 -1.1466666666666665 -3.0133333333333328 -0.14666666666666667 -2.2666666666666666 3.413333333333333 0.6533333333333333 8.48 4 10.293333333333333A12.946666666666667 12.946666666666667 0 0 1 12.293333333333333 28c-0.06666666666666667 4 -0.12 3.44 -0.07999999999999999 3.5866666666666664a0.42666666666666664 0.42666666666666664 0 0 0 0.8266666666666667 0.06666666666666667c0 -0.10666666666666666 0.26666666666666666 -3.3466666666666662 0.26666666666666666 -3.453333333333333 0 -1.0533333333333332 -0.39999999999999997 -1.2533333333333332 -2.96 -2.84C8 24 5.333333333333333 19.666666666666664 6.893333333333333 17.093333333333334c0.13333333333333333 0.24 0.7733333333333332 0 0.9333333333333332 0.19999999999999998 0.9733333333333333 0.9333333333333332 0.88 2.92 1.68 4.226666666666667a13.253333333333332 13.253333333333332 0 0 0 2.173333333333333 2.32c0.4933333333333333 0.3333333333333333 0.9733333333333333 0.10666666666666666 0.6533333333333333 -0.4933333333333333 -0.6133333333333333 -1.4266666666666667 -1.76 -0.5066666666666666 -2.5199999999999996 -4.533333333333333 0.37333333333333335 -0.22666666666666668 0 -1.16 0.8266666666666667 -1.5599999999999998 1.3333333333333333 -0.6799999999999999 1.92 2.5066666666666664 2.8 4.359999999999999 0.13333333333333333 0.29333333333333333 0.6 1.3333333333333333 0.7999999999999999 1.76s0.9733333333333333 0.10666666666666666 0.9733333333333333 0a37.093333333333334 37.093333333333334 0 0 1 -1.1333333333333333 -4.08c0.22666666666666668 -0.6666666666666666 1.3333333333333333 -2.08 1.9333333333333331 -1.4666666666666668s0.7066666666666667 3.2666666666666666 2.6666666666666665 5a0.44 0.44 0 0 0 0.6399999999999999 -0.6133333333333333c-1.5866666666666664 -1.8266666666666667 -0.9866666666666666 -4.426666666666666 -2.333333333333333 -5.533333333333333Z" fill="currentColor" fill-rule="evenodd" stroke-width="1.3333"></path>
    <path d="M25.333333333333332 17.906666666666666a2.8 2.8 0 0 0 -2.12 1.893333333333333 7.48 7.48 0 0 1 -1.2133333333333334 2.7466666666666666 1.5199999999999998 1.5199999999999998 0 0 1 -1.6666666666666665 0.4933333333333333 0.3866666666666666 0.3866666666666666 0 0 0 -0.5333333333333333 0.17333333333333334c-0.39999999999999997 0.8133333333333332 2.253333333333333 1.5733333333333333 3.76 -1.1333333333333333 0.8266666666666667 -1.48 0.7066666666666667 -2.36 1.76 -2.6666666666666665a0.5733333333333333 0.5733333333333333 0 0 1 0.7333333333333334 0.27999999999999997 3.3200000000000003 3.3200000000000003 0 0 1 0 3.16C25.333333333333332 24.666666666666664 24.226666666666667 25.333333333333332 22.253333333333334 27.026666666666664a0.96 0.96 0 0 0 -0.27999999999999997 0.6933333333333334 11.266666666666666 11.266666666666666 0 0 0 0.6933333333333334 3.0133333333333328c0.12 0.30666666666666664 0.26666666666666666 0.6266666666666666 0.6133333333333333 0.5866666666666667a0.4666666666666666 0.4666666666666666 0 0 0 0.42666666666666664 -0.44 11.2 11.2 0 0 1 -0.5733333333333333 -2.5466666666666664c-0.10666666666666666 -1.08 -0.31999999999999995 0 1.5066666666666664 -1.6533333333333333a7.7333333333333325 7.7333333333333325 0 0 0 3.1999999999999997 -4.133333333333333c0.5599999999999999 -2.08 -0.36 -4.986666666666666 -2.5066666666666664 -4.64Z" fill="currentColor" fill-rule="evenodd" stroke-width="1.3333"></path>
  </g>
</svg>