<svg xmlns="http://www.w3.org/2000/svg" viewBox="0 0 32 32" id="Business-Management-Teamwork-Hands-Action-3--Streamline-Freehand" height="32" width="32">
  <desc>
    Business Management Teamwork Hands Action 3 Streamline Icon: https://streamlinehq.com
  </desc>
  <g>
    <path d="M31.026666666666664 28.346666666666668c-1.3333333333333333 -1.8 -2.8266666666666667 -3.36 -4 -5.119999999999999a9.213333333333333 9.213333333333333 0 0 1 -1.5066666666666664 -3.7199999999999998c-0.19999999999999998 -1.1066666666666665 -0.31999999999999995 -2.293333333333333 -0.6 -3.413333333333333a9.786666666666665 9.786666666666665 0 0 0 -0.8666666666666667 -2.3066666666666666 3.1466666666666665 3.1466666666666665 0 0 0 -1.48 -1.3333333333333333 1.1866666666666665 1.1866666666666665 0 0 0 -1.2133333333333334 0.21333333333333332 2.16 2.16 0 0 0 -0.4933333333333333 0.7333333333333334l-0.12 -0.06666666666666667a0.8933333333333333 0.8933333333333333 0 0 0 -0.41333333333333333 -0.13333333333333333 1.44 1.44 0 0 0 -0.41333333333333333 0s-1.2533333333333332 0.3333333333333333 -1.1333333333333333 0.8666666666666667 1.1199999999999999 0.29333333333333333 1.8666666666666665 0.5466666666666666a0.88 0.88 0 0 0 0 0.18666666666666668 13.879999999999999 13.879999999999999 0 0 0 1.08 4.24 0.44 0.44 0 0 0 0.5733333333333333 0.22666666666666668 0.42666666666666664 0.42666666666666664 0 0 0 0.24 -0.5599999999999999 13.333333333333332 13.333333333333332 0 0 1 -0.7733333333333332 -3.3466666666666662c0 -0.22666666666666668 0 -2 0.52 -1.6266666666666665a1.68 1.68 0 0 1 0.31999999999999995 0.29333333333333333 1.5999999999999999 1.5999999999999999 0 0 1 0.26666666666666666 0.39999999999999997 8 8 0 0 1 0.6533333333333333 2c0.2533333333333333 1.1066666666666665 0.3866666666666666 2.2666666666666666 0.5733333333333333 3.3466666666666662A10.306666666666667 10.306666666666667 0 0 0 26.026666666666664 24c1.2666666666666666 1.7066666666666666 2.9466666666666663 3.16 4.3999999999999995 4.866666666666666a0.3866666666666666 0.3866666666666666 0 0 0 0.5466666666666666 0.06666666666666667 0.3866666666666666 0.3866666666666666 0 0 0 0.05333333333333333 -0.5866666666666667Z" fill="currentColor" fill-rule="evenodd" stroke-width="1.3333"></path>
    <path d="M22.4 28.46666666666667a8 8 0 0 0 -0.9333333333333332 -0.96 6.573333333333332 6.573333333333332 0 0 0 -2.466666666666667 -1.2133333333333334 11.293333333333333 11.293333333333333 0 0 0 -3.9333333333333336 -0.17333333333333334 0.3866666666666666 0.3866666666666666 0 0 0 -0.37333333333333335 0.3866666666666666 0.37333333333333335 0.37333333333333335 0 0 0 0.3866666666666666 0.37333333333333335 13.719999999999999 13.719999999999999 0 0 1 2.96 0.5599999999999999c0.37333333333333335 0.12 0.7333333333333334 0.26666666666666666 1.0933333333333333 0.41333333333333333a6.573333333333332 6.573333333333332 0 0 1 1.4533333333333334 0.7733333333333332 9.333333333333332 9.333333333333332 0 0 1 1.1866666666666665 0.9866666666666666c0.6 0.5866666666666667 1.1466666666666665 1.2 1.76 1.76a0.44 0.44 0 1 0 0.6399999999999999 -0.6c-0.6266666666666666 -0.7466666666666667 -1.1466666666666665 -1.5599999999999998 -1.7733333333333334 -2.3066666666666666Z" fill="currentColor" fill-rule="evenodd" stroke-width="1.3333"></path>
    <path d="M17.85333333333333 22.29333333333333a10.36 10.36 0 0 0 1.9733333333333332 -1.3333333333333333 3.253333333333333 3.253333333333333 0 0 0 0.8666666666666667 -1.7333333333333334 1.2266666666666666 1.2266666666666666 0 0 0 -0.5333333333333333 -1.1066666666666665 3.24 3.24 0 0 0 -1.8666666666666665 -0.5066666666666666 9.573333333333332 9.573333333333332 0 0 0 0.48 -1.2666666666666666 1.5999999999999999 1.5999999999999999 0 0 0 0 -1.3333333333333333 1.3333333333333333 1.3333333333333333 0 0 0 -0.9333333333333332 -0.6399999999999999 3.6399999999999997 3.6399999999999997 0 0 0 -1.5066666666666664 0.14666666666666667 2.786666666666666 2.786666666666666 0 0 0 0.18666666666666668 -1.0266666666666666A1.8666666666666665 1.8666666666666665 0 0 0 15.746666666666666 12a2.6666666666666665 2.6666666666666665 0 0 0 -3.173333333333333 0 16.186666666666667 16.186666666666667 0 0 0 -3.466666666666667 3.36 3.466666666666667 3.466666666666667 0 0 0 -0.27999999999999997 -0.7333333333333334 1.7733333333333334 1.7733333333333334 0 0 0 -1.4933333333333334 -1 2.253333333333333 2.253333333333333 0 0 0 -1.5599999999999998 0.5333333333333333 3.3066666666666666 3.3066666666666666 0 0 0 -1.2533333333333332 2.44c-0.14666666666666667 1.7333333333333334 0.6666666666666666 3.88 0.3866666666666666 5.426666666666667A5.213333333333333 5.213333333333333 0 0 1 4 23.65333333333333a43.10666666666666 43.10666666666666 0 0 0 -3.0666666666666664 4.173333333333333 0.42666666666666664 0.42666666666666664 0 1 0 0.7733333333333332 0.37333333333333335 43.72 43.72 0 0 1 3.08 -4 5.8133333333333335 5.8133333333333335 0 0 0 1.08 -2.12c0.31999999999999995 -1.5733333333333333 -0.44 -3.7733333333333334 -0.2533333333333333 -5.52a2.2266666666666666 2.2266666666666666 0 0 1 0.84 -1.64 1.2 1.2 0 0 1 0.7866666666666666 -0.26666666666666666 0.6266666666666666 0.6266666666666666 0 0 1 0.5066666666666666 0.3866666666666666 1.4933333333333334 1.4933333333333334 0 0 1 0.15999999999999998 0.4666666666666666A3.4266666666666663 3.4266666666666663 0 0 1 8 16l0 0.6533333333333333a0.6533333333333333 0.6533333333333333 0 0 0 0.13333333333333333 0.36 0.6 0.6 0 0 0 0.48 0.27999999999999997 0.6533333333333333 0.6533333333333333 0 0 0 0.52 -0.19999999999999998 43.33333333333333 43.33333333333333 0 0 1 3.52 -3.6399999999999997c0.7866666666666666 -0.6 1.5599999999999998 -1.0133333333333332 2.2666666666666666 -0.45333333333333337 0.30666666666666664 0.24 0.22666666666666668 0.5866666666666667 0.12 0.9199999999999999a6.373333333333333 6.373333333333333 0 0 1 -0.6799999999999999 1.3333333333333333c-0.41333333333333333 0.22666666666666668 -1 0.6 -1.5333333333333332 0.96s-0.7999999999999999 0.4666666666666666 -1.04 0.6266666666666666l-0.31999999999999995 0.19999999999999998a0.5466666666666666 0.5466666666666666 0 0 0 -0.15999999999999998 0.17333333333333334 0.6533333333333333 0.6533333333333333 0 0 0 0.07999999999999999 0.9733333333333333 0.7066666666666667 0.7066666666666667 0 0 0 0.8266666666666667 0.12l0.36 -0.19999999999999998 1.3333333333333333 -0.8533333333333333 1.0533333333333332 -0.6533333333333333 0.10666666666666666 0 0.13333333333333333 -0.06666666666666667a6.906666666666666 6.906666666666666 0 0 1 1.96 -0.7066666666666667l0.30666666666666664 0 0 0.07999999999999999a6.226666666666667 6.226666666666667 0 0 1 -0.5733333333333333 1.3333333333333333 3.6133333333333333 3.6133333333333333 0 0 1 -1.0266666666666666 0.9466666666666665l-1.893333333333333 0.9333333333333332a6.306666666666667 6.306666666666667 0 0 0 -1.5333333333333332 0.8133333333333332 0.8266666666666667 0.8266666666666667 0 0 0 -0.26666666666666666 0.41333333333333333 0.6533333333333333 0.6533333333333333 0 0 0 0.48 0.88 1.1199999999999999 1.1199999999999999 0 0 0 0.6799999999999999 0 12.626666666666667 12.626666666666667 0 0 0 1.5199999999999998 -0.9466666666666665l1.8399999999999999 -0.88 0.19999999999999998 -0.14666666666666667a5.1466666666666665 5.1466666666666665 0 0 1 0.9733333333333333 -0.30666666666666664 2.2666666666666666 2.2666666666666666 0 0 1 1.6933333333333334 0.21333333333333332s0 0 0 0.09333333333333334a1.0533333333333332 1.0533333333333332 0 0 1 -0.10666666666666666 0.3466666666666667 2.0533333333333332 2.0533333333333332 0 0 1 -0.37333333333333335 0.5466666666666666A8.986666666666666 8.986666666666666 0 0 1 17.333333333333332 21.333333333333332c-0.9866666666666666 0.5866666666666667 -2.04 1.0533333333333332 -3.0266666666666664 1.5733333333333333a10.36 10.36 0 0 0 -3.413333333333333 2.96c-1.3333333333333333 1.68 -2.253333333333333 3.6666666666666665 -3.5066666666666664 5.52a0.3866666666666666 0.3866666666666666 0 1 0 0.6266666666666666 0.44c1.3333333333333333 -1.8133333333333335 2.28 -3.7733333333333334 3.6 -5.3999999999999995a9.333333333333332 9.333333333333332 0 0 1 3.16 -2.6666666666666665c0.9733333333333333 -0.44 2.0666666666666664 -0.8933333333333333 3.08 -1.4666666666666668Z" fill="currentColor" fill-rule="evenodd" stroke-width="1.3333"></path>
    <path d="M5.413333333333332 3.813333333333333c0.22666666666666668 0.4933333333333333 0.39999999999999997 1 0.5866666666666667 1.5066666666666664l0.5599999999999999 1.5199999999999998c0.5866666666666667 1.5733333333333333 1.1733333333333333 3.16 1.8 4.693333333333333a0.45333333333333337 0.45333333333333337 0 0 0 0.5599999999999999 0.27999999999999997 0.44 0.44 0 0 0 0.26666666666666666 -0.5599999999999999c-0.3333333333333333 -1.2 -0.5466666666666666 -2.44 -0.88 -3.6666666666666665a17.52 17.52 0 0 0 -0.8266666666666667 -2.44 11.76 11.76 0 0 0 -2.493333333333333 -3.5733333333333333 0.37333333333333335 0.37333333333333335 0 0 0 -0.5333333333333333 0 0.3866666666666666 0.3866666666666666 0 0 0 0 0.5466666666666666 10.239999999999998 10.239999999999998 0 0 1 0.96 1.6933333333333334Z" fill="currentColor" fill-rule="evenodd" stroke-width="1.3333"></path>
    <path d="M13.933333333333332 4.226666666666667a6.239999999999999 6.239999999999999 0 0 0 1.08 1.5066666666666664 7.640000000000001 7.640000000000001 0 0 0 2.04 1.3333333333333333 16.626666666666665 16.626666666666665 0 0 1 2.8 1.4 2.213333333333333 2.213333333333333 0 0 1 1 1.4533333333333334 1.3333333333333333 1.3333333333333333 0 0 1 -0.10666666666666666 0.8266666666666667 0.7333333333333334 0.7333333333333334 0 0 1 -0.6399999999999999 0.3333333333333333 2.1333333333333333 2.1333333333333333 0 0 1 -0.52 0 3.813333333333333 3.813333333333333 0 0 1 -0.5466666666666666 -0.19999999999999998l-0.6399999999999999 -0.29333333333333333 -0.3466666666666667 0.6933333333333334 0.6133333333333333 0.3466666666666667a6.8133333333333335 6.8133333333333335 0 0 0 0.6399999999999999 0.29333333333333333A2.8 2.8 0 0 0 20 12a1.6933333333333334 1.6933333333333334 0 0 0 1.5866666666666664 -0.6266666666666666 2.5199999999999996 2.5199999999999996 0 0 0 0.45333333333333337 -1.5999999999999999 3.36 3.36 0 0 0 -1.3333333333333333 -2.466666666666667 10.733333333333334 10.733333333333334 0 0 0 -2.5733333333333333 -1.3333333333333333 8.506666666666666 8.506666666666666 0 0 1 -2.2266666666666666 -1.16 5.226666666666667 5.226666666666667 0 0 1 -0.9733333333333333 -1.1333333333333333C14.253333333333332 2.533333333333333 13.786666666666665 1.3333333333333333 13.053333333333331 0.19999999999999998a0.41333333333333333 0.41333333333333333 0 0 0 -0.5866666666666667 -0.13333333333333333 0.44 0.44 0 0 0 -0.14666666666666667 0.6c0.6533333333333333 1.1199999999999999 1.0133333333333332 2.413333333333333 1.6133333333333333 3.5599999999999996Z" fill="currentColor" fill-rule="evenodd" stroke-width="1.3333"></path>
  </g>
</svg>