<svg xmlns="http://www.w3.org/2000/svg" viewBox="0 0 32 32" id="Music-Note-1--Streamline-Freehand" height="32" width="32">
  <desc>
    Music Note 1 Streamline Icon: https://streamlinehq.com
  </desc>
  <g>
    <path d="M23.4 7.426666666666667a9.973333333333333 9.973333333333333 0 0 0 -3.2266666666666666 -5.1866666666666665A12.919999999999998 12.919999999999998 0 0 0 17.813333333333333 0.44a3.28 3.28 0 0 0 -2.3066666666666666 -0.36 1.1066666666666665 1.1066666666666665 0 0 0 -0.84 0.7866666666666666 6.32 6.32 0 0 0 0.14666666666666667 2.0666666666666664c0.13333333333333333 1.3333333333333333 0.2533333333333333 2.6666666666666665 0.27999999999999997 4a24.8 24.8 0 0 1 -0.07999999999999999 2.6666666666666665c-0.19999999999999998 2.733333333333333 -0.22666666666666668 5.466666666666666 -0.41333333333333333 8.186666666666666 0 0.6799999999999999 -0.09333333333333334 1.3333333333333333 -0.15999999999999998 2.0266666666666664L14.159999999999998 24a4.56 4.56 0 0 0 -1.5733333333333333 -2.04A5.786666666666666 5.786666666666666 0 0 0 8.253333333333334 21.333333333333332a6.666666666666666 6.666666666666666 0 0 0 -3.84 2.1333333333333333 4.4799999999999995 4.4799999999999995 0 0 0 -0.7066666666666667 1.3333333333333333 8.48 8.48 0 0 0 -0.3466666666666667 2.08 5.6933333333333325 5.6933333333333325 0 0 0 0 0.96 4.08 4.08 0 0 0 0.19999999999999998 0.9733333333333333 4.213333333333333 4.213333333333333 0 0 0 2.733333333333333 2.9333333333333336 7.079999999999999 7.079999999999999 0 0 0 5.52 -1.0533333333333332 8.173333333333332 8.173333333333332 0 0 0 2.0533333333333332 -1.6666666666666665c1.2 -1.3333333333333333 0.96 -2.48 1.3333333333333333 -6.906666666666666 0 -0.7599999999999999 0.17333333333333334 -1.5066666666666664 0.29333333333333333 -2.253333333333333q0.21333333333333332 -1.5333333333333332 0.36 -3.08c0.22666666666666668 -2.373333333333333 0.3466666666666667 -4.76 0.6 -7.133333333333333a24.57333333333333 24.57333333333333 0 0 0 0.10666666666666666 -2.8c0 -1.3333333333333333 -0.15999999999999998 -2.6666666666666665 -0.29333333333333333 -4.1066666666666665 0 -0.24 -0.12 -0.5866666666666667 -0.18666666666666668 -0.9466666666666665a1.6266666666666665 1.6266666666666665 0 0 1 0 -0.36 1.9866666666666666 1.9866666666666666 0 0 1 1.0133333333333332 0.24 11.013333333333332 11.013333333333332 0 0 1 2.12 1.5466666666666664 9.226666666666667 9.226666666666667 0 0 1 2.6666666666666665 3.5599999999999996 4.506666666666666 4.506666666666666 0 0 1 -0.2533333333333333 4.173333333333333 5.16 5.16 0 0 1 -0.7599999999999999 0.9333333333333332 8 8 0 0 1 -0.9466666666666665 0.8266666666666667 0.44 0.44 0 0 0 0.07999999999999999 0.6133333333333333 0.4666666666666666 0.4666666666666666 0 0 0 0.6399999999999999 0.10666666666666666 13.333333333333332 13.333333333333332 0 0 0 1.08 -0.8666666666666667 6.56 6.56 0 0 0 0.9466666666666665 -1.04 5.333333333333333 5.333333333333333 0 0 0 0.7333333333333334 -4.1066666666666665ZM11.293333333333333 29.77333333333333A5.893333333333333 5.893333333333333 0 0 1 7.466666666666666 30.666666666666664a2.813333333333333 2.813333333333333 0 0 1 -2.44 -2.253333333333333 4.08 4.08 0 0 1 -0.13333333333333333 -0.6799999999999999 4.333333333333333 4.333333333333333 0 0 1 0 -0.72 7.493333333333333 7.493333333333333 0 0 1 0.19999999999999998 -1.44 3.1333333333333333 3.1333333333333333 0 0 1 0.5333333333333333 -1.1733333333333333 5.24 5.24 0 0 1 2.9333333333333336 -1.7333333333333334 4.573333333333333 4.573333333333333 0 0 1 3.44 0.2533333333333333 3.466666666666667 3.466666666666667 0 0 1 1.3333333333333333 1.48c0.8266666666666667 1.9066666666666665 0.6133333333333333 3.6 -2.04 5.373333333333333Z" fill="currentColor" stroke-width="1.3333"></path>
    <path d="M9.586666666666666 4.226666666666667a4.786666666666666 4.786666666666666 0 0 0 -2.413333333333333 -1.76 5.333333333333333 5.333333333333333 0 0 0 -1.3333333333333333 -0.3866666666666666 1.5999999999999999 1.5999999999999999 0 0 0 -1.1066666666666665 0.2533333333333333 1.2266666666666666 1.2266666666666666 0 0 0 -0.42666666666666664 0.7466666666666667c0 0.27999999999999997 0.13333333333333333 0.3466666666666667 0.24 0.5733333333333333 0.30666666666666664 0.5866666666666667 0.6 0.8666666666666667 0.8533333333333333 1.4666666666666668s0.31999999999999995 0.7999999999999999 0.45333333333333337 1.2133333333333334c0.36 1.08 0.8933333333333333 2.5199999999999996 1.3333333333333333 3.8 0.10666666666666666 0.30666666666666664 0.21333333333333332 0.6266666666666666 0.30666666666666664 0.9466666666666665l0.7599999999999999 2.1066666666666665a3.16 3.16 0 0 0 -1.3333333333333333 -0.5866666666666667c-0.41333333333333333 -0.10666666666666666 -1.1066666666666665 0.30666666666666664 -1.76 0.7333333333333334a2.9066666666666667 2.9066666666666667 0 0 0 -1.1866666666666665 1.6666666666666665 2.013333333333333 2.013333333333333 0 0 0 -0.06666666666666667 0.7466666666666667 3.373333333333333 3.373333333333333 0 0 0 0.22666666666666668 1.0133333333333332 1.7333333333333334 1.7333333333333334 0 0 0 0.18666666666666668 0.42666666666666664 1.6133333333333333 1.6133333333333333 0 0 0 0.26666666666666666 0.39999999999999997 2.08 2.08 0 0 0 1.7733333333333334 0.84 3.52 3.52 0 0 0 2.253333333333333 -1.4933333333333334 3.92 3.92 0 0 0 0.6266666666666666 -1.1333333333333333c0.29333333333333333 -0.8533333333333333 0 -1.3333333333333333 -0.6399999999999999 -3.3866666666666667 -0.10666666666666666 -0.36 -0.18666666666666668 -0.72 -0.27999999999999997 -1.08s-0.2533333333333333 -0.9866666666666666 -0.39999999999999997 -1.4666666666666668c-0.3333333333333333 -1.1199999999999999 -0.7066666666666667 -2.2266666666666666 -1.0266666666666666 -3.36a13.253333333333332 13.253333333333332 0 0 0 -0.4666666666666666 -1.3333333333333333c-0.26666666666666666 -0.6133333333333333 -0.5733333333333333 -1.2133333333333334 -0.8933333333333333 -1.8133333333333335 0 -0.10666666666666666 -0.15999999999999998 -0.2533333333333333 -0.2533333333333333 -0.39999999999999997a0.9199999999999999 0.9199999999999999 0 0 1 0 -0.17333333333333334 1.0666666666666667 1.0666666666666667 0 0 1 0.5066666666666666 0 5.4399999999999995 5.4399999999999995 0 0 1 1.24 0.30666666666666664 4.56 4.56 0 0 1 1.893333333333333 1.1199999999999999 2.213333333333333 2.213333333333333 0 0 1 0.6533333333333333 1.9466666666666665A2.493333333333333 2.493333333333333 0 0 1 9.333333333333332 6.666666666666666a3.5066666666666664 3.5066666666666664 0 0 1 -0.27999999999999997 0.5466666666666666 0.22666666666666668 0.22666666666666668 0 0 0 0.37333333333333335 0.24 5.1066666666666665 5.1066666666666665 0 0 0 0.3333333333333333 -0.5866666666666667 4 4 0 0 0 0.22666666666666668 -0.6666666666666666 2.6666666666666665 2.6666666666666665 0 0 0 -0.39999999999999997 -1.9733333333333332ZM7.866666666666667 16.426666666666666a2.7466666666666666 2.7466666666666666 0 0 1 -1.4533333333333334 1.0266666666666666 1.3333333333333333 1.3333333333333333 0 0 1 -1.3333333333333333 -0.5466666666666666 1.0133333333333332 1.0133333333333332 0 0 1 -0.15999999999999998 -0.2533333333333333 2.1333333333333333 2.1333333333333333 0 0 1 -0.13333333333333333 -0.30666666666666664 4.786666666666666 4.786666666666666 0 0 1 -0.15999999999999998 -0.6266666666666666 1.7333333333333334 1.7333333333333334 0 0 1 0 -0.5866666666666667 2.44 2.44 0 0 1 0.9333333333333332 -1.2133333333333334 2.16 2.16 0 0 1 1.4666666666666668 -0.4666666666666666 1.5866666666666664 1.5866666666666664 0 0 1 0.7866666666666666 0.39999999999999997c0.6666666666666666 0.6399999999999999 0.8666666666666667 1.4 0.05333333333333333 2.5733333333333333Z" fill="currentColor" stroke-width="1.3333"></path>
    <path d="M28.599999999999998 21.2A4.893333333333333 4.893333333333333 0 0 0 27.066666666666666 18.666666666666664a6.666666666666666 6.666666666666666 0 0 0 -1.1333333333333333 -0.9066666666666667 1.7066666666666666 1.7066666666666666 0 0 0 -1.1333333333333333 -0.19999999999999998 1.2533333333333332 1.2533333333333332 0 0 0 -0.6799999999999999 0.5333333333333333 0.7599999999999999 0.7599999999999999 0 0 0 0 0.6133333333333333 6.0266666666666655 6.0266666666666655 0 0 1 0.41333333333333333 2.813333333333333c-0.27999999999999997 2.1866666666666665 -0.6133333333333333 4.346666666666666 -0.6133333333333333 4.346666666666666a5.1466666666666665 5.1466666666666665 0 0 0 -1.1733333333333333 -0.7333333333333334 3.16 3.16 0 0 0 -1.68 -0.07999999999999999 2.88 2.88 0 0 0 -1.7466666666666666 1.0666666666666667 2.6666666666666665 2.6666666666666665 0 0 0 -0.36 0.6533333333333333 4.493333333333333 4.493333333333333 0 0 0 -0.18666666666666668 1.0266666666666666 2.6666666666666665 2.6666666666666665 0 0 0 0 0.4666666666666666 3 3 0 0 0 0.07999999999999999 0.48 2.1066666666666665 2.1066666666666665 0 0 0 1.3333333333333333 1.4666666666666668 3.466666666666667 3.466666666666667 0 0 0 2.6666666666666665 -0.4666666666666666 4.533333333333333 4.533333333333333 0 0 0 1.0266666666666666 -0.7999999999999999 8.719999999999999 8.719999999999999 0 0 0 0.9466666666666665 -3.413333333333333 26.506666666666664 26.506666666666664 0 0 0 0.24 -7.279999999999999 1.0933333333333333 1.0933333333333333 0 0 1 0.4933333333333333 0.13333333333333333 5.333333333333333 5.333333333333333 0 0 1 1.0266666666666666 0.7733333333333332 4.4399999999999995 4.4399999999999995 0 0 1 1.3333333333333333 1.7733333333333334 2.1866666666666665 2.1866666666666665 0 0 1 -0.15999999999999998 2.04 3.0666666666666664 3.0666666666666664 0 0 1 -0.37333333333333335 0.45333333333333337 4.346666666666666 4.346666666666666 0 0 1 -0.48 0.3866666666666666 0.22666666666666668 0.22666666666666668 0 0 0 0 0.30666666666666664 0.22666666666666668 0.22666666666666668 0 0 0 0.30666666666666664 0.06666666666666667 4.16 4.16 0 0 0 0.5333333333333333 -0.42666666666666664 2.5066666666666664 2.5066666666666664 0 0 0 0.4666666666666666 -0.52 2.5599999999999996 2.5599999999999996 0 0 0 0.3866666666666666 -2.04Zm-6.2 7.746666666666666a2.6666666666666665 2.6666666666666665 0 0 1 -1.72 0.37333333333333335 1.3333333333333333 1.3333333333333333 0 0 1 -1.08 -1.04 1.24 1.24 0 0 1 0 -0.30666666666666664 1.3333333333333333 1.3333333333333333 0 0 1 0 -0.31999999999999995 2.6666666666666665 2.6666666666666665 0 0 1 0.10666666666666666 -0.6533333333333333 1.5333333333333332 1.5333333333333332 0 0 1 0.24 -0.52 2.373333333333333 2.373333333333333 0 0 1 1.3333333333333333 -0.7599999999999999 2.12 2.12 0 0 1 1.5333333333333332 0.14666666666666667 1.48 1.48 0 0 1 0.5599999999999999 0.6799999999999999c0.3466666666666667 0.8666666666666667 0.24 1.6266666666666665 -0.9733333333333333 2.4Z" fill="currentColor" stroke-width="1.3333"></path>
  </g>
</svg>