<svg xmlns="http://www.w3.org/2000/svg" viewBox="0 0 32 32" id="Music-Note-2--Streamline-Freehand" height="32" width="32">
  <desc>
    Music Note 2 Streamline Icon: https://streamlinehq.com
  </desc>
  <g>
    <path d="M14.866666666666667 10.186666666666666c1.3333333333333333 -0.52 2.6666666666666665 -1.0133333333333332 4.1066666666666665 -1.4533333333333334a42.959999999999994 42.959999999999994 0 0 1 7.053333333333333 -1.7466666666666666 0.42666666666666664 0.42666666666666664 0 0 0 0.3866666666666666 -0.4666666666666666 0.44 0.44 0 0 0 -0.48 -0.3866666666666666 37 37 0 0 0 -6.466666666666666 1c-0.9066666666666667 0.24 -1.8 0.5066666666666666 -2.6666666666666665 0.8133333333333332s-1.7466666666666666 0.6399999999999999 -2.6666666666666665 1.0266666666666666c-1.4 0.6266666666666666 -2.4 0.9866666666666666 -3.813333333333333 1.76 -0.7066666666666667 0.3866666666666666 -0.5333333333333333 1.3333333333333333 0.17333333333333334 0.96 1.6533333333333333 -0.6799999999999999 2.84 -0.9199999999999999 4.373333333333333 -1.5066666666666664Z" fill="currentColor" stroke-width="1.3333"></path>
    <path d="M30.04 6.093333333333334a12 12 0 0 0 -0.5733333333333333 -4A3.2933333333333334 3.2933333333333334 0 0 0 27.16 0.06666666666666667c-1.0533333333333332 -0.26666666666666666 -4.226666666666667 0.3333333333333333 -7.653333333333333 1.3333333333333333a81.65333333333334 81.65333333333334 0 0 0 -9.6 3.24 4 4 0 0 0 -1.2133333333333334 0.6933333333333334 3.813333333333333 3.813333333333333 0 0 0 -0.8666666666666667 2.2266666666666666c-0.14666666666666667 1.5066666666666664 0 0.7066666666666667 1.8266666666666667 15.866666666666667a13.893333333333333 13.893333333333333 0 0 1 0.12 4.08 4.506666666666666 4.506666666666666 0 0 1 -1.0266666666666666 2.28c-1.8133333333333335 2.0666666666666664 -4.32 1.16 -5.546666666666667 -0.5599999999999999s-1.1466666666666665 -4 1.6933333333333334 -5.453333333333333a4 4 0 0 1 1.5199999999999998 -0.26666666666666666 8.399999999999999 8.399999999999999 0 0 1 1.5866666666666664 0.06666666666666667 0.3866666666666666 0.3866666666666666 0 0 0 0.45333333333333337 -0.29333333333333333 0.37333333333333335 0.37333333333333335 0 0 0 -0.30666666666666664 -0.44A9.52 9.52 0 0 0 6.0266666666666655 22.666666666666664a4.24 4.24 0 0 0 -1.48 0.30666666666666664c-3.533333333333333 1.6666666666666665 -3.52 4.653333333333333 -2.1066666666666665 6.666666666666666s4.7333333333333325 3.3466666666666662 7.1066666666666665 0.7466666666666667a5.640000000000001 5.640000000000001 0 0 0 1.3333333333333333 -2.8 14.906666666666666 14.906666666666666 0 0 0 0 -4.426666666666666s-1.1333333333333333 -11.159999999999998 -1.3333333333333333 -12a18.21333333333333 18.21333333333333 0 0 1 -0.3333333333333333 -2.893333333333333 2.9333333333333336 2.9333333333333336 0 0 1 0.5599999999999999 -2 7.640000000000001 7.640000000000001 0 0 1 1.72 -0.7733333333333332c2.04 -0.8133333333333332 5.333333333333333 -1.9066666666666665 8.399999999999999 -2.76s5.959999999999999 -1.5333333333333332 6.92 -1.3333333333333333a1.96 1.96 0 0 1 1.3333333333333333 1.2 10.933333333333332 10.933333333333332 0 0 1 0.52 3.52 66.8 66.8 0 0 1 0.4666666666666666 9.879999999999999c-0.21333333333333332 2.32 -0.8133333333333332 4.413333333333333 -2.36 5.493333333333333a4.1066666666666665 4.1066666666666665 0 0 1 -3.453333333333333 0.27999999999999997 2.9066666666666667 2.9066666666666667 0 0 1 -2.1466666666666665 -2.493333333333333 3.253333333333333 3.253333333333333 0 0 1 1.64 -3.5066666666666664 5.16 5.16 0 0 1 4.173333333333333 -0.17333333333333334 0.42666666666666664 0.42666666666666664 0 0 0 0.36 -0.7866666666666666 6.1466666666666665 6.1466666666666665 0 0 0 -4.96 0.14666666666666667 4.133333333333333 4.133333333333333 0 0 0 -2.1866666666666665 4.426666666666666 4 4 0 0 0 2.786666666666666 3.3866666666666667 5.333333333333333 5.333333333333333 0 0 0 4.413333333333333 -0.37333333333333335 7 7 0 0 0 2.6666666666666665 -4.573333333333333c0.8133333333333332 -3.8 0.10666666666666666 -8.879999999999999 -0.026666666666666665 -11.733333333333334Z" fill="currentColor" stroke-width="1.3333"></path>
  </g>
</svg>