<?xml version="1.0" encoding="utf-8"?>
<!-- Generator: Adobe Illustrator 27.5.0, SVG Export Plug-In . SVG Version: 6.00 Build 0)  -->
<svg version="1.1" id="Layer_1" xmlns="http://www.w3.org/2000/svg" xmlns:xlink="http://www.w3.org/1999/xlink" x="0px" y="0px"
	 viewBox="0 0 2000 2000" style="enable-background:new 0 0 2000 2000;" xml:space="preserve">
<path d="M1990.31,967.36c24.63-64.45-1.02-140.72-39.73-194.51c-42.5-58.78-105.5-96.26-167.58-131.27
	c-94.21-47.78-675.53-178.87-796.29-336.12c-20.99-28.82-48.66-51.83-77.32-72.65c-52.82-40.19-106.01-93.6-177.51-90.26
	c-27.39,0.15-53.7,13.86-81.16,8.22c-40.15-12.49-79.71-28.02-121.28-35.58c-107.36-11.11-197.14,81.51-228.51,179.82
	c-6.31,22.77-3.32,48.92-17.71,68.86c-67.7,52.11-132.37,111.84-165.44,192.65c-103.53,194.3-151.94,490.63-91.02,750.41
	c18.65,74.05,35.75,421.01,285.26,423.9c60.59,3.42,100.07-1.25,153.86,34.57c61.59,30.4,112.26,95.44,187.15,86.27
	c76.39-7.1,126.06-83.11,264.91-31.28c105.67,56.38,145.65,123.5,294.7-23.85c135.08-192.31,205.43-58.63,311.77-102.05
	c108.36-38.4,102.67-173.5,164.02-253.26c37.66-46.72,107.07-25.24,156.21-50.8c74.01-29.58,116.14-119.16,97.18-195.55
	C1891.99,1025.07,1968.44,1030,1990.31,967.36z M1903.58,1176.13c22.84,62.52,1.91,140.57-52.48,180.11
	c-43.77,21.29-96.83,10.07-140.77,33.02c-99.65,42.94-89.27,172.51-154.18,244.64c-61.42,67.85-127.51,24.55-201.5,21.82
	c-136.65,7.88-189.19,208.29-301.99,196.75c-49.34-7.25-85.31-46.57-131.27-63.39c-91.25-40.68-140.54-18.89-230.31,21.16
	c-136.88,41.5-173.1-106.98-322.38-111.6c-42.29-3.35-86.85,2.74-126.71-15.03c-139.81-73.32-155.7-253.28-182.08-392.67
	c-32.48-179.32-45.11-354.97,42.84-615.11c34.71-118.99,98.56-203.71,181.43-269.95c30.32-25.04,29.9-3.89,53.69-102.17
	c13.16-49.71,44.77-94.08,83.88-126.91c70.34-60.39,158.09-1.47,236.45,4.38c32.75,4.06,64.99-9.71,97.55-4.29
	c91.87,23.56,147.84,108.26,222.72,159.95c57.21,51.67,55.45,54.97,65.98,50.61c396.3,243.61,700.91,189.93,870.98,391.86
	c45.22,49.9,62.5,123.62,37.49,187.25C1932.69,1017.85,1854.76,1050.01,1903.58,1176.13z"/>
<path d="M1866.24,945.04c-16.77-31.13,26.28-141.1-97.84-246.75c-98.62-81.8-521.63-141.28-638.43-214.1
	c-70.39-44.9-137.22-108.28-222.43-120.61c-113.21-1.02-168.99-101.96-272.12-103.25c-16.22-2.18-74.81,5.38-78.1,26.53
	c-4.36,4.07-6.52,11.05-4.18,17.45c6.84,83.96-93.3,99.4-145.51,139.87C341.68,493.51,351.89,601.54,280,635.36
	c-37.45,12.93-78.08,26.12-98.28,63.35c-50.44,78.74-46.88,176.71-46.21,267.05c0.14,167.88-53.23,153.95,27.58,465.34
	c14.47,111.62,96.58,192.09,212.31,182.56c310.87-13.24,159.21,165.39,359.33,117.27c82.6-23.9,149.89-50.14,229.77,1.88
	c119.75,91.78,121.25,35.87,103.57,31.58c-49.05-14.01-62.42-39.78-92.75-57.65c-101.75-75.62-247.95,16.2-310.57,5.28
	c-41.38-4.25-32.62-65.16-129.08-107.7c-88.23-47.68-224.77,31.9-300.56-69.38c-29.12-46.01-49.85-97.01-55.39-151.46
	c-7.21-78.66-56.93-149.06-17.34-363.29c7.6-71.96-25.17-279.88,79.48-341.28c57.01-27.28,103.93-38.47,123.3-107.49
	c9.9-31.27,17.84-64.89,42.4-88.4c40.59-43.98,106.93-52.12,144.88-98.43c14.84-20.06,33.47-57.76,27.15-85
	c17.99-7.85,40.74-23.76,79.25-9.03c62.28,16.28,108.35,65.26,168.99,85.27c30.73,10.42,64.12,8.12,94.82,18.91
	c135.05,45.54,113.98,83.57,244.71,140.33c140.69,47.06,286.98,76.3,429.48,117.62c334.55,81.65,182.59,285.3,270.7,325.47
	c9.42,0.76,16.96-10.84,10.55-18.72C1873.9,954.92,1868.89,950.8,1866.24,945.04z"/>
<path d="M553.66,1344.58c-57.1-117.32-173.29-442.98-206.45-633.9c-1.51-6.63-10.03-9.5-15.87-7.13
	c-12.23,4.78-5.69,19.43-4.78,29.17c36.69,181.37,95.42,358.79,166.17,529.81c39.31,116.66,110,217.87,173.26,322.33
	c6.13,10.34,23.98,1.35,17.76-9.4C633.41,1493.69,593.59,1427.71,553.66,1344.58z"/>
<path d="M613.68,797.81c24.69,0,4.27-20.78-26.63-93.79c-25.22-57.55-52.64-114.39-70.82-174.65c-1.46-14.12-17.92-24.82-25.78-9.01
	c23.13,95.25,70.1,183.41,114.02,271.61C606.27,796.07,609.93,797.81,613.68,797.81z"/>
<path d="M892.09,1310.87c-14.73-28.36-38.97-17.26-29.82-0.05c59.29,79.15,9.34,36.77,238.67,359.95
	c7.12,11.74,27.64,1.6,20.38-10.79C886.61,1314.47,952.02,1399.61,892.09,1310.87z"/>
<path d="M684.92,438.73c-7.48-5.54-19.41,0.13-18.61,9.7c1.89,10.2,101.15,165.59,117.32,165.59
	C823.3,614.01,762.58,563.6,684.92,438.73z"/>
<path d="M820.64,438.23c169.84,170.72,246.72,222.52,285.47,257.25c293.02,218.97,673.23,414.92,683.75,414.92
	c11.06,0,19.38-15.67,7.16-22.46c-763.74-388-896.04-634.62-986.49-688c-9.22-4.09-20.34,6.04-14.94,15.23
	C802.7,423.92,812.18,430.74,820.64,438.23z"/>
<path d="M1845.42,1022.04c-24.45-6.85-32.11,41.51-34.27,59.49c-1.54,49.05,8.31,98.58-4.34,147.06
	c-17.92,73.42-58.55,41.18-112.74,53.66c-93.49,19.24-138.8,106.86-162.64,196.89c-358.91-345.45-332.96-364.92-353.96-362.59
	c1.14-33.44-15.28-75.8-19.74-79.97c73.33-200.24-162.22-462.34-407.33-318.09c-35.56,20.91-77.07,67.56-94.61,97.34
	c-6.43-3.35,1.15-4-35.59-10.47c-168.22-35.85-216.59,60.76-131.12,199.25c74.55,107.08,93.62,96.57,123.2,117.22
	c63.84,83.3,130.25,113.99,207.07,131.11c128.58,33.8,179.74,12.86,235.48,2.31c53.61-18.66,106.52-55.86,119.39-113.33
	c52.04,77.71,345.72,356.82,351.91,357.48c-35.01,133.9-52.76,117.02-115.5,87.68c-108.31-50.66-200.91,4.22-261.14,102.02
	c-2.79,5.61-39.16,46.44-10.08,46.44c19.24,0,14.71-27.74,66-80.62c34.84-37.05,93.04-70.88,145.27-64.35
	c35.96,6.76,64.16,33.95,99.94,40.7c40.36,6.18,71.82-32.42,84.96-66.43c17.23-52.05,25.38-107.35,47.2-157.92
	c99.35-204.31,261.14,6.99,256.11-250.29c0.07-32.84-0.52-66.15,5.55-98.54C1846.69,1046.18,1861.98,1029.56,1845.42,1022.04z
	 M1140.64,968.88c-23.33,214.06-227.13,290.82-387.72,193.91c-123.39-82.17-152.5-287.5-25.98-392.81
	C928.11,612.16,1153.77,778.19,1140.64,968.88z"/>
</svg>
