<svg xmlns="http://www.w3.org/2000/svg" viewBox="0 0 32 32" id="Toys-Rocking-Horse--Streamline-Freehand" height="32" width="32">
  <desc>
    Toys Rocking Horse Streamline Icon: https://streamlinehq.com
  </desc>
  <title>toys-rocking-horse</title>
  <g>
    <path d="M31.839999999999996 24.506666666666664a0.48 0.48 0 0 0 -0.6666666666666666 0 1.6933333333333334 1.6933333333333334 0 0 1 -0.5466666666666666 0.36c-0.3866666666666666 0.18666666666666668 -0.8133333333333332 0.29333333333333333 -1.1733333333333333 0.44l-0.84 0.27999999999999997a9.253333333333334 9.253333333333334 0 0 0 -0.2533333333333333 -1.7066666666666666 6.7333333333333325 6.7333333333333325 0 0 0 -0.24 -0.7333333333333334 6.32 6.32 0 0 0 -0.31999999999999995 -0.6799999999999999c-0.26666666666666666 -0.45333333333333337 -0.5599999999999999 -0.8533333333333333 -0.8133333333333332 -1.3333333333333333a0.45333333333333337 0.45333333333333337 0 0 0 0.42666666666666664 -0.41333333333333333 5.893333333333333 5.893333333333333 0 0 0 -0.12 -1.6666666666666665c-0.13333333333333333 -0.6133333333333333 -0.3333333333333333 -1.2266666666666666 -0.52 -1.8133333333333335a2.9066666666666667 2.9066666666666667 0 0 0 1.3333333333333333 0 3.6133333333333333 3.6133333333333333 0 0 0 1.9733333333333332 -1.2 4.586666666666666 4.586666666666666 0 0 0 0.6133333333333333 -0.8266666666666667 1.4933333333333334 1.4933333333333334 0 0 0 0.10666666666666666 -0.5466666666666666 0.8666666666666667 0.8666666666666667 0 0 0 -0.41333333333333333 -0.6c-0.09333333333333334 0 -0.31999999999999995 -0.30666666666666664 -0.3866666666666666 -0.2533333333333333l-0.6666666666666666 -0.8933333333333333c-0.5066666666666666 -0.6933333333333334 -0.8666666666666667 -1.4533333333333334 -1.4133333333333333 -2.08a4.3999999999999995 4.3999999999999995 0 0 0 -0.9466666666666665 -0.8266666666666667 3.3999999999999995 3.3999999999999995 0 0 0 -3.2933333333333334 0 4.266666666666667 4.266666666666667 0 0 0 -1.9466666666666665 1.9333333333333331 15.573333333333332 15.573333333333332 0 0 0 -3.0533333333333332 0 10.28 10.28 0 0 1 -2.4 0 51.906666666666666 51.906666666666666 0 0 1 -1.88 -5.1066666666666665 8 8 0 0 0 -0.7733333333333332 -1.3333333333333333 6.88 6.88 0 0 0 -2.6133333333333333 -2.1866666666666665 4.68 4.68 0 0 0 -3.3999999999999995 -0.21333333333333332 6.279999999999999 6.279999999999999 0 0 0 -0.9466666666666665 0.3866666666666666 2.0266666666666664 2.0266666666666664 0 0 0 -0.6799999999999999 0.5733333333333333 1.24 1.24 0 0 0 -0.19999999999999998 0.4933333333333333l0 0.6666666666666666 -0.31999999999999995 1.7866666666666666 -0.7466666666666667 0.6666666666666666a8.933333333333334 8.933333333333334 0 0 1 -1.08 0.8266666666666667 10.666666666666666 10.666666666666666 0 0 1 -1.08 0.6133333333333333A2.7733333333333334 2.7733333333333334 0 0 0 0 11.413333333333334a3.9066666666666667 3.9066666666666667 0 0 0 1.0933333333333333 3.333333333333333c1.2133333333333334 1.3333333333333333 2.9333333333333336 1.1066666666666665 4.373333333333333 1.6666666666666665A2.373333333333333 2.373333333333333 0 0 1 6.666666666666666 17.333333333333332a6.1066666666666665 6.1066666666666665 0 0 1 0.7066666666666667 1.4533333333333334 8.306666666666667 8.306666666666667 0 0 1 0.36 1.6133333333333333 9.546666666666667 9.546666666666667 0 0 0 0.26666666666666666 1.8c-0.13333333333333333 0.26666666666666666 -0.29333333333333333 0.5333333333333333 -0.41333333333333333 0.8266666666666667a6.293333333333333 6.293333333333333 0 0 0 -0.24 0.7066666666666667 6.506666666666666 6.506666666666666 0 0 0 -0.15999999999999998 0.7333333333333334c-0.10666666666666666 0.5866666666666667 -0.14666666666666667 1.1466666666666665 -0.22666666666666668 1.7466666666666666a37.41333333333333 37.41333333333333 0 0 1 -4 -1.2133333333333334 0.42666666666666664 0.42666666666666664 0 0 0 -0.5466666666666666 0.24 0.41333333333333333 0.41333333333333333 0 0 0 0.22666666666666668 0.5466666666666666 38.74666666666666 38.74666666666666 0 0 0 11.08 3.08 31.093333333333334 31.093333333333334 0 0 0 5.786666666666666 0.10666666666666666 29.57333333333333 29.57333333333333 0 0 0 5.626666666666666 -0.9733333333333333c0.7999999999999999 -0.22666666666666668 1.5999999999999999 -0.4666666666666666 2.4 -0.7599999999999999s1.5733333333333333 -0.5866666666666667 2.333333333333333 -0.9333333333333332c0.44 -0.21333333333333332 0.9733333333333333 -0.37333333333333335 1.4133333333333333 -0.6399999999999999a2.1999999999999997 2.1999999999999997 0 0 0 0.6 -0.5066666666666666 0.4666666666666666 0.4666666666666666 0 0 0 -0.039999999999999994 -0.6533333333333333ZM24.08 11.066666666666666a2.0533333333333332 2.0533333333333332 0 0 1 1.9866666666666666 0.19999999999999998 3.8266666666666667 3.8266666666666667 0 0 1 0.7866666666666666 0.8266666666666667c0.39999999999999997 0.5599999999999999 0.72 1.1866666666666665 1.1466666666666665 1.76a6.133333333333333 6.133333333333333 0 0 0 0.6133333333333333 0.7066666666666667 5.333333333333333 5.333333333333333 0 0 0 0.5066666666666666 0.42666666666666664l0.07999999999999999 0 -0.22666666666666668 0.26666666666666666a2.3866666666666667 2.3866666666666667 0 0 1 -1.2 0.9199999999999999 1.64 1.64 0 0 1 -1.4133333333333333 -0.17333333333333334l-0.12 -0.30666666666666664a12 12 0 0 0 -0.5733333333333333 -1.08c-0.13333333333333333 -0.22666666666666668 -0.29333333333333333 -0.45333333333333337 -0.45333333333333337 -0.6799999999999999s-0.3466666666666667 -0.42666666666666664 -0.5333333333333333 -0.6266666666666666A4.52 4.52 0 0 0 22.666666666666664 12.093333333333334a3.3466666666666662 3.3466666666666662 0 0 1 1.4133333333333333 -1.0266666666666666ZM6.799999999999999 5.333333333333333l0.07999999999999999 -0.6133333333333333a1.1066666666666665 1.1066666666666665 0 0 1 0.41333333333333333 -0.21333333333333332A5.119999999999999 5.119999999999999 0 0 1 8 4.386666666666667a3.4799999999999995 3.4799999999999995 0 0 1 2.36 0.37333333333333335 5.893333333333333 5.893333333333333 0 0 1 1.9733333333333332 1.6133333333333333 6.506666666666666 6.506666666666666 0 0 1 0.7066666666666667 1.04c0.6933333333333334 1.3333333333333333 1.1066666666666665 2.6666666666666665 1.76 4a1 1 0 0 1 -0.13333333333333333 -0.13333333333333333 3.1466666666666665 3.1466666666666665 0 0 1 -0.9199999999999999 -0.7599999999999999 3.8666666666666663 3.8666666666666663 0 0 1 -0.41333333333333333 -0.5466666666666666c-0.30666666666666664 -0.52 -0.5599999999999999 -1.0933333333333333 -0.88 -1.6133333333333333A5.88 5.88 0 0 0 10.386666666666667 6.3999999999999995a4.213333333333333 4.213333333333333 0 0 0 -2.88 -0.48 4.119999999999999 4.119999999999999 0 0 0 -0.9733333333333333 0.3866666666666666Zm1.0933333333333333 11.093333333333334a3.6533333333333333 3.6533333333333333 0 0 0 -1.893333333333333 -1.3333333333333333A11.053333333333331 11.053333333333331 0 0 0 4.1066666666666665 14.666666666666666a3.413333333333333 3.413333333333333 0 0 1 -2.1333333333333333 -0.7999999999999999 2.8 2.8 0 0 1 -0.9333333333333332 -2.3466666666666667A1.893333333333333 1.893333333333333 0 0 1 2.6666666666666665 10h0.09333333333333334a10.546666666666667 10.546666666666667 0 0 0 1.3333333333333333 -0.6666666666666666A9.226666666666667 9.226666666666667 0 0 0 5.333333333333333 8.493333333333332a12.159999999999998 12.159999999999998 0 0 1 1.4133333333333333 -1.0533333333333332 2.9066666666666667 2.9066666666666667 0 0 1 0.9466666666666665 -0.36 2.92 2.92 0 0 1 1.9733333333333332 0.4933333333333333 4.32 4.32 0 0 1 1.5199999999999998 1.5466666666666664c0.29333333333333333 0.52 0.5066666666666666 1.0933333333333333 0.7999999999999999 1.6266666666666665a5.173333333333333 5.173333333333333 0 0 0 0.48 0.7599999999999999 4.893333333333333 4.893333333333333 0 0 0 1.3333333333333333 1.16c1.4266666666666667 0.84 2.6666666666666665 0.5866666666666667 4.986666666666666 0.5466666666666666 3.6799999999999997 0 4.293333333333333 0.45333333333333337 4.906666666666666 1.0533333333333332l0.8666666666666667 1.0266666666666666a9.786666666666665 9.786666666666665 0 0 1 0.5599999999999999 0.9466666666666665 7.2 7.2 0 0 1 0.44 0.9866666666666666 19.773333333333333 19.773333333333333 0 0 1 0.72 2.12 4.466666666666667 4.466666666666667 0 0 1 0.17333333333333334 1.3333333333333333l-0.12 0a0.36 0.36 0 0 0 -0.2533333333333333 0.24A22 22 0 0 1 20.146666666666665 22.666666666666664a26.666666666666664 26.666666666666664 0 0 1 -6.4399999999999995 0.06666666666666667 21.333333333333332 21.333333333333332 0 0 1 -2.6666666666666665 -0.3466666666666667 5.56 5.56 0 0 1 -1.5199999999999998 -0.5466666666666666c-0.13333333333333333 -0.07999999999999999 -0.12 -0.2533333333333333 -0.13333333333333333 -0.41333333333333333 0 -0.39999999999999997 0 -0.8266666666666667 -0.09333333333333334 -1.16a9.333333333333332 9.333333333333332 0 0 0 -0.4666666666666666 -1.9333333333333331 6.853333333333333 6.853333333333333 0 0 0 -0.9333333333333332 -1.8666666666666665Zm19.266666666666666 9.706666666666667q-1.16 0.3333333333333333 -2.36 0.6a31.64 31.64 0 0 1 -5.48 0.72 40.50666666666666 40.50666666666666 0 0 1 -5.546666666666667 -0.07999999999999999 42.346666666666664 42.346666666666664 0 0 1 -5.946666666666666 -0.88c0.2533333333333333 -0.5333333333333333 0.5333333333333333 -1.04 0.7599999999999999 -1.5999999999999999a6.346666666666666 6.346666666666666 0 0 0 0.2533333333333333 -0.7066666666666667 4.52 4.52 0 0 0 0.17333333333333334 -0.7333333333333334 0.6533333333333333 0.6533333333333333 0 0 0 0 -0.15999999999999998A7.239999999999999 7.239999999999999 0 0 0 10.666666666666666 23.866666666666664a21.68 21.68 0 0 0 2.8666666666666663 0.31999999999999995 29.52 29.52 0 0 0 6.746666666666666 -0.36 23.599999999999998 23.599999999999998 0 0 0 5.84 -1.8133333333333335 7.279999999999999 7.279999999999999 0 0 0 0.29333333333333333 1.3333333333333333 7.76 7.76 0 0 0 0.4666666666666666 1.08 16.386666666666663 16.386666666666663 0 0 1 0.7599999999999999 1.5333333333333332Z" fill="currentColor" fill-rule="evenodd" stroke-width="1.3333"></path>
    <path d="M15.12 18.119999999999997a3.1199999999999997 3.1199999999999997 0 0 0 1.7333333333333334 1.0133333333333332 6.493333333333333 6.493333333333333 0 0 0 2.6666666666666665 0 4 4 0 0 0 1.08 -0.3466666666666667 1.8666666666666665 1.8666666666666665 0 0 0 0.7333333333333334 -0.6399999999999999 3.4799999999999995 3.4799999999999995 0 0 0 0.4933333333333333 -1.4666666666666668 16.266666666666666 16.266666666666666 0 0 0 0 -2.5466666666666664c-0.07999999999999999 -0.39999999999999997 -0.9466666666666665 -0.3866666666666666 -0.9466666666666665 0.14666666666666667a21.226666666666667 21.226666666666667 0 0 1 -0.22666666666666668 2.1999999999999997 2.213333333333333 2.213333333333333 0 0 1 -0.42666666666666664 0.8933333333333333 0.7066666666666667 0.7066666666666667 0 0 1 -0.3333333333333333 0.15999999999999998 3.706666666666666 3.706666666666666 0 0 1 -0.6533333333333333 0.10666666666666666 6.666666666666666 6.666666666666666 0 0 1 -1.72 0 2 2 0 0 1 -1.3333333333333333 -0.5066666666666666 2.04 2.04 0 0 1 -0.48 -1.1733333333333333l0 -1.6533333333333333c0 -0.6666666666666666 -0.8666666666666667 -0.8666666666666667 -1.0533333333333332 -0.29333333333333333a15.879999999999999 15.879999999999999 0 0 0 -0.10666666666666666 2.5199999999999996 2.973333333333333 2.973333333333333 0 0 0 0.5733333333333333 1.5866666666666664Z" fill="currentColor" fill-rule="evenodd" stroke-width="1.3333"></path>
    <path d="M9.2 10.533333333333333a2.2266666666666666 2.2266666666666666 0 0 0 -1.1199999999999999 -1.3333333333333333 1.3333333333333333 1.3333333333333333 0 0 0 -0.5066666666666666 -0.12 1.3333333333333333 1.3333333333333333 0 0 0 -0.7999999999999999 0.14666666666666667 1.7333333333333334 1.7333333333333334 0 0 0 -0.88 1.3333333333333333 0.41333333333333333 0.41333333333333333 0 0 0 0.19999999999999998 0.5599999999999999 0.44 0.44 0 0 0 0.5733333333333333 -0.17333333333333334 1 1 0 0 1 0.5733333333333333 -0.27999999999999997s0.07999999999999999 0 0.13333333333333333 0h0.17333333333333334a1.3333333333333333 1.3333333333333333 0 0 1 0.8533333333333333 0.31999999999999995 0.4933333333333333 0.4933333333333333 0 0 0 0.6533333333333333 0.14666666666666667 0.4666666666666666 0.4666666666666666 0 0 0 0.14666666666666667 -0.6Z" fill="currentColor" fill-rule="evenodd" stroke-width="1.3333"></path>
  </g>
</svg>