<?xml version="1.0" encoding="UTF-8"?><svg id="Layer_2" xmlns="http://www.w3.org/2000/svg" viewBox="0 0 1248.64 99.43"><g id="Layer_1-2"><path d="M453.11,34.69c5.58-8.43,21.57-25.09,31.17-26.61,8.95-1.41,12.58-4.61,20.95-7.6,4.68-1.68,15.25,1.48,20.09,2.24,10.27.77,18.6-2.08,28.11,4.83,1.24.9,6.97,4.89,8.14,5.3,14.74,5.11,19.56,3.59,31.85,14.29,53.51-20.75,101.48-47.28,148.64,5.54,12.69-1.23,25.12,2.07,37.73-.67,8.75-1.9,15.73.36,24.12,1.76,14.14-.96,19.77-3.91,34.12.14,15.34-4.56,23.63-2.29,38.86-.16,3.25.45,13.55-2.7,16.56-2.23,11.92,1.86,19.3,3.05,31.25.08,3.38-.84,13.75,2.11,17.71,1.84,15.63-.51,20.65-3.86,36.68.67,13.1-3.68,20.86-4.83,34.17-.93,16.46-4.89,19.33-1.06,35.66.43,2.05.19,11.92-2.04,15.8-1.8,3.83.24,12.52,2.23,15.54,2.08,3.98-.2,9.85-2.12,14.86-2.45.72-1.5,2.98-6.24,4.27-7.04,29.79-18.4,56.02-26.07,74.57,9.45,24.08-5.27,45.57-7,68.19-16.04-16.57,12.84-39.46,12.29-60.47,18.22,12.27-.92,24.55-2.04,36.82-.28,7.61,1.09,15.3,3.75,23.02,3.66,4.09-.05,3.48-1.91,6.62-3.52l.53,1.23c-3.27,7.14-12.11,5.33-18.52,4.09-17.76-3.44-32.1-4.12-49.94-.24,18,1.53,48.43,5.58,65.48,11.46-5.93-.27-17.32-2.32-21.25-2.02-1.9.18-5.78.35-7.29,1.15,5.83,1.97,8.36,4.02,13.61,6.28,1.48.63,10.5.08,12.47,1.39-3.37,2.41-7.59,1.99-11.71,2.03,1.88,1.08,4.82,2.42,5.8,4.17-4.06.97-17.2-10.83-26.33-10.4l-.32.54c9.11,4.28,11.02,5.51,15.92,13.98l-.92,1.99c-15.55-15.39-21.55-15.16-42.68-18.67,10.62,4.74,19.01,6.24,28.45,14.3,5.14,4.38,8.4,8.49,13.19,13.13.36.35,3.73,2.18,4.86,2.97-6.69.69-10.75-4.13-15.01-8.54-10.93-11.34-21.86-15.08-36.59-19.11-4.7,25.42-24.28,33.48-46.96,31.69-18.18-1.44-22.61,3.48-35.36-13.45-10.08-2.09-12.63.46-22.39.47-3.73.16-14.1-3.22-17.15-2.58-13.69,2.89-22.14,2.57-35.88-.54-2.13-.48-12.43,2.77-15.47,2.52-12.38-1.02-24.14-1.29-36.52-.24-3.84.43-15.42-2.14-18.45-1.44-12.96,3-20.92,1.44-33.9-.28-4.57-.6-14.14,2.51-19.53,1.97-4.81-.48-10.99-1.9-15.95-2.09-13.22,3.55-21.41,2.15-34.6.18-3.03-.45-11.75,2.69-15.56,2.6-5.73-.15-10.91-1.77-16.58-2.13-5.43-.3-13.06,1.58-18.24,1.08-12.45-1.19-23.2-.6-35.54.87-5.2.62-14.93-1.06-20.37-1.82-10.58,11.68-13.66,13.23-27.6,19.88-14.83,7.08-18.3,7.53-34.82,5.99-2.95-.28-10.75,1.62-13.67.99-10.03-2.17-22.37-7.4-32.12-11-3.51-1.3-11.75-7.08-15.19-8.18-6.56-2.1-11.89-3.42-18.4-5.8-46.77,24.67-97.75,41.95-139.07-2.49-14.83,4.13-19.56,2.81-34.59.38-3.34-.54-12.92,2.28-17.15,1.98-5.51-.39-10.8-1.85-16.29-2.25-13.14,1.25-25.32.81-38.44.14-4.19-.41-15.59,2.08-19.11,1.38-12.39-2.47-18.42-1.9-30.62.53-4.2.64-16.27-2.91-19.48-2.23-12.34,2.62-20.24,1.9-32.66.56-7.36-.8-17.24,1.85-25.05.28-2.08-.42-6.07-.32-8.28-.55-12.94,2.33-23.64.66-36.17.18-12-.46-16.65,1.65-29.32-.79-8.33,15.67-18.89,16.16-34.79,14.89-3.9.13-8.05,1.24-11.88,1.81-12.35,1.84-19.62-8.99-26.83-17.06-4.87-5.45-6.41-8.05-7.34-15.32-11.98,2.68-24.18,7.53-33.39,15.93-3.85,3.51-12.88,14.1-18.61,12.12v-1c9.87-4.74,13.98-13.17,24.2-20.05,9.92-6.68,12.96-4.76,20.92-8.79-5.62-2.21-24.85,5.12-30.26,8.56-7.38,4.7-9.52,11.4-18.59,9.34l-.36-.78c8.88-.47,9.39-6.34,15.47-11.57,1.85-1.6,6.08-2.56,7.97-4.38-10.11,0-11.88,9.25-21.6,10.98-2.27.4-7.49-.01-9.95-.17,11.79-3.33,13.5-3.53,22.75-11.11-5.34,1.91-18.33,9.04-23.38,5.19-1.09.75,20.92-7.67,19.96-7.59,13.98-1.09,24.13-2.15,37.59-6.04-1.33-.75-2.53-1.06-3.98-1.56-6.98,1.06-49.18,8.6-53.22,6.48,7.86-3.71,51.87-9.99,61.37-10.39-8.18-1.64-14.88-2.94-23.73-2.93-12.36.02-27.44,5.9-39.41,3.65-2.32-.44-3.11-1.83-4.22-3.42l-.07-1.73c3.68,1.05,6.48,3.3,10.66,2.84,12.18-1.35,22.52-5.21,35.06-4.57,5.24.27,14.26,1.48,18.98.76-1.85-1.03-7.65-1.81-10.14-2.39-18.41-4.3-32.67-3.36-48.54-15.1,4.28,1.34,8.48,3.03,12.75,4.26,18.19,5.22,37.06,6.27,55.1,12.17,4.16-9.17,7.62-19.01,17.79-22.24,6.76-2.15,21.48-6.55,27.3-2.76,11.01,7.17,20.11,9.89,26.75,20.91,14.21-1.6,15.2.68,29.31,2.38,1.37.17,11.63-1.63,14.58-1.54,4.81.14,12.75,2.24,16.94,1.85,5.13-.47,11.19-2.46,16.79-2.6,4.06-.1,14.13,2.55,16.86,2.29,17.94-1.69,19.98-3.93,37.64,1.35,16.26-4.12,18.74-2.04,34.95-.89,2.86.2,13.73-2.05,18.08-1.89,3.69.14,11.03,2.14,13.57,2.07,5.97-.15,13.5-2.16,19.94-2.26,5.08-.07,13.15,2.31,17.33,1.99,6.26-.48,11.67-2.21,18.36-2.44,5.6-.19,14.53,3.51,18.09,3.26,15.15-1.09,19.66-3.77,34.95.72Z"/><path d="M1177.94,44.81c15.91-.67,28.98,4.62,46.47,5.61-1.9.18-5.78.35-7.29,1.15-6.75-.27-17.11-.57-23.31-2.26-5.33-1.46-10.29-3.09-15.87-4.5Z" fill="#f2f2f4"/><path d="M59.28,44.87c4.97-.52,9.06-.48,14.03-.48-3.5.9-6.43,1.78-10.05,2.04-1.33-.75-2.53-1.06-3.98-1.56Z" fill="#f2f2f4"/><path d="M385.25,35.81c24.91-6.31,37.85,4.02,53.67,21.46l.74,1.26c1.99,1.33,1.93.82,2.47,2.6-1.95.68-3.15,1-5.16,1.48,2.98,1.76,6.12-2.04,9.33,1.94l.98,1.87c2.45-.28,4.05.18,5.42,2.26l-1.12.96c-7.51,1.77-13.18,1.56-20.67,0-22.03-4.58-27.61-22.81-45.65-33.84Z" fill="#fff"/><path d="M417.72,62.1c8.98,1.1,19.24,5.73,28.57,2.46l.98,1.87c-10.33,2.72-20.23-.22-29.56-4.33Z" fill="#1f1f1f"/><path d="M439.65,58.53c-4.69,1.73-18.96,1.58-21.73-2.5,3.18-.93,13.05,4.33,21,1.24l.74,1.26Z" fill="#444"/><path d="M402.63,41.87c4.46-.86,7.51-.06,11.83.96-3.71.22-8.75.86-11.83-.96Z" fill="#5d5d5d"/><path d="M244.55,35.27c22.58-3.56,40.47,1.63,53.17,21.9l.62.91c2.07.99,2.06.56,2.8,2.16-2.34,2.19-2.36.98-5.96,1.98,3.11-.01,7.51-.72,9.52.69l-.02,1.2-1.23,2.65c3.29-1,4.32-1.47,7.41-.1l.18,1.08c-4.69,3.95-12.2,2.54-17.77,2.02-23.23-2.17-30.86-23.51-48.73-34.48Z" fill="#fff"/><path d="M298.35,58.09c2.07.99,2.06.56,2.8,2.16-2.34,2.19-2.36.98-5.96,1.98,3.11-.01,7.51-.72,9.52.69l-.02,1.2c-4.37,1.14-5.15,1.36-9.62,1.15-1.29-.54-2.03-1.15-3.15-1.95-.01-1.3.1-2.1-.44-3.29l-3.82-.76c3.48-.18,7.37-.21,10.67-1.17Z" fill="#f2f2f4"/><path d="M303.47,66.76c-7.64.36-15.68.59-22.37-3.65,1.39-.64,11.77,1.72,13.99,2.15,4.47.21,5.25-.01,9.62-1.15l-1.23,2.65Z" fill="#1f1f1f"/><path d="M287.67,59.26c-3.8-.97-6.04-1.78-9.71-3.2,2.94-.31,12.2,1.66,19.76,1.11l.62.91c-3.3.96-7.19.99-10.67,1.17Z" fill="#444"/><path d="M263.65,41.84c3.51-1.15,7-.59,10.08,1.33-2.33-.23-8.89-.34-10.08-1.33Z" fill="#717171"/><path d="M422.43,36.78c14.79-2.2,26.93-2.32,39.41,7.51,3.8,2.99,10.31,9.04,12.75,13.1l.33.63c2.26,1.01,2.12.5,3.06,2.23-2.32,1.87-3.41,1.11-6.6,2.01,4.17.35,7.61-.81,10.14.51l.43,1.28-.63,2.48c2.55-.85,5.28-2.16,7.06.38-1.58,2.12-2.61,2.39-5.41,2.8-33.65,4.84-39.71-17.74-60.55-32.94Z" fill="#fff"/><path d="M481.32,66.53c-5.46,1.81-19.3.13-24.44-2.63,8.92-1.41,14.17,4.03,25.07.15l-.63,2.48Z" fill="#1f1f1f"/><path d="M453.57,55.95c7.21,1.91,13.57,3.08,21.02,1.44l.33.63c-8.09,3.32-13.9,1.52-21.35-2.07Z" fill="#444"/><path d="M439.98,41.86c3.91-1.11,7.53-.33,10.99,1.6-3.09-.32-9.21,0-10.99-1.6Z" fill="#717171"/><path d="M842.78,35.92c25.49-7.13,37.42,4.71,53.86,21.41l.77.59,1.33,1.59-.36,1.15c-.77.24-5.42,1.37-5.51,1.48,4.91,1.2,6.4-1.09,9.65.53-.25,1.32-.02,1.21-.73,2.13l-.11,1.66c3.07-1.09,4.57-1.61,7.21.44l-.4,1.16c-5.8,3.55-13.57,1.77-19.83.77-20.97-3.34-29.15-21.24-45.9-32.93Z" fill="#fff"/><path d="M874.06,61.5c9.69,1.86,17.87,4.51,27.73,3.31l-.11,1.66c-9.89,1.75-18.72-1.29-27.63-4.97Z" fill="#1f1f1f"/><path d="M897.41,57.92c-10.76,1.89-11.38,1.94-23.23-1.65,4-.39,14.69,1.41,22.45,1.06l.77.59Z" fill="#5d5d5d"/><path d="M860.7,41.86c3.95-1.2,6.98-.32,10.7.9-2.86.28-8.65.96-10.7-.9Z" fill="#908f8f"/><path d="M704.7,37.58c14.87-3.58,27.85-3.06,40.09,7.34,3.06,2.6,14.12,13.07,14.45,16.47-1.74.84-2.2.89-4.12,1.3,4.01,2.23,5.95-2.68,9.12,2.32l1.6,1.39c1.64,0,3,.42,4.61.77l-1.35-.07,2.12,1.09-.11.47c-6.15,3.19-14.77,2.51-21.37,1.39-20.66-3.5-28.45-21.89-45.03-32.48Z" fill="#fff"/><path d="M765.84,66.4c-5.35,1.87-23.1,2.05-25.97-2.62,8.69-.59,12.26,4.03,23.47,1.44l.91-.21,1.6,1.39Z" fill="#1f1f1f"/><path d="M736.51,56.53c7.54,1.09,11.36,1.86,19.35,2.66-7.55,2.67-12.5.7-19.35-2.66Z" fill="#444"/><path d="M722.14,42.6c4.18-.72,6.8-.38,10.59,1.22-3.48.05-6.22.03-9.69-.17l-.9-1.04Z" fill="#5d5d5d"/><path d="M350.17,35.95c1.64-.39,3.29-.7,4.95-.94,12.95-1.87,23.58.13,34.26,8.06,2.73,2.03,16.41,15.35,16.75,17.95-1.76,1.29-3.7.99-6,1.02,2.58,1.49,7.9-2.22,9.85,2.72l1.71,1.68c2.43-.21,4.07-.27,5.35,1.95-3.31,3.1-13.66,1.73-18.09,1.32-23.32-2.12-30.86-22.64-48.79-33.75Z" fill="#fff"/><path d="M411.69,66.43c-8.22,1.83-15.26-.29-23.28-2.06l-.45-.72-.91-.02c8.8.05,13.1,2.46,21.94,1.25l.98-.14,1.71,1.68Z" fill="#1f1f1f"/><path d="M378.4,55.17c2.41-.19,20.65,2.57,22.92,3.85-7.48.97-15.9-1.22-22.92-3.85Z" fill="#5d5d5d"/><path d="M367.39,41.21c5.17.21,6.88.21,11.78,1.64-2.97.17-9.94.56-11.78-1.64Z" fill="#717171"/><path d="M281.92,36.39c22.11-4.39,38.61,1.03,50.77,20.82,1.69.78,2.94,1.13,4.02,2.62l-.76,1.14c-1.85.19-3.7.35-5.55.5,1.43,1.26,6.32.6,9.44.9l.69,1.03-1.24,1.43-1.16,1.07.98.52c3.07-.89,4.37-1.2,7.19.22l.05,1.17c-4.8,3.82-12.52,2.26-18.11,1.57-21.04-2.61-30.92-20.44-46.31-33Z" fill="#fff"/><path d="M311.14,61.29c5.84.93,12.57,2.65,18.85,3.71l.25,1.02-.46.54c-7.63-.53-11.69-2.4-18.63-5.27Z" fill="#1f1f1f"/><path d="M329.98,65c3.08-.03,6.23-.01,9.3-.17l-1.16,1.07.98.52c-2.1,1.08-7,.61-9.33.14l.46-.54-.25-1.02Z" fill="#5d5d5d"/><path d="M312.09,55.84c2.72.11,18.08,1.81,20.41,2.37-8.15,2.42-12.6.34-20.41-2.37Z" fill="#444"/><path d="M297.3,41.88c5.47-.7,8.43-.8,13.64.95-3.82.4-9.66-.47-13.64-.95Z" fill="#908f8f"/><path d="M772.54,35.93c4.93-1.01,9.96-1.45,14.99-1.32,17.74.6,26.66,10.49,37.8,22.37l2.18,1.88.83,1.42-.58.98c-2.57.35-3.46.32-6.05.17l.77.91c3.05.09,7.75-.36,9.94.95l.27,1.21.46,1.93c2.85-.52,4.38-.21,6.62,1.63l-.32.97c-4.86,2.31-13.74,1.78-19.05.99-22.23-3.28-30.05-23.08-47.86-34.08Z" fill="#fff"/><path d="M805.26,62.29c9.61.82,16.58,5.17,27.43,2.2l.46,1.93c-8.75,2.75-19.8-.8-27.9-4.13Z" fill="#1f1f1f"/><path d="M801.09,54.61c7.57,1.1,16.55,5.31,24.25,2.36l2.18,1.88c-2.2-.17-5.41.44-7.81.47-7.45.11-11.93-1.97-18.62-4.71Z" fill="#444"/><path d="M788.84,41.85c3.02-.51,9.79-.84,12,1.57-2.95-.46-8-.42-11.04-.45l-.96-1.13Z" fill="#5d5d5d"/><path d="M595.77,30.54c24.63,5.23,33.09,16.78,39.68,39.59l1,3.13.53,2.4c-1.7.99-4.21.15-6.62-.18,4.16,1.83,7.2,2.49,9.94,6.19l.06,2.2c1.92,1.81,1.62,1.05,2.33,3.33l-1.04.79c-9.81-.48-22.15-10.75-27.59-18.63-8.31-11.94-6.58-25.19-18.29-38.82Z" fill="#fff"/><path d="M614.06,69.36l2.45-.61c6.97,4.54,14.74,13.82,23.77,12.91l.06,2.2c1.92,1.81,1.62,1.05,2.33,3.33l-1.04.79c-9.81-.48-22.15-10.75-27.59-18.63Z" fill="#f2f2f4"/><path d="M616.51,68.75c6.97,4.54,14.74,13.82,23.77,12.91l.06,2.2c-8.45-.39-19.93-7.63-23.84-15.11Z" fill="#1f1f1f"/><path d="M636.45,73.26l-.72-.22c-4.81-1.51-14.46-4.77-16.29-9.83,1.81-.21,7.5,6.58,14.97,8.02l1.04-1.1,1,3.13Z" fill="#444"/><path d="M808.92,36.44c19.42-3.21,32.92-.85,46.73,15,3.07,3.51,2.31,5.69,7.17,7.42l.56,1.34c-1.49,1.15-4.85.85-7.37,1.19,4.88,2.31,7.96-.61,10.96,1.57l-.43,1.79.2,1.71.37-.09c2.61-.65,5.18-1.28,7.04,1.04l-.77,1.2c-2.16,1.09-4.36,1.72-6.76,1.79-29.5.87-38.42-17.56-57.69-33.96Z" fill="#fff"/><path d="M839.62,61.72c10.21,2.12,16.39,4.18,26.92,3.03l.2,1.71c-6.93,2.64-20.6-1.82-27.11-4.73Z" fill="#1f1f1f"/><path d="M839.43,55.83c3.58.47,17.48,1.63,19.19,1.95-7.85,2.72-11.72,1.18-19.19-1.95Z" fill="#5d5d5d"/><path d="M825.57,41.84c3.38-.97,8.36-.65,11.4,1.22-2.36-.03-9.94-.07-11.4-1.22Z" fill="#908f8f"/><path d="M948.6,36.03c25.24-3.42,35.65,1.24,51.9,20.83l.1.97c2.32.89,1.81.32,3.07,2.09-.93,1.7-3.48,2.01-5.4,2.31,3.2-.08,7.16-.85,9.28.65l.16,1.87,1.34.78c2.5,0,3.11.07,5,1.53l-.49.92c-7.55,3.4-16.64,2.84-24.4.44-18.04-5.58-25.25-22.4-40.57-32.41Z" fill="#fff"/><path d="M1009.05,65.55c-5.85,2.94-20.07,1.18-25.61-2.36l.18-.49c10.12,2.08,13.6,3.13,24.09,2.07l1.34.78Z" fill="#1f1f1f"/><path d="M977.71,55.04c9.07,1.99,13.57,2.92,22.79,1.83l.1.97c-6.99,3.17-16.3-.17-22.89-2.8Z" fill="#444"/><path d="M965.55,41.87c4.67-.82,7.29-.35,11.62,1.08-3.52.08-9.5.83-11.62-1.08Z" fill="#717171"/><path d="M210.03,35.48c24.25-4.47,37.62,2.19,52.76,21.55l2.27,1.89.68,1.34c-1.09,1.11-2.49,1.13-4.09,1.42l.16.57c2.57-.08,4.18-.17,6.79.15.9,1.27.82.62.64,1.9l.18,2.05c2.82-.91,4.53-.72,6.82,1.2l-.25,1.1c-4.49,2.26-11.84,1.45-16.72.97-23.37-2.3-31.08-23.07-49.24-34.13Z" fill="#fff"/><path d="M242.53,61.32c9.61,1.38,16.72,5.49,26.71,2.97l.18,2.05c-9.65,1.99-18.3-1.15-26.89-5.02Z" fill="#1f1f1f"/><path d="M265.06,58.91c-7.47-1.05-11.66,1.62-23.19-3.14,7.62.05,13.25,2.97,20.2,1.42l.71-.16,2.27,1.89Z" fill="#444"/><path d="M225.24,41.12c5.11-.85,8.78-.04,13.77,1.05-4.02.11-10.47.79-13.77-1.05Z" fill="#5d5d5d"/><path d="M983.24,36.03c18.68-4.06,31.99-1.85,45.08,13.1.58.67,10.25,11.83,9.89,11.17-2.05.66-2.76.77-4.91,1.08,4.44,2.43,5.48-1.3,8.69,2.47l-.74,2.47c2.88-.61,4.9-.96,7.29.94l-.35,1.06c-5.29,3.25-11.18,1.82-16.96,1.15-22.42-2.58-30.64-22-47.99-33.44Z" fill="#fff"/><path d="M1012.9,60.52c7.88,1.05,22.24,7.24,29.09,3.32l-.74,2.47c-6.8,2.9-21.9-2.67-28.35-5.79Z" fill="#1f1f1f"/><path d="M1015.44,55.76c.61,0,1.21.02,1.81.07,2.21.16,13.48,2.24,14.84,3.87-3.03,1.37-13.18-2.69-16.66-3.94Z" fill="#5d5d5d"/><path d="M1000.24,40.33c4.38-1.07,9.4-.51,13.02,2.3-3.77-1-11.32-1.01-13.02-2.3Z" fill="#717171"/><path d="M879.77,36.71c30.16-5.89,36.2,4.41,54.83,23.98l.8,1.27c2.07.97,1.68.41,2.56,2.09l.36,2.29c2.7-.47,4.68-.41,6.64,1.64l-.5,1c-5.15,2.06-13.44,1.11-18.9.4-21.51-2.78-29.66-21.83-45.79-32.68Z" fill="#fff"/><path d="M910.18,61.44c9.99.84,16.31,6.32,27.77,2.62l.36,2.29c-9.45,2.48-19.66-1.01-28.13-4.91Z" fill="#1f1f1f"/><path d="M934.6,60.69l.8,1.27c-2.55.64-5.74.78-8.27-.02,1.68-1.32,5.14-1.13,7.48-1.25Z" fill="#444"/><path d="M908.17,55.1c1.63-.14,19.35,2.54,20.84,3.24-8.39,1.78-13.11-.36-20.84-3.24Z" fill="#717171"/><path d="M896.17,41.88c4.96-.81,7.76-.49,12.46.9-3.64.3-9.08.47-12.46-.9Z" fill="#717171"/><path d="M914.56,36.38c23.81-4.85,36.49,2.01,50.89,20.74l2.41,1.59.66,1.96c-1.48,1.55-1.03,1.06-3.68,1.45,3.92.16,6.32-.47,8.95,2.69,1.43.77.91.77,2.36.78,1.04.74,2.08,1.49,3.11,2.25l-.1,1.05c-4.07,2.8-12.23,1.08-16.88.75-22.82-1.62-30.55-21.12-47.73-33.26Z" fill="#fff"/><path d="M976.16,65.59l-.75.29c-5.54,2.19-23.8,1.27-27.36-3.59,1.33-.64,7.88,1.88,10.79,2.32,6.34.96,8.62,1.02,14.97.21,1.43.77.91.77,2.36.78Z" fill="#1f1f1f"/><path d="M967.87,58.7c-7.93.49-15.46,1.06-22.83-2.85l-.11-.76c8.06,1.45,11.3,2.94,19.79,2.1l.73-.08,2.41,1.59Z" fill="#717171"/><path d="M929.82,41.9c4.56-.8,7.61-.64,11.96.79-3.64.33-8.9,1.12-11.96-.79Z" fill="#717171"/><path d="M565.01,17.44c27.11,5.97,32.46,17.46,40.06,41.97-3.5-1.55-7.06-2.78-10.41-4.56l-.49-.26c3.86,2.35,7.86,4.68,11.48,7.39l.05,1c-2.7.33-5.37-.7-8.07-1.46,4.65,3.74,8.35,1.96,10.7,5.17-.09.39-.28,1.39-.46,1.69l-.11,1.56c2.08.47,3.77,1.97,4.56,3.89-1.15.42-1.34.45-2.53.19-34.48-7.54-30.11-35.96-44.78-56.59Z" fill="#fff"/><path d="M607.76,69.95c-5.73-1.39-18.21-6.06-20.2-12.12,1.94.14,3.67,1.93,5.28,3.22,3.16-.38,2.3-.72,4.8.48,4.65,3.74,8.35,1.96,10.7,5.17-.09.39-.28,1.39-.46,1.69l-.11,1.56Z" fill="#1f1f1f"/><path d="M592.84,61.05c3.16-.38,2.3-.72,4.8.48,4.65,3.74,8.35,1.96,10.7,5.17-.09.39-.28,1.39-.46,1.69-6.86-1.91-9.57-2.85-15.03-7.34Z" fill="#f2f2f4"/><path d="M529.85,5.64c27.08-.44,36.06,15.08,43.02,38.35-4.09-2.01-9.58-4.97-13.85-6.1,3.9,5.37,14.08,3.32,14.83,9.27-2.79.78-3.43-1.07-6.94-.78,3.79,1.21,8.06,2.91,9.89,6.33l-.44,1.72c1.52.98,3.03,2.66,3.52,4.44l-.53.38c-3.95-.28-8.18-2.89-11.64-4.49-23.95-11.07-21.24-32.45-37.85-49.1Z" fill="#fff"/><path d="M550.38,38.05c8.45,5.2,16,13.51,26.41,14.66l-.44,1.72c-10.74-1.4-19.08-8.56-25.97-16.37Z" fill="#1f1f1f"/><path d="M545.75,15.84l1-.27c2.92.32,5.17,1.95,7.69,3.46-1.79-.2-7.48-1.78-8.69-3.19Z" fill="#908f8f"/><path d="M200.67,66.48c2.86-.32,5.83-.98,7.56,1.79-6.37,5.25-29.18-.47-35.25-5.31-5.9-4.71-24.35-21.6-25.29-28.17,1.22-1.33,1.3-1.43,3.6-1.58,13.43-.89,24.69,4.22,33.95,13.76,4.42,4.55,8.41,9.76,13.2,13.6l.69.54c-2.83-.03-5.72.12-8.55.22,6.03,1.44,7.61-.96,11.2,3.01l-1.11,2.15Z" fill="#fff"/><path d="M200.67,66.48c-7.06,1.24-17.11,0-23.14-3.99.98-.98,1.4-.25,3.63.35,7.42,2,12.1,3.26,19.64,1.7l.98-.21-1.11,2.15Z" fill="#1f1f1f"/><path d="M158.41,40.36c3.15.06,9.12-.1,11.44,2.06-1.67.42-8.65-.71-10.81-1.02l-.63-1.05Z" fill="#717171"/><path d="M316.25,36.26c20.29-3.33,33.55-.36,47.3,16.04,1.91,2.27,5.98,5.28,7.1,7.88-2.08,1.44-3.19,1-6.08,1.15,2.4,1.73,6.94-1.02,9.65,1.51l-.54,1.93,1.56.9c2.21-.67,4,.52,5.87,1.59l.24,1.02c-3.6,2.39-13.09,1.27-17.33.94-23.27-1.83-30.17-22.22-47.77-32.95Z" fill="#fff"/><path d="M375.24,65.67c-9.47,2.41-18.01.57-26.41-3.8.52-.49,2.93.27,3.87.5,8.45,2.1,12.42,2.66,20.98,2.4l1.56.9Z" fill="#1f1f1f"/><path d="M345.56,55.11c1.04-.05,19.78,2.35,21.09,2.7-6.81,2.76-14.56-.4-21.09-2.7Z" fill="#444"/><path d="M623.88,22.44c-3.37,1.1-1.94.92-5.8.19l-.2-1.04c2.71-2.77,3.44-1.87,6.22-3.41,20.36-11.24,36.68-.95,51.95,13.19.14.19.28.37.41.56l1.66,1.12c2.46.32,2.38-.11,3.82,1.25-4.54,8.02-32.77,8.79-37.75.11,1.44-1.33,2.68-1.08,4.96-1.39l.28-.4c-2.96-.45-5.62.13-8.62.53-5.49-3.35-10.39-6.24-15.95-9.41l-.99-1.31Z" fill="#fff"/><path d="M623.88,22.44c7.17-6.73,24.27-6.64,32.41-2.38-2.66.28-5.77-.38-8.44-.98-8.01-1.81-16.07.18-22.98,4.68l-.99-1.31Z" fill="#1f1f1f"/><path d="M678.12,33.05c-4.35,3.78-18.35,7.26-23.05,4.58,6.69-3,12.91.23,20.73-5.23l.65-.47,1.66,1.12Z" fill="#1f1f1f"/><path d="M739.5,36.87c22.72-4.54,36.81,1.9,50.63,20.05l3.01,2.76-.13,1.03c-1.76.37-3.53.69-5.3.96,3.34.47,8.09.39,10.26,1.99v.62s.55,2.16.55,2.16c2.79-.49,3.6-.17,6.14.96l.34,1.05c-4.4,2.42-12.19,1.65-17.1,1.31-22.79-1.61-30.9-21.86-48.41-32.89Z" fill="#fff"/><path d="M798.52,66.44c-6.75,1.37-23.67.07-28.52-5.14,4.72-.67,14.94,6.24,27.17,3.19l.8-.2.54,2.16Z" fill="#1f1f1f"/><path d="M790.13,56.92l3.01,2.76-.13,1.03c-1.76.37-3.53.69-5.3.96-1.02-.32-1.87-1.34-2.74-2.14l2.6-.96-.17-.56c-2.65-.14-4.62-.36-7.21-.71,2.88-.37,6.95-.33,9.95-.39Z" fill="#f2f2f4"/><path d="M784.97,59.53c-5.68-.47-7.33-1.05-12.78-2.82l.12-.39c2.63.24,5.27.57,7.88.98,2.6.35,4.57.57,7.21.71l.17.56-2.6.96Z" fill="#444"/><path d="M755.61,42.61c4.84-.7,7.79-.77,12.32,1.02-3.44.12-10.23.88-12.32-1.02Z" fill="#5d5d5d"/><path d="M1017.51,35.16c1.3-.27,2.61-.52,3.92-.73,15.04-2.41,29.37,3.96,39.59,14.74,3.91,4.11,4.76,6.79,9.44,10.13l.72.5-.55,1.07c-1.54.13-2.84.26-4.37.49,2.65,2.14,5.93-.34,8.92,1.83l.09,1.66,1.88,1.68c2.13-.23,4.85.5,5.65,2.6-3.95,2.42-12.53,1.13-17.01.62-23.28-2.61-30.89-22.24-48.28-34.59Z" fill="#fff"/><path d="M1043.88,58.49c10.2,4.05,20.26,8.12,31.38,6.35l1.88,1.68c-11.26,2.75-23.92-1.97-33.26-8.03Z" fill="#1f1f1f"/><path d="M1047.93,55.18c4.85.97,15.59,1.62,18.38,4.1-5.11.58-13.84-1.24-18.38-4.1Z" fill="#444"/><path d="M1031.54,41.85c5.38-.49,8.8-1.25,13.51,1.59-4.82-.41-8.74-.85-13.51-1.59Z" fill="#717171"/><path d="M177.64,35.92c27.67-5.42,36.15,5.77,53.3,23.65l-.26.78c-2,.15-4,.23-6,.27,1.63,2.03,5.82-.48,9.85,2.28l-.05,1.89-1,1.78c3.25-.74,4.96-1.17,7.9.38l.08,1.1c-4.9,3.32-11.66,1.53-17.08.99-22.28-2.23-30.13-21.52-46.72-33.12Z" fill="#fff"/><path d="M233.46,66.57c-10.73.26-14.45-.9-24.13-4.7l-.44-1.07-1.17.12c3.68-.2,12.8,2.87,16.99,3.44,3.73.51,5.97.47,9.76.43l-1,1.78Z" fill="#1f1f1f"/><path d="M207.53,55c3.85.41,14.04,1.56,17.57,2.46-6.96,2.41-11.15.62-17.57-2.46Z" fill="#444"/><path d="M190.85,41.84c4.7-.56,9.45.27,14.17.86-4.06.38-10.68,1.25-14.17-.86Z" fill="#5d5d5d"/><path d="M533.84,63.67c-2.81,1.33-5.1,2.86-8.05,2.47l-.55-1.01c3.29-4.01,12.36-7.11,17.5-7.64,10.22-1.05,22.27,6.19,30.45,11.98l1.5.53c1.82,1.45,2.65,1.9,4.87,2.6-.05,1.71.02,1.13-1.41,2.75l.86,1.26c2.22-1.72,4.46-3.95,7.3-2.55-1.68,5.87-18.31,10.07-23.52,10.26-8.62.3-26.95-10.41-33.14-16.01.58-1.72,1.9-1.85,3.99-2.89l.21-1.75Z" fill="#fff"/><path d="M578.15,75.36l.86,1.26c-5.81,3.35-14.84,6.29-21.44,4.69,4.68-2.35,11.65-1.6,20.58-5.95Z" fill="#1f1f1f"/><path d="M573.2,69.48l1.5.53c-6,5.07-10.59,5.58-18.11,4.95,7.72-1.21,9.96-1.5,16.61-5.48Z" fill="#444"/><path d="M533.84,63.67c4.88-.95,9.81-2.18,14.75-1.82l-.03.45c-5.02,1.25-9.86,2.15-14.93,3.12l.21-1.75Z" fill="#5d5d5d"/><path d="M457.4,36.62c27.56-6.94,33.88,4,53.02,19.88l4.05,1.85,1.7.5c2.56.49,2.28-.01,3.35,1.54-4.64,8.79-25.67,5.54-33.64,1.33-8.99-6.04-17.27-16.95-28.48-25.11Z" fill="#fff"/><path d="M514.47,58.36l1.7.5c2.56.49,2.28-.01,3.35,1.54-4.64,8.79-25.67,5.54-33.64,1.33l1.42-2.36c6.98,1.62,10.18,2.48,17.42,2.71,4.38-.7,6-1.52,9.75-3.73Z" fill="#f2f2f4"/><path d="M514.47,58.36l1.7.5c-7.21,6.52-21.81,6.82-28.87.52,6.98,1.62,10.18,2.48,17.42,2.71,4.38-.7,6-1.52,9.75-3.73Z" fill="#1f1f1f"/><path d="M504.72,62.09c-1.31-.81-1.19-.88-1.92-2.27,1.11-1.65,5.24-2.52,7.62-3.32l4.05,1.85c-3.75,2.2-5.37,3.02-9.75,3.73Z" fill="#f2f2f4"/><path d="M488.04,55.19c7.01.68,11.23.59,18.22-.17l.46.83c-6.98,3.05-11.56,1.63-18.68-.66Z" fill="#1f1f1f"/><path d="M470.82,40.36c4.1-.74,12.52-.28,15.77,2.49-3.68-.66-14.43-1.05-15.77-2.49Z" fill="#5d5d5d"/><path d="M628.87,45.7c18.73,4.19,33.64,19.4,37.57,38.14-.1-.47,1.85,1.37,2.4,2.67l-.9,1.04c-3.16.36-4.81-.2-7.85-.9l-.36.71c1.67,1.4,7.89,1.6,10.58,1.95l.57,1.69,1.37,1.74c1.6.17.83-.07,2.29,1.01l-.96,1.13c-3.37,1.02-9.04,1.31-12.45.54-22.89-5.17-20.29-32.73-32.27-49.71Z" fill="#fff"/><path d="M646.78,83.46c8.2,4.57,14.73,9.79,24.11,7.54l1.37,1.74c-10.7,2.48-18.01-2.3-25.47-9.27Z" fill="#1f1f1f"/><path d="M1144.33,29.25c.49.23,1.1.47,1.42.94,11.29,16.75,2.45,39.27-12.91,50.11-2.83,2-6.29,3.42-9.85,2.79-2.86-.51-4.28-3.47-5.79-5.76,2.43-6.75,4.37-11.63,7.36-18.14-.05,2.58-.61,6.8-.89,9.5,1.57,19.18,16.37,3.81,21.06-4.53-4.1,4.14-11.37,13.27-17.2,8.16-2.59-5.77.43-14.37,2.19-20.22,2.86-9.58,7.03-16.43,14.6-22.86Z" fill="#fff"/><path d="M1144.93,45.21c-.35-2.29-.62-4.24-.83-6.56l.57-.38c1.81,6.9,2.3,10.56,1.46,17.71l-.61.88c-1.03-1.73-.62-9.16-.6-11.66Z" fill="#444"/><path d="M1144.93,45.21c.76,4.05.95,6.64,1.21,10.77l-.61.88c-1.03-1.73-.62-9.16-.6-11.66Z" fill="#908f8f"/><path d="M677.41,44.15l-.08-1.8c14.28-11.28,34.07,2.49,43.37,13.28,1.81,2.1,3.38,3.09,3.86,6-2.34,1.83-3.99.43-7.13,1.41,4.81.92,7.7-.96,11.17.59l.59,1.39c-1.5.74-2.41,1.18-3.98,1.74l.45,1.41c3.65-.83,6.59-1.8,9.99.12l-.38.92c-3.18,1.66-6.35,2.3-9.92,2.28-23.76-.11-31.34-11.98-46.24-26.43,5.36-2.44,11.95-.55,19.15-1.02-9.97-1.35-12.12-4.47-20.84.11Z" fill="#fff"/><path d="M701.04,63.03c9.43,2.18,14.72,2.79,24.15,3.72l.45,1.41c-9.59.68-16.07-1.18-24.6-5.14Z" fill="#1f1f1f"/><path d="M522.33,35.29c-6.44-7.55-12.55-14.89-19.48-22.04-3.06-3.16-4.93-3.15-6.58-5.1.56-.85.65-.93,1.59-1.41,7.1-3.57,15.36-4.06,22.83-1.34,11.74,4.31,16.18,15.04,20.96,25.53l.68,1.78.96,2.14-.62.93c-2.36-.12-3.39-.17-5.73.07,2.2,2.26,8.93-.87,8.87,4.98-9.04-1.5-12.9-3.37-20.9-7.3-2.02.74-1.19.16-2.59,1.77Z" fill="#fff"/><path d="M542.34,32.71c-3.8.01-11.81-.89-14.47-3.73l.26-.72c3.79,1.42,9.5,3.57,13.53,2.67l.68,1.78Z" fill="#444"/><path d="M504.87,7.93c.56-.06,1.12-.11,1.69-.16,8-.7,12.83.09,19.12,5.34l-.73.29c-8.86-5.35-11.88-3.88-21.25-3.76l1.18-1.71Z" fill="#444"/><path d="M649.52,11.94l-.98-1.21c1.77-2.32,7.05-2.93,9.85-3.41,17.83-3.03,33.92,2.41,44.38,18.13l.69,1.19c1.68,1.14,1.11.41,1.91,2.13,1.17.83,1.69,1.41,3.02,1.75.2.84.07.85-.05,1.77-6.73,5.59-26.3-.95-33.14-6.11l-2.05-1.44c-2.93-3.65-11.9-9.5-16.42-11.44l-.43-.64-6.78-.73Z" fill="#fff"/><path d="M675.19,26.19c11.29-1.46,21.52,2.54,28.27.45,1.68,1.14,1.11.41,1.91,2.13,1.17.83,1.69,1.41,3.02,1.75.2.84.07.85-.05,1.77-6.73,5.59-26.3-.95-33.14-6.11Z" fill="#f2f2f4"/><path d="M708.39,30.53c-8.11.54-17.72,3.75-25.63-1.89l.18-.62c7.24,1.7,15.28,3.93,22.43.75,1.17.83,1.69,1.41,3.02,1.75Z" fill="#1f1f1f"/><path d="M649.52,11.94c8.7-.25,27.84-4.6,33.73,1.37-2.41-.11-4.22-.89-6.59-1.55-4.37-1.23-10.24.85-14.54,2.28-.32-1.32.06-.82-.95-1.63l-4.45.92-.43-.64-6.78-.73Z" fill="#444"/><path d="M673.14,24.75c11.09-2.07,17.41,1.69,29.62.7l.69,1.19c-6.75,2.09-16.98-1.91-28.27-.45l-2.05-1.44Z" fill="#444"/><path d="M499.88,72.29c-1.74-.21-3.87-.28-5.28-1.18,26.8-1.42,22.6-7.78,46.49,9.3,1.29,1.27,1.8.9,4.12,1.18-1.11,3.56-3.46,3.74-6.95,5.28,4.01,0,6.78-2.67,9.98-2.08-.32,1.96.07,1.05-1.53,2.66l.57,1.72c2.5-1.71,4.85-4.03,7.78-2.26-4.42,9.16-32.23,8.77-39.96,1.78-6.25-5.65-10.56-7.45-15.52-15.37,6.87,1.37,12.84.1,19.77-.65-2.08-1.29-17.61-1.59-19.47-.37Z" fill="#fff"/><path d="M546.7,87.44l.57,1.72c-10.04,2.95-14.74,2.65-24.65.96,9.47-1.11,13.73.26,24.08-2.68Z" fill="#1f1f1f"/><path d="M541.08,80.41c1.29,1.27,1.8.9,4.12,1.18-6.93.44-12.03,6.43-22.72,3.44,5.89-2.28,11.81.55,18.6-4.62Z" fill="#444"/><path d="M1051.28,36.55c10.94-1.49,20.99-2.47,30.88,3.28,4.06,2.36,20.17,12.57,16.75,18.09v1.87c-.56,1.78-1.13,2.51-2.11,4.06-3.43,1.42-7.53.11-11.32-.61l-1.71-.62c-.65.72-1.07,1.1-1.6,1.92-9.41-5.41-17.97-19.12-30.9-27.99Z" fill="#fff"/><path d="M1093.23,59.69c-3.89-.74-9.49-1.86-12.86-3.78,3.31-.1,7.75,1.15,11.09,1.92l1.77,1.86Z" fill="#5d5d5d"/><path d="M1091.46,57.83l7.45.09v1.87c-1.81-.16-3.86-.1-5.68-.11l-1.77-1.86Z" fill="#1f1f1f"/><path d="M1066.86,42.61c5.21-.54,8.3-.98,13.11,1.19-3.43.03-11.02.61-13.11-1.19Z" fill="#717171"/><path d="M112.9,31.55c1.09.16.72.13,1.73.91-.11,2.46-2.11,4.4-3.72,6.48-.29,2.2-.84,2.99.07,4.42,1.65-1.6,2-3.13,2.83-5.29,3.66,7.05,6.53,20.95,4.82,28.78-1.04,4.8-2.77,6.04-6.48,8.49-2.32.02-4.79-.44-6.7-1.68-19.05-12.4-6.36-33.55,7.46-42.11Z" fill="#fff"/><path d="M98.02,56.37c1.26.95,3.51,5.33,4.72,7.15,2.84,4.27,4.8,5.42,8.22,8.99-7.56-1.71-11.2-9.36-12.93-16.14Z" fill="#1f1f1f"/><path d="M1105.48,38.23c2.52-5.37,3.3-14.11,9.66-14.26,3.36,1.85,5.65,5.84,6.93,9.38,3.14,8.61,3.22,12.13-.06,20.28-2.66,8.75-7.48,10.7-14.84,14.11-1.33,2.33-4,4.64-6.77,3.91-1.6-5.85,8.7-15.3,5.07-33.43Z" fill="#fff"/><path d="M1120.56,51.58c-.51-14.84-1.08-8.63-4.91-20.54l.44-.34c5.78,5.88,5.35,15.07,5.92,22.93-2.66,8.75-7.48,10.7-14.84,14.11-2.88-6.06,1.46-10.08,1.98-18.22l.05-.75.82-.33c1.8,3.34-1.56,7.91.44,12l1.07.26c1.39-2.23,1.66-3.99,2.3-6.52l.14,5.43.78.02c2.97-3.04,3.64-4.33,5.81-8.06Z" fill="#1f1f1f"/><path d="M112.62,11.57c3.93-.06,9.88,2.63,11.45,6.47-.83,2.55-2.55,2.95-5.11,3.62-2.85.19-4.86.08-7.39,1.36,1.7,1.46,4.34.53,6.94.84-1.97,2.3-4.59,3.53-7.18,5.03-13.3,7.71-13.23,10.2-18.58,23.44-2.01-1.04-2.57-2.87-3.58-5.17-3.85-17.09,3.77-36.34,23.46-35.6Z" fill="#fff"/><path d="M89.16,47.17c-3.85-17.09,3.77-36.34,23.46-35.6-4.22,3.02-7.9,4.7-12.11,7.53-1.93,1.29-3.68,3.78-5.33,5.24-.7,4.4-2.41,7.86-3,11.93.82,2.7,1.78,4.8,1.28,7.51l-1.14.44c-.71-1.92-.78-2.22-1.13-4.24.06,3.45-.44,4.26-2.04,7.2Z" fill="#f2f2f4"/><path d="M92.19,36.26l-.12-.06c-1.51-2.26.87-10.18,3.12-11.86-.7,4.4-2.41,7.86-3,11.93Z" fill="#5d5d5d"/><path d="M683.78,75.09c-2.61-1.68-4.07-2.63-7.09-3.68-3.07-1.08-10.05-.53-11.75-2.55l1-.83,3.05.38c-.89-1.81-6.39-1.7-8.8-5.3l.73-.91c4.01.77,7.51,2.92,10.93,4.22,15.69,5.93,15.37,8.39,26.18,20.3-2.99.64-4.73.94-7.6,2.18,2.55-.28,7-1.19,9-1.12l.33,1.31,1.32.98c.86-.4,1.57-.49,2.53-.72l.99.87c-1.56,2.62-2.9,2.98-5.65,4.05-19.18,7.51-27.81-8.9-33.36-23.72,7.02,1.4,11.42,2.31,18.19,4.55Z" fill="#fff"/><path d="M701.08,90.06c-5.09,4.01-20.93,5.35-23.74-1.85,4.3-.56,9.42,7.61,21.75,1.23l.67-.35,1.32.98Z" fill="#1f1f1f"/><path d="M679.39,84.42c5.15.97,12.38.37,14.71,1.64-7.37,1.26-8.32,2.04-14.71-1.64Z" fill="#1f1f1f"/><path d="M471.26,21.02c7.46-7.8,15.1-12.85,26.06-7.45,4.96,2.44,8.45,5.38,10.25,10.78-.92,1.56-2.86,1.56-5.14,2.18l-.25.65c3.54-.62,5.13-1.15,8.5.09l.36.91c-1.64,1.27-1.55,1.3-3.52,1.81l3.78.19c-2.93.76-3.64.94-6.65.98l-7.24.66c-2.36-.14-5.41-1.13-7.72-1.23-8.26-.36-11.38-5.68-17.77-9.2l-.67-.36Z" fill="#fff"/><path d="M502.19,27.18c3.54-.62,5.13-1.15,8.5.09l.36.91c-1.64,1.27-1.55,1.3-3.52,1.81l3.78.19c-2.93.76-3.64.94-6.65.98-3.38-1.24-7.42-3.04-10.81-4.44,3.16.09,5.44,0,8.59-.18l-.25.65Z" fill="#908f8f"/><path d="M502.19,27.18c3.54-.62,5.13-1.15,8.5.09l.36.91c-1.64,1.27-1.55,1.3-3.52,1.81-2.58-.38-2.88-.35-5.18-1.47l-.16-1.33Z" fill="#fff"/><path d="M483.63,15.37l5.92-.13-.58.56,1.16-.41c-3.82.87-5.11,1.26-8.71,2.77-1.43,1.06-3.02,2.28-4.7,2.4,2.43-3.04,3.49-3.4,6.9-5.19Z" fill="#444"/><path d="M120.16,41.85c.05-6.44.78-22.58,12.25-19.06,4.4,1.35,8.97,4.07,6,8.99-3.79,7.53.92,19.56-6.25,25.69-3.06.52-3.67-.55-5.15-3.13-2.63-3.63-4.83-8.44-6.85-12.51Z" fill="#fff"/><path d="M120.16,41.85l2.36-.48c.42,3.45,3.87,8.61,5.7,11.87l-1.2,1.12c-2.63-3.63-4.83-8.44-6.85-12.51Z" fill="#f2f2f4"/><path d="M122.52,41.37c2.14.77,6.25,8.89,5.7,11.87-1.83-3.26-5.28-8.42-5.7-11.87Z" fill="#444"/><path d="M1138.93,13.22c9.84-.31,6.92-1.21,10.66,6.53.8-.14,1.36-.3,2.09-.63,1.47,2.82,2.29,5.03,4.75,7.01.27-3.69-5.47-10.29-7.89-13.61,14.45,8.56,20.3,12.52,18.31,30.02-1.4,3.36-7.28,13.13-11.22,12.2-.37-3.39,2.9-3.42,2.6-7.24-1.12.66-1.76,1.66-2.59,2.7-2.84-3.73,1.04-3.19.5-5.52-2.78-11.83-8.69-23.44-17.21-31.46Z" fill="#fff"/><path d="M1158.6,22.44c4.36,2.99,5.57,9.06,5.73,13.99-.69-.63-4.68-11.79-5.73-13.99Z" fill="#5d5d5d"/><path d="M681.39,4.96c13.92-.95,41.75,9.53,43.94,25.2l-.72.85-1.71-.53c-2.26-.66-3.34-.74-5.71-1.01l-1.57,1.67,1.13-1.17.5,1.17c-7.5.21-17.1-15.55-22.96-19.78-2.38-1.72-9.73-4.86-12.91-6.4Z" fill="#fff"/><path d="M706.98,22.71c1.89.31,15.21,4.02,16.93,5.09-7-.52-11.86-.08-16.93-5.09Z" fill="#1f1f1f"/><path d="M1124.88,14.57c10.23-.73,12.92,2.1,18.46,10.14-2.88,3.07-5.71,6.11-8.4,9.37-2.13,2.6-3.11,6.14-5.56,7.98.41-3.17.97-5.74.27-8.86l-.48.06c-.2,1.49-.14,2.48-1.1,3.62-3.92-9.61-4.8-10.41-13.39-16.46,4.28-3.21,5.22-3.74,10.19-5.85Z" fill="#fff"/><path d="M654.81,50.31l.13-.54c4.55-4.17,13.37-5.39,19.19-3.31,5.89,2.78,12.49,11.15,17.53,15.95-7.26.07-9.04-.52-15.89-1.43l.44,1.76-7.97-2.96c-5.06-3.01-6.97-4.23-11.5-8.07l-1.92-1.42Z" fill="#fff"/><path d="M654.81,50.31l.13-.54c4.55-4.17,13.37-5.39,19.19-3.31l-.77,1.01c-4.3,1.16-8.48,2.09-12.81,3.06,3.91,2.78,7.85,5.51,11.82,8.21-1.2.29-1.47.49-2.61.37l-1.52.68c-5.06-3.01-6.97-4.23-11.5-8.07l-1.92-1.42Z" fill="#1f1f1f"/><path d="M654.81,50.31l.13-.54c4.55-4.17,13.37-5.39,19.19-3.31l-.77,1.01c-5.52-1.8-12.47,1.31-18.55,2.83Z" fill="#f2f2f4"/><path d="M656.73,51.73c4.25-.38,9.43,4.61,13.03,7.39l-1.52.68c-5.06-3.01-6.97-4.23-11.5-8.07Z" fill="#f2f2f4"/><path d="M672.36,58.74c3.02-.37,10.96-1.58,13.25-.11-3.12,1.85-9.08-.03-11.11,1.47l1.27.89.44,1.76-7.97-2.96,1.52-.68c1.14.12,1.41-.09,2.61-.37Z" fill="#717171"/><path d="M83.08,71.19c-6.62-7.28-11.34-15.16-8.24-25.37,1.18-3.88,4.86-9.44,8.43-11.34l.43,1.04c-.58,2.91-1.48,3.69-3.41,5.84l-.65.71.79.41c1.39-.61,1.29-.66,2.77-.43,2.44,3.82,2.82,9.1,6.06,14.71l.48.81c-3.71,5.96-4.4,6.79-6.66,13.63Z" fill="#fff"/><path d="M79.64,42.06l.79.41c-4.26,9.28-2.64,14.23,1.66,22.87l-.54.79-1.76-.46c-4.74-4.7-4.04-17.86-.15-23.61Z" fill="#1f1f1f"/><path d="M478.87,78.65c5.86-.77,8.51-1.44,14.33-.72l.69.08c-2.47-1.47-4.64-2.72-6.96-4.46l.18-.6c5.92-.98,14.27,6.69,16.81,11.38l-.29,1.19c-2.08.3-5.81-.12-6.63.39,5.04,1.08,7.16-.93,10.43.97l.3,1.68.5,1.68c-3.96,1.76-10.83.83-14.94-.17l-1.04,1.08c-3.42-2.04-5.44-3.08-8.27-5.86-1.79-2.18-3.59-4.27-5.12-6.64Z" fill="#f2f2f4"/><path d="M485.24,84.61c7.36-.28,6.62,7.26,22.5,3.94l.5,1.68c-3.96,1.76-10.83.83-14.94-.17l-1.04,1.08c-3.42-2.04-5.44-3.08-8.27-5.86l1.25-.67Z" fill="#1f1f1f"/><path d="M485.24,84.61c2.44,1.56,5.89,4.18,8.06,5.46l-1.04,1.08c-3.42-2.04-5.44-3.08-8.27-5.86l1.25-.67Z" fill="#f2f2f4"/><path d="M121.1,54.77c7.44,6.37,19.44,26.58,2.23,28.2-4.14-.66-8.58-1.02-11.52-4.13l.28-.65c11.5-3.37,9.56-13.92,9-23.42Z" fill="#fff"/><path d="M1158.48,58.85c8.59-7.71,10.82-12.37,12.5-23.46,1.08,3.07,1.96,6.21,2.64,9.4,1.69,7.96,1.01,13.33-3.32,20.05-1.1,2.71-1.88,3.38-4.09,5.36-.8.66-1.6,1.31-2.42,1.95-1.81-2.59-1.75-7.16-4.82-12.46l-.49-.84Z" fill="#fff"/><path d="M1166.2,70.2c-.81-3.6-1.04-14.1,2.27-16.4-.98,4.21-1.05,6.02-.38,10.14,1.42-.82,1.8-11.91,3.6-15.29.59,7.3.5,9.06-1.39,16.19-1.1,2.71-1.88,3.38-4.09,5.36Z" fill="#1f1f1f"/><path d="M499.97,42.15c5.72,1.68,18.75,4.54,24.8,3.98,3.47-.32,1.9-.44,5.87.81l1.4.96c-1.22,2.74-4.55,3.25-5,4.43,4.46.44,6.36-2.87,9.31-2.03l-.06,1.15c-4.4,2.2-9.22,1.39-12.02,3.46l.43.67c2.06-.27,7.57-1.43,8.85-1.09-2.56,3.83-14.6,2.13-18.32-.23-5.41-2.61-10.73-8-15.26-12.11Z" fill="#fff"/><path d="M530.64,46.94l1.4.96c-1.22,2.74-4.55,3.25-5,4.43,4.46.44,6.36-2.87,9.31-2.03l-.06,1.15c-4.4,2.2-9.22,1.39-12.02,3.46l.43.67c2.06-.27,7.57-1.43,8.85-1.09-2.56,3.83-14.6,2.13-18.32-.23l.51-1.06c2.32-2.26,5.38-.1,9.11-2.85,1.57-3.58,2.06-3.08,5.8-3.4Z" fill="#f2f2f4"/><path d="M524.84,50.34c-2.41,4.63-4.06,3.95-9.11,2.85,2.32-2.26,5.38-.1,9.11-2.85Z"/><path d="M90.41,64.03l1.19-.98c1.92,2.42,2.86,5.27,5.21,8.38,3.54,4.68,7.17,6.55,10.6,10.06l-1.44,1.86c-1.89,1.1-2.75,1.01-4.98,1.26l-2.39-.84c-11.17-3.12-14.03-10.03-8.17-19.73Z" fill="#1f1f1f"/><path d="M100.98,84.61c-2-4.03-13.63-10.82-9.35-16.44,4.29,9.24,5.27,10.14,14.33,15.18-1.89,1.1-2.75,1.01-4.98,1.26Z" fill="#f2f2f4"/><path d="M98.58,83.76c-11.17-3.12-14.03-10.03-8.17-19.73-1.91,10.68.13,12.95,8.17,19.73Z" fill="#f2f2f4"/><path d="M90.41,64.03l1.19-.98c1.92,2.42,2.86,5.27,5.21,8.38,3.54,4.68,7.17,6.55,10.6,10.06-9.35-2.72-12.11-9.47-16.99-17.45Z" fill="#f2f2f4"/><path d="M139.29,64.3c-2.66-1.18-3.72-1.08-4.95-3.24,1.46-3.95,4.82-8.42,5.37-11.7.7-4.19-.47-9.03.84-13.58l.7-.31c-2.6,9.65,11.16,22.56,6.36,30.55-2.08.87-1.03.73-3.25.46.32-4.61.39-7.23-1.77-11.55l-.94-.06-.34,2.23c2.99,4.36-.72,4.95,2.39,9.32-2.07.12-2.2-.7-4.43-2.13Z" fill="#fff"/><path d="M139.29,64.3c-1.43-5.76-2.93-2.92,2.03-7.2,2.99,4.36-.72,4.95,2.39,9.32-2.07.12-2.2-.7-4.43-2.13Z" fill="#f2f2f4"/><path d="M607.97,28.66l-1.65-1.07c2-1.94,9.2-2.28,12.2-2.58,5.1,2.43,22.81,10.98,25.59,15.07-3.52.78-4.25.75-7.77.65l-.29-1.84c-4.02-1.2-14.8-6.55-18.1-9.17l2.99-.49c-2.73-2.22-9.75-1.72-12.97-.58Z" fill="#fff"/><path d="M1152.43,64.79c1.51,1.29.7,1.12,2.3,1.1l.2.37.2-.16-1.36-2.89.57-1.19c7.1-.5,6.78,17.05-1.71,20.56l-1.64-.4c2.64-4.96,7.92-7.21,5.54-13.81-1.21,5.33-7.3,16.38-13.78,15.03,4.45-4.92,11.29-11.4,9.68-18.6Z" fill="#fff"/><path d="M610.01,30.44c7.15-.92,18.85,9.4,26.33,10.3,3.52.1,4.25.13,7.77-.65l.7.61,2.33.44.44,1.09c-4.37,4.08-13.33.16-20.45,0h-.91c-5.39-5.97-9.28-7.7-16.21-11.79Z" fill="#f2f2f4"/><path d="M636.34,40.73c3.52.1,4.25.13,7.77-.65l.7.61c-1.55,1.65-1.6,1.72-3.86,2.17-2.45-.42-2.76-.49-4.6-2.13Z" fill="#1f1f1f"/><path d="M508.24,90.24c2.53-.21,3.16-.38,5.36.9-.71,1.41-1.89,1.69-3.38,2.38,4.08,1.2,8.77-1.89,11.11,1.72-5.44,4.07-23.43-.97-29.07-4.08l1.04-1.08c4.11.99,10.98,1.93,14.94.17Z" fill="#fff"/><path d="M695.34,76.73c5.32,2.59,13.95-1.02,20.4,1.09l-.07.75c-4.4,2.45-9.73,3.55-13.22,5.51-3.11-.64-5.84-4.46-7.77-6.86l.66-.49Z" fill="#fff"/><path d="M151.88,58.51c3.84-2.68,8.96-2.94,11.64,1.5l.85,1.43,1.9.68v1.93c-4.91,1.1-7.31.54-12.37-.07-1.36-1.18-1.28-1.08-1.73-2.82l-.29-2.64Z" fill="#fff"/><path d="M151.88,58.51c3.84-2.68,8.96-2.94,11.64,1.5-3.84.59-7.98-.48-11.64-1.5Z" fill="#fff"/><path d="M151.88,58.51c3.66,1.02,7.8,2.08,11.64,1.5l.85,1.43c-3.82.9-7.6-.32-12.21-.28l-.29-2.64Z" fill="#1f1f1f"/><path d="M1088.97,35.64c8.11-.54,6.04-.64,8.41,5.44,1.06,2.7,4.55,3.63,3.2,8.25l-1.12-.46c-3.24-3.25-12.1-9.48-13.07-12.15l2.59-1.08Z" fill="#fff"/><path d="M522.33,35.29c1.4-1.61.57-1.04,2.59-1.77,2.99,6.2,16.71,9.06,23.02,8.79.99,1.13,1.35,1.8,2.11,3.06l-1.15.89c-8.3.3-20-6.03-26.56-10.97Z" fill="#f2f2f4"/><path d="M91.48,15.89l1.27.35c-4.06,4.84-6.17,7.3-8.02,13.34l-5.45,4.5-.68.18c-.17-6.38,7.22-15.26,12.88-18.38Z" fill="#fff"/><path d="M167.14,65.66c1.83-.09,3.22-.32,4.94.27l.93,1.17c-4.33,4.05-16.98,2.76-21.18-1.16,3.85-.73,8.5,1.37,15.31-.28Z" fill="#f2f2f4"/><path d="M466.72,24.98c6.16-.1,7.94,1.91,13.05,5.38-4.72-.69-8.34-.09-13.04.42l1.04-.25c1.02-.48,2.08-1.07,3.08-1.6l-.3-.71c-4.56-.27-8.88,2.82-12.35,5.33,2.78-4.21,4.08-6.23,8.52-8.57Z" fill="#f2f2f4"/><path d="M147.92,44.19c3.56,1.75,9.07,8.51,11.95,11.72-10.71.46-9.71-2.29-11.95-11.72Z" fill="#fff"/><path d="M558.41,56.53c5.89-.38,21.9,10.5,31.6,14.03-10.92-.71-21.85-8.43-31.6-14.03Z" fill="#f2f2f4"/><path d="M1115.84,68.99c1.8,4.03-1.57,8.94-4.83,11.31,2.24.55,2.72.56,4.62,1.76-1.04,1.33-.4.75-2.53,1.22-2.14-1-4.36-1.73-5.71-3.55.85-3.4,4.83-2.9,8.09-9.92l.37-.81Z" fill="#fff"/><path d="M1104.75,24.64c1.38.53.8.12,1.6,1.48-.05,2.84-1.37,7.71-3.38,9.83-1.75-2.04-2.66-2.68-2.88-5.32.68-2.73,2.54-3.99,4.66-5.98Z" fill="#fff"/><path d="M702.45,84.08c5.83.61,10.84,1.87,15.85-1.17l3.36-2.01c1.09.48.79.09,1.22.94-6.06,5.08-13.55,8.61-20.43,2.25Z" fill="#f2f2f4"/><path d="M1082.18,64.54c.53-.82.95-1.19,1.6-1.92l1.71.62c3.08,2.48,9.79,2.8,11.05,5.04-3.67,1.58-11.01-1.79-14.36-3.74Z" fill="#f2f2f4"/><path d="M676.2,62.76c5.17.7,11.47.89,16.8,1.16.43.45.85.91,1.28,1.36-5.37,1.52-13.7,1.29-18.08-2.53Z" fill="#f2f2f4"/><path d="M499.19,34.18c8.18.97,14.83-1.65,20.59,1.96-4.69,2.36-15.54-.65-20.59-1.96Z" fill="#f2f2f4"/><path d="M694.68,77.22l-1.53-1.63c2.38-2.48,11.99-2.06,15.52-1.35l-.23.5c-2.51.38-11.2,1.49-13.1,1.99l-.66.49Z" fill="#f2f2f4"/><path d="M511.31,30.17l1.76-.24.54,1.16c-3.34,2.99-12.12,1.66-16.19.72l7.24-.66c3.01-.04,3.72-.22,6.65-.98Z" fill="#f2f2f4"/><path d="M696.03,67.31c1.51.05,3.81.97,4.99,2.21l-.74.94-3.3.26c-2.71-.42-4.38-.56-6.94-1.68,1.28-1.11,4.04-1.33,5.99-1.73Z" fill="#fff"/><path d="M650.86,41.95l2.16.76.36,1.26c-1.7,1.96-4.56,2.95-7.01,4.08l-1.63-.85-.02-1.06c2.92-1.53,3.69-2.17,6.14-4.19Z" fill="#f2f2f4"/><path d="M135.54,71.22c4.4,3.79,2.68,7.69-.84,11.1l-.95-.6c1.31-4.58,1.68-5.79,1.8-10.5Z" fill="#fff"/><path d="M722.04,75.31c4.21.2,3.1,1.01,7.74-.1l1.27.83c-2,1.75-2.43,2.48-4.91,2.66-2.37-.93-2.46-1.29-4.1-3.39Z" fill="#f2f2f4"/><path d="M1226.55,69.56c1.62.57,4.91,1.33,6,2.36l-1.18-.72-.63,1.03c-2.42.11-2.72-.05-5.11-.69l.92-1.99Z" fill="#1f1f1f"/></g></svg>