<?xml version="1.0" encoding="UTF-8"?><svg id="Layer_2" xmlns="http://www.w3.org/2000/svg" viewBox="0 0 222.52 62.35"><g id="Layer_1-2"><path d="M138.01,51.08c-7.76-4.95-6.28-4.68-10.08-8.39-2.49-2.8-4.72-6.34-4.93-6.62-.43-.57-.91-1.1-1.33-1.67-.64-.87-.96-1.23-1.81-1.7.97-.67,11.16-6.56,12.73-7.79,1.49-.99,6.93-5.25,5.02-5.74-1.3-.13-2.65.31-3.88.68-1.43.47-4.99.96-10.61,3-2.02.49-3.97,1.17-5.96,1.77-1.15.36-2.36.51-3.49.93-.03-.11-.39-.62-.62-1.05-4.22-7-6.38-14.74-9.95-21.57-.63-1-1.13-2.2-2.17-2.84-2.1-.74-1.58,3.77-1.51,4.94.07,1.02,4.21,19.46,5.42,21.98-.3.21-.04-.02-3.23,1.79-13.7,5.99-18,6.8-20.23,9.32-.72.73-.01,1.34.77,1.43,1.49.28,2.28.64,7.61-.44,1.47-.36,15.13-2.67,16.59-3.06-3.1,7.54-2.93,21.19-2.49,22.78.32.98.8,3.52,2.45,3.52s1.94-3.1,2.9-5.42c1.77-5.14,3-10.76,5.31-15.78,1.19,1.4,2.59,2.98,6.14,5.01.63.44,8.26,5.28,10.56,6.27,2.14.88,4.36,1.29,5.51,1.29,1.39,0,2.57-1.58,1.27-2.64ZM137.77,52.84c-1.55,1.22-6.64-.85-8.37-1.88-.46-.22-5.13-3.1-5.14-3.1-5.53-3.57-5.51-3.02-9.04-6.58-.28-.26-.56-.81-.83-.7-.79.06-3.51,9.55-6.61,18.98-.41,1.61-1.37,3.6-2.67,1.24-1.83-2.87-.65-13.52-.2-17.63,1.19-5.67,1.97-7.04,1.99-7.29.16-.13-.03-.43-.24-.35-.76.23-.01,0-18.03,3.36-1.43.28-2.89.58-4.36.53-.89-.16-1.97.02-2.71-.58-.33-2.21,18.07-7.98,22.27-10.76.33-.16,1.44-.83,1.52-.99.06-.14-.09-.26-.22-.25-.28-.67-3.45-12.02-5.23-22-.17-.77-.23-3.86.39-4.34,2.42-.03,6.74,13.63,9,17.71.29.67,3.58,7.83,4.31,7.75,10.58-2.74,12.07-3.89,18.35-5.18.96-.31,1.93-.55,2.92-.75.87-.14,1.77-.61,2.65-.39-.15.66-.73,1.07-1.2,1.51-2.8,3.06-7.05,5.21-11.75,8.19-6.79,3.95-5.89,3.01-4.31,4.26,2.25,1.88,3.59,5.95,10.45,12.78,1.77,1.73,5.1,3.96,5.11,3.96.64.36,1.33.63,1.88,1.14.46.33.44.98.06,1.37Z" fill="#010101"/><path d="M102.5,34.76c-2.43.23-3.63,1.16-5.07,1.38-.61.16-1.23,0-1.85-.02-1.59-.03-4.44,1.28-6.03,1.14-1.63-.14-1.48.24-2.88.81-1.56.48-2.74-.15-2.77.43.03.09.11.12.19.12,4.82,0,2.44-1.1,5.32-1,1.56.06,2.04-.3,3.51-.68,3.39-.93,3.59-.09,5.06-.57,1.46-.41,2.85-1.13,4.39-1.19.11,0,.23,0,.34-.02.39-.15.16-.5-.21-.4Z" fill="#010101"/><path d="M106.06,34c-.24.09-2.17.19-1.66.65.56.05,1.14-.2,1.69-.28.24-.03.22-.41-.04-.36Z" fill="#010101"/><path d="M102.2,9.36s-.56-2.25-.83-3.69c-.34-.92-.56-1.93-.29-2.89.14-.31-.16-.55-.34-.23-.45,1.39-.06,2.52.36,3.85.2,1.04.43,2.06.75,3.07.06.22.4.1.35-.1Z" fill="#010101"/><path d="M102.58,11.8c0-.22-.28-.4-.41-.16.04,1.75.39,2.66.83,4.42.06.22.4.1.35-.1-.44-2.14-.64-2.67-.77-4.15Z" fill="#010101"/><path d="M104.52,19.57c-.1-.24-.1-.71-.41-.78-.37.08-.1.2.68,3.35.59,1.95.49,2.37,1.41,5.48.06.21.4.1.34-.1-1.16-4.05-.89-4.44-2.02-7.96Z" fill="#010101"/><path d="M107.9,34.36c-.13-.04-.32.03-.28.19.11.23.39.12.33.5-.11,1.04-.82,2.23-.87,4.96-.23,1.68-.79.51-1.85,6.45-.39,1.34-.55,2.72-.38,4.11.02,3.33-.17,3.77.15,3.77.28,0,.1-.75.15-.97-.02-.5.06-1,.04-1.5-.17-4.11-.03-3.16.35-5.35.33-1.19.48-2.42.83-3.61.27-.84.79-1.61.98-2.48.22-.88.15-1.79.32-2.68.27-1.18,1.21-3.24.24-3.39Z" fill="#010101"/><path d="M104.91,56.62c-.2.08-.05.35-.06.51.04.87.11,1.74.28,2.59.03.23.42.21.4-.03-.3-1.64-.16-3.23-.61-3.07Z" fill="#010101"/><path d="M125.46,47.62c-1.79-.99-2.27-1.77-2.79-2.22-.78-.71-1.67-1.28-2.51-1.91-.8-.6-1.53-1.38-2.46-1.79-.99-.46-1.69-1.32-2.44-2.07-.83-.67-1.72-.23-2,.74-.03.09-.1.17-.12.26,0,.26.34.18.39-.03.83-2.38,2.24.39,3.28,1.01.99.45,1.84,1.13,2.66,1.84,5.36,3.83,2.84,2.73,5.83,4.42.17.1.35-.16.16-.26Z" fill="#010101"/><path d="M135.18,52.13c-3.01-.73-8.18-3.96-8.3-3.98-.13-.02-.24.12-.17.23,1.66,1.32,7.74,4.09,8.43,4.09.18,0,.25-.28.04-.33Z" fill="#010101"/><path d="M122,29.79c2.38-1.21,3.01-1.86,3.67-2.18,5.32-2.73,3.59-2.33,5.55-3.44.71-.36,1.37-.81,2.05-1.23.26-.13,3.43-1.84,2.55-2.06-.25.03.07.11-1.58,1.08-1.04.64-2.1,1.24-3.14,1.88-1.11.62-1.99,1.53-3.07,2.17-1.64.74-3.17,1.67-4.69,2.62-.78.42-1.59.79-2.3,1.33-.13.14-.68.3-.52.54.2.24.38-.19,1.48-.73Z" fill="#010101"/><path d="M117.45,32.68c.17.14.28-.05.41-.18,1.21-1.06,1.97-1.28,1.65-1.54-.18-.14-.35.11-.5.19-.31.26-1.91,1.07-1.55,1.53Z" fill="#010101"/><path d="M118.54,25.29c.15-.09.03-.32-.13-.29-3.25.87-5.61,2.33-6.42,1.92-.28-.36-.45-.79-.74-1.14-.13-.19-.43,0-.29.19.46.57.59,1.46,1.51,1.38.73.03,1.39-.34,2.04-.63,1.33-.5,2.69-.93,4.03-1.43Z" fill="#010101"/><path d="M17.35,32.28c.42.17,1.29-.85-1.67-.85-2.29.13-3.18,1.83-2.35,1.83.17,0,.34-.11.33-.3.85-1.16,2.47-1.04,3.7-.68Z" fill="#010101"/><path d="M18.64,34.28c.71.11.91-.68-.17-.64-3.27.13-3.77,2.07-2.97,2.07.68,0-.29-1.41,3.14-1.43Z" fill="#010101"/><path d="M16.99,38.39c.56.03-.04-.41,3.09-1.14.21-.02.47-.15.39-.4-.24-.43-.85-.04-1.22,0-.39.04-3.45,1.08-2.25,1.55Z" fill="#010101"/><path d="M18.05,40.4c-.23.24.06.55.34.51.86-.02,1.74-.29,2.6-.39.19,0,.29-.13.29-.26,0-.39-.44-.28-2.1-.06-.36.1-.8,0-1.12.21Z" fill="#010101"/><path d="M3.82,37.72c.35-.04.54-.81-.6-.5-.39.06-1.39.96-.65,1.16.48,0,.47-.58,1.25-.67Z" fill="#010101"/><path d="M3.74,39.54c.2-.09.41-.15.62-.23.33-.13.19-.59-.15-.57-1.67.15-1.24,1.32-.47.8Z" fill="#010101"/><path d="M3.8,40.32c-.37.1-.52.76.79.76.28.04.51-.3.3-.52-.27-.19-.76-.28-1.09-.24Z" fill="#010101"/><path d="M7.62,35.93c-1.2.05-1.69.82-1.26,1.06.28.14.41-.15.6-.29.28-.14.67-.1.9-.33.15-.19-.03-.45-.25-.45Z" fill="#010101"/><path d="M8.64,38.56c.77,0,.54-.52.28-.58-2.01-.34-2.01.66-1.47.66.22,0,.16-.08,1.19-.08Z" fill="#010101"/><path d="M7.94,39.93c-.44.04-.32.61.08.54.16,0,.5.02.75.02,1.2,0,1.05-.82.27-.64-.37.03-.73.04-1.1.08Z" fill="#010101"/><path d="M9.33,41.61c-1.08,0-1.74-.69-1.94-.2-.21.47,1.41.75,1.59.78.98.18.97-.74.36-.58Z" fill="#010101"/><path d="M11.02,35.37c.27-.13.63-.06.85-.28.12-.16.01-.39-.17-.45-.4-.14-2.13.28-1.69.9.3.31.68-.11,1-.17Z" fill="#010101"/><path d="M11.33,37.55c.21.43.76.14,1.16.07.33-.11,1.09-.19.68-.69-.37-.27-.93.06-1.33.12-.24.07-.62.17-.51.5Z" fill="#010101"/><path d="M12.38,39.94c-.38,0-.34.54.01.57,2.43.25,2.07-.54,1.75-.65-.58-.06-1.17.1-1.76.07Z" fill="#010101"/><path d="M12.6,42.03c-.47-.09-.56.54-.12.64,2.62.59,2.93-.45,2.33-.6-.38-.09-.33.3-2.21-.04Z" fill="#010101"/><path d="M54.72,29.98c-2.72.38-6.77-.49-7.46-.57-3.21-.18-10.63-2.16-10.87-2.22-10.69-2.74-14.17-4.26-19.58-1.74-2.67,1.3-3.71,3.78-3.48,4.5-1.44.29-1.81.6-2.46,1.42-.19.26-.48.91-.5,1.38-1.46-.27-2.64.57-2.92,1.54-1.4-.39-2.94.68-3.03,1.6-.65-.36-1.27-.28-1.59-.03-1.01.2-1.45.78-1.74,1.72-.7-.16-1.24.75-1.06,1.41.2,1.08.57,3.3,1.82,3.57.37-.02.63-.19.79-.45.04.06.09.12.13.17.29,1.24,2.72,2.18,3.67.39.83,1.16,3.31,1.95,4.27.7.87.79,2.3,1.35,3.45,1.4,1.44.14,2.57-1.19,2.43-2.61-.03-1.41-2.06-7.99-5.58-9.22.06-1.31,1.05-1.7,1.36-2.09,3.4-1.71,9.16,1.94,10.02,8.4.14,1.53,1.31,3.75-3.86,4.31-.48.03-1.08.15-1.48-.16-.68-.44-.88.58.29.76,1.22.13,2.63.08,3.77-.36.37.71,1.78,2.21,3.44,2.63,5.37,1.1,22.35-8.45,26.64-10.56,1.41-.72,1.91-.53,4.27-2.21,2.38-1.58,2.5-3.75-.76-3.66ZM1.9,41.84c-.49-.69-1.79-2.97-.97-3.62.95.58,1.41,2.63.97,3.62ZM4.53,42.96c-.7-.26-.91-1.07-1.29-1.12-.09-.14-.24-.31-.4-.32.18-1.15-.46-2.92-1.19-3.61.22-.27.29-.87.56-1.07.47-.37.88-.38,1.07-.44.24-.08.52-.16.9.16,1.18.72,3.02,7.03.35,6.41ZM7.83,42.95c-.32-.35-.72-.61-1.05-.96-.17-.18.14-.5-.11-1.5-.58-3.61-1.73-3.88-1.59-4.24.05-.17,0-.36.09-.52.16-.51,2.13-1.65,3.33.07,2.39,2.71,3.14,9.14-.67,7.15ZM14.08,36.87c.54.9.78,1.93,1.11,2.91.24.75.62,1.47.72,2.27.19,1.27-.77,2.04-1.98,1.99-.94-.09-1.92-.73-2.95-1.12.73-1.72-.18-6.82-2.86-8.35.31-.98,1.03-1.04,1.39-1.23,1.63-.51,3.65,2.1,4.58,3.54ZM54.87,33.25s-9.99,4.94-10,4.94c-8,4.35-6.88,3.11-11.45,5.48-2.51,1-5.17,1.9-7.9,2.09-1.96-.18-2.73-.87-3.82-2.25,1.13-.64,1.81-1.78,1.51-3.63-.15-1.44-.47-2.95-1.14-4.24-.8-1.16-1.41-2.47-2.44-3.44-1.5-1.43-3.44-2.54-5.56-2.37-.07-1.56,3.61-5.63,10.4-4.65,6.03,1.18,16.76,4.66,25.45,5.43,4.47.68,4.45-.07,5.91.21,1.47.44-.28,2.01-.97,2.43Z" fill="#010101"/><path d="M20.79,28.41c-.43-.19-2.22-1.51-2.46-.8-.03.3.33.33.54.41,4.6,1.86,8.59,9.67,7.58,13.87-.64,2.14-1.94,1.84-1.76,2.36.23.39.74.04,1.1-.14,3.82-2.63-.85-13.51-5-15.71Z" fill="#010101"/><path d="M26.83,34.04c-.07-.34-.64-.35-.6.03.15.41.4.79.59,1.19,2.01,4.55,1.6,6.02.92,8.11-.5,1.21-1,1.23-.67,1.51.47.31,2.06-1.52,1.76-5.51-.36-1.87-1.14-3.64-2-5.33Z" fill="#010101"/><path d="M50.89,33.92c-.44.18-2.84,1.06-5.17,2.29-.31.25-1.76.53-1.47,1.01.29.63,2.3-.9,6.74-2.72.36-.1.25-.61-.11-.58Z" fill="#010101"/><path d="M42.65,37.87c-2.07,1.14-3.98,1.41-3.68,1.98.08.14.25.21.4.15.61-.25,3.29-1.39,3.62-1.7.14-.21-.11-.49-.34-.43Z" fill="#010101"/><path d="M45.44,34.47c-.77.32-.74.24-4.69,1.36-.39.09-.28.68.14.68s4.28-1.32,4.81-1.52c.29-.17.03-.6-.26-.52Z" fill="#010101"/><path d="M208.87,32.83c0,.19.16.3.33.3.83,0-.06-1.7-2.35-1.83-2.96,0-2.09,1.02-1.67.85,1.23-.36,2.85-.48,3.7.68Z" fill="#010101"/><path d="M207.03,35.58c.8,0,.3-1.94-2.97-2.07-1.08-.04-.88.75-.17.64,3.44.02,2.46,1.43,3.14,1.43Z" fill="#010101"/><path d="M203.28,36.71c-.37-.03-.98-.43-1.22,0-.08.25.18.39.39.4,3.13.73,2.53,1.17,3.09,1.14,1.19-.47-1.86-1.51-2.25-1.55Z" fill="#010101"/><path d="M203.35,40.07c-1.66-.22-2.11-.33-2.1.06,0,.13.1.26.29.26.86.11,1.74.37,2.6.39.28.03.57-.27.34-.51-.32-.2-.76-.11-1.12-.21Z" fill="#010101"/><path d="M219.95,38.26c.74-.2-.26-1.1-.65-1.16-1.15-.32-.95.45-.6.5.78.09.77.66,1.25.67Z" fill="#010101"/><path d="M218.32,38.62c-.34-.03-.48.44-.15.57.21.08.42.14.62.23.77.53,1.2-.65-.47-.8Z" fill="#010101"/><path d="M217.64,40.42c-.21.22.03.56.3.52,1.31,0,1.16-.66.79-.76-.33-.04-.82.05-1.09.24Z" fill="#010101"/><path d="M214.66,36.25c.23.23.62.18.9.33.19.13.32.43.6.29.44-.24-.05-1.02-1.26-1.06-.22,0-.4.26-.25.45Z" fill="#010101"/><path d="M215.08,38.5c.54,0,.54-1.01-1.47-.66-.27.06-.49.58.28.58,1.03,0,.96.08,1.19.08Z" fill="#010101"/><path d="M213.48,39.71c-.78-.18-.93.64.27.64.25,0,.58-.03.75-.02.4.07.53-.5.08-.54-.37-.04-.73-.05-1.1-.08Z" fill="#010101"/><path d="M213.55,42.06c.18-.02,1.79-.31,1.59-.78-.21-.49-.86.19-1.94.2-.62-.16-.63.76.36.58Z" fill="#010101"/><path d="M212.51,35.41c.44-.62-1.29-1.04-1.69-.9-.18.06-.29.3-.17.45.22.22.58.15.85.28.33.06.7.48,1,.17Z" fill="#010101"/><path d="M210.69,36.92c-.4-.07-.96-.39-1.33-.12-.41.5.35.58.68.69.4.08.95.37,1.16-.07.11-.32-.27-.43-.51-.5Z" fill="#010101"/><path d="M208.39,39.73c-.33.11-.68.9,1.75.65.35-.03.39-.56.01-.57-.58.02-1.18-.13-1.76-.07Z" fill="#010101"/><path d="M207.72,41.94c-.6.15-.29,1.19,2.33.6.44-.11.35-.74-.12-.64-1.88.34-1.83-.05-2.21.04Z" fill="#010101"/><path d="M167.05,33.51c2.37,1.67,2.87,1.49,4.27,2.21,4.3,2.11,21.28,11.66,26.64,10.56,1.66-.42,3.07-1.92,3.44-2.63,1.15.44,2.55.49,3.77.36,1.17-.17.97-1.2.29-.76-.4.31-1,.19-1.48.16-5.18-.57-4.01-2.78-3.86-4.31.86-6.47,6.62-10.11,10.02-8.4.32.4,1.3.78,1.36,2.09-3.53,1.23-5.56,7.81-5.58,9.22-.15,1.42.99,2.75,2.43,2.61,1.14-.05,2.58-.61,3.45-1.4.96,1.25,3.44.46,4.27-.7.95,1.79,3.38.85,3.67-.39.05-.06.09-.11.13-.17.16.26.42.43.79.45,1.25-.27,1.62-2.49,1.82-3.57.18-.66-.36-1.57-1.06-1.41-.29-.94-.72-1.52-1.74-1.72-.32-.25-.94-.33-1.59.03-.09-.92-1.63-1.99-3.03-1.6-.28-.97-1.45-1.81-2.92-1.54-.03-.47-.32-1.12-.5-1.38-.66-.82-1.02-1.13-2.46-1.42.23-.72-.81-3.2-3.48-4.5-5.4-2.52-8.89-1-19.58,1.74-.25.06-7.67,2.04-10.87,2.22-.69.08-4.74.95-7.46.57-3.26-.09-3.14,2.08-.76,3.66ZM221.59,38.09c.82.65-.48,2.93-.97,3.62-.44-.99.02-3.04.97-3.62ZM218.34,36.41c.37-.31.66-.24.9-.16.19.06.6.07,1.07.44.26.2.34.79.56,1.07-.72.69-1.36,2.46-1.19,3.61-.16.02-.31.19-.4.32-.38.05-.59.86-1.29,1.12-2.67.62-.82-5.69.35-6.41ZM214.03,35.68c1.19-1.73,3.17-.58,3.33-.07.09.16.04.35.09.52.14.36-1.01.63-1.59,4.24-.26,1,.05,1.32-.11,1.5-.33.35-.73.61-1.05.96-3.81,1.99-3.06-4.44-.67-7.15ZM213.02,33.21c.36.19,1.08.25,1.39,1.23-2.68,1.53-3.59,6.62-2.86,8.35-1.04.4-2.01,1.04-2.95,1.12-1.2.05-2.16-.72-1.98-1.99.1-.79.47-1.51.72-2.27.33-.99.57-2.01,1.11-2.91.92-1.44,2.95-4.04,4.58-3.54ZM166.68,30.68c1.46-.28,1.44.48,5.91-.21,8.69-.77,19.42-4.25,25.45-5.43,6.8-.97,10.47,3.09,10.4,4.65-2.12-.17-4.06.94-5.56,2.37-1.03.98-1.64,2.29-2.44,3.44-.67,1.29-1,2.8-1.14,4.24-.3,1.85.38,2.98,1.51,3.63-1.09,1.39-1.86,2.07-3.82,2.25-2.73-.19-5.39-1.09-7.9-2.09-4.57-2.38-3.45-1.14-11.45-5.48-.01,0-9.97-4.93-10-4.94-.69-.42-2.44-1.99-.97-2.43Z" fill="#010101"/><path d="M196.74,43.99c.36.17.87.53,1.1.14.18-.52-1.12-.22-1.76-2.36-1.01-4.2,2.98-12.02,7.58-13.87.21-.08.57-.11.54-.41-.24-.71-2.03.62-2.46.8-4.14,2.2-8.82,13.08-5,15.71Z" fill="#010101"/><path d="M193.69,39.24c-.3,3.99,1.29,5.82,1.76,5.51.33-.28-.17-.3-.67-1.51-.68-2.09-1.08-3.56.92-8.11.19-.4.44-.77.59-1.19.03-.39-.53-.37-.6-.03-.86,1.69-1.64,3.46-2,5.33Z" fill="#010101"/><path d="M171.52,34.36c4.44,1.83,6.45,3.35,6.74,2.72.29-.48-1.16-.76-1.47-1.01-2.33-1.22-4.73-2.1-5.17-2.29-.36-.03-.46.48-.11.58Z" fill="#010101"/><path d="M179.53,38.17c.33.31,3.01,1.45,3.62,1.7.15.06.33-.01.4-.15.31-.56-1.61-.83-3.68-1.98-.23-.06-.48.22-.34.43Z" fill="#010101"/><path d="M176.83,34.85c.53.19,4.37,1.52,4.81,1.52s.53-.59.14-.68c-3.95-1.12-3.92-1.04-4.69-1.36-.29-.08-.55.35-.26.52Z" fill="#010101"/></g></svg>