<?xml version="1.0" encoding="utf-8"?>
<!-- Generator: Adobe Illustrator 27.5.0, SVG Export Plug-In . SVG Version: 6.00 Build 0)  -->
<svg version="1.1" id="Layer_1" xmlns="http://www.w3.org/2000/svg" xmlns:xlink="http://www.w3.org/1999/xlink" x="0px" y="0px"
	 viewBox="0 0 2000 2000" style="enable-background:new 0 0 2000 2000;" xml:space="preserve">
<path d="M1945.56,1246.65c24.26-70.01,6.68-245.54-96.38-274.38c35.89-111.4-18.04-278.36-154.35-276.19
	c22.88-142.97-73.11-242.3-212.51-251.61c-9.24-80.88-60.19-161.38-137.7-191.56c-74.82-18.45-162.19-4.4-229.26,32.86
	c-104.57-154.14-313.82-93.43-392.32,14.93C580.46,209.51,409.18,380.11,423.39,486c-151.07-22.64-220.29,133.78-209,262.2
	C132.2,745.35,90.15,820.8,79.1,892.72c-8.71,36.81,9.14,73.27,4.25,109.87c-62.99,2.8-155.53,91.38,9.81,294.04
	c139.49,140.81,276.32,203.65,433.85,283.54c-9.55,18.65-17.51,38.72-23.13,58.77c-9.85,54.95,106.47,64.95,144.35,78.14
	c205.23,56.56,465.41,114.56,691.89,79.41c32.74-14.76,22.73-62.38,12.15-89.18c-7.49-18.93-40.05-13.17-38.11,8.02
	c-0.05,16.46,4.6,32.56,3.76,49.05c-82.66,0.81-165.74,8.04-248.29,3.21c-373.27-55.63-420.27-95.52-502.67-107.12
	c-45-5.51-18.08-37.13-7.79-64.31c149.9,73.25,284.88,113.76,296.97,114.38c6.53,11.11,10.75,23.45,26.85,19.83
	c50.5,44.18,1063.06-89.64,1115.25-387.86C2007.06,1303.76,1981.93,1260.91,1945.56,1246.65z M1914.06,1410.45
	c-138.77,152.94-631.64,274.65-927.67,290.53c235.13-111.99,604.94-207.59,845.66-376.72c19.47-17.1,45.51-24.93,64.81-41.8
	c10.3-24.42-21.12-23.95-34.06-12.24c-358.32,207.35-128.28,86.93-453,228.26c-465.02,144.62-549.08,302.02-3.88-138.89
	c213.85-148.51,395.75-327.16,384.3-351.23c-22.24-33.54-52.34,36.58-73.99,47.47c-153.41,166.94-376.51,309.48-692.5,554.59
	c230.69-274.2,453.8-592.63,540.04-706.62c88.62-123.63,102.24-135.28,81.46-144.82c-13.43-5.84-21.37,7.63-27.36,17.36
	c-0.26,0.51-527.96,710.06-596.33,784c37.88-74.7,402-945.33,423.44-1016.6c-1.43-12.22-18.65-16.46-26.35-7.48
	c-96.28,195.27-377.16,922.01-469.34,1083.56c-68.91,227.82,171.97-1158.99,178.56-1213.73c2.26-19.14-28.6-21.51-29.9-2.93
	c-2.21,38.78-60.36,308.73-81.95,470.2c-120.08,714.63-94.27,637.01-117.07,787.6C742.2,565.92,778.6,438,736.6,367.19
	c-14.57-15.66-33.84,3.63-22.86,19.96c24.72,101.68,44.52,656.69,146.41,1252.9c-44.92-45.9-290.31-771.91-290.48-772.42
	c-28.68-112.2-58.96-277.6-81.83-306.09c-8.77-8.96-26.66-2.85-25.38,10.35c54.93,130.32-12.1,153.54,307.93,958.8
	c-20.65-27.6-317.94-404.01-484.29-722.99c-7.11-28.98-45.83-21.91-30.97,6.99c35.52,73.06,71.43,145.81,113.82,215.23
	c294.01,423.26,254.84,378.46,415.69,575.29c-427.9-254.87-612.57-552.38-652.85-552.33c-10.25,0.14-17.31,12.99-10.44,21.08
	c105.98,108.86,158.24,210.69,382.38,371.55c141.83,102.06,51.82,63.34,324.05,226.78C626.26,1609.15,119.71,1372.2,48,1164.83
	c-40.37-137.95,45.46-123.47,59.38-134.05c24.39-22.5,3.68-59.3,6.28-87.77c0.12-75.23,27.89-177.18,122.44-161.74
	c63.13-13.16-55.9-127.88,107.52-251.49c51.08-34.9,119.85,24.08,119.57-31.17c-18.71-95.93,78.44-171.11,163.36-187.96
	c47.78-11.17,65.56,24.48,103.19,27.51c23.45-4.87,32.15-32,49.73-45.83c84.18-73.32,219.27-89.44,290.38-7.38
	c13.75,13.59,17.42,38.95,39.07,42.67c21.26,3.47,37.55-14.09,55.07-22.97c112.45-55.33,213.88-12.65,256.49,68.38
	c16.22,28.39,13.42,63,25.98,91.92c60.1,46.1,133.49-1.27,184.93,101.95c19.52,43.83,26.93,92.58,20.11,139.88
	c4.06,26.96,38.58,21.39,58.01,27.06c78.02,25.66,130.19,104.05,99.81,219.71c-2.94,11.84-12.07,24.13-4.61,36.22
	c8.35,14.05,26.53,16.45,39.81,23.87c50.96,26.25,74.14,119.52,67.83,188.58c0.26,23.88-24.2,51.4-10.29,64.52
	C1912.56,1287.31,2028.12,1273.89,1914.06,1410.45z"/>
</svg>
