<?xml version="1.0" encoding="utf-8"?>
<!-- Generator: Adobe Illustrator 27.5.0, SVG Export Plug-In . SVG Version: 6.00 Build 0)  -->
<svg version="1.1" id="Layer_1" xmlns="http://www.w3.org/2000/svg" xmlns:xlink="http://www.w3.org/1999/xlink" x="0px" y="0px"
	 viewBox="0 0 2000 2000" style="enable-background:new 0 0 2000 2000;" xml:space="preserve">
<path d="M606.55,893.29c14.62,5.89,45.1-29.84-58.41-29.8c-80.14,4.6-111.14,64.05-82.28,64.05c5.84,0,11.72-3.81,11.4-10.59
	C506.88,876.44,563.48,880.65,606.55,893.29z"/>
<path d="M651.39,962.98c24.71,3.79,31.73-23.85-6-22.28c-114.41,4.63-131.84,72.37-103.81,72.37
	C565.34,1013.07,531.31,963.67,651.39,962.98z"/>
<path d="M593.84,1106.65c19.5,1.17-1.5-14.44,107.86-39.88c7.42-0.64,16.46-5.31,13.62-14.12c-8.42-15.06-29.71-1.27-42.74-0.18
	C659.01,1053.73,552.11,1090.31,593.84,1106.65z"/>
<path d="M631.05,1177.1c-8.06,8.39,1.95,19.06,11.83,17.87c30-0.86,60.69-10.02,90.71-13.72c6.72,0.07,10.12-4.56,10.18-9.19
	c0.17-13.78-15.51-9.94-73.56-2.17C657.58,1173.41,642.17,1170.07,631.05,1177.1z"/>
<path d="M133.53,1083.38c12.09-1.54,18.98-28.42-21.05-17.31c-13.53,2.01-48.64,33.68-22.63,40.62
	C106.5,1106.42,106.2,1086.58,133.53,1083.38z"/>
<path d="M130.63,1147.02c7-3.17,14.47-5.14,21.64-7.93c11.43-4.58,6.51-20.79-5.25-19.88
	C88.54,1124.33,103.58,1165.52,130.63,1147.02z"/>
<path d="M132.72,1174.13c-12.94,3.42-18.28,26.42,27.46,26.46c9.69,1.33,17.88-10.53,10.58-18.19
	C161.28,1175.77,144.2,1172.72,132.72,1174.13z"/>
<path d="M266.24,1020.79c-42.09,1.72-59.19,28.67-43.91,37.22c9.88,4.99,14.41-5.34,21.14-10.03c9.89-5.05,23.33-3.56,31.51-11.49
	C280.19,1029.77,274.03,1020.9,266.24,1020.79z"/>
<path d="M301.85,1112.6c26.85,0,19.04-18.15,9.71-20.42c-70.09-12.03-70.2,23.11-51.26,23.11
	C268.13,1115.3,265.82,1112.6,301.85,1112.6z"/>
<path d="M277.64,1160.39c-15.51,1.29-11.01,21.33,2.85,18.81c5.76-0.31,17.34,0.69,26.19,0.69c42.03,0,36.8-28.62,9.44-22.32
	C303.29,1158.54,290.45,1159.06,277.64,1160.39z"/>
<path d="M326.01,1219.26c-37.88-0.19-60.74-24.11-67.93-6.84c-7.19,16.29,49.2,26.38,55.47,27.1
	C347.87,1245.96,347.62,1213.62,326.01,1219.26z"/>
<path d="M385.06,1001.13c9.44-4.41,22.19-2.15,29.77-9.74c4.27-5.51,0.39-13.74-5.77-15.84c-14.13-4.93-74.37,9.83-59.06,31.47
	C360.43,1017.93,373.66,1003.29,385.06,1001.13z"/>
<path d="M395.95,1077.28c7.18,15.12,26.73,5.02,40.55,2.32c11.52-3.86,38.05-6.64,23.67-24.06c-12.89-9.28-32.37,1.94-46.49,4.35
	C405.45,1062.31,391.98,1065.95,395.95,1077.28z"/>
<path d="M432.64,1160.81c-13.41,0.24-11.89,18.9,0.39,19.97c84.94,8.78,72.5-18.82,61-22.57
	C473.83,1156.2,453.05,1161.63,432.64,1160.81z"/>
<path d="M440.31,1233.78c-16.39-3.28-19.62,18.72-4.3,22.51c91.53,20.57,102.54-15.81,81.5-21.04
	C504.21,1232.11,506.06,1245.8,440.31,1233.78z"/>
<path d="M1912.61,812.78c-94.98,13.37-236.49-16.98-260.68-19.84c-112.08-6.28-371.44-75.33-380.07-77.43
	c-373.74-95.64-495.44-148.95-684.3-60.81c-93.29,45.33-129.64,132.13-121.47,157.23c-50.35,10.13-63.17,21.14-86.08,49.63
	c-6.52,8.93-16.61,31.69-17.53,48.09c-51.18-9.32-92.13,19.89-101.92,53.77c-48.89-13.61-102.81,23.71-105.95,55.89
	c-22.56-12.73-44.31-9.87-55.48-1.09c-35.42,7.04-50.52,27.26-60.75,60.08c-24.5-5.68-43.48,26.15-37.15,49.22
	c6.98,37.65,19.84,115.17,63.54,124.69c12.97-0.81,21.91-6.69,27.61-15.83c1.47,2.05,3.02,4.04,4.62,5.98
	c10.19,43.22,95.02,76.27,128.38,13.58c29.09,40.44,115.85,68.03,149.37,24.3c30.46,27.5,80.56,47.09,120.55,48.79
	c50.39,5,89.93-41.48,84.84-91.1c-1-49.27-71.84-279.22-195.18-322.33c2.15-45.87,36.61-59.28,47.67-73.1
	c118.78-59.61,320.21,67.66,350.27,293.69c5.01,53.64,45.79,130.95-135.09,150.8c-16.63,1.12-37.67,5.35-51.61-5.64
	c-23.78-15.54-30.75,20.28,10.06,26.39c42.76,4.56,91.83,2.85,131.93-12.62c12.94,24.98,62.08,77.41,120.12,91.92
	c187.53,38.5,781.13-295.38,931.29-369.08c49.14-25.03,66.69-18.69,149.42-77.13C2022.32,885.58,2026.52,809.67,1912.61,812.78z
	 M66.56,1227.18c-17.09-24.17-62.41-103.72-33.9-126.47C65.95,1120.94,81.79,1192.64,66.56,1227.18z M158.48,1266.26
	c-24.55-8.95-31.95-37.53-45.16-39.15c-3.18-4.75-8.22-10.7-13.9-11.33c6.15-40.1-16.13-102-41.44-126.21
	c7.6-9.6,10.3-30.37,19.48-37.33c16.51-12.92,30.68-13.28,37.41-15.47c8.44-2.75,18.33-5.5,31.34,5.48
	C187.3,1067.41,251.88,1288.01,158.48,1266.26z M273.51,1266.23c-11.33-12.13-25.22-21.37-36.79-33.44
	c-5.81-6.27,5.02-17.52-3.96-52.39c-20.18-126.26-60.31-135.63-55.42-148.26c1.85-5.98,0.04-12.61,3.31-18.28
	c5.62-17.72,74.6-57.76,116.26,2.59C380.31,1111.09,406.53,1335.86,273.51,1266.23z M492.07,1053.68
	c18.91,31.42,27.2,67.4,38.77,101.83c8.56,26.35,21.53,51.55,25.04,79.3c6.55,44.24-27.08,71.21-69.09,69.51
	c-32.82-3.13-67.05-25.44-103.24-39.32c25.66-60.23-6.25-238.35-99.88-291.73c10.87-34.24,35.89-36.51,48.46-43.15
	C389.1,912.32,459.81,1003.47,492.07,1053.68z M1917.89,926.93c-0.81,0.43-349,172.61-349.42,172.79
	c-279.61,152-240.49,108.56-400.16,191.68c-87.88,34.85-180.87,66.37-276.14,72.91c-68.51-6.39-95.27-30.24-133.51-78.81
	c39.47-22.43,63.39-62.17,52.84-126.74c-5.14-50.4-16.38-103.03-39.92-148.18c-27.79-40.42-49.32-86.19-85.21-120.29
	c-52.41-49.84-120.16-88.74-194.28-82.69c-2.28-54.7,126.08-196.67,363.67-162.64c210.76,41.3,585.63,162.87,889.46,189.73
	c156.23,23.93,155.37-2.54,206.52,7.31C2003.13,857.46,1941.98,912.13,1917.89,926.93z"/>
<path d="M726.55,757.94c-14.94-6.47-77.61-52.76-85.89-27.99c-0.88,10.52,11.59,11.48,18.94,14.39
	c160.71,64.87,300.09,338.1,264.77,484.94c-22.47,74.81-67.98,64.34-61.63,82.51c8.13,13.72,25.74,1.32,38.46-4.78
	C1034.8,1215.07,871.33,834.96,726.55,757.94z"/>
<path d="M937.65,954.79c-2.5-11.96-22.22-12.4-21.13,1.12c5.1,14.47,14.06,27.52,20.65,41.43c70.11,158.95,55.89,210.4,32.2,283.37
	c-17.35,42.21-34.84,42.94-23.27,52.82c16.47,10.91,71.95-52.99,61.61-192.44C995.14,1075.69,967.88,1013.84,937.65,954.79z"/>
<path d="M1778.87,950.28c-15.33,6.42-99.38,37.14-180.65,79.93c-10.69,8.64-61.49,18.59-51.25,35.35
	c10.12,22.04,80.52-31.35,235.63-95.15C1795.12,966.97,1791.41,949.21,1778.87,950.28z"/>
<path d="M1490.86,1088.55c-72.44,39.96-139.24,49.39-128.55,69.13c2.66,4.8,8.9,7.38,14.05,5.28
	c21.34-8.62,114.99-48.5,126.45-59.35C1507.8,1096.11,1499,1086.35,1490.86,1088.55z"/>
<path d="M1588.16,969.51c-26.81,11.04-25.76,8.29-163.98,47.42c-13.63,3.07-9.8,23.82,4.96,23.82c15.26,0,149.46-46.29,168.15-53.06
	C1607.36,981.72,1598.41,966.63,1588.16,969.51z"/>
</svg>
