<svg xmlns="http://www.w3.org/2000/svg" viewBox="0 0 32 32" id="Family-Outdoors-Slide--Streamline-Freehand" height="32" width="32">
  <desc>
    Family Outdoors Slide Streamline Icon: https://streamlinehq.com
  </desc>
  <title>family-outdoors-slide</title>
  <g>
    <path d="M32 27.813333333333333c-0.6399999999999999 -1.3333333333333333 -1.3333333333333333 -2.786666666666666 -2.0666666666666664 -4.1466666666666665 -0.31999999999999995 -0.5733333333333333 -0.6533333333333333 -1.1333333333333333 -1 -1.7066666666666666s-0.72 -1.1066666666666665 -1.1066666666666665 -1.6266666666666665c-0.8933333333333333 -1.2666666666666666 -1.8666666666666665 -2.44 -2.786666666666666 -3.6666666666666665a0.48 0.48 0 0 0 -0.24 -0.15999999999999998l0 -1.96c0 -1.3333333333333333 0 -2.7466666666666666 -0.06666666666666667 -4.373333333333333l0.6 -0.15999999999999998a0.4666666666666666 0.4666666666666666 0 0 0 0.3866666666666666 -0.5333333333333333s0 -0.07999999999999999 -0.06666666666666667 -0.12 0.13333333333333333 0 0.17333333333333334 0a0.4666666666666666 0.4666666666666666 0 0 0 0 -0.6666666666666666c-0.7599999999999999 -0.96 -1.5199999999999998 -1.9066666666666665 -2.3466666666666667 -2.8 -0.3466666666666667 -0.3866666666666666 -0.7066666666666667 -0.7466666666666667 -1.0933333333333333 -1.1066666666666665S21.69333333333333 4 21.333333333333332 3.706666666666666c-0.9466666666666665 -0.7466666666666667 -1.9466666666666665 -1.4133333333333333 -2.9333333333333336 -2.1333333333333333a0.3866666666666666 0.3866666666666666 0 0 0 -0.42666666666666664 0 0.36 0.36 0 0 0 -0.3466666666666667 0c-1.1199999999999999 0.8533333333333333 -2.213333333333333 1.76 -3.2666666666666666 2.6666666666666665S12.239999999999998 6.226666666666667 11.253333333333332 7.226666666666667l-1.2266666666666666 1.3333333333333333 -0.3866666666666666 0.41333333333333333a0.84 0.84 0 0 0 0 1 2.6666666666666665 2.6666666666666665 0 0 0 1.3333333333333333 0.8533333333333333A22.813333333333333 22.813333333333333 0 0 0 10.666666666666666 13.159999999999998l0 5.1866666666666665a0.39999999999999997 0.39999999999999997 0 0 0 -0.31999999999999995 0.12c-0.6666666666666666 0.6799999999999999 -1.3333333333333333 1.3333333333333333 -2.0266666666666664 2s-1.3333333333333333 1.3333333333333333 -2.0933333333333333 1.9466666666666665c-0.30666666666666664 0.26666666666666666 -0.6399999999999999 0.6533333333333333 -1 0.9733333333333333s-0.27999999999999997 0.36 -1.0666666666666667 0.39999999999999997a10.906666666666666 10.906666666666666 0 0 0 -2.5999999999999996 0.29333333333333333 2.1066666666666665 2.1066666666666665 0 0 0 -1.2666666666666666 1.04 4.386666666666667 4.386666666666667 0 0 0 -0.30666666666666664 1.16 10.36 10.36 0 0 0 0 1.5733333333333333l0 0.7733333333333332a0.88 0.88 0 0 0 0.3333333333333333 0.6 2.1466666666666665 2.1466666666666665 0 0 0 0.8533333333333333 0.3866666666666666 7.253333333333334 7.253333333333334 0 0 0 1.0666666666666667 0.12l1.3333333333333333 0c0.44 0 1.3333333333333333 0 1.9333333333333331 -0.10666666666666666l1.4133333333333333 0a2.893333333333333 2.893333333333333 0 0 0 0.72 -0.12 1.2133333333333334 1.2133333333333334 0 0 0 0.44 -0.24c0.26666666666666666 -0.22666666666666668 0.5866666666666667 -0.6266666666666666 0.7599999999999999 -0.7866666666666666 0.41333333333333333 -0.41333333333333333 0.8266666666666667 -0.8533333333333333 1.24 -1.3333333333333333l0.5866666666666667 -0.5866666666666667v0.6799999999999999c0 0.7333333333333334 0.10666666666666666 1.44 0.18666666666666668 2.173333333333333a0.48 0.48 0 0 0 0.45333333333333337 0.4933333333333333 0.48 0.48 0 0 0 0.48 -0.45333333333333337c0.10666666666666666 -0.7466666666666667 0.27999999999999997 -1.4666666666666668 0.37333333333333335 -2.213333333333333a9.333333333333332 9.333333333333332 0 0 0 0.07999999999999999 -1.4933333333333334A8.466666666666665 8.466666666666665 0 0 0 12 24.21333333333333c0.45333333333333337 0.06666666666666667 0.96 0.07999999999999999 1.24 0.10666666666666666 0.6799999999999999 0 1.3333333333333333 0.09333333333333334 2.0266666666666664 0.10666666666666666l3.0133333333333328 0 2.413333333333333 0a13.986666666666666 13.986666666666666 0 0 0 1.6533333333333333 -0.12 10.493333333333332 10.493333333333332 0 0 0 1.1199999999999999 0c-0.07999999999999999 0.4666666666666666 -0.17333333333333334 0.9333333333333332 -0.22666666666666668 1.4a8.426666666666666 8.426666666666666 0 0 0 -0.07999999999999999 1l0 1.0266666666666666c0 0.7999999999999999 0.14666666666666667 1.5866666666666664 0.26666666666666666 2.3866666666666667a0.4666666666666666 0.4666666666666666 0 0 0 0.48 0.45333333333333337 0.48 0.48 0 0 0 0.45333333333333337 -0.4933333333333333c0 -0.7866666666666666 0.21333333333333332 -1.5733333333333333 0.29333333333333333 -2.373333333333333a12.879999999999999 12.879999999999999 0 0 0 0.09333333333333334 -1.5999999999999999 17.57333333333333 17.57333333333333 0 0 0 -0.30666666666666664 -2.6666666666666665 4.1066666666666665 4.1066666666666665 0 0 0 0.3333333333333333 -1.1199999999999999 19.386666666666663 19.386666666666663 0 0 0 0 -3.36l0 -0.84c0.6533333333333333 1.2133333333333334 1.3333333333333333 2.44 2.04 3.6399999999999997 0.5333333333333333 0.8933333333333333 1.1199999999999999 1.76 1.6933333333333334 2.6666666666666665 0.8666666666666667 1.3333333333333333 1.76 2.5866666666666664 2.5733333333333333 3.92a0.4666666666666666 0.4666666666666666 0 0 0 0.6266666666666666 0.19999999999999998 0.48 0.48 0 0 0 0.29333333333333333 -0.7333333333333334ZM12.32 8.213333333333333c0.8933333333333333 -1.0533333333333332 1.8133333333333335 -2.0933333333333333 2.786666666666666 -3.093333333333333s1.88 -1.88 2.8666666666666663 -2.76c0.9066666666666667 0.9466666666666665 1.7466666666666666 1.92 2.6666666666666665 2.8266666666666667 0.5866666666666667 0.5733333333333333 1.2 1.1066666666666665 1.8 1.6533333333333333 0.8666666666666667 0.7466666666666667 1.7333333333333334 1.48 2.5733333333333333 2.2666666666666666 -1.7733333333333334 0.18666666666666668 -3.533333333333333 0.3333333333333333 -5.333333333333333 0.39999999999999997s-3.6666666666666665 0.07999999999999999 -5.52 0a16 16 0 0 1 -2.373333333333333 -0.12L11.373333333333331 9.333333333333332ZM9.333333333333332 26.453333333333333c-0.39999999999999997 0.41333333333333333 -0.8266666666666667 0.8133333333333332 -1.2533333333333332 1.1866666666666665l-0.7466666666666667 0.6933333333333334a2.44 2.44 0 0 1 -0.4666666666666666 0l-1.3333333333333333 0 -1.8666666666666665 0c-0.39999999999999997 0 -0.7999999999999999 0 -1.2133333333333334 -0.09333333333333334a6.666666666666666 6.666666666666666 0 0 1 -0.72 -0.09333333333333334 0.36 0.36 0 0 1 -0.15999999999999998 0l0 -0.2533333333333333 0 -1.1466666666666665a3.173333333333333 3.173333333333333 0 0 1 0.21333333333333332 -0.9333333333333332 0.39999999999999997 0.39999999999999997 0 0 1 0.24 -0.15999999999999998 3.813333333333333 3.813333333333333 0 0 1 0.6399999999999999 -0.24c0.6133333333333333 -0.10666666666666666 1.3333333333333333 -0.13333333333333333 1.6666666666666665 -0.17333333333333334s0.45333333333333337 0 0.6666666666666666 0a0.96 0.96 0 0 0 0.36 -0.13333333333333333 2.786666666666666 2.786666666666666 0 0 0 0.6799999999999999 -0.5333333333333333c0.3866666666666666 -0.3866666666666666 0.7599999999999999 -0.88 1.08 -1.2266666666666666L10.666666666666666 19.386666666666663l0 0.5333333333333333 0 2.44a5.933333333333334 5.933333333333334 0 0 0 0 0.8666666666666667 0.84 0.84 0 0 0 0.19999999999999998 0.45333333333333337l0.07999999999999999 0c0 0.44 -0.12 0.88 -0.18666666666666668 1.3333333333333333a0.41333333333333333 0.41333333333333333 0 0 0 -0.19999999999999998 0.10666666666666666c-0.39999999999999997 0.4933333333333333 -0.7866666666666666 0.9199999999999999 -1.2266666666666666 1.3333333333333333Zm14.093333333333334 -4.84a4.199999999999999 4.199999999999999 0 0 1 -0.24 1.08 4.826666666666666 4.826666666666666 0 0 0 -1.0533333333333332 0.12c-0.52 0 -1.0133333333333332 0.06666666666666667 -1.5199999999999998 0.07999999999999999l-2.36 0 -4.92 -0.10666666666666666c-0.21333333333333332 0 -0.8266666666666667 0.09333333333333334 -1.1866666666666665 0.06666666666666667a3.1333333333333333 3.1333333333333333 0 0 0 0 -0.52L12 20c0 -2.2399999999999998 -0.27999999999999997 -4.533333333333333 -0.31999999999999995 -6.8133333333333335a20 20 0 0 1 0.09333333333333334 -2.1866666666666665 20.866666666666667 20.866666666666667 0 0 0 2.4 0.10666666666666666c1.893333333333333 0 3.76 -0.13333333333333333 5.626666666666666 -0.30666666666666664 1.3333333333333333 -0.13333333333333333 2.5866666666666664 -0.30666666666666664 3.88 -0.4933333333333333l-0.12 8.653333333333332a23.173333333333332 23.173333333333332 0 0 1 -0.10666666666666666 2.6533333333333333Z" fill="currentColor" fill-rule="evenodd" stroke-width="1.3333"></path>
    <path d="M20.266666666666666 15.12a3.253333333333333 3.253333333333333 0 0 0 -0.9866666666666666 -1.3333333333333333 2.6666666666666665 2.6666666666666665 0 0 0 -2.6666666666666665 -0.45333333333333337 3.6799999999999997 3.6799999999999997 0 0 0 -2.1466666666666665 2.8666666666666663 6.666666666666666 6.666666666666666 0 0 0 0 1.2666666666666666c0 0.6 0.10666666666666666 1.2 0.15999999999999998 1.7733333333333334a0.3866666666666666 0.3866666666666666 0 0 0 0.3333333333333333 0.3866666666666666 0.45333333333333337 0.45333333333333337 0 0 0 0.3866666666666666 0.15999999999999998l3.533333333333333 -0.12a12.666666666666666 12.666666666666666 0 0 0 1.3333333333333333 -0.06666666666666667 0.8133333333333332 0.8133333333333332 0 0 0 0.5333333333333333 -0.41333333333333333 1.72 1.72 0 0 0 0.14666666666666667 -0.7999999999999999 10.013333333333332 10.013333333333332 0 0 0 -0.12 -1.1866666666666665 7.786666666666666 7.786666666666666 0 0 0 -0.5066666666666666 -2.08Zm-1.4933333333333334 3.2933333333333334 -3.333333333333333 0.41333333333333333 0 -1.3333333333333333a5.746666666666666 5.746666666666666 0 0 1 0.17333333333333334 -1.0666666666666667 2.5466666666666664 2.5466666666666664 0 0 1 1.1866666666666665 -1.5466666666666664 1.3333333333333333 1.3333333333333333 0 0 1 1.5066666666666664 0.15999999999999998 1.7333333333333334 1.7333333333333334 0 0 1 0.4933333333333333 0.72 6.866666666666667 6.866666666666667 0 0 1 0.44 1.5733333333333333l0.15999999999999998 0.84c-0.2533333333333333 0.10666666666666666 -0.5599999999999999 0.22666666666666668 -0.6266666666666666 0.24Z" fill="currentColor" fill-rule="evenodd" stroke-width="1.3333"></path>
  </g>
</svg>