<?xml version="1.0" encoding="utf-8"?>
<!-- Generator: Adobe Illustrator 27.5.0, SVG Export Plug-In . SVG Version: 6.00 Build 0)  -->
<svg version="1.1" id="Layer_1" xmlns="http://www.w3.org/2000/svg" xmlns:xlink="http://www.w3.org/1999/xlink" x="0px" y="0px"
	 viewBox="0 0 2000 2000" style="enable-background:new 0 0 2000 2000;" xml:space="preserve">
<path d="M1904.25,1638.65c-248.89-158.65-201.53-149.99-323.24-269.07c-79.98-89.93-151.5-203.43-158.04-212.27
	c-13.7-18.32-29.14-35.25-42.69-53.69c-20.42-27.86-30.81-39.46-58.08-54.64c31.23-21.39,357.86-210.43,408.24-249.86
	c47.86-31.62,222.39-168.53,161.17-184.23c-41.67-4.06-84.88,9.96-124.57,21.67c-45.93,15.22-160.14,30.91-340.5,96.23
	c-64.64,15.79-127.37,37.67-191.07,56.75c-36.93,11.49-75.67,16.4-112.05,29.79c-1.02-3.46-12.44-19.86-19.89-33.62
	C968.05,561.04,898.83,312.72,784.3,93.77C763.94,61.76,748,23.24,714.55,2.64C647.1-21.23,663.74,123.73,666,161.22
	c2.26,32.74,135.16,624.27,173.97,705.07c-9.73,6.71-1.34-0.59-103.62,57.43c-439.34,192.14-577.39,218.11-648.95,298.96
	c-23.25,23.45-0.37,42.85,24.81,45.94c47.94,9.11,73,20.48,244.14-13.98c47.27-11.53,485.34-85.5,532.28-98.28
	c-99.53,241.77-93.84,679.7-79.77,730.75c10.13,31.41,25.62,112.9,78.74,112.9c51.03,0,62.35-99.41,93.17-173.72
	c56.73-164.9,96.21-345.28,170.23-506.26c38.22,44.89,83.24,95.51,196.84,160.75c20.24,14.15,264.81,169.22,338.7,201.19
	c68.61,28.13,140,41.42,176.85,41.41C1908.09,1723.37,1945.94,1672.71,1904.25,1638.65z M1896.58,1695.15
	c-49.73,39.23-212.86-27.19-268.48-60.37c-14.75-6.93-164.53-99.44-164.74-99.58c-177.38-114.45-176.72-96.86-290.04-211.13
	c-9.02-8.27-18.1-26.03-26.69-22.42c-25.5,1.94-112.57,306.29-212.15,608.82c-13.19,51.65-44.06,115.51-85.65,39.79
	c-58.7-92.13-20.97-433.72-6.49-565.65c38.09-181.77,63.04-225.86,63.75-233.89c5.12-4.28-0.83-13.69-7.76-11.12
	c-24.53,7.44-0.35,0.08-578.25,107.66c-46,8.97-92.86,18.47-139.9,17.16c-28.54-5.27-63.18,0.55-86.93-18.46
	c-10.73-70.76,579.58-256.12,714.47-345.3c10.56-5.25,46.23-26.78,48.84-31.74c1.93-4.39-2.78-8.5-6.98-8.07
	c-9.12-21.51-110.6-385.73-167.73-705.73c-5.58-24.77-7.44-123.84,12.58-139.12c77.72-0.92,216.2,437.2,288.78,568.08
	c9.3,21.64,114.99,251.29,138.39,248.57c339.51-87.8,387.34-124.88,588.5-166.14c30.76-9.92,61.97-17.74,93.62-24.13
	c27.81-4.63,56.71-19.71,85-12.67c-4.66,21.16-23.56,34.39-38.4,48.57c-89.81,98.03-226.27,167.04-376.8,262.85
	c-217.77,126.61-189.06,96.62-138.22,136.77c72.17,60.46,115.24,190.77,335.25,409.84c56.93,55.61,163.67,126.98,163.87,127.1
	c20.48,11.45,42.78,20.19,60.15,36.43C1909.48,1661.97,1908.64,1682.61,1896.58,1695.15z"/>
<path d="M765.38,1115.05c-77.92,7.25-116.59,37.17-162.54,44.14c-19.64,5.29-39.46-0.31-59.33-0.74
	c-50.9-1-142.58,40.95-193.3,36.57c-52.27-4.5-47.33,7.82-92.35,25.98c-50.09,15.3-87.8-4.83-88.83,13.82
	c1.08,3.04,3.48,3.75,6.24,3.75c154.66,0,78.21-35.37,170.54-31.95c49.9,1.85,65.56-9.57,112.6-21.89
	c108.86-29.85,115-2.93,162.22-18.23c46.75-13.15,91.49-36.34,140.78-38.02c3.59-0.2,7.22,0.02,10.78-0.55
	C784.64,1123.06,777.31,1111.83,765.38,1115.05z"/>
<path d="M879.45,1090.72c-7.69,2.99-69.76,6.13-53.11,20.73c18.04,1.54,36.41-6.27,54.29-9.04
	C888.37,1101.37,887.66,1089.37,879.45,1090.72z"/>
<path d="M755.56,300.23c-0.05-0.19-17.82-72.21-26.5-118.33c-10.85-29.36-18.04-61.8-9.42-92.71c4.53-10.1-5.14-17.77-10.97-7.52
	c-14.57,44.63-1.86,80.89,11.44,123.55c6.39,33.23,13.67,66.12,24.16,98.36C746.27,310.62,757.25,306.85,755.56,300.23z"/>
<path d="M767.95,378.63c-0.16-7.14-9.06-12.91-13.14-5.16c1.38,56.03,12.37,85.27,26.67,141.66c1.92,6.97,12.88,3.31,11.21-3.33
	C778.69,443.07,772.05,426.2,767.95,378.63z"/>
<path d="M830.15,627.89c-3.22-7.82-3.3-22.92-13.27-24.93c-11.8,2.47-3.15,6.29,21.85,107.57c18.9,62.58,15.87,76.11,45.26,175.85
	c1.96,6.87,12.7,3.21,11.03-3.28C857.77,753.23,866.53,740.81,830.15,627.89z"/>
<path d="M938.58,1102.09c-4.04-1.28-10.3,0.88-8.94,5.99c3.45,7.34,12.42,3.79,10.59,15.88c-3.57,33.46-26.25,71.4-27.93,158.96
	c-7.28,53.8-25.19,16.51-59.35,207.04c-12.58,42.98-17.62,87.35-12.34,131.95c0.53,106.75-5.41,120.79,4.84,120.79
	c9,0,3.29-23.95,4.87-31.2c-0.71-16.11,2.05-32.06,1.44-48.14c-5.41-131.77-0.84-101.41,11.08-171.54
	c10.62-38.12,15.3-77.74,26.49-115.66c8.76-26.87,25.35-51.54,31.38-79.41c7.2-28.13,4.71-57.57,10.19-85.97
	C939.57,1173.05,969.6,1106.97,938.58,1102.09z"/>
<path d="M842.72,1816.27c-6.54,2.7-1.65,11.07-2.05,16.36c1.41,27.89,3.62,55.72,9.03,83.21c1.02,7.46,13.59,6.69,12.71-1.08
	C852.91,1862.07,857.35,1811.24,842.72,1816.27z"/>
<path d="M1501.74,1527.41c-57.54-31.85-72.76-56.88-89.63-71.36c-25-22.84-53.59-40.9-80.47-61.23
	c-25.53-19.29-48.98-44.36-78.93-57.4c-31.68-14.74-54.06-42.36-78.2-66.54c-26.53-21.61-55.33-7.35-64.06,23.66
	c-0.85,3.04-3.26,5.43-3.95,8.45c0.08,8.46,10.98,5.72,12.41-0.82c26.72-76.24,71.89,12.41,105.3,32.47
	c31.82,14.4,59.07,36.25,85.3,59.09c172.09,122.73,91.19,87.54,186.94,141.91C1502,1538.97,1507.62,1530.6,1501.74,1527.41z"/>
<path d="M1813.61,1672.27c-96.71-23.54-262.36-126.92-266.39-127.71c-4.01-0.68-7.66,3.69-5.36,7.31
	c53.29,42.29,248.27,131.06,270.41,131.06C1818.13,1682.93,1820.37,1673.89,1813.61,1672.27z"/>
<path d="M1390.72,955.55c76.28-38.9,96.63-59.65,117.72-69.99c170.58-87.55,115.04-74.65,177.97-110.23
	c22.93-11.42,43.93-26.04,65.75-39.31c8.45-4.31,110.1-58.94,81.87-66.21c-8,1.12,2.38,3.48-50.69,34.78
	c-33.34,20.46-67.44,39.67-100.73,60.24c-35.46,19.74-63.78,48.94-98.51,69.76c-52.52,23.75-101.68,53.48-150.31,84.14
	c-25.11,13.49-50.92,25.48-73.84,42.71c-4.22,4.61-21.67,9.78-16.74,17.44C1349.55,986.47,1355.45,972.63,1390.72,955.55z"/>
<path d="M1244.82,1048.43c5.36,4.41,9.13-1.5,13.02-5.64c38.94-34.03,63.25-40.98,52.9-49.45c-5.85-4.38-11.13,3.52-16.1,5.96
	C1284.84,1007.75,1233.52,1033.75,1244.82,1048.43z"/>
<path d="M1279.94,811.18c4.86-2.86,0.94-10.34-4.08-9.46c-104.29,28.02-179.99,74.71-205.97,61.43
	c-8.91-11.42-14.44-25.33-23.89-36.53c-4.19-6.03-13.87-0.28-9.26,5.99c14.79,18.43,18.82,46.91,48.49,44.4
	c23.43,1.06,44.65-10.96,65.5-20.07C1193.52,840.99,1237.11,827,1279.94,811.18z"/>
</svg>
