<svg xmlns="http://www.w3.org/2000/svg" viewBox="0 0 32 32" id="Presentation-Audience--Streamline-Freehand" height="32" width="32">
  <desc>
    Presentation Audience Streamline Icon: https://streamlinehq.com
  </desc>
  <g>
    <path d="M8.2 27.706666666666667c-0.5733333333333333 -0.18666666666666668 -0.48 -0.10666666666666666 -0.39999999999999997 -0.17333333333333334a3.786666666666666 3.786666666666666 0 0 0 0.5599999999999999 -5.08c-0.5599999999999999 -0.6399999999999999 -1.9333333333333331 -1.3333333333333333 -2.12 -0.6a0.45333333333333337 0.45333333333333337 0 0 0 0.3466666666666667 0.5333333333333333c1.7333333333333334 0.41333333333333333 1.7333333333333334 3.0533333333333332 0.36 4a2.92 2.92 0 0 1 -2.4 0.27999999999999997c-2.48 -0.5466666666666666 -2.0533333333333332 -4.96 1.3333333333333333 -4.72a0.3866666666666666 0.3866666666666666 0 0 0 0 -0.7733333333333332 3.6133333333333333 3.6133333333333333 0 0 0 -2.786666666666666 6.453333333333333 4.359999999999999 4.359999999999999 0 0 0 -1.9066666666666665 1.48 3.36 3.36 0 0 0 -0.5733333333333333 2.5199999999999996 0.39999999999999997 0.39999999999999997 0 0 0 0.7866666666666666 0 2.4266666666666667 2.4266666666666667 0 0 1 0.4666666666666666 -1.0133333333333332 24.813333333333333 24.813333333333333 0 0 1 1.8666666666666665 -2.013333333333333l0.5466666666666666 -0.39999999999999997a5.013333333333333 5.013333333333333 0 0 0 2.333333333333333 0 5.933333333333334 5.933333333333334 0 0 1 2.36 2.3466666666666667 7.773333333333333 7.773333333333333 0 0 1 0.5866666666666667 1.1333333333333333 0.44 0.44 0 0 0 0.8666666666666667 -0.18666666666666668 3.9066666666666667 3.9066666666666667 0 0 0 -2.2266666666666666 -3.786666666666666Z" fill="currentColor" fill-rule="evenodd" stroke-width="1.3333"></path>
    <path d="M18.666666666666664 27.706666666666667c-0.5733333333333333 -0.18666666666666668 -0.48 -0.10666666666666666 -0.39999999999999997 -0.17333333333333334a3.786666666666666 3.786666666666666 0 0 0 0.5599999999999999 -5.08c-0.5599999999999999 -0.6399999999999999 -1.9333333333333331 -1.3333333333333333 -2.12 -0.6a0.45333333333333337 0.45333333333333337 0 0 0 0.3466666666666667 0.5333333333333333c1.7333333333333334 0.41333333333333333 1.7333333333333334 3.0533333333333332 0.36 4a2.92 2.92 0 0 1 -2.4 0.27999999999999997c-2.493333333333333 -0.5466666666666666 -2.04 -4.96 1.2666666666666666 -4.72a0.3866666666666666 0.3866666666666666 0 0 0 0.06666666666666667 -0.7733333333333332 3.6133333333333333 3.6133333333333333 0 0 0 -2.786666666666666 6.453333333333333 4.253333333333333 4.253333333333333 0 0 0 -1.9066666666666665 1.44 3.36 3.36 0 0 0 -0.5733333333333333 2.5199999999999996 0.39999999999999997 0.39999999999999997 0 0 0 0.7866666666666666 0 4.453333333333333 4.453333333333333 0 0 1 1.3333333333333333 -2.013333333333333 6.0266666666666655 6.0266666666666655 0 0 1 1.4666666666666668 -1.4 5.013333333333333 5.013333333333333 0 0 0 2.333333333333333 0 4.68 4.68 0 0 1 1.8266666666666667 1.6133333333333333A7.346666666666666 7.346666666666666 0 0 1 20 31.599999999999998a0.44 0.44 0 0 0 0.8666666666666667 -0.18666666666666668A3.9066666666666667 3.9066666666666667 0 0 0 18.666666666666664 27.706666666666667Z" fill="currentColor" fill-rule="evenodd" stroke-width="1.3333"></path>
    <path d="M31.426666666666666 31.41333333333333A4.346666666666666 4.346666666666666 0 0 0 29.839999999999996 28a3.36 3.36 0 0 0 -1.1066666666666665 -0.42666666666666664c2.08 -1.6133333333333333 1.8133333333333335 -5.493333333333333 -0.96 -6.053333333333333a0.44 0.44 0 0 0 -0.18666666666666668 0.8666666666666667c2.16 0.52 1.9333333333333331 5.1866666666666665 -2.04 4.32 -2.48 -0.5466666666666666 -2.0533333333333332 -4.96 1.2666666666666666 -4.72a0.3866666666666666 0.3866666666666666 0 0 0 0.07999999999999999 -0.7733333333333332 3.6133333333333333 3.6133333333333333 0 0 0 -2.8 6.453333333333333 5.333333333333333 5.333333333333333 0 0 0 -1.2133333333333334 0.7066666666666667 3.44 3.44 0 0 0 -1.2666666666666666 3.253333333333333 0.39999999999999997 0.39999999999999997 0 0 0 0.7866666666666666 0 4.453333333333333 4.453333333333333 0 0 1 1.3333333333333333 -2.013333333333333 6.506666666666666 6.506666666666666 0 0 1 1.5999999999999999 -1.44 5 5 0 0 0 2.333333333333333 0 4.613333333333333 4.613333333333333 0 0 1 1.8399999999999999 1.6133333333333333 7.799999999999999 7.799999999999999 0 0 1 1.1066666666666665 1.8666666666666665 0.44 0.44 0 0 0 0.8133333333333332 -0.24Z" fill="currentColor" fill-rule="evenodd" stroke-width="1.3333"></path>
    <path d="M25.906666666666666 12.813333333333333c0 -0.9733333333333333 2.2666666666666666 -4.453333333333333 0.27999999999999997 -5.333333333333333 -0.10666666666666666 0 -2.6666666666666665 -1.24 -2.786666666666666 -1.2533333333333332 -0.5066666666666666 0 -0.7066666666666667 0.5599999999999999 -0.06666666666666667 1.0266666666666666s2.12 1.3333333333333333 2.1999999999999997 1.44 -0.6266666666666666 2.6666666666666665 -0.5599999999999999 3.92c-0.4666666666666666 -0.13333333333333333 -11.306666666666667 0.27999999999999997 -14.373333333333331 0.14666666666666667s-3.8666666666666663 -0.07999999999999999 -3.6666666666666665 3.093333333333333c0 0.14666666666666667 0 0.7066666666666667 0.07999999999999999 0.88 -0.26666666666666666 0.5066666666666666 2.6666666666666665 0.6266666666666666 2.5066666666666664 0.6266666666666666a11.226666666666667 11.226666666666667 0 0 0 1.04 5.626666666666666 0.44 0.44 0 0 0 0.8666666666666667 -0.18666666666666668c-0.07999999999999999 -0.7333333333333334 -0.10666666666666666 -1.6133333333333333 -0.21333333333333332 -2.48A15.733333333333334 15.733333333333334 0 0 0 10.386666666666667 17.333333333333332c2.48 0 9.573333333333332 0.22666666666666668 12.08 0.41333333333333333a10.106666666666666 10.106666666666666 0 0 0 -1.1333333333333333 2.8533333333333335c-0.41333333333333333 1.9333333333333331 -0.6399999999999999 2.293333333333333 0 2.48 0.10666666666666666 0 0.30666666666666664 0 0.5066666666666666 -0.21333333333333332l0.2533333333333333 -0.45333333333333337a9.733333333333333 9.733333333333333 0 0 0 1.3333333333333333 -4.573333333333333c0.6399999999999999 0.12 1.6533333333333333 0.36 2.1466666666666665 0s0.37333333333333335 -1.5466666666666664 0.5066666666666666 -2.0666666666666664c0.22666666666666668 -1.1066666666666665 0.7333333333333334 -2.44 -0.17333333333333334 -2.96Zm-1.3333333333333333 3.5599999999999996c-0.12 0 -12.76 -0.15999999999999998 -15.04 0a11.866666666666667 11.866666666666667 0 0 1 -1.6266666666666665 -0.12 1.4533333333333334 1.4533333333333334 0 0 0 0 -0.5733333333333333v-1.893333333333333a30.133333333333333 30.133333333333333 0 0 1 4 0.18666666666666668c2.3866666666666667 0 5.333333333333333 -0.36 8 -0.36 0.10666666666666666 0 5.333333333333333 0.18666666666666668 5.333333333333333 0.27999999999999997s-0.8133333333333332 1.2 -0.6933333333333334 2.48Z" fill="currentColor" fill-rule="evenodd" stroke-width="1.3333"></path>
    <path d="M8.28 8.733333333333333A16.266666666666666 16.266666666666666 0 0 1 7.266666666666667 4a2.9466666666666663 2.9466666666666663 0 0 1 0.2533333333333333 -1.5333333333333332c0.14666666666666667 0.27999999999999997 0.29333333333333333 0.8533333333333333 0.39999999999999997 1.0266666666666666a38.38666666666666 38.38666666666666 0 0 0 3.333333333333333 4.586666666666666c0.31999999999999995 0.3333333333333333 0.7333333333333334 0.6933333333333334 1.1333333333333333 0.45333333333333337 1.3333333333333333 -0.7733333333333332 2.293333333333333 0 4 0.09333333333333334a5.586666666666667 5.586666666666667 0 0 0 -0.19999999999999998 2.96c0 0.18666666666666668 0.48 0.7866666666666666 0.7866666666666666 0.21333333333333332A5.333333333333333 5.333333333333333 0 0 0 17.333333333333332 8.613333333333333a5.1066666666666665 5.1066666666666665 0 0 0 0.9199999999999999 -0.17333333333333334 5.746666666666666 5.746666666666666 0 0 1 3.546666666666667 3.2933333333333334c0.07999999999999999 0.3866666666666666 1.0933333333333333 0.48 1.0933333333333333 -0.12a4 4 0 0 0 -2.6666666666666665 -3.3866666666666667c-1.1199999999999999 -0.41333333333333333 -1.0133333333333332 -0.14666666666666667 -0.5599999999999999 -0.52a4.653333333333333 4.653333333333333 0 0 0 1 -5.706666666666667C20.293333333333333 1.3333333333333333 19.25333333333333 0.30666666666666664 18.85333333333333 0.9733333333333333a0.45333333333333337 0.45333333333333337 0 0 0 0.15999999999999998 0.6133333333333333c2.28 1.44 1.3333333333333333 6.56 -3.2933333333333334 5.4399999999999995a2.7733333333333334 2.7733333333333334 0 0 1 -2.08 -2.6666666666666665 0.41333333333333333 0.41333333333333333 0 0 0 0.31999999999999995 0.22666666666666668 4.4399999999999995 4.4399999999999995 0 0 0 4.1466666666666665 -0.8666666666666667 9.16 9.16 0 0 0 1.16 0.8133333333333332 0.44 0.44 0 0 0 0.5866666666666667 -0.6666666666666666c-0.3333333333333333 -0.37333333333333335 -0.72 -1.1066666666666665 -0.9466666666666665 -1.4133333333333333 -0.8133333333333332 -1.0266666666666666 -2.293333333333333 0.7866666666666666 -3.6399999999999997 1.16s-1.4666666666666668 0 -1.6266666666666665 0.42666666666666664A3.2133333333333334 3.2133333333333334 0 0 1 17.333333333333332 0.8266666666666667a0.39999999999999997 0.39999999999999997 0 0 0 0.09333333333333334 -0.8266666666666667 4.426666666666666 4.426666666666666 0 0 0 -4.693333333333333 6.3999999999999995c0.6399999999999999 1.3333333333333333 1.04 0.5333333333333333 -0.52 1.08a31.346666666666668 31.346666666666668 0 0 1 -3.0399999999999996 -4.693333333333333A5.426666666666667 5.426666666666667 0 0 0 8.173333333333332 1.1466666666666665 1.1199999999999999 1.1199999999999999 0 0 0 6.666666666666666 1.24 3.333333333333333 3.333333333333333 0 0 0 5.773333333333333 4a13.96 13.96 0 0 0 1.3333333333333333 5.1466666666666665 7.386666666666667 7.386666666666667 0 0 0 3.1999999999999997 3.28c0.30666666666666664 0.19999999999999998 0.9466666666666665 -0.12 0.6799999999999999 -0.48 -0.5599999999999999 -0.7599999999999999 -2.213333333333333 -1.6266666666666665 -2.706666666666666 -3.2133333333333334Z" fill="currentColor" fill-rule="evenodd" stroke-width="1.3333"></path>
  </g>
</svg>