<svg xmlns="http://www.w3.org/2000/svg" viewBox="0 0 32 32" id="Family-Outdoors-Swing-Tree--Streamline-Freehand" height="32" width="32">
  <desc>
    Family Outdoors Swing Tree Streamline Icon: https://streamlinehq.com
  </desc>
  <title>family-outdoors-swing-tree</title>
  <g>
    <path d="M2.6666666666666665 31.08a0.41333333333333333 0.41333333333333333 0 0 0 -0.39999999999999997 0.44 0.41333333333333333 0.41333333333333333 0 0 0 0.42666666666666664 0.39999999999999997l11.12 0c2.04 0 4.093333333333333 0.06666666666666667 6.133333333333333 0.09333333333333334l9.253333333333334 0a0.48 0.48 0 1 0 0 -0.9466666666666665c-3.5866666666666664 -0.17333333333333334 -7.173333333333333 -0.4933333333333333 -10.76 -0.6533333333333333a99.54666666666665 99.54666666666665 0 0 0 -15.773333333333333 0.6666666666666666Z" fill="currentColor" fill-rule="evenodd" stroke-width="1.3333"></path>
    <path d="M28.839999999999996 16.2a6.973333333333334 6.973333333333334 0 0 0 1.7733333333333334 -4A4.653333333333333 4.653333333333333 0 0 0 28.85333333333333 8a6.746666666666666 6.746666666666666 0 0 0 -1.08 -0.6799999999999999 6.84 6.84 0 0 0 -1.1866666666666665 -0.4666666666666666 0.8533333333333333 0.8533333333333333 0 0 1 -0.2533333333333333 -0.18666666666666668 5.333333333333333 5.333333333333333 0 0 0 -0.06666666666666667 -0.9199999999999999 6.826666666666666 6.826666666666666 0 0 0 -0.18666666666666668 -0.9066666666666667 7.066666666666666 7.066666666666666 0 0 0 -2.2266666666666666 -3.466666666666667 5.586666666666667 5.586666666666667 0 0 0 -4 -1.4133333333333333 5.946666666666666 5.946666666666666 0 0 0 -1.2 0.21333333333333332 19.666666666666664 19.666666666666664 0 0 1 -3.6933333333333334 1.3333333333333333c-0.09333333333333334 0 -0.21333333333333332 -0.09333333333333334 -0.36 -0.14666666666666667s-0.48 -0.18666666666666668 -0.72 -0.29333333333333333A4 4 0 0 0 13.333333333333332 0.88a5.746666666666666 5.746666666666666 0 0 0 -3.1466666666666665 0.36 7.706666666666667 7.706666666666667 0 0 0 -3.7199999999999998 3.1199999999999997 8.506666666666666 8.506666666666666 0 0 0 -0.7733333333333332 1.7066666666666666A11.106666666666666 11.106666666666666 0 0 0 5.333333333333333 7.333333333333333a9.853333333333332 9.853333333333332 0 0 0 -1.2 0.52 5.119999999999999 5.119999999999999 0 0 0 -0.9866666666666666 0.6933333333333334 5.7333333333333325 5.7333333333333325 0 0 0 -1.72 3.28 4 4 0 0 0 1.1199999999999999 3.5866666666666664 5.68 5.68 0 0 0 2.5066666666666664 1.3333333333333333 11.413333333333334 11.413333333333334 0 0 0 4.08 0.22666666666666668l0 0.5066666666666666c-0.07999999999999999 1.3333333333333333 -0.10666666666666666 2.6666666666666665 -0.12 4.093333333333333s0.29333333333333333 3.1333333333333333 0.24 4.7333333333333325a7.413333333333332 7.413333333333332 0 0 1 -0.2533333333333333 1.853333333333333 6.52 6.52 0 0 1 -0.5866666666666667 1.3333333333333333c-0.84 1.4666666666666668 0.8133333333333332 0.72 1.0933333333333333 0.29333333333333333a8 8 0 0 0 0.6266666666666666 -1.2133333333333334 8.986666666666666 8.986666666666666 0 0 0 0.5333333333333333 -2.88l0 -4.119999999999999 -0.17333333333333334 -10.146666666666667a0.42666666666666664 0.42666666666666664 0 0 0 -0.84 0c-0.17333333333333334 1.6133333333333333 -0.3333333333333333 3.1999999999999997 -0.45333333333333337 4.8l-0.10666666666666666 0A10.346666666666666 10.346666666666666 0 0 1 5.333333333333333 15.853333333333333 4.773333333333333 4.773333333333333 0 0 1 3.253333333333333 14.666666666666666a2.893333333333333 2.893333333333333 0 0 1 -0.72 -2.6666666666666665A4.546666666666667 4.546666666666667 0 0 1 4 9.466666666666665a3.7733333333333334 3.7733333333333334 0 0 1 0.7599999999999999 -0.5066666666666666 14.239999999999998 14.239999999999998 0 0 1 1.4133333333333333 -0.5466666666666666A0.9333333333333332 0.9333333333333332 0 0 0 6.666666666666666 8a12.626666666666667 12.626666666666667 0 0 0 0.37333333333333335 -1.48A6.2 6.2 0 0 1 8.64 4a6.453333333333333 6.453333333333333 0 0 1 2.0933333333333333 -1.3333333333333333 4.093333333333333 4.093333333333333 0 0 1 2.293333333333333 -0.24c0.3866666666666666 0.07999999999999999 0.9333333333333332 0.48 1.3333333333333333 0.6399999999999999a1.7733333333333334 1.7733333333333334 0 0 0 0.7466666666666667 0.12 5.24 5.24 0 0 0 1.1866666666666665 -0.2533333333333333 15.133333333333333 15.133333333333333 0 0 1 3.6533333333333333 -1.3333333333333333 4.08 4.08 0 0 1 2.88 1.0666666666666667 5.56 5.56 0 0 1 1.7466666666666666 2.6666666666666665 4.773333333333333 4.773333333333333 0 0 1 0.14666666666666667 0.7066666666666667 3.893333333333333 3.893333333333333 0 0 1 0 0.6799999999999999c0 0.09333333333333334 -0.07999999999999999 0.42666666666666664 -0.09333333333333334 0.5466666666666666a0.8666666666666667 0.8666666666666667 0 0 0 0.18666666666666668 0.6 1 1 0 0 0 0.5599999999999999 0.3333333333333333c0.24 0 0.6399999999999999 0.09333333333333334 0.7733333333333332 0.12a5.173333333333333 5.173333333333333 0 0 1 0.9199999999999999 0.3466666666666667 4.1466666666666665 4.1466666666666665 0 0 1 0.84 0.5066666666666666 3.2666666666666666 3.2666666666666666 0 0 1 1.3333333333333333 2.9333333333333336 5.706666666666667 5.706666666666667 0 0 1 -1.3333333333333333 3.28 3.813333333333333 3.813333333333333 0 0 1 -1.7866666666666666 1.1466666666666665 9.106666666666666 9.106666666666666 0 0 1 -2.32 0.31999999999999995l-1.9466666666666665 0c-1.5333333333333332 0 -3.0666666666666664 -0.09333333333333334 -4.6 -0.12 -0.5866666666666667 0 -1.2 -0.07999999999999999 -1.8 -0.07999999999999999v-0.3866666666666666a13.693333333333332 13.693333333333332 0 0 0 1.88 -1.1199999999999999 12.506666666666668 12.506666666666668 0 0 0 1.2 -1.0266666666666666c0.5866666666666667 -0.5466666666666666 1.0933333333333333 -1.1333333333333333 1.68 -1.6666666666666665a0.4666666666666666 0.4666666666666666 0 0 0 0.10666666666666666 -0.6666666666666666 0.48 0.48 0 0 0 -0.6666666666666666 -0.10666666666666666c-0.6933333333333334 0.3866666666666666 -1.3333333333333333 0.7733333333333332 -2.0266666666666664 1.2266666666666666 -0.27999999999999997 0.18666666666666668 -0.5466666666666666 0.3866666666666666 -0.7999999999999999 0.5866666666666667a8.693333333333332 8.693333333333332 0 0 0 -0.7333333333333334 0.6666666666666666c-0.2533333333333333 0.24 -0.4933333333333333 0.4933333333333333 -0.72 0.7466666666666667l0 -3.813333333333333a0.41333333333333333 0.41333333333333333 0 0 0 -0.41333333333333333 -0.42666666666666664 0.39999999999999997 0.39999999999999997 0 0 0 -0.42666666666666664 0.39999999999999997c-0.18666666666666668 2.6666666666666665 -0.5599999999999999 5.266666666666667 -0.7466666666666667 7.92 -0.12 1.7733333333333334 -0.12 3.5599999999999996 -0.07999999999999999 5.333333333333333a18.333333333333332 18.333333333333332 0 0 0 0.52 4.359999999999999 6.1466666666666665 6.1466666666666665 0 0 0 0.48 1.1466666666666665c0.24 0.41333333333333333 1.24 0.3333333333333333 1.2133333333333334 0a5.133333333333333 5.133333333333333 0 0 1 -0.5599999999999999 -1.3333333333333333 18.013333333333332 18.013333333333332 0 0 1 -0.14666666666666667 -4.093333333333333c0 -1.0933333333333333 0 -2.1866666666666665 0.09333333333333334 -3.2666666666666666s0 -2.1999999999999997 0.07999999999999999 -3.3066666666666666v-0.07999999999999999c0.6 0 1.2 0.10666666666666666 1.7866666666666666 0.13333333333333333l1.8133333333333335 0.07999999999999999c-0.09333333333333334 0.7066666666666667 -0.21333333333333332 1.3333333333333333 -0.26666666666666666 2.1066666666666665a10.493333333333332 10.493333333333332 0 0 0 0 1.1199999999999999l0 1.1199999999999999c0 0.8133333333333332 0.14666666666666667 1.6133333333333333 0.22666666666666668 2.413333333333333l-1.1333333333333333 0.06666666666666667a0.41333333333333333 0.41333333333333333 0 0 0 -0.30666666666666664 0.13333333333333333 0.4666666666666666 0.4666666666666666 0 0 0 -0.39999999999999997 0.45333333333333337 5.52 5.52 0 0 0 0.07999999999999999 1.6133333333333333 2.6666666666666665 2.6666666666666665 0 0 0 0.5733333333333333 1.0933333333333333 1.2 1.2 0 0 0 0.7333333333333334 0.26666666666666666 14.093333333333334 14.093333333333334 0 0 0 1.5199999999999998 0c0.9066666666666667 0 1.7733333333333334 0.19999999999999998 2.6666666666666665 0.29333333333333333 0.41333333333333333 0 0.8133333333333332 0.06666666666666667 1.2266666666666666 0.06666666666666667l1.5733333333333333 0a3.413333333333333 3.413333333333333 0 0 0 0.8266666666666667 -0.19999999999999998 0.84 0.84 0 0 0 0.5333333333333333 -0.7466666666666667 5.119999999999999 5.119999999999999 0 0 0 0 -1.0666666666666667 2.293333333333333 2.293333333333333 0 0 0 -1.0666666666666667 -1.9733333333333332 2.8 2.8 0 0 0 -0.9866666666666666 -0.26666666666666666 19.506666666666668 19.506666666666668 0 0 0 0.3466666666666667 -2.3466666666666667 8.346666666666666 8.346666666666666 0 0 0 0 -1 8.16 8.16 0 0 0 0 -0.9866666666666666c-0.06666666666666667 -0.6933333333333334 -0.18666666666666668 -1.3333333333333333 -0.24 -2.0533333333333332a7.573333333333332 7.573333333333332 0 0 0 2.16 -0.41333333333333333 4.88 4.88 0 0 0 1.7866666666666666 -1.4533333333333334ZM20.293333333333333 20c-0.06666666666666667 -0.7066666666666667 -0.17333333333333334 -1.3333333333333333 -0.26666666666666666 -2.0666666666666664l1.8 0.07999999999999999 2 0h0.06666666666666667a12.52 12.52 0 0 0 -0.37333333333333335 2.333333333333333 12.533333333333333 12.533333333333333 0 0 0 0 1.5866666666666664c0.06666666666666667 0.7866666666666666 0.19999999999999998 1.5466666666666664 0.22666666666666668 2.333333333333333l-2.28 0.19999999999999998 -1.4666666666666668 0.09333333333333334c0.10666666666666666 -0.7733333333333332 0.21333333333333332 -1.5466666666666664 0.27999999999999997 -2.333333333333333a10.559999999999999 10.559999999999999 0 0 0 0.06666666666666667 -1.1333333333333333c-0.026666666666666665 -0.37333333333333335 -0.026666666666666665 -0.7466666666666667 -0.05333333333333333 -1.0933333333333333Zm4.653333333333333 5.946666666666666c0.21333333333333332 0.12 0.22666666666666668 0.3866666666666666 0.26666666666666666 0.7999999999999999a0.9466666666666665 0.9466666666666665 0 0 0 0.06666666666666667 0.24h-0.14666666666666667l-1.24 0 -3.893333333333333 -0.026666666666666665c-0.7333333333333334 0 -1.5333333333333332 0.8533333333333333 -1.8666666666666665 -0.5599999999999999a4.96 4.96 0 0 1 -0.10666666666666666 -0.8666666666666667l3.413333333333333 0.12 2.2666666666666666 0a2.6666666666666665 2.6666666666666665 0 0 1 1.24 0.26666666666666666Z" fill="currentColor" fill-rule="evenodd" stroke-width="1.3333"></path>
  </g>
</svg>