<svg xmlns="http://www.w3.org/2000/svg" viewBox="0 0 32 32" id="Trip-Pin-Destination--Streamline-Freehand" height="32" width="32">
  <desc>
    Trip Pin Destination Streamline Icon: https://streamlinehq.com
  </desc>
  <title>trip-pin-destination</title>
  <g>
    <path d="M11.026666666666666 5.626666666666666A6.213333333333333 6.213333333333333 0 0 0 10.346666666666666 2.6666666666666665 5.333333333333333 5.333333333333333 0 0 0 8.079999999999998 0.3466666666666667 3.7733333333333334 3.7733333333333334 0 0 0 7.119999999999999 0a5.773333333333333 5.773333333333333 0 0 0 -1.3333333333333333 0 5.3999999999999995 5.3999999999999995 0 0 0 -3.2666666666666666 1.3333333333333333A4.76 4.76 0 0 0 1.08 4.493333333333333a8.426666666666666 8.426666666666666 0 0 0 0 1.64 8 8 0 0 0 0.3866666666666666 1.5866666666666664 8.146666666666667 8.146666666666667 0 0 0 0.9066666666666667 1.88c0.7999999999999999 1.3333333333333333 1.8666666666666665 2.4 2.6666666666666665 3.6933333333333334a0.4666666666666666 0.4666666666666666 0 0 0 0.12 0.48 0.4666666666666666 0.4666666666666666 0 0 0 0.6533333333333333 0C6.666666666666666 12.893333333333333 7.6 12 8.413333333333332 10.986666666666666a20.266666666666666 20.266666666666666 0 0 0 1.5333333333333332 -2.1066666666666665A6.84 6.84 0 0 0 10.666666666666666 7.346666666666666a6.133333333333333 6.133333333333333 0 0 0 0.36 -1.72Zm-1.5466666666666664 1.3333333333333333a5.84 5.84 0 0 1 -0.5599999999999999 1.3333333333333333A20 20 0 0 1 7.173333333333333 10.799999999999999c-0.5066666666666666 0.6399999999999999 -1.04 1.3333333333333333 -1.5866666666666664 1.88C4.906666666666666 11.44 4 10.306666666666667 3.28 9.053333333333333A7.666666666666666 7.666666666666666 0 0 1 2.6666666666666665 7.386666666666667a6.666666666666666 6.666666666666666 0 0 1 -0.21333333333333332 -1.3333333333333333 6.799999999999999 6.799999999999999 0 0 1 0 -1.3333333333333333 3.413333333333333 3.413333333333333 0 0 1 1.0933333333333333 -2.213333333333333 4 4 0 0 1 2.36 -0.8666666666666667 5.893333333333333 5.893333333333333 0 0 1 0.84 0 1.8266666666666667 1.8266666666666667 0 0 1 0.6799999999999999 0.17333333333333334 3.8533333333333335 3.8533333333333335 0 0 1 1.6133333333333333 1.4933333333333334 4.76 4.76 0 0 1 0.6266666666666666 2.3066666666666666 4.16 4.16 0 0 1 -0.18666666666666668 1.3466666666666667Z" fill="currentColor" fill-rule="evenodd" stroke-width="1.3333"></path>
    <path d="M7.573333333333332 3.6799999999999997a2.6666666666666665 2.6666666666666665 0 0 0 -1.3333333333333333 -0.5733333333333333 0.6399999999999999 0.6399999999999999 0 0 0 -0.22666666666666668 0A2.1333333333333333 2.1333333333333333 0 0 0 4.253333333333333 4a2.16 2.16 0 0 0 -0.15999999999999998 2.373333333333333 2.0666666666666664 2.0666666666666664 0 0 0 0.6799999999999999 0.72 2.893333333333333 2.893333333333333 0 0 0 1.3333333333333333 0.45333333333333337 2.2399999999999998 2.2399999999999998 0 0 0 1.7733333333333334 -0.7333333333333334 2.0666666666666664 2.0666666666666664 0 0 0 0.5333333333333333 -1.8133333333333335 2.333333333333333 2.333333333333333 0 0 0 -0.84 -1.3199999999999998ZM6.799999999999999 5.76a0.7466666666666667 0.7466666666666667 0 0 1 -0.5733333333333333 0.22666666666666668 1.24 1.24 0 0 1 -0.5333333333333333 -0.15999999999999998 0.7999999999999999 0.7999999999999999 0 0 1 -0.36 -0.2533333333333333 0.9066666666666667 0.9066666666666667 0 0 1 -0.13333333333333333 -0.9866666666666666 1.2133333333333334 1.2133333333333334 0 0 1 0.7866666666666666 -0.5866666666666667s0 0 0.09333333333333334 0a1.5999999999999999 1.5999999999999999 0 0 1 0.7599999999999999 0.4666666666666666 1.2133333333333334 1.2133333333333334 0 0 1 0.29333333333333333 0.72 0.7866666666666666 0.7866666666666666 0 0 1 -0.3333333333333333 0.5733333333333333Z" fill="currentColor" fill-rule="evenodd" stroke-width="1.3333"></path>
    <path d="m30.306666666666665 28.306666666666665 -0.7333333333333334 -0.30666666666666664a0.45333333333333337 0.45333333333333337 0 0 0 -0.36 0.84l0.48 0.27999999999999997a0.52 0.52 0 0 1 0.17333333333333334 0.26666666666666666c0 0.06666666666666667 0 0.10666666666666666 -0.12 0.15999999999999998a2.48 2.48 0 0 1 -0.96 0.5066666666666666 9.333333333333332 9.333333333333332 0 0 1 -2.48 0.42666666666666664 8.266666666666666 8.266666666666666 0 0 1 -2.466666666666667 -0.12 3.533333333333333 3.533333333333333 0 0 1 -0.9066666666666667 -0.27999999999999997c-0.19999999999999998 -0.10666666666666666 -0.41333333333333333 -0.21333333333333332 -0.48 -0.41333333333333333s0.15999999999999998 -0.5066666666666666 0.41333333333333333 -0.72a1.6666666666666665 1.6666666666666665 0 0 1 1.0666666666666667 -0.44 0.41333333333333333 0.41333333333333333 0 0 0 0.4933333333333333 -0.30666666666666664 0.39999999999999997 0.39999999999999997 0 0 0 -0.29333333333333333 -0.48 2.76 2.76 0 0 0 -2.1333333333333333 0.6266666666666666 1.6933333333333334 1.6933333333333334 0 0 0 -0.7333333333333334 1.5999999999999999 1.96 1.96 0 0 0 0.72 1.1333333333333333 4.64 4.64 0 0 0 1.48 0.7333333333333334 8.346666666666666 8.346666666666666 0 0 0 2.973333333333333 0.18666666666666668 9.453333333333333 9.453333333333333 0 0 0 2.893333333333333 -0.8133333333333332 3.3866666666666667 3.3866666666666667 0 0 0 1.5599999999999998 -1.3333333333333333 1.1866666666666665 1.1866666666666665 0 0 0 -0.5866666666666667 -1.5466666666666664Z" fill="currentColor" fill-rule="evenodd" stroke-width="1.3333"></path>
    <path d="M25.85333333333333 23.453333333333333a14 14 0 0 0 -0.2533333333333333 1.6933333333333334 14.933333333333332 14.933333333333332 0 0 0 0 1.5466666666666664l0.24 2.373333333333333a0.4666666666666666 0.4666666666666666 0 0 0 0.9199999999999999 0l0.31999999999999995 -2.32 0 -1.5599999999999998c0 -0.52 -0.13333333333333333 -1.1466666666666665 -0.22666666666666668 -1.72a3.7199999999999998 3.7199999999999998 0 0 0 1.08 -0.37333333333333335 4.773333333333333 4.773333333333333 0 0 0 0.6933333333333334 -0.45333333333333337 2.6666666666666665 2.6666666666666665 0 0 0 0.42666666666666664 -0.44 2.5466666666666664 2.5466666666666664 0 0 0 0.27999999999999997 -2.9066666666666667A4 4 0 0 0 25.986666666666665 17.333333333333332a2.0533333333333332 2.0533333333333332 0 0 0 -1.1733333333333333 0.3866666666666666 4.493333333333333 4.493333333333333 0 0 0 -1.08 1.16 0.48 0.48 0 0 0 0 0.48 3.706666666666666 3.706666666666666 0 0 0 -0.22666666666666668 0.6799999999999999 2.6666666666666665 2.6666666666666665 0 0 0 0.5333333333333333 2.333333333333333 3 3 0 0 0 1.8133333333333335 1.08Zm-1.4 -3.253333333333333a2.013333333333333 2.013333333333333 0 0 1 0.7333333333333334 -1.3333333333333333A0.48 0.48 0 0 0 25.333333333333332 18.666666666666664a1.1466666666666665 1.1466666666666665 0 0 1 0.6399999999999999 -0.15999999999999998 2.6666666666666665 2.6666666666666665 0 0 1 1.8399999999999999 1.1333333333333333 1.3333333333333333 1.3333333333333333 0 0 1 0.09333333333333334 1.64l-0.6666666666666666 0.5066666666666666a2.0266666666666664 2.0266666666666664 0 0 1 -1.2 0.27999999999999997 1.7866666666666666 1.7866666666666666 0 0 1 -1.1199999999999999 -0.4933333333333333 1.5599999999999998 1.5599999999999998 0 0 1 -0.4666666666666666 -1.3733333333333333Z" fill="currentColor" fill-rule="evenodd" stroke-width="1.3333"></path>
    <path d="M7.92 16.733333333333334a3 3 0 0 0 -0.31999999999999995 -0.39999999999999997 4.6 4.6 0 0 0 -0.37333333333333335 -0.3333333333333333c-0.3466666666666667 -0.26666666666666666 -0.6933333333333334 -0.44 -1.0533333333333332 -0.6799999999999999a0.39999999999999997 0.39999999999999997 0 0 0 -0.5733333333333333 0 0.39999999999999997 0.39999999999999997 0 0 0 0 0.5599999999999999 9.2 9.2 0 0 0 0.5733333333333333 1.1466666666666665 2.5199999999999996 2.5199999999999996 0 0 0 0.3333333333333333 0.41333333333333333 3.36 3.36 0 0 0 0.39999999999999997 0.36 9.333333333333332 9.333333333333332 0 0 0 1.0933333333333333 0.6799999999999999 0.45333333333333337 0.45333333333333337 0 0 0 0.6399999999999999 0 0.4666666666666666 0.4666666666666666 0 0 0 0 -0.6533333333333333c-0.29333333333333333 -0.41333333333333333 -0.48 -0.7599999999999999 -0.72 -1.0933333333333333Z" fill="currentColor" fill-rule="evenodd" stroke-width="1.3333"></path>
    <path d="M13.133333333333333 21.52c-0.13333333333333333 -0.14666666666666667 -0.26666666666666666 -0.30666666666666664 -0.41333333333333333 -0.45333333333333337l-0.45333333333333337 -0.39999999999999997c-0.39999999999999997 -0.30666666666666664 -0.7999999999999999 -0.5333333333333333 -1.1866666666666665 -0.8533333333333333a0.41333333333333333 0.41333333333333333 0 0 0 -0.5733333333333333 0 0.39999999999999997 0.39999999999999997 0 0 0 0 0.5599999999999999 9.079999999999998 9.079999999999998 0 0 0 0.7599999999999999 1.3333333333333333 3.1333333333333333 3.1333333333333333 0 0 0 0.44 0.4933333333333333 4 4 0 0 0 0.52 0.42666666666666664 13.12 13.12 0 0 0 1.3333333333333333 0.7733333333333332 0.45333333333333337 0.45333333333333337 0 1 0 0.5733333333333333 -0.7066666666666667c-0.39999999999999997 -0.39999999999999997 -0.6799999999999999 -0.7866666666666666 -1 -1.1733333333333333Z" fill="currentColor" fill-rule="evenodd" stroke-width="1.3333"></path>
    <path d="M19.066666666666666 26.106666666666662a3.6799999999999997 3.6799999999999997 0 0 0 -0.39999999999999997 -0.3866666666666666 3.84 3.84 0 0 0 -0.45333333333333337 -0.30666666666666664 11.746666666666666 11.746666666666666 0 0 0 -1.1866666666666665 -0.5066666666666666 0.39999999999999997 0.39999999999999997 0 0 0 -0.5066666666666666 0.6266666666666666c0.27999999999999997 0.36 0.4933333333333333 0.7066666666666667 0.7999999999999999 1.04a3.253333333333333 3.253333333333333 0 0 0 0.3866666666666666 0.36l0.44 0.29333333333333333c0.37333333333333335 0.21333333333333332 0.7333333333333334 0.37333333333333335 1.1066666666666665 0.6a0.45333333333333337 0.45333333333333337 0 0 0 0.6399999999999999 0 0.4666666666666666 0.4666666666666666 0 0 0 0 -0.6533333333333333 9.813333333333333 9.813333333333333 0 0 0 -0.8266666666666667 -1.0666666666666667Z" fill="currentColor" fill-rule="evenodd" stroke-width="1.3333"></path>
  </g>
</svg>